<svg width="24" height="24" viewBox="0 0 24 24" fill="none" xmlns="http://www.w3.org/2000/svg">
<g clip-path="url(#clip0_214_28)">
<path d="M11.9925 0.00109863L1.59375 6.0011V18.0114L11.9925 24.018L22.3913 18.018V6.00391L11.9925 0.00109863Z" fill="white"/>
<path d="M22.3921 6.00393L19.1371 4.12518L16.0059 5.93268L19.2609 7.81237L22.3921 6.00393Z" fill="#E0684B"/>
<path d="M4.725 7.81237L15.1228 1.80862L11.9925 0.000183105L1.59375 6.00393L4.725 7.81237Z" fill="#E0684B"/>
<path d="M8.73828 13.8874L11.9933 15.7661L15.2473 13.8874L11.9933 12.0077L8.73828 13.8874Z" fill="#E0684B"/>
<path d="M19.26 7.81234V16.2039L11.9925 20.4002L4.725 16.2039V7.81234L1.59375 6.00391V18.0114L11.9925 24.0152L22.3913 18.0114V6.00391L19.26 7.81234Z" fill="#BB464B"/>
<path d="M11.9933 8.25018L8.73828 10.1289V13.8874L11.9933 12.0077L15.2473 13.8874V10.1289L11.9933 8.25018Z" fill="#BB464B"/>
<path d="M19.2597 7.81238L15.2463 10.1289V13.8874L11.9922 15.7661V20.4002L19.2597 16.2039V7.81238Z" fill="#E0DED8"/>
<path d="M4.72461 7.81238L8.73711 10.1289V13.8874L11.9921 15.7661V20.4002L4.72461 16.2039V7.81238Z" fill="#D5D2CA"/>
<path d="M15.1224 1.80859L19.1359 4.12516L16.0046 5.93266L19.2596 7.81234L15.2462 10.1289L11.9921 8.25016L8.73711 10.1289L4.72461 7.81234L15.1224 1.80859Z" fill="white"/>
</g>
<defs>
<clipPath id="clip0_214_28">
<rect width="24" height="24" fill="white"/>
</clipPath>
</defs>
</svg>
