<svg width="24" height="24" viewBox="0 0 24 24" fill="none" xmlns="http://www.w3.org/2000/svg">
<g clip-path="url(#clip0_184_543)">
<path d="M12.6054 11.0871C11.7449 11.459 10.7605 11.8746 9.49163 11.8746C8.95931 11.8746 8.43428 11.8017 7.92383 11.6558L8.79888 20.6689C8.82805 21.0481 9.00306 21.3981 9.28016 21.6533C9.55726 21.9085 9.92187 22.0544 10.3011 22.0544C10.3011 22.0544 11.548 22.12 11.9637 22.12C12.4085 22.12 13.7502 22.0544 13.7502 22.0544C14.1294 22.0544 14.494 21.9158 14.7711 21.6533C15.0483 21.3981 15.2232 21.0481 15.2524 20.6689L16.193 10.7151C15.7701 10.5693 15.3472 10.4745 14.8732 10.4745C14.042 10.4745 13.3783 10.7589 12.6054 11.0871Z" fill="#FFDD06"/>
<path d="M20.2476 6.41281L20.1162 5.74923C19.9996 5.15129 19.7298 4.5825 19.1172 4.37102C18.9203 4.3054 18.6943 4.26894 18.5484 4.13039C18.3953 3.98454 18.3516 3.76578 18.3151 3.5616C18.2495 3.18241 18.1912 2.80322 18.1255 2.42403C18.0672 2.09589 18.0234 1.73128 17.8776 1.43959C17.6807 1.03853 17.2796 0.805181 16.8786 0.652047C16.6744 0.579125 16.4629 0.513496 16.2515 0.455159C15.2524 0.192643 14.2024 0.0978462 13.1741 0.0395089C11.9418 -0.0261201 10.7021 -0.0115359 9.46977 0.0978453C8.55097 0.178059 7.58841 0.280149 6.72065 0.601002C6.3998 0.717675 6.07164 0.856226 5.83101 1.10415C5.53203 1.40313 5.43724 1.87712 5.65599 2.24902C5.80913 2.51882 6.07164 2.70842 6.34875 2.83239C6.70606 2.99281 7.08525 3.11678 7.47173 3.19699C8.55097 3.43763 9.65937 3.52514 10.7605 3.56889C11.9783 3.61994 13.1961 3.57618 14.4138 3.45222C14.7128 3.41576 15.0118 3.3793 15.3108 3.33555C15.6608 3.2845 15.8869 2.8178 15.7848 2.50425C15.6608 2.11776 15.3253 1.97192 14.9534 2.03026C14.8951 2.03755 14.8441 2.04484 14.7857 2.05214L14.7492 2.05942C14.618 2.07401 14.494 2.0886 14.3628 2.10317C14.1003 2.13235 13.8378 2.15422 13.568 2.1761C12.9773 2.21986 12.3793 2.23443 11.7814 2.23443C11.198 2.23443 10.6146 2.21986 10.0313 2.1761C9.76146 2.16151 9.49894 2.13963 9.23643 2.11047C9.11246 2.09589 8.99578 2.0813 8.87911 2.06671L8.76244 2.05214H8.74057L8.62388 2.03755C8.38325 2.00109 8.14261 1.95734 7.90197 1.90629C7.88009 1.899 7.85822 1.88442 7.84363 1.86983C7.82904 1.85524 7.82176 1.82608 7.82176 1.80421C7.82176 1.78232 7.82904 1.75316 7.84363 1.73857C7.85822 1.72398 7.88009 1.7094 7.90197 1.70211H7.90927C8.11344 1.65836 8.32491 1.6219 8.53638 1.58544C8.60931 1.57085 8.67493 1.56356 8.74785 1.55626C8.87911 1.54898 9.01037 1.5271 9.14163 1.50523C10.2792 1.38855 11.4241 1.34479 12.5689 1.38126C13.1231 1.39584 13.6773 1.4323 14.2315 1.48335C14.3482 1.49793 14.4722 1.50523 14.5888 1.5198C14.6326 1.5271 14.6764 1.53439 14.7274 1.53439L14.8222 1.54898C15.092 1.58544 15.3545 1.63649 15.6243 1.69482C16.0181 1.78232 16.5213 1.81149 16.6962 2.23443C16.7546 2.37299 16.7765 2.51882 16.8056 2.66467L16.8421 2.84698V2.85426C16.9369 3.2845 17.0244 3.71474 17.1192 4.14497C17.1265 4.17414 17.1265 4.2106 17.1192 4.23976C17.1119 4.26894 17.0973 4.3054 17.0828 4.32727C17.0609 4.35644 17.039 4.37832 17.0098 4.39291C16.9807 4.40748 16.9515 4.42207 16.9223 4.42207L16.8639 4.42936L16.8056 4.43666C16.6306 4.45853 16.4483 4.48041 16.2733 4.50228C15.9233 4.53874 15.5733 4.5752 15.2232 4.60438C14.5232 4.66271 13.8305 4.69917 13.1304 4.72105C12.7731 4.72834 12.4158 4.73563 12.0585 4.73563C10.6365 4.73563 9.22184 4.65541 7.81447 4.4877C7.66133 4.47312 7.50819 4.45124 7.35506 4.42936C7.47173 4.44394 7.26756 4.41478 7.2311 4.41478C7.1363 4.40019 7.0342 4.38561 6.93941 4.37102C6.61127 4.31998 6.29041 4.26165 5.96227 4.2106C5.56849 4.14497 5.19659 4.18143 4.83928 4.37102C4.5476 4.53145 4.31425 4.7721 4.16111 5.07106C4.00798 5.38463 3.96423 5.73465 3.89131 6.07008C3.82568 6.41281 3.71629 6.77743 3.76005 7.12744C3.84755 7.87853 4.37259 8.49107 5.13097 8.62962C5.84559 8.76088 6.56022 8.86297 7.28213 8.95048C10.1042 9.2932 12.9627 9.33695 15.792 9.07444C16.0253 9.05256 16.2515 9.03069 16.4848 9.00151C16.5578 8.99423 16.6306 9.00151 16.6962 9.0234C16.7618 9.04527 16.8276 9.08902 16.8786 9.14007C16.9296 9.19111 16.966 9.24945 16.9953 9.32237C17.0171 9.38803 17.0317 9.46096 17.0244 9.53381L16.9515 10.2338C16.8056 11.6413 16.6598 13.0487 16.5213 14.4633C16.3681 15.9436 16.2223 17.4239 16.0691 18.9042C16.0253 19.3199 15.9817 19.7355 15.9379 20.1512C15.8941 20.5596 15.8941 20.9825 15.8139 21.3908C15.6899 22.0252 15.2597 22.419 14.6326 22.5649C14.0565 22.6961 13.4659 22.7617 12.8752 22.7691C12.2189 22.7691 11.5626 22.7471 10.9063 22.7471C10.2063 22.7544 9.34581 22.6888 8.80619 22.1638C8.3322 21.7043 8.26658 20.9898 8.20095 20.3699C8.11344 19.5532 8.02594 18.7292 7.94572 17.9125L7.47173 13.3549L7.16546 10.4016C7.15817 10.3506 7.15817 10.3068 7.15088 10.2558C7.11442 9.90571 6.86648 9.56296 6.47272 9.57759C6.13728 9.59221 5.75809 9.87656 5.79455 10.2558L6.02061 12.4434L6.49459 16.9645C6.62585 18.248 6.7644 19.5313 6.89566 20.8221C6.92483 21.0699 6.94671 21.3179 6.97587 21.5586C7.12171 22.9076 8.1499 23.6295 9.42602 23.8337C10.1698 23.9503 10.9282 23.9796 11.6866 23.9868C12.6564 24.0014 13.6336 24.0379 14.5815 23.8628C15.989 23.6077 17.0463 22.667 17.1994 21.2012C17.2432 20.7783 17.2869 20.3554 17.3306 19.9397C17.4765 18.5469 17.6151 17.1541 17.7609 15.754L18.2276 11.1965L18.439 9.1109C18.4463 9.00881 18.4901 8.90672 18.5631 8.8338C18.636 8.76088 18.7235 8.70254 18.8256 8.68796C19.2266 8.60775 19.6131 8.47649 19.8975 8.17021C20.3204 7.68894 20.408 7.05452 20.2476 6.41281ZM5.09451 6.86492C5.1018 6.86492 5.08721 6.91597 5.08721 6.93785C5.07992 6.90139 5.07992 6.86492 5.09451 6.86492ZM5.13097 7.1639C5.13097 7.1639 5.14555 7.1712 5.15284 7.19308C5.13826 7.17849 5.13097 7.1639 5.13097 7.1639ZM5.16743 7.21495C5.18201 7.24411 5.18931 7.2587 5.16743 7.21495V7.21495ZM18.7673 7.18578C18.6214 7.32434 18.4027 7.38996 18.1912 7.41913C15.7775 7.77645 13.32 7.95874 10.8771 7.87853C9.12704 7.8202 7.39882 7.6233 5.66329 7.38267C5.49557 7.3608 5.31327 7.32433 5.19659 7.20036C4.97783 6.96702 5.08721 6.49303 5.14555 6.20134C5.19659 5.93883 5.29868 5.58881 5.61224 5.55235C6.09353 5.49401 6.66231 5.69819 7.1363 5.77111C7.71237 5.85862 8.29574 5.93154 8.87182 5.98259C11.3511 6.20864 13.8815 6.17218 16.3463 5.84403C16.7983 5.78569 17.2432 5.71277 17.6953 5.63256C18.0964 5.55964 18.5339 5.42838 18.7745 5.83674C18.9422 6.12113 18.9641 6.49303 18.935 6.81389C18.935 6.95972 18.8693 7.09098 18.7673 7.18578Z" fill="white"/>
</g>
<defs>
<clipPath id="clip0_184_543">
<rect width="24" height="24" fill="white"/>
</clipPath>
</defs>
</svg>
