<svg width="24" height="24" viewBox="0 0 24 24" fill="none" xmlns="http://www.w3.org/2000/svg">
<g clip-path="url(#clip0_220_2)">
<path d="M12 24.0002C18.6274 24.0002 24 18.6277 24 12.0002C24 5.37283 18.6274 0.000244141 12 0.000244141C5.37258 0.000244141 0 5.37283 0 12.0002C0 18.6277 5.37258 24.0002 12 24.0002Z" fill="url(#paint0_linear_220_2)"/>
<path d="M17.8541 14.7099C17.8735 14.4776 17.5638 14.3906 17.4573 14.5938C16.3928 16.6841 14.6799 18.1647 12.6767 18.2906C11.0606 18.3873 9.63799 17.3712 9.08638 15.7454C8.55412 14.168 8.5638 12.8131 8.89283 10.9647C9.38638 8.197 11.167 5.21636 13.9541 5.34217C15.1251 5.39055 15.6864 6.08733 15.6864 7.23894C15.6864 8.62281 14.9122 9.2712 14.9122 9.79378C14.9122 9.94862 15.0477 10.1131 15.309 10.1131C16.3735 10.1131 17.6315 8.85507 17.6315 7.15184C17.6315 5.43894 16.2477 4.19055 13.7896 4.19055C9.73477 4.19055 6.13477 7.99378 6.13477 13.2196C6.13477 17.3809 8.60251 19.8099 12.1541 19.8099C13.4315 19.8099 15.2122 19.0551 16.6444 17.3809C17.9606 15.8615 17.8541 14.7099 17.8541 14.7099Z" fill="white"/>
</g>
<defs>
<linearGradient id="paint0_linear_220_2" x1="8.61687" y1="4.19561" x2="16.7462" y2="22.9494" gradientUnits="userSpaceOnUse">
<stop stop-color="#01C3CC"/>
<stop offset="0.51" stop-color="#4569E0"/>
<stop offset="0.998" stop-color="#7428EF"/>
<stop offset="1" stop-color="#7428EF"/>
</linearGradient>
<clipPath id="clip0_220_2">
<rect width="24" height="24" fill="white" transform="translate(0 0.000244141)"/>
</clipPath>
</defs>
</svg>
