<svg width="24" height="24" viewBox="0 0 24 24" fill="none" xmlns="http://www.w3.org/2000/svg">
<path d="M0.00506642 5.99025C0.0929252 5.21807 0.452983 4.50243 1.02068 3.97167C1.58837 3.44091 2.32658 3.12973 3.10292 3.09393H16.7501C17.2394 3.13428 17.7136 3.28281 18.1384 3.52879C18.5632 3.77477 18.9281 4.11206 19.2067 4.51628C19.4577 4.8845 19.6348 5.29799 19.728 5.73376L23.7386 3.74514C23.764 3.73241 23.7922 3.72596 23.8206 3.72632C23.8491 3.72668 23.877 3.73385 23.9021 3.74722C23.9272 3.76059 23.9487 3.77977 23.9649 3.80317C23.9811 3.82657 23.9915 3.8535 23.995 3.88172C23.995 4.63287 23.995 5.38068 23.995 6.13682C23.9966 6.21217 23.9754 6.28623 23.9341 6.34926C23.8927 6.41229 23.8333 6.46132 23.7636 6.4899C20.0739 8.31974 16.3837 10.1518 12.6929 11.9861L23.7386 17.4506C23.8091 17.4751 23.871 17.5196 23.9167 17.5789C23.9622 17.638 23.9894 17.7093 23.995 17.7837C23.995 18.5365 23.995 19.2827 23.995 20.0422C23.9953 20.0765 23.9859 20.1102 23.9681 20.1396C23.9503 20.1688 23.9246 20.1926 23.894 20.2082C23.8634 20.2238 23.8291 20.2305 23.7949 20.2277C23.7607 20.2248 23.7278 20.2125 23.7003 20.1921C22.3845 19.5259 21.0504 18.8979 19.7447 18.2184C19.6569 18.534 19.5398 18.8407 19.3949 19.1345C19.1737 19.5415 18.87 19.898 18.5033 20.181C18.1364 20.4641 17.7146 20.6675 17.2647 20.7783C16.9638 20.8416 16.656 20.8667 16.3487 20.8533H3.62922C3.34275 20.8533 3.05462 20.8533 2.76982 20.8316C2.05177 20.7241 1.39006 20.3802 0.889331 19.8545C0.388605 19.3287 0.077447 18.6511 0.00506642 17.9287C0.00506642 17.2008 0.00506642 16.4713 0.00506642 15.7435C0.0171377 15.6524 0.0548645 15.5665 0.113843 15.4961C0.172821 15.4256 0.250619 15.3733 0.338169 15.3454C2.6066 14.2245 4.87002 13.0936 7.14178 11.9778C4.85337 10.8386 2.56329 9.70267 0.27155 8.57012C0.193637 8.53574 0.127334 8.47955 0.0806421 8.40833C0.0339489 8.33712 0.00885861 8.2539 0.00839643 8.16874C0.00506455 7.44425 -0.00659177 6.71641 0.00506642 5.99025ZM2.53331 6.00524C2.39674 6.28005 2.46003 6.59817 2.44838 6.89462C4.94663 8.12877 7.42657 9.36958 9.91987 10.5954C12.3837 9.37401 14.8487 8.15263 17.3147 6.93127C17.3147 6.70976 17.3247 6.48823 17.3147 6.26506C17.2857 6.06557 17.1853 5.8834 17.0321 5.75231C16.879 5.62122 16.6836 5.55012 16.482 5.55222H3.29445C3.13731 5.54696 2.98194 5.58683 2.84676 5.66712C2.71157 5.7474 2.60222 5.86474 2.53164 6.00524H2.53331ZM2.44838 17.0575C2.46003 17.3574 2.39508 17.6805 2.53997 17.9586C2.61273 18.0954 2.7222 18.2092 2.85608 18.2872C2.98995 18.3651 3.14291 18.4042 3.29778 18.4H16.4936C16.6399 18.4012 16.7837 18.3634 16.9104 18.2904C17.0372 18.2176 17.1423 18.1122 17.2147 17.9853C17.3813 17.6938 17.3048 17.344 17.3213 17.0243C14.8514 15.8051 12.3848 14.566 9.90984 13.3601C7.41492 14.5926 4.9272 15.8251 2.44671 17.0575H2.44838Z" fill="black"/>
</svg>
