<svg width="24" height="24" viewBox="0 0 24 24" fill="currentColor" xmlns="http://www.w3.org/2000/svg">
<g clip-path="url(#clip0_177_730)">
<path d="M0.868176 18.0311C0.620569 18.4349 0.342486 18.9034 0.106307 19.2768C-0.105092 19.634 0.00839518 20.0947 0.361533 20.3129L5.31368 23.3604C5.48751 23.4677 5.69717 23.5007 5.89557 23.452C6.09397 23.4033 6.2645 23.277 6.36887 23.1013C6.56696 22.7699 6.82219 22.3395 7.10027 21.8785C9.06208 18.6406 11.0353 19.0368 14.5933 20.7357L19.5035 23.0709C19.6895 23.1594 19.9034 23.1688 20.0964 23.0971C20.2895 23.0253 20.4452 22.8784 20.5282 22.6899L22.8862 17.3568C23.0528 16.976 22.8833 16.5318 22.5053 16.3588C21.4691 15.8712 19.4083 14.8998 17.5531 14.0046C10.8791 10.7629 5.20702 10.9724 0.868176 18.0311Z" fill="url(#paint0_linear_177_730)"/>
<path d="M23.0738 5.92818C23.3215 5.52439 23.5995 5.05584 23.8357 4.68252C24.0471 4.32528 23.9336 3.86456 23.5805 3.64638L18.6283 0.598902C18.4531 0.480866 18.2367 0.44091 18.0308 0.488579C17.825 0.536249 17.6482 0.667262 17.5427 0.850319C17.3446 1.18173 17.0894 1.61219 16.8113 2.07312C14.8495 5.31106 12.8762 4.91489 9.3183 3.21592L4.42329 0.892221C4.23732 0.803706 4.02344 0.794254 3.83038 0.86602C3.63733 0.937787 3.48156 1.08466 3.39857 1.27316L1.04059 6.60624C0.873992 6.98714 1.04351 7.43126 1.42152 7.60429C2.45766 8.09189 4.51852 9.06327 6.37367 9.95847C13.0629 13.1964 18.735 12.9793 23.0738 5.92818Z" fill="url(#paint1_linear_177_730)"/>
</g>
<defs>
<linearGradient id="paint0_linear_177_730" x1="2275.29" y1="1306.55" x2="1720.72" y2="34.3097" gradientUnits="userSpaceOnUse">
<stop offset="0.18" stop-color="#0052CC"/>
<stop offset="1" stop-color="#2684FF"/>
</linearGradient>
<linearGradient id="paint1_linear_177_730" x1="22.2355" y1="-144.241" x2="577.681" y2="1128.62" gradientUnits="userSpaceOnUse">
<stop offset="0.18" stop-color="#0052CC"/>
<stop offset="1" stop-color="#2684FF"/>
</linearGradient>
<clipPath id="clip0_177_730">
<rect width="24" height="24" fill="white"/>
</clipPath>
</defs>
</svg>
