<svg width="24" height="24" viewBox="0 0 24 24" fill="none" xmlns="http://www.w3.org/2000/svg">
<g clip-path="url(#clip0_177_907)">
<path d="M22.6078 7.03718C22.6076 6.63472 22.5215 6.27909 22.3475 5.97387C22.1765 5.67373 21.9204 5.42217 21.577 5.22328C18.7418 3.58852 15.904 1.95877 13.0697 0.322349C12.3057 -0.118774 11.5648 -0.102692 10.8064 0.344763C9.67791 1.01028 4.02806 4.24721 2.34448 5.22236C1.65113 5.62373 1.31375 6.23801 1.31358 7.03643C1.3125 10.324 1.31358 13.6115 1.3125 16.8992C1.31267 17.2928 1.39508 17.6415 1.56148 17.9422C1.73254 18.2514 1.99218 18.5099 2.34356 18.7133C4.02723 19.6884 9.67783 22.9251 10.8061 23.5908C11.5648 24.0385 12.3057 24.0545 13.07 23.6132C15.9043 21.9767 18.7423 20.347 21.5779 18.7123C21.9293 18.5089 22.1889 18.2503 22.36 17.9413C22.5261 17.6407 22.6087 17.292 22.6089 16.8983C22.6089 16.8983 22.6089 10.3248 22.6078 7.03718Z" fill="#5C8DBC"/>
<path d="M11.9943 11.9357L1.5625 17.9421C1.73357 18.2513 1.99321 18.5098 2.34459 18.7132C4.02825 19.6884 9.67886 22.925 10.8071 23.5907C11.5658 24.0384 12.3067 24.0544 13.071 23.6131C15.9053 21.9766 18.7434 20.347 21.5789 18.7122C21.9303 18.5089 22.1899 18.2503 22.361 17.9413L11.9943 11.9357Z" fill="#1A4674"/>
<path d="M8.9043 13.7149C9.51132 14.7746 10.6525 15.4894 11.9615 15.4894C13.2786 15.4894 14.4262 14.7655 15.0302 13.6945L11.9941 11.9357L8.9043 13.7149Z" fill="#1A4674"/>
<path d="M22.6087 7.03713C22.6085 6.63467 22.5224 6.27904 22.3484 5.97382L11.9941 11.9357L22.3609 17.9413C22.527 17.6406 22.6096 17.2919 22.6097 16.8982C22.6097 16.8982 22.6097 10.3248 22.6087 7.03713Z" fill="#1B598E"/>
<path d="M22.0385 12.365H21.2284V13.1752H20.4181V12.365H19.6081V11.555H20.4181V10.7449H21.2284V11.555H22.0385V12.365ZM19.0825 12.365H18.2725V13.1752H17.4624V12.365H16.6523V11.555H17.4624V10.7449H18.2725V11.555H19.0825V12.365Z" fill="white"/>
<path d="M15.0296 13.6945C14.4256 14.7656 13.278 15.4894 11.9609 15.4894C10.6518 15.4894 9.51071 14.7746 8.90369 13.7149C8.59875 13.1832 8.4386 12.5807 8.43923 11.9678C8.43923 10.0229 10.016 8.44619 11.9609 8.44619C13.2615 8.44619 14.3966 9.15204 15.0067 10.2009L18.0848 8.42844C16.8613 6.31649 14.5771 4.89563 11.9609 4.89563C8.05494 4.89563 4.88867 8.06198 4.88867 11.9678C4.88867 13.2491 5.22955 14.4508 5.82533 15.4872C7.04571 17.6104 9.33639 19.04 11.9609 19.04C14.5902 19.04 16.8845 17.6046 18.1031 15.4752L15.0296 13.6945Z" fill="white"/>
</g>
<defs>
<clipPath id="clip0_177_907">
<rect width="24" height="24" fill="white"/>
</clipPath>
</defs>
</svg>
