<svg width="24" height="24" viewBox="0 0 24 24" fill="none" xmlns="http://www.w3.org/2000/svg">
<g clip-path="url(#clip0_177_709)">
<mask id="mask0_177_709" style="mask-type:luminance" maskUnits="userSpaceOnUse" x="0" y="0" width="24" height="25">
<path d="M24 0.000183105H0V24.0002H24V0.000183105Z" fill="white"/>
</mask>
<g mask="url(#mask0_177_709)">
<path d="M22.5613 7.10923C22.5613 6.7114 22.4765 6.35271 22.3004 6.05267C22.1309 5.75267 21.8765 5.50484 21.5374 5.30918C18.7198 3.68515 15.8958 2.06117 13.0782 0.437152C12.3151 0.000166275 11.5847 0.0132159 10.8281 0.456713C9.7063 1.11546 4.08424 4.33736 2.4146 5.30918C1.72324 5.70701 1.39062 6.32009 1.39062 7.11579V16.925C1.39062 17.3163 1.4754 17.662 1.63846 17.962C1.80805 18.2686 2.06893 18.5294 2.4146 18.7316C4.09078 19.7034 9.7063 22.9188 10.8281 23.5841C11.5847 24.0275 12.3216 24.047 13.0782 23.6036C15.8958 21.9731 18.7198 20.3556 21.5374 18.7316C21.8896 18.5294 22.1439 18.2751 22.3135 17.962C22.4765 17.662 22.5613 17.3163 22.5613 16.925V7.10923Z" fill="#9A4993"/>
<path d="M12.0016 11.9813L1.625 17.9555C1.79459 18.262 2.05548 18.5229 2.40114 18.7251C4.07733 19.6969 9.69282 22.9123 10.8146 23.5775C11.5712 24.0211 12.3082 24.0406 13.0648 23.5971C15.8823 21.9666 18.7064 20.3491 21.5239 18.7251C21.8761 18.5229 22.1305 18.2686 22.3 17.9555L12.0016 11.9813Z" fill="#6A1577"/>
<path d="M8.92969 13.7487C9.53625 14.8053 10.6711 15.5162 11.969 15.5162C13.2799 15.5162 14.4213 14.7988 15.0213 13.7291L12.0016 11.9813L8.92969 13.7487Z" fill="#6A1577"/>
<path d="M22.5612 7.10924C22.5612 6.71141 22.4764 6.35272 22.3003 6.05267L12.002 11.9813L22.3133 17.9555C22.4764 17.6555 22.5612 17.3098 22.5612 16.9185V7.10924Z" fill="#813084"/>
<path d="M15.0213 13.7292C14.4213 14.7923 13.2799 15.5162 11.969 15.5162C10.6645 15.5162 9.52975 14.8053 8.9297 13.7488C8.63622 13.2335 8.46662 12.6465 8.46662 12.0139C8.46662 10.0768 10.0319 8.51151 11.969 8.51151C13.2603 8.51151 14.3887 9.21591 14.9952 10.2594L18.0541 8.49848C16.8345 6.39839 14.5648 4.98309 11.9625 4.98309C8.07527 4.98309 4.93164 8.13323 4.93164 12.0139C4.93164 13.2857 5.27078 14.4858 5.86431 15.5162C7.07739 17.6229 9.36016 19.0447 11.969 19.0447C14.5844 19.0447 16.8671 17.6164 18.0802 15.4967L15.0213 13.7292ZM18.8889 10.3507H18.191V13.7227H18.8889V10.3507ZM20.4347 10.3507H19.7368V13.7227H20.4347V10.3507Z" fill="white"/>
<path d="M21.0028 10.9182H17.6309V11.616H21.0028V10.9182ZM21.0028 12.4573H17.6309V13.1552H21.0028V12.4573Z" fill="white"/>
</g>
</g>
<defs>
<clipPath id="clip0_177_709">
<rect width="24" height="24" fill="white"/>
</clipPath>
</defs>
</svg>
