<svg width="24" height="24" viewBox="0 0 24 24" fill="none" xmlns="http://www.w3.org/2000/svg">
<g clip-path="url(#clip0_218_88)">
<path d="M23.9551 17.027C23.9658 16.9225 23.9736 16.817 23.9796 16.711C23.9868 16.5855 16.4268 9.41248 16.4268 9.41248H16.2461C16.2461 9.41248 23.9088 17.4952 23.9551 17.027Z" fill="url(#paint0_linear_218_88)"/>
<path d="M7.82453 14.5388C7.81453 14.5608 7.80453 14.5828 7.79428 14.6048C7.78353 14.6278 7.77253 14.6508 7.76153 14.6735C7.52053 15.176 11.1353 18.7098 11.426 18.2805C11.4393 18.2615 11.4525 18.2415 11.4658 18.2225C11.4805 18.2 11.495 18.1785 11.5095 18.156C11.742 17.803 7.92778 14.3093 7.82453 14.5388Z" fill="url(#paint1_linear_218_88)"/>
<path d="M12.9327 19.5081C12.9225 19.5306 12.8497 19.6536 12.7832 19.7186C12.772 19.7411 16.312 23.2518 16.312 23.2518H16.6307C16.631 23.2518 13.3077 19.6566 12.9327 19.5081Z" fill="url(#paint2_linear_218_88)"/>
<path d="M23.9845 16.6472C23.819 20.3172 20.7828 23.2517 17.0733 23.2517H16.5718L12.8673 19.6022C13.172 19.1725 13.4553 18.7272 13.7075 18.263H17.0733C18.1378 18.263 19.004 17.3972 19.004 16.3322C19.004 15.2677 18.1378 14.4015 17.0733 14.4015H15.0815C15.2333 13.5992 15.3163 12.772 15.3163 11.9257C15.3163 11.0665 15.2317 10.2275 15.0745 9.41249H16.3118L23.9627 16.9512C23.9717 16.8502 23.979 16.7492 23.9845 16.6472ZM2.0125 0.562744H0V5.55149H2.0125C5.5275 5.55149 8.3875 8.41074 8.3875 11.9257C8.3875 12.882 8.17425 13.7897 7.79525 14.6047L11.4667 18.2225C12.6722 16.4187 13.377 14.2532 13.377 11.9257C13.377 5.66024 8.27875 0.562744 2.0125 0.562744Z" fill="url(#paint3_linear_218_88)"/>
<path d="M17.0733 0.562744H8.92383C10.9143 1.77799 12.5626 3.50124 13.6856 5.55149H17.0733C18.1378 5.55149 19.0041 6.41724 19.0041 7.48224C19.0041 8.54699 18.1378 9.41274 17.0733 9.41274H16.3121L23.9631 16.9515C23.9811 16.747 23.9923 16.5412 23.9923 16.3322C23.9923 14.6505 23.3888 13.1077 22.3868 11.907C23.3888 10.7067 23.9923 9.16374 23.9923 7.48224C23.9923 3.66699 20.8888 0.562744 17.0733 0.562744Z" fill="url(#paint4_linear_218_88)"/>
<path d="M16.5718 23.2517H8.982C10.5097 22.3082 11.8305 21.0627 12.8673 19.6022L16.5718 23.2517ZM11.4667 18.2225L7.7955 14.6047C6.78125 16.7845 4.571 18.3005 2.0125 18.3005H0V23.2887H2.0125C5.951 23.2887 9.42725 21.2742 11.4667 18.2225Z" fill="url(#paint5_linear_218_88)"/>
</g>
<defs>
<linearGradient id="paint0_linear_218_88" x1="-622.825" y1="-699.182" x2="798.892" y2="837.302" gradientUnits="userSpaceOnUse">
<stop stop-color="#F9A03C"/>
<stop offset="1" stop-color="#F7974E"/>
</linearGradient>
<linearGradient id="paint1_linear_218_88" x1="-968.325" y1="-928.731" x2="382.306" y2="381.973" gradientUnits="userSpaceOnUse">
<stop stop-color="#F9A03C"/>
<stop offset="1" stop-color="#F7974E"/>
</linearGradient>
<linearGradient id="paint2_linear_218_88" x1="-845.841" y1="-961.234" x2="336.807" y2="432.254" gradientUnits="userSpaceOnUse">
<stop stop-color="#F9A03C"/>
<stop offset="1" stop-color="#F7974E"/>
</linearGradient>
<linearGradient id="paint3_linear_218_88" x1="271.953" y1="-40.7697" x2="1860.11" y2="2175.31" gradientUnits="userSpaceOnUse">
<stop stop-color="#F26D58"/>
<stop offset="1" stop-color="#F9A03C"/>
</linearGradient>
<linearGradient id="paint4_linear_218_88" x1="247.664" y1="63.7911" x2="1895.9" y2="1059.57" gradientUnits="userSpaceOnUse">
<stop stop-color="#B84E51"/>
<stop offset="1" stop-color="#F68E48"/>
</linearGradient>
<linearGradient id="paint5_linear_218_88" x1="778.61" y1="218.387" x2="800.919" y2="1295.77" gradientUnits="userSpaceOnUse">
<stop stop-color="#F9A03C"/>
<stop offset="1" stop-color="#F7974E"/>
</linearGradient>
<clipPath id="clip0_218_88">
<rect width="24" height="24" fill="white" transform="translate(0 0.000244141)"/>
</clipPath>
</defs>
</svg>
