<svg width="24" height="24" viewBox="0 0 24 24" fill="none" xmlns="http://www.w3.org/2000/svg">
<g clip-path="url(#clip0_177_720)">
<path d="M19.3125 0.000183105H4.6875C2.09867 0.000183105 0 2.09885 0 4.68768V19.3127C0 21.9015 2.09867 24.0002 4.6875 24.0002H19.3125C21.9013 24.0002 24 21.9015 24 19.3127V4.68768C24 2.09885 21.9013 0.000183105 19.3125 0.000183105Z" fill="url(#paint0_linear_177_720)"/>
<mask id="mask0_177_720" style="mask-type:luminance" maskUnits="userSpaceOnUse" x="2" y="2" width="20" height="20">
<path d="M21.1875 2.81268H2.8125V21.1877H21.1875V2.81268Z" fill="white"/>
</mask>
<g mask="url(#mask0_177_720)">
<path d="M19.869 10.3331C20.2859 9.08191 20.1424 7.71125 19.4757 6.57315C18.4731 4.82753 16.4576 3.92945 14.4892 4.35207C13.6135 3.36556 12.3554 2.80455 11.0364 2.81259C9.02435 2.80799 7.2391 4.10343 6.62009 6.01788C5.32753 6.28259 4.21182 7.09166 3.55893 8.23838C2.54888 9.97941 2.77914 12.1741 4.12856 13.6671C3.71167 14.9183 3.85523 16.289 4.52189 17.427C5.52449 19.1726 7.53999 20.0707 9.50843 19.6481C10.3835 20.6347 11.6422 21.1957 12.9611 21.187C14.9744 21.1922 16.7602 19.8956 17.3792 17.9795C18.6718 17.7147 19.7875 16.9057 20.4404 15.7589C21.4493 14.0179 21.2185 11.825 19.8696 10.332L19.869 10.3331ZM12.9624 19.9863C12.1567 19.9875 11.3763 19.7055 10.7579 19.1893C10.7861 19.1744 10.8349 19.1474 10.8664 19.1279L14.5254 17.0148C14.7126 16.9085 14.8274 16.7093 14.8262 16.4939V11.3357L16.3726 12.2287C16.3893 12.2366 16.4002 12.2528 16.4025 12.2711V16.5427C16.4002 18.4422 14.8618 19.9823 12.9624 19.9863ZM5.5641 16.8264C5.16043 16.1293 5.01515 15.3122 5.15354 14.5192C5.18053 14.5353 5.22819 14.5645 5.26206 14.584L8.92098 16.6972C9.10646 16.8057 9.33614 16.8057 9.52221 16.6972L13.989 14.1178V15.9037C13.9901 15.922 13.9816 15.9398 13.9672 15.9513L10.2686 18.0868C8.62124 19.0354 6.51731 18.4716 5.56468 16.8264H5.5641ZM4.60114 8.83958C5.00309 8.14134 5.6376 7.60732 6.39328 7.32997C6.39328 7.36155 6.39155 7.41725 6.39155 7.45629V11.6831C6.39041 11.8979 6.50525 12.0971 6.69187 12.2033L11.1587 14.7822L9.6123 15.6751C9.59684 15.6854 9.57734 15.6872 9.56009 15.6797L5.86097 13.5425C4.21698 12.5903 3.6531 10.4871 4.60056 8.84017L4.60114 8.83958ZM17.3063 11.7963L12.8395 9.21685L14.3859 8.32451C14.4013 8.31418 14.4208 8.31246 14.4381 8.31992L18.1372 10.4555C19.7841 11.4069 20.3486 13.5137 19.397 15.1606C18.9945 15.8577 18.3606 16.3917 17.6054 16.6696V12.3165C17.6072 12.1017 17.4929 11.9031 17.3068 11.7963H17.3063ZM18.8452 9.47981C18.8182 9.46322 18.7706 9.43444 18.7367 9.41494L15.0777 7.30183C14.8923 7.19331 14.6626 7.19331 14.4765 7.30183L10.0097 9.88125V8.0954C10.0086 8.07702 10.0172 8.05923 10.0316 8.04774L13.7301 5.91395C15.3775 4.96361 17.4837 5.52922 18.4335 7.17723C18.8349 7.87318 18.9802 8.68799 18.8441 9.47981H18.8452ZM9.16904 12.6627L7.6221 11.7698C7.60545 11.7618 7.59454 11.7458 7.59224 11.7274V7.45572C7.59339 5.55391 9.13632 4.01271 11.0381 4.01385C11.8426 4.01385 12.6212 4.29637 13.2397 4.81087C13.2116 4.8258 13.1633 4.85279 13.1311 4.87231L9.47224 6.98543C9.28504 7.09166 9.1702 7.29035 9.17134 7.50568L9.16904 12.6616V12.6627ZM10.0091 10.8517L11.9988 9.70266L13.9885 10.8511V13.1485L11.9988 14.297L10.0091 13.1485V10.8517Z" fill="white"/>
</g>
</g>
<defs>
<linearGradient id="paint0_linear_177_720" x1="19.7344" y1="0.000185261" x2="5.10938" y2="24.0002" gradientUnits="userSpaceOnUse">
<stop stop-color="#E35770"/>
<stop offset="1" stop-color="#5D74BE"/>
</linearGradient>
<clipPath id="clip0_177_720">
<rect width="24" height="24" fill="white"/>
</clipPath>
</defs>
</svg>
