<svg width="24" height="24" viewBox="0 0 24 24" fill="none" xmlns="http://www.w3.org/2000/svg">
<g clip-path="url(#clip0_177_897)">
<path d="M4.89478 19.1054L0.790343 15.0009C0.301629 14.5003 0 13.793 0 13.1048C0 12.7855 0.179927 12.2858 0.315946 11.9999L4.10444 4.10461L4.89478 19.1054Z" fill="#01579B"/>
<path d="M18.9469 4.89497L14.8424 0.790527C14.484 0.429718 13.7376 0.000183105 13.1057 0.000183105C12.5626 0.000183105 12.0295 0.109476 11.6854 0.31613L4.10742 4.10462L18.9469 4.89497Z" fill="#40C4FF"/>
<path d="M9.78828 24.0002H19.7363V19.7373L12.3149 17.3677L5.52539 19.7373L9.78828 24.0002Z" fill="#40C4FF"/>
<path d="M4.10547 16.8952C4.10547 18.1618 4.2644 18.4725 4.89438 19.1059L5.5258 19.7378H19.7381L12.7916 11.8429L4.10547 4.10461V16.8952Z" fill="#29B6F6"/>
<path d="M16.7386 4.10461H4.10547L19.7381 19.7354H24.001V9.94628L18.9483 4.89305C18.2381 4.18193 17.6081 4.10461 16.7386 4.10461Z" fill="#01579B"/>
<path opacity="0.2" d="M5.05287 19.2624C4.42146 18.6291 4.26444 18.0043 4.26444 16.8952V4.26306L4.10742 4.10461V16.8952C4.10742 18.0048 4.10742 18.3122 5.05287 19.2629L5.52584 19.7359L5.05287 19.2624Z" fill="white"/>
<path opacity="0.2" d="M23.843 9.78931V19.5784H19.5801L19.7371 19.7373H24V9.94633L23.843 9.78931Z" fill="#263238"/>
<path opacity="0.2" d="M18.9469 4.89496C18.1647 4.1113 17.5242 4.10461 16.5801 4.10461H4.10742L4.26444 4.26163H16.5801C17.0512 4.26163 18.2405 4.18241 18.9478 4.89353L18.9469 4.89496Z" fill="white"/>
<path opacity="0.2" d="M23.843 9.78927L18.9472 4.89497L14.8428 0.790526C14.4844 0.429718 13.7379 0.000183105 13.1061 0.000183105C12.5629 0.000183105 12.0298 0.109476 11.6857 0.31613L4.10778 4.10462L0.317378 11.9999C0.181836 12.2877 0 12.7869 0 13.1048C0 13.7944 0.303538 14.4984 0.788434 14.9995L4.57359 18.7565C4.67431 18.8787 4.78153 18.9953 4.89478 19.1059L5.0518 19.2629L5.52429 19.7359L9.62873 23.8403L9.78575 23.9973H19.7319V19.7354H23.9948V9.94629L23.843 9.78927Z" fill="url(#paint0_radial_177_897)"/>
</g>
<defs>
<radialGradient id="paint0_radial_177_897" cx="0" cy="0" r="1" gradientUnits="userSpaceOnUse" gradientTransform="translate(11.9993 11.999) scale(11.9983 11.9983)">
<stop stop-color="white" stop-opacity="0.1"/>
<stop offset="1" stop-color="white" stop-opacity="0"/>
</radialGradient>
<clipPath id="clip0_177_897">
<rect width="24" height="24" fill="white"/>
</clipPath>
</defs>
</svg>
