<svg width="24" height="24" viewBox="0 0 24 24" fill="none" xmlns="http://www.w3.org/2000/svg">
<path d="M22.1529 5.78003H11.8145V9.96464H22.1529V5.78003Z" fill="white"/>
<path d="M2.46154 19.4416C1.55102 19.4416 0.757785 18.946 0.331938 18.2108C0.122092 18.5732 0 18.9927 0 19.4416C0 20.8011 1.10203 21.9031 2.46154 21.9031H4.92308V19.4416H2.46154Z" fill="#3ECC5F"/>
<path d="M13.5351 6.44169L22.153 5.90311V4.67234C22.153 3.31283 21.0508 2.2108 19.6914 2.2108H8.61449L8.3068 1.67788C8.16994 1.44095 7.82815 1.44095 7.69142 1.67788L7.38372 2.2108L7.07603 1.67788C6.93917 1.44095 6.59739 1.44095 6.46065 1.67788L6.15295 2.2108L5.84526 1.67788C5.7084 1.44095 5.36662 1.44095 5.22988 1.67788L4.92218 2.2108C4.91948 2.2108 4.91689 2.21117 4.91418 2.21117L4.4044 1.70151C4.21105 1.50815 3.88095 1.59652 3.81006 1.86077L3.64169 2.48895L3.00255 2.31763C2.73831 2.24686 2.49658 2.48858 2.56748 2.75283L2.73868 3.39197L2.11062 3.56021C1.84637 3.63111 1.75788 3.96132 1.95123 4.15468L2.46089 4.66446C2.46089 4.66704 2.46065 4.66963 2.46065 4.67234L1.9276 4.98003C1.6908 5.11677 1.6908 5.45868 1.9276 5.59541L2.46065 5.90311L1.9276 6.2108C1.6908 6.34754 1.6908 6.68945 1.9276 6.82618L2.46065 7.13388L1.9276 7.44157C1.6908 7.57831 1.6908 7.92021 1.9276 8.05695L2.46065 8.36465L1.9276 8.67234C1.6908 8.80908 1.6908 9.15098 1.9276 9.28772L2.46065 9.59541L1.9276 9.90311C1.6908 10.0398 1.6908 10.3818 1.9276 10.5185L2.46065 10.8262L1.9276 11.1339C1.6908 11.2706 1.6908 11.6125 1.9276 11.7493L2.46065 12.057L1.9276 12.3646C1.6908 12.5014 1.6908 12.8433 1.9276 12.98L2.46065 13.2877L1.9276 13.5954C1.6908 13.7322 1.6908 14.0741 1.9276 14.2108L2.46065 14.5185L1.9276 14.8262C1.6908 14.9629 1.6908 15.3048 1.9276 15.4416L2.46065 15.7493L1.9276 16.057C1.6908 16.1937 1.6908 16.5356 1.9276 16.6723L2.46065 16.98L1.9276 17.2877C1.6908 17.4245 1.6908 17.7664 1.9276 17.9031L2.46065 18.2108L1.9276 18.5185C1.6908 18.6552 1.6908 18.9971 1.9276 19.1339L2.46065 19.4416C2.46065 20.8011 3.56268 21.9031 4.92218 21.9031H19.6914C21.0508 21.9031 22.153 20.8011 22.153 19.4416V9.59541L13.5351 9.05683C12.8446 9.01363 12.3068 8.44108 12.3068 7.74926C12.3068 7.05744 12.8446 6.48489 13.5351 6.44169Z" fill="#3ECC5F"/>
<path d="M17.2305 21.9031H20.9228V16.98H17.2305V21.9031Z" fill="#3ECC5F"/>
<path d="M23.384 18.8262C23.3571 18.8262 23.3313 18.8307 23.3054 18.834C23.3007 18.8156 23.2963 18.797 23.2911 18.7785C23.5134 18.6857 23.6696 18.4667 23.6696 18.2108C23.6696 17.8708 23.3941 17.5954 23.0542 17.5954C22.9141 17.5954 22.7865 17.6441 22.683 17.7229C22.6693 17.709 22.6556 17.6952 22.6417 17.6815C22.7189 17.5787 22.7662 17.4524 22.7662 17.3139C22.7662 16.974 22.4907 16.6985 22.1508 16.6985C21.8966 16.6985 21.6785 16.8527 21.5848 17.0728C21.5665 17.0676 21.5482 17.0633 21.53 17.0587C21.5333 17.0327 21.5379 17.007 21.5379 16.98C21.5379 16.6401 21.2624 16.3646 20.9225 16.3646C20.5825 16.3646 20.3071 16.6401 20.3071 16.98C20.3071 17.007 20.3116 17.0327 20.315 17.0587C20.2968 17.0633 20.2784 17.0676 20.2602 17.0728C20.1664 16.8527 19.9483 16.6985 19.6942 16.6985C19.3542 16.6985 19.0788 16.974 19.0788 17.3139C19.0788 17.4524 19.126 17.5787 19.2032 17.6815C18.7457 18.1286 18.4609 18.7515 18.4609 19.4415C18.4609 20.8011 19.563 21.9031 20.9225 21.9031C22.0719 21.9031 23.0345 21.1142 23.3054 20.0491C23.3313 20.0524 23.3571 20.0569 23.384 20.0569C23.724 20.0569 23.9994 19.7815 23.9994 19.4415C23.9994 19.1016 23.724 18.8262 23.384 18.8262Z" fill="#44D860"/>
<path d="M18.4609 14.5185H22.1532V12.0569H18.4609V14.5185Z" fill="#3ECC5F"/>
<path d="M23.3854 13.5954C23.5553 13.5954 23.6931 13.4577 23.6931 13.2877C23.6931 13.1177 23.5553 12.98 23.3854 12.98C23.372 12.98 23.359 12.9824 23.3461 12.984C23.3436 12.9747 23.3416 12.9655 23.339 12.9563C23.45 12.9099 23.5281 12.8002 23.5281 12.6723C23.5281 12.5024 23.3904 12.3646 23.2204 12.3646C23.1504 12.3646 23.0865 12.3889 23.0348 12.4284C23.0281 12.4214 23.0212 12.4145 23.0142 12.4077C23.0528 12.3564 23.0764 12.2931 23.0764 12.2238C23.0764 12.054 22.9387 11.9161 22.7688 11.9161C22.6416 11.9161 22.5326 11.9933 22.4857 12.1033C22.3802 12.0739 22.2696 12.0569 22.1546 12.0569C21.475 12.0569 20.9238 12.6081 20.9238 13.2877C20.9238 13.9673 21.475 14.5185 22.1546 14.5185C22.2696 14.5185 22.3802 14.5015 22.4857 14.4721C22.5326 14.5821 22.6416 14.6593 22.7688 14.6593C22.9387 14.6593 23.0764 14.5214 23.0764 14.3516C23.0764 14.2823 23.0528 14.219 23.0142 14.1677C23.0212 14.1609 23.0281 14.154 23.0348 14.147C23.0865 14.1865 23.1504 14.2108 23.2204 14.2108C23.3904 14.2108 23.5281 14.0731 23.5281 13.9031C23.5281 13.7752 23.45 13.6656 23.339 13.6192C23.3416 13.61 23.3436 13.6007 23.3461 13.5915C23.359 13.5931 23.372 13.5954 23.3854 13.5954Z" fill="#44D860"/>
<path d="M7.38447 6.21078C7.2145 6.21078 7.07677 6.07305 7.07677 5.90309C7.07677 5.39404 6.66274 4.98001 6.1537 4.98001C5.64465 4.98001 5.23062 5.39404 5.23062 5.90309C5.23062 6.07305 5.0929 6.21078 4.92293 6.21078C4.75296 6.21078 4.61523 6.07305 4.61523 5.90309C4.61523 5.05472 5.30533 4.36462 6.1537 4.36462C7.00207 4.36462 7.69216 5.05472 7.69216 5.90309C7.69216 6.07305 7.55443 6.21078 7.38447 6.21078Z" fill="black"/>
<path d="M12.3086 21.9031H19.6932C21.0527 21.9031 22.1547 20.8011 22.1547 19.4416V10.8262H14.7701C13.4106 10.8262 12.3086 11.9282 12.3086 13.2877V21.9031Z" fill="#FFFF50"/>
<path d="M20.311 14.6415H14.1524C14.0843 14.6415 14.0293 14.5865 14.0293 14.5185C14.0293 14.4504 14.0843 14.3954 14.1524 14.3954H20.311C20.3791 14.3954 20.4341 14.4504 20.4341 14.5185C20.4341 14.5865 20.3791 14.6415 20.311 14.6415Z" fill="black"/>
<path d="M20.311 17.1031H14.1524C14.0843 17.1031 14.0293 17.0481 14.0293 16.98C14.0293 16.9119 14.0843 16.8569 14.1524 16.8569H20.311C20.3791 16.8569 20.4341 16.9119 20.4341 16.98C20.4341 17.0481 20.3791 17.1031 20.311 17.1031Z" fill="black"/>
<path d="M20.311 19.5646H14.1524C14.0843 19.5646 14.0293 19.5096 14.0293 19.4416C14.0293 19.3735 14.0843 19.3185 14.1524 19.3185H20.311C20.3791 19.3185 20.4341 19.3735 20.4341 19.4416C20.4341 19.5096 20.3791 19.5646 20.311 19.5646Z" fill="black"/>
<path d="M20.311 13.4337H14.1524C14.0843 13.4337 14.0293 13.3785 14.0293 13.3106C14.0293 13.2425 14.0843 13.1875 14.1524 13.1875H20.311C20.3791 13.1875 20.4341 13.2425 20.4341 13.3106C20.4341 13.3785 20.3791 13.4337 20.311 13.4337Z" fill="black"/>
<path d="M20.311 15.8724H14.1524C14.0843 15.8724 14.0293 15.8174 14.0293 15.7493C14.0293 15.6812 14.0843 15.6262 14.1524 15.6262H20.311C20.3791 15.6262 20.4341 15.6812 20.4341 15.7493C20.4341 15.8174 20.3791 15.8724 20.311 15.8724Z" fill="black"/>
<path d="M20.311 18.3339H14.1524C14.0843 18.3339 14.0293 18.2789 14.0293 18.2108C14.0293 18.1428 14.0843 18.0878 14.1524 18.0878H20.311C20.3791 18.0878 20.4341 18.1428 20.4341 18.2108C20.4341 18.2789 20.3791 18.3339 20.311 18.3339Z" fill="black"/>
<path d="M22.1544 6.96297C22.153 6.96297 22.1517 6.96223 22.1503 6.96236C21.77 6.97528 21.59 7.35571 21.4312 7.69134C21.2656 8.04199 21.1375 8.27017 20.9275 8.26328C20.695 8.25491 20.5621 7.99226 20.4213 7.71423C20.2596 7.39509 20.0749 7.033 19.6874 7.04654C19.3125 7.05934 19.1319 7.39042 18.9727 7.68248C18.8032 7.99362 18.6879 8.18279 18.4655 8.17405C18.2283 8.16543 18.1023 7.95189 17.9564 7.70475C17.7938 7.42955 17.6059 7.12014 17.2258 7.13072C16.8573 7.1434 16.6763 7.42426 16.5165 7.67226C16.3476 7.93442 16.2292 8.09417 16.0039 8.08469C15.7611 8.07596 15.6357 7.89885 15.4906 7.69368C15.3276 7.46316 15.144 7.20223 14.765 7.21491C14.4047 7.22722 14.2236 7.45725 14.064 7.6602C13.9124 7.85269 13.794 8.00506 13.5435 7.99546C13.4756 7.99276 13.4186 8.04605 13.4161 8.11411C13.4135 8.18192 13.4667 8.23903 13.5346 8.24162C13.906 8.25405 14.094 8.01996 14.2573 7.81245C14.4022 7.62832 14.5272 7.46943 14.7734 7.46106C15.0104 7.45097 15.1216 7.59829 15.2897 7.83583C15.4493 8.06156 15.6305 8.31756 15.9951 8.33072C16.377 8.34352 16.5607 8.05811 16.7234 7.80556C16.8689 7.57983 16.9944 7.385 17.2342 7.37675C17.4549 7.36851 17.575 7.54291 17.7444 7.8298C17.904 8.1002 18.0848 8.40654 18.4566 8.42008C18.8412 8.43337 19.0269 8.09749 19.1888 7.80039C19.329 7.5434 19.4613 7.30057 19.6957 7.29257C19.9164 7.2874 20.0315 7.48888 20.2017 7.82549C20.3607 8.13971 20.541 8.49565 20.9186 8.50931C20.9256 8.50955 20.9325 8.50968 20.9394 8.50968C21.3165 8.50968 21.4955 8.13122 21.6539 7.79657C21.7941 7.49996 21.9268 7.22045 22.1544 7.20912V6.96297Z" fill="black"/>
<path d="M9.8457 21.9031H14.7688V16.98H9.8457V21.9031Z" fill="#3ECC5F"/>
<path d="M17.2317 18.8262C17.2047 18.8262 17.179 18.8307 17.153 18.834C17.1483 18.8156 17.1439 18.797 17.1387 18.7785C17.361 18.6857 17.5172 18.4667 17.5172 18.2108C17.5172 17.8708 17.2418 17.5954 16.9018 17.5954C16.7618 17.5954 16.6341 17.6441 16.5306 17.7229C16.517 17.709 16.5033 17.6952 16.4894 17.6815C16.5666 17.5787 16.6138 17.4524 16.6138 17.3139C16.6138 16.974 16.3384 16.6985 15.9984 16.6985C15.7443 16.6985 15.5262 16.8527 15.4324 17.0728C15.4142 17.0676 15.3959 17.0633 15.3776 17.0587C15.381 17.0327 15.3855 17.007 15.3855 16.98C15.3855 16.6401 15.1101 16.3646 14.7701 16.3646C14.4302 16.3646 14.1547 16.6401 14.1547 16.98C14.1547 17.007 14.1593 17.0327 14.1626 17.0587C14.1444 17.0633 14.1261 17.0676 14.1079 17.0728C14.0141 16.8527 13.796 16.6985 13.5418 16.6985C13.2019 16.6985 12.9264 16.974 12.9264 17.3139C12.9264 17.4524 12.9737 17.5787 13.0509 17.6815C12.5934 18.1286 12.3086 18.7515 12.3086 19.4415C12.3086 20.8011 13.4106 21.9031 14.7701 21.9031C15.9195 21.9031 16.8821 21.1142 17.153 20.0491C17.179 20.0524 17.2047 20.0569 17.2317 20.0569C17.5716 20.0569 17.8471 19.7815 17.8471 19.4415C17.8471 19.1016 17.5716 18.8262 17.2317 18.8262Z" fill="#44D860"/>
<path d="M9.8457 14.5185H14.7688V12.0569H9.8457V14.5185Z" fill="#3ECC5F"/>
<path d="M16.0006 13.5954C16.1706 13.5954 16.3083 13.4577 16.3083 13.2877C16.3083 13.1177 16.1706 12.98 16.0006 12.98C15.9872 12.98 15.9743 12.9824 15.9613 12.984C15.9589 12.9747 15.9568 12.9655 15.9542 12.9563C16.0652 12.9099 16.1434 12.8002 16.1434 12.6723C16.1434 12.5024 16.0056 12.3646 15.8357 12.3646C15.7656 12.3646 15.7018 12.3889 15.6501 12.4284C15.6433 12.4214 15.6364 12.4145 15.6294 12.4077C15.668 12.3564 15.6917 12.2931 15.6917 12.2238C15.6917 12.054 15.554 11.9161 15.384 11.9161C15.2568 11.9161 15.1478 11.9933 15.1009 12.1033C14.9954 12.0739 14.8848 12.0569 14.7698 12.0569C14.0902 12.0569 13.5391 12.6081 13.5391 13.2877C13.5391 13.9673 14.0902 14.5185 14.7698 14.5185C14.8848 14.5185 14.9954 14.5015 15.1009 14.4721C15.1478 14.5821 15.2568 14.6593 15.384 14.6593C15.554 14.6593 15.6917 14.5214 15.6917 14.3516C15.6917 14.2823 15.668 14.219 15.6294 14.1677C15.6364 14.1609 15.6433 14.154 15.6501 14.147C15.7018 14.1865 15.7656 14.2108 15.8357 14.2108C16.0056 14.2108 16.1434 14.0731 16.1434 13.9031C16.1434 13.7752 16.0652 13.6656 15.9542 13.6192C15.9568 13.61 15.9589 13.6007 15.9613 13.5915C15.9743 13.5931 15.9872 13.5954 16.0006 13.5954Z" fill="#44D860"/>
<path d="M17.2315 4.51846C17.2118 4.51846 17.1909 4.516 17.1712 4.51231C17.1515 4.50862 17.1317 4.50246 17.1134 4.49508C17.0949 4.48769 17.0777 4.47785 17.0603 4.46677C17.0443 4.45569 17.0284 4.44216 17.0136 4.42862C17.0001 4.41385 16.9866 4.39908 16.9755 4.38185C16.9644 4.36462 16.9546 4.34739 16.9471 4.32892C16.9398 4.31046 16.9337 4.29077 16.93 4.27108C16.9263 4.25139 16.9238 4.23046 16.9238 4.21077C16.9238 4.19108 16.9263 4.17016 16.93 4.15046C16.9337 4.13077 16.9398 4.11231 16.9471 4.09262C16.9546 4.07416 16.9644 4.05692 16.9755 4.03969C16.9866 4.02369 17.0001 4.00769 17.0136 3.99292C17.0284 3.97939 17.0443 3.96585 17.0603 3.95477C17.0777 3.94369 17.0949 3.93385 17.1134 3.92646C17.1317 3.91908 17.1515 3.91292 17.1712 3.90923C17.2106 3.90062 17.2512 3.90062 17.2918 3.90923C17.3114 3.91292 17.3312 3.91908 17.3497 3.92646C17.368 3.93385 17.3854 3.94369 17.4026 3.95477C17.4186 3.96585 17.4345 3.97939 17.4494 3.99292C17.4629 4.00769 17.4764 4.02369 17.4875 4.03969C17.4986 4.05692 17.5084 4.07416 17.5158 4.09262C17.5232 4.11231 17.5294 4.13077 17.5331 4.15046C17.5366 4.17016 17.5392 4.19108 17.5392 4.21077C17.5392 4.292 17.5059 4.372 17.4494 4.42862C17.4345 4.44216 17.4186 4.45569 17.4026 4.46677C17.3854 4.47785 17.368 4.48769 17.3497 4.49508C17.3312 4.50246 17.3114 4.50862 17.2918 4.51231C17.2721 4.516 17.2512 4.51846 17.2315 4.51846Z" fill="black"/>
<path d="M19.6925 4.36465C19.6112 4.36465 19.5325 4.33142 19.4745 4.27481C19.4611 4.26004 19.4475 4.24404 19.4365 4.22804C19.4254 4.21081 19.4155 4.19358 19.408 4.17512C19.4008 4.15665 19.3946 4.13696 19.3909 4.11727C19.3872 4.09758 19.3848 4.07665 19.3848 4.05696C19.3848 3.97573 19.418 3.89696 19.4745 3.83912C19.4894 3.82558 19.5053 3.81204 19.5213 3.80096C19.5386 3.78989 19.5558 3.78004 19.5743 3.77265C19.5926 3.76527 19.6125 3.75912 19.6322 3.75542C19.6715 3.74681 19.7134 3.74681 19.7528 3.75542C19.7723 3.75912 19.7922 3.76527 19.8106 3.77265C19.829 3.78004 19.8463 3.78989 19.8635 3.80096C19.8795 3.81204 19.8954 3.82558 19.9103 3.83912C19.9668 3.89696 20.0002 3.97573 20.0002 4.05696C20.0002 4.07665 19.9976 4.09758 19.994 4.11727C19.9903 4.13696 19.9842 4.15665 19.9768 4.17512C19.9682 4.19358 19.9595 4.21081 19.9485 4.22804C19.9374 4.24404 19.9238 4.26004 19.9103 4.27481C19.8954 4.28835 19.8795 4.30189 19.8635 4.31296C19.8463 4.32404 19.829 4.33389 19.8106 4.34127C19.7922 4.34865 19.7723 4.35481 19.7528 4.3585C19.7331 4.36219 19.7122 4.36465 19.6925 4.36465Z" fill="black"/>
</svg>
