<svg width="24" height="24" viewBox="0 0 24 24" fill="currentColor" xmlns="http://www.w3.org/2000/svg">
<g clip-path="url(#clip0_177_569)">
<path d="M12 24C18.6274 24 24 18.6274 24 12C24 5.37258 18.6274 0 12 0C5.37258 0 0 5.37258 0 12C0 18.6274 5.37258 24 12 24Z" fill="#2B2E3A"/>
<path d="M9.41938 6.72095C6.98141 6.27695 5.05372 6.74167 4.28544 8.07236C3.71216 9.06536 3.87603 10.3819 4.68294 11.7892C4.69887 11.8184 4.72048 11.8441 4.7465 11.8649C4.77252 11.8857 4.80242 11.901 4.83446 11.9101C4.86649 11.9192 4.90001 11.9217 4.93305 11.9176C4.96609 11.9136 4.99798 11.9029 5.02686 11.8864C5.05574 11.8698 5.08102 11.8477 5.10121 11.8212C5.12141 11.7947 5.13613 11.7645 5.14449 11.7323C5.15285 11.7001 5.15469 11.6665 5.14991 11.6336C5.14512 11.6006 5.13381 11.569 5.11663 11.5404C4.38988 10.2728 4.24841 9.13661 4.71847 8.32239C5.35672 7.21698 7.0761 6.80242 9.32975 7.21286C9.39451 7.22364 9.46092 7.20852 9.51462 7.17076C9.56833 7.13299 9.60503 7.07563 9.6168 7.01104C9.62857 6.94645 9.61446 6.87982 9.57752 6.82555C9.54058 6.77127 9.48378 6.7337 9.41938 6.72095ZM5.95072 13.4997C6.9365 14.583 8.21722 15.5992 9.67785 16.4424C13.2144 18.4842 16.9794 19.0299 18.8349 17.7648C18.8626 17.7466 18.8865 17.723 18.905 17.6955C18.9236 17.6679 18.9364 17.637 18.9429 17.6044C18.9493 17.5718 18.9492 17.5383 18.9426 17.5058C18.936 17.4732 18.9229 17.4423 18.9042 17.4149C18.8855 17.3875 18.8615 17.3641 18.8336 17.346C18.8058 17.3279 18.7746 17.3156 18.7419 17.3097C18.7092 17.3038 18.6757 17.3045 18.6433 17.3117C18.6109 17.3189 18.5803 17.3325 18.5532 17.3517C16.8925 18.484 13.3161 17.9656 9.92788 16.0094C8.51094 15.1914 7.27072 14.2074 6.32057 13.1632C6.29851 13.1387 6.27184 13.1189 6.2421 13.1048C6.21235 13.0907 6.18012 13.0826 6.14724 13.081C6.11437 13.0794 6.08149 13.0843 6.05051 13.0954C6.01953 13.1065 5.99105 13.1237 5.96671 13.1458C5.94236 13.168 5.92263 13.1947 5.90865 13.2245C5.89466 13.2543 5.8867 13.2866 5.88521 13.3194C5.88373 13.3523 5.88875 13.3852 5.89999 13.4161C5.91123 13.4471 5.92847 13.4755 5.95072 13.4997Z" fill="#9FEAF9"/>
<path d="M18.2431 13.1956C19.8395 11.3097 20.3968 9.41297 19.6301 8.0851C19.066 7.10794 17.8734 6.59204 16.2884 6.57141C16.2227 6.57151 16.1597 6.59745 16.113 6.64363C16.0663 6.68981 16.0396 6.75252 16.0388 6.81821C16.0379 6.88389 16.0629 6.94727 16.1084 6.99464C16.1539 7.04202 16.2163 7.06958 16.2819 7.07138C17.7074 7.08994 18.7349 7.53441 19.1972 8.33513C19.8339 9.4381 19.3369 11.1295 17.8614 12.8725C17.8398 12.8975 17.8233 12.9266 17.813 12.958C17.8026 12.9894 17.7986 13.0226 17.8012 13.0555C17.8037 13.0885 17.8128 13.1206 17.8278 13.1501C17.8429 13.1795 17.8637 13.2057 17.8889 13.2271C17.9141 13.2484 17.9434 13.2646 17.9749 13.2746C18.0064 13.2846 18.0396 13.2882 18.0726 13.2853C18.1055 13.2823 18.1375 13.2729 18.1668 13.2575C18.1961 13.2421 18.222 13.2211 18.2431 13.1956ZM14.1405 6.80419C12.6971 7.11347 11.1607 7.71816 9.6853 8.56997C6.03449 10.6778 3.65296 13.7858 3.98371 16.0395C3.98812 16.0723 3.999 16.1039 4.01571 16.1325C4.03242 16.161 4.05463 16.186 4.08106 16.2059C4.10749 16.2258 4.13761 16.2403 4.16967 16.2484C4.20174 16.2566 4.2351 16.2584 4.26784 16.2536C4.30058 16.2488 4.33204 16.2375 4.3604 16.2204C4.38875 16.2034 4.41344 16.1809 4.43303 16.1542C4.45261 16.1275 4.46671 16.0972 4.47451 16.0651C4.4823 16.0329 4.48363 15.9995 4.47843 15.9668C4.18471 13.9658 6.44221 11.0198 9.93534 9.003C11.3666 8.1766 12.8542 7.59113 14.2452 7.2931C14.2778 7.28668 14.3087 7.27385 14.3363 7.25535C14.3638 7.23685 14.3874 7.21306 14.4056 7.18535C14.4239 7.15765 14.4365 7.12658 14.4426 7.09397C14.4487 7.06137 14.4483 7.02786 14.4413 6.99542C14.4344 6.96298 14.4211 6.93224 14.4021 6.905C14.3832 6.87777 14.359 6.85457 14.331 6.83677C14.303 6.81898 14.2717 6.80693 14.239 6.80134C14.2063 6.79574 14.1728 6.79671 14.1405 6.80419Z" fill="#9FEAF9"/>
<path d="M8.22603 17.6019C9.06078 19.9325 10.4262 21.3675 11.9617 21.3675C13.0815 21.3675 14.1176 20.6041 14.9255 19.2602C14.943 19.2321 14.9547 19.2007 14.96 19.168C14.9652 19.1353 14.9639 19.1018 14.9562 19.0696C14.9484 19.0374 14.9343 19.007 14.9147 18.9803C14.8951 18.9536 14.8703 18.9311 14.8419 18.914C14.8135 18.8969 14.782 18.8857 14.7492 18.8809C14.7164 18.8761 14.683 18.8779 14.6509 18.8861C14.6188 18.8943 14.5887 18.9089 14.5622 18.9289C14.5358 18.9489 14.5136 18.9739 14.497 19.0026C13.7709 20.2104 12.879 20.8675 11.9617 20.8675C10.6862 20.8675 9.46831 19.5876 8.69684 17.4334C8.68628 17.4018 8.66952 17.3727 8.64756 17.3477C8.6256 17.3228 8.59888 17.3024 8.56895 17.2879C8.53903 17.2734 8.5065 17.2649 8.47329 17.2631C8.44007 17.2613 8.40683 17.2662 8.37551 17.2774C8.34419 17.2886 8.31542 17.306 8.29089 17.3284C8.26636 17.3509 8.24656 17.378 8.23264 17.4082C8.21873 17.4385 8.21099 17.4711 8.20987 17.5044C8.20875 17.5376 8.21428 17.5708 8.22612 17.6019H8.22603ZM15.85 17.146C16.2822 15.7652 16.5142 14.1724 16.5142 12.5125C16.5142 8.37076 15.0645 4.80039 12.9998 3.88361C12.9395 3.85834 12.8716 3.85772 12.8109 3.88186C12.7501 3.90601 12.7012 3.953 12.6747 4.01277C12.6481 4.07254 12.6461 4.14032 12.6689 4.20159C12.6918 4.26287 12.7377 4.31275 12.7969 4.34055C14.6384 5.15833 16.0141 8.54673 16.0141 12.5125C16.0141 14.1229 15.7894 15.6654 15.3729 16.9966C15.3625 17.0281 15.3585 17.0613 15.3611 17.0943C15.3637 17.1274 15.3729 17.1596 15.388 17.189C15.4032 17.2185 15.4241 17.2447 15.4494 17.266C15.4748 17.2873 15.5041 17.3034 15.5357 17.3133C15.5673 17.3232 15.6006 17.3267 15.6336 17.3236C15.6666 17.3206 15.6987 17.311 15.7279 17.2954C15.7572 17.2798 15.783 17.2586 15.804 17.2329C15.825 17.2073 15.8406 17.1777 15.8501 17.146H15.85ZM20.5585 16.9011C20.5585 16.2402 20.0228 15.7045 19.3619 15.7045C18.7011 15.7045 18.1654 16.2402 18.1654 16.9011C18.1654 17.5619 18.7011 18.0976 19.3619 18.0976C20.0228 18.0976 20.5585 17.5619 20.5585 16.9011ZM20.0585 16.9011C20.0585 16.9926 20.0405 17.0831 20.0055 17.1676C19.9705 17.2522 19.9192 17.3289 19.8545 17.3936C19.7898 17.4583 19.713 17.5096 19.6285 17.5446C19.544 17.5796 19.4534 17.5976 19.3619 17.5976C19.2705 17.5976 19.1799 17.5796 19.0954 17.5446C19.0109 17.5096 18.9341 17.4583 18.8694 17.3936C18.8047 17.3289 18.7534 17.2522 18.7184 17.1676C18.6834 17.0831 18.6654 16.9926 18.6654 16.9011C18.6654 16.7163 18.7388 16.5392 18.8694 16.4085C19 16.2779 19.1772 16.2045 19.3619 16.2045C19.5467 16.2045 19.7239 16.2779 19.8545 16.4085C19.9851 16.5392 20.0585 16.7163 20.0585 16.9011ZM4.54419 18.0976C5.20512 18.0976 5.74081 17.5619 5.74081 16.9011C5.74081 16.2402 5.20503 15.7045 4.54419 15.7045C3.88344 15.7045 3.34766 16.2402 3.34766 16.9011C3.34766 17.5619 3.88344 18.0976 4.54419 18.0976ZM4.54419 17.5976C4.35945 17.5976 4.18227 17.5243 4.05164 17.3936C3.92101 17.263 3.84762 17.0858 3.84762 16.9011C3.84762 16.7163 3.92101 16.5392 4.05164 16.4085C4.18227 16.2779 4.35945 16.2045 4.54419 16.2045C4.72893 16.2045 4.9061 16.2779 5.03673 16.4085C5.16736 16.5392 5.24075 16.7163 5.24075 16.9011C5.24075 17.0858 5.16736 17.263 5.03673 17.3936C4.9061 17.5243 4.72893 17.5976 4.54419 17.5976Z" fill="#9FEAF9"/>
<path d="M11.9622 5.10412C12.623 5.10412 13.1587 4.56843 13.1587 3.90759C13.1587 3.24675 12.623 2.71106 11.9622 2.71106C11.3013 2.71106 10.7656 3.24675 10.7656 3.90759C10.7656 4.56843 11.3013 5.10412 11.9622 5.10412ZM11.9622 4.60415C11.7774 4.60415 11.6002 4.53077 11.4696 4.40013C11.339 4.2695 11.2656 4.09233 11.2656 3.90759C11.2656 3.72285 11.339 3.54568 11.4696 3.41505C11.6002 3.28442 11.7774 3.21103 11.9622 3.21103C12.1469 3.21103 12.3241 3.28442 12.4547 3.41505C12.5853 3.54568 12.6587 3.72285 12.6587 3.90759C12.6587 4.09233 12.5853 4.2695 12.4547 4.40013C12.3241 4.53077 12.1469 4.60415 11.9622 4.60415ZM12.1449 13.3587C11.6775 13.4597 11.2171 13.1627 11.116 12.6953C11.0675 12.4709 11.1102 12.2365 11.2346 12.0435C11.359 11.8505 11.5549 11.7149 11.7793 11.6663C12.2467 11.5654 12.7071 11.8624 12.8083 12.3297C12.9093 12.7971 12.6123 13.2576 12.1449 13.3587Z" fill="#9FEAF9"/>
</g>
<defs>
<clipPath id="clip0_177_569">
<rect width="24" height="24" fill="white"/>
</clipPath>
</defs>
</svg>
