<svg width="24" height="24" viewBox="0 0 24 24" fill="none" xmlns="http://www.w3.org/2000/svg">
<g clip-path="url(#clip0_184_765)">
<path d="M24 0.000183105H0V24.0002H24V0.000183105Z" fill="white"/>
<mask id="mask0_184_765" style="mask-type:luminance" maskUnits="userSpaceOnUse" x="6" y="4" width="12" height="16">
<path d="M17.065 4.53351H6.93164V19.7335H17.065V4.53351Z" fill="white"/>
</mask>
<g mask="url(#mask0_184_765)">
<path d="M11.998 12.1335C11.998 11.4616 12.265 10.8173 12.74 10.3422C13.2151 9.86707 13.8595 9.60016 14.5314 9.60016C15.2033 9.60016 15.8476 9.86707 16.3227 10.3422C16.7978 10.8173 17.0647 11.4616 17.0647 12.1335C17.0647 12.8054 16.7978 13.4497 16.3227 13.9248C15.8476 14.3999 15.2033 14.6668 14.5314 14.6668C13.8595 14.6668 13.2151 14.3999 12.74 13.9248C12.265 13.4497 11.998 12.8054 11.998 12.1335Z" fill="#1ABCFE"/>
<path d="M6.93164 17.2002C6.93164 16.5283 7.19855 15.884 7.67364 15.4089C8.14873 14.9338 8.79308 14.6669 9.46497 14.6669H11.9983V17.2002C11.9983 17.8721 11.7314 18.5164 11.2563 18.9915C10.7812 19.4666 10.1369 19.7335 9.46497 19.7335C8.79308 19.7335 8.14873 19.4666 7.67364 18.9915C7.19855 18.5164 6.93164 17.8721 6.93164 17.2002Z" fill="#0ACF83"/>
<path d="M11.998 4.53351V9.60017H14.5314C15.2033 9.60017 15.8476 9.33327 16.3227 8.85817C16.7978 8.38308 17.0647 7.73873 17.0647 7.06684C17.0647 6.39495 16.7978 5.7506 16.3227 5.27551C15.8476 4.80041 15.2033 4.53351 14.5314 4.53351H11.998Z" fill="#FF7262"/>
<path d="M6.93164 7.06684C6.93164 7.73873 7.19855 8.38308 7.67364 8.85817C8.14873 9.33327 8.79308 9.60017 9.46497 9.60017H11.9983V4.53351H9.46497C8.79308 4.53351 8.14873 4.80041 7.67364 5.27551C7.19855 5.7506 6.93164 6.39495 6.93164 7.06684Z" fill="#F24E1E"/>
<path d="M6.93164 12.1335C6.93164 12.8054 7.19855 13.4497 7.67364 13.9248C8.14873 14.3999 8.79308 14.6668 9.46497 14.6668H11.9983V9.60016H9.46497C8.79308 9.60016 8.14873 9.86707 7.67364 10.3422C7.19855 10.8173 6.93164 11.4616 6.93164 12.1335Z" fill="#A259FF"/>
</g>
</g>
<defs>
<clipPath id="clip0_184_765">
<rect width="24" height="24" fill="white"/>
</clipPath>
</defs>
</svg>
