<svg width="24" height="24" viewBox="0 0 24 24" fill="none" xmlns="http://www.w3.org/2000/svg">
<g clip-path="url(#clip0_210_9)">
<g clip-path="url(#clip1_210_9)">
<path d="M8.0332 24.0001C10.2412 24.0001 12.0332 22.2081 12.0332 20.0001V16.0001H8.0332C5.8252 16.0001 4.0332 17.7921 4.0332 20.0001C4.0332 22.2081 5.8252 24.0001 8.0332 24.0001Z" fill="#0ACF83"/>
<path d="M4.0332 12.0002C4.0332 9.79218 5.8252 8.00018 8.0332 8.00018H12.0332V16.0002H8.0332C5.8252 16.0002 4.0332 14.2082 4.0332 12.0002Z" fill="#A259FF"/>
<path d="M4.0332 4.00018C4.0332 1.79218 5.8252 0.000183105 8.0332 0.000183105H12.0332V8.00018H8.0332C5.8252 8.00018 4.0332 6.20818 4.0332 4.00018Z" fill="#F24E1E"/>
<path d="M12.0332 0.000183105H16.0332C18.2412 0.000183105 20.0332 1.79218 20.0332 4.00018C20.0332 6.20818 18.2412 8.00018 16.0332 8.00018H12.0332V0.000183105Z" fill="#FF7262"/>
<path d="M20.0332 12.0002C20.0332 14.2082 18.2412 16.0002 16.0332 16.0002C13.8252 16.0002 12.0332 14.2082 12.0332 12.0002C12.0332 9.79218 13.8252 8.00018 16.0332 8.00018C18.2412 8.00018 20.0332 9.79218 20.0332 12.0002Z" fill="#1ABCFE"/>
</g>
</g>
<defs>
<clipPath id="clip0_210_9">
<rect width="24" height="24" fill="white"/>
</clipPath>
<clipPath id="clip1_210_9">
<rect width="16.0032" height="24" fill="white" transform="translate(4.03125 0.000183105)"/>
</clipPath>
</defs>
</svg>
