<svg width="24" height="24" viewBox="0 0 24 24" fill="none" xmlns="http://www.w3.org/2000/svg">
<g clip-path="url(#clip0_177_928)">
<path d="M8.55664 22.4201C9.48656 22.7944 10.4954 23.0165 11.5547 23.0535C12.9883 23.1036 14.3516 22.8072 15.5704 22.2441C14.1089 21.6699 12.7853 20.8302 11.6556 19.7862C10.9234 20.9586 9.84032 21.8847 8.55664 22.4201Z" fill="#FF9100"/>
<path d="M11.6565 19.7866C9.07783 17.4017 7.51351 13.9499 7.64571 10.1639C7.65003 10.041 7.65651 9.91807 7.66411 9.79523C7.20227 9.67579 6.72011 9.60291 6.22395 9.58559C5.51375 9.56079 4.82595 9.64887 4.17663 9.83171C3.48827 11.0375 3.07287 12.421 3.02112 13.903C2.88757 17.7274 5.20199 21.0691 8.55747 22.4205C9.84119 21.885 10.9242 20.9601 11.6565 19.7866Z" fill="#FFC400"/>
<path d="M11.6552 19.7865C12.2548 18.827 12.6182 17.7022 12.6606 16.4903C12.7719 13.3025 10.6289 10.5603 7.66289 9.7951C7.65529 9.91794 7.64881 10.0408 7.64449 10.1637C7.51229 13.9498 9.07661 17.4016 11.6552 19.7865Z" fill="#FF9100"/>
<path d="M12.3295 0.834534C10.6403 2.18783 9.30635 3.97228 8.49927 6.02792C8.03723 7.20536 7.74687 8.47012 7.66211 9.79592C10.6281 10.5611 12.7711 13.3034 12.6598 16.4911C12.6175 17.703 12.2529 18.8267 11.6545 19.7873C12.7841 20.8324 14.1077 21.671 15.5692 22.2452C18.5027 20.8892 20.584 17.9713 20.7045 14.5201C20.7826 12.284 19.9235 10.2911 18.7095 8.60896C17.4275 6.82988 12.3295 0.834534 12.3295 0.834534Z" fill="#DD2C00"/>
</g>
<defs>
<clipPath id="clip0_177_928">
<rect width="24" height="24" fill="white"/>
</clipPath>
</defs>
</svg>
