<svg width="24" height="24" viewBox="0 0 24 24" fill="currentColor" xmlns="http://www.w3.org/2000/svg">
<g clip-path="url(#clip0_177_939)">
<path d="M22.9393 10.9877L13.0129 1.06184C12.4414 0.490047 11.5143 0.490047 10.9422 1.06184L8.8812 3.12337L11.4957 5.73788C12.1034 5.53252 12.8001 5.67034 13.2843 6.15479C13.7715 6.64221 13.9081 7.34489 13.6975 7.95479L16.2178 10.4748C16.8277 10.2645 17.5309 10.4006 18.0178 10.8882C18.6982 11.5686 18.6982 12.6712 18.0178 13.3521C17.3369 14.0327 16.2344 14.0327 15.5532 13.3521C15.0415 12.8399 14.9149 12.0877 15.1744 11.4573L12.8239 9.10704V15.2919C12.9897 15.374 13.1463 15.4834 13.2843 15.6214C13.9648 16.3018 13.9648 17.4044 13.2843 18.0855C12.6039 18.7657 11.5007 18.7657 10.8208 18.0855C10.1403 17.4041 10.1403 16.3016 10.8208 15.6214C10.989 15.4534 11.1837 15.3263 11.3916 15.2411V8.99867C11.1837 8.91355 10.9895 8.78761 10.8208 8.61838C10.3054 8.10324 10.1814 7.34662 10.4457 6.71372L7.86826 4.13582L1.06166 10.9417C0.489864 11.514 0.489864 12.4411 1.06166 13.0129L10.9885 22.939C11.5601 23.5107 12.4869 23.5107 13.0592 22.939L22.9393 13.0589C23.5111 12.4871 23.5111 11.5595 22.9393 10.9877Z" fill="#F05133"/>
</g>
<defs>
<clipPath id="clip0_177_939">
<rect width="24" height="24" fill="white"/>
</clipPath>
</defs>
</svg>
