<svg width="24" height="24" viewBox="0 0 24 24" fill="none" xmlns="http://www.w3.org/2000/svg">
<path d="M10.8016 17.7702C10.8939 17.7703 10.9853 17.7886 11.0706 17.8241C11.1558 17.8595 11.2332 17.9114 11.2984 17.9768C11.3636 18.0422 11.4153 18.1197 11.4505 18.2051C11.4857 18.2904 11.5037 18.3819 11.5036 18.4742C11.5035 18.5665 11.4852 18.6579 11.4497 18.7431C11.4143 18.8284 11.3624 18.9058 11.297 18.971C11.2316 19.0362 11.1541 19.0878 11.0687 19.1231C10.9834 19.1583 10.8919 19.1763 10.7996 19.1762C10.6132 19.1759 10.4345 19.1016 10.3028 18.9696C10.1712 18.8375 10.0974 18.6586 10.0976 18.4722C10.0979 18.2857 10.1722 18.107 10.3042 17.9754C10.4363 17.8437 10.6152 17.7699 10.8016 17.7702ZM21.8256 13.4232C21.7333 13.4231 21.6419 13.4049 21.5566 13.3695C21.4714 13.3341 21.3939 13.2823 21.3287 13.2169C21.2634 13.1516 21.2117 13.0741 21.1764 12.9888C21.1412 12.9034 21.1231 12.812 21.1231 12.7197C21.1232 12.6274 21.1414 12.536 21.1768 12.4507C21.2122 12.3654 21.264 12.288 21.3294 12.2227C21.3947 12.1575 21.4722 12.1058 21.5576 12.0705C21.6429 12.0352 21.7343 12.0171 21.8266 12.0172C22.0131 12.0173 22.1918 12.0915 22.3236 12.2234C22.4553 12.3554 22.5292 12.5342 22.5291 12.7207C22.529 12.9071 22.4548 13.0859 22.3229 13.2176C22.1909 13.3494 22.0121 13.4233 21.8256 13.4232ZM21.8256 10.5472C21.2492 10.5477 20.6965 10.7769 20.2889 11.1845C19.8814 11.5921 19.6521 12.1448 19.6516 12.7212C19.6516 12.9542 19.6906 13.1862 19.7666 13.4122L12.5856 17.2352C12.3865 16.9461 12.1201 16.7097 11.8093 16.5465C11.4985 16.3832 11.1527 16.298 10.8016 16.2982C9.97262 16.2982 9.21762 16.7732 8.85162 17.5142L2.40062 14.1122C1.71862 13.7542 1.20862 12.6322 1.26262 11.6102C1.29062 11.0772 1.47462 10.6632 1.75562 10.5032C1.93362 10.4032 2.14762 10.4112 2.37562 10.5302L2.41762 10.5532C4.12762 11.4532 9.72162 14.4002 9.95762 14.5092C10.3206 14.6782 10.5226 14.7462 11.1426 14.4522L22.7066 8.43819C22.8766 8.37419 23.0746 8.21119 23.0746 7.96419C23.0746 7.62219 22.7206 7.48719 22.7196 7.48719C22.0616 7.17219 21.0506 6.69919 20.0646 6.23719C17.9566 5.25019 15.5676 4.13219 14.5186 3.58219C13.6126 3.10819 12.8836 3.50819 12.7536 3.58819L12.5016 3.71319C7.77962 6.04819 1.45962 9.17819 1.09962 9.39719C0.456615 9.78919 0.0576154 10.5702 0.00561541 11.5392C-0.0743846 13.0762 0.708615 14.6792 1.82962 15.2662L8.65162 18.7842C8.72677 19.301 8.98534 19.7734 9.38008 20.1153C9.77483 20.4572 10.2794 20.6456 10.8016 20.6462C11.3719 20.6452 11.9191 20.4205 12.3255 20.0203C12.7318 19.6201 12.9649 19.0764 12.9746 18.5062L20.4886 14.4332C20.8686 14.7312 21.3416 14.8942 21.8256 14.8942C22.402 14.8937 22.9547 14.6644 23.3623 14.2569C23.7699 13.8493 23.9991 13.2966 23.9996 12.7202C23.9991 12.1438 23.7699 11.5911 23.3623 11.1835C22.9547 10.7759 22.402 10.5467 21.8256 10.5462" fill="black"/>
</svg>
