<svg width="24" height="24" viewBox="0 0 24 24" fill="none" xmlns="http://www.w3.org/2000/svg">
<path d="M12.0008 8.18553L15.7809 1.64258C15.4097 1.42265 14.9836 1.31268 14.5437 1.31268H9.4578C9.01795 1.31268 8.59183 1.43639 8.2207 1.64258L12.0008 8.18553Z" fill="#00832D"/>
<path d="M1.81444 19.6907L2.87286 21.5189C3.09278 21.9037 3.40894 22.2062 3.78007 22.4261L7.56014 15.8831H0C0 16.3092 0.109966 16.7354 0.329897 17.1202L1.81444 19.6907Z" fill="#0066DA"/>
<path d="M12 8.18559L8.21993 1.64264C7.8488 1.86257 7.53265 2.16498 7.31272 2.54986L0.329897 14.6461C0.11401 15.0227 0.00028744 15.4491 0 15.8832H7.56014L12 8.18559Z" fill="#00AC47"/>
<path d="M20.22 22.4261C20.5912 22.2062 20.9073 21.9037 21.1272 21.5189L21.5671 20.7629L23.6702 17.1202C23.8901 16.7354 24.0001 16.3092 24.0001 15.8831H16.4395L18.0482 19.0446L20.22 22.4261Z" fill="#EA4335"/>
<path d="M16.4391 15.8831H7.55937L3.7793 22.4261C4.15043 22.6461 4.57656 22.756 5.01641 22.756H18.982C19.4219 22.756 19.8481 22.6323 20.2191 22.4261L16.4391 15.8831Z" fill="#2684FC"/>
<path d="M20.1787 8.59797L16.6873 2.54986C16.4674 2.16498 16.1512 1.86257 15.7801 1.64264L12 8.18559L16.4399 15.8832H23.9862C23.9862 15.4571 23.8763 15.031 23.6564 14.6461L20.1787 8.59797Z" fill="#FFBA00"/>
</svg>
