<svg width="24" height="24" viewBox="0 0 24 24" fill="currentColor" xmlns="http://www.w3.org/2000/svg">
<g clip-path="url(#clip0_177_954)">
<path d="M14.7349 0.000183105L20.7349 6.00018L17.7349 6.54564L14.7349 6.00018L14.1895 3.00018L14.7349 0.000183105Z" fill="#188038"/>
<path d="M14.7358 6.00018V0.000183105H4.91761C4.01352 0.000183105 3.28125 0.732456 3.28125 1.63655V22.3638C3.28125 23.2679 4.01352 24.0002 4.91761 24.0002H19.0994C20.0035 24.0002 20.7358 23.2679 20.7358 22.3638V6.00018H14.7358Z" fill="#34A853"/>
<path d="M6.55469 9.27283V17.1819H17.4638V9.27283H6.55469ZM11.3274 15.8183H7.91832V13.9092H11.3274V15.8183ZM11.3274 12.5456H7.91832V10.6365H11.3274V12.5456ZM16.1001 15.8183H12.6911V13.9092H16.1001V15.8183ZM16.1001 12.5456H12.6911V10.6365H16.1001V12.5456Z" fill="white"/>
</g>
<defs>
<clipPath id="clip0_177_954">
<rect width="24" height="24" fill="white"/>
</clipPath>
</defs>
</svg>
