<svg width="24" height="24" viewBox="0 0 24 24" fill="currentColor" xmlns="http://www.w3.org/2000/svg">
<g clip-path="url(#clip0_177_958)">
<path d="M24 0.000183105H0V24.0002H24V0.000183105Z" fill="#F7DF1E"/>
<path d="M16.121 18.7503C16.6045 19.5396 17.2334 20.1198 18.3458 20.1198C19.2803 20.1198 19.8772 19.6528 19.8772 19.0074C19.8772 18.2341 19.2639 17.9602 18.2353 17.5103L17.6715 17.2684C16.0441 16.575 14.9629 15.7065 14.9629 13.8703C14.9629 12.1789 16.2517 10.8912 18.2658 10.8912C19.6997 10.8912 20.7306 11.3903 21.4734 12.6969L19.7172 13.8246C19.3305 13.1312 18.9134 12.8581 18.2658 12.8581C17.6052 12.8581 17.1866 13.2771 17.1866 13.8246C17.1866 14.5011 17.6056 14.775 18.5732 15.1941L19.137 15.4356C21.0532 16.2573 22.1351 17.095 22.1351 18.9785C22.1351 21.0089 20.5401 22.1213 18.398 22.1213C16.3035 22.1213 14.9504 21.1232 14.2883 19.815L16.121 18.7503ZM8.15417 18.9457C8.50845 19.5743 8.83074 20.1057 9.6056 20.1057C10.3465 20.1057 10.814 19.8158 10.814 18.6886V11.02H13.0692V18.719C13.0692 21.0543 11.7001 22.1171 9.7016 22.1171C7.89588 22.1171 6.85017 21.1827 6.31836 20.0571L8.15417 18.9457Z" fill="black"/>
</g>
<defs>
<clipPath id="clip0_177_958">
<rect width="24" height="24" fill="white"/>
</clipPath>
</defs>
</svg>
