<svg width="24" height="24" viewBox="0 0 24 24" fill="currentColor" xmlns="http://www.w3.org/2000/svg">
<path d="M21.8191 2.57111H11.5C11.5 3.80654 11.9908 4.99138 12.8644 5.86497C13.7379 6.73855 14.9228 7.22933 16.1582 7.22933H18.0591V9.06468C18.0608 11.635 20.144 13.7183 22.7143 13.72V3.46629C22.7143 2.97203 22.3136 2.57111 21.8191 2.57111Z" fill="#2684FF"/>
<path d="M16.7136 7.71277H6.39453C6.39613 10.2831 8.47932 12.3664 11.0497 12.3681H12.9506V14.2093C12.9539 16.7796 15.0385 18.8615 17.6089 18.8615V8.60812C17.6089 8.1137 17.208 7.71277 16.7136 7.71277Z" fill="url(#paint0_linear_177_961)"/>
<path d="M11.6043 12.8515H1.28516C1.28516 15.4242 3.37079 17.5097 5.94338 17.5097H7.85024V19.345C7.85192 21.913 9.93151 23.9953 12.4996 24.0002V13.7468C12.4996 13.2523 12.0987 12.8515 11.6043 12.8515Z" fill="url(#paint1_linear_177_961)"/>
<defs>
<linearGradient id="paint0_linear_177_961" x1="2813.3" y1="12.8456" x2="1700.08" y2="1313.81" gradientUnits="userSpaceOnUse">
<stop offset="0.18" stop-color="#0052CC"/>
<stop offset="1" stop-color="#2684FF"/>
</linearGradient>
<linearGradient id="paint1_linear_177_961" x1="2883.63" y1="27.3571" x2="1595.92" y2="1446.3" gradientUnits="userSpaceOnUse">
<stop offset="0.18" stop-color="#0052CC"/>
<stop offset="1" stop-color="#2684FF"/>
</linearGradient>
</defs>
</svg>
