<svg width="24" height="24" viewBox="0 0 24 24" fill="none" xmlns="http://www.w3.org/2000/svg">
<path d="M6.0988 5.91772C2.7359 5.91772 0 8.64642 0 12.0002C0 15.354 2.736 18.0827 6.0988 18.0827H17.9012C21.2641 18.0827 24 15.354 24 12.0002C24 8.64642 21.264 5.91772 17.9012 5.91772H6.0988ZM5.9774 7.85122C6.4704 7.86362 6.9974 8.10082 7.2504 8.47402C7.6177 8.93322 7.7282 9.54082 8.1448 9.96722C8.7052 10.579 9.3438 11.1177 9.8609 11.7692C10.3501 12.3646 10.6995 13.0629 11.0045 13.7667C11.1289 14.0002 11.1302 14.2869 11.3145 14.4864C11.4053 14.6068 11.8491 14.9347 11.7528 15.0509C11.8083 15.1713 12.223 15.3369 12.0791 15.4536C11.8847 15.4936 11.6662 15.5012 11.5175 15.3462C11.4626 15.4722 11.3345 15.4058 11.2356 15.3894C11.227 15.4139 11.2187 15.4384 11.2106 15.463C10.8818 15.4849 10.6352 15.1504 10.4786 14.898C10.1675 14.73 9.8144 14.6278 9.4966 14.452C9.4784 14.7415 9.5418 15.1005 9.2656 15.2873C9.2516 15.8438 10.1092 15.3529 10.1878 15.7677C10.1268 15.7744 10.0592 15.7582 10.0104 15.805C9.7865 16.0222 9.5299 15.6405 9.2719 15.798C8.9255 15.972 8.8911 16.1141 8.4623 16.15C8.4386 16.1141 8.448 16.0908 8.4682 16.0689C8.5889 15.929 8.5977 15.7643 8.8038 15.7046C8.5916 15.6712 8.4139 15.7879 8.2352 15.8803C8.0029 15.9753 8.0048 15.6662 7.6474 15.8967C7.6078 15.8645 7.6266 15.8352 7.6492 15.8103C7.74 15.6996 7.8594 15.6833 7.9942 15.6895C7.3312 15.3209 7.0191 16.1402 6.7129 15.7327C6.6209 15.757 6.5864 15.8395 6.5284 15.8979C6.4784 15.8431 6.5161 15.7767 6.5185 15.7122C6.4587 15.6842 6.3829 15.6712 6.4006 15.5756C6.2835 15.5361 6.2018 15.6051 6.1146 15.6708C6.0359 15.61 6.1678 15.5216 6.1922 15.4583C6.2624 15.3367 6.4222 15.4333 6.5033 15.3457C6.7339 15.2149 7.0553 15.4271 7.3188 15.3912C7.5218 15.4167 7.7732 15.2087 7.6714 15.0012C7.4543 14.7245 7.4924 14.3626 7.4875 14.0317C7.4607 13.8388 6.9965 13.5935 6.8623 13.3855C6.6964 13.1982 6.5673 12.9808 6.438 12.7673C5.9714 11.8665 6.1182 10.7089 5.5303 9.87262C5.2643 10.0192 4.9178 9.95002 4.6885 9.75362C4.5647 9.86612 4.5593 10.0134 4.5495 10.1697C4.2525 9.87352 4.2902 9.31382 4.5275 8.98422C4.6244 8.85402 4.7402 8.74692 4.8695 8.65262C4.8987 8.63132 4.9086 8.61072 4.908 8.57792C5.0254 8.05122 5.4844 7.83882 5.9774 7.85122ZM18.3845 8.31122C18.942 8.31122 19.4651 8.52712 19.8585 8.91942C20.2519 9.31172 20.4685 9.83392 20.4685 10.3898C20.4685 10.9458 20.2518 11.4678 19.8585 11.8596L18.9565 12.7597C18.7164 12.9995 18.4212 13.1768 18.0968 13.2763L18.0804 13.281L18.0746 13.2974C17.9708 13.5722 17.8091 13.8214 17.6006 14.0282L16.6988 14.9277C16.3054 15.3201 15.7818 15.536 15.2243 15.536C14.6668 15.536 14.1437 15.32 13.7503 14.9277C12.9373 14.117 12.9373 12.7983 13.7503 11.9875L14.6522 11.088C14.8915 10.8486 15.1862 10.6719 15.5102 10.5737L15.5272 10.5684L15.533 10.5526C15.6374 10.277 15.7994 10.0269 16.0082 9.81892L16.91 8.91942C17.3034 8.52702 17.8271 8.31122 18.3845 8.31122ZM18.3845 9.20773C18.2288 9.20722 18.0745 9.23755 17.9305 9.29697C17.7865 9.35639 17.6558 9.44372 17.5457 9.55393L16.6439 10.4534C16.5234 10.5738 16.4305 10.7188 16.3713 10.8785C16.3122 11.0382 16.2882 11.2088 16.3012 11.3786L16.3065 11.4358C16.3388 11.701 16.4555 11.9402 16.6439 12.1275C16.7739 12.2571 16.9172 12.3389 17.091 12.3961C17.1003 12.4483 17.105 12.5013 17.105 12.5543C17.1054 12.6714 17.0826 12.7875 17.0378 12.8957C16.993 13.0039 16.9272 13.1022 16.8441 13.1847L16.7887 13.2401C16.4874 13.1373 16.2362 12.9871 16.0093 12.7609C15.7093 12.4631 15.5081 12.0802 15.4332 11.6641L15.4233 11.6063L15.3772 11.6431C15.3466 11.668 15.3174 11.6945 15.2896 11.7225L14.3872 12.622C13.9249 13.083 13.9249 13.834 14.3872 14.295C14.6183 14.5255 14.9222 14.641 15.2266 14.6411C15.5309 14.6411 15.8343 14.5255 16.0654 14.2949L16.9673 13.3954C17.4296 12.9344 17.4296 12.1841 16.9673 11.7224C16.844 11.5994 16.6948 11.5055 16.5306 11.4475C16.5216 11.3943 16.5169 11.3404 16.5166 11.2864C16.5166 11.0273 16.6189 10.7814 16.8067 10.5941C17.1086 10.6969 17.3767 10.8635 17.6029 11.0891C17.9036 11.389 18.1023 11.7681 18.1785 12.1859L18.189 12.2437L18.2345 12.2064C18.2655 12.1816 18.2951 12.1551 18.3232 12.127L19.2252 11.2274C19.6874 10.7664 19.688 10.015 19.2252 9.55393C19.1151 9.44364 18.9842 9.35626 18.8401 9.29684C18.696 9.23741 18.5416 9.20713 18.3857 9.20773H18.3845ZM8.4115 14.3644C8.3322 14.6722 8.3061 15.1968 7.9049 15.212C7.8719 15.3896 8.0277 15.4565 8.1704 15.3994C8.3114 15.3349 8.3785 15.4502 8.4261 15.5651C8.6438 15.5968 8.9655 15.4926 8.9777 15.2353C8.6527 15.0486 8.5524 14.6935 8.4115 14.3644Z" fill="white"/>
</svg>
