<svg width="24" height="24" viewBox="0 0 24 24" fill="none" xmlns="http://www.w3.org/2000/svg">
<g clip-path="url(#clip0_177_1043)">
<path d="M0.164062 0.160706V23.8402H23.8437L23.8435 0.160706H0.164062Z" fill="white"/>
<path fill-rule="evenodd" clip-rule="evenodd" d="M0.164062 23.8402V0.160706H23.8434L23.8435 23.8402H0.164062ZM21.7869 12.2744C21.9942 11.6603 22.229 10.7411 22.2677 10.0034C22.2971 9.44684 22.2222 8.66737 21.6973 8.11351C21.2785 7.67097 20.6386 7.44764 19.7954 7.44764C18.7302 7.44764 17.8719 7.82364 17.2439 8.56724L17.0782 8.76271L16.9681 8.53151C16.8782 8.34311 16.8139 8.26591 16.7161 8.15551C16.2869 7.66991 15.5671 7.42377 14.5769 7.42391C13.6697 7.42391 12.8502 7.69577 12.2691 8.18951L12.1221 8.31444L12.0207 8.14951C11.7463 7.70351 11.0623 7.41484 10.2787 7.41484C9.15126 7.41511 8.01366 7.56817 7.3274 8.67444L7.043 9.13097L7.02073 8.59324C7.0034 8.17724 6.9654 8.00444 6.77193 7.79964C6.55913 7.57391 6.201 7.46417 5.67726 7.46457C4.9082 7.46457 4.3302 7.79991 3.9098 8.49044C3.26273 9.52404 1.69873 12.9238 1.73326 14.5396C1.75593 15.5883 2.45566 16.2302 3.60566 16.2567C4.5534 16.2796 5.30673 16.0364 5.78526 15.5535L5.9074 15.43L6.02473 15.557C6.45486 16.0239 7.10873 16.2812 7.8662 16.2812C8.83073 16.2812 9.65553 15.9815 10.1293 15.4584L10.2586 15.3159L10.3802 15.4654C10.8237 16.0102 11.509 16.2958 12.3619 16.2923C13.4743 16.2874 14.5133 15.7762 15.2121 14.8907L15.3953 14.6586L15.4975 14.9363C15.9282 16.1074 17.0954 16.2819 17.7537 16.2823C19.989 16.2823 20.9543 14.7486 21.7869 12.2744Z" fill="#FFED00"/>
<path fill-rule="evenodd" clip-rule="evenodd" d="M0.164062 23.8402V0.160706H23.8434L23.8435 23.8402H0.164062ZM21.9351 14.0079C22.2446 13.37 22.8269 11.7736 22.9345 10.9116L22.9357 10.9022C23.0669 9.84991 23.191 8.85417 22.481 7.86471C21.9762 7.16151 21.1161 6.68964 19.8074 6.68951C18.8182 6.68951 17.9347 6.95751 17.2283 7.54497C16.6234 6.94631 15.7558 6.67457 14.5881 6.67484C13.6743 6.67484 12.9074 6.88377 12.2395 7.28471C11.7547 6.89951 11.1857 6.65884 10.279 6.65884C9.45713 6.65871 8.30326 6.70151 7.43273 7.44057C7.23153 7.03004 6.82246 6.70764 5.69406 6.70764C4.6546 6.70764 3.8066 7.19937 3.25046 8.11231C2.50793 9.29831 0.931796 12.7232 0.972063 14.5942C1.00206 16.0026 2.0582 16.9728 3.58806 17.0092C4.5074 17.0307 5.29033 16.8339 5.8878 16.4374C6.42806 16.8267 7.11846 17.037 7.88566 17.037C8.8038 17.0371 9.63206 16.796 10.2462 16.3632C10.8026 16.8043 11.5326 17.0427 12.3585 17.0427C13.4299 17.0431 14.4255 16.6731 15.2298 15.9692C15.7783 16.6687 16.7181 17.0323 17.8593 17.0324C19.9957 17.0326 21.1054 15.7186 21.9351 14.0079Z" fill="#E3000B"/>
<path fill-rule="evenodd" clip-rule="evenodd" d="M0 24.0002V0.000183105H24L23.9996 23.9998L0 24.0002ZM23.6693 23.6697L23.6696 0.330583H0.330133L0.330667 23.6695L23.6693 23.6697Z" fill="black"/>
<path fill-rule="evenodd" clip-rule="evenodd" d="M22.3493 7.24029C22.3491 7.16478 22.3639 7.08998 22.3927 7.02018C22.4215 6.95038 22.4638 6.88695 22.5172 6.83353C22.5706 6.78011 22.6339 6.73775 22.7037 6.70886C22.7735 6.67998 22.8483 6.66515 22.9238 6.66522C22.9994 6.66508 23.0742 6.67986 23.1441 6.70871C23.2139 6.73755 23.2774 6.7799 23.3308 6.83333C23.3843 6.88675 23.4267 6.9502 23.4555 7.02004C23.4844 7.08987 23.4992 7.16472 23.4991 7.24029C23.4993 7.31586 23.4845 7.39072 23.4556 7.46057C23.4267 7.53041 23.3844 7.59386 23.3309 7.64728C23.2774 7.70071 23.214 7.74304 23.1441 7.77186C23.0742 7.80068 22.9994 7.81542 22.9238 7.81522C22.8483 7.81535 22.7735 7.80056 22.7037 7.7717C22.6339 7.74285 22.5705 7.7005 22.5171 7.64708C22.4637 7.59366 22.4214 7.53023 22.3926 7.46042C22.3638 7.39062 22.3491 7.31581 22.3493 7.24029ZM22.9241 6.77936C23.1798 6.77949 23.3877 6.98536 23.387 7.24109C23.3877 7.49682 23.179 7.70336 22.9241 7.70336C22.8635 7.70327 22.8035 7.69124 22.7475 7.66795C22.6916 7.64467 22.6408 7.61059 22.598 7.56765C22.5553 7.52472 22.5214 7.47378 22.4983 7.41775C22.4753 7.36171 22.4635 7.30168 22.4637 7.24109C22.4634 7.18049 22.4751 7.12044 22.4981 7.06439C22.5212 7.00834 22.555 6.95739 22.5978 6.91448C22.6406 6.87157 22.6915 6.83754 22.7475 6.81435C22.8034 6.79116 22.8635 6.77927 22.9241 6.77936ZM23.1479 7.42069L23.2166 7.54069L23.0677 7.54162L23.0201 7.44429C22.9988 7.40168 22.9715 7.36241 22.9389 7.32776C22.9154 7.30336 22.8939 7.29722 22.841 7.29722L22.8191 7.29736L22.8189 7.54136H22.6961V6.94576H22.9927C23.1206 6.94576 23.1806 7.01709 23.1806 7.11149C23.1809 7.20149 23.1201 7.26616 23.0195 7.27816L23.0198 7.28149C23.0709 7.29922 23.0878 7.31589 23.1479 7.42069ZM22.8187 7.03829V7.20189H22.9431C23.0263 7.20189 23.0538 7.16136 23.0526 7.11922C23.0526 7.06669 23.0109 7.03789 22.9298 7.03789L22.8187 7.03829ZM17.1161 8.46016C17.6958 7.77349 18.5537 7.28162 19.7942 7.28162C21.9415 7.28162 22.5033 8.68562 22.4329 10.0123C22.3911 10.8096 22.1353 11.7595 21.9441 12.3276C21.0947 14.8518 20.0747 16.4479 17.7534 16.4476C16.6941 16.4479 15.7246 16.0346 15.3426 14.9932C14.6449 15.8762 13.5785 16.4524 12.3626 16.4584C11.4333 16.463 10.7106 16.1346 10.2513 15.5704C9.70592 16.1723 8.78313 16.4479 7.86593 16.4482C7.04193 16.4476 6.35393 16.1606 5.90233 15.6702C5.39913 16.1776 4.60846 16.447 3.60139 16.4234C2.31139 16.3924 1.59073 15.6184 1.56699 14.544C1.53153 12.8808 3.11553 9.44722 3.76846 8.40469C4.21913 7.66509 4.84513 7.30202 5.67646 7.30162C6.13286 7.30202 6.60153 7.38136 6.89126 7.68829C7.12953 7.94029 7.16779 8.16429 7.18539 8.58829C7.91606 7.41096 9.14752 7.25096 10.2774 7.25122C11.1419 7.25122 11.8595 7.57482 12.1606 8.06402C12.7401 7.57149 13.5746 7.25896 14.5757 7.25896C15.6003 7.25909 16.3637 7.50909 16.8389 8.04669C16.9437 8.16469 17.0182 8.25482 17.1161 8.46016ZM5.81259 14.2555C5.85073 13.8534 5.54953 13.4191 4.34779 13.6276C4.46713 13.3603 4.64459 12.9939 4.84606 12.5779C5.49166 11.2448 6.38379 9.40269 6.40059 8.68202C6.40966 8.32669 6.26646 8.03042 5.69019 8.03069C5.08139 8.03042 4.69953 8.28509 4.38673 8.79896C3.70833 9.88229 2.26766 13.1503 2.29793 14.5628C2.31499 15.3703 2.94099 15.689 3.63659 15.7052C4.59526 15.7275 5.69953 15.4583 5.81273 14.2554L5.81259 14.2555ZM8.25926 12.5182C8.17926 12.7334 8.02886 13.184 7.90739 13.661C8.30179 13.5626 8.59713 13.4944 9.10339 13.5062C9.68059 13.5203 10.0499 13.7592 10.0497 14.2368C10.0497 15.3934 8.77059 15.7331 7.88432 15.7334C6.91019 15.7334 6.05446 15.1794 6.05446 14.1142C6.05446 12.8654 6.73126 10.9718 7.36646 9.71109C8.14619 8.16229 8.94339 7.95656 10.3158 7.95656C10.9193 7.95656 11.6139 8.21416 11.6139 8.78376C11.6139 9.57336 10.9462 9.87442 10.2829 9.91256C9.99926 9.92882 9.56366 9.94442 9.30312 9.92576C9.30312 9.92576 9.08166 10.2624 8.84766 10.8611C10.0754 10.6883 10.5965 10.9671 10.3893 11.6771C10.1087 12.637 9.27699 12.7003 8.25912 12.518L8.25926 12.5182ZM13.5878 9.96962C13.7498 9.74256 13.9665 9.53229 14.2989 9.53229C14.7062 9.53229 14.6667 9.74776 14.5701 10.0231C14.2955 10.8071 15.1246 10.8278 15.327 10.8118C16.0507 10.7554 16.4495 10.2878 16.5477 9.49122C16.6821 8.40669 15.7683 7.99029 14.6101 7.99029C12.6794 7.99029 11.9215 9.17109 11.1986 10.8591C10.859 11.652 10.4313 13.0071 10.4314 13.87C10.4313 15.082 11.1687 15.7392 12.3573 15.7392C14.0929 15.7392 15.3193 14.3552 15.6697 12.6308C15.7775 12.1002 15.9105 11.1043 14.5625 11.1598C13.8782 11.188 13.4654 11.339 13.2478 12.0382C13.0238 12.7584 13.8362 12.778 13.8362 12.778C13.6727 13.5227 13.1942 13.9742 12.7678 13.9746C12.5017 13.9746 12.2595 13.8591 12.3406 13.2959C12.461 12.4724 13.2322 10.4695 13.5878 9.96962ZM21.5901 10.9572C21.3853 11.9732 20.9266 13.1759 20.4282 14.072C19.6149 15.5339 18.6283 15.7387 17.7658 15.7278C16.9038 15.7175 15.9319 15.3996 15.9246 14.0692C15.9194 13.1146 16.331 11.7663 16.6807 10.8835C17.2907 9.28216 17.9129 7.97616 19.8821 7.99949C22.1778 8.02629 21.7683 10.0683 21.5901 10.9572ZM18.7103 13.5622C19.0295 13.0215 19.9281 10.5691 19.9526 9.95589C19.9598 9.77722 19.9303 9.56922 19.6423 9.56589C19.4449 9.56309 19.2731 9.60136 19.1187 9.83989C18.7718 10.2908 17.7562 13.0646 17.7734 13.6179C17.7797 13.8168 17.8907 13.9906 18.135 13.9906C18.4163 13.9908 18.5722 13.7972 18.7103 13.5622Z" fill="black"/>
</g>
<defs>
<clipPath id="clip0_177_1043">
<rect width="24" height="24" fill="white"/>
</clipPath>
</defs>
</svg>
