<svg width="24" height="24" viewBox="0 0 24 24" fill="currentColor" xmlns="http://www.w3.org/2000/svg">
<g clip-path="url(#clip0_177_1054)">
<path d="M11.8125 0.187683C8.69626 0.237153 5.72585 1.51616 3.54845 3.74603C1.37106 5.9759 0.163137 8.97592 0.187873 12.0924C0.212608 15.209 1.468 18.1894 3.68051 20.3845C5.89303 22.5795 8.88337 23.8112 12 23.8112C15.1166 23.8112 18.107 22.5795 20.3195 20.3845C22.532 18.1894 23.7874 15.209 23.8121 12.0924C23.8369 8.97592 22.6289 5.9759 20.4515 3.74603C18.2741 1.51616 15.3037 0.237153 12.1875 0.187683H11.8125ZM11.8125 2.81268C9.39257 2.86208 7.08989 3.86442 5.40478 5.60193C3.71967 7.33943 2.78828 9.67171 2.81298 12.092C2.83768 14.5123 3.81647 16.8251 5.53669 18.5279C7.25691 20.2306 9.57956 21.1858 12 21.1858C14.4204 21.1858 16.7431 20.2306 18.4633 18.5279C20.1835 16.8251 21.1623 14.5123 21.187 12.092C21.2117 9.67171 20.2803 7.33943 18.5952 5.60193C16.9101 3.86442 14.6074 2.86208 12.1875 2.81268H11.8125ZM11.8125 5.43768C10.089 5.48695 8.45405 6.21255 7.26124 7.45762C6.06842 8.7027 5.41354 10.3672 5.43817 12.0913C5.4628 13.8153 6.16498 15.4604 7.39288 16.6709C8.62078 17.8814 10.2758 18.56 12 18.56C13.7242 18.56 15.3792 17.8814 16.6071 16.6709C17.835 15.4604 18.5372 13.8153 18.5618 12.0913C18.5865 10.3672 17.9316 8.7027 16.7388 7.45762C15.5459 6.21255 13.911 5.48695 12.1875 5.43768H11.8125ZM11.8125 8.06268C10.7856 8.11164 9.8186 8.56027 9.11809 9.31271C8.41758 10.0652 8.03913 11.0617 8.06362 12.0895C8.0881 13.1173 8.51358 14.0947 9.24912 14.8129C9.98467 15.5311 10.972 15.9332 12 15.9332C13.0281 15.9332 14.0153 15.5311 14.7509 14.8129C15.4864 14.0947 15.9119 13.1173 15.9364 12.0895C15.9609 11.0617 15.5824 10.0652 14.8819 9.31271C14.1814 8.56027 13.2144 8.11164 12.1875 8.06268H11.8125ZM11.8125 10.6877C11.4841 10.7351 11.1858 10.9051 10.9777 11.1636C10.7696 11.422 10.6671 11.7497 10.6909 12.0807C10.7146 12.4117 10.8629 12.7214 11.1058 12.9475C11.3487 13.1735 11.6682 13.2992 12 13.2992C12.3318 13.2992 12.6513 13.1735 12.8942 12.9475C13.1371 12.7214 13.2854 12.4117 13.3091 12.0807C13.3329 11.7497 13.2304 11.422 13.0223 11.1636C12.8142 10.9051 12.5159 10.7351 12.1875 10.6877H11.8125ZM23.8125 12.0002H0.187501H23.8125ZM20.4375 3.56268L3.5625 20.4377L20.4375 3.56268ZM20.4375 20.4377L3.5625 3.56268L20.4375 20.4377ZM12 0.187683V23.8127V0.187683Z" fill="white" fill-opacity="0.8"/>
<path d="M23.8125 12.0002H0.187501M20.4375 3.56268L3.5625 20.4377M20.4375 20.4377L3.5625 3.56268M12 0.187683V23.8127M11.8125 0.187683C8.69626 0.237153 5.72585 1.51616 3.54845 3.74603C1.37106 5.9759 0.163137 8.97592 0.187873 12.0924C0.212608 15.209 1.468 18.1894 3.68051 20.3845C5.89303 22.5795 8.88337 23.8112 12 23.8112C15.1166 23.8112 18.107 22.5795 20.3195 20.3845C22.532 18.1894 23.7874 15.209 23.8121 12.0924C23.8369 8.97592 22.6289 5.9759 20.4515 3.74603C18.2741 1.51616 15.3037 0.237153 12.1875 0.187683H11.8125ZM11.8125 2.81268C9.39257 2.86208 7.08989 3.86442 5.40478 5.60193C3.71967 7.33943 2.78828 9.67171 2.81298 12.092C2.83768 14.5123 3.81647 16.8251 5.53669 18.5279C7.25691 20.2306 9.57956 21.1858 12 21.1858C14.4204 21.1858 16.7431 20.2306 18.4633 18.5279C20.1835 16.8251 21.1623 14.5123 21.187 12.092C21.2117 9.67171 20.2803 7.33943 18.5952 5.60193C16.9101 3.86442 14.6074 2.86208 12.1875 2.81268H11.8125ZM11.8125 5.43768C10.089 5.48695 8.45405 6.21255 7.26124 7.45762C6.06842 8.7027 5.41354 10.3672 5.43817 12.0913C5.4628 13.8153 6.16498 15.4604 7.39288 16.6709C8.62078 17.8814 10.2758 18.56 12 18.56C13.7242 18.56 15.3792 17.8814 16.6071 16.6709C17.835 15.4604 18.5372 13.8153 18.5618 12.0913C18.5865 10.3672 17.9316 8.7027 16.7388 7.45762C15.5459 6.21255 13.911 5.48695 12.1875 5.43768H11.8125ZM11.8125 8.06268C10.7856 8.11164 9.8186 8.56027 9.11809 9.31271C8.41758 10.0652 8.03913 11.0617 8.06362 12.0895C8.0881 13.1173 8.51358 14.0947 9.24912 14.8129C9.98467 15.5311 10.972 15.9332 12 15.9332C13.0281 15.9332 14.0153 15.5311 14.7509 14.8129C15.4864 14.0947 15.9119 13.1173 15.9364 12.0895C15.9609 11.0617 15.5824 10.0652 14.8819 9.31271C14.1814 8.56027 13.2144 8.11164 12.1875 8.06268H11.8125ZM11.8125 10.6877C11.4841 10.7351 11.1858 10.9051 10.9777 11.1636C10.7696 11.422 10.6671 11.7497 10.6909 12.0807C10.7146 12.4117 10.8629 12.7214 11.1058 12.9475C11.3487 13.1735 11.6682 13.2992 12 13.2992C12.3318 13.2992 12.6513 13.1735 12.8942 12.9475C13.1371 12.7214 13.2854 12.4117 13.3091 12.0807C13.3329 11.7497 13.2304 11.422 13.0223 11.1636C12.8142 10.9051 12.5159 10.7351 12.1875 10.6877H11.8125Z" stroke="#777777" stroke-width="0.0625"/>
<path d="M9.375 1.50018L5.625 3.37518L18.375 20.6252L20.25 18.7502L12 12.0002L9.375 1.50018Z" fill="#FF6600" fill-opacity="0.8" stroke="#777777" stroke-width="0.0625"/>
<path d="M3.1875 9.37518V14.6252L12 12.0002L3.1875 9.37518Z" fill="#FFCC00" fill-opacity="0.8" stroke="#777777" stroke-width="0.0625"/>
<path d="M12 12.0002L13.125 18.5627H10.875L12 12.0002Z" fill="#77FF77" fill-opacity="0.8" stroke="#777777" stroke-width="0.0625"/>
<path d="M12 12.0002L14.4375 4.50018L16.125 5.43768L12 12.0002Z" fill="#CCFF33" fill-opacity="0.8" stroke="#777777" stroke-width="0.0625"/>
<path d="M12 12.0002L14.625 10.8752L14.8125 11.6252L12 12.0002ZM12 12.0002L7.125 14.4377L7.6875 15.1877L12 12.0002Z" fill="#0044FF" fill-opacity="0.8"/>
<path d="M12 12.0002L14.625 10.8752L14.8125 11.6252L12 12.0002ZM12 12.0002L7.125 14.4377L7.6875 15.1877L12 12.0002Z" stroke="#777777" stroke-width="0.0625"/>
</g>
<defs>
<clipPath id="clip0_177_1054">
<rect width="24" height="24" fill="white"/>
</clipPath>
</defs>
</svg>
