<svg width="24" height="24" viewBox="0 0 24 24" fill="currentColor" xmlns="http://www.w3.org/2000/svg">
<g clip-path="url(#clip0_177_1061)">
<path d="M24 0.000183105H0V24.0002H24V0.000183105Z" fill="#4093D4"/>
<path d="M16.5327 21.0795C18.616 20.1122 20.6751 18.9306 22.2781 17.4727L1.89453 18.7855L2.68569 20.2987L7.17809 23.3875L16.5327 21.0795Z" fill="white" stroke="white" stroke-width="1.125" stroke-linecap="round" stroke-linejoin="round"/>
<path d="M10.0098 4.68976C13.4784 5.7504 18.329 10.8739 19.9804 16.3809C19.0753 16.0251 18.3981 15.6623 17.1267 15.9871C15.8968 11.5131 13.6961 7.23943 10.0098 4.68976Z" fill="white" stroke="white" stroke-width="1.125" stroke-linecap="round" stroke-linejoin="round"/>
<path d="M3.55948 2.24023C8.00241 4.1404 14.0968 9.42976 15.2161 16.4742C10.0926 14.4082 6.19207 15.5103 3.47656 17.1859C7.61892 11.9207 5.76021 5.93346 3.55948 2.24023Z" fill="white" stroke="white" stroke-width="1.125" stroke-linecap="round" stroke-linejoin="round"/>
<path d="M3.25923 20.2918C3.18365 20.2918 3.11078 20.2975 3.04026 20.3081C2.05308 20.4569 1.52876 21.5777 0.541574 21.7265C0.47106 21.7371 0.398184 21.7428 0.322609 21.7428C0.247035 21.7428 0.174159 21.7371 0.103645 21.7265C0.0679595 21.7211 0.0345201 21.7111 0 21.7032V24.0002H24V21.7291C23.9399 21.7367 23.8792 21.7428 23.8155 21.7428C23.74 21.7428 23.6671 21.7371 23.5966 21.7265C23.5261 21.7159 23.4579 21.7003 23.3918 21.6805C23.1273 21.6011 22.8951 21.4538 22.6738 21.2837C22.1205 20.8586 21.6347 20.2918 20.8789 20.2918C20.807 20.2918 20.738 20.2977 20.6707 20.3073C20.6495 20.3104 20.6294 20.3158 20.6087 20.3197C20.5634 20.3282 20.5185 20.3373 20.4751 20.3497C20.4515 20.3564 20.4288 20.3647 20.4058 20.3725C20.3663 20.3858 20.3271 20.3997 20.289 20.4158C20.2666 20.4253 20.2445 20.4357 20.2225 20.4461C20.1842 20.4641 20.1464 20.4831 20.1093 20.5036C20.0901 20.5142 20.071 20.525 20.0521 20.5361C20.0107 20.5606 19.9699 20.5863 19.9297 20.6132C19.9167 20.6219 19.9036 20.6303 19.8908 20.6392C19.8622 20.6589 19.8343 20.68 19.8062 20.7007C19.7565 20.7374 19.7076 20.7759 19.6589 20.8148C19.552 20.8999 19.4458 20.9866 19.3403 21.0747C19.3072 21.1024 19.2735 21.129 19.2402 21.1563C19.111 21.2621 18.9801 21.3645 18.8423 21.4525C18.835 21.4572 18.8275 21.4618 18.8201 21.4664C18.776 21.4939 18.7312 21.52 18.6856 21.5444C18.6752 21.55 18.6645 21.5551 18.6539 21.5605C18.6092 21.5834 18.5639 21.6052 18.5173 21.6244C18.5068 21.6287 18.4959 21.6321 18.4852 21.6362C18.437 21.655 18.3883 21.6727 18.3379 21.6868C18.2137 21.7216 18.083 21.7428 17.9423 21.7428C16.7331 21.7428 16.2149 20.2918 15.0057 20.2918C13.7965 20.2918 13.2783 21.7428 12.0691 21.7428C11.9935 21.7428 11.9206 21.7371 11.8501 21.7265C11.7796 21.7159 11.7114 21.7003 11.6453 21.6805C11.3808 21.6011 11.1487 21.4538 10.9274 21.2837C10.374 20.8586 9.8882 20.2918 9.13246 20.2918C9.06058 20.2918 8.99151 20.2977 8.92422 20.3073C8.90304 20.3104 8.88298 20.3158 8.86221 20.3197C8.81696 20.3282 8.77201 20.3373 8.72861 20.3497C8.70508 20.3564 8.68233 20.3647 8.65931 20.3725C8.61985 20.3858 8.58068 20.3997 8.54257 20.4158C8.52012 20.4253 8.49806 20.4357 8.47604 20.4461C8.43776 20.4641 8.39993 20.4831 8.36281 20.5036C8.34363 20.5142 8.3245 20.525 8.30559 20.5361C8.2642 20.5606 8.22342 20.5863 8.18319 20.6132C8.17023 20.6219 8.15717 20.6303 8.14432 20.6392C8.11576 20.6589 8.08788 20.68 8.05977 20.7007C8.01003 20.7374 7.96116 20.7759 7.91247 20.8148C7.80556 20.8999 7.69935 20.9866 7.59384 21.0747C7.56073 21.1024 7.52707 21.129 7.49377 21.1563C7.36452 21.2621 7.2336 21.3645 7.09586 21.4525C7.0885 21.4572 7.08105 21.4618 7.07366 21.4664C7.02957 21.4939 6.98477 21.52 6.93917 21.5444C6.92871 21.55 6.91801 21.5551 6.90746 21.5605C6.8627 21.5834 6.81742 21.6052 6.77088 21.6244C6.76036 21.6287 6.74939 21.6321 6.73877 21.6362C6.69057 21.655 6.64181 21.6727 6.59139 21.6868C6.4672 21.7216 6.33658 21.7428 6.19584 21.7428C5.7424 21.7428 5.38611 21.5388 5.05412 21.2837C4.50081 20.8586 4.01497 20.2918 3.25923 20.2918Z" fill="#172C50"/>
</g>
<defs>
<clipPath id="clip0_177_1061">
<rect width="24" height="24" fill="white"/>
</clipPath>
</defs>
</svg>
