<svg width="24" height="24" viewBox="0 0 24 24" fill="currentColor" xmlns="http://www.w3.org/2000/svg">
<g clip-path="url(#clip0_184_1017)">
<path d="M2.71875 14.0054V9.17029L11.3146 4.33514L15.6125 6.75272L2.71875 14.0054Z" fill="#F89439"/>
<path d="M9.38791 3.19153L2.71875 6.89165V0.850636C2.71875 0.54859 2.81721 0.10901 3.17869 0.0199918C3.54018 -0.0690266 3.92615 0.161594 4.25189 0.322037C4.55852 0.473066 9.38791 3.19153 9.38791 3.19153Z" fill="#F6D209"/>
<path d="M17.6445 7.78088L2.71876 16.2372L2.71875 19.4838C2.71874 19.7103 2.71876 20.2389 3.02183 20.4654C3.32489 20.6919 3.85523 20.4654 4.00676 20.3899C4.15829 20.3144 19.5386 11.6315 20.5994 11.0275C20.9246 10.8423 21.2812 10.5745 21.2812 10.2725C21.2812 9.97047 21.1297 9.77632 20.6751 9.51745C20.3462 9.33014 17.6445 7.78088 17.6445 7.78088Z" fill="#C357EA"/>
<path d="M7.49805 20.6266L20.0583 13.5608C20.0583 13.5608 10.1623 23.1823 10.0101 23.3326C9.85785 23.483 9.40112 24.0091 8.94438 24.0091C8.48764 24.0091 8.3354 23.6333 8.25927 23.3326C8.18315 23.032 7.49805 20.6266 7.49805 20.6266Z" fill="#5092FF"/>
</g>
<defs>
<clipPath id="clip0_184_1017">
<rect width="24" height="24" fill="white"/>
</clipPath>
</defs>
</svg>
