<svg width="24" height="24" viewBox="0 0 24 24" fill="none" xmlns="http://www.w3.org/2000/svg">
<g clip-path="url(#clip0_218_2)">
<path fill-rule="evenodd" clip-rule="evenodd" d="M13.9092 0.792786C13.7451 0.792786 13.5927 0.827956 13.452 0.874847C13.751 1.07414 13.9151 1.33791 13.9971 1.63685C14.003 1.67788 14.0147 1.70719 14.0206 1.74822C14.0265 1.78339 14.0323 1.81856 14.0323 1.85373C14.0558 2.36954 13.8975 2.43402 13.7861 2.73882C13.6161 3.13155 13.663 3.55358 13.8682 3.89355C13.8858 3.93458 13.9092 3.98147 13.9385 4.0225C13.7158 2.53953 14.9526 2.31679 15.1812 1.85373C15.1988 1.44928 14.8647 1.17965 14.6009 0.992078C14.3488 0.839678 14.1202 0.792786 13.9092 0.792786ZM15.7732 1.12689C15.7497 1.26171 15.7673 1.22654 15.7615 1.29688C15.7556 1.34377 15.7556 1.40239 15.7498 1.44928C15.7381 1.49617 15.7263 1.54306 15.7087 1.58996C15.697 1.63685 15.6794 1.68374 15.6618 1.73063C15.6384 1.77753 15.6208 1.81856 15.5974 1.86545C15.5798 1.88891 15.5681 1.91234 15.5505 1.93579C15.5388 1.95337 15.527 1.97096 15.5153 1.98854C15.486 2.02958 15.4567 2.0706 15.4274 2.10577C15.3922 2.14094 15.3629 2.18197 15.3219 2.21128V2.21715C15.2867 2.24646 15.2515 2.28163 15.2105 2.31094C15.0874 2.40472 14.9467 2.47506 14.8178 2.56298C14.7768 2.59229 14.7357 2.61574 14.7006 2.65091C14.6595 2.68021 14.6244 2.70952 14.5892 2.74469C14.5482 2.77986 14.5188 2.81503 14.4837 2.85606C14.4544 2.89123 14.4192 2.93226 14.3958 2.97329C14.3664 3.01432 14.3371 3.05535 14.3137 3.09639C14.2902 3.14328 14.2727 3.18431 14.2492 3.2312C14.2316 3.27809 14.214 3.31912 14.2023 3.36602C14.1847 3.41877 14.173 3.46566 14.1613 3.51256C14.1554 3.53601 14.1554 3.56531 14.1496 3.58876C14.1437 3.61221 14.1437 3.63565 14.1379 3.6591C14.1379 3.70599 14.132 3.75874 14.132 3.80563C14.132 3.8408 14.132 3.87597 14.1379 3.91114C14.1379 3.95803 14.1437 4.00493 14.1554 4.05768C14.1613 4.10457 14.173 4.15146 14.1848 4.19836C14.2023 4.24525 14.2141 4.29214 14.2316 4.33903C14.2434 4.36834 14.261 4.39765 14.2727 4.4211L12.9245 3.89942C12.6959 3.83494 12.4732 3.77633 12.2446 3.72357C12.1215 3.69426 11.9984 3.66496 11.8753 3.63565C11.5236 3.56531 11.1661 3.51256 10.8085 3.47739C10.7968 3.47739 10.7909 3.47152 10.7792 3.47152C10.4275 3.43635 10.0817 3.41877 9.72997 3.41877C9.47206 3.41877 9.21415 3.43048 8.96211 3.44807C8.60455 3.47153 8.247 3.51841 7.88944 3.57702C7.80152 3.58874 7.71359 3.60634 7.62567 3.62392C7.44396 3.65909 7.26812 3.70012 7.09813 3.74115C7.01021 3.76461 6.92228 3.78804 6.83436 3.81149C6.74644 3.84666 6.66438 3.88769 6.58231 3.92286C6.51784 3.95216 6.45336 3.98147 6.38888 4.01078C6.37717 4.01665 6.36543 4.01665 6.35958 4.0225C6.30096 4.0518 6.24821 4.07525 6.19545 4.10456C6.17787 4.11043 6.16614 4.11627 6.15442 4.12214C6.08994 4.15145 6.02547 4.18662 5.97271 4.21593C5.93168 4.23351 5.89065 4.25696 5.85548 4.27454C5.8379 4.28626 5.81445 4.298 5.80273 4.30385C5.74997 4.33316 5.69722 4.36246 5.65033 4.39177C5.59757 4.42108 5.55068 4.45039 5.50965 4.47969C5.46862 4.50901 5.42759 4.53245 5.39242 4.56176C5.38655 4.56763 5.3807 4.56763 5.37483 4.57347C5.33966 4.59693 5.29863 4.62622 5.26347 4.65553C5.26347 4.65553 5.25759 4.6614 5.25175 4.66725C5.22244 4.69071 5.19313 4.71414 5.16383 4.73759C5.15211 4.74346 5.14037 4.75517 5.12866 4.76104C5.09935 4.7845 5.07004 4.8138 5.04074 4.83724C5.03486 4.84896 5.02315 4.85483 5.01728 4.8607C4.98211 4.89587 4.94694 4.92517 4.91177 4.96034C4.9059 4.96034 4.9059 4.96621 4.90006 4.97206C4.86489 5.00137 4.82972 5.03654 4.79455 5.07171C4.78868 5.07758 4.78868 5.08342 4.78284 5.08342C4.75353 5.11273 4.72422 5.14204 4.69491 5.1772C4.6832 5.18892 4.6656 5.20066 4.65388 5.21237C4.62457 5.24754 4.58941 5.28271 4.55424 5.31788C4.54836 5.32959 4.53665 5.33547 4.53078 5.34719C4.48389 5.39408 4.44286 5.44097 4.39596 5.48787C4.39009 5.49374 4.38425 5.49958 4.37838 5.50545C4.28459 5.6051 4.18495 5.70474 4.07944 5.79267C3.97393 5.88645 3.86256 5.97437 3.75119 6.05057C3.63396 6.13264 3.52259 6.20297 3.3995 6.27331C3.28227 6.33779 3.15917 6.39641 3.03022 6.44916C2.90713 6.50192 2.77817 6.54881 2.64922 6.58984C2.40303 6.64259 2.15099 6.74224 1.93411 6.75982C1.88722 6.75982 1.83446 6.77154 1.78757 6.77741C1.73482 6.78912 1.68793 6.80086 1.64103 6.81258C1.59414 6.83016 1.54725 6.84775 1.50035 6.86533C1.45346 6.88291 1.40657 6.90636 1.35968 6.92981C1.31865 6.95911 1.27176 6.98256 1.23072 7.01187C1.18969 7.04118 1.14866 7.07634 1.11349 7.11152C1.07246 7.14082 1.03143 7.18186 0.996261 7.21702C0.961091 7.25806 0.925922 7.29323 0.896615 7.33425C0.867308 7.38115 0.832138 7.42218 0.808691 7.46907C0.779384 7.5101 0.750077 7.55699 0.726629 7.60388C0.703174 7.65664 0.679737 7.70353 0.662153 7.75629C0.644568 7.80318 0.626983 7.85593 0.609398 7.90869C0.597684 7.95558 0.585943 8.00247 0.580091 8.04936C0.580091 8.05524 0.574221 8.06108 0.574221 8.06695C0.562507 8.1197 0.562507 8.19004 0.556636 8.22522C0.550765 8.26624 0.544922 8.30141 0.544922 8.34244C0.544922 8.3659 0.544922 8.3952 0.550792 8.41864C0.556663 8.45968 0.562506 8.49484 0.574248 8.53002C0.585962 8.56518 0.597704 8.60035 0.615277 8.63552V8.64139C0.632862 8.67656 0.656309 8.71173 0.679754 8.7469C0.70321 8.78207 0.726649 8.81724 0.755956 8.85241C0.785263 8.88172 0.820432 8.91688 0.855602 8.94619C0.890772 8.98136 0.925941 9.01067 0.96697 9.03998C1.10765 9.16307 1.14282 9.2041 1.32453 9.29789C1.35383 9.31547 1.38314 9.3272 1.41831 9.34478C1.42418 9.34478 1.43003 9.35065 1.4359 9.35065C1.4359 9.36236 1.4359 9.36823 1.44177 9.37996C1.44764 9.42685 1.45935 9.47374 1.47108 9.52064C1.48279 9.57339 1.50039 9.62028 1.51797 9.66131C1.53556 9.69648 1.54728 9.73165 1.56486 9.76682C1.57073 9.77854 1.57658 9.79028 1.58245 9.79613C1.6059 9.84302 1.62934 9.88406 1.65278 9.92508C1.68209 9.96611 1.7114 10.0071 1.74071 10.0482C1.77002 10.0833 1.80518 10.1244 1.84035 10.1595C1.87552 10.1947 1.91069 10.224 1.95173 10.2592C1.95173 10.2592 1.9576 10.2651 1.96344 10.2651C1.99861 10.2944 2.03378 10.3237 2.06895 10.3471C2.10998 10.3764 2.15101 10.3999 2.1979 10.4233C2.23893 10.4468 2.28583 10.4702 2.33272 10.4878C2.36789 10.5054 2.40892 10.5171 2.44995 10.5288C2.45582 10.5347 2.46166 10.5347 2.4734 10.5406C2.49686 10.5464 2.52616 10.5523 2.5496 10.5581C2.53202 10.8747 2.52615 11.1736 2.57306 11.2791C2.62581 11.3963 2.88372 11.0388 3.14163 10.6285C3.10646 11.0329 3.08301 11.5077 3.14163 11.6484C3.20611 11.7949 3.5578 11.3377 3.8626 10.8336C8.01844 9.87234 11.8109 12.7445 12.2095 16.8007C12.1333 16.1676 11.3537 15.816 10.9961 15.9039C10.8203 16.3376 10.5213 16.8945 10.0407 17.2403C10.0817 16.8534 10.0641 16.4549 9.98207 16.068C9.85311 16.6073 9.60106 17.1114 9.25523 17.5451C8.69838 17.5861 8.14153 17.3165 7.84846 16.9121C7.825 16.8945 7.81915 16.8593 7.80156 16.8359C7.78398 16.7948 7.76639 16.7538 7.75467 16.7128C7.73709 16.6717 7.72536 16.6307 7.7195 16.5897C7.71363 16.5486 7.71363 16.5076 7.71363 16.4607C7.71363 16.4314 7.71363 16.4021 7.71363 16.3728C7.7195 16.3318 7.73122 16.2907 7.74294 16.2497C7.75465 16.2087 7.76639 16.1676 7.78397 16.1266C7.80743 16.0856 7.825 16.0446 7.85431 16.0035C7.95395 15.7222 7.95395 15.4936 7.77225 15.3588C7.73708 15.3353 7.70191 15.3177 7.66088 15.3001C7.63742 15.2943 7.60812 15.2825 7.58468 15.2767C7.56709 15.2708 7.55537 15.265 7.53779 15.2591C7.49675 15.2474 7.45572 15.2356 7.41469 15.2298C7.37366 15.2181 7.33263 15.2122 7.2916 15.2122C7.25057 15.2063 7.20367 15.2005 7.16264 15.2005C7.13334 15.2005 7.10403 15.2064 7.07472 15.2064C7.02783 15.2064 6.9868 15.2122 6.94577 15.2239C6.90474 15.2298 6.86371 15.2357 6.82267 15.2474C6.78164 15.2591 6.74061 15.2709 6.69958 15.2884C6.65855 15.306 6.62338 15.3236 6.58235 15.3412C6.54718 15.3588 6.51201 15.3822 6.47098 15.3998C5.10524 16.2908 5.92 18.3775 6.85198 18.9812C6.50029 19.0457 6.14273 19.1219 6.04309 19.1981C6.03722 19.204 6.03137 19.2098 6.03137 19.2098C6.28342 19.3622 6.54719 19.4912 6.82268 19.6025C7.19782 19.7256 7.59641 19.837 7.77226 19.8839V19.8897C8.25876 19.9894 8.75114 20.0246 9.24937 19.9953C11.846 19.8135 13.9738 17.8382 14.3606 15.2357C14.3724 15.2884 14.3841 15.3353 14.3958 15.3881C14.4134 15.4936 14.4368 15.605 14.4486 15.7163V15.7222C14.4603 15.775 14.4662 15.8277 14.472 15.8746V15.8981C14.4779 15.9508 14.4837 16.0036 14.4837 16.0505C14.4896 16.1149 14.4955 16.1794 14.4955 16.2439V16.3377C14.4955 16.367 14.5013 16.4021 14.5013 16.4315C14.5013 16.4666 14.4955 16.5018 14.4955 16.537V16.619C14.4955 16.6601 14.4896 16.6952 14.4896 16.7363C14.4896 16.7597 14.4896 16.7831 14.4837 16.8125C14.4837 16.8535 14.4778 16.8945 14.4778 16.9414C14.472 16.959 14.472 16.9766 14.472 16.9942C14.4661 17.0411 14.4602 17.0821 14.4544 17.129C14.4544 17.1466 14.4544 17.1641 14.4485 17.1817C14.4426 17.2403 14.4309 17.2931 14.4251 17.3517V17.3576V17.3635C14.4133 17.4162 14.4016 17.4748 14.3899 17.5276V17.5452C14.3782 17.5979 14.3664 17.6507 14.3547 17.7034C14.3547 17.7093 14.3488 17.721 14.3488 17.7269C14.3371 17.7796 14.3254 17.8324 14.3078 17.8852V17.9027C14.2902 17.9613 14.2726 18.0141 14.2609 18.0669C14.2551 18.0727 14.2551 18.0786 14.2551 18.0786C14.2375 18.1372 14.2199 18.1958 14.2023 18.2544C14.1788 18.313 14.1613 18.3658 14.1378 18.4244C14.1144 18.483 14.0968 18.5416 14.0733 18.5944C14.0499 18.653 14.0264 18.7058 14.003 18.7644H13.9971C13.9737 18.8171 13.9502 18.8757 13.9209 18.9285C13.9151 18.9461 13.9092 18.9578 13.9033 18.9695C13.8975 18.9754 13.8975 18.9812 13.8916 18.9871C13.5106 19.755 12.9479 20.4291 12.2445 20.9566C12.1976 20.9859 12.1507 21.0211 12.1039 21.0562C12.0921 21.068 12.0745 21.0738 12.0628 21.0855C12.0218 21.1149 11.9808 21.1442 11.9339 21.1735L11.9515 21.2086H11.9573C12.0394 21.1969 12.1214 21.1852 12.2035 21.1735H12.2094C12.3618 21.15 12.5142 21.1207 12.6666 21.0914C12.7076 21.0855 12.7545 21.0738 12.7955 21.0621C12.8248 21.0562 12.8483 21.0504 12.8776 21.0445C12.9186 21.0386 12.9597 21.0269 13.0007 21.0211C13.0359 21.0094 13.071 21.0035 13.1062 20.9918C13.6924 20.8511 14.2609 20.6576 14.806 20.429C13.8741 21.701 12.6255 22.7268 11.166 23.4009C11.8401 23.354 12.5142 23.2426 13.1648 23.055C15.527 22.3575 17.5141 20.769 18.704 18.6295C18.4637 19.9836 17.9244 21.2731 17.1272 22.3985C17.6958 22.0234 18.2175 21.5896 18.6923 21.0973C20.0052 19.7257 20.8669 17.9848 21.16 16.1149C21.3593 17.0411 21.4179 17.9965 21.33 18.9402C25.562 13.0376 21.6816 6.91816 20.058 5.30623C20.0521 5.29452 20.0463 5.28865 20.0463 5.27693C20.0404 5.2828 20.0404 5.2828 20.0404 5.28864C20.0404 5.28277 20.0404 5.28277 20.0345 5.27693C20.0345 5.34727 20.0287 5.4176 20.0228 5.48794C20.0052 5.62276 19.9877 5.75171 19.9642 5.88067C19.9349 6.00962 19.8997 6.13857 19.8646 6.26753C19.8235 6.39062 19.7766 6.51957 19.7239 6.64267C19.6711 6.7599 19.6125 6.88299 19.548 7.00022C19.4836 7.11159 19.4132 7.22882 19.337 7.33433C19.2608 7.4457 19.1788 7.55121 19.0967 7.65085C19.0088 7.75636 18.915 7.85015 18.8212 7.94393C18.7626 7.99669 18.7098 8.04358 18.6512 8.09047C18.6043 8.1315 18.5633 8.16667 18.5164 8.2077C18.4109 8.28976 18.3054 8.36596 18.1882 8.4363C18.0768 8.50664 17.9596 8.57698 17.8423 8.6356C17.7192 8.69421 17.5961 8.74697 17.473 8.79972C17.35 8.84661 17.221 8.88764 17.092 8.92281C16.9631 8.95798 16.8283 8.98729 16.6993 9.01074C16.5645 9.03419 16.4297 9.0459 16.3007 9.05763C16.207 9.0635 16.1132 9.06934 16.0194 9.06934C15.8846 9.06934 15.7498 9.05763 15.6208 9.04589C15.486 9.03418 15.3512 9.01658 15.2222 8.98727C15.0874 8.96382 14.9584 8.92865 14.8295 8.88763H14.8236C14.9526 8.87591 15.0815 8.86417 15.2105 8.84073C15.3453 8.81728 15.4742 8.78798 15.6032 8.75281C15.7322 8.71764 15.8611 8.67661 15.9842 8.62972C16.1132 8.58282 16.2363 8.52421 16.3535 8.46559C16.4766 8.40697 16.5879 8.3425 16.7052 8.27216C16.8165 8.19596 16.9279 8.11976 17.0334 8.0377C17.1389 7.95564 17.2386 7.86772 17.3324 7.77393C17.432 7.686 17.5199 7.58636 17.6079 7.48671C17.6958 7.38121 17.7778 7.2757 17.854 7.17019C17.8658 7.1526 17.8775 7.12916 17.8892 7.11157C17.9478 7.01779 18.0064 6.924 18.0592 6.83022C18.1237 6.71299 18.1823 6.59576 18.235 6.47267C18.2878 6.34957 18.3347 6.22648 18.3757 6.09753C18.4167 5.97443 18.4461 5.84548 18.4754 5.71652C18.4988 5.58171 18.5223 5.45275 18.534 5.3238C18.5457 5.18898 18.5574 5.05417 18.5574 4.92522C18.5574 4.83143 18.5516 4.73764 18.5457 4.64386C18.534 4.50905 18.5164 4.38009 18.4988 4.25114C18.4754 4.11632 18.4461 3.98737 18.4109 3.85841C18.3699 3.73532 18.3288 3.60636 18.282 3.48327C18.2351 3.36018 18.1764 3.23709 18.1178 3.11985C18.0534 3.00262 17.9889 2.88539 17.9185 2.77402C17.8423 2.66266 17.7661 2.55715 17.6841 2.45164C17.5962 2.35199 17.5082 2.25235 17.4144 2.1527C17.3675 2.10581 17.3148 2.05305 17.262 2.00616C16.9983 1.80101 16.7228 1.60757 16.4473 1.43173C16.4063 1.40827 16.3711 1.3907 16.3301 1.37311C16.1366 1.25002 15.9549 1.18551 15.7732 1.12689Z" fill="#E0234E"/>
</g>
<defs>
<clipPath id="clip0_218_2">
<rect width="24" height="24" fill="white"/>
</clipPath>
</defs>
</svg>
