<svg width="24" height="24" viewBox="0 0 24 24" fill="currentColor" xmlns="http://www.w3.org/2000/svg">
<g clip-path="url(#clip0_177_1069)">
<path d="M11.2157 0.0189037C11.1641 0.0235907 11.0001 0.0399954 10.8525 0.051713C7.44732 0.358714 4.25779 2.19604 2.23767 5.01998C1.11278 6.59014 0.393322 8.37121 0.121474 10.2577C0.0253895 10.9163 0.0136719 11.1108 0.0136719 12.0037C0.0136719 12.8966 0.0253895 13.0911 0.121474 13.7496C0.772973 18.2515 3.97657 22.0339 8.32145 23.4354C9.0995 23.6861 9.91974 23.8572 10.8525 23.9603C11.2157 24.0002 12.7859 24.0002 13.1491 23.9603C14.7591 23.7822 16.123 23.3838 17.4682 22.6972C17.6744 22.5917 17.7143 22.5636 17.6862 22.5401C17.6674 22.5261 16.7886 21.3473 15.734 19.9224L13.817 17.3328L11.4149 13.7777C10.0932 11.8232 9.00576 10.2249 8.99639 10.2249C8.98701 10.2226 8.97764 11.8021 8.97295 13.7308C8.96592 17.1079 8.96358 17.2438 8.9214 17.3235C8.86046 17.4383 8.81359 17.4852 8.71517 17.5367C8.64017 17.5742 8.57455 17.5813 8.22068 17.5813H7.81525L7.70745 17.5133C7.63715 17.4688 7.58559 17.4102 7.55044 17.3422L7.50122 17.2368L7.50591 12.538L7.51294 7.83689L7.58559 7.74549C7.62309 7.69628 7.70276 7.633 7.75901 7.60254C7.85509 7.55567 7.89259 7.55098 8.29802 7.55098C8.7761 7.55098 8.85578 7.56973 8.97998 7.70565C9.01514 7.74315 10.3158 9.70233 11.8719 12.0623C13.428 14.4222 15.5559 17.6445 16.6011 19.2264L18.4994 22.1019L18.5955 22.0386C19.4461 21.4856 20.3461 20.6981 21.0585 19.8779C22.5747 18.1367 23.552 16.0134 23.8801 13.7496C23.9762 13.0911 23.9879 12.8966 23.9879 12.0037C23.9879 11.1108 23.9762 10.9163 23.8801 10.2577C23.2286 5.75584 20.025 1.9734 15.6801 0.571975C14.9138 0.323561 14.0982 0.152484 13.1843 0.0493694C12.9593 0.0259342 11.4102 0.000155499 11.2157 0.0189037ZM16.123 7.26976C16.2355 7.326 16.3269 7.4338 16.3597 7.54629C16.3785 7.60722 16.3832 8.91022 16.3785 11.8467L16.3714 16.0603L15.6286 14.9214L14.8833 13.7824V10.7194C14.8833 8.73915 14.8927 7.62597 14.9067 7.57207C14.9442 7.44083 15.0263 7.33772 15.1388 7.27679C15.2348 7.22757 15.27 7.22289 15.6379 7.22289C15.9848 7.22289 16.0457 7.22757 16.123 7.26976Z" fill="black"/>
<path d="M18.3808 22.1535C18.2988 22.205 18.273 22.2402 18.3457 22.2003C18.3972 22.1699 18.4816 22.1066 18.4676 22.1042C18.4605 22.1042 18.4207 22.1277 18.3808 22.1535ZM18.2191 22.2589C18.177 22.2917 18.177 22.2941 18.2285 22.2683C18.2566 22.2542 18.2801 22.2378 18.2801 22.2331C18.2801 22.2144 18.2684 22.2191 18.2191 22.2589ZM18.102 22.3292C18.0598 22.362 18.0598 22.3644 18.1113 22.3386C18.1395 22.3245 18.1629 22.3081 18.1629 22.3034C18.1629 22.2847 18.1512 22.2894 18.102 22.3292ZM17.9848 22.3995C17.9426 22.4323 17.9426 22.4347 17.9942 22.4089C18.0223 22.3948 18.0457 22.3784 18.0457 22.3738C18.0457 22.355 18.034 22.3597 17.9848 22.3995ZM17.8067 22.4933C17.7176 22.5401 17.7223 22.5589 17.8114 22.5144C17.8512 22.4933 17.8817 22.4722 17.8817 22.4675C17.8817 22.4511 17.8793 22.4534 17.8067 22.4933Z" fill="black"/>
</g>
<defs>
<clipPath id="clip0_177_1069">
<rect width="24" height="24" fill="white"/>
</clipPath>
</defs>
</svg>
