<svg width="24" height="24" viewBox="0 0 24 24" fill="none" xmlns="http://www.w3.org/2000/svg">
<g clip-path="url(#clip0_177_968)">
<mask id="mask0_177_968" style="mask-type:luminance" maskUnits="userSpaceOnUse" x="0" y="0" width="25" height="25">
<path d="M0.00976562 0.00927734H24.0098V24.0093H0.00976562V0.00927734Z" fill="white"/>
</mask>
<g mask="url(#mask0_177_968)">
<path d="M17.9208 22.2936C17.7755 23.3905 16.7021 24.2436 15.638 23.9483C14.1193 23.5311 12.3615 22.8795 10.7818 22.7577L8.35834 22.5702C7.96751 22.543 7.60039 22.3728 7.32709 22.092L3.15522 17.7936C2.93143 17.5647 2.78178 17.2736 2.72576 16.9584C2.66974 16.6432 2.70995 16.3184 2.84115 16.0264C2.84115 16.0264 5.41928 10.3545 5.51771 10.0592C5.61146 9.76392 5.96771 7.19048 6.17396 5.81236C6.23021 5.44204 6.40834 5.10923 6.68959 4.86079L11.6255 0.417044C11.7883 0.270852 11.9793 0.159626 12.1868 0.0902507C12.3943 0.0208758 12.6138 -0.00517037 12.8317 0.0137247C13.0497 0.0326198 13.2614 0.0960539 13.4539 0.200099C13.6463 0.304145 13.8154 0.446587 13.9505 0.618606L18.0943 5.88736C18.3247 6.18895 18.4499 6.5578 18.4505 6.93736C18.4505 7.93579 18.5349 9.98423 19.088 11.3061C19.6271 12.5858 20.6115 13.978 21.1271 14.6577C21.2252 14.7848 21.2834 14.9382 21.2942 15.0984C21.3051 15.2586 21.2681 15.4185 21.188 15.5577C20.519 16.6802 19.8188 17.7837 19.088 18.867C18.3849 19.9124 18.0615 21.2061 17.9162 22.2936H17.9208Z" fill="#6C31E3"/>
<path d="M7.77662 22.4202C9.71724 18.4827 9.66099 15.6608 8.83599 13.6545C8.07662 11.7983 6.66568 10.6311 5.55474 9.90454C5.52662 10.0124 5.49381 10.1108 5.45162 10.2092L2.84068 16.0311C2.70889 16.3227 2.66792 16.6472 2.7231 16.9624C2.77827 17.2775 2.92705 17.5688 3.15006 17.7983L7.32662 22.0967C7.4562 22.2317 7.60852 22.3427 7.77662 22.4249V22.4202Z" fill="url(#paint0_radial_177_968)"/>
<path d="M13.0498 14.428C13.5748 14.4843 14.0905 14.5968 14.5873 14.7843C16.1811 15.3796 17.6342 16.7155 18.8295 19.2983C18.9139 19.153 18.9983 19.0077 19.092 18.8671C19.8219 17.7832 20.5222 16.6797 21.192 15.5577C21.274 15.4191 21.312 15.2589 21.3012 15.0982C21.2903 14.9376 21.231 14.784 21.1311 14.6577C20.6155 13.9733 19.6311 12.5858 19.092 11.3061C18.5389 9.98425 18.4592 7.93113 18.4545 6.93738C18.4545 6.55769 18.3326 6.18738 18.0983 5.88738L13.9498 0.618628C13.9273 0.591291 13.9038 0.564714 13.8795 0.53894C14.1525 1.35631 14.185 2.23487 13.9733 3.07019C13.7724 3.74465 13.4957 4.39413 13.1483 5.00613L12.8108 5.67175C12.2697 6.70197 11.9593 7.83765 11.9014 8.99988C11.8451 10.378 12.1264 12.1124 13.0498 14.428Z" fill="url(#paint1_radial_177_968)"/>
<path d="M13.0508 14.428C12.1273 12.1124 11.8414 10.378 11.9023 8.9952C11.9603 7.83297 12.2706 6.69729 12.8117 5.66707C12.9195 5.44207 13.0367 5.22176 13.1492 5.00614C13.482 4.35457 13.8055 3.74051 13.9742 3.06551C14.186 2.23019 14.1534 1.35163 13.8805 0.534261C13.5961 0.220863 13.199 0.0330259 12.7764 0.0119367C12.3537 -0.00915246 11.9399 0.138228 11.6258 0.421761L6.68516 4.86551C6.4096 5.11381 6.22896 5.45021 6.17422 5.81707L5.57422 9.80145L5.55078 9.90926C6.66641 10.6358 8.08203 11.803 8.83672 13.6593C8.99269 14.0352 9.11504 14.4242 9.20234 14.8218C10.5148 14.503 11.8133 14.3061 13.0508 14.4327V14.428Z" fill="url(#paint2_radial_177_968)"/>
<path d="M15.6383 23.953C16.7023 24.2436 17.7758 23.3905 17.9211 22.2936C18.042 21.2487 18.3501 20.2341 18.8305 19.2983C17.6305 16.7201 16.182 15.3795 14.593 14.7842C12.9055 14.1561 11.068 14.3623 9.20234 14.817C9.61953 16.7108 9.37109 19.1905 7.77734 22.4201C7.96484 22.5045 8.15703 22.5608 8.36328 22.5748C8.36328 22.5748 9.50703 22.6686 10.8758 22.767C12.2352 22.8608 14.2695 23.5686 15.6383 23.9483V23.953Z" fill="url(#paint3_radial_177_968)"/>
<path fill-rule="evenodd" clip-rule="evenodd" d="M11.9117 8.90613C11.8508 10.2749 12.0242 11.8499 12.9476 14.1608L12.657 14.1374C11.8273 11.7233 11.6492 10.4811 11.7101 9.09363C11.7814 7.91276 12.1076 6.76135 12.6664 5.71863C12.7789 5.48894 13.0414 5.05769 13.1586 4.83738C13.4914 4.19519 13.7164 3.853 13.9086 3.26238C14.1758 2.44207 14.1195 2.04832 14.0867 1.66394C14.3023 3.0655 13.4914 4.28894 12.882 5.52644C12.3216 6.56938 11.9908 7.72012 11.9117 8.90144V8.90613Z" fill="url(#paint4_radial_177_968)"/>
<path fill-rule="evenodd" clip-rule="evenodd" d="M9.10781 13.753C9.22031 14.0061 9.32344 14.2124 9.38906 14.5264L9.14062 14.578C9.04219 14.2124 8.9625 13.9499 8.82187 13.6405C7.9875 11.6718 6.65156 10.6593 5.55469 9.91394C6.87656 10.6264 8.23594 11.7421 9.10312 13.753H9.10781Z" fill="url(#paint5_radial_177_968)"/>
<path fill-rule="evenodd" clip-rule="evenodd" d="M9.40313 14.7702C9.8625 16.9265 9.34688 19.6546 7.82812 22.3124C9.09844 19.678 9.7125 17.1515 9.20156 14.8124L9.40313 14.7702Z" fill="url(#paint6_radial_177_968)"/>
<path fill-rule="evenodd" clip-rule="evenodd" d="M14.6488 14.578C17.1379 15.5108 18.0988 17.5593 18.816 19.2655C17.9254 17.4796 16.6973 15.5015 14.5598 14.7655C12.9285 14.2124 11.5551 14.278 9.20195 14.8124L9.15039 14.578C11.6441 14.0108 12.9473 13.9452 14.6488 14.578Z" fill="url(#paint7_radial_177_968)"/>
</g>
</g>
<defs>
<radialGradient id="paint0_radial_177_968" cx="0" cy="0" r="1" gradientUnits="userSpaceOnUse" gradientTransform="translate(7.56568 22.0311) rotate(-104.693) scale(10.9035 7.265)">
<stop stop-color="white" stop-opacity="0.4"/>
<stop offset="1" stop-opacity="0.1"/>
</radialGradient>
<radialGradient id="paint1_radial_177_968" cx="0" cy="0" r="1" gradientUnits="userSpaceOnUse" gradientTransform="translate(16.8748 17.5405) rotate(-82.4846) scale(17.9196 13.2391)">
<stop stop-color="white" stop-opacity="0.6"/>
<stop offset="1" stop-color="white" stop-opacity="0.1"/>
</radialGradient>
<radialGradient id="paint2_radial_177_968" cx="0" cy="0" r="1" gradientUnits="userSpaceOnUse" gradientTransform="translate(8.22266 14.3905) rotate(-77.7949) scale(15.2989 10.4535)">
<stop stop-color="white" stop-opacity="0.8"/>
<stop offset="1" stop-color="white" stop-opacity="0.4"/>
</radialGradient>
<radialGradient id="paint3_radial_177_968" cx="0" cy="0" r="1" gradientUnits="userSpaceOnUse" gradientTransform="translate(15.718 24.0092) rotate(-120.496) scale(8.86731 10.1935)">
<stop stop-color="white" stop-opacity="0.3"/>
<stop offset="1" stop-opacity="0.3"/>
</radialGradient>
<radialGradient id="paint4_radial_177_968" cx="0" cy="0" r="1" gradientUnits="userSpaceOnUse" gradientTransform="translate(14.532 6.00925) rotate(102.236) scale(7.96213 5.36917)">
<stop stop-color="white" stop-opacity="0"/>
<stop offset="1" stop-color="white" stop-opacity="0.2"/>
</radialGradient>
<radialGradient id="paint5_radial_177_968" cx="0" cy="0" r="1" gradientUnits="userSpaceOnUse" gradientTransform="translate(5.20312 10.3218) rotate(45.3237) scale(5.86687 12.4963)">
<stop stop-color="white" stop-opacity="0.2"/>
<stop offset="1" stop-color="white" stop-opacity="0.4"/>
</radialGradient>
<radialGradient id="paint6_radial_177_968" cx="0" cy="0" r="1" gradientUnits="userSpaceOnUse" gradientTransform="translate(10.0781 13.3124) rotate(86.0397) scale(6.10834 12.9714)">
<stop stop-color="white" stop-opacity="0.2"/>
<stop offset="1" stop-color="white" stop-opacity="0.3"/>
</radialGradient>
<radialGradient id="paint7_radial_177_968" cx="0" cy="0" r="1" gradientUnits="userSpaceOnUse" gradientTransform="translate(18.7504 18.7124) rotate(-152.289) scale(10.4837 32.9814)">
<stop stop-color="white" stop-opacity="0.2"/>
<stop offset="0.5" stop-color="white" stop-opacity="0.2"/>
<stop offset="1" stop-color="white" stop-opacity="0.3"/>
</radialGradient>
<clipPath id="clip0_177_968">
<rect width="24" height="24" fill="white"/>
</clipPath>
</defs>
</svg>
