<svg width="24" height="24" viewBox="0 0 24 24" fill="currentColor" xmlns="http://www.w3.org/2000/svg">
<g clip-path="url(#clip0_177_1001)">
<path d="M23.0842 11.2761C23.0385 11.2761 22.9928 11.2761 22.9473 11.2761L18.887 3.88547C18.9783 3.74862 18.9783 3.61175 18.9783 3.42927C18.9783 2.88181 18.522 2.47123 18.0203 2.47123C17.7465 2.47123 17.4727 2.60809 17.3359 2.79058L9.30664 1.14823C9.26102 0.646399 8.85043 0.281433 8.34861 0.281433C7.80115 0.281433 7.39057 0.737641 7.39057 1.23947C7.39057 1.42195 7.43619 1.55881 7.48181 1.69568L1.23176 10.683C1.14052 10.683 1.04928 10.6373 0.958041 10.6373C0.410587 10.6373 0 11.0935 0 11.5954C0 12.1429 0.456208 12.5534 0.958041 12.5534H1.00366L4.3796 20.902C4.33398 21.0389 4.28836 21.1758 4.28836 21.3127C4.28836 21.8601 4.74457 22.2707 5.24639 22.2707C5.52011 22.2707 5.79384 22.1338 5.9307 21.9513L16.0585 22.955C16.1497 23.3656 16.5604 23.6849 17.0166 23.6849C17.564 23.6849 17.9746 23.2287 17.9746 22.7269C17.9746 22.4988 17.8834 22.2707 17.7465 22.0882L22.8561 13.1921C22.9016 13.1921 22.9473 13.1921 23.0385 13.1921C23.5859 13.1921 23.9965 12.7359 23.9965 12.2341C24.0422 11.7322 23.6316 11.2761 23.0842 11.2761ZM17.2447 4.02234C17.3815 4.15921 17.5184 4.29606 17.7008 4.34168L16.1497 15.9293C16.0585 15.9293 15.9673 15.975 15.876 16.0207L7.43619 8.72128C7.43619 8.63004 7.48181 8.53879 7.48181 8.44756C7.48181 8.40194 7.48181 8.31069 7.48181 8.26507L17.2447 4.02234ZM22.1261 12.5534L16.9253 16.1119C16.8797 16.0662 16.834 16.0662 16.7885 16.0207L18.3852 4.34168L22.3542 11.641C22.2173 11.8235 22.1261 12.0516 22.1261 12.2797C22.0805 12.371 22.1261 12.4622 22.1261 12.5534ZM6.38692 7.48951C5.9307 7.58076 5.56574 7.94573 5.56574 8.44756V8.49317L2.09856 10.5461L7.48181 2.8362L6.38692 7.48951ZM6.75187 9.4056C6.88874 9.35997 7.02561 9.31435 7.11684 9.26873L15.4655 16.5224C15.4198 16.6137 15.4198 16.7505 15.4198 16.8874V16.933L6.06757 20.7652C5.9307 20.5827 5.7026 20.4002 5.47449 20.3546L6.75187 9.4056ZM15.6479 17.5261C15.7848 17.663 15.9673 17.7542 16.1497 17.7998L16.6059 21.8601C16.4235 21.9513 16.241 22.1338 16.1497 22.3162L6.34129 21.3582L15.6479 17.5261ZM16.834 17.7542C17.1534 17.6173 17.3815 17.2523 17.3815 16.8874C17.3815 16.7962 17.3815 16.7049 17.3359 16.6593L22.0805 13.4202L17.2903 21.7232L16.834 17.7542ZM17.0622 3.38365L7.16246 7.71763C7.11684 7.672 7.07123 7.672 7.07123 7.62638L8.34861 2.24312H8.39423C8.75919 2.24312 9.03292 2.06065 9.2154 1.78692L17.0622 3.38365ZM1.96169 11.5954C1.96169 11.5498 1.96169 11.4585 1.96169 11.4129L5.88508 9.08625C5.97633 9.17748 6.06757 9.22311 6.1588 9.26873L4.88142 20.2177L1.68797 12.3253C1.82483 12.1429 1.96169 11.9148 1.96169 11.5954Z" fill="#343433"/>
<path d="M18.3851 4.34161L22.3541 11.641C22.2172 11.8234 22.126 12.0516 22.126 12.2797C22.126 12.3709 22.126 12.4621 22.1715 12.5533L16.9708 16.1118C16.9252 16.0661 16.8795 16.0661 16.834 16.0206L18.3851 4.34161Z" fill="#DFE0E0"/>
<path d="M16.834 17.7541C17.1533 17.6173 17.3814 17.2523 17.3814 16.8873C17.3814 16.7961 17.3814 16.7049 17.3357 16.6592L22.0803 13.4202L17.2902 21.7231L16.834 17.7541Z" fill="#B3B3B3"/>
<path d="M15.6484 17.5261C15.7853 17.663 15.9678 17.7542 16.1503 17.7999L16.6064 21.8601C16.424 21.9513 16.2415 22.1338 16.1503 22.3163L6.3418 21.3582L15.6484 17.5261Z" fill="#D2D2D2"/>
<path d="M6.75199 9.40566C6.88885 9.36005 7.02571 9.31442 7.11695 9.2688L15.4656 16.5225C15.4199 16.6138 15.4199 16.7506 15.4199 16.8874V16.9331L6.06767 20.7652C5.93082 20.5828 5.70271 20.4003 5.47461 20.3547L6.75199 9.40566Z" fill="#F5F6F7"/>
<path d="M1.96122 11.5954C1.96122 11.5498 1.96122 11.4585 1.96122 11.4129L5.88461 9.08624C5.97585 9.17748 6.0671 9.2231 6.15833 9.26873L4.88095 20.2177L1.6875 12.3253C1.82436 12.1429 1.96122 11.9148 1.96122 11.5954Z" fill="#D9D9D9"/>
<path d="M6.38602 7.48945C5.9298 7.58069 5.56484 7.94565 5.56484 8.44748V8.4931L2.09766 10.5461L7.48091 2.83612L6.38602 7.48945Z" fill="#B3B3B3"/>
<path d="M17.0613 3.38365L7.16155 7.71763C7.11593 7.67201 7.07031 7.67201 7.07031 7.62639L8.34769 2.24313H8.39331C8.75828 2.24313 9.032 2.06065 9.21449 1.78693L17.0613 3.38365Z" fill="#D2D2D2"/>
<path d="M17.244 4.02228C17.3809 4.15913 17.5177 4.296 17.7002 4.34162L16.1491 15.9293C16.0579 15.9293 15.9666 15.9749 15.8754 16.0206L7.43555 8.72122C7.43555 8.62998 7.48117 8.53873 7.48117 8.44749C7.48117 8.40188 7.48117 8.31063 7.48117 8.26501L17.244 4.02228Z" fill="white"/>
</g>
<defs>
<clipPath id="clip0_177_1001">
<rect width="24" height="24" fill="white"/>
</clipPath>
</defs>
</svg>
