<svg width="24" height="24" viewBox="0 0 24 24" fill="currentColor" xmlns="http://www.w3.org/2000/svg">
<path fill-rule="evenodd" clip-rule="evenodd" d="M5.73458 2.00018L11.4296 7.24718V7.24618V2.01218H12.5381V7.27068L18.2591 2.00018V7.98268H20.6076V16.6117H18.2661V21.9387L12.5386 16.9067V21.9967H11.4301V16.9897L5.74108 22.0002V16.6122H3.39258V7.98268H5.73508V2.00018H5.73458ZM10.5941 9.07768H4.50108V15.5167H5.73958V13.4857L10.5941 9.07768ZM6.84958 13.9717V19.5567L11.4296 15.5227V9.81168L6.84958 13.9717ZM12.5706 15.4692V9.80618L17.1521 13.9667V16.6122H17.1581V19.4997L12.5706 15.4692ZM18.2661 15.5167H19.4991V9.07768H13.4516L18.2661 13.4402V15.5167ZM17.1506 7.98268V4.51918L13.3911 7.98268H17.1506ZM10.6026 7.98268H6.84308V4.51918L10.6026 7.98268Z" fill="url(#paint0_linear_178_2)"/>
<defs>
<linearGradient id="paint0_linear_178_2" x1="5.29308" y1="0.805183" x2="18.0271" y2="22.0607" gradientUnits="userSpaceOnUse">
<stop offset="0.002" stop-color="#9C55D4"/>
<stop offset="0.003" stop-color="#20808D"/>
<stop offset="0.373" stop-color="#218F9B"/>
<stop offset="1" stop-color="#22B1BC"/>
</linearGradient>
</defs>
</svg>
