<svg width="24" height="24" viewBox="0 0 24 24" fill="none" xmlns="http://www.w3.org/2000/svg">
<g clip-path="url(#clip0_218_19)">
<path d="M11.9861 0.00115263C7.04497 0.00115263 3.04027 4.00674 3.04027 8.94698C3.04027 9.04326 3.03755 8.8507 3.04027 8.94698L3.04663 21.0074C3.09477 22.6678 4.45541 23.9993 6.12759 23.9993C7.79977 23.9993 9.17312 22.6678 9.22126 21.0074V17.8347H11.9852C16.9264 17.8347 20.932 13.8872 20.932 8.94608C20.932 4.00492 16.9264 0.000244141 11.9861 0.000244141V0.00115263ZM9.22307 11.6592V8.94698C9.22307 7.42649 10.4656 6.19393 11.9861 6.19393C13.5066 6.19393 14.7392 7.42649 14.7392 8.94698C14.7392 10.4675 13.5066 11.6592 11.9861 11.6592L9.22126 11.661L9.22307 11.6592Z" fill="#E72264"/>
<path opacity="0.15" d="M6.05217 17.8356H9.2185V21.0083H9.20397C9.15583 22.6686 7.7961 24.0002 6.12483 24.0002C4.45356 24.0002 3.09292 22.6686 3.04479 21.0083H3.04388V20.9683C3.04388 20.952 3.04297 20.9347 3.04297 20.9183C3.04297 20.902 3.04388 20.8856 3.04388 20.8693V20.6459C3.13834 19.1608 4.54076 17.8365 6.05126 17.8365L6.05217 17.8356Z" fill="#1D1D1B"/>
<g opacity="0.75">
<g opacity="0.05">
<path opacity="0.5" d="M3.04883 14.0198V17.8347C3.04883 14.474 5.87274 11.7082 9.22437 11.6619V10.4457C6.732 10.7082 4.52664 12.0488 3.04883 14.0207V14.0198Z" fill="black"/>
<path d="M3.05273 20.7049C3.78028 20.1709 4.66315 19.8566 5.61687 19.8566H9.22463V17.8347H6.13369C4.50056 17.8347 3.16627 19.1018 3.05273 20.7049Z" fill="black"/>
</g>
<g opacity="0.05">
<path opacity="0.5" d="M9.22632 11.6619V10.5565C6.71397 10.8027 4.4968 12.1733 3.05078 14.1861V17.8347C3.05078 14.474 5.8747 11.7082 9.22632 11.6619Z" fill="black"/>
<path d="M6.13555 17.8347C4.54694 17.8347 3.23989 19.0337 3.06641 20.5769C3.79305 20.0092 4.69136 19.6731 5.66596 19.6731H9.2265V17.8347H6.13555Z" fill="black"/>
</g>
<g opacity="0.05">
<path opacity="0.5" d="M9.22632 11.6619V10.6682C6.69126 10.898 4.46047 12.3022 3.05078 14.3595V17.8347C3.05078 14.474 5.8747 11.7082 9.22632 11.6619Z" fill="black"/>
<path d="M6.13588 17.8347C4.59177 17.8347 3.31378 18.9674 3.08398 20.447C3.80699 19.8475 4.71984 19.4887 5.71352 19.4887H9.22683V17.8347H6.13588Z" fill="black"/>
</g>
<g opacity="0.05">
<path opacity="0.5" d="M9.22632 11.6619V10.7799C6.66492 10.9915 4.41869 12.4339 3.05078 14.5421V17.8356C3.05078 14.4749 5.8747 11.7091 9.22632 11.6628V11.6619Z" fill="black"/>
<path d="M6.13557 17.8347C4.63596 17.8347 3.38613 18.9038 3.10547 20.3207C3.82212 19.6876 4.74768 19.3053 5.75953 19.3053H9.22561V17.8347H6.13466H6.13557Z" fill="black"/>
</g>
<g opacity="0.05">
<path opacity="0.5" d="M9.22632 11.6619V10.8926C6.63494 11.0851 4.37146 12.572 3.05078 14.7356V17.8356C3.05078 14.4749 5.8747 11.7091 9.22632 11.6628V11.6619Z" fill="black"/>
<path d="M6.13475 17.8348C4.67965 17.8348 3.46162 18.8403 3.13281 20.1936C3.84038 19.5278 4.77684 19.1209 5.80594 19.1209H9.22569V17.8339H6.13475V17.8348Z" fill="black"/>
</g>
<g opacity="0.05">
<path opacity="0.5" d="M9.22632 11.6619V11.0052C6.60134 11.1769 4.31605 12.7156 3.05078 14.9409V17.8348C3.05078 14.474 5.8747 11.7083 9.22632 11.6619Z" fill="black"/>
<path d="M6.13539 17.8347C4.72661 17.8347 3.53946 18.7775 3.16797 20.0664C3.86282 19.3679 4.80927 18.9374 5.85381 18.9374H9.22633V17.8347H6.13539Z" fill="black"/>
</g>
<g opacity="0.05">
<path opacity="0.5" d="M9.22632 11.6619V11.1188C6.56046 11.2686 4.24975 12.8682 3.05078 15.1662V17.8347C3.05078 14.474 5.8747 11.7083 9.22632 11.6619Z" fill="black"/>
<path d="M6.13449 17.8347C4.77295 17.8347 3.61849 18.7158 3.20703 19.9392C3.88645 19.209 4.84107 18.7539 5.90015 18.7539H9.22544V17.8347H6.13449Z" fill="black"/>
</g>
<g opacity="0.05">
<path opacity="0.5" d="M9.22632 11.6619V11.2332C6.51141 11.3585 4.16891 13.0334 3.05078 15.4159V17.8347C3.05078 14.474 5.8747 11.7082 9.22632 11.6619Z" fill="black"/>
<path d="M6.13491 17.8347C4.81969 17.8347 3.69793 18.6567 3.25195 19.8148C3.9123 19.0518 4.87419 18.5704 5.94689 18.5704H9.22494V17.8347H6.134H6.13491Z" fill="black"/>
</g>
<g opacity="0.05">
<path opacity="0.5" d="M9.22632 11.6619V11.3495C6.44965 11.4494 4.06718 13.2188 3.05078 15.7057V17.8348C3.05078 14.474 5.8747 11.7083 9.22632 11.6619Z" fill="black"/>
<path d="M6.13481 17.8347C4.86774 17.8347 3.77959 18.5986 3.30273 19.6904C3.93945 18.8947 4.9077 18.387 5.99312 18.387H9.22485V17.8356H6.13391L6.13481 17.8347Z" fill="black"/>
</g>
</g>
</g>
<defs>
<clipPath id="clip0_218_19">
<rect width="24" height="24" fill="white" transform="translate(0 0.000244141)"/>
</clipPath>
</defs>
</svg>
