<svg width="24" height="24" viewBox="0 0 24 24" fill="none" xmlns="http://www.w3.org/2000/svg">
<g clip-path="url(#clip0_218_11)">
<path fill-rule="evenodd" clip-rule="evenodd" d="M21.4946 18.2623L13.3313 0.926283C13.2299 0.712932 13.0726 0.530974 12.8763 0.399669C12.6799 0.268364 12.4516 0.192597 12.2157 0.180389C11.9794 0.164554 11.7432 0.213823 11.5329 0.322839C11.3227 0.431855 11.1463 0.596443 11.023 0.798704L2.169 15.1392C2.03436 15.3558 1.96424 15.6062 1.96687 15.8612C1.9695 16.1161 2.04476 16.3651 2.18383 16.5788L6.51263 23.2824C6.6764 23.534 6.91713 23.7259 7.19892 23.8296C7.48071 23.9332 7.78844 23.9429 8.07622 23.8574L20.6383 20.1415C20.8275 20.0862 21.0026 19.991 21.1517 19.8622C21.3009 19.7334 21.4206 19.5741 21.5029 19.395C21.5841 19.2169 21.6254 19.0232 21.6241 18.8275C21.6227 18.6318 21.5788 18.4387 21.4952 18.2617L21.4946 18.2623ZM19.667 19.0058L9.00726 22.1579C8.68208 22.2546 8.36995 21.9727 8.4376 21.6446L12.246 3.40904C12.3172 3.06784 12.7884 3.01384 12.9373 3.32952L19.9874 18.3008C20.0186 18.3675 20.0349 18.4402 20.0353 18.5139C20.0356 18.5875 20.02 18.6603 19.9895 18.7273C19.959 18.7944 19.9143 18.854 19.8585 18.902C19.8027 18.9501 19.7378 18.9855 19.667 19.0058Z" fill="white"/>
</g>
<defs>
<clipPath id="clip0_218_11">
<rect width="24" height="24" fill="white" transform="translate(0 0.000244141)"/>
</clipPath>
</defs>
</svg>
