<svg width="24" height="24" viewBox="0 0 24 24" fill="currentColor" xmlns="http://www.w3.org/2000/svg">
<g clip-path="url(#clip0_177_995)">
<path d="M11.8499 0.000346935C11.033 0.00414258 10.2529 0.0738107 9.56651 0.195271C7.54443 0.552505 7.1773 1.30023 7.1773 2.67916V4.5003H11.9557V5.10735H7.1773H5.38401C3.99527 5.10735 2.77924 5.94206 2.39889 7.52997C1.96015 9.35008 1.94069 10.4859 2.39889 12.3864C2.73856 13.801 3.54973 14.809 4.93847 14.809H6.58139V12.6258C6.58139 11.0486 7.94602 9.65742 9.56651 9.65742H14.3394C15.6679 9.65742 16.7286 8.5635 16.7286 7.22923V2.67916C16.7286 1.38418 15.6361 0.411397 14.3394 0.195271C13.5185 0.058628 12.6668 -0.00344876 11.8499 0.000346935ZM9.26577 1.46506C9.75935 1.46506 10.1624 1.87471 10.1624 2.37842C10.1624 2.88033 9.75935 3.2862 9.26577 3.2862C8.77042 3.2862 8.36912 2.88033 8.36912 2.37842C8.36912 1.87471 8.77042 1.46506 9.26577 1.46506Z" fill="url(#paint0_linear_177_995)"/>
<path d="M17.3249 5.10736V7.22924C17.3249 8.87431 15.9302 10.2589 14.3398 10.2589H9.56694C8.25958 10.2589 7.17773 11.3778 7.17773 12.6871V17.2372C7.17773 18.5322 8.30381 19.2939 9.56694 19.6654C11.0795 20.1101 12.53 20.1905 14.3398 19.6654C15.5428 19.3171 16.729 18.6161 16.729 17.2372V15.416H11.9561V14.809H16.729H19.1182C20.5069 14.809 21.0244 13.8403 21.5074 12.3864C22.0063 10.8896 21.9851 9.45012 21.5074 7.52998C21.1642 6.14748 20.5087 5.10736 19.1182 5.10736H17.3249ZM14.6405 16.6301C15.1359 16.6301 15.5372 17.036 15.5372 17.5379C15.5372 18.0416 15.1359 18.4513 14.6405 18.4513C14.1469 18.4513 13.7439 18.0416 13.7439 17.5379C13.7439 17.036 14.1469 16.6301 14.6405 16.6301Z" fill="url(#paint1_linear_177_995)"/>
<path opacity="0.44382" d="M12.0109 24.0001C15.5474 24.0001 18.4144 23.4442 18.4144 22.7584C18.4144 22.0726 15.5474 21.5167 12.0109 21.5167C8.47435 21.5167 5.60742 22.0726 5.60742 22.7584C5.60742 23.4442 8.47435 24.0001 12.0109 24.0001Z" fill="url(#paint2_radial_177_995)"/>
</g>
<defs>
<linearGradient id="paint0_linear_177_995" x1="2.0625" y1="0.000183054" x2="13.081" y2="9.38947" gradientUnits="userSpaceOnUse">
<stop stop-color="#5A9FD4"/>
<stop offset="1" stop-color="#306998"/>
</linearGradient>
<linearGradient id="paint1_linear_177_995" x1="14.5257" y1="17.3848" x2="10.5727" y2="11.8455" gradientUnits="userSpaceOnUse">
<stop stop-color="#FFD43B"/>
<stop offset="1" stop-color="#FFE873"/>
</linearGradient>
<radialGradient id="paint2_radial_177_995" cx="0" cy="0" r="1" gradientUnits="userSpaceOnUse" gradientTransform="translate(12.0109 22.7584) rotate(-90) scale(1.24169 5.45774)">
<stop stop-color="#B8B8B8" stop-opacity="0.498039"/>
<stop offset="1" stop-color="#7F7F7F" stop-opacity="0"/>
</radialGradient>
<clipPath id="clip0_177_995">
<rect width="24" height="24" fill="white"/>
</clipPath>
</defs>
</svg>
