<svg width="24" height="24" viewBox="0 0 24 24" fill="none" xmlns="http://www.w3.org/2000/svg">
<path d="M18.9736 7.01742L17.1917 8.79927C20.1175 11.725 20.1175 16.4326 17.1917 19.3144C14.266 22.2402 9.55838 22.2402 6.67662 19.3144C3.75086 16.3886 3.75086 11.681 6.67662 8.79927L11.3182 4.15766L11.9782 3.49771V0L4.98276 6.99543C1.08908 10.8891 1.08908 17.1806 4.98276 21.0743C8.87643 24.9679 15.1679 24.9679 18.9956 21.0743C22.8673 17.1806 22.8673 10.9331 18.9736 7.01742Z" fill="#EE4C2C"/>
<path d="M15.4756 6.59943C16.1924 6.59943 16.7735 6.01837 16.7735 5.30156C16.7735 4.58475 16.1924 4.00366 15.4756 4.00366C14.7588 4.00366 14.1777 4.58475 14.1777 5.30156C14.1777 6.01837 14.7588 6.59943 15.4756 6.59943Z" fill="#EE4C2C"/>
</svg>
