<svg width="24" height="24" viewBox="0 0 24 24" fill="none" xmlns="http://www.w3.org/2000/svg">
<path d="M8.04912 0.000339124C7.92781 0.00408189 7.79718 0.0489216 7.64894 0.165828C7.28604 0.025878 6.93392 -0.0227779 6.61916 0.262186C6.13312 0.199146 5.97519 0.329262 5.85549 0.481174C5.74879 0.478972 5.05711 0.37146 4.73986 0.844662C3.94272 0.750359 3.69078 1.31353 3.97626 1.83877C3.81341 2.09078 3.6447 2.33979 4.02543 2.82033C3.89076 3.0879 3.97428 3.37822 4.29153 3.72952C4.20787 4.10578 4.37241 4.37115 4.66764 4.57803C4.61238 5.09284 5.13975 5.39219 5.29716 5.49882C5.35763 5.79876 5.48364 6.08189 6.08593 6.23835C6.1853 6.68543 6.54725 6.76263 6.89782 6.85642C5.73925 7.5299 4.74573 8.4159 4.75248 10.59L4.58273 10.8927C3.25427 11.7006 2.05909 14.2972 3.92812 16.4077C4.05016 17.0683 4.25491 17.5428 4.43721 18.068C4.70984 20.1842 6.48927 21.1751 6.95865 21.2923C7.64637 21.8162 8.37885 22.3132 9.37017 22.6614C10.3045 23.6251 11.3168 23.9924 12.3346 23.9918C12.3496 23.9918 14.4098 23.6252 15.3442 22.6614C16.3354 22.3132 17.0679 21.8162 17.7557 21.2923C18.225 21.1751 20.0044 20.1842 20.277 18.068C20.4593 17.5428 20.6641 17.0683 20.7862 16.4077C22.6551 14.297 21.46 11.7003 20.1316 10.8924L19.9615 10.5897C19.9683 8.41583 18.9748 7.52975 17.8162 6.85613C18.1667 6.76234 18.5288 6.68513 18.628 6.23806C19.2303 6.08152 19.3564 5.79846 19.4168 5.49853C19.5743 5.3919 20.1015 5.09255 20.0464 4.57774C20.3415 4.37086 20.5061 4.10542 20.4224 3.72923C20.7397 3.37793 20.8232 3.0876 20.6885 2.81996C21.0694 2.33971 20.9004 2.09071 20.7377 1.8387C21.0231 1.31346 20.7713 0.750213 19.9739 0.844589C19.6568 0.371386 18.9652 0.478826 18.8582 0.481027C18.7386 0.329188 18.5807 0.199072 18.0946 0.262112C17.7799 -0.0228513 17.4279 0.0257312 17.0648 0.165755C16.6338 -0.174397 16.3486 0.098238 16.0227 0.201347C15.5008 0.0307949 15.3814 0.264387 15.125 0.359571C14.5558 0.239289 14.3828 0.501135 14.11 0.777513L13.7926 0.771201C12.9341 1.27713 12.5076 2.30735 12.3564 2.83699C12.2052 2.30728 11.7796 1.27706 10.9213 0.771201L10.6039 0.777513C10.3307 0.501135 10.1578 0.239289 9.58857 0.359571C9.33208 0.264387 9.21319 0.0307949 8.69082 0.201347C8.47697 0.133684 8.28029 -0.00692624 8.04875 0.000265737L2.15625 10.3476" fill="black"/>
<path d="M6.34067 2.22608C8.61832 3.40035 9.94245 4.35028 10.6679 5.1593C10.2964 6.64826 8.35839 6.71622 7.64976 6.67446C7.79484 6.60695 7.91593 6.526 7.95886 6.40175C7.78105 6.27538 7.15057 6.3884 6.7104 6.14116C6.87948 6.10608 6.95859 6.07195 7.03763 5.94719C6.62182 5.81458 6.17386 5.70024 5.9104 5.48052C6.05255 5.48228 6.18531 5.51237 6.37098 5.38358C5.99854 5.18286 5.60107 5.02376 5.29226 4.71693C5.48482 4.71223 5.69244 4.71502 5.75284 4.6442C5.41195 4.43299 5.12427 4.19815 4.8862 3.94122C5.15568 3.97373 5.26951 3.94577 5.33467 3.8988C5.07694 3.63483 4.7508 3.41195 4.59529 3.08669C4.79535 3.15568 4.97845 3.1821 5.1104 3.08068C5.02285 2.88312 4.64769 2.76658 4.43164 2.3049C4.64234 2.32537 4.86573 2.35084 4.91042 2.3049C4.81267 1.90655 4.6449 1.68257 4.48037 1.45052C4.93119 1.44384 5.61428 1.45228 5.58338 1.41419L5.30458 1.12938C5.74498 1.01078 6.19558 1.14838 6.52274 1.25054C6.66959 1.13466 6.5201 0.988106 6.34089 0.838469C6.71517 0.888446 7.05334 0.974456 7.35907 1.09298C7.52236 0.945541 7.25302 0.798032 7.12269 0.650597C7.70091 0.760238 7.94587 0.914425 8.1893 1.06876C8.36594 0.899454 8.19943 0.755541 8.08025 0.608179C8.51624 0.769631 8.74081 0.978125 8.97719 1.1839C9.05733 1.07573 9.18084 0.996399 9.03172 0.735433C9.34126 0.913838 9.57442 1.12409 9.74688 1.35967C9.93842 1.2377 9.86099 1.07096 9.86202 0.917214C10.1838 1.17891 10.3879 1.45742 10.6378 1.72932C10.6881 1.69263 10.7322 1.56838 10.7711 1.37178C11.5386 2.11629 12.623 3.99171 11.0499 4.73527C9.71106 3.63108 8.1121 2.82844 6.34016 2.22637L6.34067 2.22608ZM18.426 2.22608C16.1486 3.4005 14.8245 4.35013 14.0991 5.1593C14.4706 6.64826 16.4086 6.71622 17.1172 6.67446C16.9721 6.60695 16.851 6.526 16.8081 6.40175C16.986 6.27538 17.6164 6.3884 18.0565 6.14116C17.8875 6.10608 17.8084 6.07195 17.7293 5.94719C18.1452 5.81458 18.5932 5.70024 18.8565 5.48052C18.7144 5.48228 18.5816 5.51237 18.396 5.38358C18.7685 5.18286 19.1659 5.02376 19.4748 4.71693C19.2821 4.71223 19.0745 4.71502 19.0142 4.6442C19.3551 4.43299 19.6427 4.19815 19.8808 3.94122C19.6113 3.97373 19.4975 3.94577 19.4323 3.8988C19.69 3.63483 20.0162 3.41195 20.1717 3.08669C19.9716 3.15568 19.7885 3.1821 19.6565 3.08068C19.7441 2.88312 20.1193 2.76658 20.3353 2.3049C20.1247 2.32537 19.9012 2.35084 19.8565 2.3049C19.9545 1.9064 20.1223 1.68243 20.2868 1.45037C19.836 1.4437 19.1529 1.45214 19.1838 1.41405L19.4626 1.12916C19.0222 1.01064 18.5716 1.14824 18.2444 1.25039C18.0976 1.13451 18.247 0.987959 18.4262 0.838322C18.052 0.888226 17.7137 0.974309 17.4081 1.09283C17.2447 0.945395 17.5141 0.797886 17.6445 0.65045C17.0663 0.760091 16.8213 0.914278 16.5778 1.06861C16.4011 0.899307 16.5677 0.755394 16.6869 0.608032C16.2509 0.769485 16.0264 0.977979 15.79 1.18376C15.7098 1.07558 15.5863 0.996252 15.7354 0.735286C15.4259 0.913691 15.1927 1.12395 15.0203 1.35952C14.8287 1.23755 14.9062 1.07074 14.9051 0.917067C14.5834 1.17877 14.3792 1.4572 14.1294 1.72917C14.079 1.69248 14.035 1.56823 13.996 1.37156C13.2286 2.11615 12.1442 3.99156 13.7173 4.73513C15.0554 3.63064 16.6543 2.82815 18.4263 2.22608H18.426Z" fill="#75A928"/>
<path d="M15.1407 17.3879C15.1486 18.7773 13.9335 19.9096 12.4268 19.9169C10.92 19.9242 9.69211 18.8038 9.68418 17.4144C9.68411 17.4055 9.68411 17.3967 9.68418 17.3879C9.67626 15.9985 10.8913 14.8662 12.3981 14.8589C13.9048 14.8515 15.1327 15.9719 15.1407 17.3614V17.3879ZM10.8338 10.2011C11.9643 10.9418 12.1681 12.6206 11.2889 13.9508C10.4098 15.2811 8.78078 15.7592 7.65032 15.0185C6.51986 14.2778 6.31614 12.599 7.19517 11.2688C8.07428 9.93851 9.70334 9.46047 10.8338 10.2011ZM13.885 10.067C12.7546 10.8076 12.5508 12.4865 13.4298 13.8168C14.3089 15.147 15.938 15.6251 17.0684 14.8844C18.1989 14.1438 18.4027 12.465 17.5236 11.1347C16.6445 9.80444 15.0155 9.32639 13.885 10.067ZM5.18384 11.412C6.40435 11.0848 5.59591 16.4613 4.60283 16.0201C3.51046 15.1415 3.15864 12.5685 5.18384 11.412ZM19.2886 11.345C18.0679 11.0179 18.8765 16.3946 19.8696 15.9534C20.9619 15.0748 21.3138 12.5014 19.2886 11.345ZM15.1416 7.34118C17.2479 6.98555 19.0006 8.23695 18.9298 10.5209C18.8606 11.3966 14.3656 7.47159 15.1416 7.34118ZM9.32202 7.27418C7.21557 6.91847 5.46308 8.17017 5.53383 10.454C5.6031 11.3296 10.0981 7.40459 9.32202 7.27418ZM12.3476 6.74153C11.0905 6.7088 9.88402 7.67451 9.88108 8.23468C9.87763 8.91527 10.875 9.61216 12.3562 9.62985C13.8687 9.64063 14.8339 9.07203 14.8388 8.36964C14.8444 7.57382 13.4631 6.72928 12.3476 6.74153ZM12.4244 20.6984C13.5204 20.6505 14.9911 21.0514 14.9941 21.5832C15.0123 22.0996 13.6602 23.2663 12.3517 23.2437C10.9966 23.3022 9.66774 22.1337 9.68514 21.7287C9.66481 21.1348 11.3352 20.6711 12.4244 20.6984ZM8.37605 17.5467C9.15638 18.4868 9.51216 20.1385 8.86092 20.6254C8.24483 20.9971 6.74868 20.844 5.6853 19.3163C4.96808 18.0344 5.06048 16.7299 5.56406 16.3467C6.31709 15.888 7.48058 16.5077 8.37612 17.5467H8.37605ZM16.3166 17.2487C15.4723 18.2376 15.0021 20.0413 15.618 20.6223C16.2069 21.0736 17.7879 21.0105 18.9556 19.3902C19.8035 18.3019 19.5194 16.4845 19.0351 16.0019C18.3156 15.4454 17.2827 16.1576 16.3166 17.2484V17.2487Z" fill="#BC1142"/>
</svg>
