<svg width="24" height="24" viewBox="0 0 24 24" fill="currentColor" xmlns="http://www.w3.org/2000/svg">
<path d="M10.4517 14.8992L10.4711 14.9074C10.9501 15.1076 11.476 15.2182 12.0277 15.2182C12.5398 15.2182 13.0297 15.1229 13.4805 14.9491L13.4412 14.9684C13.6692 14.8679 13.7841 14.9181 13.7858 15.1192C13.7868 15.2399 13.7918 15.2473 13.8009 15.1416L13.8009 18.1431C13.8009 18.2085 13.8193 18.2725 13.8541 18.3279C13.951 18.4823 14.1494 18.5344 14.3083 18.4517L14.3331 18.4375L17.6637 16.3468C17.7638 16.284 17.8884 16.2767 17.9944 16.3259L18.0206 16.3394L21.0213 18.052C21.0727 18.0814 21.1157 18.1233 21.1463 18.174C21.2407 18.33 21.198 18.5306 21.0528 18.6355L21.029 18.6513L12.2772 23.9498C12.1754 24.0114 12.0499 24.0163 11.9443 23.9645L11.9184 23.9504L3.09656 18.6514C3.04528 18.6206 3.00282 18.5771 2.97329 18.5251C2.88303 18.3661 2.93175 18.1661 3.08074 18.0655L3.10384 18.0512L6.11607 16.34C6.2197 16.2811 6.34556 16.2797 6.44977 16.3348L6.47534 16.3497L9.71262 18.428C9.76861 18.464 9.83376 18.4831 9.9003 18.4831C10.0835 18.4831 10.2336 18.3413 10.2468 18.1614L10.2478 18.1355L10.2477 15.1385L10.2544 15.191C10.2358 14.9692 10.3015 14.8719 10.4517 14.8992ZM13.1551 0C13.216 0 13.2758 0.0160172 13.3286 0.0464463L22.3814 5.26634C22.4891 5.3284 22.5554 5.44321 22.5554 5.56748V16.2631C22.5554 16.455 22.3998 16.6106 22.2079 16.6106C22.1427 16.6106 22.0788 16.5923 22.0235 16.5577L19.0278 14.6811C18.9263 14.6175 18.8647 14.5062 18.8647 14.3865V10.4525C18.8647 10.2605 18.7092 10.1049 18.5173 10.1049C18.4569 10.1049 18.3975 10.1207 18.345 10.1506L16.3457 11.2921C16.1771 11.3533 16.0876 11.2969 16.077 11.123C16.0718 11.0376 16.0676 11.0092 16.0643 11.0375C16.0253 9.90422 15.5193 8.88949 14.7328 8.17972L14.8355 8.2536C14.6397 8.09949 14.6302 7.97449 14.8069 7.87861C14.8388 7.86135 14.8614 7.84855 14.8749 7.84021L16.4768 6.93712C16.644 6.84287 16.7031 6.63089 16.6089 6.46366C16.5781 6.40895 16.533 6.36361 16.4785 6.33247L12.9828 4.33552C12.8744 4.27364 12.8076 4.15845 12.8076 4.03368V0.347586C12.8076 0.15562 12.9632 0 13.1551 0ZM10.9003 0C11.0835 0 11.2336 0.141794 11.2468 0.321645L11.2478 0.347586V4.03368C11.2478 4.14885 11.1908 4.25587 11.0969 4.32031L11.0726 4.33552L7.57688 6.33247C7.52236 6.36361 7.4773 6.40895 7.44648 6.46366C7.35675 6.62293 7.40613 6.82278 7.55545 6.92287L7.57859 6.93712L9.30199 7.90869C9.42499 7.99879 9.40204 8.1117 9.23313 8.24742L9.22535 8.2536L9.30177 8.19858C8.52742 8.90716 8.0301 9.9135 7.99108 11.0363C7.98895 11.0501 7.98653 11.079 7.98386 11.123C7.97295 11.3025 7.87792 11.3568 7.69877 11.2858L5.71035 10.1506C5.65789 10.1207 5.59852 10.1049 5.53812 10.1049C5.35494 10.1049 5.20486 10.2467 5.1916 10.4266L5.19064 10.4525V14.3865C5.19064 14.4962 5.13888 14.5989 5.05211 14.6642L5.02759 14.6811L2.0319 16.5577C1.97661 16.5923 1.9127 16.6106 1.84747 16.6106C1.66429 16.6106 1.51422 16.4689 1.50095 16.289L1.5 16.2631V5.56748C1.5 5.45277 1.55651 5.34612 1.64986 5.28158L1.67395 5.26634L10.7268 0.0464463C10.7795 0.0160172 10.8394 0 10.9003 0ZM12.0277 8.28664C13.6252 8.28664 14.9202 9.58167 14.9202 11.1792C14.9202 12.7766 13.6252 14.0717 12.0277 14.0717C10.4302 14.0717 9.13518 12.7766 9.13518 11.1792C9.13518 9.58167 10.4302 8.28664 12.0277 8.28664Z" fill="white"/>
</svg>
