<svg width="24" height="24" viewBox="0 0 24 24" fill="currentColor" xmlns="http://www.w3.org/2000/svg">
<path d="M24 12.0015C24 10.4116 22.009 8.90484 18.9564 7.97047C19.6608 4.85918 19.3477 2.38384 17.9682 1.59134C17.6502 1.40545 17.2784 1.31739 16.8724 1.31739V2.4083C17.0974 2.4083 17.2784 2.45233 17.4301 2.53549C18.0954 2.91707 18.384 4.36998 18.159 6.23871C18.1052 6.69856 18.0171 7.18286 17.9095 7.67695C16.9507 7.44214 15.9038 7.26113 14.8031 7.14373C14.1427 6.23871 13.4578 5.41686 12.768 4.69774C14.3628 3.21548 15.8598 2.40341 16.8773 2.40341V1.3125C15.532 1.3125 13.7709 2.27133 11.9902 3.9346C10.2095 2.28111 8.44843 1.33207 7.10314 1.33207V2.42298C8.11578 2.42298 9.61761 3.23015 11.2124 4.70263C10.5275 5.42175 9.84264 6.23871 9.19201 7.14373C8.08643 7.26113 7.03954 7.44214 6.08072 7.68184C5.9682 7.19265 5.88504 6.71813 5.82633 6.26317C5.59641 4.39444 5.88015 2.94153 6.54056 2.55506C6.68732 2.467 6.87811 2.42787 7.10314 2.42787V1.33696C6.69221 1.33696 6.32042 1.42502 5.99755 1.61091C4.62291 2.40341 4.31472 4.87385 5.02405 7.97536C1.98125 8.91462 0 10.4165 0 12.0015C0 13.5913 1.99103 15.0981 5.04362 16.0324C4.33918 19.1437 4.65226 21.6191 6.0318 22.4116C6.34978 22.5975 6.72157 22.6855 7.13249 22.6855C8.47778 22.6855 10.2389 21.7267 12.0196 20.0634C13.8002 21.7169 15.5614 22.6659 16.9066 22.6659C17.3176 22.6659 17.6894 22.5779 18.0122 22.392C19.3869 21.5995 19.6951 19.1291 18.9857 16.0275C22.0188 15.0932 24 13.5865 24 12.0015ZM17.6307 8.73851C17.4497 9.36957 17.2246 10.0202 16.9702 10.6708C16.7697 10.2795 16.5593 9.88812 16.3294 9.49677C16.1044 9.10541 15.8647 8.72383 15.625 8.35204C16.3196 8.45477 16.9898 8.58197 17.6307 8.73851ZM15.3901 13.9485C15.0086 14.6089 14.6172 15.235 14.2112 15.8172C13.4823 15.8808 12.7436 15.915 12 15.915C11.2613 15.915 10.5226 15.8808 9.79861 15.8221C9.39258 15.2399 8.99633 14.6187 8.61476 13.9631C8.24297 13.3223 7.90542 12.6717 7.59723 12.0161C7.90053 11.3606 8.24297 10.7051 8.60987 10.0642C8.99144 9.40382 9.3828 8.77765 9.78883 8.1955C10.5177 8.13191 11.2564 8.09766 12 8.09766C12.7387 8.09766 13.4774 8.13191 14.2014 8.19061C14.6074 8.77275 15.0037 9.39403 15.3852 10.0496C15.757 10.6904 16.0946 11.341 16.4028 11.9966C16.0946 12.6521 15.757 13.3076 15.3901 13.9485ZM16.9702 13.3125C17.2344 13.968 17.4594 14.6235 17.6453 15.2595C17.0045 15.416 16.3294 15.5481 15.6298 15.6509C15.8695 15.2742 16.1093 14.8877 16.3343 14.4915C16.5593 14.1001 16.7697 13.7039 16.9702 13.3125ZM12.0098 18.5322C11.5548 18.0626 11.0999 17.5392 10.6498 16.9668C11.0901 16.9864 11.5402 17.001 11.9951 17.001C12.455 17.001 12.9099 16.9913 13.3551 16.9668C12.9148 17.5392 12.4598 18.0626 12.0098 18.5322ZM8.37016 15.6509C7.6755 15.5481 7.0053 15.4209 6.36445 15.2644C6.54545 14.6333 6.77048 13.9827 7.02487 13.3321C7.22544 13.7234 7.43579 14.1148 7.66572 14.5061C7.89564 14.8975 8.13045 15.2791 8.37016 15.6509ZM11.9853 5.47067C12.4403 5.9403 12.8952 6.46374 13.3453 7.0361C12.905 7.01654 12.455 7.00186 12 7.00186C11.5402 7.00186 11.0852 7.01164 10.64 7.0361C11.0803 6.46374 11.5353 5.9403 11.9853 5.47067ZM8.36527 8.35204C8.12556 8.72872 7.88585 9.11519 7.66082 9.51144C7.43579 9.9028 7.22544 10.2942 7.02487 10.6855C6.7607 10.03 6.53567 9.37447 6.34978 8.73851C6.99062 8.58686 7.66572 8.45477 8.36527 8.35204ZM3.93804 14.4768C2.20628 13.7381 1.08602 12.7695 1.08602 12.0015C1.08602 11.2334 2.20628 10.2599 3.93804 9.52612C4.35875 9.34511 4.81859 9.18368 5.29311 9.03203C5.57195 9.99085 5.93885 10.9888 6.3938 12.0112C5.94374 13.0288 5.58174 14.0218 5.30779 14.9758C4.82348 14.8241 4.36364 14.6578 3.93804 14.4768ZM6.56991 21.4674C5.90461 21.0858 5.61598 19.6329 5.84101 17.7642C5.89482 17.3043 5.98288 16.82 6.0905 16.326C7.04933 16.5608 8.09621 16.7418 9.1969 16.8592C9.85732 17.7642 10.5422 18.586 11.232 19.3052C9.63718 20.7874 8.14024 21.5995 7.12271 21.5995C6.90257 21.5946 6.71667 21.5506 6.56991 21.4674ZM18.1737 17.7397C18.4036 19.6085 18.1199 21.0614 17.4594 21.4478C17.3127 21.5359 17.1219 21.575 16.8969 21.575C15.8842 21.575 14.3824 20.7679 12.7876 19.2954C13.4725 18.5763 14.1574 17.7593 14.808 16.8543C15.9136 16.7369 16.9605 16.5559 17.9193 16.3162C18.0318 16.8103 18.1199 17.2848 18.1737 17.7397ZM20.0571 14.4768C19.6364 14.6578 19.1765 14.8192 18.702 14.9709C18.4232 14.0121 18.0563 13.0141 17.6013 11.9917C18.0514 10.9741 18.4134 9.98107 18.6873 9.02714C19.1716 9.17879 19.6315 9.34511 20.062 9.52612C21.7937 10.2648 22.914 11.2334 22.914 12.0015C22.9091 12.7695 21.7888 13.743 20.0571 14.4768Z" fill="#61DAFB"/>
<path d="M11.9954 14.2371C13.2301 14.2371 14.231 13.2361 14.231 12.0014C14.231 10.7667 13.2301 9.76581 11.9954 9.76581C10.7607 9.76581 9.75977 10.7667 9.75977 12.0014C9.75977 13.2361 10.7607 14.2371 11.9954 14.2371Z" fill="#61DAFB"/>
</svg>
