<svg width="24" height="24" viewBox="0 0 24 24" fill="none" xmlns="http://www.w3.org/2000/svg">
<path d="M23.0597 17.5259C21.7789 18.1935 15.144 20.9216 13.7315 21.658C12.3189 22.3945 11.5343 22.3873 10.4183 21.8539C9.30253 21.3205 2.24184 18.4684 0.969937 17.8604C0.334312 17.5567 0 17.3002 0 17.0579V14.6321C0 14.6321 9.19219 12.631 10.6762 12.0986C12.16 11.5662 12.6749 11.5469 13.9377 12.0095C15.2007 12.4722 22.7519 13.8346 24 14.2917L23.9994 16.6833C23.9996 16.9231 23.7116 17.1862 23.0597 17.5259Z" fill="#912626"/>
<path d="M23.0592 15.1144C21.7785 15.7817 15.1438 18.5098 13.7313 19.2461C12.3188 19.9827 11.5341 19.9755 10.4183 19.4421C9.30242 18.909 2.24201 16.0565 0.970198 15.4489C-0.301615 14.8409 -0.32824 14.4225 0.921073 13.9333C2.17039 13.4439 9.19207 10.6891 10.6762 10.1567C12.1601 9.62447 12.6749 9.60507 13.9377 10.0678C15.2006 10.5304 21.7957 13.1555 23.0436 13.6125C24.292 14.0701 24.3399 14.4469 23.0592 15.1144Z" fill="#C6302B"/>
<path d="M23.0597 13.6007C21.7789 14.2684 15.144 16.9963 13.7315 17.733C12.3189 18.4692 11.5343 18.4621 10.4183 17.9287C9.30244 17.3955 2.24184 14.5432 0.969937 13.9352C0.334312 13.6315 0 13.3753 0 13.133V10.7068C0 10.7068 9.19219 8.70583 10.6762 8.17343C12.16 7.64102 12.6749 7.62171 13.9377 8.08436C15.2008 8.54702 22.752 9.90911 24 10.3663L23.9994 12.7582C23.9996 12.9979 23.7116 13.261 23.0597 13.6007Z" fill="#912626"/>
<path d="M23.0592 11.1892C21.7785 11.8567 15.1438 14.5846 13.7313 15.3212C12.3188 16.0575 11.5341 16.0503 10.4183 15.5169C9.30242 14.9838 2.24201 12.1314 0.970198 11.5237C-0.301615 10.9159 -0.32824 10.4974 0.921073 10.008C2.17039 9.51891 9.19217 6.76388 10.6762 6.23157C12.1601 5.69926 12.6749 5.67994 13.9377 6.1426C15.2006 6.60516 21.7957 9.23007 23.0436 9.68729C24.292 10.1448 24.3399 10.5217 23.0592 11.1892Z" fill="#C6302B"/>
<path d="M23.0597 9.52996C21.7789 10.1975 15.144 12.9256 13.7315 13.6623C12.3189 14.3986 11.5343 14.3914 10.4183 13.8579C9.30244 13.3248 2.24184 10.4723 0.969937 9.86465C0.334312 9.56062 0 9.3044 0 9.06233V6.63608C0 6.63608 9.19219 4.63518 10.6762 4.10287C12.16 3.57037 12.6749 3.55124 13.9377 4.0138C15.2008 4.47646 22.752 5.83855 24 6.29577L23.9994 8.68752C23.9996 8.92705 23.7116 9.19011 23.0597 9.52996Z" fill="#912626"/>
<path d="M23.0591 7.11843C21.7784 7.78593 15.1437 10.5141 13.7312 11.2504C12.3188 11.9867 11.5341 11.9795 10.4183 11.4463C9.30246 10.9129 2.24196 8.06062 0.970245 7.45284C-0.301662 6.84515 -0.328193 6.42656 0.921026 5.93728C2.17034 5.44809 9.19212 2.69343 10.6762 2.16093C12.1601 1.62853 12.6748 1.6094 13.9377 2.07206C15.2006 2.53472 21.7957 5.15962 23.0436 5.61684C24.292 6.07396 24.3399 6.45093 23.0591 7.11843Z" fill="#C6302B"/>
<path d="M14.9331 4.75846L12.8696 4.97268L12.4077 6.08418L11.6617 4.84386L9.279 4.62974L11.0569 3.98858L10.5234 3.00439L12.188 3.65539L13.7572 3.14164L13.333 4.1593L14.9331 4.75846ZM12.2845 10.1508L8.43356 8.55355L13.9517 7.70652L12.2845 10.1508ZM6.94547 5.37627C8.57438 5.37627 9.89484 5.88814 9.89484 6.51946C9.89484 7.15096 8.57438 7.66274 6.94547 7.66274C5.31656 7.66274 3.99609 7.15086 3.99609 6.51946C3.99609 5.88814 5.31656 5.37627 6.94547 5.37627Z" fill="white"/>
<path d="M17.3711 5.06229L20.637 6.35285L17.3739 7.64219L17.3711 5.06229Z" fill="#621B1C"/>
<path d="M13.7578 6.49154L17.3709 5.06232L17.3737 7.64222L17.0195 7.78079L13.7578 6.49154Z" fill="#9A2928"/>
</svg>
