<svg width="24" height="24" viewBox="0 0 24 24" fill="none" xmlns="http://www.w3.org/2000/svg">
<g clip-path="url(#clip0_177_272)">
<path d="M1.63315 23.7622C-0.201956 22.9108 -0.557715 20.5948 0.939279 19.2451C2.03574 18.2565 3.53346 18.3137 4.60483 19.3851C5.6762 20.4565 5.73341 21.9542 4.74486 23.0507C3.92812 23.9566 2.67136 24.2439 1.63315 23.7622ZM10.8268 23.7014C9.32581 23.0024 8.82291 21.0722 9.78347 19.6966C10.2285 19.0594 11.2198 18.5404 11.992 18.5404C12.7642 18.5404 13.7555 19.0594 14.2005 19.6966C14.8734 20.6602 14.8381 22.0217 14.1156 22.9689C13.6919 23.5244 12.7235 23.99 11.992 23.99C11.6719 23.99 11.1909 23.8709 10.8268 23.7014ZM20.17 23.7664C19.2347 23.3404 18.537 22.2796 18.5351 21.2804C18.5324 19.8704 19.8645 18.5383 21.2745 18.5411C22.2737 18.543 23.3344 19.2406 23.7604 20.176C24.7592 22.3691 22.3631 24.7652 20.17 23.7664ZM2.03546 14.609C1.24498 14.4052 0.629881 13.8961 0.288578 13.1631C-0.0834199 12.3642 -0.0834199 11.6317 0.288578 10.8328C1.19212 8.8923 3.95411 8.76549 5.03784 10.6147C6.26822 12.7142 4.38804 15.2156 2.03546 14.609ZM11.5074 14.6647C9.3465 14.2615 8.53347 11.527 10.1333 10.043C10.6917 9.52498 11.2399 9.30828 11.992 9.30828C13.5144 9.30828 14.6817 10.4755 14.6817 11.9979C14.6817 13.6919 13.1573 14.9725 11.5074 14.6647ZM20.7152 14.6501C19.5252 14.4205 18.5344 13.2156 18.5344 11.9979C18.5344 11.2257 19.0534 10.2344 19.6907 9.78942C21.0662 8.82885 22.9965 9.33176 23.6954 10.8328C24.0689 11.6348 24.0676 12.3638 23.6913 13.172C23.3682 13.866 22.6538 14.4745 22.0107 14.6038C21.7979 14.6465 21.5421 14.6981 21.4422 14.7184C21.3422 14.7387 21.0151 14.708 20.7152 14.6501ZM1.76942 5.27752C0.358612 4.77464 -0.398299 2.98833 0.22772 1.6391C1.07918 -0.196008 3.39519 -0.551767 4.74486 0.945227C5.73341 2.04169 5.6762 3.53941 4.60483 4.61078C3.80149 5.41411 2.80801 5.64773 1.76942 5.27752ZM10.7661 5.11708C8.77122 4.07497 8.80701 1.23501 10.8268 0.294526C11.6258 -0.0774715 12.3582 -0.0774715 13.1572 0.294526C15.177 1.23501 15.2128 4.07497 13.2179 5.11708C12.3508 5.57008 11.6332 5.57008 10.7661 5.11708ZM20.3518 5.29637C19.4277 5.00348 18.5331 3.73257 18.5351 2.71545C18.537 1.71626 19.2347 0.655534 20.17 0.229526C21.9076 -0.561817 23.9811 0.798369 23.9811 2.7295C23.9811 4.58206 22.1605 5.86968 20.3518 5.29637Z" fill="#314160"/>
</g>
<defs>
<clipPath id="clip0_177_272">
<rect width="24" height="24" fill="white"/>
</clipPath>
</defs>
</svg>
