<svg width="24" height="24" viewBox="0 0 24 24" fill="currentColor" xmlns="http://www.w3.org/2000/svg">
<path fill-rule="evenodd" clip-rule="evenodd" d="M18.3989 23.9855C15.4912 24.2512 13.0598 20.8439 11.1962 19.1158C10.2539 25.9062 -0.00702764 25.2625 3.61192e-06 18.3743C0.00337861 15.481 3.61192e-06 8.41105 3.61192e-06 5.60877C3.61192e-06 4.60123 0.276519 3.58663 0.795238 2.72624C1.77961 1.05753 3.6818 -0.0198899 5.61896 0.000922597C8.53711 0.00462572 15.5648 -0.00240553 18.3989 0.000922597C25.2935 0.000922597 25.9483 10.2582 19.1347 11.1817L22.368 14.4106C25.9204 17.7514 23.2542 24.1323 18.3989 23.9855ZM16.833 19.9449C18.8366 22.009 22.0353 18.8113 19.9718 16.8104L14.3667 11.2133H11.2312V14.3474L16.0764 19.186L16.833 19.9449ZM3.39455 18.3776C3.34889 21.2464 7.87861 21.2568 7.83328 18.3776V5.60877C7.87158 4.17791 6.35841 3.04105 4.99205 3.48181C4.93261 3.4993 4.8765 3.51678 4.82377 3.53792C3.96568 3.85606 3.37003 4.73427 3.39455 5.65077V18.3776ZM18.3989 7.82309C21.2784 7.8688 21.2751 3.34541 18.3989 3.39078H10.7864C11.3646 4.60831 11.2174 6.50445 11.2278 7.82309H18.3989Z" fill="black"/>
</svg>
