<svg width="24" height="24" viewBox="0 0 24 24" fill="none" xmlns="http://www.w3.org/2000/svg">
<g clip-path="url(#clip0_184_133)">
<path fill-rule="evenodd" clip-rule="evenodd" d="M18.3988 23.9853C15.491 24.251 13.0597 20.8438 11.1961 19.1156C10.2538 25.906 -0.00702758 25.2623 3.61189e-06 18.3741C0.00337859 15.4808 3.61189e-06 8.41098 3.61189e-06 5.60872C3.61189e-06 4.6012 0.276517 3.5866 0.795232 2.72621C1.7796 1.05752 3.68177 -0.0198897 5.61891 0.00092259C8.53705 0.00462569 15.5646 -0.00240551 18.3988 0.00092259C25.2933 0.00092259 25.9481 10.2581 19.1345 11.1816L22.3678 14.4105C25.9202 17.7513 23.254 24.1321 18.3988 23.9853ZM16.8328 19.9447C18.8365 22.0088 22.0352 18.8112 19.9717 16.8103L14.3666 11.2132H11.2311V14.3473L16.0763 19.1858L16.8328 19.9447ZM3.39452 18.3775C3.34887 21.2462 7.87855 21.2566 7.83322 18.3775V5.60872C7.87152 4.17787 6.35836 3.04102 4.99201 3.48179C4.93257 3.49927 4.87647 3.51675 4.82373 3.53789C3.96564 3.85603 3.37001 4.73423 3.39452 5.65072V18.3775ZM18.3988 7.82303C21.2782 7.86874 21.2749 3.34538 18.3988 3.39076H10.7863C11.3645 4.60828 11.2173 6.5044 11.2277 7.82303H18.3988Z" fill="white"/>
</g>
<defs>
<clipPath id="clip0_184_133">
<rect width="23.9998" height="24" fill="white"/>
</clipPath>
</defs>
</svg>
