<svg width="24" height="24" viewBox="0 0 24 24" fill="currentColor" xmlns="http://www.w3.org/2000/svg">
<g clip-path="url(#clip0_184_437)">
<path d="M10.0736 8.71682H13.017C14.8283 8.71682 14.8283 10.5281 13.017 10.5281H10.0736V8.71682ZM3.05469 17.0942H12.1113V14.6036H10.0736V12.7923H12.3377C14.8283 12.7923 13.4698 17.0942 15.5075 17.0942H21.1679V12.7923H19.8094V13.2451C19.8094 15.0564 17.7717 14.83 17.5453 13.698C17.3188 12.5659 16.4132 11.6602 16.1868 11.6602C19.583 9.8489 17.5453 6.22626 14.8283 6.22626H4.18676V8.71682H6.45091V14.6036H3.05469V17.0942Z" fill="white" stroke="white" stroke-width="0.0625" stroke-linejoin="round"/>
<path d="M11.9976 21.7356C17.3745 21.7356 21.7334 17.3767 21.7334 11.9997C21.7334 6.62274 17.3745 2.26385 11.9976 2.26385C6.62061 2.26385 2.26172 6.62274 2.26172 11.9997C2.26172 17.3767 6.62061 21.7356 11.9976 21.7356Z" stroke="white" stroke-width="0.5625"/>
<path d="M22.4121 12.6787L23.5442 11.9995L22.4121 11.3203V12.6787Z" fill="white" stroke="white" stroke-width="0.1875" stroke-linejoin="round"/>
<path d="M22.0787 14.6976L23.3216 14.2522L22.3438 13.3652L22.0787 14.6976Z" fill="white" stroke="white" stroke-width="0.1875" stroke-linejoin="round"/>
<path d="M21.359 16.6127L22.6649 16.4184L21.8789 15.3577L21.359 16.6127Z" fill="white" stroke="white" stroke-width="0.1875" stroke-linejoin="round"/>
<path d="M20.2785 18.3506L21.5971 18.4148L21.0332 17.2211L20.2785 18.3506Z" fill="white" stroke="white" stroke-width="0.1875" stroke-linejoin="round"/>
<path d="M18.8812 19.8444L20.162 20.1646L19.8418 18.8838L18.8812 19.8444Z" fill="white" stroke="white" stroke-width="0.1875" stroke-linejoin="round"/>
<path d="M17.2181 21.0367L18.4118 21.6006L18.3477 20.282L17.2181 21.0367Z" fill="white" stroke="white" stroke-width="0.1875" stroke-linejoin="round"/>
<path d="M15.3543 21.8817L16.4151 22.6677L16.6094 21.3619L15.3543 21.8817Z" fill="white" stroke="white" stroke-width="0.1875" stroke-linejoin="round"/>
<path d="M13.3629 22.347L14.25 23.3248L14.6953 22.082L13.3629 22.347Z" fill="white" stroke="white" stroke-width="0.1875" stroke-linejoin="round"/>
<path d="M11.3173 22.4146L11.9965 23.5467L12.6758 22.4146H11.3173Z" fill="white" stroke="white" stroke-width="0.1875" stroke-linejoin="round"/>
<path d="M9.29847 22.082L9.74381 23.3248L10.6309 22.347L9.29847 22.082Z" fill="white" stroke="white" stroke-width="0.1875" stroke-linejoin="round"/>
<path d="M7.38359 21.3618L7.5779 22.6677L8.63867 21.8817L7.38359 21.3618Z" fill="white" stroke="white" stroke-width="0.1875" stroke-linejoin="round"/>
<path d="M5.64585 20.2819L5.58167 21.6006L6.77539 21.0367L5.64585 20.2819Z" fill="white" stroke="white" stroke-width="0.1875" stroke-linejoin="round"/>
<path d="M4.15073 18.8838L3.83053 20.1646L5.11133 19.8444L4.15073 18.8838Z" fill="white" stroke="white" stroke-width="0.1875" stroke-linejoin="round"/>
<path d="M2.96011 17.221L2.39619 18.4148L3.71484 18.3506L2.96011 17.221Z" fill="white" stroke="white" stroke-width="0.1875" stroke-linejoin="round"/>
<path d="M2.11489 15.3577L1.32893 16.4184L2.63477 16.6127L2.11489 15.3577Z" fill="white" stroke="white" stroke-width="0.1875" stroke-linejoin="round"/>
<path d="M1.64903 13.3652L0.671225 14.2522L1.91406 14.6976L1.64903 13.3652Z" fill="white" stroke="white" stroke-width="0.1875" stroke-linejoin="round"/>
<path d="M1.58203 11.3203L0.449956 11.9995L1.58203 12.6788L1.58203 11.3203Z" fill="white" stroke="white" stroke-width="0.1875" stroke-linejoin="round"/>
<path d="M1.91347 9.3014L0.670629 9.74674L1.64844 10.6338L1.91347 9.3014Z" fill="white" stroke="white" stroke-width="0.1875" stroke-linejoin="round"/>
<path d="M2.63315 7.38628L1.32732 7.58059L2.11328 8.64136L2.63315 7.38628Z" fill="white" stroke="white" stroke-width="0.1875" stroke-linejoin="round"/>
<path d="M3.71372 5.64841L2.39507 5.58423L2.95898 6.77795L3.71372 5.64841Z" fill="white" stroke="white" stroke-width="0.1875" stroke-linejoin="round"/>
<path d="M5.11099 4.15464L3.83019 3.83444L4.15039 5.11523L5.11099 4.15464Z" fill="white" stroke="white" stroke-width="0.1875" stroke-linejoin="round"/>
<path d="M6.77407 2.9623L5.58036 2.39839L5.64453 3.71704L6.77407 2.9623Z" fill="white" stroke="white" stroke-width="0.1875" stroke-linejoin="round"/>
<path d="M8.63789 2.11727L7.57713 1.33131L7.38281 2.63715L8.63789 2.11727Z" fill="white" stroke="white" stroke-width="0.1875" stroke-linejoin="round"/>
<path d="M10.6312 1.65202L9.74416 0.674216L9.29883 1.91705L10.6312 1.65202Z" fill="white" stroke="white" stroke-width="0.1875" stroke-linejoin="round"/>
<path d="M12.6749 1.58441L11.9957 0.452336L11.3164 1.58441L12.6749 1.58441Z" fill="white" stroke="white" stroke-width="0.1875" stroke-linejoin="round"/>
<path d="M14.6937 1.91707L14.2484 0.67423L13.3613 1.65204L14.6937 1.91707Z" fill="white" stroke="white" stroke-width="0.1875" stroke-linejoin="round"/>
<path d="M16.6086 2.63712L16.4143 1.33128L15.3535 2.11725L16.6086 2.63712Z" fill="white" stroke="white" stroke-width="0.1875" stroke-linejoin="round"/>
<path d="M18.3483 3.71702L18.4125 2.39836L17.2188 2.96228L18.3483 3.71702Z" fill="white" stroke="white" stroke-width="0.1875" stroke-linejoin="round"/>
<path d="M19.8415 5.1152L20.1617 3.8344L18.8809 4.1546L19.8415 5.1152Z" fill="white" stroke="white" stroke-width="0.1875" stroke-linejoin="round"/>
<path d="M21.034 6.77798L21.598 5.58426L20.2793 5.64844L21.034 6.77798Z" fill="white" stroke="white" stroke-width="0.1875" stroke-linejoin="round"/>
<path d="M21.8792 8.64137L22.6652 7.58061L21.3594 7.38629L21.8792 8.64137Z" fill="white" stroke="white" stroke-width="0.1875" stroke-linejoin="round"/>
<path d="M22.3432 10.6338L23.321 9.74673L22.0781 9.30139L22.3432 10.6338Z" fill="white" stroke="white" stroke-width="0.1875" stroke-linejoin="round"/>
<path d="M10.4121 2.49023L11.997 4.07514L13.5819 2.49023H10.4121Z" fill="white" stroke="white" stroke-width="0.375" stroke-linejoin="round"/>
<path d="M20.5508 7.55377L19.5332 9.55087L21.5303 10.5684L20.5508 7.55377Z" fill="white" stroke="white" stroke-width="0.375" stroke-linejoin="round"/>
<path d="M18.8691 18.7614L16.6553 18.4107L16.3047 20.6245L18.8691 18.7614Z" fill="white" stroke="white" stroke-width="0.375" stroke-linejoin="round"/>
<path d="M7.68945 20.6246L7.33882 18.4108L5.12502 18.7614L7.68945 20.6246Z" fill="white" stroke="white" stroke-width="0.375" stroke-linejoin="round"/>
<path d="M2.46289 10.5684L4.45999 9.55085L3.44242 7.55375L2.46289 10.5684Z" fill="white" stroke="white" stroke-width="0.375" stroke-linejoin="round"/>
</g>
<defs>
<clipPath id="clip0_184_437">
<rect width="24" height="24" fill="white"/>
</clipPath>
</defs>
</svg>
