<svg width="24" height="24" viewBox="0 0 24 24" fill="currentColor" xmlns="http://www.w3.org/2000/svg">
<path d="M18.4082 16.5298C21.3393 13.5988 21.8264 9.3341 19.4962 7.00402C17.1663 4.6742 12.9017 5.16126 9.97076 8.09204C7.03981 11.0229 7.88767 16.6224 8.88291 17.6178C9.68715 18.422 15.4774 19.4606 18.4082 16.5298Z" fill="#F89939"/>
<path d="M6.38179 12.2946C4.68139 10.5942 2.20679 10.3111 0.854557 11.6633C-0.497328 13.0153 -0.214679 15.4902 1.48606 17.1903C3.1868 18.8912 6.43588 18.3993 7.01294 17.8217C7.47993 17.3555 8.0827 13.9952 6.38179 12.2946Z" fill="#3499CD"/>
<path d="M12.2468 15.811C11.9464 16.0875 11.6829 16.2916 11.4564 16.4227C11.2299 16.5542 11.0139 16.6199 10.8084 16.6199C10.5719 16.6199 10.3812 16.5283 10.2366 16.3449C10.0917 16.1613 10.0195 15.9152 10.0195 15.6055C10.0195 15.1416 10.1201 14.5846 10.3212 13.9352C10.522 13.2852 10.7665 12.6864 11.0536 12.1385L11.8956 11.8267C11.922 11.8179 11.9421 11.8134 11.9554 11.8134C12.0193 11.8134 12.0721 11.8605 12.1126 11.9542C12.1535 12.0484 12.1741 12.1749 12.1741 12.334C12.1741 12.7848 12.0703 13.2212 11.8624 13.6433C11.6545 14.0655 11.3298 14.5161 10.8879 14.9957C10.8702 15.2255 10.8613 15.3834 10.8613 15.4697C10.8613 15.6621 10.8966 15.8143 10.9673 15.9271C11.0381 16.04 11.132 16.0961 11.2491 16.0961C11.3686 16.0961 11.4956 16.0533 11.6304 15.9671C11.765 15.8808 11.9706 15.702 12.2467 15.43V15.811H12.2468ZM10.9774 14.5152C11.258 14.2032 11.4858 13.8533 11.6603 13.4662C11.8348 13.0789 11.9219 12.7458 11.9219 12.4667C11.9219 12.3854 11.9099 12.3193 11.8857 12.2696C11.8614 12.2198 11.8303 12.1948 11.7928 12.1948C11.7114 12.1948 11.5924 12.3984 11.4365 12.8055C11.2806 13.2126 11.1276 13.7826 10.9774 14.5152Z" fill="#010101"/>
<path d="M14.7257 15.811C14.4452 16.0875 14.1933 16.2916 13.9701 16.4227C13.7468 16.5543 13.5006 16.6199 13.2309 16.6199C12.9303 16.6199 12.6878 16.5238 12.5031 16.3318C12.3186 16.1392 12.2266 15.8864 12.2266 15.5725C12.2266 15.1041 12.3888 14.6803 12.7141 14.3014C13.0386 13.9222 13.399 13.7328 13.7945 13.7328C14 13.7328 14.1644 13.786 14.2884 13.892C14.4121 13.9982 14.474 14.1373 14.474 14.3097C14.474 14.7672 13.9879 15.1382 13.0156 15.4234C13.1038 15.8541 13.3347 16.0698 13.7083 16.0698C13.8542 16.0698 13.9932 16.0306 14.1257 15.9524C14.2586 15.8738 14.4584 15.6995 14.7258 15.4301L14.7257 15.811ZM12.9888 15.198C13.5544 15.0387 13.8374 14.745 13.8374 14.3163C13.8374 14.1041 13.7599 13.9981 13.6055 13.9981C13.4595 13.9981 13.3205 14.109 13.188 14.3313C13.055 14.5533 12.9888 14.842 12.9888 15.198Z" fill="#010101"/>
<path d="M18.2673 15.811C17.9137 16.1469 17.6607 16.3659 17.5084 16.4677C17.3559 16.5693 17.21 16.62 17.0707 16.62C16.7215 16.62 16.557 16.3118 16.5768 15.6952C16.3559 16.0111 16.1519 16.2442 15.9651 16.3948C15.7785 16.5451 15.5858 16.62 15.3867 16.62C15.1925 16.62 15.0274 16.529 14.8912 16.3467C14.7551 16.1644 14.6875 15.9407 14.6875 15.6753C14.6875 15.344 14.7785 15.028 14.9606 14.7272C15.1431 14.4267 15.3768 14.1838 15.6618 13.9982C15.9468 13.8126 16.199 13.7196 16.4175 13.7196C16.6938 13.7196 16.8872 13.8467 16.9978 14.1007L17.6752 13.7264H17.8611L17.5685 14.6975C17.4183 15.186 17.3429 15.5208 17.3429 15.702C17.3429 15.8919 17.4101 15.9869 17.5451 15.9869C17.6309 15.9869 17.7259 15.9412 17.8299 15.8493C17.9338 15.7575 18.0794 15.6177 18.2672 15.43V15.811H18.2673ZM15.8409 15.9935C16.0619 15.9935 16.2701 15.8052 16.466 15.4285C16.6616 15.0516 16.7593 14.7039 16.7593 14.3857C16.7593 14.2621 16.7315 14.1653 16.6765 14.0958C16.621 14.026 16.547 13.9913 16.4544 13.9913C16.2333 13.9913 16.0237 14.1791 15.8263 14.5549C15.6286 14.9307 15.5295 15.2765 15.5295 15.5922C15.5295 15.7117 15.5589 15.8084 15.6174 15.8825C15.6759 15.9566 15.7502 15.9935 15.8409 15.9935Z" fill="#010101"/>
<path d="M20.7436 15.811C20.1889 16.3546 19.7612 16.6266 19.4607 16.6266C19.3258 16.6266 19.2119 16.5696 19.1193 16.4562C19.0267 16.3423 18.9801 16.2013 18.9801 16.0332C18.9801 15.7217 19.1471 15.3042 19.4807 14.7803C19.3171 14.8644 19.1383 14.9227 18.9437 14.9559C18.8001 15.2211 18.5745 15.5063 18.2675 15.8109H18.1914V15.5129C18.3636 15.334 18.5195 15.1416 18.6587 14.936C18.4684 14.852 18.3736 14.7271 18.3736 14.5617C18.3736 14.3913 18.4314 14.2096 18.5477 14.016C18.6637 13.8228 18.8233 13.7263 19.0267 13.7263C19.1991 13.7263 19.2851 13.8144 19.2851 13.9912C19.2851 14.1305 19.2355 14.3293 19.1358 14.588C19.5026 14.5481 19.8231 14.2677 20.0973 13.746L20.3988 13.7327L20.0905 14.5812C19.9624 14.9392 19.8795 15.1831 19.842 15.3122C19.8046 15.4414 19.7856 15.5559 19.7856 15.6552C19.7856 15.7482 19.8072 15.8224 19.8502 15.8773C19.8933 15.9329 19.9514 15.9603 20.0243 15.9603C20.1037 15.9603 20.1802 15.9331 20.253 15.8793C20.3259 15.8247 20.4895 15.6751 20.7437 15.4299V15.811H20.7436Z" fill="#010101"/>
<path d="M23.9975 15.811C23.4871 16.3505 23.0493 16.62 22.6848 16.62C22.5368 16.62 22.4174 16.568 22.3268 16.4641C22.236 16.3603 22.1908 16.2212 22.1908 16.0466C22.1908 15.8102 22.2881 15.4488 22.4827 14.9629C22.5864 14.702 22.6385 14.536 22.6385 14.4656C22.6385 14.3948 22.6107 14.3594 22.5557 14.3594C22.5248 14.3594 22.4837 14.375 22.433 14.4057C22.3864 14.4366 22.3323 14.48 22.2704 14.5352C22.2153 14.5859 22.1532 14.6478 22.0848 14.7204C22.025 14.7828 21.9608 14.8535 21.8927 14.9327L21.7068 15.1484C21.6252 15.2478 21.5743 15.3526 21.5545 15.4632C21.5212 15.651 21.4992 15.8235 21.488 15.9806C21.4813 16.0974 21.4781 16.2553 21.4781 16.4546L20.7455 16.6266C20.7214 16.3283 20.709 16.1062 20.709 15.9605C20.709 15.6047 20.7504 15.2677 20.8334 14.9495C20.9163 14.631 21.0493 14.2733 21.2328 13.8754L22.0415 13.7197C21.8714 14.1772 21.7599 14.5372 21.7068 14.8001C22.0693 14.3957 22.3566 14.1159 22.5696 13.9598C22.7822 13.804 22.9716 13.7264 23.137 13.7264C23.2494 13.7264 23.3434 13.7688 23.4183 13.8537C23.4935 13.9387 23.5309 14.0454 23.5309 14.173C23.5309 14.3849 23.4359 14.7341 23.2461 15.2205C23.1156 15.554 23.0503 15.7705 23.0503 15.8704C23.0503 16.0034 23.1046 16.0699 23.2131 16.0699C23.3747 16.0699 23.6364 15.8566 23.9975 15.4301V15.811Z" fill="#010101"/>
<g clip-path="url(#clip0_177_625)">
<path d="M14.314 11.7403L14.1511 11.7864C14.1409 11.7593 14.1258 11.7329 14.1058 11.7073C14.0863 11.6812 14.0597 11.6597 14.0259 11.6428C13.9921 11.6259 13.9488 11.6174 13.896 11.6174C13.8238 11.6174 13.7636 11.634 13.7155 11.6673C13.6678 11.7001 13.644 11.7419 13.644 11.7926C13.644 11.8377 13.6604 11.8733 13.6932 11.8994C13.726 11.9255 13.7772 11.9473 13.8468 11.9647L14.022 12.0077C14.1276 12.0333 14.2062 12.0725 14.2579 12.1253C14.3097 12.1775 14.3355 12.2449 14.3355 12.3274C14.3355 12.395 14.3161 12.4554 14.2771 12.5087C14.2387 12.562 14.1849 12.604 14.1158 12.6347C14.0466 12.6654 13.9662 12.6808 13.8745 12.6808C13.7541 12.6808 13.6545 12.6547 13.5756 12.6024C13.4967 12.5502 13.4468 12.4739 13.4258 12.3735L13.5979 12.3304C13.6143 12.394 13.6453 12.4416 13.6909 12.4734C13.737 12.5051 13.7972 12.521 13.8714 12.521C13.956 12.521 14.0231 12.5031 14.0727 12.4672C14.1229 12.4308 14.148 12.3873 14.148 12.3366C14.148 12.2956 14.1337 12.2613 14.105 12.2336C14.0763 12.2055 14.0323 12.1845 13.9729 12.1706L13.7762 12.1245C13.6681 12.0989 13.5887 12.0592 13.538 12.0054C13.4878 11.9511 13.4627 11.8833 13.4627 11.8018C13.4627 11.7352 13.4814 11.6763 13.5188 11.6251C13.5567 11.5739 13.6081 11.5336 13.6732 11.5045C13.7388 11.4753 13.813 11.4607 13.896 11.4607C14.0128 11.4607 14.1045 11.4863 14.1711 11.5375C14.2382 11.5887 14.2858 11.6563 14.314 11.7403ZM15.0879 12.6808C14.9773 12.6808 14.882 12.6547 14.8021 12.6024C14.7222 12.5502 14.6607 12.4782 14.6177 12.3865C14.5747 12.2948 14.5532 12.1901 14.5532 12.0723C14.5532 11.9524 14.5752 11.8466 14.6192 11.7549C14.6638 11.6627 14.7258 11.5908 14.8052 11.539C14.8851 11.4868 14.9783 11.4607 15.0849 11.4607C15.1678 11.4607 15.2426 11.476 15.3092 11.5068C15.3758 11.5375 15.4304 11.5805 15.4729 11.6358C15.5154 11.6912 15.5418 11.7557 15.552 11.8295H15.3707C15.3569 11.7757 15.3261 11.728 15.2785 11.6866C15.2314 11.6445 15.1678 11.6235 15.0879 11.6235C15.0172 11.6235 14.9553 11.642 14.902 11.6789C14.8492 11.7152 14.808 11.7667 14.7783 11.8333C14.7491 11.8994 14.7345 11.977 14.7345 12.0661C14.7345 12.1573 14.7488 12.2367 14.7775 12.3043C14.8067 12.3719 14.8477 12.4244 14.9005 12.4618C14.9537 12.4992 15.0162 12.5179 15.0879 12.5179C15.1351 12.5179 15.1778 12.5097 15.2163 12.4933C15.2547 12.4769 15.2872 12.4534 15.3138 12.4226C15.3405 12.3919 15.3594 12.355 15.3707 12.312H15.552C15.5418 12.3817 15.5164 12.4444 15.476 12.5002C15.436 12.5556 15.383 12.5996 15.3169 12.6324C15.2513 12.6647 15.175 12.6808 15.0879 12.6808ZM15.8171 12.6562V11.476H15.9984V12.6562H15.8171ZM15.9093 11.2793C15.874 11.2793 15.8435 11.2673 15.8179 11.2432C15.7928 11.2191 15.7802 11.1902 15.7802 11.1564C15.7802 11.1226 15.7928 11.0936 15.8179 11.0696C15.8435 11.0455 15.874 11.0334 15.9093 11.0334C15.9447 11.0334 15.9749 11.0455 16 11.0696C16.0256 11.0936 16.0384 11.1226 16.0384 11.1564C16.0384 11.1902 16.0256 11.2191 16 11.2432C15.9749 11.2673 15.9447 11.2793 15.9093 11.2793ZM16.4996 12.2259L16.4965 12.0016H16.5334L17.0498 11.476H17.2741L16.724 12.0323H16.7086L16.4996 12.2259ZM16.3306 12.6562V11.0826H16.5119V12.6562H16.3306ZM17.0805 12.6562L16.6195 12.0723L16.7486 11.9463L17.311 12.6562H17.0805ZM17.5075 12.6562V11.476H17.6888V12.6562H17.5075ZM17.5997 11.2793C17.5644 11.2793 17.5339 11.2673 17.5083 11.2432C17.4832 11.2191 17.4706 11.1902 17.4706 11.1564C17.4706 11.1226 17.4832 11.0936 17.5083 11.0696C17.5339 11.0455 17.5644 11.0334 17.5997 11.0334C17.6351 11.0334 17.6653 11.0455 17.6904 11.0696C17.716 11.0936 17.7288 11.1226 17.7288 11.1564C17.7288 11.1902 17.716 11.2191 17.6904 11.2432C17.6653 11.2673 17.6351 11.2793 17.5997 11.2793ZM18.5342 11.476V11.6297H17.9226V11.476H18.5342ZM18.1009 11.1933H18.2822V12.3181C18.2822 12.3694 18.2896 12.4078 18.3045 12.4334C18.3199 12.4585 18.3393 12.4754 18.3629 12.4841C18.387 12.4923 18.4123 12.4964 18.439 12.4964C18.4589 12.4964 18.4753 12.4954 18.4881 12.4933C18.5009 12.4908 18.5112 12.4887 18.5189 12.4872L18.5557 12.6501C18.5434 12.6547 18.5263 12.6593 18.5043 12.6639C18.4822 12.669 18.4543 12.6716 18.4205 12.6716C18.3693 12.6716 18.3191 12.6606 18.2699 12.6386C18.2212 12.6165 18.1808 12.583 18.1485 12.5379C18.1168 12.4928 18.1009 12.436 18.1009 12.3673V11.1933Z" fill="white"/>
</g>
<defs>
<clipPath id="clip0_177_625">
<rect width="5.15625" height="1.78125" fill="white" transform="translate(13.4062 10.9688)"/>
</clipPath>
</defs>
</svg>
