<svg width="24" height="24" viewBox="0 0 24 24" fill="none" xmlns="http://www.w3.org/2000/svg">
<g clip-path="url(#clip0_177_206)">
<path d="M12.0827 0.217102C9.08228 0.21715 6.20476 1.40909 4.08314 3.53071C1.96152 5.65233 0.769579 8.52985 0.769531 11.5303C0.769627 14.5307 1.96158 17.4081 4.0832 19.5297C6.20482 21.6513 9.08231 22.8432 12.0827 22.8433C15.0582 22.8432 17.9139 21.6709 20.0312 19.5803C22.1485 17.4897 23.3569 14.6491 23.3948 11.6739L23.3957 11.5302L23.3948 11.3865C23.3569 8.41123 22.1485 5.57068 20.0312 3.48009C17.9139 1.3895 15.0582 0.217195 12.0827 0.217102Z" fill="white"/>
<path d="M9.49868 6.71161C9.5559 6.71161 9.61256 6.70034 9.66543 6.67844C9.7183 6.65655 9.76633 6.62445 9.8068 6.58399C9.84726 6.54352 9.87935 6.49549 9.90125 6.44262C9.92315 6.38975 9.93442 6.33309 9.93442 6.27587C9.93442 6.21865 9.92315 6.16198 9.90125 6.10912C9.87935 6.05625 9.84726 6.00821 9.8068 5.96775C9.76633 5.92729 9.7183 5.89519 9.66543 5.8733C9.61256 5.8514 9.5559 5.84013 9.49868 5.84013C9.3831 5.84013 9.27226 5.88604 9.19053 5.96777C9.1088 6.04949 9.06289 6.16034 9.06289 6.27591C9.06289 6.39149 9.1088 6.50234 9.19053 6.58406C9.27226 6.66579 9.3831 6.71161 9.49868 6.71161ZM8.56033 7.36863C8.67226 7.36863 8.77961 7.32416 8.85876 7.24502C8.93791 7.16587 8.98237 7.05852 8.98237 6.94659C8.98237 6.83465 8.93791 6.7273 8.85876 6.64816C8.77961 6.56901 8.67226 6.52454 8.56033 6.52454C8.4484 6.52454 8.34105 6.56901 8.2619 6.64816C8.18275 6.7273 8.13828 6.83465 8.13828 6.94659C8.13828 7.05852 8.18275 7.16587 8.2619 7.24502C8.34105 7.32416 8.4484 7.36863 8.56033 7.36863ZM7.65772 7.78668C7.71041 7.78748 7.76272 7.77779 7.81162 7.75818C7.86053 7.73857 7.90504 7.70943 7.94258 7.67246C7.98012 7.63548 8.00992 7.59141 8.03027 7.54281C8.05062 7.49421 8.0611 7.44205 8.0611 7.38936C8.0611 7.33667 8.05062 7.28451 8.03027 7.23591C8.00992 7.18731 7.98012 7.14324 7.94258 7.10626C7.90504 7.06929 7.86053 7.04015 7.81162 7.02054C7.76272 7.00093 7.71041 6.99124 7.65772 6.99204C7.55234 6.99204 7.45126 7.0339 7.37674 7.10842C7.30222 7.18294 7.26036 7.28402 7.26036 7.3894C7.26036 7.49479 7.30222 7.59587 7.37674 7.67039C7.45126 7.74491 7.55234 7.78668 7.65772 7.78668ZM10.2902 6.19259C10.3497 6.19343 10.4087 6.18245 10.4639 6.16028C10.5191 6.13811 10.5693 6.1052 10.6116 6.06345C10.654 6.02171 10.6876 5.97196 10.7106 5.9171C10.7335 5.86225 10.7453 5.80338 10.7453 5.74391C10.7453 5.68445 10.7335 5.62558 10.7106 5.57072C10.6876 5.51587 10.654 5.46612 10.6116 5.42438C10.5693 5.38263 10.5191 5.34971 10.4639 5.32755C10.4087 5.30538 10.3497 5.2944 10.2902 5.29524C10.1728 5.2976 10.061 5.34591 9.9788 5.42978C9.89659 5.51366 9.85054 5.62642 9.85054 5.74387C9.85054 5.86131 9.89659 5.97408 9.9788 6.05795C10.061 6.14183 10.1728 6.19022 10.2902 6.19259ZM6.98048 6.84452C7.06044 6.84452 7.13714 6.81276 7.19368 6.75621C7.25023 6.69966 7.28199 6.62297 7.28199 6.543C7.28199 6.46304 7.25023 6.38634 7.19368 6.3298C7.13714 6.27325 7.06044 6.24148 6.98048 6.24148C6.90051 6.24148 6.82382 6.27325 6.76727 6.3298C6.71073 6.38634 6.67896 6.46304 6.67896 6.543C6.67896 6.62297 6.71073 6.69966 6.76727 6.75621C6.82382 6.81276 6.90051 6.84452 6.98048 6.84452ZM6.23609 8.49605C6.33109 8.49605 6.42219 8.45831 6.48936 8.39114C6.55653 8.32397 6.59427 8.23286 6.59427 8.13787C6.59427 8.04288 6.55653 7.95177 6.48936 7.8846C6.42219 7.81743 6.33109 7.7797 6.23609 7.7797C6.1411 7.7797 6.05 7.81743 5.98283 7.8846C5.91565 7.95177 5.87792 8.04288 5.87792 8.13787C5.87792 8.23286 5.91565 8.32397 5.98283 8.39114C6.05 8.45831 6.1411 8.49605 6.23609 8.49605ZM6.6917 5.65995C6.80616 5.65995 6.91594 5.61448 6.99687 5.53355C7.07781 5.45261 7.12328 5.34284 7.12328 5.22838C7.12328 5.11392 7.07781 5.00415 6.99687 4.92321C6.91594 4.84228 6.80616 4.79681 6.6917 4.79681C6.57725 4.79681 6.46747 4.84228 6.38654 4.92321C6.3056 5.00415 6.26014 5.11392 6.26014 5.22838C6.26014 5.34284 6.3056 5.45261 6.38654 5.53355C6.46747 5.61448 6.57725 5.65995 6.6917 5.65995ZM7.85632 6.46766C7.9008 6.4687 7.94505 6.46083 7.98645 6.44452C8.02785 6.42821 8.06558 6.40379 8.09741 6.3727C8.12924 6.3416 8.15453 6.30446 8.1718 6.26345C8.18907 6.22244 8.19796 6.17839 8.19796 6.13389C8.19796 6.08939 8.18907 6.04534 8.1718 6.00433C8.15453 5.96332 8.12924 5.92617 8.09741 5.89508C8.06558 5.86398 8.02785 5.83956 7.98645 5.82325C7.94505 5.80695 7.9008 5.79908 7.85632 5.80012C7.76914 5.80215 7.68622 5.83821 7.62529 5.90058C7.56435 5.96295 7.53024 6.04669 7.53024 6.13389C7.53024 6.22109 7.56435 6.30482 7.62529 6.3672C7.68622 6.42957 7.76914 6.46563 7.85632 6.46766ZM13.6122 5.47143C13.7157 5.47143 13.815 5.4303 13.8882 5.3571C13.9614 5.2839 14.0025 5.18461 14.0025 5.08109C14.0025 4.97757 13.9614 4.87828 13.8882 4.80508C13.815 4.73188 13.7157 4.69075 13.6122 4.69075C13.5086 4.69075 13.4093 4.73188 13.3361 4.80508C13.2629 4.87828 13.2218 4.97757 13.2218 5.08109C13.2218 5.18461 13.2629 5.2839 13.3361 5.3571C13.4093 5.4303 13.5086 5.47143 13.6122 5.47143ZM5.42594 7.54046C5.45701 7.54046 5.48777 7.53434 5.51648 7.52245C5.54519 7.51056 5.57127 7.49313 5.59324 7.47116C5.61521 7.44919 5.63264 7.4231 5.64453 7.3944C5.65642 7.36569 5.66254 7.33492 5.66254 7.30385C5.66254 7.27278 5.65642 7.24201 5.64453 7.21331C5.63264 7.1846 5.61521 7.15852 5.59324 7.13655C5.57127 7.11458 5.54519 7.09715 5.51648 7.08526C5.48777 7.07337 5.45701 7.06725 5.42594 7.06725C5.36318 7.06725 5.303 7.09218 5.25863 7.13655C5.21426 7.18092 5.18933 7.2411 5.18933 7.30385C5.18933 7.36661 5.21426 7.42679 5.25863 7.47116C5.303 7.51553 5.36318 7.54046 5.42594 7.54046ZM6.21205 7.31764C6.24951 7.3186 6.28679 7.31204 6.32168 7.29836C6.35657 7.28468 6.38836 7.26416 6.4152 7.238C6.44203 7.21184 6.46335 7.18057 6.47792 7.14604C6.49248 7.11152 6.49998 7.07442 6.49998 7.03695C6.49998 6.99947 6.49248 6.96238 6.47792 6.92785C6.46335 6.89332 6.44203 6.86205 6.4152 6.83589C6.38836 6.80973 6.35657 6.78921 6.32168 6.77553C6.28679 6.76185 6.24951 6.7553 6.21205 6.75625C6.13847 6.75757 6.06834 6.78773 6.01677 6.84024C5.9652 6.89274 5.93631 6.9634 5.93631 7.03699C5.93631 7.11059 5.9652 7.18124 6.01677 7.23375C6.06834 7.28625 6.13847 7.31632 6.21205 7.31764ZM4.77854 6.4281C4.8279 6.42887 4.87693 6.41982 4.92276 6.40146C4.96859 6.3831 5.01031 6.35581 5.04549 6.32117C5.08068 6.28653 5.10862 6.24524 5.12769 6.1997C5.14676 6.15416 5.15658 6.10528 5.15658 6.05591C5.15658 6.00654 5.14676 5.95766 5.12769 5.91212C5.10862 5.86658 5.08068 5.82529 5.04549 5.79065C5.01031 5.75602 4.96859 5.72872 4.92276 5.71036C4.87693 5.69201 4.8279 5.68295 4.77854 5.68372C4.68083 5.68524 4.58764 5.72513 4.51909 5.79476C4.45053 5.8644 4.41211 5.95819 4.41211 6.05591C4.41211 6.15363 4.45053 6.24743 4.51909 6.31706C4.58764 6.38669 4.68083 6.42658 4.77854 6.4281ZM6.2429 6.26398C6.26873 6.26454 6.29441 6.25994 6.31844 6.25044C6.34247 6.24094 6.36435 6.22674 6.38282 6.20867C6.40129 6.1906 6.41596 6.16902 6.42597 6.1452C6.43599 6.12139 6.44115 6.09581 6.44115 6.06997C6.44115 6.04414 6.43599 6.01856 6.42597 5.99474C6.41596 5.97093 6.40129 5.94935 6.38282 5.93128C6.36435 5.91321 6.34247 5.89901 6.31844 5.88951C6.29441 5.88001 6.26873 5.8754 6.2429 5.87596C6.19217 5.87706 6.14389 5.89798 6.1084 5.93425C6.07291 5.97051 6.05304 6.01923 6.05304 6.06997C6.05304 6.12071 6.07291 6.16944 6.1084 6.2057C6.14389 6.24197 6.19217 6.26289 6.2429 6.26398ZM8.84075 5.96151C8.88832 5.96151 8.93542 5.95214 8.97937 5.93394C9.02331 5.91574 9.06324 5.88906 9.09688 5.85542C9.13051 5.82179 9.15719 5.78186 9.17539 5.73791C9.1936 5.69397 9.20297 5.64687 9.20297 5.5993C9.20297 5.55174 9.1936 5.50463 9.17539 5.46069C9.15719 5.41674 9.13051 5.37681 9.09688 5.34318C9.06324 5.30954 9.02331 5.28286 8.97937 5.26466C8.93542 5.24646 8.88832 5.23709 8.84075 5.23709C8.74469 5.23709 8.65256 5.27525 8.58463 5.34318C8.5167 5.41111 8.47854 5.50324 8.47854 5.5993C8.47854 5.69537 8.5167 5.7875 8.58463 5.85542C8.65256 5.92335 8.74469 5.96151 8.84075 5.96151ZM11.5924 6.17117C11.6339 6.17188 11.6751 6.16432 11.7137 6.14893C11.7522 6.13354 11.7873 6.11062 11.8169 6.08153C11.8465 6.05243 11.87 6.01773 11.886 5.97946C11.9021 5.94118 11.9103 5.90009 11.9103 5.85859C11.9103 5.81708 11.9021 5.776 11.886 5.73772C11.87 5.69944 11.8465 5.66475 11.8169 5.63565C11.7873 5.60655 11.7522 5.58364 11.7137 5.56825C11.6751 5.55286 11.6339 5.54529 11.5924 5.546C11.5108 5.54797 11.4332 5.58176 11.3762 5.64016C11.3192 5.69856 11.2873 5.77693 11.2873 5.85854C11.2873 5.94015 11.3192 6.01853 11.3762 6.07693C11.4332 6.13533 11.5108 6.16921 11.5924 6.17117ZM12.1646 4.22099C12.1914 4.22099 12.218 4.2157 12.2429 4.20542C12.2677 4.19514 12.2902 4.18007 12.3092 4.16107C12.3282 4.14207 12.3433 4.11952 12.3536 4.0947C12.3639 4.06988 12.3692 4.04328 12.3692 4.01641C12.3692 3.98954 12.3639 3.96294 12.3536 3.93812C12.3433 3.9133 12.3282 3.89075 12.3092 3.87175C12.2902 3.85275 12.2677 3.83768 12.2429 3.8274C12.218 3.81712 12.1914 3.81183 12.1646 3.81183C12.1103 3.81183 12.0583 3.83338 12.0199 3.87175C11.9816 3.91012 11.96 3.96215 11.96 4.01641C11.96 4.07067 11.9816 4.1227 12.0199 4.16107C12.0583 4.19944 12.1103 4.22099 12.1646 4.22099ZM12.8297 5.39867C12.9203 5.39867 13.0073 5.36265 13.0714 5.29854C13.1355 5.23443 13.1715 5.14749 13.1715 5.05682C13.1715 4.96616 13.1355 4.87921 13.0714 4.8151C13.0073 4.75099 12.9203 4.71498 12.8297 4.71498C12.739 4.71498 12.6521 4.75099 12.5879 4.8151C12.5238 4.87921 12.4878 4.96616 12.4878 5.05682C12.4878 5.14749 12.5238 5.23443 12.5879 5.29854C12.6521 5.36265 12.739 5.39867 12.8297 5.39867ZM9.41458 5.19926C9.50774 5.19926 9.59709 5.16225 9.66297 5.09637C9.72885 5.03049 9.76586 4.94114 9.76586 4.84798C9.76586 4.75481 9.72885 4.66546 9.66297 4.59959C9.59709 4.53371 9.50774 4.4967 9.41458 4.4967C9.32141 4.4967 9.23206 4.53371 9.16619 4.59959C9.10031 4.66546 9.0633 4.75481 9.0633 4.84798C9.0633 4.94114 9.10031 5.03049 9.16619 5.09637C9.23206 5.16225 9.32141 5.19926 9.41458 5.19926ZM5.01432 8.57516C5.08993 8.57516 5.16243 8.54512 5.21589 8.49167C5.26934 8.43821 5.29938 8.3657 5.29938 8.2901C5.29938 8.2145 5.26934 8.142 5.21589 8.08854C5.16243 8.03508 5.08993 8.00505 5.01432 8.00505C4.93872 8.00505 4.86622 8.03508 4.81276 8.08854C4.7593 8.142 4.72927 8.2145 4.72927 8.2901C4.72927 8.3657 4.7593 8.43821 4.81276 8.49167C4.86622 8.54512 4.93872 8.57516 5.01432 8.57516Z" fill="#AFDAD2" stroke="white" stroke-width="0.147661"/>
<path d="M14.4031 5.54603C14.5182 5.54603 14.6286 5.50029 14.71 5.41888C14.7914 5.33747 14.8372 5.22705 14.8372 5.11192C14.8372 4.99678 14.7914 4.88637 14.71 4.80495C14.6286 4.72354 14.5182 4.67781 14.4031 4.67781C14.2879 4.67781 14.1775 4.72354 14.0961 4.80495C14.0147 4.88637 13.9689 4.99678 13.9689 5.11192C13.9689 5.22705 14.0147 5.33747 14.0961 5.41888C14.1775 5.50029 14.2879 5.54603 14.4031 5.54603ZM10.2143 5.25199C10.2666 5.25199 10.3184 5.24169 10.3668 5.22166C10.4151 5.20164 10.459 5.17229 10.496 5.13529C10.533 5.09829 10.5624 5.05436 10.5824 5.00602C10.6024 4.95768 10.6127 4.90586 10.6127 4.85354C10.6127 4.80121 10.6024 4.7494 10.5824 4.70105C10.5624 4.65271 10.533 4.60879 10.496 4.57179C10.459 4.53479 10.4151 4.50544 10.3668 4.48541C10.3184 4.46539 10.2666 4.45508 10.2143 4.45508C10.1086 4.45508 10.0072 4.49706 9.93252 4.57179C9.8578 4.64651 9.81582 4.74786 9.81582 4.85354C9.81582 4.95921 9.8578 5.06056 9.93252 5.13529C10.0072 5.21001 10.1086 5.25199 10.2143 5.25199ZM5.58476 5.57315C5.68274 5.57315 5.7767 5.53423 5.84598 5.46495C5.91527 5.39567 5.95419 5.30171 5.95419 5.20373C5.95419 5.10575 5.91527 5.01179 5.84598 4.94251C5.7767 4.87323 5.68274 4.8343 5.58476 4.8343C5.48678 4.8343 5.39282 4.87323 5.32354 4.94251C5.25426 5.01179 5.21534 5.10575 5.21534 5.20373C5.21534 5.30171 5.25426 5.39567 5.32354 5.46495C5.39282 5.53423 5.48678 5.57315 5.58476 5.57315ZM7.64073 4.61938C7.75401 4.61938 7.86265 4.57438 7.94275 4.49428C8.02285 4.41418 8.06785 4.30554 8.06785 4.19226C8.06785 4.07898 8.02285 3.97034 7.94275 3.89023C7.86265 3.81013 7.75401 3.76513 7.64073 3.76513C7.52745 3.76513 7.41881 3.81013 7.33871 3.89023C7.25861 3.97034 7.21361 4.07898 7.21361 4.19226C7.21361 4.30554 7.25861 4.41418 7.33871 4.49428C7.41881 4.57438 7.52745 4.61938 7.64073 4.61938ZM15.6539 5.19457C15.7238 5.19457 15.7909 5.16677 15.8404 5.11729C15.8899 5.06782 15.9177 5.00071 15.9177 4.93074C15.9177 4.86077 15.8899 4.79367 15.8404 4.74419C15.7909 4.69472 15.7238 4.66692 15.6539 4.66692C15.5839 4.66692 15.5168 4.69472 15.4673 4.74419C15.4178 4.79367 15.39 4.86077 15.39 4.93074C15.39 5.00071 15.4178 5.06782 15.4673 5.11729C15.5168 5.16677 15.5839 5.19457 15.6539 5.19457ZM6.4645 4.11723C6.50904 4.11796 6.55328 4.10982 6.59465 4.09328C6.63601 4.07674 6.67367 4.05214 6.70542 4.0209C6.73718 3.98966 6.7624 3.95241 6.77962 3.91133C6.79683 3.87024 6.8057 3.82614 6.8057 3.7816C6.8057 3.73705 6.79683 3.69295 6.77962 3.65187C6.7624 3.61078 6.73718 3.57354 6.70542 3.5423C6.67367 3.51106 6.63601 3.48645 6.59465 3.46991C6.55328 3.45338 6.50904 3.44524 6.4645 3.44597C6.37645 3.44742 6.29248 3.48341 6.23072 3.5462C6.16896 3.60898 6.13435 3.69353 6.13435 3.7816C6.13435 3.86967 6.16896 3.95421 6.23072 4.017C6.29248 4.07978 6.37645 4.11578 6.4645 4.11723ZM7.97786 5.62024C8.0536 5.62024 8.12624 5.59015 8.1798 5.53659C8.23336 5.48303 8.26345 5.41039 8.26345 5.33464C8.26345 5.2589 8.23336 5.18625 8.1798 5.1327C8.12624 5.07914 8.0536 5.04905 7.97786 5.04905C7.9021 5.04905 7.82945 5.07914 7.77588 5.13271C7.72231 5.18628 7.69222 5.25893 7.69222 5.33469C7.69222 5.41044 7.72231 5.4831 7.77588 5.53667C7.82945 5.59024 7.9021 5.62024 7.97786 5.62024ZM8.662 5.00042C8.70054 5.0011 8.73883 4.9941 8.77463 4.97982C8.81043 4.96554 8.84303 4.94428 8.87053 4.91727C8.89802 4.89025 8.91986 4.85803 8.93477 4.82249C8.94968 4.78694 8.95736 4.74878 8.95736 4.71024C8.95736 4.6717 8.94968 4.63354 8.93477 4.59799C8.91986 4.56245 8.89802 4.53023 8.87053 4.50322C8.84303 4.4762 8.81043 4.45494 8.77463 4.44066C8.73883 4.42638 8.70054 4.41938 8.662 4.42006C8.58593 4.42141 8.51343 4.45257 8.46011 4.50684C8.40679 4.56112 8.37691 4.63416 8.37691 4.71024C8.37691 4.78632 8.40679 4.85936 8.46011 4.91364C8.51343 4.96791 8.58593 4.99907 8.662 5.00042ZM4.18055 5.73754C4.25803 5.73754 4.33233 5.70677 4.38712 5.65198C4.4419 5.5972 4.47268 5.52289 4.47268 5.44542C4.47268 5.36794 4.4419 5.29363 4.38712 5.23885C4.33233 5.18406 4.25803 5.15329 4.18055 5.15329C4.10307 5.15329 4.02877 5.18406 3.97398 5.23885C3.9192 5.29363 3.88842 5.36794 3.88842 5.44542C3.88842 5.52289 3.9192 5.5972 3.97398 5.65198C4.02877 5.70677 4.10307 5.73754 4.18055 5.73754ZM4.98508 4.6016C5.05616 4.6016 5.12432 4.57336 5.17458 4.52311C5.22484 4.47285 5.25308 4.40468 5.25308 4.3336C5.25308 4.26253 5.22484 4.19436 5.17458 4.1441C5.12432 4.09384 5.05616 4.06561 4.98508 4.06561C4.914 4.06561 4.84584 4.09384 4.79558 4.1441C4.74532 4.19436 4.71709 4.26253 4.71709 4.3336C4.71709 4.40468 4.74532 4.47285 4.79558 4.52311C4.84584 4.57336 4.914 4.6016 4.98508 4.6016ZM11.1682 5.43362C11.2278 5.43362 11.2849 5.40996 11.3271 5.36783C11.3692 5.3257 11.3929 5.26857 11.3929 5.20899C11.3929 5.14942 11.3692 5.09228 11.3271 5.05015C11.2849 5.00803 11.2278 4.98436 11.1682 4.98436C11.1087 4.98436 11.0515 5.00803 11.0094 5.05015C10.9673 5.09228 10.9436 5.14942 10.9436 5.20899C10.9436 5.26857 10.9673 5.3257 11.0094 5.36783C11.0515 5.40996 11.1087 5.43362 11.1682 5.43362ZM3.97443 7.21642C4.0729 7.21642 4.16733 7.1773 4.23696 7.10768C4.30659 7.03805 4.34571 6.94361 4.34571 6.84514C4.34571 6.74667 4.30659 6.65223 4.23696 6.5826C4.16733 6.51297 4.0729 6.47385 3.97443 6.47385C3.87596 6.47385 3.78152 6.51297 3.71189 6.5826C3.64226 6.65223 3.60314 6.74667 3.60314 6.84514C3.60314 6.94361 3.64226 7.03805 3.71189 7.10768C3.78152 7.1773 3.87596 7.21642 3.97443 7.21642ZM3.14522 6.59043C3.18229 6.5911 3.21913 6.58438 3.25358 6.57065C3.28803 6.55692 3.3194 6.53647 3.34585 6.51049C3.37231 6.4845 3.39333 6.45351 3.40767 6.41931C3.42202 6.38512 3.4294 6.3484 3.4294 6.31132C3.4294 6.27424 3.42202 6.23753 3.40767 6.20333C3.39333 6.16914 3.37231 6.13814 3.34585 6.11216C3.3194 6.08617 3.28803 6.06572 3.25358 6.052C3.21913 6.03827 3.18229 6.03154 3.14522 6.03221C3.07206 6.03353 3.00235 6.06352 2.95109 6.11572C2.89982 6.16792 2.87109 6.23816 2.87109 6.31132C2.87109 6.38449 2.89982 6.45473 2.95109 6.50693C3.00235 6.55913 3.07206 6.58911 3.14522 6.59043ZM11.9344 5.36839C12.0089 5.36839 12.0803 5.33881 12.1329 5.28615C12.1856 5.23349 12.2152 5.16207 12.2152 5.0876C12.2152 5.01313 12.1856 4.94171 12.1329 4.88906C12.0803 4.8364 12.0089 4.80682 11.9344 4.80682C11.8599 4.80682 11.7885 4.8364 11.7358 4.88906C11.6832 4.94171 11.6536 5.01313 11.6536 5.0876C11.6536 5.16207 11.6832 5.23349 11.7358 5.28615C11.7885 5.33881 11.8599 5.36839 11.9344 5.36839ZM5.55156 6.82622C5.66635 6.82622 5.77645 6.78062 5.85762 6.69945C5.93879 6.61827 5.9844 6.50818 5.9844 6.39338C5.9844 6.27859 5.93879 6.16849 5.85762 6.08732C5.77645 6.00614 5.66635 5.96054 5.55156 5.96054C5.43676 5.96054 5.32667 6.00614 5.24549 6.08732C5.16432 6.16849 5.11872 6.27859 5.11872 6.39338C5.11872 6.50818 5.16432 6.61827 5.24549 6.69945C5.32667 6.78062 5.43676 6.82622 5.55156 6.82622Z" fill="#AFDAD2" stroke="white" stroke-width="0.147661"/>
<path d="M15.0846 4.85832C15.1421 4.85915 15.1992 4.84854 15.2526 4.82711C15.306 4.80568 15.3545 4.77385 15.3955 4.73348C15.4365 4.6931 15.469 4.64499 15.4912 4.59194C15.5134 4.53888 15.5248 4.48195 15.5248 4.42443C15.5248 4.36692 15.5134 4.30998 15.4912 4.25693C15.469 4.20387 15.4365 4.15576 15.3955 4.11539C15.3545 4.07502 15.306 4.04319 15.2526 4.02176C15.1992 4.00033 15.1421 3.98972 15.0846 3.99055C14.9706 3.9922 14.8619 4.03864 14.7819 4.11983C14.7018 4.20101 14.657 4.31043 14.657 4.42443C14.657 4.53843 14.7018 4.64785 14.7819 4.72904C14.8619 4.81023 14.9706 4.85667 15.0846 4.85832ZM4.20302 8.94675C4.26981 8.94675 4.33387 8.92022 4.3811 8.87299C4.42833 8.82576 4.45487 8.7617 4.45487 8.69491C4.45487 8.62811 4.42833 8.56405 4.3811 8.51682C4.33387 8.46959 4.26981 8.44306 4.20302 8.44306C4.13623 8.44306 4.07217 8.46959 4.02494 8.51682C3.97771 8.56405 3.95117 8.62811 3.95117 8.69491C3.95117 8.7617 3.97771 8.82576 4.02494 8.87299C4.07217 8.92022 4.13623 8.94675 4.20302 8.94675ZM10.4938 4.03437C10.5397 4.03511 10.5853 4.02671 10.628 4.00964C10.6707 3.99257 10.7095 3.96719 10.7422 3.93496C10.775 3.90274 10.801 3.86431 10.8188 3.82194C10.8365 3.77956 10.8457 3.73407 10.8457 3.68812C10.8457 3.64218 10.8365 3.59669 10.8188 3.55431C10.801 3.51193 10.775 3.47351 10.7422 3.44129C10.7095 3.40906 10.6707 3.38367 10.628 3.36661C10.5853 3.34954 10.5397 3.34114 10.4938 3.34188C10.4029 3.34335 10.3163 3.38048 10.2525 3.44525C10.1888 3.51002 10.1531 3.59725 10.1531 3.68812C10.1531 3.77899 10.1888 3.86622 10.2525 3.931C10.3163 3.99577 10.4029 4.0329 10.4938 4.03437ZM17.6876 4.51121C17.7814 4.51121 17.8713 4.47394 17.9377 4.4076C18.004 4.34127 18.0413 4.25129 18.0413 4.15748C18.0413 4.06366 18.004 3.97369 17.9377 3.90736C17.8713 3.84102 17.7814 3.80375 17.6876 3.80375C17.5937 3.80375 17.5038 3.84102 17.4374 3.90736C17.3711 3.97369 17.3338 4.06366 17.3338 4.15748C17.3338 4.25129 17.3711 4.34127 17.4374 4.4076C17.5038 4.47394 17.5937 4.51121 17.6876 4.51121ZM12.9823 4.33103C13.057 4.33103 13.1287 4.30135 13.1815 4.24853C13.2343 4.1957 13.264 4.12405 13.264 4.04934C13.264 3.97463 13.2343 3.90298 13.1815 3.85015C13.1287 3.79732 13.057 3.76764 12.9823 3.76764C12.9076 3.76764 12.8359 3.79732 12.7831 3.85015C12.7303 3.90298 12.7006 3.97463 12.7006 4.04934C12.7006 4.12405 12.7303 4.1957 12.7831 4.24853C12.8359 4.30135 12.9076 4.33103 12.9823 4.33103ZM6.84225 8.04642C6.93962 8.04642 7.03301 8.00773 7.10186 7.93888C7.17072 7.87002 7.2094 7.77664 7.2094 7.67926C7.2094 7.58189 7.17072 7.4885 7.10186 7.41964C7.03301 7.35079 6.93962 7.3121 6.84225 7.3121C6.74487 7.3121 6.65148 7.35079 6.58263 7.41964C6.51377 7.4885 6.47509 7.58189 6.47509 7.67926C6.47509 7.77664 6.51377 7.87002 6.58263 7.93888C6.65148 8.00773 6.74487 8.04642 6.84225 8.04642ZM13.9375 4.45224C14.0308 4.45224 14.1202 4.4152 14.1861 4.34927C14.252 4.28334 14.2891 4.19392 14.2891 4.10069C14.2891 4.00745 14.252 3.91803 14.1861 3.8521C14.1202 3.78617 14.0308 3.74914 13.9375 3.74914C13.8443 3.74914 13.7549 3.78617 13.6889 3.8521C13.623 3.91803 13.586 4.00745 13.586 4.10069C13.586 4.19392 13.623 4.28334 13.6889 4.34927C13.7549 4.4152 13.8443 4.45224 13.9375 4.45224ZM16.4268 4.7949C16.5041 4.7949 16.5782 4.7642 16.6328 4.70956C16.6874 4.65492 16.7181 4.58082 16.7181 4.50354C16.7181 4.42627 16.6874 4.35216 16.6328 4.29752C16.5782 4.24288 16.5041 4.21219 16.4268 4.21219C16.3495 4.21219 16.2754 4.24288 16.2208 4.29752C16.1661 4.35216 16.1354 4.42627 16.1354 4.50354C16.1354 4.58082 16.1661 4.65492 16.2208 4.70956C16.2754 4.7642 16.3495 4.7949 16.4268 4.7949ZM19.177 5.42633C19.2466 5.42633 19.3134 5.39866 19.3627 5.34941C19.4119 5.30015 19.4396 5.23335 19.4396 5.16369C19.4396 5.09403 19.4119 5.02723 19.3627 4.97797C19.3134 4.92872 19.2466 4.90105 19.177 4.90105C19.1073 4.90105 19.0405 4.92872 18.9912 4.97797C18.942 5.02723 18.9143 5.09403 18.9143 5.16369C18.9143 5.23335 18.942 5.30015 18.9912 5.34941C19.0405 5.39866 19.1073 5.42633 19.177 5.42633ZM9.3502 3.49674C9.41023 3.49674 9.4678 3.4729 9.51025 3.43045C9.5527 3.388 9.57655 3.33042 9.57655 3.27039C9.57655 3.21036 9.5527 3.15278 9.51025 3.11033C9.4678 3.06788 9.41023 3.04403 9.3502 3.04403C9.29016 3.04403 9.23259 3.06788 9.19014 3.11033C9.14769 3.15278 9.12384 3.21036 9.12384 3.27039C9.12384 3.33042 9.14769 3.388 9.19014 3.43045C9.23259 3.4729 9.29016 3.49674 9.3502 3.49674ZM11.4081 2.87547C11.496 2.87547 11.5802 2.84056 11.6424 2.77842C11.7045 2.71627 11.7394 2.63199 11.7394 2.5441C11.7394 2.45622 11.7045 2.37194 11.6424 2.30979C11.5802 2.24765 11.496 2.21274 11.4081 2.21274C11.3202 2.21274 11.2359 2.24765 11.1738 2.30979C11.1116 2.37194 11.0767 2.45622 11.0767 2.5441C11.0767 2.63199 11.1116 2.71627 11.1738 2.77842C11.2359 2.84056 11.3202 2.87547 11.4081 2.87547ZM19.1184 4.65165C19.2341 4.65165 19.3452 4.60565 19.4271 4.52378C19.5089 4.44191 19.5549 4.33087 19.5549 4.21509C19.5549 4.09931 19.5089 3.98827 19.4271 3.90639C19.3452 3.82452 19.2341 3.77853 19.1184 3.77853C19.0026 3.77853 18.8915 3.82452 18.8097 3.90639C18.7278 3.98827 18.6818 4.09931 18.6818 4.21509C18.6818 4.33087 18.7278 4.44191 18.8097 4.52378C18.8915 4.60565 19.0026 4.65165 19.1184 4.65165ZM10.9081 4.83001C11.0175 4.83001 11.1224 4.78654 11.1998 4.70917C11.2772 4.6318 11.3207 4.52687 11.3207 4.41745C11.3207 4.30803 11.2772 4.20309 11.1998 4.12572C11.1224 4.04835 11.0175 4.00488 10.9081 4.00488C10.7987 4.00488 10.6937 4.04835 10.6164 4.12572C10.539 4.20309 10.4955 4.30803 10.4955 4.41745C10.4955 4.52687 10.539 4.6318 10.6164 4.70917C10.6937 4.78654 10.7987 4.83001 10.9081 4.83001ZM12.4343 3.28409C12.5435 3.28409 12.6482 3.24073 12.7254 3.16354C12.8025 3.08636 12.8459 2.98168 12.8459 2.87252C12.8459 2.76337 12.8025 2.65869 12.7254 2.5815C12.6482 2.50432 12.5435 2.46096 12.4343 2.46096C12.3252 2.46096 12.2205 2.50431 12.1433 2.58149C12.0662 2.65866 12.0228 2.76334 12.0228 2.87248C12.0228 2.98162 12.0662 3.08629 12.1433 3.16347C12.2205 3.24064 12.3252 3.28409 12.4343 3.28409ZM16.0018 3.78533C16.0583 3.78616 16.1145 3.77574 16.1669 3.75468C16.2194 3.73363 16.2671 3.70235 16.3074 3.66268C16.3476 3.62301 16.3796 3.57573 16.4014 3.52359C16.4232 3.47145 16.4345 3.4155 16.4345 3.35898C16.4345 3.30246 16.4232 3.24651 16.4014 3.19437C16.3796 3.14223 16.3476 3.09495 16.3074 3.05528C16.2671 3.01561 16.2194 2.98433 16.1669 2.96328C16.1145 2.94222 16.0583 2.9318 16.0018 2.93263C15.8898 2.93426 15.783 2.9799 15.7044 3.05968C15.6257 3.13946 15.5817 3.24697 15.5817 3.35898C15.5817 3.47099 15.6257 3.5785 15.7044 3.65828C15.783 3.73806 15.8898 3.7837 16.0018 3.78533ZM20.4154 6.46539C20.4692 6.46652 20.5226 6.45693 20.5725 6.43715C20.6225 6.41738 20.668 6.38783 20.7064 6.35024C20.7448 6.31265 20.7753 6.26777 20.7961 6.21823C20.817 6.16869 20.8277 6.1155 20.8277 6.06176C20.8277 6.00802 20.817 5.95482 20.7961 5.90529C20.7753 5.85575 20.7448 5.81087 20.7064 5.77328C20.668 5.73568 20.6225 5.70613 20.5725 5.68636C20.5226 5.66659 20.4692 5.65699 20.4154 5.65813C20.3099 5.66037 20.2094 5.70388 20.1355 5.77933C20.0616 5.85478 20.0203 5.95617 20.0203 6.06176C20.0203 6.16735 20.0616 6.26874 20.1355 6.34419C20.2094 6.41964 20.3099 6.46315 20.4154 6.46539ZM11.3149 1.57904C11.3452 1.57904 11.3751 1.57308 11.4031 1.5615C11.431 1.54992 11.4564 1.53294 11.4778 1.51154C11.4992 1.49015 11.5162 1.46474 11.5278 1.43679C11.5394 1.40883 11.5453 1.37886 11.5453 1.3486C11.5453 1.31834 11.5394 1.28837 11.5278 1.26042C11.5162 1.23246 11.4992 1.20706 11.4778 1.18566C11.4564 1.16426 11.431 1.14729 11.4031 1.13571C11.3751 1.12412 11.3452 1.11816 11.3149 1.11816C11.2538 1.11816 11.1952 1.14244 11.152 1.18566C11.1087 1.22887 11.0845 1.28749 11.0845 1.3486C11.0845 1.40972 11.1087 1.46833 11.152 1.51154C11.1952 1.55476 11.2538 1.57904 11.3149 1.57904Z" fill="#AFDAD2" stroke="white" stroke-width="0.147661"/>
<path d="M14.9958 4.02531C15.0985 4.02531 15.1969 3.98453 15.2695 3.91195C15.3421 3.83937 15.3828 3.74093 15.3828 3.63828C15.3828 3.53564 15.3421 3.4372 15.2695 3.36461C15.1969 3.29203 15.0985 3.25126 14.9958 3.25126C14.8942 3.25281 14.7973 3.29427 14.726 3.36667C14.6547 3.43908 14.6147 3.53662 14.6147 3.63824C14.6147 3.73986 14.6547 3.8374 14.726 3.9098C14.7973 3.98221 14.8942 4.02375 14.9958 4.02531ZM14.4781 3.28192C14.5191 3.28192 14.5597 3.27384 14.5976 3.25815C14.6355 3.24245 14.6699 3.21944 14.6989 3.19043C14.7279 3.16143 14.7509 3.12699 14.7666 3.0891C14.7823 3.0512 14.7904 3.01058 14.7904 2.96956C14.7904 2.92854 14.7823 2.88792 14.7666 2.85003C14.7509 2.81213 14.7279 2.7777 14.6989 2.74869C14.6699 2.71969 14.6355 2.69668 14.5976 2.68098C14.5597 2.66528 14.5191 2.6572 14.4781 2.6572C14.3952 2.6572 14.3158 2.69011 14.2572 2.74869C14.1986 2.80727 14.1657 2.88672 14.1657 2.96956C14.1657 3.05241 14.1986 3.13186 14.2572 3.19043C14.3158 3.24901 14.3952 3.28192 14.4781 3.28192ZM12.9084 2.60186C12.961 2.60186 13.0131 2.59149 13.0617 2.57135C13.1104 2.55121 13.1546 2.52168 13.1918 2.48447C13.229 2.44725 13.2585 2.40306 13.2787 2.35443C13.2988 2.3058 13.3092 2.25368 13.3092 2.20105C13.3092 2.14841 13.2988 2.09629 13.2787 2.04766C13.2585 1.99903 13.229 1.95485 13.1918 1.91763C13.1546 1.88041 13.1104 1.85088 13.0617 1.83074C13.0131 1.8106 12.961 1.80023 12.9084 1.80023C12.8021 1.80023 12.7001 1.84246 12.6249 1.91763C12.5498 1.9928 12.5075 2.09474 12.5075 2.20105C12.5075 2.30735 12.5498 2.4093 12.6249 2.48447C12.7001 2.55963 12.8021 2.60186 12.9084 2.60186ZM8.48733 4.23624C8.54633 4.23624 8.60475 4.22462 8.65926 4.20204C8.71377 4.17946 8.76329 4.14637 8.80501 4.10465C8.84673 4.06294 8.87982 4.01341 8.9024 3.9589C8.92497 3.9044 8.9366 3.84598 8.9366 3.78698C8.9366 3.72798 8.92497 3.66956 8.9024 3.61505C8.87982 3.56055 8.84673 3.51102 8.80501 3.4693C8.76329 3.42758 8.71377 3.39449 8.65926 3.37191C8.60475 3.34934 8.54633 3.33772 8.48733 3.33772C8.36818 3.33772 8.25391 3.38505 8.16966 3.4693C8.08541 3.55356 8.03807 3.66783 8.03807 3.78698C8.03807 3.90613 8.08541 4.0204 8.16966 4.10465C8.25391 4.18891 8.36818 4.23624 8.48733 4.23624ZM5.71547 3.57469C5.74799 3.57531 5.78031 3.56945 5.81054 3.55743C5.84077 3.54542 5.8683 3.5275 5.89152 3.50472C5.91474 3.48195 5.93319 3.45476 5.94578 3.42477C5.95838 3.39478 5.96486 3.36258 5.96486 3.33005C5.96486 3.29752 5.95838 3.26532 5.94578 3.23533C5.93319 3.20534 5.91474 3.17816 5.89152 3.15538C5.8683 3.1326 5.84077 3.11468 5.81054 3.10267C5.78031 3.09065 5.74799 3.08479 5.71547 3.08542C5.6514 3.08665 5.59038 3.11297 5.54551 3.15871C5.50064 3.20445 5.4755 3.26597 5.4755 3.33005C5.4755 3.39413 5.50064 3.45565 5.54551 3.50139C5.59038 3.54714 5.6514 3.57345 5.71547 3.57469ZM6.87863 3.41066C6.96276 3.41066 7.04345 3.37724 7.10294 3.31775C7.16242 3.25826 7.19584 3.17757 7.19584 3.09344C7.19584 3.00931 7.16242 2.92863 7.10294 2.86914C7.04345 2.80965 6.96276 2.77623 6.87863 2.77623C6.7945 2.77623 6.71382 2.80965 6.65433 2.86914C6.59484 2.92863 6.56142 3.00931 6.56142 3.09344C6.56142 3.17757 6.59484 3.25826 6.65433 3.31775C6.71382 3.37724 6.7945 3.41066 6.87863 3.41066ZM17.5355 5.33217C17.5874 5.33296 17.6388 5.32343 17.687 5.30414C17.7351 5.28485 17.7789 5.25617 17.8158 5.21979C17.8528 5.18341 17.8821 5.14004 17.9022 5.09221C17.9222 5.04439 17.9325 4.99305 17.9325 4.9412C17.9325 4.88935 17.9222 4.83802 17.9022 4.79019C17.8821 4.74237 17.8528 4.699 17.8158 4.66261C17.7789 4.62623 17.7351 4.59756 17.687 4.57826C17.6388 4.55897 17.5874 4.54944 17.5355 4.55023C17.4318 4.55023 17.3324 4.59143 17.259 4.66476C17.1857 4.73809 17.1445 4.83754 17.1445 4.94125C17.1445 5.04495 17.1857 5.14441 17.259 5.21774C17.3324 5.29107 17.4318 5.33217 17.5355 5.33217ZM13.2463 3.2714C13.3039 3.2714 13.3591 3.24853 13.3998 3.20781C13.4405 3.1671 13.4634 3.11188 13.4634 3.0543C13.4634 2.99672 13.4405 2.9415 13.3998 2.90078C13.3591 2.86007 13.3039 2.8372 13.2463 2.8372C13.1887 2.8372 13.1335 2.86007 13.0928 2.90078C13.0521 2.9415 13.0292 2.99672 13.0292 3.0543C13.0292 3.11188 13.0521 3.1671 13.0928 3.20781C13.1335 3.24853 13.1887 3.2714 13.2463 3.2714ZM8.6363 3.31513C8.74552 3.31513 8.85026 3.27174 8.92748 3.19452C9.00471 3.11729 9.04809 3.01255 9.04809 2.90333C9.04809 2.79412 9.00471 2.68938 8.92748 2.61215C8.85026 2.53493 8.74552 2.49154 8.6363 2.49154C8.52709 2.49154 8.42235 2.53493 8.34512 2.61215C8.26789 2.68938 8.22451 2.79412 8.22451 2.90333C8.22451 3.01255 8.26789 3.11729 8.34512 3.19452C8.42235 3.27174 8.52709 3.31513 8.6363 3.31513ZM2.59432 8.3626C2.64133 8.3626 2.68789 8.35334 2.73132 8.33535C2.77475 8.31736 2.81422 8.29099 2.84746 8.25774C2.8807 8.2245 2.90707 8.18504 2.92506 8.1416C2.94306 8.09817 2.95232 8.05162 2.95232 8.00461C2.95232 7.95759 2.94306 7.91104 2.92506 7.86761C2.90707 7.82417 2.8807 7.78471 2.84746 7.75147C2.81422 7.71822 2.77475 7.69185 2.73132 7.67386C2.68789 7.65587 2.64133 7.64661 2.59432 7.64661C2.49938 7.64661 2.40832 7.68433 2.34118 7.75147C2.27405 7.8186 2.23633 7.90966 2.23633 8.00461C2.23633 8.09955 2.27405 8.19061 2.34118 8.25774C2.40832 8.32488 2.49938 8.3626 2.59432 8.3626ZM3.548 8.48616C3.65832 8.48616 3.76413 8.44234 3.84214 8.36433C3.92014 8.28632 3.96397 8.18052 3.96397 8.0702C3.96397 7.95988 3.92014 7.85407 3.84214 7.77607C3.76413 7.69806 3.65832 7.65423 3.548 7.65423C3.43768 7.65423 3.33188 7.69806 3.25387 7.77607C3.17586 7.85407 3.13204 7.95988 3.13204 8.0702C3.13204 8.18052 3.17586 8.28632 3.25387 8.36433C3.33188 8.44234 3.43768 8.48616 3.548 8.48616ZM6.9092 4.81913C6.96177 4.81913 7.01382 4.80878 7.06238 4.78867C7.11095 4.76855 7.15507 4.73907 7.19224 4.7019C7.22941 4.66473 7.25889 4.6206 7.27901 4.57204C7.29912 4.52348 7.30948 4.47143 7.30948 4.41886C7.30948 4.3663 7.29912 4.31425 7.27901 4.26569C7.25889 4.21712 7.22941 4.173 7.19224 4.13583C7.15507 4.09866 7.11095 4.06918 7.06238 4.04906C7.01382 4.02895 6.96177 4.01859 6.9092 4.01859C6.80303 4.01859 6.70121 4.06077 6.62614 4.13584C6.55106 4.21092 6.50889 4.31274 6.50889 4.41891C6.50889 4.52508 6.55106 4.6269 6.62614 4.70198C6.70121 4.77705 6.80303 4.81913 6.9092 4.81913ZM2.71199 7.47152C2.79428 7.47152 2.8732 7.43883 2.93139 7.38064C2.98957 7.32245 3.02226 7.24353 3.02226 7.16124C3.02226 7.07895 2.98957 7.00003 2.93139 6.94185C2.8732 6.88366 2.79428 6.85097 2.71199 6.85097C2.6297 6.85097 2.55078 6.88366 2.49259 6.94185C2.43441 7.00003 2.40172 7.07895 2.40172 7.16124C2.40172 7.24353 2.43441 7.32245 2.49259 7.38064C2.55078 7.43883 2.6297 7.47152 2.71199 7.47152ZM15.2219 2.96775C15.3119 2.96775 15.3983 2.93198 15.462 2.8683C15.5257 2.80463 15.5614 2.71827 15.5614 2.62822C15.5614 2.53817 15.5257 2.45181 15.462 2.38813C15.3983 2.32446 15.3119 2.28869 15.2219 2.28869C15.1318 2.28869 15.0455 2.32446 14.9818 2.38813C14.9181 2.45181 14.8824 2.53817 14.8824 2.62822C14.8824 2.71827 14.9181 2.80463 14.9818 2.8683C15.0455 2.93198 15.1318 2.96775 15.2219 2.96775ZM5.77036 4.39337C5.8523 4.39337 5.93088 4.36082 5.98882 4.30288C6.04676 4.24494 6.07931 4.16635 6.07931 4.08441C6.07931 4.00247 6.04676 3.92389 5.98882 3.86595C5.93088 3.80801 5.8523 3.77546 5.77036 3.77546C5.68843 3.77546 5.60986 3.808 5.55192 3.86593C5.49399 3.92387 5.46145 4.00244 5.46145 4.08437C5.46145 4.1663 5.49399 4.24487 5.55192 4.3028C5.60986 4.36073 5.68843 4.39337 5.77036 4.39337Z" fill="#AFDAD2" stroke="white" stroke-width="0.147661"/>
<path d="M4.27174 8.11465C4.38666 8.11465 4.49687 8.069 4.57813 7.98774C4.65939 7.90648 4.70504 7.79627 4.70504 7.68136C4.70504 7.56644 4.65939 7.45623 4.57813 7.37497C4.49687 7.29371 4.38666 7.24806 4.27174 7.24806C4.15683 7.24806 4.04662 7.29371 3.96536 7.37497C3.8841 7.45623 3.83845 7.56644 3.83845 7.68136C3.83845 7.79627 3.8841 7.90648 3.96536 7.98774C4.04662 8.069 4.15683 8.11465 4.27174 8.11465ZM18.3573 5.16597C18.4136 5.16679 18.4695 5.15642 18.5217 5.13545C18.5739 5.11448 18.6215 5.08334 18.6616 5.04384C18.7016 5.00434 18.7335 4.95726 18.7552 4.90534C18.7769 4.85342 18.7881 4.79771 18.7881 4.74143C18.7881 4.68515 18.7769 4.62943 18.7552 4.57751C18.7335 4.5256 18.7016 4.47852 18.6616 4.43901C18.6215 4.39951 18.5739 4.36837 18.5217 4.3474C18.4695 4.32644 18.4136 4.31607 18.3573 4.31689C18.2447 4.31689 18.1367 4.36162 18.0571 4.44125C17.9775 4.52087 17.9327 4.62887 17.9327 4.74147C17.9327 4.85408 17.9775 4.96207 18.0571 5.0417C18.1367 5.12132 18.2447 5.16597 18.3573 5.16597ZM19.8879 5.11543C19.9267 5.11612 19.9652 5.10907 20.0012 5.0947C20.0373 5.08034 20.0701 5.05894 20.0977 5.03175C20.1254 5.00457 20.1474 4.97215 20.1624 4.93639C20.1774 4.90062 20.1851 4.86223 20.1851 4.82344C20.1851 4.78466 20.1774 4.74626 20.1624 4.7105C20.1474 4.67473 20.1254 4.64231 20.0977 4.61513C20.0701 4.58795 20.0373 4.56655 20.0012 4.55218C19.9652 4.53781 19.9267 4.53077 19.8879 4.53145C19.8114 4.5328 19.7384 4.56415 19.6848 4.61877C19.6311 4.67338 19.601 4.74688 19.601 4.82344C19.601 4.9 19.6311 4.9735 19.6848 5.02812C19.7384 5.08273 19.8114 5.11408 19.8879 5.11543ZM9.79352 4.39273C9.87978 4.39273 9.9625 4.35847 10.0235 4.29747C10.0845 4.23648 10.1188 4.15375 10.1188 4.06749C10.1188 3.98123 10.0845 3.8985 10.0235 3.83751C9.9625 3.77651 9.87978 3.74225 9.79352 3.74225C9.70726 3.74225 9.62453 3.77651 9.56354 3.83751C9.50254 3.8985 9.46827 3.98123 9.46827 4.06749C9.46827 4.15375 9.50254 4.23648 9.56354 4.29747C9.62453 4.35847 9.70726 4.39273 9.79352 4.39273ZM16.9328 4.02712C16.969 4.02778 17.0049 4.02122 17.0386 4.00783C17.0722 3.99444 17.1028 3.97448 17.1286 3.94912C17.1545 3.92376 17.175 3.89351 17.189 3.86013C17.203 3.82675 17.2102 3.79092 17.2102 3.75472C17.2102 3.71853 17.203 3.68269 17.189 3.64932C17.175 3.61594 17.1545 3.58569 17.1286 3.56033C17.1028 3.53497 17.0722 3.51501 17.0386 3.50162C17.0049 3.48822 16.969 3.48167 16.9328 3.48233C16.8614 3.48363 16.7934 3.5129 16.7434 3.56384C16.6933 3.61478 16.6653 3.68333 16.6653 3.75472C16.6653 3.82612 16.6933 3.89466 16.7434 3.9456C16.7934 3.99654 16.8614 4.02582 16.9328 4.02712ZM16.8158 3.34461C16.9336 3.34461 17.0466 3.2978 17.1299 3.21448C17.2132 3.13117 17.26 3.01817 17.26 2.90034C17.26 2.78251 17.2132 2.66951 17.1299 2.58619C17.0466 2.50287 16.9336 2.45607 16.8158 2.45607C16.6979 2.45607 16.5849 2.50287 16.5016 2.58619C16.4183 2.66951 16.3715 2.78251 16.3715 2.90034C16.3715 3.01817 16.4183 3.13117 16.5016 3.21448C16.5849 3.2978 16.6979 3.34461 16.8158 3.34461ZM11.3384 4.10178C11.4438 4.10178 11.5448 4.05993 11.6193 3.98544C11.6938 3.91094 11.7357 3.8099 11.7357 3.70455C11.7357 3.5992 11.6938 3.49816 11.6193 3.42367C11.5448 3.34917 11.4438 3.30732 11.3384 3.30732C11.2331 3.30732 11.1321 3.34917 11.0576 3.42367C10.9831 3.49816 10.9412 3.5992 10.9412 3.70455C10.9412 3.8099 10.9831 3.91094 11.0576 3.98544C11.1321 4.05993 11.2331 4.10178 11.3384 4.10178ZM19.7319 6.02176C19.7766 6.02176 19.8209 6.01294 19.8623 5.99582C19.9036 5.97869 19.9412 5.95359 19.9728 5.92195C20.0045 5.89031 20.0296 5.85275 20.0467 5.8114C20.0638 5.77006 20.0726 5.72575 20.0726 5.681C20.0726 5.63625 20.0638 5.59194 20.0467 5.5506C20.0296 5.50926 20.0045 5.47169 19.9728 5.44005C19.9412 5.40841 19.9036 5.38331 19.8623 5.36618C19.8209 5.34906 19.7766 5.34025 19.7319 5.34025C19.6415 5.34025 19.5548 5.37615 19.4909 5.44005C19.427 5.50395 19.3911 5.59063 19.3911 5.681C19.3911 5.77138 19.427 5.85805 19.4909 5.92195C19.5548 5.98586 19.6415 6.02176 19.7319 6.02176ZM3.46549 9.09836C3.51849 9.09836 3.56933 9.0773 3.60681 9.03982C3.64429 9.00234 3.66535 8.9515 3.66535 8.8985C3.66535 8.84549 3.64429 8.79465 3.60681 8.75717C3.56933 8.71969 3.51849 8.69864 3.46549 8.69864C3.41248 8.69864 3.36165 8.71969 3.32416 8.75717C3.28668 8.79465 3.26563 8.84549 3.26562 8.8985C3.26563 8.9515 3.28668 9.00234 3.32416 9.03982C3.36165 9.0773 3.41248 9.09836 3.46549 9.09836ZM7.66542 3.55681C7.76439 3.55681 7.8593 3.5175 7.92928 3.44752C7.99926 3.37754 8.03857 3.28263 8.03857 3.18367C8.03857 3.0847 7.99926 2.98979 7.92928 2.91981C7.8593 2.84983 7.76439 2.81052 7.66542 2.81052C7.56646 2.81052 7.47155 2.84983 7.40157 2.91981C7.33159 2.98979 7.29228 3.0847 7.29228 3.18367C7.29228 3.28263 7.33159 3.37754 7.40157 3.44752C7.47155 3.5175 7.56646 3.55681 7.66542 3.55681ZM10.389 2.94842C10.4244 2.94907 10.4596 2.94266 10.4925 2.92956C10.5254 2.91646 10.5554 2.89694 10.5807 2.87213C10.6059 2.84732 10.626 2.81772 10.6397 2.78506C10.6534 2.7524 10.6605 2.71734 10.6605 2.68192C10.6605 2.6465 10.6534 2.61144 10.6397 2.57878C10.626 2.54613 10.6059 2.51653 10.5807 2.49172C10.5554 2.4669 10.5254 2.44738 10.4925 2.43428C10.4596 2.42118 10.4244 2.41477 10.389 2.41542C10.3192 2.41671 10.2527 2.44535 10.2037 2.49519C10.1548 2.54503 10.1274 2.61208 10.1274 2.68192C10.1274 2.75176 10.1548 2.81881 10.2037 2.86865C10.2527 2.91849 10.3192 2.94713 10.389 2.94842ZM18.1235 3.7691C18.2125 3.7691 18.2978 3.73377 18.3607 3.67088C18.4236 3.60799 18.4589 3.52269 18.4589 3.43374C18.4589 3.3448 18.4236 3.2595 18.3607 3.19661C18.2978 3.13372 18.2125 3.09839 18.1235 3.09839C18.0346 3.09839 17.9493 3.13372 17.8864 3.19661C17.8235 3.2595 17.7882 3.3448 17.7882 3.43374C17.7882 3.52269 17.8235 3.60799 17.8864 3.67088C17.9493 3.73377 18.0346 3.7691 18.1235 3.7691ZM9.64419 2.41025C9.69895 2.41025 9.75318 2.39946 9.80377 2.37851C9.85436 2.35755 9.90033 2.32683 9.93906 2.28811C9.97778 2.24939 10.0085 2.20342 10.0295 2.15282C10.0504 2.10223 10.0612 2.048 10.0612 1.99324C10.0612 1.93848 10.0504 1.88425 10.0295 1.83366C10.0085 1.78307 9.97778 1.73709 9.93906 1.69837C9.90033 1.65965 9.85436 1.62893 9.80377 1.60798C9.75318 1.58702 9.69895 1.57623 9.64419 1.57623C9.53359 1.57623 9.42752 1.62017 9.34932 1.69837C9.27111 1.77658 9.22718 1.88264 9.22718 1.99324C9.22718 2.10384 9.27111 2.20991 9.34932 2.28811C9.42752 2.36632 9.53359 2.41025 9.64419 2.41025Z" fill="#AFDAD2" stroke="white" stroke-width="0.147661"/>
<path d="M16.1872 2.80852C16.2895 2.80852 16.3876 2.76789 16.4599 2.69558C16.5322 2.62326 16.5728 2.52518 16.5728 2.4229C16.5728 2.32063 16.5322 2.22255 16.4599 2.15023C16.3876 2.07791 16.2895 2.03729 16.1872 2.03729C16.085 2.03729 15.9869 2.07791 15.9146 2.15022C15.8423 2.22253 15.8017 2.3206 15.8017 2.42286C15.8017 2.52512 15.8423 2.62319 15.9146 2.6955C15.9869 2.76781 16.085 2.80852 16.1872 2.80852ZM7.76594 2.39737C7.84787 2.39737 7.92645 2.36482 7.98438 2.30689C8.04231 2.24895 8.07486 2.17038 8.07486 2.08845C8.07486 2.00652 8.04231 1.92795 7.98438 1.87002C7.92645 1.81209 7.84787 1.77954 7.76594 1.77954C7.68402 1.77954 7.60544 1.81209 7.54751 1.87002C7.48958 1.92795 7.45703 2.00652 7.45703 2.08845C7.45703 2.17038 7.48958 2.24895 7.54751 2.30689C7.60544 2.36482 7.68402 2.39737 7.76594 2.39737ZM8.5077 2.15858C8.55245 2.15858 8.59677 2.14977 8.63812 2.13264C8.67946 2.11551 8.71703 2.09041 8.74868 2.05876C8.78033 2.02712 8.80543 1.98955 8.82256 1.9482C8.83968 1.90685 8.8485 1.86254 8.8485 1.81778C8.8485 1.77303 8.83968 1.72871 8.82256 1.68736C8.80543 1.64601 8.78033 1.60844 8.74868 1.5768C8.71703 1.54515 8.67946 1.52005 8.63812 1.50292C8.59677 1.48579 8.55245 1.47698 8.5077 1.47698C8.41731 1.47698 8.33063 1.51288 8.26671 1.5768C8.2028 1.64071 8.16689 1.72739 8.16689 1.81778C8.16689 1.90817 8.2028 1.99485 8.26671 2.05876C8.33063 2.12268 8.41731 2.15858 8.5077 2.15858ZM13.7602 1.73146C13.8662 1.73146 13.9679 1.68933 14.0429 1.61435C14.1179 1.53937 14.16 1.43768 14.16 1.33164C14.16 1.2256 14.1179 1.12391 14.0429 1.04893C13.9679 0.973947 13.8662 0.931824 13.7602 0.931824C13.6542 0.931824 13.5525 0.973947 13.4775 1.04893C13.4025 1.12391 13.3604 1.2256 13.3604 1.33164C13.3604 1.43768 13.4025 1.53937 13.4775 1.61435C13.5525 1.68933 13.6542 1.73146 13.7602 1.73146ZM12.1538 1.81619C12.1946 1.81619 12.2351 1.80814 12.2729 1.79251C12.3106 1.77687 12.3449 1.75395 12.3738 1.72505C12.4027 1.69615 12.4256 1.66185 12.4413 1.6241C12.4569 1.58634 12.4649 1.54588 12.4649 1.50501C12.4649 1.46415 12.4569 1.42368 12.4413 1.38593C12.4256 1.34817 12.4027 1.31387 12.3738 1.28497C12.3449 1.25608 12.3106 1.23316 12.2729 1.21752C12.2351 1.20188 12.1946 1.19383 12.1538 1.19383C12.0712 1.19383 11.9921 1.22662 11.9337 1.28497C11.8754 1.34333 11.8426 1.42248 11.8426 1.50501C11.8426 1.58754 11.8754 1.66669 11.9337 1.72505C11.9921 1.78341 12.0712 1.81619 12.1538 1.81619ZM14.5587 2.19596C14.5903 2.19658 14.6217 2.19088 14.6511 2.1792C14.6805 2.16752 14.7073 2.1501 14.7299 2.12794C14.7525 2.10579 14.7705 2.07935 14.7827 2.05018C14.795 2.021 14.8013 1.98968 14.8013 1.95804C14.8013 1.9264 14.795 1.89507 14.7827 1.8659C14.7705 1.83673 14.7525 1.81029 14.7299 1.78814C14.7073 1.76598 14.6805 1.74856 14.6511 1.73688C14.6217 1.7252 14.5903 1.7195 14.5587 1.72012C14.4964 1.72133 14.437 1.74693 14.3934 1.79142C14.3498 1.83591 14.3253 1.89573 14.3253 1.95804C14.3253 2.02035 14.3498 2.08017 14.3934 2.12466C14.437 2.16914 14.4964 2.19474 14.5587 2.19596Z" fill="#AFDAD2" stroke="white" stroke-width="0.147661"/>
<path d="M13.7638 2.56128C13.8217 2.56128 13.8791 2.54987 13.9327 2.52769C13.9862 2.50551 14.0348 2.47301 14.0758 2.43203C14.1168 2.39106 14.1493 2.34241 14.1715 2.28887C14.1937 2.23533 14.2051 2.17795 14.2051 2.12C14.2051 2.06205 14.1937 2.00467 14.1715 1.95113C14.1493 1.89759 14.1168 1.84895 14.0758 1.80797C14.0348 1.76699 13.9862 1.73449 13.9327 1.71231C13.8791 1.69014 13.8217 1.67872 13.7638 1.67872C13.6468 1.67872 13.5345 1.72522 13.4518 1.80797C13.369 1.89073 13.3225 2.00297 13.3225 2.12C13.3225 2.23704 13.369 2.34928 13.4518 2.43203C13.5345 2.51479 13.6468 2.56128 13.7638 2.56128ZM15.515 2.13307C15.5959 2.13307 15.6735 2.10094 15.7306 2.04376C15.7878 1.98657 15.8199 1.90902 15.8199 1.82815C15.8199 1.74728 15.7878 1.66972 15.7306 1.61253C15.6735 1.55535 15.5959 1.52322 15.515 1.52322C15.4342 1.52322 15.3566 1.55535 15.2994 1.61253C15.2422 1.66972 15.2101 1.74728 15.2101 1.82815C15.2101 1.90902 15.2422 1.98657 15.2994 2.04376C15.3566 2.10094 15.4342 2.13307 15.515 2.13307ZM1.83225 9.57127C1.93384 9.57127 2.03126 9.53092 2.1031 9.45909C2.17493 9.38725 2.21528 9.28983 2.21528 9.18824C2.21528 9.08665 2.17493 8.98923 2.1031 8.9174C2.03126 8.84556 1.93384 8.80521 1.83225 8.80521C1.73067 8.80521 1.63324 8.84556 1.56141 8.9174C1.48957 8.98923 1.44922 9.08665 1.44922 9.18824C1.44922 9.28983 1.48957 9.38725 1.56141 9.45909C1.63324 9.53092 1.73067 9.57127 1.83225 9.57127ZM10.5232 2.10685C10.5779 2.10685 10.6303 2.08512 10.669 2.04643C10.7077 2.00775 10.7294 1.95529 10.7294 1.90059C10.7294 1.84588 10.7077 1.79342 10.669 1.75474C10.6303 1.71606 10.5779 1.69433 10.5232 1.69433C10.4685 1.69433 10.416 1.71606 10.3773 1.75474C10.3386 1.79342 10.3169 1.84588 10.3169 1.90059C10.3169 1.95529 10.3386 2.00775 10.3773 2.04643C10.416 2.08512 10.4685 2.10685 10.5232 2.10685ZM17.6076 3.05091C17.6736 3.05091 17.7369 3.02469 17.7836 2.97801C17.8302 2.93133 17.8565 2.86802 17.8565 2.80201C17.8565 2.736 17.8302 2.67269 17.7836 2.62601C17.7369 2.57934 17.6736 2.55311 17.6076 2.55311C17.5416 2.55311 17.4783 2.57933 17.4316 2.626C17.3849 2.67267 17.3587 2.73597 17.3587 2.80197C17.3587 2.86797 17.3849 2.93126 17.4316 2.97793C17.4783 3.0246 17.5416 3.05091 17.6076 3.05091ZM12.9564 1.80592C13.0518 1.80592 13.1434 1.768 13.2108 1.70051C13.2783 1.63301 13.3163 1.54147 13.3163 1.44602C13.3163 1.35057 13.2783 1.25903 13.2108 1.19153C13.1434 1.12404 13.0518 1.08612 12.9564 1.08612C12.8609 1.08612 12.7694 1.12404 12.7019 1.19153C12.6344 1.25903 12.5965 1.35057 12.5965 1.44602C12.5965 1.54147 12.6344 1.63301 12.7019 1.70051C12.7694 1.768 12.8609 1.80592 12.9564 1.80592ZM4.73757 7.27108C4.79203 7.27108 4.84595 7.26035 4.89627 7.23951C4.94658 7.21867 4.9923 7.18813 5.0308 7.14962C5.06931 7.11111 5.09986 7.0654 5.1207 7.01508C5.14154 6.96477 5.15227 6.91084 5.15227 6.85638C5.15227 6.80193 5.14154 6.748 5.1207 6.69769C5.09986 6.64737 5.06931 6.60166 5.0308 6.56315C4.9923 6.52464 4.94658 6.4941 4.89627 6.47326C4.84595 6.45242 4.79203 6.44169 4.73757 6.44169C4.62759 6.44169 4.52211 6.48538 4.44434 6.56315C4.36657 6.64092 4.32287 6.7464 4.32287 6.85638C4.32287 6.96637 4.36657 7.07185 4.44434 7.14962C4.52211 7.22739 4.62759 7.27108 4.73757 7.27108Z" fill="#AFDAD2" stroke="white" stroke-width="0.147661"/>
<path d="M16.2056 5.31277L15.7777 5.30261L15.3496 5.31241L14.9217 5.34217L14.4939 5.39143L14.0666 5.45974L13.6397 5.54602L13.2135 5.64945L12.7879 5.76866L12.3629 5.90238L11.9387 6.04899L11.5153 6.20694L11.0925 6.3746L10.6704 6.55024L10.249 6.73214L9.82813 6.91866L9.4079 7.108L8.56907 7.48904L8.15047 7.67783L7.73224 7.86364L7.31446 8.04526L6.89713 8.22172L6.48017 8.3921L6.06348 8.55549L5.64706 8.71153L5.23091 8.85941L4.81495 8.99895L4.39916 9.12995L3.98356 9.25224L3.56787 9.36583L3.15235 9.47089L2.73675 9.56742L2.32106 9.65578L1.90536 9.73616L1.48949 9.8091L1.03333 9.88123L1.01319 10.02C0.877111 10.9591 0.861989 11.9118 0.968195 12.8548L0.997226 13.1127L1.59963 12.8453L2.01968 12.6559L2.8585 12.2749L3.2771 12.0862L3.69515 11.9009L4.11266 11.7207L4.52944 11.5473L4.94568 11.3822L5.36119 11.2272L5.77598 11.0839L6.19004 10.9535L6.60346 10.8376L7.01616 10.7376L7.42814 10.6541L7.83957 10.5885L8.25054 10.5411L8.66106 10.5126L9.0714 10.5031L9.48165 10.513L9.8919 10.5419L10.3025 10.5896L10.7135 10.6555L11.1248 10.7391L11.5369 10.8394L11.9496 10.9552L12.3629 11.0855L12.777 11.2287L13.1919 11.3836L13.6074 11.5484L14.0235 11.7217L14.4404 11.9016L14.8578 12.0867L15.2759 12.275L16.1137 12.6556L16.5333 12.8449L16.9533 13.0315L17.3739 13.2144L17.7949 13.3924L18.2161 13.5645L18.6377 13.7299L19.0596 13.8879L19.4818 14.0381L19.9041 14.1799L20.3266 14.3131L20.7492 14.4374L21.172 14.553L21.5946 14.6599L22.0173 14.7581L22.6117 14.8847L22.6611 14.715C22.9413 13.7523 23.0898 12.756 23.1026 11.7534L23.1035 11.6135L23.1026 11.4725L23.0997 11.3215C23.064 9.96183 22.7788 8.62023 22.2583 7.36357L22.2199 7.27194L22.1513 7.11336L21.7192 6.91903L21.2992 6.73286L20.8783 6.55123L20.4569 6.37578L20.0348 6.20839L19.612 6.05053L19.1886 5.90402L18.7644 5.77038L18.3394 5.65117L17.9139 5.54766L17.4875 5.46111L17.0608 5.39261L16.6335 5.34298L16.2056 5.31277ZM15.7732 5.49286L16.1924 5.50266L16.6115 5.53196L17.0306 5.5805L17.4498 5.64763L17.8689 5.73255L18.2881 5.83434L18.7072 5.95183L19.1263 6.08383L19.5455 6.2288L19.9646 6.38521L20.3838 6.55151L20.8029 6.72588L21.222 6.90687L21.6412 7.09258L22.0063 7.25679C22.5659 8.54233 22.8725 9.92368 22.9094 11.3253L22.9123 11.4737L22.9132 11.6123L22.9123 11.7509C22.8998 12.7364 22.7538 13.7156 22.4784 14.6618L22.0603 14.5729L21.6412 14.4754L21.222 14.3695L20.8029 14.2549L20.3838 14.1315L19.9646 13.9995L19.5455 13.8588L19.1263 13.7097L18.7072 13.5528L18.2881 13.3883L17.8689 13.2171L17.4498 13.0399L17.0306 12.8576L16.6115 12.6714L16.1924 12.4824L15.3541 12.1016L14.9349 11.9127L14.5158 11.727L14.0967 11.5461L13.6775 11.3716L13.2584 11.2053L12.8392 11.0489L12.4201 10.9039L12.0009 10.772L11.5818 10.6545L11.1627 10.5527L10.7435 10.4678L10.3244 10.4006L9.90524 10.3521L9.4861 10.3228L9.06696 10.313L8.64782 10.3228L8.22868 10.3521L7.80954 10.4006L7.3904 10.4678L6.97125 10.5527L6.55211 10.6545L6.13297 10.772L5.71383 10.9039L5.29469 11.0489L4.87555 11.2053L4.45641 11.3716L4.03727 11.5461L3.61813 11.727L3.19899 11.9127L2.77985 12.1016L1.94156 12.4824L1.52242 12.6714L1.15726 12.8335C1.05288 11.9067 1.06776 10.9703 1.20153 10.0473L1.52233 9.99654L1.94147 9.92305L2.36061 9.84185L2.77975 9.75267L3.1989 9.65533L3.61804 9.54936L4.03718 9.43478L4.45632 9.3114L4.87546 9.1793L5.2946 9.03868L5.71374 8.88962L6.13288 8.73267L6.55202 8.56819L6.97116 8.397L7.39031 8.21972L7.80945 8.03755L8.22859 7.8513L8.64773 7.66232L9.48601 7.28147L9.90515 7.09258L10.3243 6.90687L10.7434 6.72588L11.1626 6.55151L11.5817 6.38521L12.0009 6.2288L12.42 6.08383L12.8391 5.95183L13.2583 5.83434L13.6774 5.73255L14.0966 5.64754L14.5158 5.58041L14.9349 5.53196L15.3541 5.50266L15.7732 5.49286Z" fill="white"/>
<path d="M15.7729 5.44745L16.1941 5.45725L16.6153 5.48673L17.0365 5.53545L17.4575 5.60286L17.8785 5.68814L18.2992 5.79038L18.7198 5.90832L19.1402 6.04078L19.5605 6.18603L19.9811 6.34298L20.4008 6.50954L20.8205 6.68419L21.2401 6.86536L21.6595 7.05116L22.0407 7.2229C22.6146 8.5356 22.9255 9.94811 22.9558 11.3805L22.9573 11.4734L22.9582 11.6125L22.9573 11.7514C22.9446 12.755 22.794 13.7521 22.5098 14.7147L22.0498 14.617L21.6298 14.5194L21.2097 14.4133L20.7898 14.2984L20.3697 14.1747L19.9499 14.0425L19.53 13.9015L19.1101 13.7522L18.6904 13.5949L18.2706 13.4303L17.8509 13.2588L17.4314 13.0814L17.0119 12.8991L16.5926 12.7127L16.1732 12.5237L15.3351 12.1429L14.9162 11.9542L14.4975 11.7686L14.0789 11.5879L13.6605 11.4137L13.2422 11.2478L12.8236 11.0916L12.4055 10.947L11.9876 10.8154L11.5699 10.6983L11.1524 10.5969L10.7351 10.5123L10.3178 10.4455L9.90073 10.3972L9.48359 10.3681L9.06662 10.3583L8.64957 10.3681L8.23251 10.3972L7.81537 10.4455L7.39804 10.5123L6.98072 10.5969L6.56321 10.6983L6.14552 10.8154L5.72765 10.947L5.30969 11.0916L4.89191 11.2475L4.47349 11.4135L4.05489 11.5877L3.63612 11.7684L3.21725 11.954L2.7982 12.1428L1.95983 12.5238L1.5405 12.7128L1.11891 12.9002C1.00508 11.9384 1.01927 10.9658 1.1611 10.0077L1.51419 9.95176L1.93252 9.87837L2.35093 9.79744L2.76917 9.70853L3.18749 9.61128L3.60572 9.50559L4.02405 9.39127L4.44237 9.26807L4.86079 9.13625L5.27911 8.9959L5.69753 8.84712L6.11603 8.69035L6.53463 8.52614L6.95323 8.35513L7.37191 8.17812L7.79078 7.99604L8.20965 7.80988L8.6287 7.6209L9.46707 7.24005L9.88649 7.05107L10.3061 6.86509L10.7258 6.68401L11.1455 6.50927L11.5656 6.34271L11.9853 6.18603L12.4055 6.04069L12.8259 5.90832L13.2465 5.79038L13.6673 5.68823L14.0882 5.60295L14.5092 5.53545L14.9304 5.48673L15.3517 5.45725L15.7729 5.44745Z" fill="#7DB0BC" stroke="white" stroke-width="0.590645"/>
<path d="M9.06516 10.5225L9.4843 10.5323L9.90344 10.5616L10.3226 10.6102L10.7417 10.6773L11.1609 10.7622L11.58 10.864L11.9991 10.9816L12.4183 11.1135L12.8374 11.2585L13.2566 11.4149L13.6757 11.5812L14.0949 11.7556L14.514 11.9365L14.9331 12.1222L15.3523 12.3111L15.7714 12.5016L16.1906 12.692L16.6097 12.881L17.0288 13.0672L17.448 13.2495L17.8671 13.4267L18.2863 13.5979L18.7054 13.7623L19.1245 13.9193L19.5437 14.0683L19.9628 14.209L20.382 14.3411L20.8011 14.4645L21.2202 14.579L21.6394 14.685L22.0585 14.7824L22.4173 14.8586C21.9415 16.3859 21.1357 17.7898 20.0569 18.971C18.9782 20.1522 17.6529 21.0818 16.175 21.6939C13.5012 22.8013 10.497 22.8013 7.82323 21.6937C5.14945 20.5862 3.02512 18.4619 1.91754 15.7882C1.55205 14.9058 1.30398 13.9793 1.17969 13.0324L1.52053 12.881L1.93968 12.692L2.35882 12.5015L2.77796 12.3111L3.1971 12.1222L3.61624 11.9365L4.03538 11.7556L4.45452 11.5812L4.87366 11.4149L5.2928 11.2585L5.71194 11.1135L6.13108 10.9816L6.55022 10.864L6.96937 10.7622L7.38851 10.6773L7.80765 10.6102L8.22679 10.5616L8.64593 10.5323L9.06516 10.5225Z" fill="#5C7DA2"/>
<path d="M9.904 13.3481V14.7537H12.4188V16.6948H14.9337V18.0224H17.4485V18.5828H19.9634V19.0726C18.4464 20.692 16.4718 21.8105 14.3028 22.2788C12.1339 22.7471 9.87372 22.5431 7.82372 21.6939C5.4801 20.7231 3.54792 18.9661 2.35938 16.725V15.4155H4.87422V13.6638H7.38907V13.3481H9.904Z" fill="#444876"/>
<path d="M9.98989 13.2623V14.6678H12.5047V16.6089H15.0196V17.9366H17.5344V18.497H20.0493L20.0495 18.9798C19.9928 19.0415 19.9355 19.1028 19.8775 19.1634L19.8774 18.6686H17.5344V21.0167C17.4775 21.0503 17.4201 21.0833 17.3626 21.1158V18.1082L15.0196 18.1082V22.0983C14.9624 22.1149 14.9052 22.1308 14.8478 22.1463V16.7805H12.5047V22.5129C12.4475 22.5155 12.3902 22.5177 12.3329 22.5195V14.8395H9.98989V22.3378C9.93247 22.3271 9.87522 22.3159 9.81797 22.3042L9.81806 13.4338H7.47496V13.5781L7.47505 21.5422C7.41744 21.516 7.36019 21.4893 7.30313 21.4621L7.30322 13.7497H4.96011V15.3296V19.9501C4.90236 19.9014 4.84511 19.8521 4.78837 19.8021V15.5013H2.44527L2.44518 16.8836C2.38621 16.7766 2.32887 16.6686 2.27344 16.5596L2.27362 15.3296H4.78846V13.5781H7.30331V13.2623H9.98989Z" fill="white"/>
<path d="M12.001 0C15.0551 8.64012e-05 17.9863 1.20338 20.1596 3.34924C22.3329 5.4951 23.5734 8.41076 23.6123 11.4647L23.6132 11.6123L23.6123 11.7598C23.5734 14.8137 22.3329 17.7294 20.1596 19.8752C17.9863 22.0211 15.0551 23.2244 12.001 23.2245C8.92124 23.2244 5.96768 22.001 3.78998 19.8233C1.61227 17.6456 0.388792 14.6921 0.388672 11.6124C0.38872 8.53262 1.61217 5.579 3.78988 3.40127C5.96759 1.22354 8.9212 7.21816e-05 12.001 0ZM12.001 0.381309C9.02234 0.381382 6.16574 1.56467 4.05954 3.67087C1.95334 5.77707 0.770053 8.63367 0.769981 11.6123C0.770077 14.5909 1.95337 17.4475 4.05957 19.5537C6.16577 21.6598 9.02236 22.8431 12.001 22.8432C14.9548 22.8431 17.7897 21.6793 19.8917 19.6039C21.9936 17.5285 23.1933 14.7086 23.2309 11.755L23.2318 11.6123L23.2309 11.4696C23.1933 8.51594 21.9936 5.69601 19.8917 3.6206C17.7898 1.54519 14.9548 0.381404 12.001 0.381309Z" fill="#444876"/>
</g>
<defs>
<clipPath id="clip0_177_206">
<rect width="24" height="24" fill="white"/>
</clipPath>
</defs>
</svg>
