<svg width="24" height="24" viewBox="0 0 24 24" fill="none" xmlns="http://www.w3.org/2000/svg">
<g clip-path="url(#clip0_177_226)">
<path d="M12 0C5.37334 0 0 5.37334 0 12C0 18.6266 5.37334 24 12 24C18.6266 24 24 18.6266 24 12C24 5.37334 18.6266 0 12 0ZM12 22.2667C6.26666 22.2667 1.6 17.6 1.6 11.8667C1.6 7.8 3.94667 4.26934 7.35733 2.56267C5.36 4.62667 4.13333 7.43467 4.13333 10.5334C4.13333 16.512 8.70667 21.4187 14.544 21.952C13.7306 22.1573 12.8773 22.2667 12 22.2667ZM18.8854 9.11467C18.7973 9.15733 18.7067 9.176 18.6187 9.176C18.3917 9.176 18.1733 9.048 18.0667 8.82934C17.4986 7.648 16.6027 6.66133 15.4774 5.98133C15.1894 5.808 15.096 5.432 15.2717 5.14133C15.445 4.85333 15.8213 4.76 16.1117 4.936C17.4398 5.73866 18.4957 6.90133 19.1704 8.29867C19.3174 8.60267 19.1893 8.968 18.8854 9.11467Z" fill="#3178C6"/>
</g>
<defs>
<clipPath id="clip0_177_226">
<rect width="24" height="24" fill="white"/>
</clipPath>
</defs>
</svg>
