<svg width="24" height="24" viewBox="0 0 24 24" fill="currentColor" xmlns="http://www.w3.org/2000/svg">
<g clip-path="url(#clip0_177_234)">
<path d="M5.13937 15.1181C5.13937 16.4976 4.02441 17.6126 2.64488 17.6126C1.26535 17.6126 0.150391 16.4976 0.150391 15.1181C0.150391 13.7386 1.26535 12.6236 2.64488 12.6236H5.13937V15.1181ZM6.38661 15.1181C6.38661 13.7386 7.50157 12.6236 8.8811 12.6236C10.2606 12.6236 11.3756 13.7386 11.3756 15.1181V21.3543C11.3756 22.7338 10.2606 23.8488 8.8811 23.8488C7.50157 23.8488 6.38661 22.7338 6.38661 21.3543V15.1181Z" fill="#E01E5A"/>
<path d="M8.88242 5.10238C7.50289 5.10238 6.38793 3.98742 6.38793 2.60789C6.38793 1.22836 7.50289 0.113403 8.88242 0.113403C10.2619 0.113403 11.3769 1.22836 11.3769 2.60789V5.10238H8.88242ZM8.88242 6.36852C10.2619 6.36852 11.3769 7.48348 11.3769 8.86301C11.3769 10.2425 10.2619 11.3575 8.88242 11.3575H2.6273C1.24777 11.3575 0.132812 10.2425 0.132812 8.86301C0.132812 7.48348 1.24777 6.36852 2.6273 6.36852H8.88242Z" fill="#36C5F0"/>
<path d="M18.8788 8.86301C18.8788 7.48348 19.9938 6.36852 21.3733 6.36852C22.7528 6.36852 23.8678 7.48348 23.8678 8.86301C23.8678 10.2425 22.7528 11.3575 21.3733 11.3575H18.8788V8.86301ZM17.6316 8.86301C17.6316 10.2425 16.5166 11.3575 15.1371 11.3575C13.7575 11.3575 12.6426 10.2425 12.6426 8.86301V2.60789C12.6426 1.22836 13.7575 0.113403 15.1371 0.113403C16.5166 0.113403 17.6316 1.22836 17.6316 2.60789V8.86301Z" fill="#2EB67D"/>
<path d="M15.1371 18.8598C16.5166 18.8598 17.6316 19.9748 17.6316 21.3543C17.6316 22.7338 16.5166 23.8488 15.1371 23.8488C13.7575 23.8488 12.6426 22.7338 12.6426 21.3543V18.8598H15.1371ZM15.1371 17.6126C13.7575 17.6126 12.6426 16.4976 12.6426 15.1181C12.6426 13.7386 13.7575 12.6236 15.1371 12.6236H21.3922C22.7717 12.6236 23.8867 13.7386 23.8867 15.1181C23.8867 16.4976 22.7717 17.6126 21.3922 17.6126H15.1371Z" fill="#ECB22E"/>
</g>
<defs>
<clipPath id="clip0_177_234">
<rect width="24" height="24" fill="white"/>
</clipPath>
</defs>
</svg>
