<svg width="24" height="24" viewBox="0 0 24 24" fill="currentColor" xmlns="http://www.w3.org/2000/svg">
<g clip-path="url(#clip0_177_250)">
<path d="M19.3125 0H4.6875C2.09867 0 0 2.09867 0 4.6875V19.3125C0 21.9013 2.09867 24 4.6875 24H19.3125C21.9013 24 24 21.9013 24 19.3125V4.6875C24 2.09867 21.9013 0 19.3125 0Z" fill="url(#paint0_linear_177_250)"/>
<mask id="mask0_177_250" style="mask-type:luminance" maskUnits="userSpaceOnUse" x="2" y="2" width="20" height="20">
<path d="M21.1875 2.8125H2.8125V21.1875H21.1875V2.8125Z" fill="white"/>
</mask>
<g mask="url(#mask0_177_250)">
<path d="M19.869 10.3329C20.2859 9.08173 20.1424 7.71106 19.4757 6.57297C18.4731 4.82734 16.4576 3.92926 14.4892 4.35189C13.6135 3.36538 12.3554 2.80437 11.0364 2.8124C9.02435 2.80781 7.2391 4.10325 6.62009 6.0177C5.32753 6.28241 4.21182 7.09148 3.55893 8.2382C2.54888 9.97922 2.77914 12.1739 4.12856 13.6669C3.71167 14.9181 3.85523 16.2888 4.52189 17.4268C5.52449 19.1724 7.53999 20.0706 9.50843 19.6479C10.3835 20.6345 11.6422 21.1955 12.9611 21.1868C14.9744 21.192 16.7602 19.8954 17.3792 17.9793C18.6718 17.7145 19.7875 16.9055 20.4404 15.7587C21.4493 14.0177 21.2185 11.8248 19.8696 10.3318L19.869 10.3329ZM12.9624 19.9861C12.1567 19.9873 11.3763 19.7053 10.7579 19.1891C10.7861 19.1742 10.8349 19.1472 10.8664 19.1277L14.5254 17.0146C14.7126 16.9083 14.8274 16.7091 14.8262 16.4937V11.3355L16.3726 12.2285C16.3893 12.2364 16.4002 12.2526 16.4025 12.2709V16.5426C16.4002 18.442 14.8618 19.9822 12.9624 19.9861ZM5.5641 16.8263C5.16043 16.1291 5.01515 15.312 5.15354 14.519C5.18053 14.5351 5.22819 14.5643 5.26206 14.5838L8.92098 16.697C9.10646 16.8055 9.33614 16.8055 9.52221 16.697L13.989 14.1176V15.9035C13.9901 15.9218 13.9816 15.9397 13.9672 15.9511L10.2686 18.0866C8.62124 19.0352 6.51731 18.4714 5.56468 16.8263H5.5641ZM4.60114 8.8394C5.00309 8.14115 5.6376 7.60713 6.39328 7.32978C6.39328 7.36137 6.39155 7.41706 6.39155 7.45611V11.6829C6.39041 11.8977 6.50525 12.0969 6.69187 12.2032L11.1587 14.782L9.6123 15.6749C9.59684 15.6852 9.57734 15.687 9.56009 15.6795L5.86097 13.5423C4.21698 12.5902 3.6531 10.4869 4.60056 8.83998L4.60114 8.8394ZM17.3063 11.7961L12.8395 9.21667L14.3859 8.32433C14.4013 8.314 14.4208 8.31227 14.4381 8.31974L18.1372 10.4553C19.7841 11.4068 20.3486 13.5135 19.397 15.1604C18.9945 15.8575 18.3606 16.3915 17.6054 16.6694V12.3163C17.6072 12.1015 17.4929 11.9029 17.3068 11.7961H17.3063ZM18.8452 9.47963C18.8182 9.46304 18.7706 9.43425 18.7367 9.41475L15.0777 7.30165C14.8923 7.19312 14.6626 7.19312 14.4765 7.30165L10.0097 9.88107V8.09521C10.0086 8.07684 10.0172 8.05905 10.0316 8.04756L13.7301 5.91376C15.3775 4.96343 17.4837 5.52903 18.4335 7.17705C18.8349 7.873 18.9802 8.68781 18.8441 9.47963H18.8452ZM9.16904 12.6625L7.6221 11.7697C7.60545 11.7616 7.59454 11.7456 7.59224 11.7272V7.45554C7.59339 5.55373 9.13632 4.01252 11.0381 4.01367C11.8426 4.01367 12.6212 4.29618 13.2397 4.81068C13.2116 4.82562 13.1633 4.85261 13.1311 4.87213L9.47224 6.98525C9.28504 7.09148 9.1702 7.29016 9.17134 7.5055L9.16904 12.6614V12.6625ZM10.0091 10.8515L11.9988 9.70247L13.9885 10.8509V13.1483L11.9988 14.2968L10.0091 13.1483V10.8515Z" fill="white"/>
</g>
</g>
<defs>
<linearGradient id="paint0_linear_177_250" x1="19.7344" y1="2.15572e-06" x2="5.10938" y2="24" gradientUnits="userSpaceOnUse">
<stop stop-color="#44547F"/>
<stop offset="0.531667" stop-color="#BCC3DE"/>
<stop offset="1" stop-color="#44547F"/>
</linearGradient>
<clipPath id="clip0_177_250">
<rect width="24" height="24" fill="white"/>
</clipPath>
</defs>
</svg>
