<svg width="24" height="24" viewBox="0 0 24 24" fill="currentColor" xmlns="http://www.w3.org/2000/svg">
<g clip-path="url(#clip0_177_257)">
<path d="M21.4823 9.5157C21.4823 6.99198 20.4798 4.57163 18.6952 2.78709C16.9107 1.00256 14.4904 1.4809e-05 11.9666 1.4809e-05C9.69921 -0.0039843 7.50492 0.802094 5.77929 2.27296C4.05365 3.74382 2.91018 5.78272 2.55497 8.02216C2.19976 10.2616 2.65618 12.5543 3.84196 14.4869C5.02774 16.4196 6.86489 17.8651 9.02226 18.563V23.3308C9.02226 23.5083 9.09276 23.6785 9.21826 23.804C9.34375 23.9295 9.51396 24 9.69144 24H14.2084C14.3859 24 14.5561 23.9295 14.6816 23.804C14.8071 23.6785 14.8776 23.5083 14.8776 23.3308V18.5697C16.7964 17.9541 18.4704 16.7455 19.6585 15.1179C20.8466 13.4902 21.4876 11.5275 21.489 9.51235L21.4823 9.5157ZM11.9666 12.7277C11.1139 12.7277 10.296 12.389 9.69301 11.786C9.09001 11.183 8.75125 10.3651 8.75125 9.51235C8.75125 8.65958 9.09001 7.84173 9.69301 7.23873C10.296 6.63573 11.1139 6.29696 11.9666 6.29696C12.8199 6.29696 13.6381 6.6359 14.2414 7.23922C14.8448 7.84253 15.1837 8.66081 15.1837 9.51403C15.1837 10.3672 14.8448 11.1855 14.2414 11.7888C13.6381 12.3922 12.8199 12.7311 11.9666 12.7311V12.7277Z" fill="#2684FF"/>
<path d="M11.9662 2.02295e-05V6.30031C12.8195 6.30031 13.6377 6.63925 14.241 7.24257C14.8444 7.84589 15.1833 8.66416 15.1833 9.51738C15.1833 10.3706 14.8444 11.1889 14.241 11.7922C13.6377 12.3955 12.8195 12.7344 11.9662 12.7344C12.7471 12.7344 13.496 13.0447 14.0482 13.5968C14.6004 14.149 14.9106 14.8979 14.9106 15.6788V18.5697C17.0691 17.8716 18.9071 16.4254 20.0934 14.4918C21.2797 12.5581 21.7362 10.2643 21.3805 8.02385C21.0249 5.78339 19.8805 3.74368 18.1537 2.27247C16.427 0.80126 14.2314 -0.00465524 11.9629 2.02295e-05H11.9662Z" fill="url(#paint0_linear_177_257)"/>
</g>
<defs>
<linearGradient id="paint0_linear_177_257" x1="16.7241" y1="16.8465" x2="16.7241" y2="6.73862" gradientUnits="userSpaceOnUse">
<stop offset="0.18" stop-color="#0052CC"/>
<stop offset="1" stop-color="#2684FF"/>
</linearGradient>
<clipPath id="clip0_177_257">
<rect width="24" height="24" fill="white"/>
</clipPath>
</defs>
</svg>
