<svg width="24" height="24" viewBox="0 0 24 24" fill="none" xmlns="http://www.w3.org/2000/svg">
<path d="M10.5651 23.9847C8.31859 23.8228 6.0982 23.2573 4.73645 22.5004C3.96079 22.0691 3.36986 21.5392 3.13797 21.0669L3 20.7859V11.9718V3.15752L3.10917 2.93585C3.59705 1.94533 5.15408 1.05238 7.32761 0.516598C8.06542 0.334713 9.13055 0.153583 9.9995 0.0622458C10.8868 -0.0310455 13.2387 -0.016852 14.1238 0.0872738C16.4762 0.363651 18.478 0.982391 19.7116 1.81447C20.1873 2.13535 20.6755 2.64879 20.8409 3.00221L20.9826 3.30522L20.9705 12.0928L20.9583 20.8804L20.8445 21.1115C20.782 21.2388 20.5929 21.489 20.4243 21.6676C19.3986 22.7549 17.1984 23.5593 14.3124 23.902C13.7241 23.9718 11.1686 24.0283 10.5651 23.9847ZM14.7051 16.4321C14.6965 16.4096 14.3607 16.1104 13.9589 15.7673C13.557 15.4241 13.2109 15.1272 13.1897 15.1075C13.1687 15.0878 13.2428 15.018 13.3547 14.9524C13.4667 14.8868 13.681 14.7044 13.8312 14.5469C14.2701 14.0866 14.4773 13.5179 14.4773 12.773C14.4773 12.0397 14.2539 11.4481 13.8064 10.9964C13.3555 10.5411 12.8377 10.3456 12.0836 10.3456C10.9213 10.3456 10.0287 11.0238 9.74374 12.1234C9.64574 12.5015 9.64626 13.2657 9.74477 13.6011C10.0017 14.4758 10.7015 15.1112 11.5724 15.2603C11.8671 15.3109 11.9071 15.3326 12.108 15.5523C12.2274 15.6828 12.4725 15.9434 12.6526 16.1313L12.9799 16.4731H13.8504C14.3292 16.4731 14.7137 16.4547 14.7051 16.4321ZM11.72 13.995C11.5105 13.8857 11.4313 13.8009 11.3118 13.558C11.2195 13.3703 11.2037 13.2636 11.2026 12.8202C11.2016 12.3695 11.216 12.2721 11.3123 12.0765C11.47 11.7563 11.6873 11.6047 12.0234 11.5804C12.4912 11.5465 12.7612 11.7761 12.9028 12.3279C13.0763 13.0044 12.8855 13.7237 12.4692 13.9623C12.2507 14.0876 11.9249 14.1018 11.72 13.995ZM7.86181 15.2508C8.77443 15.0777 9.29249 14.547 9.29249 13.7851C9.29249 13.1091 8.95802 12.7153 8.03364 12.3027C7.50449 12.0664 7.31281 11.9181 7.31281 11.7449C7.31281 11.6013 7.49471 11.4439 7.70646 11.4044C7.91321 11.3659 8.46156 11.4611 8.78538 11.5919L9.05682 11.7015V11.1007V10.4999L8.76222 10.4345C8.58014 10.3941 8.19756 10.3699 7.76059 10.3711C7.14164 10.3711 7.02044 10.3862 6.78752 10.4787C6.10714 10.7488 5.78428 11.2089 5.78944 11.9011C5.79427 12.549 6.13609 12.9531 6.98678 13.3167C7.48872 13.5313 7.6899 13.6946 7.6899 13.8876C7.6899 14.2979 7.00638 14.3484 6.2827 13.9916C6.0845 13.8939 5.90644 13.806 5.887 13.7962C5.86755 13.7865 5.85165 14.0672 5.85165 14.4199C5.85165 15.0585 5.85233 15.0616 5.96794 15.1055C6.4033 15.2711 7.36552 15.3449 7.86181 15.2508ZM18.2952 14.6583V14.1164H17.4704H16.6455V12.2545V10.3927H15.915H15.1844V12.7966V15.2004H16.7398H18.2952V14.6583ZM13.2047 5.15952C14.6565 5.05883 15.7447 4.86871 16.7025 4.54852C17.6565 4.22953 18.2201 3.84354 18.3461 3.42279C18.3947 3.26065 18.3912 3.19915 18.3233 3.02138C18.019 2.22441 16.3187 1.61208 13.7205 1.36382C12.6092 1.2576 10.5879 1.29204 9.52822 1.43518C7.91129 1.65365 6.59908 2.05945 6.01561 2.52145C4.83532 3.45608 6.08349 4.48404 8.98613 4.96788C10.2447 5.17768 11.8753 5.25176 13.2047 5.15952Z" fill="#DF6C20"/>
</svg>
