<svg width="24" height="24" viewBox="0 0 24 24" fill="currentColor" xmlns="http://www.w3.org/2000/svg">
<rect width="24" height="24" fill="#27262B"/>
<path d="M5.8125 15.0469C4.5 15.9844 3.79688 16.7812 2.39062 16.7812C2.48438 11.1094 6.70312 7.125 12.0469 7.125C17.3906 7.125 21.5625 11.4375 21.5625 16.7813C20.2969 16.8281 19.3125 15.3306 18.5625 14.3438C17.8125 13.3569 16.7812 11.9531 15.1406 11.9531C13.5 11.9531 12.0938 14.1562 10.7812 15.7031C8.53125 13.8281 7.125 14.1094 5.8125 15.0469Z" fill="#E6E1D8"/>
<path d="M15.2344 13.1719C16.5938 13.2656 17.25 14.8594 18.9375 16.7813C18.9375 16.7813 14.1094 16.8281 13.2188 16.7813C12.3281 16.7344 11.7656 16.3125 11.7656 16.3125C12.0937 16.1719 13.875 13.0781 15.2344 13.1719Z" fill="#E6E1D8"/>
<path d="M8.67188 16.8281C7.17188 16.8281 5.4375 16.7813 5.4375 16.7813C5.4375 16.7813 6.98438 15.5625 7.96875 15.5625C8.67188 15.5625 9.84375 16.4531 9.84375 16.4531C9.84375 16.4531 9.42188 16.8281 8.67188 16.8281Z" fill="#E6E1D8"/>
</svg>
