<svg width="24" height="24" viewBox="0 0 24 24" fill="currentColor" xmlns="http://www.w3.org/2000/svg">
<g clip-path="url(#clip0_177_202)">
<path d="M11.6145 5.64211C11.7945 5.3693 12.2012 5.3693 12.388 5.64211L16.2086 11.3374L20.2699 17.3861C20.2219 17.4714 20.1666 17.5524 20.1045 17.628C20.0621 17.6786 20.022 17.7263 19.972 17.7753C19.961 17.7858 19.9503 17.7941 19.9372 17.804L19.9231 17.8148C19.8772 17.8491 19.8298 17.8815 19.7812 17.9121C19.7418 17.9368 19.7093 17.9585 19.6622 17.9811C19.6153 18.0038 19.5401 18.031 19.495 18.0465C19.4497 18.0621 19.4346 18.0674 19.4012 18.0748C19.3845 18.078 19.3678 18.0813 19.3512 18.0834C19.3398 18.0854 19.3286 18.0873 19.3172 18.0887C19.3152 18.0894 19.3125 18.0894 19.3106 18.09L19.2598 18.096C19.2066 18.1014 19.1512 18.1041 19.0946 18.1041C14.3816 18.6179 9.62684 18.6179 4.91393 18.1041C4.90849 18.1041 4.90324 18.1041 4.8978 18.1034H4.88187L4.87446 18.1027H4.86724C4.8618 18.102 4.85646 18.102 4.85121 18.1014H4.84587C4.83846 18.1007 4.8318 18.1007 4.82458 18.1001C4.78052 18.0967 4.72933 18.0856 4.69258 18.0775C4.65574 18.0701 4.6338 18.0641 4.60324 18.0573C4.24043 17.9714 3.90724 17.7526 3.75452 17.3987C3.75049 17.3894 3.74712 17.3801 3.74308 17.3707L3.74252 17.3687L0.0211151 7.87739C-0.0789162 7.61077 0.194553 7.34395 0.461084 7.4707C0.467834 7.4707 0.481146 7.4707 0.487896 7.47736L7.79121 11.3373L11.6145 5.64211ZM23.5213 7.47745C23.7887 7.33083 24.0754 7.58405 23.982 7.86408V7.87748L20.27 17.3862L16.2086 11.3374L23.5147 7.47745H23.5213Z" fill="#FF4B4B"/>
<path d="M23.5217 7.47743H23.5151L16.209 11.3374L20.2703 17.3862L23.9824 7.87746V7.86406C24.0757 7.58403 23.789 7.33081 23.5217 7.47743Z" fill="#7D353B"/>
<path d="M12.3878 5.64211C12.201 5.3693 11.7943 5.3693 11.6143 5.64211L7.79102 11.3374L11.9983 13.5615L19.9718 17.7753C20.0218 17.7263 20.062 17.6786 20.1043 17.6281C20.1664 17.5524 20.2217 17.4714 20.2697 17.3861L16.2085 11.3374L12.3878 5.64211Z" fill="#BD4043"/>
</g>
<defs>
<clipPath id="clip0_177_202">
<rect width="24" height="24" fill="white"/>
</clipPath>
</defs>
</svg>
