<svg width="24" height="24" viewBox="0 0 24 24" fill="none" xmlns="http://www.w3.org/2000/svg">
<g clip-path="url(#clip0_177_262)">
<path d="M18.6131 0H5.38691C2.4118 0 0 2.4118 0 5.38691V18.6131C0 21.5882 2.4118 24 5.38691 24H18.6131C21.5882 24 24 21.5882 24 18.6131V5.38691C24 2.4118 21.5882 0 18.6131 0Z" fill="#6772E5"/>
<path fill-rule="evenodd" clip-rule="evenodd" d="M11.0563 9.3107C11.0563 8.73709 11.5301 8.47938 12.2949 8.47938C13.5623 8.50679 14.806 8.82838 15.9278 9.41877V6.0187C14.7736 5.56609 13.5429 5.34028 12.3032 5.35365C9.34376 5.35365 7.36523 6.89989 7.36523 9.51021C7.36523 13.5504 12.9184 12.8937 12.9184 14.6394C12.9184 15.3128 12.3282 15.5289 11.5218 15.5289C10.1012 15.4506 8.71823 15.0436 7.48162 14.3401V17.8233C8.74169 18.3678 10.0992 18.6507 11.4719 18.6547C14.5062 18.6547 16.6011 17.1583 16.6011 14.4981C16.6261 10.167 11.0563 10.9484 11.0563 9.3107Z" fill="white"/>
</g>
<defs>
<clipPath id="clip0_177_262">
<rect width="24" height="24" fill="white"/>
</clipPath>
</defs>
</svg>
