<svg width="24" height="24" viewBox="0 0 24 24" fill="currentColor" xmlns="http://www.w3.org/2000/svg">
<g clip-path="url(#clip0_177_267)">
<g clip-path="url(#clip1_177_267)">
<path d="M13.999 23.4231C13.3917 24.1879 12.1603 23.7689 12.1456 22.7923L11.9316 8.50885H21.5358C23.2754 8.50885 24.2456 10.5181 23.1639 11.8805L13.999 23.4231Z" fill="url(#paint0_linear_177_267)"/>
<path d="M13.999 23.4231C13.3917 24.1879 12.1603 23.7689 12.1456 22.7923L11.9316 8.50885H21.5358C23.2754 8.50885 24.2456 10.5181 23.1639 11.8805L13.999 23.4231Z" fill="url(#paint1_linear_177_267)" fill-opacity="0.2"/>
<path d="M10.0942 0.439812C10.7015 -0.325087 11.933 0.0940224 11.9476 1.0706L12.0414 15.354H2.5574C0.817771 15.354 -0.152451 13.3448 0.929301 11.9824L10.0942 0.439812Z" fill="#3ECF8E"/>
</g>
</g>
<defs>
<linearGradient id="paint0_linear_177_267" x1="11.9316" y1="11.6759" x2="20.4675" y2="15.2558" gradientUnits="userSpaceOnUse">
<stop stop-color="#249361"/>
<stop offset="1" stop-color="#3ECF8E"/>
</linearGradient>
<linearGradient id="paint1_linear_177_267" x1="8.14729" y1="6.4944" x2="12.0401" y2="13.8224" gradientUnits="userSpaceOnUse">
<stop/>
<stop offset="1" stop-opacity="0"/>
</linearGradient>
<clipPath id="clip0_177_267">
<rect width="24" height="24" fill="white"/>
</clipPath>
<clipPath id="clip1_177_267">
<rect width="23.1504" height="24" fill="white" transform="translate(0.46875)"/>
</clipPath>
</defs>
</svg>
