<svg width="24" height="24" viewBox="0 0 24 24" fill="none" xmlns="http://www.w3.org/2000/svg">
<path fill-rule="evenodd" clip-rule="evenodd" d="M12 4.59375C8.8 4.59375 6.8 6.19375 6 9.39375C7.2 7.79375 8.6 7.19375 10.2 7.59375C11.1129 7.82175 11.7653 8.48442 12.4876 9.21731C13.664 10.4115 15.0258 11.7938 18 11.7938C21.2 11.7938 23.2 10.1937 24 6.99375C22.8 8.59375 21.4 9.19375 19.8 8.79375C18.8871 8.56575 18.2347 7.90308 17.5124 7.17019C16.336 5.97597 14.9742 4.59375 12 4.59375ZM6 11.7938C2.8 11.7938 0.8 13.3938 0 16.5938C1.2 14.9938 2.6 14.3938 4.2 14.7938C5.11289 15.0222 5.76533 15.6844 6.48756 16.4173C7.664 17.6115 9.02578 18.9938 12 18.9938C15.2 18.9938 17.2 17.3938 18 14.1938C16.8 15.7937 15.4 16.3938 13.8 15.9937C12.8871 15.7657 12.2347 15.1031 11.5124 14.3702C10.336 13.176 8.97422 11.7938 6 11.7938Z" fill="#38BDF8"/>
</svg>
