<svg width="24" height="24" viewBox="0 0 24 24" fill="none" xmlns="http://www.w3.org/2000/svg">
<g clip-path="url(#clip0_177_639)">
<path d="M21.8432 8.4174H14.5406V5.18378H9.45367V8.4174H2.15152C1.77004 8.4174 1.46094 8.72651 1.46094 9.10755C1.46094 9.4886 1.77004 9.7977 2.15152 9.7977H9.45367V13.0313H11.1562V14.079C11.1562 14.3244 11.2638 14.5442 11.4326 14.6981C11.3231 14.7164 11.2085 14.7308 11.0942 14.7434C10.6042 14.8005 10.0488 14.865 9.9315 15.3852L9.92627 15.4292C9.92365 15.57 9.97553 15.6951 10.0762 15.7919C10.3884 16.0919 11.0938 16.067 12.2199 15.9999C13.1037 15.948 14.2036 15.883 14.5289 16.1795C14.5842 16.2305 14.6108 16.2885 14.613 16.3678C14.627 16.7938 13.9481 16.8797 12.9868 16.9547C12.209 17.0153 11.4753 17.0728 11.1383 17.4683C11.0066 17.6226 10.9491 17.8122 10.9674 18.0328L11.2215 18.0115C11.1348 18.0228 11.0467 18.0337 10.9674 18.0472V18.7609L12.7906 18.7696C14.1474 18.7696 14.9047 19.5191 14.8959 20.8305C14.8959 22.3377 14.0589 23.1119 12.6502 23.1032C12.4301 23.1032 12.2012 23.1032 12.0512 23.0766V19.7798H10.9678V23.8871C11.3201 23.932 11.7957 23.9669 12.4301 23.9669C13.5837 23.9669 14.5267 23.6935 15.1166 23.1564C15.6803 22.6455 16.0413 21.8533 16.0413 20.7961C16.0413 19.7833 15.6894 19.0783 15.1166 18.6118C14.5707 18.1536 13.8043 17.9247 12.6943 17.9247C12.233 17.9247 11.7922 17.9483 11.4034 17.9897C11.3964 17.8903 11.4173 17.8149 11.4709 17.7512C11.6898 17.494 12.3969 17.4386 13.0213 17.3898C13.9852 17.3148 15.0786 17.2298 15.0494 16.3539C15.0424 16.1595 14.9653 15.9877 14.8227 15.8586C14.3614 15.437 13.2602 15.5029 12.1946 15.5657C11.4775 15.6084 10.5876 15.6611 10.3692 15.4453C10.4403 15.2727 10.7149 15.2286 11.1448 15.1794C11.4866 15.1393 11.8598 15.0935 12.134 14.9078C12.5334 14.8428 12.839 14.4988 12.839 14.0812V13.0331H14.5411V9.79945H21.8437C22.2247 9.79945 22.5338 9.49034 22.5338 9.1093C22.5338 8.72825 22.2243 8.4174 21.8432 8.4174Z" fill="black"/>
<path d="M8.96444 7.0637H9.10919V5.59229H8.96444C8.55768 5.59229 8.22852 5.92145 8.22852 6.32821C8.22852 6.73498 8.55768 7.0637 8.96444 7.0637Z" fill="black"/>
<path d="M14.7676 5.59223V7.06365H14.9123C15.3195 7.06365 15.6482 6.73449 15.6482 6.32772C15.6482 5.92096 15.3191 5.5918 14.9123 5.5918L14.7676 5.59223Z" fill="black"/>
<path d="M12.3681 5.01895L12.4879 5.01764C12.4788 4.29 12.6462 3.76683 12.9989 3.41805C13.669 2.75624 14.97 2.78675 16.2277 2.81858C17.5387 2.85041 18.895 2.8831 19.624 2.11797C20.0329 1.68853 20.2012 1.06683 20.1393 0.218424L19.7051 0.25025C19.7574 0.969173 19.6279 1.48188 19.3092 1.81714C18.9186 2.22653 18.2672 2.35427 17.5082 2.38566C17.6787 2.29672 17.8361 2.18772 17.9703 2.04254C18.3758 1.60352 18.5397 0.935167 18.4713 0L18.0362 0.0318262C18.0959 0.840124 17.969 1.40122 17.6495 1.74695C17.1681 2.26707 16.2761 2.2723 15.3309 2.27753C14.3033 2.28364 13.2404 2.28974 12.5682 2.97422C12.1283 3.42153 11.9207 4.09512 11.9321 5.0329L12.3681 5.02723C12.3676 5.02418 12.3681 5.022 12.3681 5.01895Z" fill="black"/>
<path d="M9.63475 20.8383V20.8208C10.3393 20.5745 10.6916 20.0814 10.6916 19.482C10.6916 18.733 10.0838 18.0812 8.90319 18.0812C8.21609 18.0812 7.58175 18.2926 7.25607 18.5215L7.50284 19.3058C7.74044 19.1476 8.20737 18.9448 8.6743 18.9448C9.29949 18.9448 9.59028 19.271 9.59028 19.6581C9.59028 20.2305 8.95594 20.4599 8.45413 20.4599H7.96976V21.2525H8.47157C9.13251 21.2525 9.76642 21.5433 9.76642 22.2212C9.77514 22.6707 9.44031 23.1381 8.61283 23.1381C8.06699 23.1381 7.52943 22.9175 7.30926 22.7849L7.0625 23.6045C7.37073 23.8073 7.96976 24.0004 8.66558 24.0004C10.0838 24.0004 10.8943 23.2344 10.8943 22.2657C10.8943 21.4901 10.3306 20.9617 9.63475 20.8383Z" fill="black"/>
</g>
<defs>
<clipPath id="clip0_177_639">
<rect width="24" height="24" fill="white"/>
</clipPath>
</defs>
</svg>
