<svg width="24" height="24" viewBox="0 0 24 24" fill="none" xmlns="http://www.w3.org/2000/svg">
<g clip-path="url(#clip0_184_931)">
<path d="M21.8432 8.41759H14.5406V5.18396H9.45367V8.41759H2.15152C1.77004 8.41759 1.46094 8.72669 1.46094 9.10774C1.46094 9.48878 1.77004 9.79788 2.15152 9.79788H9.45367V13.0315H11.1562V14.0792C11.1562 14.3246 11.2638 14.5443 11.4326 14.6982C11.3231 14.7166 11.2085 14.7309 11.0942 14.7436C10.6042 14.8007 10.0488 14.8652 9.9315 15.3853L9.92627 15.4294C9.92365 15.5702 9.97553 15.6953 10.0762 15.7921C10.3884 16.0921 11.0938 16.0672 12.2199 16.0001C13.1037 15.9482 14.2036 15.8832 14.5289 16.1797C14.5842 16.2307 14.6108 16.2887 14.613 16.368C14.627 16.794 13.9481 16.8799 12.9868 16.9549C12.209 17.0155 11.4753 17.073 11.1383 17.4684C11.0066 17.6228 10.9491 17.8124 10.9674 18.033L11.2215 18.0117C11.1348 18.023 11.0467 18.0339 10.9674 18.0474V18.7611L12.7906 18.7698C14.1474 18.7698 14.9047 19.5193 14.8959 20.8307C14.8959 22.3378 14.0589 23.1121 12.6502 23.1034C12.4301 23.1034 12.2012 23.1034 12.0512 23.0768V19.78H10.9678V23.8873C11.3201 23.9322 11.7957 23.9671 12.4301 23.9671C13.5837 23.9671 14.5267 23.6937 15.1166 23.1566C15.6803 22.6456 16.0413 21.8535 16.0413 20.7962C16.0413 19.7835 15.6894 19.0785 15.1166 18.612C14.5707 18.1538 13.8043 17.9249 12.6943 17.9249C12.233 17.9249 11.7922 17.9484 11.4034 17.9899C11.3964 17.8905 11.4173 17.815 11.4709 17.7514C11.6898 17.4942 12.3969 17.4388 13.0213 17.39C13.9852 17.315 15.0786 17.23 15.0494 16.3541C15.0424 16.1596 14.9653 15.9879 14.8227 15.8588C14.3614 15.4372 13.2602 15.5031 12.1946 15.5658C11.4775 15.6086 10.5876 15.6613 10.3692 15.4455C10.4403 15.2729 10.7149 15.2288 11.1448 15.1796C11.4866 15.1395 11.8598 15.0937 12.134 14.908C12.5334 14.843 12.839 14.499 12.839 14.0813V13.0333H14.5411V9.79963H21.8437C22.2247 9.79963 22.5338 9.49052 22.5338 9.10948C22.5338 8.72844 22.2243 8.41759 21.8432 8.41759Z" fill="white"/>
<path d="M8.96444 7.06388H9.10919V5.59247H8.96444C8.55768 5.59247 8.22852 5.92163 8.22852 6.32839C8.22852 6.73516 8.55768 7.06388 8.96444 7.06388Z" fill="white"/>
<path d="M14.7676 5.59242V7.06383H14.9123C15.3195 7.06383 15.6482 6.73467 15.6482 6.32791C15.6482 5.92114 15.3191 5.59198 14.9123 5.59198L14.7676 5.59242Z" fill="white"/>
<path d="M12.3681 5.01913L12.4879 5.01782C12.4788 4.29018 12.6462 3.76701 12.9989 3.41823C13.669 2.75642 14.97 2.78694 16.2277 2.81876C17.5387 2.85059 18.895 2.88329 19.624 2.11815C20.0329 1.68872 20.2012 1.06701 20.1393 0.218607L19.7051 0.250433C19.7574 0.969356 19.6279 1.48206 19.3092 1.81733C18.9186 2.22671 18.2672 2.35445 17.5082 2.38584C17.6787 2.2969 17.8361 2.18791 17.9703 2.04273C18.3758 1.6037 18.5397 0.93535 18.4713 0.000183105L18.0362 0.0320093C18.0959 0.840307 17.969 1.40141 17.6495 1.74714C17.1681 2.26725 16.2761 2.27249 15.3309 2.27772C14.3033 2.28382 13.2404 2.28992 12.5682 2.97441C12.1283 3.42172 11.9207 4.0953 11.9321 5.03308L12.3681 5.02741C12.3676 5.02436 12.3681 5.02218 12.3681 5.01913Z" fill="white"/>
<path d="M9.63475 20.8385V20.821C10.3393 20.5747 10.6916 20.0816 10.6916 19.4821C10.6916 18.7331 10.0838 18.0814 8.90319 18.0814C8.21609 18.0814 7.58175 18.2928 7.25607 18.5217L7.50284 19.306C7.74044 19.1478 8.20737 18.945 8.6743 18.945C9.29949 18.945 9.59028 19.2711 9.59028 19.6583C9.59028 20.2307 8.95594 20.46 8.45413 20.46H7.96976V21.2526H8.47157C9.13251 21.2526 9.76642 21.5434 9.76642 22.2214C9.77514 22.6709 9.44031 23.1382 8.61283 23.1382C8.06699 23.1382 7.52943 22.9176 7.30926 22.7851L7.0625 23.6047C7.37073 23.8075 7.96976 24.0006 8.66558 24.0006C10.0838 24.0006 10.8943 23.2346 10.8943 22.2658C10.8943 21.4902 10.3306 20.9618 9.63475 20.8385Z" fill="white"/>
</g>
<defs>
<clipPath id="clip0_184_931">
<rect width="24" height="24" fill="white"/>
</clipPath>
</defs>
</svg>
