<svg width="24" height="24" viewBox="0 0 24 24" fill="none" xmlns="http://www.w3.org/2000/svg">
<g clip-path="url(#clip0_177_315)">
<path fill-rule="evenodd" clip-rule="evenodd" d="M21.1508 0H2.85296C1.27884 0 0.00216781 1.27495 2.29989e-05 2.84907V21.1201C-0.00302094 21.8787 0.296199 22.6073 0.831559 23.1448C1.36692 23.6824 2.09432 23.9845 2.85296 23.9845H21.1508C21.9088 23.9835 22.6353 23.6809 23.1698 23.1435C23.7043 22.606 24.003 21.8781 24 21.1201V2.84907C23.9978 1.27645 22.7235 0.00211801 21.1508 0ZM10.3506 17.2751C10.3495 17.5287 10.2475 17.7714 10.0672 17.9497C9.88678 18.1279 9.64284 18.2269 9.38934 18.2249H5.39061C4.8676 18.2227 4.44476 17.7982 4.44476 17.2751V5.37517C4.44476 4.85218 4.8676 4.42761 5.39061 4.42549H9.38934C9.91294 4.4276 10.3369 4.85155 10.339 5.37517L10.3506 17.2751ZM19.5783 11.8116C19.5783 12.0654 19.4767 12.3087 19.2961 12.4872C19.1154 12.6656 18.8709 12.7643 18.6171 12.7613H14.6183C14.0948 12.7591 13.6708 12.3352 13.6687 11.8116V5.37517C13.6708 4.85155 14.0948 4.4276 14.6183 4.42549H18.6171C19.1401 4.42761 19.5629 4.85218 19.5629 5.37517L19.5783 11.8116Z" fill="url(#paint0_linear_177_315)"/>
</g>
<defs>
<linearGradient id="paint0_linear_177_315" x1="3747.6" y1="1535.01" x2="3747.6" y2="0" gradientUnits="userSpaceOnUse">
<stop stop-color="#0052CC"/>
<stop offset="1" stop-color="#2684FF"/>
</linearGradient>
<clipPath id="clip0_177_315">
<rect width="24" height="24" fill="white"/>
</clipPath>
</defs>
</svg>
