<svg width="24" height="24" viewBox="0 0 24 24" fill="currentColor" xmlns="http://www.w3.org/2000/svg">
<g clip-path="url(#clip0_177_317)">
<mask id="mask0_177_317" style="mask-type:luminance" maskUnits="userSpaceOnUse" x="0" y="0" width="24" height="24">
<path d="M24 0H0V24H24V0Z" fill="white"/>
</mask>
<g mask="url(#mask0_177_317)">
<path d="M21.6562 0H2.34375C1.04933 0 0 1.04933 0 2.34375V21.6562C0 22.9506 1.04933 24 2.34375 24H21.6562C22.9506 24 24 22.9506 24 21.6562V2.34375C24 1.04933 22.9506 0 21.6562 0Z" fill="#3178C6"/>
<path d="M21.6562 0H2.34375C1.04933 0 0 1.04933 0 2.34375V21.6562C0 22.9506 1.04933 24 2.34375 24H21.6562C22.9506 24 24 22.9506 24 21.6562V2.34375C24 1.04933 22.9506 0 21.6562 0Z" fill="#3178C6"/>
<path fill-rule="evenodd" clip-rule="evenodd" d="M14.8565 19.098V21.4446C15.238 21.6402 15.6891 21.7867 16.21 21.8846C16.7308 21.9823 17.2799 22.0312 17.857 22.0312C18.4194 22.0312 18.9537 21.9775 19.4599 21.8699C19.9661 21.7624 20.4101 21.5851 20.7915 21.3383C21.1729 21.0914 21.4749 20.7687 21.6975 20.3703C21.92 19.9719 22.0312 19.4793 22.0312 18.8927C22.0312 18.4674 21.9676 18.0946 21.8405 17.7744C21.7134 17.4541 21.5299 17.1694 21.2902 16.9201C21.0507 16.6707 20.7633 16.447 20.4284 16.249C20.0933 16.051 19.7156 15.8642 19.2948 15.6881C18.9867 15.561 18.7104 15.4375 18.4659 15.3178C18.2214 15.198 18.0135 15.0757 17.8424 14.9512C17.6711 14.8265 17.5391 14.6945 17.4462 14.5552C17.3532 14.4158 17.3067 14.2582 17.3067 14.0821C17.3067 13.9208 17.3484 13.7754 17.4315 13.6458C17.5146 13.5163 17.632 13.4051 17.7837 13.3122C17.9352 13.2193 18.121 13.1472 18.3411 13.0958C18.5613 13.0445 18.8058 13.0189 19.0748 13.0189C19.2704 13.0189 19.477 13.0335 19.6947 13.0628C19.9123 13.0922 20.1312 13.1374 20.3512 13.1985C20.5715 13.2596 20.7853 13.3366 20.9932 13.4295C21.201 13.5224 21.393 13.6299 21.5691 13.7522V11.5596C21.2121 11.4227 20.822 11.3212 20.399 11.2552C19.976 11.1892 19.4906 11.1562 18.9427 11.1562C18.3852 11.1562 17.857 11.2162 17.3581 11.3359C16.8592 11.4557 16.4203 11.6427 16.0413 11.8969C15.6622 12.1511 15.3627 12.475 15.1427 12.8685C14.9226 13.2621 14.8125 13.7326 14.8125 14.2801C14.8125 14.9792 15.0142 15.5757 15.4177 16.0695C15.8212 16.5632 16.4337 16.9812 17.2554 17.3233C17.5782 17.4553 17.879 17.5849 18.1578 17.712C18.4365 17.8392 18.6774 17.9712 18.8804 18.108C19.0833 18.2449 19.2435 18.3941 19.361 18.5553C19.4782 18.7167 19.5371 18.9 19.5371 19.1054C19.5371 19.2569 19.5003 19.3974 19.4269 19.527C19.3536 19.6566 19.2423 19.7689 19.0932 19.8643C18.9439 19.9596 18.7581 20.0342 18.5356 20.088C18.313 20.1417 18.0526 20.1687 17.7543 20.1687C17.2456 20.1687 16.742 20.0794 16.243 19.9009C15.7442 19.7226 15.282 19.4549 14.8565 19.098ZM10.9116 13.3163H13.9219V11.3906H5.53125V13.3163H8.52684V21.8907H10.9116V13.3163Z" fill="white"/>
</g>
</g>
<defs>
<clipPath id="clip0_177_317">
<rect width="24" height="24" fill="white"/>
</clipPath>
</defs>
</svg>
