<svg width="24" height="24" viewBox="0 0 24 24" fill="none" xmlns="http://www.w3.org/2000/svg">
<mask id="mask0_177_286" style="mask-type:luminance" maskUnits="userSpaceOnUse" x="1" y="0" width="22" height="24">
<path d="M22.6507 0H1.40625V24H22.6507V0Z" fill="white"/>
</mask>
<g mask="url(#mask0_177_286)">
<path d="M22.6436 16.7916V5.59724L12.9494 0V4.29787L16.7471 6.49671C16.897 6.59664 16.897 6.79667 16.7471 6.84664L12.2498 9.44522C12.0998 9.54516 11.9499 9.49519 11.85 9.44522L7.35271 6.84664C7.2028 6.79667 7.2028 6.54668 7.35271 6.49671L11.1504 4.29787V0L1.40625 5.59724V16.7916L5.10405 14.6427V10.2449C5.10405 10.095 5.30393 9.99506 5.40387 10.045L9.90119 12.6436C10.0511 12.7435 10.1011 12.8437 10.1011 12.9936V18.1909C10.1011 18.3408 9.90119 18.4407 9.80125 18.3908L6.00352 16.1919L2.30571 18.3408L11.9999 23.988L21.6942 18.3908L17.9963 16.2419L14.1986 18.4407C14.0487 18.5407 13.8988 18.4407 13.8988 18.2408V13.0435C13.8988 12.8936 13.9987 12.7435 14.0987 12.6936L18.5961 10.095C18.746 9.99506 18.8959 10.095 18.8959 10.2949V14.6927L22.6436 16.7916Z" fill="#4C4C4C"/>
<path d="M12 23.988L21.6943 18.3907L17.9964 16.2419L14.1987 18.4407C14.0488 18.5406 13.8989 18.4407 13.8989 18.2408V13.0435C13.8989 12.8936 13.9988 12.7435 14.0988 12.6936L18.5962 10.095C18.7461 9.99505 18.896 10.095 18.896 10.2949V14.6927L22.5937 16.8415V5.59723L12 11.7441V23.988Z" fill="black"/>
<path d="M12.9494 0V4.29787L16.7471 6.49671C16.897 6.59664 16.897 6.79667 16.7471 6.84664L12.2497 9.44522C12.0998 9.54516 11.9499 9.49519 11.85 9.44522L7.35271 6.84664C7.2028 6.79667 7.2028 6.54668 7.35271 6.49671L11.1504 4.29787V0L1.40625 5.59724L11.9999 11.7442L22.5937 5.59724L12.9494 0Z" fill="#808080"/>
<path d="M9.85122 18.4407L6.05348 16.2419L2.35568 18.3907L12.0499 23.988V11.7441L1.40625 5.59723V16.7916L5.10405 14.6427V10.2449C5.10405 10.095 5.30393 9.99505 5.40387 10.045L9.90119 12.6436C10.0511 12.7435 10.1011 12.8436 10.1011 12.9936V18.1909C10.151 18.3907 10.0011 18.5406 9.85122 18.4407Z" fill="#4C4C4C"/>
</g>
</svg>
