<svg width="24" height="24" viewBox="0 0 24 24" fill="none" xmlns="http://www.w3.org/2000/svg">
<g clip-path="url(#clip0_177_325)">
<path fill-rule="evenodd" clip-rule="evenodd" d="M12.0469 23.5312C18.4413 23.5312 23.625 18.3475 23.625 11.9531C23.625 5.5587 18.4413 0.375 12.0469 0.375C5.65245 0.375 0.46875 5.5587 0.46875 11.9531C0.46875 18.3475 5.65245 23.5312 12.0469 23.5312ZM4.6411 12.0469C4.5943 7.875 8.01604 5.0625 10.8754 4.78125C8.81305 5.95312 9.04742 8.53125 10.313 8.01563V15.2344C10.8287 16.2656 11.9067 16.0312 13.1255 15.0938L13.1255 9.14062C13.1255 8.25 12.2349 7.59375 12.2349 7.59375C12.2349 7.59375 13.2193 7.5 13.688 7.92188C16.0318 5.4375 18.1412 5.4375 18.1412 5.4375C18.1044 5.47425 18.0635 5.5144 18.019 5.55798C17.3832 6.18142 16.0318 7.50637 16.0318 9.60938C16.0318 11.8594 16.0786 15.1406 16.0786 15.1406C16.605 15.8299 17.5318 15.4219 19.1255 13.7813C18.6099 16.2656 16.5943 18.0469 15.0943 18.7031L13.8755 17.3906L11.9067 19.3594C11.9067 19.3594 10.0786 19.3594 8.5786 18.5625C7.0786 17.7656 6.09422 16.4062 6.09422 16.4062C6.86846 16.5563 7.24233 16.5761 7.40672 16.0781L7.4068 10.3125C7.4068 9.84375 6.04742 8.0625 4.6411 12.0469Z" fill="white"/>
</g>
<defs>
<clipPath id="clip0_177_325">
<rect width="24" height="24" fill="white"/>
</clipPath>
</defs>
</svg>
