<svg width="24" height="24" viewBox="0 0 24 24" fill="none" xmlns="http://www.w3.org/2000/svg">
<g clip-path="url(#clip0_177_651)">
<mask id="mask0_177_651" style="mask-type:alpha" maskUnits="userSpaceOnUse" x="0" y="0" width="24" height="24">
<path fill-rule="evenodd" clip-rule="evenodd" d="M17.0189 23.8363C17.3969 23.9836 17.8279 23.9741 18.2094 23.7905L23.1506 21.4129C23.6698 21.1631 24 20.6376 24 20.0611V3.93937C24 3.3629 23.6698 2.83741 23.1506 2.58757L18.2094 0.209884C17.7087 -0.031048 17.1227 0.0279654 16.6832 0.347451C16.6205 0.393089 16.5607 0.444046 16.5046 0.500201L7.04522 9.13014L2.92493 6.00249C2.54136 5.71134 2.00487 5.7352 1.64864 6.05925L0.327127 7.26136C-0.108612 7.65772 -0.109112 8.34323 0.326047 8.74026L3.8993 12.0002L0.326047 15.2601C-0.109112 15.6572 -0.108612 16.3427 0.327127 16.7391L1.64864 17.9412C2.00487 18.2652 2.54136 18.2891 2.92493 17.9979L7.04522 14.8703L16.5046 23.5002C16.6542 23.6499 16.8299 23.7627 17.0189 23.8363ZM18.0036 6.55192L10.8262 12.0002L18.0036 17.4485V6.55192Z" fill="white"/>
</mask>
<g mask="url(#mask0_177_651)">
<path d="M23.1497 2.59113L18.2046 0.210177C17.6322 -0.0654191 16.9482 0.0508331 16.499 0.500046L0.310622 15.26C-0.124804 15.657 -0.124303 16.3425 0.311702 16.7389L1.63402 17.941C1.99047 18.2651 2.52729 18.2889 2.91107 17.9978L22.4056 3.20882C23.0596 2.71267 23.999 3.17913 23.999 4.00005V3.94265C23.999 3.36641 23.6689 2.84112 23.1497 2.59113Z" fill="#0065A9"/>
<g filter="url(#filter0_d_177_651)">
<path d="M23.1497 21.409L18.2046 23.79C17.6322 24.0656 16.9482 23.9493 16.499 23.5001L0.310622 8.74015C-0.124804 8.34315 -0.124303 7.65761 0.311702 7.26125L1.63402 6.05914C1.99047 5.73509 2.52729 5.71124 2.91107 6.00238L22.4056 20.7913C23.0596 21.2875 23.999 20.821 23.999 20.0001V20.0575C23.999 20.6337 23.6689 21.159 23.1497 21.409Z" fill="#007ACC"/>
</g>
<g filter="url(#filter1_d_177_651)">
<path d="M18.2059 23.7904C17.6333 24.0659 16.9493 23.9493 16.5 23.5001C17.0535 24.0536 18 23.6616 18 22.8788V1.1214C18 0.338584 17.0535 -0.053455 16.5 0.50008C16.9493 0.0508269 17.6333 -0.0655894 18.2059 0.209762L23.1501 2.58746C23.6696 2.8373 24 3.36278 24 3.93926V20.061C24 20.6375 23.6696 21.163 23.1501 21.4128L18.2059 23.7904Z" fill="#1F9CF0"/>
</g>
<g style="mix-blend-mode:overlay" opacity="0.25">
<path fill-rule="evenodd" clip-rule="evenodd" d="M17.0032 23.8363C17.3812 23.9835 17.8123 23.9741 18.1938 23.7905L23.135 21.4129C23.6542 21.1631 23.9844 20.6376 23.9844 20.0611V3.93939C23.9844 3.36289 23.6542 2.83741 23.135 2.58757L18.1938 0.209885C17.6931 -0.0310479 17.1071 0.0279655 16.6676 0.347449C16.6049 0.39309 16.545 0.444047 16.4889 0.500202L7.02959 9.13013L2.9093 6.0025C2.52575 5.71133 1.98925 5.73521 1.63301 6.05924L0.311503 7.26135C-0.124237 7.65773 -0.124737 8.34325 0.310423 8.74025L3.88367 12.0002L0.310423 15.2602C-0.124737 15.6572 -0.124237 16.3427 0.311503 16.739L1.63301 17.9412C1.98925 18.2652 2.52575 18.2891 2.9093 17.9979L7.02959 14.8703L16.4889 23.5002C16.6386 23.6499 16.8143 23.7627 17.0032 23.8363ZM17.988 6.55193L10.8106 12.0002L17.988 17.4485V6.55193Z" fill="url(#paint0_linear_177_651)"/>
</g>
</g>
</g>
<defs>
<filter id="filter0_d_177_651" x="-0.536459" y="5.27824" width="25.0553" height="19.1806" filterUnits="userSpaceOnUse" color-interpolation-filters="sRGB">
<feFlood flood-opacity="0" result="BackgroundImageFix"/>
<feColorMatrix in="SourceAlpha" type="matrix" values="0 0 0 0 0 0 0 0 0 0 0 0 0 0 0 0 0 0 127 0" result="hardAlpha"/>
<feOffset/>
<feGaussianBlur stdDeviation="0.260417"/>
<feColorMatrix type="matrix" values="0 0 0 0 0 0 0 0 0 0 0 0 0 0 0 0 0 0 0.25 0"/>
<feBlend mode="overlay" in2="BackgroundImageFix" result="effect1_dropShadow_177_651"/>
<feBlend mode="normal" in="SourceGraphic" in2="effect1_dropShadow_177_651" result="shape"/>
</filter>
<filter id="filter1_d_177_651" x="15.9792" y="-0.458883" width="8.54167" height="24.9179" filterUnits="userSpaceOnUse" color-interpolation-filters="sRGB">
<feFlood flood-opacity="0" result="BackgroundImageFix"/>
<feColorMatrix in="SourceAlpha" type="matrix" values="0 0 0 0 0 0 0 0 0 0 0 0 0 0 0 0 0 0 127 0" result="hardAlpha"/>
<feOffset/>
<feGaussianBlur stdDeviation="0.260417"/>
<feColorMatrix type="matrix" values="0 0 0 0 0 0 0 0 0 0 0 0 0 0 0 0 0 0 0.25 0"/>
<feBlend mode="overlay" in2="BackgroundImageFix" result="effect1_dropShadow_177_651"/>
<feBlend mode="normal" in="SourceGraphic" in2="effect1_dropShadow_177_651" result="shape"/>
</filter>
<linearGradient id="paint0_linear_177_651" x1="11.9844" y1="0.0620726" x2="11.9844" y2="23.9384" gradientUnits="userSpaceOnUse">
<stop stop-color="white"/>
<stop offset="1" stop-color="white" stop-opacity="0"/>
</linearGradient>
<clipPath id="clip0_177_651">
<rect width="24" height="24" fill="white"/>
</clipPath>
</defs>
</svg>
