<svg width="24" height="24" viewBox="0 0 24 24" fill="currentColor" xmlns="http://www.w3.org/2000/svg">
<g clip-path="url(#clip0_177_663)">
<path d="M8.0032 4.85496C8.0032 4.85496 7.11378 5.36846 7.11378 6.39385C7.11378 7.42085 7.11378 11.5192 7.11378 11.5192C7.11378 11.5192 7.11378 12.5462 6.22435 12.0327C5.33493 11.5192 5.33493 10.4938 5.33493 10.4938C5.33493 10.4938 5.33493 6.39385 5.33493 5.36846C5.33493 5.30447 5.33813 5.24208 5.34453 5.1813C5.44211 4.27908 6.22276 3.82797 6.22276 3.82797L4.44551 2.80257C4.44551 2.80257 4.44391 2.80257 4.44231 2.80417C4.38952 2.83457 3.55609 3.34806 3.55609 4.34146C3.55609 5.36846 3.55609 9.46684 3.55609 9.46684C3.55609 9.46684 3.55609 10.4938 2.66667 9.98034C1.77724 9.46684 1.77724 8.44144 1.77724 8.44144C1.77724 8.44144 1.77724 4.34146 1.77724 3.31607C1.77724 2.29067 2.66667 1.77718 2.66667 1.77718L0.889422 0.750183C0.889422 0.750183 0 1.26368 0 2.28908C0 3.31607 0 7.41445 0 7.41445C0 7.41445 0 10.4938 2.66667 12.0327C3.4841 12.5046 4.05039 12.5414 4.44391 12.3671C4.83743 12.9957 5.40372 13.6132 6.22116 14.0851C8.88782 15.624 8.88782 12.5462 8.88782 12.5462C8.88782 12.5462 8.88782 8.44624 8.88782 7.42085C8.88782 6.39385 9.77724 5.88196 9.77724 5.88196C9.50385 5.53804 9.26075 5.30449 9.04794 5.1813C8.86651 5.07627 8.51827 4.96749 8.0032 4.85496Z" fill="#808285"/>
<path d="M17.7782 13.5764C17.7782 10.537 20.4449 12.0375 20.4449 12.0375L23.9993 14.0899V16.1423L20.4449 14.0899C20.4449 14.0899 20.4337 14.0834 20.4138 14.0734L20.4021 14.0676C20.2245 13.9808 19.5554 13.7128 19.5554 14.605C19.5554 15.6304 20.4449 16.1439 20.4449 16.1439L22.2221 17.1693C22.2221 17.1693 23.9993 18.1963 23.9993 21.2741C23.9993 24.3518 21.3327 22.8129 21.3327 22.8129L17.7782 20.7606V18.7082L21.3343 20.7606C21.3343 20.7606 22.2237 21.2741 22.2237 20.2471C22.2237 19.2217 21.3343 18.7082 21.3343 18.7082L20.4449 18.1947C20.3918 18.1629 17.7782 16.5854 17.7782 13.5764ZM15.1115 8.95972C15.643 9.0208 16.0033 9.10598 16.1925 9.21527C16.3983 9.3342 16.6304 9.59135 16.8888 9.98671C16.8888 9.98671 15.9993 10.5002 15.9993 11.5256L15.9993 16.6591C15.9969 16.8315 15.9193 19.6826 13.3327 18.1899C10.746 16.6971 10.6684 13.755 10.6661 13.5798L10.666 13.5716L12.4433 14.5986L12.4433 14.602C12.4443 14.6671 12.4732 15.6413 13.3327 16.1375C14.1949 16.6353 14.2213 15.6854 14.2221 15.6268L14.2221 10.4986C14.2221 9.47321 15.1115 8.95972 15.1115 8.95972ZM10.6692 9.48441L12.4465 10.5098V12.5622L10.6692 11.5368V9.48441Z" fill="#BCBEC0"/>
<path d="M20.4462 4.85498C19.6272 4.38148 18.8929 4.15112 18.2675 4.05834C18.1043 3.70161 17.7044 3.2825 16.8917 2.81859C14.2251 1.29569 11.56 2.80259 11.56 2.80259L8.00391 4.85498L9.78115 5.88038L13.3356 3.82799C13.3356 3.82799 14.2251 3.31449 15.1129 3.82799C16.0023 4.34148 15.1129 4.85498 15.1129 4.85498L11.5584 6.90737L13.3356 7.93277L16.8933 5.87878C16.9461 5.84838 17.8067 5.38288 18.6674 5.88038C19.5568 6.39387 18.6674 6.90577 18.6674 6.90577L15.1129 8.95816L16.8901 9.98515L21.334 7.41927C21.334 7.41927 23.1113 6.39387 20.4462 4.85498Z" fill="#F16822"/>
</g>
<defs>
<clipPath id="clip0_177_663">
<rect width="24" height="24" fill="white"/>
</clipPath>
</defs>
</svg>
