<svg width="24" height="24" viewBox="0 0 24 24" fill="currentColor" xmlns="http://www.w3.org/2000/svg">
<g clip-path="url(#clip0_183_7)">
<g clip-path="url(#clip1_183_7)">
<path d="M23.4982 5.62384C23.2217 4.59058 22.4096 3.77859 21.3764 3.502C19.5055 3.00018 12 3.00018 12 3.00018C12 3.00018 4.49458 3.00018 2.62364 3.502C1.59039 3.77859 0.778402 4.59058 0.501813 5.62384C1.50211e-07 7.49476 0 11.4006 0 11.4006C0 11.4006 1.50211e-07 15.3065 0.501813 17.1774C0.778402 18.2107 1.59039 19.0226 2.62364 19.2992C4.49458 19.801 12 19.801 12 19.801C12 19.801 19.5055 19.801 21.3764 19.2992C22.4096 19.0226 23.2217 18.2107 23.4982 17.1774C24.0001 15.3065 24.0001 11.4006 24.0001 11.4006C24.0001 11.4006 23.9981 7.49476 23.4982 5.62384Z" fill="#FF0000"/>
<path d="M9.59766 15.0005L15.8328 11.401L9.59766 7.80133V15.0005Z" fill="white"/>
</g>
</g>
<defs>
<clipPath id="clip0_183_7">
<rect width="24" height="16.8008" fill="white" transform="translate(0 3.00018)"/>
</clipPath>
<clipPath id="clip1_183_7">
<rect width="24" height="16.8008" fill="white" transform="translate(0 3.00018)"/>
</clipPath>
</defs>
</svg>
