<svg width="24" height="24" viewBox="0 0 24 24" fill="currentColor" xmlns="http://www.w3.org/2000/svg">
<g clip-path="url(#clip0_177_671)">
<path d="M12.0075 0.000183105C12.6854 0.00142843 13.3521 0.0587133 14.0002 0.167056V7.15331L18.9532 2.21312C19.5002 2.60165 20.012 3.03378 20.4851 3.50576C20.9585 3.97774 21.393 4.48958 21.7825 5.03503L16.8293 9.97521H23.8339C23.9426 10.6215 24 11.2841 24 11.9615V11.9777C24 12.6551 23.9426 13.3189 23.8339 13.9652H16.8282L21.7825 18.9042C21.393 19.4496 20.9585 19.9614 20.4865 20.4334H20.4851C20.012 20.9054 19.5002 21.3388 18.9546 21.7261L14.0002 16.7859V23.7721C13.3533 23.8805 12.6866 23.9377 12.0087 23.9391H11.9913C11.3132 23.9377 10.6491 23.8805 10.001 23.7721V16.7859L5.04804 21.7261C3.95419 20.9502 2.99788 19.9951 2.21868 18.9042L7.17185 13.9652H0.16733C0.0574454 13.3176 0 12.6514 0 11.9739V11.9392C0.00113864 11.7634 0.0126506 11.5486 0.0291855 11.3264L0.0342912 11.2596C0.0832496 10.6341 0.16733 9.97521 0.16733 9.97521H7.17185L2.21868 5.03503C2.60697 4.48958 3.04031 3.97898 3.51346 3.50827L3.51585 3.50576C3.98804 3.03378 4.501 2.60165 5.04804 2.21312L10.001 7.15331V0.167056C10.6491 0.0587133 11.3146 0.00142843 11.9937 0.000183105H12.0075ZM12.0063 8.97771H11.9949C11.1034 8.97771 10.2496 9.14084 9.46037 9.43722C9.16456 10.223 9.0008 11.0748 8.99961 11.964V11.9752C9.0008 12.8643 9.16456 13.7162 9.46156 14.5019C10.2496 14.7984 11.1034 14.9615 11.9949 14.9615H12.0063C12.8978 14.9615 13.7516 14.7984 14.5396 14.5019C14.8366 13.7149 15.0004 12.8643 15.0004 11.9752V11.964C15.0004 11.0748 14.8366 10.223 14.5396 9.43722C13.7516 9.14084 12.8978 8.97771 12.0063 8.97771Z" fill="#FF4A00"/>
</g>
<defs>
<clipPath id="clip0_177_671">
<rect width="24" height="24" fill="white"/>
</clipPath>
</defs>
</svg>
