<svg width="16" height="16" viewBox="0 0 16 16" fill="none" xmlns="http://www.w3.org/2000/svg">
<path d="M8.40423 7.39122C7.83058 7.63916 7.17429 7.91622 6.3284 7.91622C5.97352 7.91622 5.6235 7.86766 5.2832 7.77041L5.86657 13.7791C5.88602 14.0319 6.00269 14.2652 6.18742 14.4354C6.37216 14.6055 6.61523 14.7028 6.86802 14.7028C6.86802 14.7028 7.69932 14.7465 7.97642 14.7465C8.27297 14.7465 9.16745 14.7028 9.16745 14.7028C9.42027 14.7028 9.66333 14.6104 9.84808 14.4354C10.0328 14.2652 10.1495 14.0319 10.1689 13.7791L10.796 7.14329C10.5141 7.04604 10.2321 6.98285 9.91614 6.98285C9.36195 6.98285 8.91952 7.17247 8.40423 7.39122Z" fill="#FFDD06"/>
<path d="M13.4984 4.27509L13.4108 3.8327C13.3331 3.43407 13.1532 3.05487 12.7448 2.91389C12.6136 2.87014 12.4629 2.84584 12.3656 2.75347C12.2636 2.65624 12.2344 2.5104 12.2101 2.37427C12.1663 2.12149 12.1274 1.86869 12.0837 1.6159C12.0448 1.39714 12.0156 1.15406 11.9184 0.959606C11.7871 0.692231 11.5197 0.536665 11.2524 0.434576C11.1162 0.385961 10.9752 0.342209 10.8343 0.303317C10.1682 0.128307 9.46825 0.0651088 8.78275 0.0262172C7.9612 -0.0175355 7.13476 -0.00781268 6.31318 0.0651081C5.70064 0.118584 5.05894 0.186644 4.48043 0.400546C4.26653 0.478328 4.04776 0.570695 3.88734 0.735981C3.68802 0.9353 3.62483 1.25129 3.77066 1.49923C3.87276 1.67909 4.04776 1.80549 4.2325 1.88814C4.47071 1.99509 4.7235 2.07773 4.98116 2.13121C5.70064 2.29163 6.43958 2.34997 7.17365 2.37914C7.98551 2.41317 8.79738 2.384 9.60919 2.30136C9.80856 2.27705 10.0079 2.25274 10.2072 2.22358C10.4405 2.18954 10.5913 1.87841 10.5232 1.66937C10.4405 1.41172 10.2169 1.31449 9.96894 1.35338C9.93006 1.35824 9.89606 1.36311 9.85712 1.36797L9.83281 1.37283C9.74531 1.38255 9.66269 1.39228 9.57519 1.40199C9.40019 1.42144 9.22519 1.43603 9.04531 1.45061C8.65152 1.47978 8.25289 1.4895 7.85425 1.4895C7.46534 1.4895 7.07642 1.47978 6.68751 1.45061C6.50764 1.44089 6.33263 1.4263 6.15762 1.40686C6.07498 1.39714 5.99719 1.38741 5.91941 1.37769L5.84162 1.36797H5.82704L5.74926 1.35824C5.58883 1.33394 5.42841 1.30477 5.26798 1.27074C5.25339 1.26588 5.23881 1.25616 5.22909 1.24643C5.21936 1.23671 5.21451 1.21726 5.21451 1.20268C5.21451 1.18809 5.21936 1.16865 5.22909 1.15893C5.23881 1.1492 5.25339 1.13948 5.26798 1.13462H5.27284C5.40896 1.10545 5.54994 1.08114 5.69092 1.05684C5.73954 1.04711 5.78329 1.04225 5.8319 1.03739C5.91941 1.03253 6.00691 1.01794 6.09442 1.00336C6.8528 0.925575 7.61604 0.896406 8.37928 0.920719C8.74875 0.930437 9.11819 0.954744 9.48769 0.988775C9.56544 0.9985 9.64812 1.00336 9.72587 1.01308C9.75506 1.01794 9.78425 1.02281 9.81825 1.02281L9.88144 1.03253C10.0613 1.05684 10.2363 1.09087 10.4162 1.12976C10.6787 1.18809 11.0142 1.20754 11.1308 1.4895C11.1698 1.58187 11.1843 1.67909 11.2037 1.77632L11.2281 1.89786V1.90272C11.2913 2.18954 11.3496 2.47637 11.4128 2.76319C11.4177 2.78264 11.4177 2.80694 11.4128 2.82639C11.4079 2.84584 11.3982 2.87014 11.3885 2.88473C11.3739 2.90417 11.3593 2.91876 11.3399 2.92848C11.3204 2.9382 11.301 2.94793 11.2816 2.94793L11.2426 2.95279L11.2037 2.95765C11.0871 2.97223 10.9656 2.98682 10.8489 3.0014C10.6155 3.02571 10.3822 3.05001 10.1488 3.06946C9.68212 3.10835 9.22031 3.13266 8.75362 3.14724C8.5154 3.15211 8.27719 3.15696 8.03898 3.15696C7.09101 3.15696 6.14789 3.10349 5.20964 2.99167C5.10755 2.98196 5.00546 2.96737 4.90337 2.95279C4.98116 2.96251 4.84504 2.94306 4.82073 2.94306C4.75753 2.93334 4.68947 2.92362 4.62628 2.91389C4.40751 2.87986 4.19361 2.84097 3.97484 2.80694C3.71232 2.76319 3.46439 2.7875 3.22619 2.91389C3.03173 3.02084 2.87617 3.18128 2.77408 3.38059C2.67199 3.58963 2.64282 3.82298 2.5942 4.0466C2.55045 4.27509 2.47753 4.51816 2.5067 4.75151C2.56503 5.25223 2.91506 5.66059 3.42064 5.75296C3.89706 5.84046 4.37348 5.90853 4.85476 5.96686C6.73613 6.19534 8.6418 6.22451 10.528 6.04951C10.6836 6.03492 10.8343 6.02034 10.9899 6.00089C11.0385 5.99603 11.0871 6.00089 11.1308 6.01547C11.1746 6.03006 11.2184 6.05923 11.2524 6.09326C11.2864 6.12729 11.3107 6.16617 11.3302 6.21479C11.3448 6.25856 11.3544 6.30719 11.3496 6.35575L11.301 6.82244C11.2037 7.76075 11.1066 8.699 11.0142 9.64206C10.9121 10.6289 10.8149 11.6158 10.7128 12.6027C10.6836 12.8798 10.6544 13.1569 10.6252 13.434C10.5961 13.7063 10.5961 13.9882 10.5426 14.2604C10.4599 14.6834 10.1731 14.9459 9.75506 15.0431C9.371 15.1306 8.97725 15.1744 8.58346 15.1792C8.14593 15.1792 7.70841 15.1646 7.27088 15.1646C6.80419 15.1695 6.23054 15.1258 5.87079 14.7758C5.5548 14.4694 5.51105 13.9931 5.4673 13.5798C5.40896 13.0354 5.35062 12.486 5.29715 11.9416L4.98116 8.90312L4.77697 6.93425C4.77211 6.90025 4.77211 6.87106 4.76726 6.83706C4.74294 6.60369 4.57766 6.37519 4.31514 6.38494C4.09152 6.39469 3.83873 6.58425 3.86303 6.83706L4.01374 8.2955L4.32973 11.3096C4.41723 12.1652 4.5096 13.0208 4.59711 13.8813C4.61655 14.0465 4.63114 14.2118 4.65058 14.3722C4.74781 15.2716 5.43327 15.7529 6.28401 15.889C6.77988 15.9667 7.28546 15.9862 7.79105 15.9911C8.43762 16.0008 9.08906 16.0251 9.721 15.9084C10.6593 15.7383 11.3642 15.1112 11.4663 14.134C11.4954 13.8521 11.5246 13.5701 11.5538 13.293C11.651 12.3645 11.7434 11.4359 11.8406 10.5026L12.1517 7.46419L12.2927 6.07381C12.2976 6.00575 12.3267 5.93769 12.3754 5.88907C12.424 5.84046 12.4823 5.80157 12.5504 5.79185C12.8177 5.73838 13.0754 5.65087 13.265 5.44669C13.5469 5.12584 13.6053 4.70289 13.4984 4.27509ZM3.39634 4.57649C3.4012 4.57649 3.39148 4.61053 3.39148 4.62511C3.38661 4.60081 3.38661 4.57649 3.39634 4.57649ZM3.42064 4.77581C3.42064 4.77581 3.43037 4.78067 3.43523 4.79526C3.42551 4.78554 3.42064 4.77581 3.42064 4.77581ZM3.44495 4.80984C3.45954 4.83901 3.45467 4.82929 3.44495 4.80984ZM12.5115 4.7904C12.4143 4.88277 12.2684 4.92652 12.1274 4.94596C10.5183 5.18417 8.88 5.30571 7.25143 5.25223C6.08469 5.21334 4.93254 5.08208 3.77552 4.92166C3.66371 4.90707 3.54218 4.88276 3.46439 4.80012C3.31856 4.64456 3.39147 4.32856 3.43037 4.13411C3.46439 3.9591 3.53246 3.72575 3.74149 3.70144C4.06235 3.66255 4.44154 3.79867 4.75753 3.84729C5.14158 3.90562 5.53049 3.95424 5.91454 3.98827C7.56743 4.13897 9.25431 4.11466 10.8975 3.8959C11.1989 3.85701 11.4954 3.80839 11.7969 3.75492C12.0642 3.70631 12.3559 3.6188 12.5163 3.89104C12.6281 4.08063 12.6428 4.32856 12.6233 4.54247C12.6233 4.63969 12.5796 4.7272 12.5115 4.7904Z" fill="white"/>
</svg>
