<svg width="16" height="16" viewBox="0 0 16 16" fill="none" xmlns="http://www.w3.org/2000/svg">
<g clip-path="url(#clip0_184_755)">
<path d="M15.0719 4.69133C15.0717 4.42302 15.0144 4.18594 14.8983 3.98246C14.7843 3.78236 14.6136 3.61466 14.3846 3.48206C12.4946 2.39223 10.6026 1.30572 8.71316 0.214777C8.20377 -0.0793045 7.70987 -0.0685833 7.20426 0.22972C6.45194 0.673398 2.68537 2.83135 1.56299 3.48145C1.10076 3.74903 0.875833 4.15855 0.875722 4.69083C0.875 6.88255 0.875722 9.07422 0.875 11.266C0.875111 11.5284 0.93005 11.7609 1.04098 11.9613C1.15503 12.1675 1.32812 12.3398 1.56238 12.4754C2.68482 13.1255 6.45189 15.2833 7.20403 15.7271C7.70987 16.0255 8.20377 16.0362 8.71333 15.742C10.6029 14.651 12.4949 13.5646 14.3853 12.4747C14.6195 12.3392 14.7926 12.1667 14.9067 11.9608C15.0174 11.7603 15.0725 11.5279 15.0726 11.2654C15.0726 11.2654 15.0726 6.88311 15.0719 4.69133Z" fill="#5C8DBC"/>
<path d="M7.99554 7.95703L1.04102 11.9613C1.15506 12.1674 1.32815 12.3398 1.56241 12.4754C2.68485 13.1255 6.45192 15.2832 7.20407 15.727C7.7099 16.0255 8.2038 16.0362 8.71336 15.742C10.6029 14.651 12.4949 13.5645 14.3853 12.4747C14.6195 12.3391 14.7926 12.1667 14.9067 11.9607L7.99554 7.95703Z" fill="#1A4674"/>
<path d="M5.93555 9.14313C6.34023 9.84962 7.10099 10.3261 7.97368 10.3261C8.85176 10.3261 9.61685 9.84356 10.0195 9.12952L7.9954 7.95703L5.93555 9.14313Z" fill="#1A4674"/>
<path d="M15.0724 4.6913C15.0723 4.42299 15.0149 4.1859 14.8989 3.98242L7.99609 7.95702L14.9072 11.9607C15.018 11.7603 15.0731 11.5278 15.0732 11.2654C15.0732 11.2654 15.0732 6.88308 15.0724 4.6913Z" fill="#1B598E"/>
<path d="M14.6923 8.24321H14.1523V8.78337H13.6121V8.24321H13.0721V7.7032H13.6121V7.16315H14.1523V7.7032H14.6923V8.24321ZM12.7217 8.24321H12.1817V8.78337H11.6416V8.24321H11.1016V7.7032H11.6416V7.16315H12.1817V7.7032H12.7217V8.24321Z" fill="white"/>
<path d="M10.0204 9.12952C9.61774 9.84356 8.85265 10.3261 7.97457 10.3261C7.10188 10.3261 6.34112 9.84962 5.93644 9.14313C5.73315 8.78863 5.62639 8.38702 5.62681 7.97836C5.62681 6.68177 6.67798 5.63065 7.97457 5.63065C8.84165 5.63065 9.59841 6.10122 10.0051 6.80048L12.0572 5.61882C11.2415 4.21085 9.71873 3.26361 7.97457 3.26361C5.37061 3.26361 3.25977 5.37451 3.25977 7.97836C3.25977 8.83261 3.48702 9.6337 3.8842 10.3247C4.69779 11.7401 6.22491 12.6932 7.97457 12.6932C9.72745 12.6932 11.257 11.7363 12.0694 10.3167L10.0204 9.12952Z" fill="white"/>
</g>
<defs>
<clipPath id="clip0_184_755">
<rect width="16" height="16" fill="white"/>
</clipPath>
</defs>
</svg>
