<svg width="16" height="16" viewBox="0 0 16 16" fill="none" xmlns="http://www.w3.org/2000/svg">
<g clip-path="url(#clip0_184_568)">
<path d="M12.875 0H3.125C1.39911 0 0 1.39911 0 3.125V12.875C0 14.6009 1.39911 16 3.125 16H12.875C14.6009 16 16 14.6009 16 12.875V3.125C16 1.39911 14.6009 0 12.875 0Z" fill="url(#paint0_linear_184_568)"/>
<mask id="mask0_184_568" style="mask-type:luminance" maskUnits="userSpaceOnUse" x="1" y="1" width="14" height="14">
<path d="M14.125 1.875H1.875V14.125H14.125V1.875Z" fill="white"/>
</mask>
<g mask="url(#mask0_184_568)">
<path d="M13.2473 6.88863C13.5253 6.05448 13.4296 5.14071 12.9851 4.38198C12.3167 3.21823 10.9731 2.61951 9.66075 2.90126C9.07694 2.24358 8.23825 1.86958 7.35888 1.87493C6.01754 1.87187 4.82737 2.7355 4.4147 4.0118C3.55299 4.18827 2.80918 4.72765 2.37392 5.49213C1.70055 6.65282 1.85406 8.11594 2.75367 9.11125C2.47575 9.94538 2.57145 10.8592 3.0159 11.6179C3.68429 12.7816 5.02796 13.3804 6.34025 13.0986C6.92363 13.7563 7.76275 14.1303 8.64207 14.1246C9.98425 14.128 11.1748 13.2636 11.5874 11.9862C12.4492 11.8097 13.1929 11.2703 13.6283 10.5058C14.3008 9.34513 14.1469 7.88319 13.2477 6.88788L13.2473 6.88863ZM8.64288 13.3241C8.10575 13.3249 7.5855 13.1369 7.17325 12.7928C7.192 12.7828 7.22457 12.7648 7.24557 12.7518L9.68488 11.3431C9.80969 11.2722 9.88625 11.1394 9.88544 10.9958V7.557L10.9164 8.15232C10.9275 8.15763 10.9348 8.16838 10.9363 8.18063V11.0284C10.9348 12.2947 9.90919 13.3214 8.64288 13.3241ZM3.7107 11.2175C3.44159 10.7528 3.34474 10.208 3.43699 9.67932C3.45499 9.69007 3.48676 9.70957 3.50934 9.72257L5.94862 11.1313C6.07227 11.2037 6.2254 11.2037 6.34944 11.1313L9.32732 9.41175V10.6023C9.32807 10.6146 9.32238 10.6264 9.31275 10.6341L6.84707 12.0578C5.7488 12.6901 4.34617 12.3143 3.71109 11.2175H3.7107ZM3.06873 5.89293C3.3367 5.42743 3.7597 5.07142 4.26349 4.88652C4.26349 4.90758 4.26234 4.94471 4.26234 4.97074V7.78863C4.26157 7.93182 4.33814 8.06463 4.46255 8.13544L7.44044 9.85469L6.4095 10.4499C6.39919 10.4568 6.38619 10.458 6.37469 10.453L3.90862 9.02819C2.81262 8.39344 2.4367 6.99125 3.06834 5.89332L3.06873 5.89293ZM11.5388 7.86407L8.56094 6.14445L9.59188 5.54955C9.60219 5.54267 9.61519 5.54152 9.62669 5.54649L12.0928 6.97019C13.1907 7.6045 13.567 9.009 12.9326 10.1069C12.6643 10.5717 12.2417 10.9277 11.7383 11.1129V8.21088C11.7394 8.06769 11.6633 7.93525 11.5392 7.86407H11.5388ZM12.5648 6.31975C12.5468 6.30869 12.515 6.2895 12.4924 6.2765L10.0531 4.86777C9.9295 4.79542 9.77638 4.79542 9.65232 4.86777L6.67444 6.58738V5.39681C6.67369 5.38456 6.67944 5.3727 6.689 5.36504L9.15469 3.94251C10.2529 3.30895 11.6571 3.68602 12.2903 4.7847C12.5579 5.24867 12.6548 5.79187 12.564 6.31975H12.5648ZM6.114 8.44169L5.0827 7.84644C5.0716 7.84107 5.06433 7.83038 5.0628 7.81813V4.97036C5.06356 3.70248 6.09218 2.67502 7.36007 2.67578C7.89638 2.67578 8.41544 2.86412 8.82775 3.20712C8.809 3.21708 8.77682 3.23507 8.75538 3.24808L6.31613 4.65683C6.19133 4.72765 6.11477 4.86011 6.11553 5.00367L6.114 8.44094V8.44169ZM6.67407 7.23432L8.0005 6.46832L9.32694 7.23394V8.76557L8.0005 9.53119L6.67407 8.76557V7.23432Z" fill="white"/>
</g>
</g>
<defs>
<linearGradient id="paint0_linear_184_568" x1="13.1563" y1="1.43715e-06" x2="3.40625" y2="16" gradientUnits="userSpaceOnUse">
<stop stop-color="#E35770"/>
<stop offset="1" stop-color="#5D74BE"/>
</linearGradient>
<clipPath id="clip0_184_568">
<rect width="16" height="16" fill="white"/>
</clipPath>
</defs>
</svg>
