<svg width="16" height="16" viewBox="0 0 16 16" fill="none" xmlns="http://www.w3.org/2000/svg">
<g clip-path="url(#clip0_184_425)">
<path d="M8 16C12.4183 16 16 12.4183 16 8C16 3.58172 12.4183 0 8 0C3.58172 0 0 3.58172 0 8C0 12.4183 3.58172 16 8 16Z" fill="#485070"/>
<path d="M6.28024 4.48059C4.65492 4.18459 3.3698 4.49441 2.85761 5.38153C2.47542 6.04353 2.58467 6.92122 3.12261 7.8594C3.13323 7.87889 3.14764 7.89606 3.16499 7.9099C3.18233 7.92375 3.20227 7.93399 3.22362 7.94002C3.24498 7.94606 3.26732 7.94777 3.28935 7.94506C3.31138 7.94234 3.33264 7.93526 3.35189 7.92422C3.37114 7.91318 3.388 7.8984 3.40146 7.88076C3.41493 7.86312 3.42473 7.84297 3.43031 7.82149C3.43588 7.80001 3.43711 7.77763 3.43392 7.75567C3.43073 7.73371 3.42319 7.7126 3.41174 7.69359C2.92724 6.84847 2.83292 6.09103 3.1463 5.54822C3.5718 4.81128 4.71805 4.5349 6.22049 4.80853C6.26366 4.81572 6.30793 4.80564 6.34373 4.78046C6.37954 4.75529 6.404 4.71704 6.41185 4.67398C6.4197 4.63092 6.41029 4.58651 6.38566 4.55032C6.36104 4.51414 6.32317 4.48909 6.28024 4.48059ZM3.9678 8.99978C4.62499 9.72197 5.4788 10.3994 6.45255 10.9615C8.81024 12.3228 11.3202 12.6866 12.5572 11.8432C12.5757 11.831 12.5916 11.8153 12.604 11.7969C12.6164 11.7786 12.6249 11.7579 12.6292 11.7362C12.6335 11.7145 12.6335 11.6922 12.6291 11.6705C12.6246 11.6488 12.6159 11.6282 12.6034 11.6099C12.591 11.5916 12.575 11.576 12.5564 11.564C12.5378 11.5519 12.5171 11.5437 12.4953 11.5398C12.4735 11.5359 12.4511 11.5363 12.4295 11.5411C12.4079 11.5459 12.3875 11.555 12.3694 11.5678C11.2623 12.3227 8.87805 11.977 6.61924 10.6729C5.67461 10.1275 4.8478 9.47153 4.21436 8.7754C4.19966 8.75912 4.18188 8.74589 4.16205 8.73649C4.14222 8.72709 4.12073 8.7217 4.09881 8.72063C4.07689 8.71955 4.05498 8.72281 4.03433 8.73023C4.01367 8.73764 3.99469 8.74906 3.97846 8.76383C3.96223 8.7786 3.94907 8.79643 3.93975 8.81629C3.93042 8.83616 3.92512 8.85767 3.92413 8.87959C3.92314 8.90151 3.92648 8.92342 3.93398 8.94404C3.94147 8.96467 3.95297 8.98361 3.9678 8.99978Z" fill="#00D5FF"/>
<path d="M12.1634 8.79705C13.2276 7.5398 13.5992 6.2753 13.088 5.39005C12.712 4.73861 11.9169 4.39467 10.8602 4.38092C10.8164 4.38098 10.7744 4.39828 10.7433 4.42907C10.7121 4.45986 10.6944 4.50166 10.6938 4.54545C10.6932 4.58924 10.7099 4.63149 10.7403 4.66308C10.7706 4.69466 10.8121 4.71304 10.8559 4.71423C11.8062 4.72661 12.4912 5.02292 12.7994 5.55673C13.2239 6.29205 12.8925 7.41967 11.9089 8.58167C11.8945 8.59834 11.8835 8.6177 11.8766 8.63864C11.8697 8.65958 11.867 8.68168 11.8687 8.70367C11.8704 8.72565 11.8765 8.74707 11.8865 8.7667C11.8966 8.78633 11.9104 8.80377 11.9272 8.81802C11.9441 8.83226 11.9635 8.84302 11.9846 8.84969C12.0056 8.85635 12.0277 8.85877 12.0497 8.85682C12.0716 8.85487 12.093 8.84858 12.1125 8.83832C12.132 8.82806 12.1493 8.81403 12.1634 8.79705ZM9.4283 4.53611C8.46605 4.7423 7.4418 5.14542 6.45817 5.7133C4.0243 7.11848 2.43661 9.19055 2.65711 10.693C2.66005 10.7148 2.6673 10.7359 2.67844 10.7549C2.68958 10.774 2.70439 10.7906 2.72201 10.8039C2.73963 10.8172 2.75971 10.8268 2.78108 10.8323C2.80246 10.8377 2.8247 10.8389 2.84653 10.8357C2.86836 10.8325 2.88933 10.825 2.90823 10.8136C2.92714 10.8022 2.94359 10.7872 2.95665 10.7694C2.96971 10.7517 2.97911 10.7315 2.98431 10.71C2.9895 10.6886 2.99039 10.6663 2.98692 10.6445C2.79111 9.31055 4.29611 7.34648 6.62486 6.00198C7.57905 5.45105 8.5708 5.06073 9.49811 4.86205C9.51981 4.85777 9.54044 4.84921 9.55881 4.83688C9.57717 4.82455 9.59289 4.80868 9.60506 4.79021C9.61723 4.77174 9.62561 4.75104 9.62969 4.7293C9.63378 4.70756 9.6335 4.68522 9.62886 4.66359C9.62423 4.64196 9.61534 4.62147 9.60271 4.60332C9.59008 4.58516 9.57396 4.5697 9.55529 4.55783C9.53662 4.54596 9.51578 4.53793 9.49398 4.5342C9.47217 4.53047 9.44985 4.53112 9.4283 4.53611Z" fill="#00D5FF"/>
<path d="M5.48467 11.7346C6.04117 13.2883 6.95148 14.245 7.97511 14.245C8.72167 14.245 9.41236 13.7361 9.95098 12.8401C9.96264 12.8213 9.97045 12.8004 9.97396 12.7786C9.97747 12.7568 9.97661 12.7345 9.97142 12.7131C9.96624 12.6916 9.95684 12.6713 9.94376 12.6535C9.93069 12.6357 9.91421 12.6207 9.89527 12.6093C9.87634 12.5979 9.85533 12.5904 9.83347 12.5872C9.8116 12.584 9.78933 12.5852 9.76793 12.5907C9.74653 12.5962 9.72643 12.6059 9.70882 12.6192C9.6912 12.6326 9.6764 12.6493 9.6653 12.6684C9.18123 13.4736 8.58667 13.9116 7.97511 13.9116C7.1248 13.9116 6.31286 13.0584 5.79855 11.6222C5.7915 11.6012 5.78033 11.5818 5.76569 11.5651C5.75105 11.5485 5.73324 11.5349 5.71328 11.5252C5.69333 11.5155 5.67165 11.5099 5.64951 11.5087C5.62736 11.5075 5.6052 11.5108 5.58432 11.5182C5.56344 11.5257 5.54426 11.5373 5.52791 11.5523C5.51156 11.5672 5.49836 11.5853 5.48908 11.6055C5.47981 11.6256 5.47464 11.6474 5.4739 11.6696C5.47315 11.6917 5.47684 11.7138 5.48473 11.7346H5.48467ZM10.5673 11.4306C10.8554 10.5101 11.0101 9.44824 11.0101 8.34168C11.0101 5.58049 10.0437 3.20024 8.66717 2.58905C8.62696 2.57221 8.58175 2.57179 8.54123 2.58789C8.50072 2.60398 8.46812 2.63531 8.45043 2.67516C8.43274 2.715 8.43136 2.76019 8.4466 2.80104C8.46183 2.84189 8.49246 2.87515 8.53192 2.89368C9.75961 3.43886 10.6767 5.6978 10.6767 8.34168C10.6767 9.41524 10.5269 10.4436 10.2492 11.3311C10.2423 11.352 10.2397 11.3742 10.2414 11.3962C10.2431 11.4182 10.2492 11.4397 10.2593 11.4593C10.2694 11.479 10.2834 11.4964 10.3003 11.5106C10.3172 11.5249 10.3367 11.5356 10.3578 11.5422C10.3789 11.5488 10.4011 11.5511 10.4231 11.5491C10.4451 11.547 10.4664 11.5406 10.4859 11.5302C10.5054 11.5199 10.5227 11.5057 10.5366 11.4886C10.5506 11.4715 10.5611 11.4518 10.5674 11.4306H10.5673ZM13.7063 11.2674C13.7063 10.8268 13.3492 10.4697 12.9086 10.4697C12.468 10.4697 12.1109 10.8268 12.1109 11.2674C12.1109 11.7079 12.468 12.0651 12.9086 12.0651C13.3492 12.0651 13.7063 11.7079 13.7063 11.2674ZM13.373 11.2674C13.373 11.3283 13.361 11.3887 13.3376 11.4451C13.3143 11.5014 13.2801 11.5526 13.237 11.5957C13.1939 11.6388 13.1427 11.6731 13.0863 11.6964C13.03 11.7197 12.9696 11.7317 12.9086 11.7317C12.8476 11.7317 12.7872 11.7197 12.7309 11.6964C12.6746 11.6731 12.6234 11.6388 12.5802 11.5957C12.5371 11.5526 12.5029 11.5014 12.4796 11.4451C12.4562 11.3887 12.4442 11.3283 12.4442 11.2674C12.4442 11.1442 12.4932 11.0261 12.5802 10.939C12.6673 10.8519 12.7854 10.803 12.9086 10.803C13.0318 10.803 13.1499 10.8519 13.237 10.939C13.3241 11.0261 13.373 11.1442 13.373 11.2674ZM3.03011 12.0651C3.47073 12.0651 3.82786 11.7079 3.82786 11.2674C3.82786 10.8268 3.47067 10.4697 3.03011 10.4697C2.58961 10.4697 2.23242 10.8268 2.23242 11.2674C2.23242 11.7079 2.58961 12.0651 3.03011 12.0651ZM3.03011 11.7317C2.90695 11.7317 2.78883 11.6828 2.70175 11.5957C2.61466 11.5086 2.56573 11.3905 2.56573 11.2674C2.56573 11.1442 2.61466 11.0261 2.70175 10.939C2.78883 10.8519 2.90695 10.803 3.03011 10.803C3.15327 10.803 3.27138 10.8519 3.35847 10.939C3.44556 11.0261 3.49448 11.1442 3.49448 11.2674C3.49448 11.3905 3.44556 11.5086 3.35847 11.5957C3.27138 11.6828 3.15327 11.7317 3.03011 11.7317Z" fill="#00D5FF"/>
<path d="M7.97542 3.40275C8.41598 3.40275 8.77311 3.04562 8.77311 2.60506C8.77311 2.1645 8.41598 1.80737 7.97542 1.80737C7.53486 1.80737 7.17773 2.1645 7.17773 2.60506C7.17773 3.04562 7.53486 3.40275 7.97542 3.40275ZM7.97542 3.06944C7.85226 3.06944 7.73415 3.02051 7.64706 2.93342C7.55997 2.84634 7.51105 2.72822 7.51105 2.60506C7.51105 2.4819 7.55997 2.36379 7.64706 2.2767C7.73415 2.18961 7.85226 2.14069 7.97542 2.14069C8.09858 2.14069 8.2167 2.18961 8.30378 2.2767C8.39087 2.36379 8.4398 2.4819 8.4398 2.60506C8.4398 2.72822 8.39087 2.84634 8.30378 2.93342C8.2167 3.02051 8.09858 3.06944 7.97542 3.06944ZM8.09723 8.90581C7.78567 8.97312 7.47873 8.77512 7.4113 8.46356C7.379 8.31395 7.40745 8.15764 7.49039 8.02899C7.57332 7.90035 7.70395 7.80991 7.85355 7.77756C8.16511 7.71025 8.47205 7.90825 8.53955 8.21981C8.60686 8.53137 8.40886 8.83837 8.09723 8.90581Z" fill="#00D5FF"/>
</g>
<defs>
<clipPath id="clip0_184_425">
<rect width="16" height="16" fill="white"/>
</clipPath>
</defs>
</svg>
