<svg width="16" height="16" viewBox="0 0 16 16" fill="none" xmlns="http://www.w3.org/2000/svg">
<g clip-path="url(#clip0_184_765)">
<path d="M16 0H0V16H16V0Z" fill="white"/>
<mask id="mask0_184_765" style="mask-type:luminance" maskUnits="userSpaceOnUse" x="4" y="3" width="8" height="11">
<path d="M11.3766 3.02222H4.62109V13.1556H11.3766V3.02222Z" fill="white"/>
</mask>
<g mask="url(#mask0_184_765)">
<path d="M7.99805 8.08891C7.99805 7.64098 8.17598 7.21142 8.49271 6.89469C8.80944 6.57796 9.23901 6.40002 9.68694 6.40002C10.1349 6.40002 10.5644 6.57796 10.8812 6.89469C11.1979 7.21142 11.3758 7.64098 11.3758 8.08891C11.3758 8.53684 11.1979 8.96641 10.8812 9.28314C10.5644 9.59986 10.1349 9.7778 9.68694 9.7778C9.23901 9.7778 8.80944 9.59986 8.49271 9.28314C8.17598 8.96641 7.99805 8.53684 7.99805 8.08891Z" fill="#1ABCFE"/>
<path d="M4.62109 11.4667C4.62109 11.0187 4.79903 10.5892 5.11576 10.2724C5.43249 9.95571 5.86205 9.77777 6.30998 9.77777H7.99887V11.4667C7.99887 11.9146 7.82093 12.3442 7.5042 12.6609C7.18748 12.9776 6.75791 13.1555 6.30998 13.1555C5.86205 13.1555 5.43249 12.9776 5.11576 12.6609C4.79903 12.3442 4.62109 11.9146 4.62109 11.4667Z" fill="#0ACF83"/>
<path d="M7.99805 3.02222V6.39999H9.68694C10.1349 6.39999 10.5644 6.22206 10.8812 5.90533C11.1979 5.5886 11.3758 5.15903 11.3758 4.71111C11.3758 4.26318 11.1979 3.83361 10.8812 3.51688C10.5644 3.20015 10.1349 3.02222 9.68694 3.02222H7.99805Z" fill="#FF7262"/>
<path d="M4.62109 4.71111C4.62109 5.15903 4.79903 5.5886 5.11576 5.90533C5.43249 6.22206 5.86205 6.39999 6.30998 6.39999H7.99887V3.02222H6.30998C5.86205 3.02222 5.43249 3.20015 5.11576 3.51688C4.79903 3.83361 4.62109 4.26318 4.62109 4.71111Z" fill="#F24E1E"/>
<path d="M4.62109 8.08891C4.62109 8.53684 4.79903 8.96641 5.11576 9.28314C5.43249 9.59986 5.86205 9.7778 6.30998 9.7778H7.99887V6.40002H6.30998C5.86205 6.40002 5.43249 6.57796 5.11576 6.89469C4.79903 7.21142 4.62109 7.64098 4.62109 8.08891Z" fill="#A259FF"/>
</g>
</g>
<defs>
<clipPath id="clip0_184_765">
<rect width="16" height="16" fill="white"/>
</clipPath>
</defs>
</svg>
