<svg width="16" height="16" viewBox="0 0 16 16" fill="none" xmlns="http://www.w3.org/2000/svg">
<path d="M5.36608 0.000226083C5.28521 0.00272126 5.19812 0.0326144 5.09929 0.110552C4.85736 0.017252 4.62262 -0.0151853 4.41278 0.17479C4.08875 0.132764 3.98346 0.219508 3.90366 0.320783C3.83253 0.319315 3.37141 0.24764 3.1599 0.563108C2.62848 0.50024 2.46052 0.87569 2.65084 1.22585C2.54228 1.39385 2.4298 1.55986 2.68362 1.88022C2.59384 2.0586 2.64952 2.25215 2.86102 2.48635C2.80525 2.73719 2.91494 2.9141 3.11176 3.05202C3.07492 3.39523 3.4265 3.59479 3.53144 3.66588C3.57176 3.86584 3.65576 4.05459 4.05729 4.1589C4.12353 4.45695 4.36483 4.50842 4.59854 4.57095C3.82617 5.01993 3.16382 5.6106 3.16832 7.06001L3.05516 7.26182C2.16952 7.80039 1.37272 9.53145 2.61875 10.9384C2.70011 11.3789 2.83661 11.6952 2.95814 12.0453C3.13989 13.4561 4.32618 14.1168 4.6391 14.1949C5.09758 14.5441 5.5859 14.8755 6.24678 15.1076C6.86964 15.7501 7.54451 15.9949 8.22305 15.9945C8.23304 15.9945 9.60651 15.7501 10.2295 15.1076C10.8903 14.8755 11.3786 14.5441 11.8371 14.1949C12.15 14.1168 13.3363 13.4561 13.518 12.0453C13.6395 11.6952 13.776 11.3789 13.8575 10.9384C15.1034 9.5313 14.3066 7.80019 13.421 7.26162L13.3077 7.05981C13.3122 5.61055 12.6498 5.01983 11.8775 4.57075C12.1111 4.50822 12.3525 4.45676 12.4187 4.1587C12.8202 4.05435 12.9042 3.86564 12.9445 3.66569C13.0495 3.5946 13.401 3.39503 13.3643 3.05183C13.561 2.91391 13.6708 2.73694 13.6149 2.48615C13.8265 2.25195 13.8821 2.0584 13.7923 1.87997C14.0463 1.55981 13.9336 1.39381 13.8252 1.2258C14.0154 0.875641 13.8475 0.500142 13.3159 0.563059C13.1045 0.247591 12.6435 0.319217 12.5721 0.320685C12.4924 0.219459 12.3871 0.132715 12.0631 0.174742C11.8532 -0.0152342 11.6186 0.0171541 11.3766 0.110503C11.0892 -0.116264 10.8991 0.065492 10.6818 0.134232C10.3339 0.02053 10.2543 0.176258 10.0833 0.239714C9.70387 0.159526 9.58855 0.33409 9.4067 0.518342L9.19505 0.514134C8.62272 0.851423 8.33837 1.53823 8.23759 1.89132C8.1368 1.53818 7.85308 0.851374 7.28086 0.514134L7.06926 0.518342C6.88711 0.33409 6.77184 0.159526 6.39238 0.239714C6.22139 0.176258 6.14213 0.02053 5.79388 0.134232C5.65131 0.0891228 5.52019 -0.00461749 5.36584 0.000177158L1.4375 6.89841" fill="black"/>
<path d="M4.22581 1.48409C5.74425 2.26694 6.627 2.90023 7.11062 3.43958C6.86297 4.43222 5.57095 4.47752 5.09853 4.44968C5.19526 4.40467 5.27599 4.35071 5.30461 4.26788C5.18606 4.18363 4.76575 4.25897 4.4723 4.09414C4.58502 4.07076 4.63776 4.04801 4.69045 3.96484C4.41324 3.87643 4.1146 3.8002 3.93896 3.65372C4.03373 3.6549 4.12224 3.67496 4.24602 3.58909C3.99772 3.45528 3.73274 3.34921 3.52687 3.14466C3.65525 3.14153 3.79366 3.14339 3.83392 3.09617C3.60667 2.95537 3.41488 2.79881 3.25617 2.62752C3.43582 2.64919 3.5117 2.63055 3.55515 2.59924C3.38332 2.42326 3.1659 2.27467 3.06223 2.05784C3.1956 2.10383 3.31767 2.12144 3.40563 2.05383C3.34726 1.92212 3.09716 1.84443 2.95312 1.53664C3.09359 1.55029 3.24252 1.56727 3.27231 1.53664C3.20714 1.27107 3.0953 1.12176 2.98561 0.967055C3.28616 0.962602 3.74155 0.968229 3.72095 0.942837L3.53509 0.752959C3.82869 0.673896 4.12909 0.76563 4.34719 0.833734C4.44509 0.756481 4.34543 0.658778 4.22596 0.55902C4.47548 0.592338 4.70092 0.649678 4.90474 0.728692C5.0136 0.630402 4.83405 0.532062 4.74716 0.433772C5.13264 0.506866 5.29595 0.609657 5.45823 0.712547C5.57599 0.599677 5.46498 0.503735 5.38553 0.405493C5.67619 0.513128 5.8259 0.652124 5.98349 0.78931C6.03692 0.717194 6.11926 0.664307 6.01984 0.490329C6.22621 0.609266 6.38164 0.749436 6.49662 0.906485C6.62431 0.825172 6.57269 0.714014 6.57338 0.611516C6.78787 0.785983 6.92398 0.971653 7.09056 1.15292C7.12413 1.12846 7.15348 1.04563 7.17946 0.914558C7.69107 1.4109 8.41404 2.66118 7.36528 3.15689C6.47274 2.42076 5.40676 1.88567 4.22547 1.48429L4.22581 1.48409ZM12.2827 1.48409C10.7644 2.26704 9.88169 2.90013 9.39811 3.43958C9.64577 4.43222 10.9377 4.47752 11.4102 4.44968C11.3134 4.40467 11.2327 4.35071 11.2041 4.26788C11.3227 4.18363 11.743 4.25897 12.0364 4.09414C11.9237 4.07076 11.871 4.04801 11.8182 3.96484C12.0955 3.87643 12.3941 3.8002 12.5697 3.65372C12.475 3.6549 12.3865 3.67496 12.2627 3.58909C12.511 3.45528 12.776 3.34921 12.9819 3.14466C12.8534 3.14153 12.715 3.14339 12.6748 3.09617C12.9021 2.95537 13.0939 2.79881 13.2526 2.62752C13.0729 2.64919 12.997 2.63055 12.9536 2.59924C13.1254 2.42326 13.3428 2.27467 13.4465 2.05784C13.3131 2.10383 13.191 2.12144 13.1031 2.05383C13.1614 1.92212 13.4116 1.84443 13.5556 1.53664C13.4151 1.55029 13.2662 1.56727 13.2364 1.53664C13.3017 1.27098 13.4135 1.12166 13.5232 0.966957C13.2227 0.962504 12.7673 0.968131 12.7879 0.942739L12.9737 0.752812C12.6801 0.673798 12.3797 0.765532 12.1616 0.833636C12.0637 0.756383 12.1634 0.65868 12.2828 0.558922C12.0334 0.592191 11.8079 0.64958 11.6041 0.728594C11.4952 0.630304 11.6748 0.531964 11.7617 0.433674C11.3762 0.506768 11.2129 0.60956 11.0506 0.712449C10.9328 0.599579 11.0439 0.503637 11.1233 0.405396C10.8326 0.513031 10.6829 0.652026 10.5253 0.789212C10.4719 0.717097 10.3896 0.664209 10.4889 0.490231C10.2826 0.609168 10.1272 0.749338 10.0122 0.906387C9.88453 0.825074 9.93614 0.713868 9.93546 0.611419C9.72097 0.785885 9.58486 0.971507 9.41827 1.15282C9.38471 1.12836 9.35535 1.04553 9.32937 0.914411C8.81776 1.4108 8.0948 2.66108 9.14356 3.15679C10.0356 2.42047 11.1015 1.88547 12.2829 1.48409H12.2827Z" fill="#75A928"/>
<path d="M10.0944 11.5919C10.0997 12.5182 9.28968 13.2731 8.2852 13.2779C7.28067 13.2828 6.46206 12.5359 6.45677 11.6096C6.45672 11.6037 6.45672 11.5978 6.45677 11.5919C6.45149 10.6657 7.26149 9.91081 8.26602 9.90592C9.27055 9.90103 10.0891 10.648 10.0944 11.5743V11.5919ZM7.22318 6.80075C7.97682 7.29455 8.11269 8.41376 7.52662 9.30057C6.94054 10.1874 5.85451 10.5061 5.10087 10.0124C4.34722 9.51858 4.21141 8.39937 4.79743 7.51256C5.38351 6.6257 6.46954 6.307 7.22318 6.80075ZM9.25729 6.71136C8.5037 7.20511 8.36783 8.32437 8.95386 9.21119C9.53993 10.0981 10.626 10.4167 11.3796 9.92295C12.1332 9.4292 12.2691 8.30999 11.683 7.42312C11.097 6.53631 10.011 6.21761 9.25729 6.71136ZM3.45655 7.60801C4.27022 7.3899 3.73126 10.9742 3.06921 10.6801C2.34096 10.0944 2.10641 8.37902 3.45655 7.60801ZM12.8597 7.56334C12.0459 7.34529 12.585 10.9297 13.247 10.6356C13.9753 10.0499 14.2098 8.3343 12.8597 7.56334ZM10.0951 4.89414C11.4993 4.65705 12.6677 5.49132 12.6205 7.01396C12.5744 7.59774 9.57775 4.98108 10.0951 4.89414ZM6.21533 4.84947C4.81103 4.61233 3.6427 5.4468 3.68987 6.96935C3.73605 7.55307 6.73271 4.93641 6.21533 4.84947ZM8.23241 4.49438C7.39432 4.47256 6.59 5.11636 6.58804 5.4898C6.58574 5.94353 7.25068 6.40813 8.23813 6.41992C9.24648 6.42711 9.88994 6.04804 9.89317 5.57978C9.89689 5.04923 8.97607 4.48621 8.23241 4.49438ZM8.28358 13.7989C9.01428 13.767 9.99474 14.0343 9.99669 14.3888C10.0088 14.7331 9.10748 15.5109 8.23515 15.4958C7.3317 15.5348 6.44581 14.7558 6.45741 14.4858C6.44386 14.0899 7.55744 13.7808 8.28358 13.7989ZM5.58468 11.6978C6.1049 12.3246 6.34209 13.4257 5.90793 13.7503C5.49721 13.9981 4.49977 13.896 3.79085 12.8776C3.31271 12.023 3.3743 11.1533 3.71003 10.8978C4.21204 10.592 4.9877 11.0051 5.58473 11.6978H5.58468ZM10.8784 11.4992C10.3155 12.1584 10.0021 13.3609 10.4127 13.7482C10.8053 14.0491 11.8592 14.007 12.6377 12.9268C13.203 12.2013 13.0136 10.9897 12.6907 10.6679C12.211 10.2969 11.5224 10.7717 10.8784 11.499V11.4992Z" fill="#BC1142"/>
</svg>
