<svg width="16" height="16" viewBox="0 0 16 16" fill="none" xmlns="http://www.w3.org/2000/svg">
<path d="M12.2728 11.0199C14.2268 9.06589 14.5516 6.22273 12.9981 4.66935C11.4448 3.11613 8.60179 3.44084 6.64782 5.39469C4.69386 7.3486 5.2591 11.0816 5.92259 11.7452C6.45875 12.2814 10.3189 12.9737 12.2728 11.0199Z" fill="#F89939"/>
<path d="M4.25453 8.19645C3.12093 7.06285 1.47119 6.87413 0.569705 7.77556C-0.331552 8.67688 -0.14312 10.3268 0.990707 11.4603C2.12453 12.5942 4.29058 12.2662 4.6753 11.8812C4.98662 11.5703 5.38847 9.33016 4.25453 8.19645Z" fill="#3499CD"/>
<path d="M8.16453 10.5407C7.96427 10.725 7.78859 10.861 7.6376 10.9485C7.48661 11.0362 7.34261 11.0799 7.20558 11.0799C7.04796 11.0799 6.9208 11.0188 6.82439 10.8966C6.72781 10.7742 6.67969 10.6101 6.67969 10.4037C6.67969 10.0944 6.74673 9.72307 6.88081 9.29012C7.01467 8.85683 7.17766 8.45758 7.36909 8.09231L7.9304 7.88449C7.948 7.87861 7.96139 7.87561 7.97027 7.87561C8.01285 7.87561 8.04805 7.907 8.07505 7.96948C8.10234 8.03225 8.11607 8.1166 8.11607 8.22265C8.11607 8.52318 8.04689 8.81414 7.90825 9.09552C7.76966 9.37701 7.55319 9.67743 7.2586 9.99712C7.24677 10.1504 7.24089 10.2556 7.24089 10.3131C7.24089 10.4414 7.26443 10.5429 7.31157 10.618C7.35876 10.6933 7.4213 10.7307 7.49942 10.7307C7.5791 10.7307 7.66374 10.7022 7.75363 10.6447C7.84334 10.5872 7.98037 10.468 8.16447 10.2866V10.5407H8.16453ZM7.31826 9.6768C7.50531 9.46881 7.65722 9.23554 7.77353 8.97747C7.88984 8.71929 7.94794 8.49722 7.94794 8.31115C7.94794 8.25692 7.93992 8.21284 7.92383 8.17972C7.90762 8.14655 7.88684 8.12987 7.86186 8.12987C7.80757 8.12987 7.72824 8.26557 7.62433 8.53703C7.52042 8.80843 7.41842 9.18841 7.31826 9.6768Z" fill="#010101"/>
<path d="M9.81847 10.5406C9.63142 10.725 9.46352 10.861 9.31467 10.9484C9.16582 11.0361 9.00173 11.0799 8.8219 11.0799C8.62152 11.0799 8.45986 11.0158 8.33668 10.8878C8.21373 10.7594 8.15234 10.5909 8.15234 10.3816C8.15234 10.0694 8.26052 9.78686 8.47734 9.53421C8.6937 9.28145 8.93394 9.15515 9.19761 9.15515C9.33463 9.15515 9.44426 9.19063 9.52687 9.26131C9.60938 9.3321 9.65063 9.42482 9.65063 9.53975C9.65063 9.84478 9.32656 10.0921 8.67835 10.2822C8.7372 10.5694 8.89113 10.7132 9.14014 10.7132C9.23742 10.7132 9.33013 10.687 9.41847 10.6349C9.50703 10.5825 9.64025 10.4663 9.81852 10.2867L9.81847 10.5406ZM8.66052 10.1319C9.03756 10.0258 9.22623 9.82995 9.22623 9.54413C9.22623 9.40272 9.17459 9.33205 9.0716 9.33205C8.97433 9.33205 8.88161 9.40595 8.79328 9.55417C8.70466 9.70216 8.66052 9.89463 8.66052 10.1319Z" fill="#010101"/>
<path d="M12.1776 10.5407C11.9418 10.7646 11.7731 10.9106 11.6716 10.9785C11.5699 11.0462 11.4727 11.08 11.3798 11.08C11.147 11.08 11.0373 10.8746 11.0506 10.4635C10.9033 10.6741 10.7673 10.8295 10.6428 10.9299C10.5184 11.0301 10.3899 11.08 10.2571 11.08C10.1277 11.08 10.0176 11.0194 9.92683 10.8978C9.83608 10.7763 9.79102 10.6272 9.79102 10.4502C9.79102 10.2294 9.85165 10.0187 9.9731 9.81817C10.0948 9.61779 10.2506 9.4559 10.4405 9.33214C10.6305 9.20839 10.7987 9.14642 10.9443 9.14642C11.1286 9.14642 11.2575 9.23118 11.3312 9.40051L11.7828 9.15092H11.9068L11.7117 9.79832C11.6115 10.124 11.5613 10.3472 11.5613 10.468C11.5613 10.5946 11.6061 10.658 11.6961 10.658C11.7533 10.658 11.8166 10.6275 11.8859 10.5662C11.9552 10.505 12.0523 10.4119 12.1775 10.2867V10.5407H12.1776ZM10.56 10.6624C10.7073 10.6624 10.8461 10.5368 10.9767 10.2857C11.1071 10.0344 11.1722 9.80259 11.1722 9.5905C11.1722 9.50811 11.1537 9.44355 11.117 9.39722C11.08 9.35066 11.0307 9.32759 10.969 9.32759C10.8216 9.32759 10.6818 9.45278 10.5502 9.7033C10.4184 9.95381 10.3523 10.1844 10.3523 10.3948C10.3523 10.4745 10.3719 10.539 10.411 10.5883C10.45 10.6377 10.4995 10.6624 10.56 10.6624Z" fill="#010101"/>
<path d="M13.8284 10.5407C13.4586 10.9031 13.1735 11.0844 12.9732 11.0844C12.8832 11.0844 12.8073 11.0465 12.7456 10.9708C12.6838 10.8949 12.6527 10.8009 12.6527 10.6889C12.6527 10.4812 12.7641 10.2028 12.9865 9.85361C12.8774 9.90963 12.7582 9.94851 12.6285 9.97067C12.5327 10.1474 12.3824 10.3376 12.1777 10.5406H12.127V10.342C12.2418 10.2227 12.3457 10.0944 12.4385 9.9574C12.3116 9.90138 12.2484 9.81812 12.2484 9.70781C12.2484 9.59421 12.2869 9.47311 12.3645 9.34404C12.4418 9.21527 12.5482 9.15088 12.6838 9.15088C12.7988 9.15088 12.8561 9.20961 12.8561 9.32754C12.8561 9.42037 12.823 9.5529 12.7566 9.72535C13.0011 9.69875 13.2147 9.51182 13.3975 9.16403L13.5985 9.15515L13.393 9.72085C13.3076 9.95953 13.2524 10.1221 13.2274 10.2082C13.2024 10.2943 13.1898 10.3707 13.1898 10.4368C13.1898 10.4988 13.2042 10.5483 13.2328 10.5849C13.2615 10.622 13.3003 10.6402 13.3489 10.6402C13.4018 10.6402 13.4528 10.6221 13.5014 10.5862C13.5499 10.5498 13.659 10.4501 13.8285 10.2866V10.5407H13.8284Z" fill="#010101"/>
<path d="M15.999 10.5407C15.6587 10.9004 15.3668 11.08 15.1239 11.08C15.0252 11.08 14.9456 11.0454 14.8852 10.9761C14.8247 10.9069 14.7945 10.8142 14.7945 10.6978C14.7945 10.5402 14.8594 10.2992 14.9891 9.97528C15.0583 9.80138 15.093 9.69072 15.093 9.64376C15.093 9.59657 15.0744 9.57297 15.0378 9.57297C15.0172 9.57297 14.9898 9.58335 14.956 9.60383C14.9249 9.62443 14.8888 9.65339 14.8476 9.69015C14.8108 9.72396 14.7695 9.76521 14.7238 9.81367C14.684 9.85527 14.6412 9.90235 14.5958 9.9552L14.4719 10.099C14.4175 10.1652 14.3835 10.2351 14.3703 10.3088C14.3481 10.434 14.3335 10.5491 14.326 10.6538C14.3215 10.7317 14.3194 10.8369 14.3194 10.9698L13.831 11.0845C13.8149 10.8856 13.8066 10.7375 13.8066 10.6404C13.8066 10.4032 13.8343 10.1785 13.8896 9.96639C13.9448 9.75407 14.0335 9.51556 14.1559 9.25028L14.695 9.14648C14.5816 9.45152 14.5072 9.69153 14.4719 9.86675C14.7135 9.5972 14.905 9.41061 15.047 9.30659C15.1888 9.20268 15.315 9.15098 15.4253 9.15098C15.5003 9.15098 15.5629 9.17926 15.6128 9.23585C15.663 9.29251 15.6879 9.36365 15.6879 9.44869C15.6879 9.58999 15.6246 9.82279 15.498 10.147C15.411 10.3694 15.3675 10.5137 15.3675 10.5803C15.3675 10.669 15.4037 10.7133 15.4761 10.7133C15.5838 10.7133 15.7582 10.5711 15.999 10.2868V10.5407Z" fill="#010101"/>
<g clip-path="url(#clip0_184_481)">
<path d="M9.54332 7.82691L9.43473 7.85765C9.4279 7.83955 9.41782 7.82196 9.4045 7.80489C9.39153 7.78747 9.37377 7.77313 9.35123 7.76186C9.32869 7.75059 9.29984 7.74495 9.26466 7.74495C9.21651 7.74495 9.17639 7.75605 9.14429 7.77825C9.11253 7.80011 9.09665 7.82794 9.09665 7.86175C9.09665 7.8918 9.10758 7.91553 9.12943 7.93295C9.15129 7.95037 9.18544 7.96488 9.23188 7.97648L9.34867 8.00517C9.41902 8.02225 9.47144 8.04837 9.50593 8.08355C9.54042 8.11838 9.55766 8.16328 9.55766 8.21827C9.55766 8.26334 9.54469 8.30364 9.51873 8.33915C9.49312 8.37467 9.45727 8.40267 9.41116 8.42316C9.36506 8.44365 9.31145 8.4539 9.25032 8.4539C9.17007 8.4539 9.10365 8.43648 9.05106 8.40165C8.99847 8.36682 8.96517 8.31593 8.95117 8.249L9.06591 8.22032C9.07684 8.26266 9.0975 8.29442 9.12789 8.31559C9.15863 8.33677 9.19875 8.34735 9.24827 8.34735C9.30462 8.34735 9.34935 8.3354 9.38248 8.31149C9.41594 8.28725 9.43268 8.25822 9.43268 8.22441C9.43268 8.19709 9.42312 8.17421 9.40399 8.15577C9.38487 8.13699 9.3555 8.12299 9.31589 8.11377L9.18475 8.08303C9.1127 8.06596 9.05977 8.03949 9.02596 8.00363C8.99249 7.96743 8.97576 7.92219 8.97576 7.86789C8.97576 7.8235 8.98822 7.78423 9.01315 7.75008C9.03842 7.71593 9.07274 7.68912 9.11611 7.66966C9.15982 7.65019 9.20934 7.64046 9.26466 7.64046C9.34252 7.64046 9.40365 7.65753 9.44805 7.69168C9.49278 7.72583 9.52454 7.77091 9.54332 7.82691ZM10.0593 8.4539C9.98551 8.4539 9.922 8.43648 9.86872 8.40165C9.81545 8.36682 9.77447 8.31883 9.74579 8.25771C9.7171 8.19658 9.70275 8.12675 9.70275 8.0482C9.70275 7.96829 9.71744 7.89777 9.74681 7.83665C9.77652 7.77518 9.81784 7.7272 9.87077 7.69271C9.92404 7.65787 9.9862 7.64046 10.0572 7.64046C10.1125 7.64046 10.1624 7.6507 10.2068 7.67119C10.2512 7.69168 10.2876 7.72037 10.3159 7.75725C10.3443 7.79413 10.3618 7.83716 10.3687 7.88633H10.2478C10.2386 7.85048 10.2181 7.81872 10.1863 7.79106C10.1549 7.76305 10.1125 7.74905 10.0593 7.74905C10.0121 7.74905 9.97083 7.76135 9.93532 7.78593C9.90014 7.81018 9.87265 7.8445 9.85284 7.88889C9.83338 7.93295 9.82365 7.98468 9.82365 8.0441C9.82365 8.10489 9.8332 8.15782 9.85233 8.2029C9.8718 8.24797 9.89912 8.28298 9.93429 8.30791C9.9698 8.33283 10.0115 8.3453 10.0593 8.3453C10.0907 8.3453 10.1192 8.33983 10.1448 8.32891C10.1704 8.31798 10.1921 8.30227 10.2099 8.28178C10.2276 8.26129 10.2403 8.2367 10.2478 8.20802H10.3687C10.3618 8.25447 10.3449 8.2963 10.318 8.33352C10.2913 8.3704 10.256 8.39977 10.2119 8.42162C10.1682 8.44314 10.1173 8.4539 10.0593 8.4539ZM10.5454 8.4375V7.6507H10.6663V8.4375H10.5454ZM10.6069 7.51957C10.5833 7.51957 10.563 7.51154 10.5459 7.49549C10.5292 7.47944 10.5208 7.46015 10.5208 7.43761C10.5208 7.41507 10.5292 7.39578 10.5459 7.37973C10.563 7.36368 10.5833 7.35565 10.6069 7.35565C10.6304 7.35565 10.6506 7.36368 10.6673 7.37973C10.6844 7.39578 10.6929 7.41507 10.6929 7.43761C10.6929 7.46015 10.6844 7.47944 10.6673 7.49549C10.6506 7.51154 10.6304 7.51957 10.6069 7.51957ZM11.0004 8.15065L10.9983 8.00107H11.0229L11.3672 7.6507H11.5167L11.15 8.02157H11.1397L11.0004 8.15065ZM10.8877 8.4375V7.38844H11.0086V8.4375H10.8877ZM11.3876 8.4375L11.0803 8.0482L11.1664 7.96419L11.5413 8.4375H11.3876ZM11.6723 8.4375V7.6507H11.7932V8.4375H11.6723ZM11.7338 7.51957C11.7102 7.51957 11.6899 7.51154 11.6728 7.49549C11.6561 7.47944 11.6477 7.46015 11.6477 7.43761C11.6477 7.41507 11.6561 7.39578 11.6728 7.37973C11.6899 7.36368 11.7102 7.35565 11.7338 7.35565C11.7574 7.35565 11.7775 7.36368 11.7942 7.37973C11.8113 7.39578 11.8198 7.41507 11.8198 7.43761C11.8198 7.46015 11.8113 7.47944 11.7942 7.49549C11.7775 7.51154 11.7574 7.51957 11.7338 7.51957ZM12.3568 7.6507V7.75315H11.9491V7.6507H12.3568ZM12.0679 7.4622H12.1888V8.21212C12.1888 8.24627 12.1937 8.27188 12.2036 8.28895C12.2139 8.30568 12.2269 8.31695 12.2426 8.32276C12.2586 8.32823 12.2755 8.33096 12.2933 8.33096C12.3066 8.33096 12.3175 8.33027 12.3261 8.32891C12.3346 8.3272 12.3414 8.32583 12.3466 8.32481L12.3711 8.4334C12.3629 8.43648 12.3515 8.43955 12.3368 8.44263C12.3221 8.44604 12.3035 8.44775 12.281 8.44775C12.2468 8.44775 12.2134 8.4404 12.1806 8.42572C12.1481 8.41103 12.1212 8.38867 12.0997 8.35862C12.0785 8.32857 12.0679 8.29066 12.0679 8.2449V7.4622Z" fill="white"/>
</g>
<defs>
<clipPath id="clip0_184_481">
<rect width="3.4375" height="1.1875" fill="white" transform="translate(8.9375 7.3125)"/>
</clipPath>
</defs>
</svg>
