<svg width="16" height="16" viewBox="0 0 16 16" fill="none" xmlns="http://www.w3.org/2000/svg">
<rect width="16" height="16" fill="#E6E1D8"/>
<path d="M3.875 10.0312C3 10.6562 2.53125 11.1875 1.59375 11.1875C1.65625 7.40625 4.46875 4.75 8.03125 4.75C11.5938 4.75 14.375 7.625 14.375 11.1875C13.5312 11.2188 12.875 10.2204 12.375 9.5625C11.875 8.90461 11.1875 7.96875 10.0938 7.96875C9 7.96875 8.0625 9.4375 7.1875 10.4688C5.6875 9.21875 4.75 9.40625 3.875 10.0312Z" fill="#27262B"/>
<path d="M10.1562 8.78124C11.0625 8.84374 11.5 9.90624 12.625 11.1875C12.625 11.1875 9.40625 11.2187 8.8125 11.1875C8.21875 11.1562 7.84375 10.875 7.84375 10.875C8.06246 10.7812 9.25 8.71874 10.1562 8.78124Z" fill="#27262B"/>
<path d="M5.78125 11.2187C4.78125 11.2187 3.625 11.1875 3.625 11.1875C3.625 11.1875 4.65625 10.375 5.3125 10.375C5.78125 10.375 6.5625 10.9687 6.5625 10.9687C6.5625 10.9687 6.28125 11.2187 5.78125 11.2187Z" fill="#27262B"/>
</svg>
