<svg width="16" height="16" viewBox="0 0 16 16" fill="none" xmlns="http://www.w3.org/2000/svg">
<g clip-path="url(#clip0_184_971)">
<g clip-path="url(#clip1_184_971)">
<path d="M15.6655 3.7491C15.4811 3.06026 14.9398 2.51893 14.2509 2.33454C13.0037 2 8 2 8 2C8 2 2.99639 2 1.7491 2.33454C1.06026 2.51893 0.518935 3.06026 0.334542 3.7491C1.00141e-07 4.99639 0 7.60028 0 7.60028C0 7.60028 1.00141e-07 10.2042 0.334542 11.4515C0.518935 12.1403 1.06026 12.6816 1.7491 12.866C2.99639 13.2006 8 13.2006 8 13.2006C8 13.2006 13.0037 13.2006 14.2509 12.866C14.9398 12.6816 15.4811 12.1403 15.6655 11.4515C16.0001 10.2042 16.0001 7.60028 16.0001 7.60028C16.0001 7.60028 15.9987 4.99639 15.6655 3.7491Z" fill="#FF0000"/>
<path d="M6.39844 10.0002L10.5552 7.6005L6.39844 5.20074V10.0002Z" fill="white"/>
</g>
</g>
<defs>
<clipPath id="clip0_184_971">
<rect width="16" height="11.2006" fill="white" transform="translate(0 2)"/>
</clipPath>
<clipPath id="clip1_184_971">
<rect width="16" height="11.2006" fill="white" transform="translate(0 2)"/>
</clipPath>
</defs>
</svg>
