<svg width="16" height="16" viewBox="0 0 16 16" fill="none" xmlns="http://www.w3.org/2000/svg">
<g clip-path="url(#clip0_214_29)">
<path d="M7.995 0.000610352L1.0625 4.00061V12.0075L7.995 16.0119L14.9275 12.0119V4.00249L7.995 0.000610352Z" fill="white"/>
<path d="M14.9274 4.0025L12.7574 2.75L10.6699 3.955L12.8399 5.20813L14.9274 4.0025Z" fill="#E0684B"/>
<path d="M3.15 5.20813L10.0819 1.20563L7.995 0L1.0625 4.0025L3.15 5.20813Z" fill="#E0684B"/>
<path d="M5.82422 9.25813L7.99422 10.5106L10.1636 9.25813L7.99422 8.005L5.82422 9.25813Z" fill="#E0684B"/>
<path d="M12.84 5.20813V10.8025L7.995 13.6L3.15 10.8025V5.20813L1.0625 4.0025V12.0075L7.995 16.01L14.9275 12.0075V4.0025L12.84 5.20813Z" fill="#BB464B"/>
<path d="M7.99422 5.5L5.82422 6.7525V9.25813L7.99422 8.005L10.1636 9.25813V6.7525L7.99422 5.5Z" fill="#BB464B"/>
<path d="M12.8391 5.20813L10.1635 6.75251V9.25813L7.99414 10.5106V13.6L12.8391 10.8025V5.20813Z" fill="#E0DED8"/>
<path d="M3.15039 5.20813L5.82539 6.75251V9.25813L7.99539 10.5106V13.6L3.15039 10.8025V5.20813Z" fill="#D5D2CA"/>
<path d="M10.0823 1.20563L12.7579 2.75L10.6704 3.955L12.8404 5.20813L10.1648 6.7525L7.99539 5.5L5.82539 6.7525L3.15039 5.20813L10.0823 1.20563Z" fill="white"/>
</g>
<defs>
<clipPath id="clip0_214_29">
<rect width="16" height="16" fill="white"/>
</clipPath>
</defs>
</svg>
