<svg width="16" height="16" viewBox="0 0 16 16" fill="none" xmlns="http://www.w3.org/2000/svg">
<g clip-path="url(#clip0_220_6)">
<path d="M8 16C12.4183 16 16 12.4183 16 8C16 3.58172 12.4183 0 8 0C3.58172 0 0 3.58172 0 8C0 12.4183 3.58172 16 8 16Z" fill="url(#paint0_linear_220_6)"/>
<path d="M11.9027 9.80642C11.9157 9.65158 11.7092 9.59352 11.6382 9.729C10.9286 11.1226 9.78662 12.1096 8.45113 12.1935C7.37371 12.258 6.42533 11.5806 6.05759 10.4967C5.70275 9.44513 5.7092 8.54191 5.92855 7.30965C6.25759 5.46449 7.44468 3.47739 9.30275 3.56126C10.0834 3.59352 10.4576 4.05803 10.4576 4.82578C10.4576 5.74836 9.94146 6.18062 9.94146 6.529C9.94146 6.63223 10.0318 6.74191 10.206 6.74191C10.9157 6.74191 11.7544 5.9032 11.7544 4.76771C11.7544 3.62578 10.8318 2.79352 9.19307 2.79352C6.48984 2.79352 4.08984 5.329 4.08984 8.81287C4.08984 11.5871 5.73501 13.2064 8.10275 13.2064C8.95436 13.2064 10.1415 12.7032 11.0963 11.5871C11.9737 10.5742 11.9027 9.80642 11.9027 9.80642Z" fill="white"/>
</g>
<defs>
<linearGradient id="paint0_linear_220_6" x1="5.74458" y1="2.79691" x2="11.1641" y2="15.2995" gradientUnits="userSpaceOnUse">
<stop stop-color="#01C3CC"/>
<stop offset="0.51" stop-color="#4569E0"/>
<stop offset="0.998" stop-color="#7428EF"/>
<stop offset="1" stop-color="#7428EF"/>
</linearGradient>
<clipPath id="clip0_220_6">
<rect width="16" height="16" fill="white"/>
</clipPath>
</defs>
</svg>
