<svg width="16" height="16" viewBox="0 0 16 16" fill="none" xmlns="http://www.w3.org/2000/svg">
<path d="M0.00337761 3.99338C0.0619501 3.47859 0.301989 3.0015 0.68045 2.64766C1.05891 2.29382 1.55105 2.08636 2.06861 2.0625H11.1667C11.4929 2.0894 11.8091 2.18842 12.0922 2.35241C12.3755 2.51639 12.6187 2.74125 12.8045 3.01073C12.9718 3.25621 13.0899 3.53187 13.152 3.82239L15.8258 2.49664C15.8427 2.48815 15.8614 2.48385 15.8804 2.48409C15.8994 2.48433 15.918 2.48911 15.9347 2.49802C15.9514 2.50694 15.9658 2.51973 15.9766 2.53533C15.9874 2.55093 15.9943 2.56888 15.9967 2.58769C15.9967 3.08845 15.9967 3.587 15.9967 4.09109C15.9977 4.14132 15.9836 4.1907 15.9561 4.23272C15.9285 4.27474 15.8889 4.30742 15.8424 4.32648C13.3826 5.54637 10.9224 6.76775 8.46194 7.9906L15.8258 11.6336C15.8728 11.6499 15.914 11.6796 15.9444 11.7191C15.9748 11.7586 15.9929 11.8061 15.9967 11.8557C15.9967 12.3576 15.9967 12.855 15.9967 13.3613C15.9969 13.3842 15.9906 13.4067 15.9788 13.4263C15.9669 13.4458 15.9498 13.4616 15.9293 13.472C15.9089 13.4824 15.8861 13.4869 15.8632 13.485C15.8404 13.4831 15.8186 13.4749 15.8002 13.4613C14.923 13.0171 14.0336 12.5985 13.1631 12.1455C13.1046 12.3559 13.0266 12.5603 12.9299 12.7562C12.7825 13.0276 12.58 13.2652 12.3355 13.4539C12.0909 13.6426 11.8097 13.7782 11.5098 13.8521C11.3092 13.8943 11.104 13.911 10.8991 13.9021H2.41948C2.2285 13.9021 2.03641 13.9021 1.84654 13.8876C1.36784 13.8159 0.926706 13.5867 0.592888 13.2362C0.25907 12.8857 0.0516314 12.4339 0.00337761 11.9523C0.00337761 11.4671 0.00337761 10.9808 0.00337761 10.4955C0.0114251 10.4348 0.0365764 10.3776 0.0758951 10.3306C0.115214 10.2836 0.167079 10.2488 0.225446 10.2301C1.73773 9.48289 3.24668 8.72895 4.76119 7.98505C3.23558 7.22558 1.70886 6.46832 0.181033 5.71329C0.129091 5.69037 0.0848895 5.65291 0.0537614 5.60543C0.0226326 5.55795 0.00590574 5.50248 0.00559762 5.4457C0.00337637 4.96271 -0.00439451 4.47749 0.00337761 3.99338ZM1.68888 4.00337C1.59783 4.18658 1.64002 4.39865 1.63225 4.59629C3.29776 5.41905 4.95105 6.24626 6.61325 7.06347C8.25581 6.24922 9.89913 5.43497 11.5431 4.62072C11.5431 4.47305 11.5498 4.32537 11.5431 4.17659C11.5238 4.04359 11.4569 3.92214 11.3547 3.83475C11.2527 3.74735 11.1224 3.69996 10.988 3.70136H2.1963C2.09154 3.69785 1.98796 3.72443 1.89784 3.77795C1.80771 3.83148 1.73481 3.9097 1.68776 4.00337H1.68888ZM1.63225 11.3716C1.64002 11.5714 1.59672 11.7869 1.69331 11.9723C1.74182 12.0634 1.8148 12.1393 1.90405 12.1913C1.9933 12.2433 2.09527 12.2693 2.19852 12.2665H10.9958C11.0933 12.2673 11.1891 12.2421 11.2736 12.1935C11.3581 12.1449 11.4282 12.0747 11.4765 11.9901C11.5876 11.7958 11.5365 11.5626 11.5476 11.3494C9.90094 10.5366 8.25656 9.71051 6.60656 8.90664C4.94328 9.72826 3.2848 10.5499 1.63114 11.3716H1.63225Z" fill="black"/>
</svg>
