<svg width="16" height="16" viewBox="0 0 16 16" fill="currentColor" xmlns="http://www.w3.org/2000/svg">
<g clip-path="url(#clip0_203_2259)">
<path d="M0.578784 12.0206C0.413712 12.2898 0.228324 12.6022 0.0708712 12.8511C-0.0700615 13.0892 0.00559679 13.3964 0.241022 13.5418L3.54246 15.5735C3.65834 15.645 3.79811 15.667 3.93038 15.6346C4.06265 15.6021 4.17633 15.5179 4.24592 15.4008C4.37797 15.1799 4.54812 14.8929 4.73351 14.5856C6.04139 12.427 7.35688 12.6911 9.72884 13.8237L13.0023 15.3805C13.1263 15.4395 13.2689 15.4458 13.3976 15.3979C13.5263 15.3501 13.6302 15.2522 13.6855 15.1265L15.2575 11.5711C15.3685 11.3172 15.2555 11.0211 15.0035 10.9058C14.3128 10.5807 12.9388 9.93311 11.7021 9.33631C7.25276 7.17514 3.47135 7.31482 0.578784 12.0206Z" fill="url(#paint0_linear_203_2259)"/>
<path d="M15.3819 3.952C15.547 3.6828 15.7324 3.37044 15.8898 3.12156C16.0308 2.8834 15.9551 2.57625 15.7197 2.4308L12.4182 0.399146C12.3014 0.320455 12.1571 0.293818 12.0199 0.325597C11.8827 0.357377 11.7648 0.444719 11.6945 0.566757C11.5624 0.787699 11.3923 1.07467 11.2069 1.38196C9.899 3.54059 8.5835 3.27647 6.21155 2.14383L2.94821 0.594692C2.82423 0.535682 2.68164 0.529381 2.55294 0.577225C2.42424 0.625069 2.32039 0.722982 2.26506 0.848649L0.693074 4.40404C0.58201 4.65797 0.695019 4.95405 0.94703 5.0694C1.63779 5.39447 3.0117 6.04206 4.24846 6.63886C8.70794 8.79749 12.4894 8.65273 15.3819 3.952Z" fill="url(#paint1_linear_203_2259)"/>
</g>
<defs>
<linearGradient id="paint0_linear_203_2259" x1="1516.86" y1="871.036" x2="1147.15" y2="22.873" gradientUnits="userSpaceOnUse">
<stop offset="0.18" stop-color="#0052CC"/>
<stop offset="1" stop-color="#2684FF"/>
</linearGradient>
<linearGradient id="paint1_linear_203_2259" x1="14.823" y1="-96.1609" x2="385.12" y2="752.413" gradientUnits="userSpaceOnUse">
<stop offset="0.18" stop-color="#0052CC"/>
<stop offset="1" stop-color="#2684FF"/>
</linearGradient>
<clipPath id="clip0_203_2259">
<rect width="16" height="16" fill="white"/>
</clipPath>
</defs>
</svg>
