<svg width="16" height="16" viewBox="0 0 16 16" fill="currentColor" xmlns="http://www.w3.org/2000/svg">
<g clip-path="url(#clip0_203_1916)">
<mask id="mask0_203_1916" style="mask-type:luminance" maskUnits="userSpaceOnUse" x="0" y="0" width="16" height="16">
<path d="M16 0H0V16H16V0Z" fill="white"/>
</mask>
<g mask="url(#mask0_203_1916)">
<path d="M15.0415 4.73936C15.0415 4.47414 14.985 4.23502 14.8676 4.03499C14.7546 3.83499 14.585 3.66977 14.3589 3.53933C12.4805 2.45664 10.5978 1.37399 8.71945 0.291313C8.21073 -1.12206e-05 7.72376 0.00868855 7.21939 0.304353C6.47152 0.74352 2.72348 2.89145 1.61038 3.53933C1.14948 3.80455 0.927734 4.21327 0.927734 4.74374V11.2832C0.927734 11.5441 0.984253 11.7746 1.09296 11.9746C1.20602 12.1789 1.37994 12.3528 1.61038 12.4876C2.72784 13.1355 6.47152 15.2791 7.21939 15.7226C7.72376 16.0182 8.21508 16.0312 8.71945 15.7356C10.5978 14.6486 12.4805 13.5703 14.3589 12.4876C14.5937 12.3528 14.7633 12.1833 14.8763 11.9746C14.985 11.7746 15.0415 11.5441 15.0415 11.2832V4.73936Z" fill="#9A4993"/>
<path d="M8.00175 7.98743L1.08398 11.9702C1.19705 12.1746 1.37097 12.3485 1.60141 12.4833C2.71887 13.1312 6.46253 15.2748 7.2104 15.7183C7.71478 16.014 8.20612 16.027 8.7105 15.7313C10.5889 14.6443 12.4716 13.566 14.3499 12.4833C14.5847 12.3485 14.7543 12.179 14.8673 11.9702L8.00175 7.98743Z" fill="#6A1577"/>
<path d="M5.95312 9.16574C6.3575 9.87011 7.11406 10.3441 7.97934 10.3441C8.85328 10.3441 9.61419 9.86577 10.0142 9.15268L8.00106 7.98743L5.95312 9.16574Z" fill="#6A1577"/>
<path d="M15.0415 4.73935C15.0415 4.47413 14.9849 4.235 14.8675 4.03497L8.00195 7.98738L14.8762 11.9702C14.9849 11.7702 15.0415 11.5397 15.0415 11.2788V4.73935Z" fill="#813084"/>
<path d="M10.0155 9.15262C9.6155 9.86137 8.85459 10.344 7.98062 10.344C7.111 10.344 6.35447 9.87006 5.95444 9.16568C5.75878 8.82218 5.64572 8.43087 5.64572 8.00909C5.64572 6.71771 6.68925 5.67418 7.98062 5.67418C8.84153 5.67418 9.59375 6.14377 9.99812 6.83946L12.0373 5.66549C11.2243 4.26543 9.71116 3.3219 7.97628 3.3219C5.38481 3.3219 3.28906 5.42199 3.28906 8.00909C3.28906 8.85696 3.51516 9.65702 3.91084 10.344C4.71956 11.7484 6.24141 12.6963 7.98062 12.6963C9.72422 12.6963 11.246 11.7441 12.0548 10.331L10.0155 9.15262ZM12.5939 6.90034H12.1287V9.14831H12.5939V6.90034ZM13.6244 6.90034H13.1592V9.14831H13.6244V6.90034Z" fill="white"/>
<path d="M14.0019 7.27863H11.7539V7.74388H14.0019V7.27863ZM14.0019 8.30475H11.7539V8.77H14.0019V8.30475Z" fill="white"/>
</g>
</g>
<defs>
<clipPath id="clip0_203_1916">
<rect width="16" height="16" fill="white"/>
</clipPath>
</defs>
</svg>
