<svg width="16" height="16" viewBox="0 0 16 16" fill="none" xmlns="http://www.w3.org/2000/svg">
<g clip-path="url(#clip0_218_96)">
<path d="M15.9694 11.3512C15.9766 11.2815 15.9817 11.2112 15.9857 11.1405C15.9906 11.0568 10.9506 6.27484 10.9506 6.27484H10.8301C10.8301 6.27484 15.9386 11.6633 15.9694 11.3512Z" fill="url(#paint0_linear_218_96)"/>
<path d="M5.21765 9.69233C5.21099 9.707 5.20432 9.72167 5.19749 9.73633C5.19032 9.75167 5.18299 9.767 5.17565 9.78217C5.01499 10.1172 7.42482 12.473 7.61865 12.1868C7.62749 12.1742 7.63632 12.1608 7.64515 12.1482C7.65499 12.1332 7.66465 12.1188 7.67432 12.1038C7.82932 11.8685 5.28649 9.53933 5.21765 9.69233Z" fill="url(#paint1_linear_218_96)"/>
<path d="M8.62312 13.0052C8.61629 13.0202 8.56779 13.1022 8.52346 13.1455C8.51596 13.1605 10.876 15.501 10.876 15.501H11.0885C11.0886 15.501 8.87312 13.1042 8.62312 13.0052Z" fill="url(#paint2_linear_218_96)"/>
<path d="M15.9897 11.098C15.8793 13.5447 13.8552 15.501 11.3822 15.501H11.0478L8.57817 13.068C8.78133 12.7815 8.97017 12.4847 9.13833 12.1752H11.3822C12.0918 12.1752 12.6693 11.598 12.6693 10.888C12.6693 10.1783 12.0918 9.60083 11.3822 9.60083H10.0543C10.1555 9.066 10.2108 8.5145 10.2108 7.95033C10.2108 7.3775 10.1545 6.81817 10.0497 6.27483H10.8745L15.9752 11.3007C15.9812 11.2333 15.986 11.166 15.9897 11.098ZM1.34167 0.375H0V3.70083H1.34167C3.685 3.70083 5.59167 5.607 5.59167 7.95033C5.59167 8.58783 5.4495 9.193 5.19683 9.73633L7.6445 12.1482C8.44817 10.9457 8.918 9.502 8.918 7.95033C8.918 3.77333 5.51917 0.375 1.34167 0.375Z" fill="url(#paint3_linear_218_96)"/>
<path d="M11.3822 0.375H5.94922C7.27622 1.18517 8.37505 2.334 9.12372 3.70083H11.3822C12.0919 3.70083 12.6694 4.278 12.6694 4.988C12.6694 5.69783 12.0919 6.275 11.3822 6.275H10.8747L15.9754 11.3008C15.9874 11.1645 15.9949 11.0273 15.9949 10.888C15.9949 9.76683 15.5926 8.73833 14.9246 7.93783C15.5926 7.13767 15.9949 6.109 15.9949 4.988C15.9949 2.4445 13.9259 0.375 11.3822 0.375Z" fill="url(#paint4_linear_218_96)"/>
<path d="M11.0478 15.501H5.988C7.0065 14.872 7.887 14.0417 8.57817 13.068L11.0478 15.501ZM7.6445 12.1482L5.197 9.73633C4.52083 11.1895 3.04733 12.2002 1.34167 12.2002H0V15.5257H1.34167C3.96733 15.5257 6.28483 14.1827 7.6445 12.1482Z" fill="url(#paint5_linear_218_96)"/>
</g>
<defs>
<linearGradient id="paint0_linear_218_96" x1="-415.218" y1="-466.122" x2="532.594" y2="558.201" gradientUnits="userSpaceOnUse">
<stop stop-color="#F9A03C"/>
<stop offset="1" stop-color="#F7974E"/>
</linearGradient>
<linearGradient id="paint1_linear_218_96" x1="-645.548" y1="-619.154" x2="254.872" y2="254.648" gradientUnits="userSpaceOnUse">
<stop stop-color="#F9A03C"/>
<stop offset="1" stop-color="#F7974E"/>
</linearGradient>
<linearGradient id="paint2_linear_218_96" x1="-563.893" y1="-640.823" x2="224.539" y2="288.169" gradientUnits="userSpaceOnUse">
<stop stop-color="#F9A03C"/>
<stop offset="1" stop-color="#F7974E"/>
</linearGradient>
<linearGradient id="paint3_linear_218_96" x1="181.302" y1="-27.18" x2="1240.07" y2="1450.21" gradientUnits="userSpaceOnUse">
<stop stop-color="#F26D58"/>
<stop offset="1" stop-color="#F9A03C"/>
</linearGradient>
<linearGradient id="paint4_linear_218_96" x1="165.109" y1="42.5272" x2="1263.93" y2="706.381" gradientUnits="userSpaceOnUse">
<stop stop-color="#B84E51"/>
<stop offset="1" stop-color="#F68E48"/>
</linearGradient>
<linearGradient id="paint5_linear_218_96" x1="519.073" y1="145.591" x2="533.946" y2="863.845" gradientUnits="userSpaceOnUse">
<stop stop-color="#F9A03C"/>
<stop offset="1" stop-color="#F7974E"/>
</linearGradient>
<clipPath id="clip0_218_96">
<rect width="16" height="16" fill="white"/>
</clipPath>
</defs>
</svg>
