<svg width="16" height="16" viewBox="0 0 16 16" fill="none" xmlns="http://www.w3.org/2000/svg">
<g clip-path="url(#clip0_203_2263)">
<path d="M3.26319 12.7368L0.526896 10.0006C0.201086 9.66679 0 9.19525 0 8.73645C0 8.52359 0.119951 8.19046 0.210631 7.99988L2.73629 2.73633L3.26319 12.7368Z" fill="#01579B"/>
<path d="M12.6313 3.26319L9.89496 0.526896C9.65601 0.286356 9.15839 0 8.73713 0C8.37505 0 8.01965 0.0728618 7.79024 0.210631L2.73828 2.73629L12.6313 3.26319Z" fill="#40C4FF"/>
<path d="M6.52552 16H13.1575V13.1581L8.20993 11.5784L3.68359 13.1581L6.52552 16Z" fill="#40C4FF"/>
<path d="M2.73633 11.2634C2.73633 12.1078 2.84228 12.3149 3.26227 12.7372L3.68321 13.1584H13.1581L8.52709 7.8952L2.73633 2.73633V11.2634Z" fill="#29B6F6"/>
<path d="M11.1584 2.73633H2.73633L13.1581 13.1568H16V6.63077L12.6315 3.26195C12.1581 2.78787 11.7381 2.73633 11.1584 2.73633Z" fill="#01579B"/>
<path opacity="0.2" d="M3.36858 12.8415C2.94764 12.4193 2.84296 12.0028 2.84296 11.2634V2.84196L2.73828 2.73633V11.2634C2.73828 12.0031 2.73828 12.208 3.36858 12.8418L3.68389 13.1572L3.36858 12.8415Z" fill="white"/>
<path opacity="0.2" d="M15.8947 6.52606V13.0521H13.0527L13.1574 13.1581H15.9993V6.63074L15.8947 6.52606Z" fill="#263238"/>
<path opacity="0.2" d="M12.6313 3.26322C12.1098 2.74078 11.6828 2.73633 11.0534 2.73633H2.73828L2.84296 2.84101H11.0534C11.3675 2.84101 12.1604 2.78819 12.6319 3.26227L12.6313 3.26322Z" fill="white"/>
<path opacity="0.2" d="M15.8953 6.52606L12.6315 3.26319L9.8952 0.526896C9.65625 0.286356 9.15863 0 8.73737 0C8.37529 0 8.01989 0.0728618 7.79048 0.210631L2.73852 2.73629L0.211586 7.99984C0.121224 8.1917 0 8.52451 0 8.73641C0 9.19617 0.202358 9.66548 0.525623 9.99956L3.04906 12.5042C3.1162 12.5856 3.18768 12.6634 3.26319 12.7371L3.36787 12.8418L3.68286 13.1571L6.41915 15.8934L6.52383 15.9981H13.1546V13.1568H15.9965V6.63074L15.8953 6.52606Z" fill="url(#paint0_radial_203_2263)"/>
</g>
<defs>
<radialGradient id="paint0_radial_203_2263" cx="0" cy="0" r="1" gradientUnits="userSpaceOnUse" gradientTransform="translate(7.99952 7.9992) scale(7.99889 7.99889)">
<stop stop-color="white" stop-opacity="0.1"/>
<stop offset="1" stop-color="white" stop-opacity="0"/>
</radialGradient>
<clipPath id="clip0_203_2263">
<rect width="16" height="16" fill="white"/>
</clipPath>
</defs>
</svg>
