<svg width="16" height="16" viewBox="0 0 16 16" fill="none" xmlns="http://www.w3.org/2000/svg">
<g clip-path="url(#clip0_210_8)">
<path d="M5.35612 16C6.82812 16 8.02279 14.8054 8.02279 13.3334V10.6667H5.35612C3.88412 10.6667 2.68945 11.8614 2.68945 13.3334C2.68945 14.8054 3.88412 16 5.35612 16Z" fill="#0ACF83"/>
<path d="M2.68945 7.99998C2.68945 6.52798 3.88412 5.33331 5.35612 5.33331H8.02279V10.6666H5.35612C3.88412 10.6666 2.68945 9.47198 2.68945 7.99998Z" fill="#A259FF"/>
<path d="M2.68945 2.66667C2.68945 1.19467 3.88412 0 5.35612 0H8.02279V5.33333H5.35612C3.88412 5.33333 2.68945 4.13867 2.68945 2.66667Z" fill="#F24E1E"/>
<path d="M8.02148 0H10.6882C12.1602 0 13.3548 1.19467 13.3548 2.66667C13.3548 4.13867 12.1602 5.33333 10.6882 5.33333H8.02148V0Z" fill="#FF7262"/>
<path d="M13.3548 7.99998C13.3548 9.47198 12.1602 10.6666 10.6882 10.6666C9.21615 10.6666 8.02148 9.47198 8.02148 7.99998C8.02148 6.52798 9.21615 5.33331 10.6882 5.33331C12.1602 5.33331 13.3548 6.52798 13.3548 7.99998Z" fill="#1ABCFE"/>
</g>
<defs>
<clipPath id="clip0_210_8">
<rect width="10.6688" height="16" fill="white" transform="translate(2.6875)"/>
</clipPath>
</defs>
</svg>
