<svg width="16" height="16" viewBox="0 0 16 16" fill="currentColor" xmlns="http://www.w3.org/2000/svg">
<path d="M5.70508 14.9466C6.32502 15.1961 6.99758 15.3442 7.7038 15.3689C8.65953 15.4022 9.56838 15.2046 10.3809 14.8293C9.40657 14.4465 8.52417 13.8867 7.77105 13.1907C7.28289 13.9723 6.56086 14.5897 5.70508 14.9466Z" fill="#FF9100"/>
<path d="M7.77033 13.1909C6.05124 11.601 5.00836 9.2998 5.09649 6.77577C5.09937 6.69383 5.10369 6.61191 5.10876 6.53001C4.80087 6.45039 4.47943 6.4018 4.14865 6.39025C3.67519 6.37372 3.21665 6.43244 2.78377 6.55433C2.32486 7.3582 2.04793 8.28055 2.01343 9.26849C1.92439 11.8181 3.46735 14.0459 5.70433 14.9469C6.56014 14.5899 7.28215 13.9733 7.77033 13.1909Z" fill="#FFC400"/>
<path d="M7.77082 13.1909C8.1705 12.5512 8.41281 11.8014 8.44103 10.9935C8.51524 8.86826 7.08657 7.0401 5.10924 6.52997C5.10417 6.61186 5.09985 6.69378 5.09697 6.77573C5.00884 9.29975 6.05172 11.601 7.77082 13.1909Z" fill="#FF9100"/>
<path d="M8.21902 0.556213C7.09286 1.45841 6.20358 2.64804 5.66553 4.01847C5.3575 4.80343 5.16393 5.6466 5.10742 6.53047C7.08476 7.0406 8.51345 8.86876 8.43924 10.9939C8.41102 11.8019 8.16798 12.551 7.769 13.1914C8.52206 13.8881 9.40449 14.4472 10.3788 14.83C12.3345 13.926 13.722 11.9807 13.8024 9.67991C13.8544 8.18922 13.2817 6.8606 12.4724 5.73916C11.6177 4.55311 8.21902 0.556213 8.21902 0.556213Z" fill="#DD2C00"/>
</svg>
