<svg width="16" height="16" viewBox="0 0 16 16" fill="currentColor" xmlns="http://www.w3.org/2000/svg">
<g clip-path="url(#clip0_203_2310)">
<path d="M15.2928 7.32501L8.67528 0.707772C8.29425 0.326576 7.67618 0.326576 7.29482 0.707772L5.9208 2.08212L7.66381 3.82513C8.06893 3.68823 8.53342 3.7801 8.85623 4.10307C9.18101 4.42802 9.27206 4.89647 9.13169 5.30307L10.8119 6.98307C11.2185 6.84286 11.6872 6.93359 12.0119 7.2587C12.4655 7.71231 12.4655 8.44732 12.0119 8.90126C11.5579 9.35503 10.8229 9.35503 10.3688 8.90126C10.0277 8.55981 9.94324 8.05837 10.1163 7.63808L8.54926 6.07124V10.1945C8.65977 10.2492 8.76418 10.3221 8.85623 10.4142C9.30983 10.8678 9.30983 11.6028 8.85623 12.0569C8.40262 12.5103 7.66711 12.5103 7.21383 12.0569C6.76023 11.6026 6.76023 10.8676 7.21383 10.4142C7.326 10.3022 7.45581 10.2174 7.59437 10.1606V5.99899C7.45581 5.94225 7.32633 5.85829 7.21383 5.74546C6.87025 5.40204 6.78761 4.89763 6.96377 4.47569L5.2455 2.75709L0.707772 7.29433C0.326576 7.67585 0.326576 8.29392 0.707772 8.67511L7.32567 15.2925C7.7067 15.6737 8.3246 15.6737 8.70612 15.2925L15.2928 8.70579C15.674 8.3246 15.674 7.70621 15.2928 7.32501Z" fill="#F05133"/>
</g>
<defs>
<clipPath id="clip0_203_2310">
<rect width="16" height="16" fill="white"/>
</clipPath>
</defs>
</svg>
