<svg width="16" height="16" viewBox="0 0 16 16" fill="none" xmlns="http://www.w3.org/2000/svg">
<path d="M7.20108 11.8467C7.26262 11.8468 7.32355 11.859 7.38038 11.8826C7.4372 11.9063 7.48882 11.9408 7.53228 11.9844C7.57574 12.028 7.61018 12.0797 7.63366 12.1366C7.65713 12.1935 7.66916 12.2545 7.66908 12.316C7.66899 12.3776 7.65678 12.4385 7.63315 12.4953C7.60951 12.5522 7.57492 12.6038 7.53134 12.6472C7.48775 12.6907 7.43604 12.7251 7.37914 12.7486C7.32225 12.7721 7.26129 12.7841 7.19974 12.784C7.07545 12.7838 6.95631 12.7343 6.86854 12.6463C6.78077 12.5583 6.73157 12.439 6.73174 12.3147C6.73192 12.1904 6.78147 12.0713 6.86948 11.9835C6.9575 11.8957 7.07678 11.8465 7.20108 11.8467ZM14.5504 8.94869C14.4889 8.94865 14.4279 8.93648 14.3711 8.91289C14.3142 8.88929 14.2626 8.85474 14.2191 8.81118C14.1756 8.76763 14.1411 8.71594 14.1176 8.65907C14.0941 8.60219 14.082 8.54124 14.0821 8.47969C14.0821 8.41814 14.0943 8.35721 14.1179 8.30036C14.1415 8.24352 14.176 8.19188 14.2196 8.14839C14.2631 8.1049 14.3148 8.07042 14.3717 8.0469C14.4286 8.02339 14.4895 8.01131 14.5511 8.01136C14.6754 8.01144 14.7945 8.06091 14.8824 8.14886C14.9702 8.23682 15.0195 8.35606 15.0194 8.48036C15.0193 8.60465 14.9699 8.72383 14.8819 8.81166C14.7939 8.89949 14.6747 8.94878 14.5504 8.94869ZM14.5504 7.03136C14.1661 7.03171 13.7977 7.18452 13.526 7.45625C13.2542 7.72797 13.1014 8.09641 13.1011 8.48069C13.1011 8.63602 13.1271 8.79069 13.1777 8.94136L8.39041 11.49C8.25767 11.2973 8.08004 11.1397 7.87285 11.0309C7.66566 10.9221 7.43511 10.8653 7.20108 10.8654C6.64841 10.8654 6.14508 11.182 5.90108 11.676L1.60041 9.40802C1.14574 9.16936 0.805744 8.42136 0.841744 7.74002C0.86041 7.38469 0.983077 7.10869 1.17041 7.00202C1.28908 6.93536 1.43174 6.94069 1.58374 7.02002L1.61174 7.03536C2.75174 7.63536 6.48108 9.60002 6.63841 9.67269C6.88041 9.78536 7.01508 9.83069 7.42841 9.63469L15.1377 5.62536C15.2511 5.58269 15.3831 5.47402 15.3831 5.30936C15.3831 5.08136 15.1471 4.99136 15.1464 4.99136C14.7077 4.78136 14.0337 4.46602 13.3764 4.15802C11.9711 3.50002 10.3784 2.75469 9.67908 2.38802C9.07508 2.07202 8.58908 2.33869 8.50241 2.39202L8.33441 2.47536C5.18641 4.03202 0.973077 6.11869 0.733077 6.26469C0.30441 6.52602 0.0384103 7.04669 0.0037436 7.69269C-0.0495897 8.71736 0.47241 9.78602 1.21974 10.1774L5.76774 12.5227C5.81784 12.8672 5.99022 13.1822 6.25339 13.4101C6.51656 13.638 6.85294 13.7636 7.20108 13.764C7.5813 13.7634 7.94608 13.6136 8.21699 13.3468C8.48789 13.08 8.64328 12.7175 8.64974 12.3374L13.6591 9.62202C13.9124 9.82069 14.2277 9.92936 14.5504 9.92936C14.9347 9.929 15.3031 9.77619 15.5749 9.50447C15.8466 9.23274 15.9994 8.8643 15.9997 8.48002C15.9994 8.09574 15.8466 7.72731 15.5749 7.45558C15.3031 7.18385 14.9347 7.03104 14.5504 7.03069" fill="white"/>
</svg>
