<svg width="16" height="16" viewBox="0 0 16 16" fill="none" xmlns="http://www.w3.org/2000/svg">
<path d="M9.82457 0L13.8246 4L11.8246 4.36364L9.82457 4L9.46094 2L9.82457 0Z" fill="#188038"/>
<path d="M9.82386 4V0H3.27841C2.67568 0 2.1875 0.488182 2.1875 1.09091V14.9091C2.1875 15.5118 2.67568 16 3.27841 16H12.733C13.3357 16 13.8239 15.5118 13.8239 14.9091V4H9.82386Z" fill="#34A853"/>
<path d="M4.36914 6.18176V11.4545H11.6419V6.18176H4.36914ZM7.55096 10.5454H5.27823V9.27267H7.55096V10.5454ZM7.55096 8.36358H5.27823V7.09085H7.55096V8.36358ZM10.7328 10.5454H8.46005V9.27267H10.7328V10.5454ZM10.7328 8.36358H8.46005V7.09085H10.7328V8.36358Z" fill="white"/>
</svg>
