<svg width="16" height="16" viewBox="0 0 16 16" fill="none" xmlns="http://www.w3.org/2000/svg">
<path d="M14.5454 1.71399H7.66602C7.66602 2.53761 7.9932 3.32751 8.57559 3.9099C9.15798 4.49229 9.94787 4.81947 10.7715 4.81947H12.0388V6.04304C12.0399 7.75659 13.4287 9.14544 15.1422 9.14656V2.31078C15.1422 1.98127 14.8751 1.71399 14.5454 1.71399Z" fill="#2684FF"/>
<path d="M11.143 5.14172H4.26367C4.26473 6.85527 5.65353 8.24413 7.36714 8.24525H8.63441V9.47273C8.63659 11.1863 10.0263 12.5742 11.7399 12.5742V5.73863C11.7399 5.40901 11.4727 5.14172 11.143 5.14172Z" fill="url(#paint0_linear_203_2360)"/>
<path d="M7.73685 8.5675H0.857422C0.857422 10.2826 2.24784 11.673 3.9629 11.673H5.23415V12.8965C5.23526 14.6085 6.62166 15.9967 8.33369 16V9.16435C8.33369 8.83473 8.06646 8.5675 7.73685 8.5675Z" fill="url(#paint1_linear_203_2360)"/>
<defs>
<linearGradient id="paint0_linear_203_2360" x1="1875.54" y1="8.56359" x2="1133.39" y2="875.874" gradientUnits="userSpaceOnUse">
<stop offset="0.18" stop-color="#0052CC"/>
<stop offset="1" stop-color="#2684FF"/>
</linearGradient>
<linearGradient id="paint1_linear_203_2360" x1="1922.42" y1="18.2379" x2="1063.95" y2="964.202" gradientUnits="userSpaceOnUse">
<stop offset="0.18" stop-color="#0052CC"/>
<stop offset="1" stop-color="#2684FF"/>
</linearGradient>
</defs>
</svg>
