<svg width="16" height="16" viewBox="0 0 16 16" fill="none" xmlns="http://www.w3.org/2000/svg">
<path d="M4.06587 3.94501C1.82393 3.94501 0 5.76414 0 8.00001C0 10.2359 1.824 12.055 4.06587 12.055H11.9341C14.1761 12.055 16 10.2359 16 8.00001C16 5.76414 14.176 3.94501 11.9341 3.94501H4.06587ZM3.98493 5.23401C4.3136 5.24227 4.66493 5.40041 4.8336 5.64921C5.07847 5.95534 5.15213 6.36041 5.42987 6.64467C5.80347 7.05254 6.2292 7.41167 6.57393 7.84601C6.90007 8.24294 7.133 8.70847 7.33633 9.17767C7.41927 9.33334 7.42013 9.52447 7.543 9.65747C7.60353 9.73774 7.8994 9.95634 7.8352 10.0338C7.8722 10.1141 8.14867 10.2245 8.05273 10.3023C7.92313 10.3289 7.77747 10.334 7.67833 10.2307C7.64173 10.3147 7.55633 10.2704 7.4904 10.2595C7.48469 10.2758 7.47913 10.2921 7.47373 10.3085C7.25453 10.3231 7.09013 10.1001 6.98573 9.93187C6.77833 9.81987 6.54293 9.75174 6.33107 9.63454C6.31893 9.82754 6.3612 10.0669 6.17707 10.1914C6.16773 10.5624 6.73947 10.2351 6.79187 10.5117C6.7512 10.5161 6.70613 10.5053 6.6736 10.5365C6.52433 10.6813 6.35327 10.4269 6.18127 10.5319C5.95033 10.6479 5.9274 10.7426 5.64153 10.7665C5.62573 10.7426 5.632 10.7271 5.64547 10.7125C5.72593 10.6192 5.7318 10.5094 5.8692 10.4696C5.72773 10.4473 5.60927 10.5251 5.49013 10.5867C5.33527 10.6501 5.33653 10.444 5.09827 10.5977C5.07187 10.5762 5.0844 10.5567 5.09947 10.5401C5.16 10.4663 5.2396 10.4554 5.32947 10.4595C4.88747 10.2138 4.6794 10.76 4.47527 10.4883C4.41393 10.5045 4.39093 10.5595 4.35227 10.5985C4.31893 10.5619 4.34407 10.5177 4.34567 10.4747C4.3058 10.456 4.25527 10.4473 4.26707 10.3836C4.189 10.3573 4.13453 10.4033 4.0764 10.4471C4.02393 10.4065 4.11187 10.3476 4.12813 10.3054C4.17493 10.2243 4.28147 10.2887 4.33553 10.2303C4.48927 10.1431 4.70353 10.2846 4.8792 10.2607C5.01453 10.2777 5.18213 10.139 5.11427 10.0007C4.96953 9.81621 4.99493 9.57494 4.99167 9.35434C4.9738 9.22574 4.66433 9.06221 4.57487 8.92354C4.46427 8.79867 4.3782 8.65374 4.292 8.51141C3.98093 7.91087 4.0788 7.13914 3.68687 6.58161C3.50953 6.67934 3.27853 6.63321 3.12567 6.50227C3.04313 6.57727 3.03953 6.67547 3.033 6.77967C2.835 6.58221 2.86013 6.20907 3.01833 5.98934C3.08293 5.90254 3.16013 5.83114 3.24633 5.76827C3.2658 5.75407 3.2724 5.74034 3.272 5.71847C3.35027 5.36734 3.65627 5.22574 3.98493 5.23401ZM12.2563 5.54067C12.628 5.54067 12.9767 5.68461 13.239 5.94614C13.5013 6.20767 13.6457 6.55581 13.6457 6.92641C13.6457 7.29707 13.5012 7.64507 13.239 7.90627L12.6377 8.50634C12.4776 8.66617 12.2808 8.78441 12.0645 8.85074L12.0536 8.85387L12.0497 8.86481C11.9805 9.04797 11.8728 9.21412 11.7337 9.35201L11.1325 9.95167C10.8703 10.2133 10.5212 10.3572 10.1495 10.3572C9.77787 10.3572 9.42913 10.2132 9.16687 9.95167C8.62487 9.41121 8.62487 8.53207 9.16687 7.99154L9.76813 7.39187C9.92767 7.23224 10.1241 7.11446 10.3401 7.04901L10.3515 7.04547L10.3553 7.03494C10.4249 6.8512 10.5329 6.68444 10.6721 6.54581L11.2733 5.94614C11.5356 5.68454 11.8847 5.54067 12.2563 5.54067ZM12.2563 6.13834C12.1525 6.138 12.0496 6.15823 11.9537 6.19784C11.8577 6.23745 11.7705 6.29567 11.6971 6.36914L11.0959 6.96881C11.0156 7.04907 10.9536 7.14574 10.9142 7.25221C10.8748 7.35867 10.8588 7.4724 10.8675 7.58561L10.871 7.62374C10.8925 7.80054 10.9703 7.96001 11.0959 8.08487C11.1826 8.17127 11.2781 8.22581 11.394 8.26394C11.4002 8.29875 11.4033 8.33405 11.4033 8.36941C11.4036 8.44749 11.3884 8.52485 11.3585 8.597C11.3287 8.66914 11.2848 8.73464 11.2294 8.78967L11.1925 8.82661C10.9916 8.75807 10.8241 8.65794 10.6729 8.50714C10.4729 8.30859 10.3388 8.05331 10.2888 7.77594L10.2822 7.73741L10.2515 7.76194C10.2311 7.77853 10.2116 7.7962 10.1931 7.81487L9.59147 8.41454C9.28327 8.72187 9.28327 9.22254 9.59147 9.52987C9.74553 9.68354 9.94813 9.76054 10.1511 9.76061C10.3539 9.76061 10.5562 9.68354 10.7103 9.52981L11.3115 8.93014C11.6197 8.62281 11.6197 8.12261 11.3115 7.81481C11.2293 7.73281 11.1299 7.6702 11.0204 7.63154C11.0144 7.59605 11.0113 7.56013 11.0111 7.52414C11.0111 7.35141 11.0793 7.18747 11.2045 7.06261C11.4057 7.13114 11.5845 7.24221 11.7353 7.39261C11.9357 7.59254 12.0682 7.84527 12.119 8.12381L12.126 8.16234L12.1563 8.13747C12.177 8.12091 12.1967 8.10324 12.2155 8.08454L12.8168 7.48481C13.1249 7.17747 13.1253 6.67654 12.8168 6.36914C12.7434 6.29561 12.6561 6.23736 12.5601 6.19775C12.464 6.15813 12.361 6.13794 12.2571 6.13834H12.2563ZM5.60767 9.57614C5.5548 9.78134 5.5374 10.1311 5.26993 10.1412C5.24793 10.2596 5.3518 10.3042 5.44693 10.2661C5.54093 10.2231 5.58567 10.3 5.6174 10.3766C5.76253 10.3977 5.977 10.3283 5.98513 10.1567C5.76847 10.0323 5.7016 9.79554 5.60767 9.57614Z" fill="black"/>
</svg>
