<svg width="16" height="16" viewBox="0 0 16 16" fill="none" xmlns="http://www.w3.org/2000/svg">
<g clip-path="url(#clip0_203_2441)">
<path d="M7.875 0.125C5.79751 0.15798 3.81723 1.01065 2.36564 2.49723C0.914038 3.98381 0.108758 5.98382 0.125248 8.06151C0.141739 10.1392 0.978664 12.1262 2.45368 13.5895C3.92869 15.0529 5.92225 15.874 8 15.874C10.0778 15.874 12.0713 15.0529 13.5463 13.5895C15.0213 12.1262 15.8583 10.1392 15.8748 8.06151C15.8912 5.98382 15.086 3.98381 13.6344 2.49723C12.1828 1.01065 10.2025 0.15798 8.125 0.125H7.875ZM7.875 1.875C6.26171 1.90793 4.72659 2.57616 3.60319 3.7345C2.47978 4.89283 1.85885 6.44769 1.87532 8.06123C1.89179 9.67477 2.54431 11.2166 3.69113 12.3518C4.83794 13.487 6.38638 14.1237 8 14.1237C9.61362 14.1237 11.1621 13.487 12.3089 12.3518C13.4557 11.2166 14.1082 9.67477 14.1247 8.06123C14.1411 6.44769 13.5202 4.89283 12.3968 3.7345C11.2734 2.57616 9.73829 1.90793 8.125 1.875H7.875ZM7.875 3.625C6.72597 3.65784 5.63603 4.14158 4.84082 4.97163C4.04561 5.80168 3.60902 6.91134 3.62545 8.06072C3.64187 9.2101 4.10998 10.3068 4.92859 11.1138C5.74719 11.9208 6.8505 12.3732 8 12.3732C9.1495 12.3732 10.2528 11.9208 11.0714 11.1138C11.89 10.3068 12.3581 9.2101 12.3746 8.06072C12.391 6.91134 11.9544 5.80168 11.1592 4.97163C10.364 4.14158 9.27403 3.65784 8.125 3.625H7.875ZM7.875 5.375C7.19041 5.40764 6.54573 5.70672 6.07873 6.20835C5.61172 6.70998 5.35942 7.37437 5.37574 8.05954C5.39207 8.74471 5.67572 9.39633 6.16608 9.87515C6.65645 10.354 7.31463 10.622 8 10.622C8.68537 10.622 9.34355 10.354 9.83392 9.87515C10.3243 9.39633 10.6079 8.74471 10.6243 8.05954C10.6406 7.37437 10.3883 6.70998 9.92127 6.20835C9.45427 5.70672 8.80959 5.40764 8.125 5.375H7.875ZM7.875 7.125C7.65605 7.1566 7.4572 7.26996 7.31846 7.44227C7.17973 7.61458 7.1114 7.83304 7.12725 8.05369C7.14309 8.27434 7.24192 8.4808 7.40385 8.63151C7.56578 8.78223 7.77878 8.86602 8 8.86602C8.22122 8.86602 8.43422 8.78223 8.59615 8.63151C8.75808 8.4808 8.85691 8.27434 8.87275 8.05369C8.8886 7.83304 8.82027 7.61458 8.68154 7.44227C8.5428 7.26996 8.34395 7.1566 8.125 7.125H7.875ZM15.875 8H0.125ZM13.625 2.375L2.375 13.625ZM13.625 13.625L2.375 2.375ZM8 0.125V15.875Z" fill="white" fill-opacity="0.8"/>
<path d="M15.875 8H0.125M13.625 2.375L2.375 13.625M13.625 13.625L2.375 2.375M8 0.125V15.875M7.875 0.125C5.79751 0.15798 3.81723 1.01065 2.36564 2.49723C0.914038 3.98381 0.108758 5.98382 0.125248 8.06151C0.141739 10.1392 0.978664 12.1262 2.45368 13.5895C3.92869 15.0529 5.92225 15.874 8 15.874C10.0778 15.874 12.0713 15.0529 13.5463 13.5895C15.0213 12.1262 15.8583 10.1392 15.8748 8.06151C15.8912 5.98382 15.086 3.98381 13.6344 2.49723C12.1828 1.01065 10.2025 0.15798 8.125 0.125H7.875ZM7.875 1.875C6.26171 1.90793 4.72659 2.57616 3.60319 3.7345C2.47978 4.89283 1.85885 6.44769 1.87532 8.06123C1.89179 9.67477 2.54431 11.2166 3.69113 12.3518C4.83794 13.487 6.38638 14.1237 8 14.1237C9.61362 14.1237 11.1621 13.487 12.3089 12.3518C13.4557 11.2166 14.1082 9.67477 14.1247 8.06123C14.1411 6.44769 13.5202 4.89283 12.3968 3.7345C11.2734 2.57616 9.73829 1.90793 8.125 1.875H7.875ZM7.875 3.625C6.72597 3.65784 5.63603 4.14158 4.84082 4.97163C4.04561 5.80168 3.60902 6.91134 3.62545 8.06072C3.64187 9.2101 4.10998 10.3068 4.92859 11.1138C5.74719 11.9208 6.8505 12.3732 8 12.3732C9.1495 12.3732 10.2528 11.9208 11.0714 11.1138C11.89 10.3068 12.3581 9.2101 12.3746 8.06072C12.391 6.91134 11.9544 5.80168 11.1592 4.97163C10.364 4.14158 9.27403 3.65784 8.125 3.625H7.875ZM7.875 5.375C7.19041 5.40764 6.54573 5.70672 6.07873 6.20835C5.61172 6.70998 5.35942 7.37437 5.37574 8.05954C5.39207 8.74471 5.67572 9.39633 6.16608 9.87515C6.65645 10.354 7.31463 10.622 8 10.622C8.68537 10.622 9.34355 10.354 9.83392 9.87515C10.3243 9.39633 10.6079 8.74471 10.6243 8.05954C10.6406 7.37437 10.3883 6.70998 9.92127 6.20835C9.45427 5.70672 8.80959 5.40764 8.125 5.375H7.875ZM7.875 7.125C7.65605 7.1566 7.4572 7.26996 7.31846 7.44227C7.17973 7.61458 7.1114 7.83304 7.12725 8.05369C7.14309 8.27434 7.24192 8.4808 7.40385 8.63151C7.56578 8.78223 7.77878 8.86602 8 8.86602C8.22122 8.86602 8.43422 8.78223 8.59615 8.63151C8.75808 8.4808 8.85691 8.27434 8.87275 8.05369C8.8886 7.83304 8.82027 7.61458 8.68154 7.44227C8.5428 7.26996 8.34395 7.1566 8.125 7.125H7.875Z" stroke="#777777" stroke-width="0.0625"/>
<path d="M6.25 1L3.75 2.25L12.25 13.75L13.5 12.5L8 8L6.25 1Z" fill="#FF6600" fill-opacity="0.8" stroke="#777777" stroke-width="0.0625"/>
<path d="M2.125 6.25V9.75L8 8L2.125 6.25Z" fill="#FFCC00" fill-opacity="0.8" stroke="#777777" stroke-width="0.0625"/>
<path d="M8 8L8.75 12.375H7.25L8 8Z" fill="#77FF77" fill-opacity="0.8" stroke="#777777" stroke-width="0.0625"/>
<path d="M8 8L9.625 3L10.75 3.625L8 8Z" fill="#CCFF33" fill-opacity="0.8" stroke="#777777" stroke-width="0.0625"/>
<path d="M8 8L9.75 7.25L9.875 7.75L8 8ZM8 8L4.75 9.625L5.125 10.125L8 8Z" fill="#0044FF" fill-opacity="0.8"/>
<path d="M8 8L9.75 7.25L9.875 7.75L8 8ZM8 8L4.75 9.625L5.125 10.125L8 8Z" stroke="#777777" stroke-width="0.0625"/>
</g>
<defs>
<clipPath id="clip0_203_2441">
<rect width="16" height="16" fill="white"/>
</clipPath>
</defs>
</svg>
