<svg width="16" height="16" viewBox="0 0 16 16" fill="none" xmlns="http://www.w3.org/2000/svg">
<g clip-path="url(#clip0_203_2448)">
<path d="M16 0H0V16H16V0Z" fill="#4093D4"/>
<path d="M11.0225 14.0529C12.4113 13.408 13.784 12.6203 14.8527 11.6483L1.26367 12.5235L1.79111 13.5324L4.78604 15.5915L11.0225 14.0529Z" fill="white" stroke="white" stroke-width="1.125" stroke-linecap="round" stroke-linejoin="round"/>
<path d="M6.67383 3.12634C8.98627 3.83343 12.22 7.24912 13.3209 10.9205C12.7175 10.6832 12.2661 10.4414 11.4185 10.6579C10.5985 7.67522 9.13137 4.82613 6.67383 3.12634Z" fill="white" stroke="white" stroke-width="1.125" stroke-linecap="round" stroke-linejoin="round"/>
<path d="M2.37364 1.49341C5.33559 2.76018 9.39848 6.28643 10.1447 10.9827C6.72904 9.60538 4.1287 10.3401 2.31836 11.4572C5.07993 7.94705 3.84079 3.95556 2.37364 1.49341Z" fill="white" stroke="white" stroke-width="1.125" stroke-linecap="round" stroke-linejoin="round"/>
<path d="M2.17282 13.5277C2.12243 13.5277 2.07385 13.5315 2.02684 13.5386C1.36872 13.6378 1.01917 14.385 0.361049 14.4842C0.31404 14.4913 0.265456 14.4951 0.215073 14.4951C0.16469 14.4951 0.116106 14.4913 0.0690969 14.4842C0.0453063 14.4806 0.0230134 14.4739 0 14.4687V15.9999H16V14.4859C15.96 14.491 15.9195 14.4951 15.877 14.4951C15.8266 14.4951 15.7781 14.4913 15.731 14.4842C15.684 14.4771 15.6386 14.4667 15.5945 14.4535C15.4182 14.4006 15.2634 14.3024 15.1159 14.189C14.747 13.9056 14.4231 13.5277 13.9193 13.5277C13.8714 13.5277 13.8253 13.5316 13.7805 13.5381C13.7663 13.5401 13.753 13.5437 13.7391 13.5463C13.709 13.552 13.679 13.5581 13.65 13.5663C13.6344 13.5708 13.6192 13.5763 13.6038 13.5815C13.5775 13.5904 13.5514 13.5996 13.526 13.6104C13.5111 13.6167 13.4963 13.6236 13.4817 13.6305C13.4561 13.6426 13.4309 13.6553 13.4062 13.6689C13.3934 13.676 13.3806 13.6831 13.368 13.6906C13.3404 13.7069 13.3133 13.724 13.2864 13.742C13.2778 13.7478 13.2691 13.7534 13.2605 13.7593C13.2415 13.7724 13.2229 13.7865 13.2042 13.8003C13.171 13.8248 13.1384 13.8504 13.106 13.8763C13.0347 13.9331 12.9639 13.9909 12.8935 14.0496C12.8715 14.0681 12.849 14.0858 12.8268 14.104C12.7407 14.1746 12.6534 14.2428 12.5615 14.3015C12.5566 14.3046 12.5517 14.3077 12.5467 14.3108C12.5174 14.3291 12.4875 14.3465 12.4571 14.3628C12.4501 14.3665 12.443 14.3699 12.4359 14.3735C12.4061 14.3888 12.3759 14.4033 12.3449 14.4161C12.3379 14.419 12.3306 14.4212 12.3235 14.424C12.2914 14.4365 12.2588 14.4483 12.2252 14.4577C12.1424 14.4809 12.0554 14.4951 11.9615 14.4951C11.1554 14.4951 10.8099 13.5277 10.0038 13.5277C9.19767 13.5277 8.85217 14.4951 8.04605 14.4951C7.99567 14.4951 7.94708 14.4913 7.90007 14.4842C7.85306 14.4771 7.80763 14.4667 7.76354 14.4535C7.5872 14.4006 7.43246 14.3024 7.2849 14.189C6.91603 13.9056 6.59213 13.5277 6.08831 13.5277C6.04039 13.5277 5.99434 13.5316 5.94948 13.5381C5.93536 13.5401 5.92199 13.5437 5.90814 13.5463C5.87798 13.552 5.84801 13.5581 5.81907 13.5663C5.80339 13.5708 5.78822 13.5763 5.77287 13.5815C5.74657 13.5904 5.72045 13.5996 5.69505 13.6104C5.68008 13.6167 5.66537 13.6236 5.65069 13.6305C5.62517 13.6426 5.59996 13.6553 5.57521 13.6689C5.56242 13.676 5.54966 13.6831 5.53706 13.6906C5.50947 13.7069 5.48228 13.724 5.45546 13.742C5.44682 13.7478 5.43811 13.7534 5.42955 13.7593C5.41051 13.7724 5.39192 13.7865 5.37318 13.8003C5.34002 13.8248 5.30744 13.8504 5.27498 13.8763C5.2037 13.9331 5.1329 13.9909 5.06256 14.0496C5.04049 14.0681 5.01805 14.0858 4.99585 14.104C4.90968 14.1746 4.8224 14.2428 4.73057 14.3015C4.72566 14.3046 4.7207 14.3077 4.71577 14.3108C4.68638 14.3291 4.65651 14.3465 4.62612 14.3628C4.61914 14.3665 4.61201 14.3699 4.60497 14.3735C4.57513 14.3888 4.54494 14.4033 4.51392 14.4161C4.50691 14.419 4.49959 14.4212 4.49251 14.424C4.46038 14.4365 4.42787 14.4483 4.39426 14.4577C4.31146 14.4809 4.22439 14.4951 4.13056 14.4951C3.82826 14.4951 3.59074 14.359 3.36942 14.189C3.00054 13.9056 2.67664 13.5277 2.17282 13.5277Z" fill="#172C50"/>
</g>
<defs>
<clipPath id="clip0_203_2448">
<rect width="16" height="16" fill="white"/>
</clipPath>
</defs>
</svg>
