<svg width="16" height="16" viewBox="0 0 16 16" fill="none" xmlns="http://www.w3.org/2000/svg">
<g clip-path="url(#clip0_218_6)">
<path fill-rule="evenodd" clip-rule="evenodd" d="M9.27282 0.528381C9.1634 0.528381 9.0618 0.551828 8.96801 0.583089C9.16731 0.715951 9.27672 0.891799 9.33143 1.09109C9.33535 1.11844 9.34315 1.13798 9.34707 1.16534C9.35099 1.18878 9.35488 1.21223 9.35488 1.23568C9.37052 1.57955 9.265 1.62254 9.19075 1.82574C9.07743 2.08756 9.10869 2.36891 9.24546 2.59556C9.25718 2.62291 9.27282 2.65417 9.29236 2.68153C9.14386 1.69288 9.96839 1.54438 10.1208 1.23568C10.1325 0.966044 9.90977 0.78629 9.73393 0.661243C9.56589 0.559643 9.41349 0.528381 9.27282 0.528381ZM10.5155 0.751121C10.4998 0.840998 10.5116 0.817551 10.5077 0.864444C10.5037 0.895705 10.5037 0.934783 10.4998 0.966044C10.492 0.997306 10.4842 1.02857 10.4725 1.05983C10.4647 1.09109 10.453 1.12235 10.4412 1.15361C10.4256 1.18488 10.4139 1.21223 10.3982 1.24349C10.3865 1.25913 10.3787 1.27475 10.367 1.29038C10.3592 1.30211 10.3513 1.31383 10.3435 1.32555C10.324 1.35291 10.3045 1.38026 10.2849 1.40371C10.2615 1.42715 10.2419 1.45451 10.2146 1.47405V1.47796C10.1911 1.4975 10.1677 1.52094 10.1403 1.54048C10.0583 1.603 9.96449 1.6499 9.87852 1.70851C9.85117 1.72805 9.82381 1.74368 9.80037 1.76713C9.77301 1.78667 9.74957 1.80621 9.72612 1.82965C9.69877 1.8531 9.67923 1.87654 9.65578 1.9039C9.63624 1.92735 9.6128 1.9547 9.59717 1.98205C9.57763 2.00941 9.55809 2.03676 9.54246 2.06411C9.52682 2.09538 9.5151 2.12273 9.49947 2.15399C9.48775 2.18525 9.47603 2.21261 9.46821 2.24387C9.45649 2.27904 9.44867 2.3103 9.44086 2.34156C9.43695 2.3572 9.43695 2.37673 9.43305 2.39236C9.42913 2.408 9.42913 2.42362 9.42524 2.43925C9.42524 2.47052 9.42133 2.50568 9.42133 2.53695C9.42133 2.56039 9.42133 2.58384 9.42524 2.60729C9.42524 2.63855 9.42915 2.66981 9.43696 2.70498C9.44088 2.73624 9.44868 2.7675 9.4565 2.79876C9.46823 2.83002 9.47604 2.86129 9.48776 2.89255C9.49557 2.91209 9.5073 2.93162 9.51512 2.94725L8.61635 2.59947C8.46394 2.55648 8.31545 2.51741 8.16305 2.48224C8.08099 2.4627 7.99893 2.44316 7.91687 2.42362C7.6824 2.37673 7.44404 2.34156 7.20567 2.31812C7.19786 2.31812 7.19394 2.3142 7.18613 2.3142C6.95166 2.29076 6.72111 2.27903 6.48665 2.27903C6.31471 2.27903 6.14277 2.28684 5.97474 2.29857C5.73637 2.31421 5.498 2.34546 5.25963 2.38454C5.20101 2.39235 5.1424 2.40408 5.08378 2.4158C4.96264 2.43925 4.84541 2.4666 4.73209 2.49396C4.67347 2.50959 4.61486 2.52522 4.55624 2.54085C4.49763 2.56429 4.44292 2.59165 4.38821 2.6151C4.34522 2.63463 4.30224 2.65417 4.25926 2.67371C4.25145 2.67763 4.24362 2.67763 4.23972 2.68152C4.20064 2.70106 4.16547 2.71669 4.1303 2.73623C4.11858 2.74014 4.11076 2.74404 4.10295 2.74795C4.05996 2.76749 4.01698 2.79094 3.98181 2.81047C3.95445 2.8222 3.9271 2.83783 3.90366 2.84955C3.89193 2.85736 3.8763 2.86519 3.86849 2.86909C3.83332 2.88863 3.79815 2.90817 3.76689 2.92771C3.73172 2.94724 3.70045 2.96678 3.6731 2.98632C3.64575 3.00586 3.61839 3.02149 3.59495 3.04103C3.59103 3.04494 3.58714 3.04494 3.58322 3.04884C3.55978 3.06448 3.53242 3.08401 3.50898 3.10355C3.50898 3.10355 3.50506 3.10746 3.50117 3.11136C3.48163 3.12699 3.46209 3.14262 3.44255 3.15825C3.43474 3.16216 3.42691 3.16997 3.4191 3.17388C3.39957 3.18952 3.38003 3.20905 3.36049 3.22469C3.35658 3.2325 3.34877 3.23641 3.34485 3.24032C3.32141 3.26377 3.29796 3.28331 3.27451 3.30675C3.2706 3.30675 3.2706 3.31067 3.26671 3.31456C3.24326 3.3341 3.21981 3.35755 3.19637 3.38099C3.19245 3.38491 3.19245 3.3888 3.18856 3.3888C3.16902 3.40834 3.14948 3.42788 3.12994 3.45133C3.12213 3.45914 3.1104 3.46696 3.10259 3.47477C3.08305 3.49822 3.0596 3.52166 3.03616 3.54511C3.03224 3.55292 3.02443 3.55683 3.02052 3.56465C2.98926 3.59591 2.9619 3.62717 2.93064 3.65844C2.92673 3.66235 2.92283 3.66624 2.91892 3.67016C2.8564 3.73659 2.78996 3.80302 2.71963 3.86164C2.64929 3.92416 2.57504 3.98277 2.50079 4.03357C2.42264 4.08828 2.34839 4.13517 2.26633 4.18207C2.18818 4.22505 2.10612 4.26413 2.02015 4.2993C1.93809 4.33447 1.85212 4.36573 1.76615 4.39308C1.60202 4.42825 1.43399 4.49468 1.28941 4.50641C1.25815 4.50641 1.22298 4.51422 1.19171 4.51813C1.15654 4.52594 1.12528 4.53377 1.09402 4.54158C1.06276 4.5533 1.0315 4.56502 1.00024 4.57674C0.968975 4.58847 0.937714 4.6041 0.906453 4.61973C0.879098 4.63927 0.847837 4.6549 0.820482 4.67444C0.793129 4.69397 0.765774 4.71742 0.742328 4.74087C0.714975 4.76041 0.68762 4.78776 0.664174 4.81121C0.640728 4.83856 0.617281 4.86201 0.597743 4.88936C0.578205 4.92062 0.554759 4.94798 0.539127 4.97924C0.519589 5.00659 0.500051 5.03785 0.484419 5.06911C0.468782 5.10429 0.453158 5.13555 0.441435 5.17072C0.429712 5.20198 0.417989 5.23715 0.406265 5.27232C0.398456 5.30358 0.390628 5.33484 0.386727 5.3661C0.386727 5.37002 0.382814 5.37391 0.382814 5.37782C0.375004 5.41299 0.375004 5.45989 0.37109 5.48333C0.367177 5.51069 0.363281 5.53413 0.363281 5.56149C0.363281 5.57712 0.363281 5.59666 0.367195 5.61229C0.371109 5.63964 0.375004 5.66309 0.382832 5.68654C0.390641 5.70998 0.398469 5.73342 0.410185 5.75687V5.76079C0.421908 5.78423 0.43754 5.80768 0.453169 5.83112C0.468806 5.85457 0.484432 5.87802 0.50397 5.90146C0.523509 5.921 0.546955 5.94445 0.570401 5.96399C0.593848 5.98743 0.617294 6.00697 0.644647 6.02651C0.738433 6.10857 0.761879 6.13593 0.883018 6.19845C0.902555 6.21017 0.922096 6.21799 0.945542 6.22971C0.949456 6.22971 0.953351 6.23362 0.957265 6.23362C0.957265 6.24143 0.957265 6.24535 0.961179 6.25316C0.965093 6.28443 0.972902 6.31569 0.980717 6.34695C0.988527 6.38212 1.00026 6.41338 1.01198 6.44073C1.0237 6.46418 1.03152 6.48762 1.04324 6.51107C1.04716 6.51888 1.05105 6.52671 1.05497 6.53061C1.0706 6.56187 1.08623 6.58923 1.10186 6.61658C1.1214 6.64393 1.14093 6.67129 1.16047 6.69864C1.18001 6.72209 1.20346 6.74944 1.2269 6.77289C1.25035 6.79633 1.2738 6.81587 1.30115 6.83932C1.30115 6.83932 1.30506 6.84324 1.30896 6.84324C1.33241 6.86278 1.35585 6.88231 1.3793 6.89794C1.40665 6.91748 1.43401 6.93311 1.46527 6.94874C1.49262 6.96438 1.52388 6.98001 1.55514 6.99173C1.57859 7.00345 1.60594 7.01127 1.6333 7.01908C1.63721 7.023 1.64111 7.023 1.64894 7.02689C1.66457 7.03081 1.6841 7.0347 1.69974 7.03862C1.68801 7.24963 1.6841 7.44892 1.71537 7.51926C1.75054 7.59742 1.92248 7.35905 2.09442 7.08551C2.07097 7.35514 2.05534 7.67166 2.09442 7.76545C2.1374 7.86314 2.37187 7.55834 2.57507 7.22228C5.34563 6.58142 7.87391 8.49619 8.13964 11.2003C8.08884 10.7783 7.56911 10.5438 7.33074 10.6024C7.21351 10.8916 7.01422 11.2628 6.69379 11.4934C6.72114 11.2355 6.70942 10.9698 6.65471 10.7119C6.56874 11.0714 6.40071 11.4074 6.17015 11.6966C5.79892 11.724 5.42769 11.5442 5.2323 11.2746C5.21667 11.2628 5.21277 11.2394 5.20104 11.2238C5.18932 11.1964 5.1776 11.1691 5.16978 11.1417C5.15806 11.1144 5.15024 11.087 5.14633 11.0596C5.14242 11.0323 5.14242 11.0049 5.14242 10.9737C5.14242 10.9541 5.14242 10.9346 5.14242 10.9151C5.14633 10.8877 5.15414 10.8603 5.16196 10.833C5.16977 10.8056 5.1776 10.7783 5.18931 10.7509C5.20495 10.7236 5.21667 10.6962 5.23621 10.6689C5.30264 10.4813 5.30264 10.3289 5.1815 10.239C5.15805 10.2234 5.13461 10.2117 5.10725 10.1999C5.09161 10.196 5.07208 10.1882 5.05645 10.1843C5.04473 10.1804 5.03691 10.1765 5.02519 10.1726C4.99784 10.1648 4.97048 10.1569 4.94313 10.153C4.91577 10.1452 4.88842 10.1413 4.86107 10.1413C4.83371 10.1374 4.80245 10.1335 4.7751 10.1335C4.75556 10.1335 4.73602 10.1374 4.71648 10.1374C4.68522 10.1374 4.65786 10.1413 4.63051 10.1492C4.60316 10.1531 4.5758 10.157 4.54845 10.1648C4.5211 10.1726 4.49374 10.1804 4.46639 10.1921C4.43903 10.2039 4.41559 10.2156 4.38823 10.2273C4.36479 10.239 4.34134 10.2547 4.31399 10.2664C3.40349 10.8604 3.94666 12.2515 4.56799 12.654C4.33353 12.697 4.09516 12.7478 4.02873 12.7986C4.02481 12.8025 4.02092 12.8064 4.02092 12.8064C4.18895 12.908 4.36479 12.994 4.54845 13.0682C4.79855 13.1503 5.06427 13.2245 5.1815 13.2558V13.2597C5.50584 13.3261 5.83409 13.3496 6.16625 13.33C7.89736 13.2089 9.31586 11.892 9.57376 10.157C9.58157 10.1921 9.5894 10.2234 9.59721 10.2586C9.60893 10.3289 9.62456 10.4032 9.63238 10.4774V10.4813C9.64019 10.5165 9.6441 10.5517 9.64801 10.5829V10.5986C9.65193 10.6337 9.65582 10.6689 9.65582 10.7002C9.65974 10.7431 9.66363 10.7861 9.66363 10.8291V10.8916C9.66363 10.9112 9.66755 10.9346 9.66755 10.9542C9.66755 10.9776 9.66363 11.0011 9.66363 11.0245V11.0792C9.66363 11.1066 9.65972 11.13 9.65972 11.1574C9.65972 11.173 9.65972 11.1886 9.6558 11.2082C9.6558 11.2355 9.65189 11.2629 9.65189 11.2941C9.64797 11.3059 9.64797 11.3176 9.64797 11.3293C9.64406 11.3606 9.64016 11.3879 9.63625 11.4192C9.63625 11.4309 9.63625 11.4426 9.63234 11.4543C9.62842 11.4934 9.62061 11.5286 9.6167 11.5677V11.5716V11.5755C9.60889 11.6107 9.60106 11.6497 9.59325 11.6849V11.6966C9.58544 11.7318 9.57762 11.767 9.56981 11.8021C9.56981 11.8061 9.56589 11.8139 9.56589 11.8178C9.55808 11.853 9.55026 11.8881 9.53854 11.9233V11.935C9.52682 11.9741 9.5151 12.0093 9.50728 12.0444C9.50337 12.0483 9.50337 12.0522 9.50337 12.0522C9.49164 12.0913 9.47992 12.1304 9.4682 12.1695C9.45256 12.2085 9.44084 12.2437 9.42521 12.2828C9.40958 12.3219 9.39786 12.3609 9.38223 12.3961C9.36659 12.4352 9.35097 12.4704 9.33534 12.5094H9.33142C9.31578 12.5446 9.30015 12.5837 9.28061 12.6189C9.2767 12.6306 9.27281 12.6384 9.26889 12.6462C9.26498 12.6501 9.26498 12.654 9.26108 12.6579C9.00708 13.1698 8.63194 13.6192 8.16302 13.9709C8.13176 13.9905 8.1005 14.0139 8.06924 14.0374C8.06143 14.0452 8.0497 14.0491 8.04188 14.0569C8.01453 14.0764 7.98717 14.096 7.95591 14.1155L7.96763 14.139H7.97155C8.02625 14.1311 8.08096 14.1233 8.13567 14.1155H8.13958C8.24118 14.0999 8.34278 14.0803 8.44439 14.0608C8.47174 14.0569 8.503 14.0491 8.53035 14.0413C8.54989 14.0373 8.56552 14.0335 8.58506 14.0295C8.61242 14.0256 8.63977 14.0178 8.66713 14.0139C8.69057 14.0061 8.71402 14.0022 8.73746 13.9944C9.12823 13.9006 9.50728 13.7716 9.8707 13.6192C9.24937 14.4672 8.41703 15.151 7.44401 15.6004C7.8934 15.5692 8.34278 15.4949 8.77654 15.3699C10.3513 14.9049 11.6761 13.8459 12.4693 12.4196C12.3091 13.3222 11.9496 14.1819 11.4181 14.9322C11.7972 14.6821 12.145 14.3929 12.4615 14.0647C13.3368 13.1503 13.9113 11.9897 14.1066 10.7432C14.2395 11.3606 14.2786 11.9975 14.22 12.6267C17.0413 8.69161 14.4544 4.61197 13.372 3.53735C13.3681 3.52954 13.3642 3.52562 13.3642 3.51781C13.3603 3.52172 13.3603 3.52172 13.3603 3.52562C13.3603 3.52171 13.3603 3.52171 13.3564 3.51781C13.3564 3.5647 13.3524 3.61159 13.3485 3.65849C13.3368 3.74836 13.3251 3.83433 13.3095 3.9203C13.2899 4.00627 13.2665 4.09224 13.243 4.17821C13.2157 4.26027 13.1844 4.34624 13.1493 4.4283C13.1141 4.50646 13.075 4.58852 13.032 4.66667C12.989 4.74092 12.9421 4.81907 12.8913 4.88941C12.8405 4.96366 12.7858 5.034 12.7311 5.10043C12.6725 5.17077 12.61 5.23329 12.5475 5.29581C12.5084 5.33098 12.4732 5.36224 12.4341 5.3935C12.4029 5.42086 12.3755 5.44431 12.3443 5.47166C12.2739 5.52637 12.2036 5.57717 12.1254 5.62406C12.0512 5.67095 11.973 5.71784 11.8949 5.75692C11.8128 5.796 11.7308 5.83117 11.6487 5.86634C11.5666 5.8976 11.4807 5.92495 11.3947 5.9484C11.3087 5.97184 11.2189 5.99138 11.1329 6.00701C11.043 6.02265 10.9531 6.03046 10.8672 6.03828C10.8046 6.04219 10.7421 6.04609 10.6796 6.04609C10.5897 6.04609 10.4998 6.03828 10.4139 6.03045C10.324 6.02264 10.2341 6.01091 10.1481 5.99137C10.0583 5.97573 9.97229 5.95229 9.88632 5.92494H9.88241C9.96838 5.91713 10.0543 5.9093 10.1403 5.89368C10.2302 5.87804 10.3162 5.85851 10.4021 5.83506C10.4881 5.81162 10.5741 5.78426 10.6561 5.753C10.7421 5.72174 10.8242 5.68266 10.9023 5.64358C10.9844 5.60451 11.0586 5.56152 11.1368 5.51463C11.211 5.46383 11.2853 5.41303 11.3556 5.35832C11.426 5.30362 11.4924 5.245 11.5549 5.18248C11.6213 5.12386 11.68 5.05743 11.7386 4.991C11.7972 4.92066 11.8519 4.85032 11.9027 4.77998C11.9105 4.76826 11.9183 4.75263 11.9261 4.74091C11.9652 4.67838 12.0043 4.61586 12.0395 4.55334C12.0824 4.47518 12.1215 4.39703 12.1567 4.31497C12.1919 4.23291 12.2231 4.15084 12.2505 4.06487C12.2778 3.98281 12.2974 3.89684 12.3169 3.81087C12.3325 3.721 12.3482 3.63503 12.356 3.54906C12.3638 3.45918 12.3716 3.3693 12.3716 3.28333C12.3716 3.22081 12.3677 3.15829 12.3638 3.09576C12.356 3.00589 12.3443 2.91992 12.3326 2.83395C12.3169 2.74407 12.2974 2.6581 12.2739 2.57213C12.2466 2.49007 12.2192 2.4041 12.188 2.32204C12.1567 2.23998 12.1176 2.15792 12.0786 2.07976C12.0356 2.00161 11.9926 1.92345 11.9457 1.84921C11.8949 1.77496 11.8441 1.70462 11.7894 1.63428C11.7308 1.56785 11.6722 1.50142 11.6096 1.43499C11.5784 1.40373 11.5432 1.36856 11.508 1.3373C11.3322 1.20053 11.1485 1.07157 10.9649 0.954343C10.9375 0.938706 10.9141 0.926989 10.8867 0.915265C10.7577 0.833204 10.6366 0.790196 10.5155 0.751121Z" fill="#E0234E"/>
</g>
<defs>
<clipPath id="clip0_218_6">
<rect width="16" height="16" fill="white"/>
</clipPath>
</defs>
</svg>
