<svg width="16" height="16" viewBox="0 0 16 16" fill="currentColor" xmlns="http://www.w3.org/2000/svg">
<g clip-path="url(#clip0_203_2460)">
<path d="M7.47583 0.0124804C7.44146 0.0156051 7.3321 0.0265415 7.23367 0.0343532C4.96358 0.239021 2.83722 1.4639 1.49048 3.34653C0.740553 4.3933 0.260913 5.58069 0.0796805 6.83838C0.0156242 7.2774 0.0078125 7.40707 0.0078125 8.00233C0.0078125 8.59758 0.0156242 8.72726 0.0796805 9.16627C0.514013 12.1675 2.64974 14.6892 5.54633 15.6235C6.06503 15.7906 6.61185 15.9047 7.23367 15.9734C7.47583 16 8.52261 16 8.76477 15.9734C9.8381 15.8547 10.7474 15.5891 11.6442 15.1313C11.7817 15.061 11.8082 15.0423 11.7895 15.0266C11.777 15.0173 11.1911 14.2314 10.488 13.2815L9.21004 11.5551L7.60863 9.18502C6.72747 7.88203 6.00254 6.8165 5.99629 6.8165C5.99004 6.81494 5.98379 7.86796 5.98067 9.15378C5.97598 11.4051 5.97442 11.4957 5.94629 11.5489C5.90567 11.6254 5.87443 11.6567 5.80881 11.691C5.75881 11.716 5.71507 11.7207 5.47915 11.7207H5.20887L5.137 11.6754C5.09013 11.6457 5.05576 11.6067 5.03232 11.5614L4.99951 11.491L5.00264 8.35854L5.00732 5.22447L5.05576 5.16354C5.08075 5.13073 5.13387 5.08855 5.17137 5.06824C5.23543 5.03699 5.26042 5.03387 5.53071 5.03387C5.84943 5.03387 5.90255 5.04636 5.98535 5.13698C6.00879 5.16198 6.87589 6.4681 7.91329 8.04138C8.95069 9.61467 10.3693 11.7629 11.0661 12.8175L12.3316 14.7345L12.3957 14.6923C12.9628 14.3236 13.5627 13.7986 14.0377 13.2518C15.0485 12.091 15.7 10.6755 15.9188 9.16627C15.9828 8.72726 15.9906 8.59758 15.9906 8.00233C15.9906 7.40707 15.9828 7.2774 15.9188 6.83838C15.4844 3.83711 13.3487 1.31548 10.4521 0.381194C9.94122 0.215586 9.39752 0.101534 8.7882 0.0327909C8.63822 0.0171674 7.60551 -1.84044e-05 7.47583 0.0124804ZM10.7474 4.84638C10.8224 4.88388 10.8833 4.95575 10.9052 5.03074C10.9177 5.07136 10.9208 5.94003 10.9177 7.89765L10.913 10.7067L10.4177 9.94745L9.92091 9.18815V7.14616C9.92091 5.82598 9.92716 5.08386 9.93653 5.04793C9.96153 4.96043 10.0162 4.89169 10.0912 4.85107C10.1553 4.81826 10.1787 4.81514 10.424 4.81514C10.6552 4.81514 10.6958 4.81826 10.7474 4.84638Z" fill="black"/>
<path d="M12.2539 14.7689C12.1992 14.8033 12.182 14.8267 12.2305 14.8001C12.2648 14.7798 12.3211 14.7376 12.3117 14.7361C12.307 14.7361 12.2805 14.7517 12.2539 14.7689ZM12.1461 14.8392C12.118 14.8611 12.118 14.8626 12.1523 14.8454C12.1711 14.8361 12.1867 14.8251 12.1867 14.822C12.1867 14.8095 12.1789 14.8126 12.1461 14.8392ZM12.068 14.8861C12.0399 14.9079 12.0399 14.9095 12.0742 14.8923C12.093 14.8829 12.1086 14.872 12.1086 14.8689C12.1086 14.8564 12.1008 14.8595 12.068 14.8861ZM11.9899 14.9329C11.9617 14.9548 11.9617 14.9564 11.9961 14.9392C12.0149 14.9298 12.0305 14.9189 12.0305 14.9158C12.0305 14.9033 12.0227 14.9064 11.9899 14.9329ZM11.8711 14.9954C11.8118 15.0267 11.8149 15.0392 11.8742 15.0095C11.9008 14.9954 11.9211 14.9814 11.9211 14.9782C11.9211 14.9673 11.9196 14.9689 11.8711 14.9954Z" fill="black"/>
</g>
<defs>
<clipPath id="clip0_203_2460">
<rect width="16" height="16" fill="white"/>
</clipPath>
</defs>
</svg>
