<svg width="16" height="16" viewBox="0 0 16 16" fill="currentColor" xmlns="http://www.w3.org/2000/svg">
<g clip-path="url(#clip0_203_2390)">
<path d="M15.3894 7.51725C15.359 7.51725 15.3286 7.51725 15.2982 7.51725L12.5913 2.59019C12.6522 2.49896 12.6522 2.40771 12.6522 2.28606C12.6522 1.92109 12.348 1.64736 12.0135 1.64736C11.831 1.64736 11.6485 1.73861 11.5573 1.86026L6.20442 0.765363C6.17401 0.430811 5.90029 0.1875 5.56574 0.1875C5.20077 0.1875 4.92704 0.491639 4.92704 0.826194C4.92704 0.947844 4.95746 1.03909 4.98787 1.13033L0.821175 7.12188C0.760344 7.12188 0.699519 7.09144 0.638694 7.09144C0.273725 7.09144 0 7.39556 0 7.73013C0 8.09513 0.304139 8.36881 0.638694 8.36881H0.669106L2.91973 13.9346C2.88932 14.0258 2.85891 14.1171 2.85891 14.2083C2.85891 14.5733 3.16304 14.847 3.49759 14.847C3.68007 14.847 3.86256 14.7558 3.9538 14.6341L10.7057 15.3032C10.7665 15.5769 11.0402 15.7898 11.3444 15.7898C11.7093 15.7898 11.9831 15.4857 11.9831 15.1511C11.9831 14.9991 11.9223 14.847 11.831 14.7253L15.2374 8.79463C15.2678 8.79463 15.2982 8.79463 15.359 8.79463C15.7239 8.79463 15.9977 8.4905 15.9977 8.15594C16.0281 7.82138 15.7544 7.51725 15.3894 7.51725ZM11.4964 2.68144C11.5877 2.77268 11.6789 2.86392 11.8006 2.89433L10.7665 10.6194C10.7057 10.6194 10.6449 10.6499 10.584 10.6803L4.95746 5.81406C4.95746 5.75324 4.98787 5.69241 4.98787 5.63158C4.98787 5.60117 4.98787 5.54034 4.98787 5.50993L11.4964 2.68144ZM14.7507 8.36881L11.2836 10.7411C11.2531 10.7107 11.2227 10.7107 11.1923 10.6803L12.2568 2.89433L14.9028 7.76056C14.8116 7.88219 14.7507 8.03425 14.7507 8.18638C14.7203 8.24719 14.7507 8.308 14.7507 8.36881ZM4.25794 4.99289C3.9538 5.05372 3.71049 5.29703 3.71049 5.63158V5.66199L1.39904 7.03063L4.98787 1.89068L4.25794 4.99289ZM4.50125 6.27028C4.59249 6.23986 4.68374 6.20944 4.74456 6.17903L10.3103 11.0148C10.2799 11.0757 10.2799 11.1669 10.2799 11.2581V11.2886L4.04504 13.8433C3.9538 13.7217 3.80173 13.6 3.64966 13.5696L4.50125 6.27028ZM10.4319 11.6839C10.5232 11.7752 10.6449 11.836 10.7665 11.8664L11.0706 14.5733C10.949 14.6341 10.8273 14.7558 10.7665 14.8774L4.22753 14.2387L10.4319 11.6839ZM11.2227 11.836C11.4356 11.7448 11.5877 11.5014 11.5877 11.2581C11.5877 11.1973 11.5877 11.1365 11.5573 11.1061L14.7203 8.94669L11.5269 14.482L11.2227 11.836ZM11.3748 2.25564L4.77497 5.14496C4.74456 5.11454 4.71415 5.11454 4.71415 5.08413L5.56574 1.49529H5.59615C5.83946 1.49529 6.02194 1.37364 6.1436 1.19116L11.3748 2.25564ZM1.30779 7.73013C1.30779 7.69975 1.30779 7.63888 1.30779 7.6085L3.92339 6.05738C3.98422 6.1182 4.04504 6.14862 4.10587 6.17903L3.25428 13.4784L1.12531 8.21675C1.21656 8.09513 1.30779 7.94306 1.30779 7.73013Z" fill="#343433"/>
<path d="M12.2567 2.89429L14.9027 7.76051C14.8115 7.88214 14.7507 8.03426 14.7507 8.18633C14.7507 8.24714 14.7507 8.30795 14.781 8.36876L11.3138 10.7411C11.2835 10.7106 11.253 10.7106 11.2227 10.6803L12.2567 2.89429Z" fill="#DFE0E0"/>
<path d="M11.2227 11.836C11.4355 11.7447 11.5876 11.5014 11.5876 11.2581C11.5876 11.1973 11.5876 11.1365 11.5572 11.106L14.7202 8.94666L11.5268 14.482L11.2227 11.836Z" fill="#B3B3B3"/>
<path d="M10.431 11.684C10.5222 11.7752 10.6439 11.836 10.7655 11.8665L11.0697 14.5733C10.948 14.6341 10.8263 14.7558 10.7655 14.8774L4.22656 14.2387L10.431 11.684Z" fill="#D2D2D2"/>
<path d="M4.50198 6.27032C4.59322 6.23991 4.68446 6.20949 4.74528 6.17908L10.311 11.0149C10.2806 11.0757 10.2806 11.1669 10.2806 11.2582V11.2886L4.04577 13.8434C3.95453 13.7217 3.80246 13.6 3.65039 13.5697L4.50198 6.27032Z" fill="#F5F6F7"/>
<path d="M1.30748 7.73012C1.30748 7.69975 1.30748 7.63887 1.30748 7.6085L3.92307 6.05737C3.9839 6.1182 4.04473 6.14861 4.10556 6.17903L3.25397 13.4784L1.125 8.21675C1.21624 8.09512 1.30748 7.94306 1.30748 7.73012Z" fill="#D9D9D9"/>
<path d="M4.25734 4.99284C3.9532 5.05367 3.70989 5.29698 3.70989 5.63153V5.66194L1.39844 7.03058L4.98728 1.89062L4.25734 4.99284Z" fill="#B3B3B3"/>
<path d="M11.3755 2.25564L4.77567 5.14496C4.74526 5.11455 4.71484 5.11455 4.71484 5.08414L5.56643 1.4953H5.59684C5.84016 1.4953 6.02264 1.37364 6.14429 1.19116L11.3755 2.25564Z" fill="#D2D2D2"/>
<path d="M11.496 2.6814C11.5872 2.77263 11.6785 2.86388 11.8001 2.89429L10.7661 10.6194C10.7052 10.6194 10.6444 10.6498 10.5836 10.6803L4.95703 5.81402C4.95703 5.7532 4.98744 5.69237 4.98744 5.63154C4.98744 5.60113 4.98744 5.5403 4.98744 5.50988L11.496 2.6814Z" fill="white"/>
</g>
<defs>
<clipPath id="clip0_203_2390">
<rect width="16" height="16" fill="white"/>
</clipPath>
</defs>
</svg>
