<svg width="16" height="16" viewBox="0 0 16 16" fill="none" xmlns="http://www.w3.org/2000/svg">
<g clip-path="url(#clip0_218_55)">
<path d="M7.99205 0.000605663C4.69795 0.000605663 2.02815 2.671 2.02815 5.96449C2.02815 6.02868 2.02633 5.90031 2.02815 5.96449L2.03239 14.0048C2.06448 15.1117 2.97157 15.9994 4.08636 15.9994C5.20115 15.9994 6.11671 15.1117 6.14881 14.0048V11.8896H7.99145C11.2855 11.8896 13.9559 9.25799 13.9559 5.96389C13.9559 2.66979 11.2855 0 7.99205 0V0.000605663ZM6.15002 7.77262V5.96449C6.15002 4.95083 6.97839 4.12912 7.99205 4.12912C9.00571 4.12912 9.82742 4.95083 9.82742 5.96449C9.82742 6.97816 9.00571 7.77262 7.99205 7.77262L6.14881 7.77383L6.15002 7.77262Z" fill="#E72264"/>
<path opacity="0.15" d="M4.03738 11.8903H6.14827V14.0054H6.13858C6.10649 15.1123 5.20001 16 4.08583 16C2.97164 16 2.06455 15.1123 2.03246 14.0054H2.03186V13.9787C2.03186 13.9678 2.03125 13.9563 2.03125 13.9454C2.03125 13.9345 2.03186 13.9236 2.03186 13.9127V13.7638C2.09483 12.7737 3.02977 11.8909 4.03678 11.8909L4.03738 11.8903Z" fill="#1D1D1B"/>
<g opacity="0.75">
<g opacity="0.05">
<path opacity="0.5" d="M2.0332 9.3464V11.8896C2.0332 9.64916 3.91581 7.80531 6.15023 7.77443V6.96362C4.48865 7.13862 3.01841 8.03239 2.0332 9.347V9.3464Z" fill="black"/>
<path d="M2.03711 13.8031C2.52214 13.4471 3.11072 13.2376 3.74653 13.2376H6.15171V11.8896H4.09108C3.00233 11.8896 2.1128 12.7344 2.03711 13.8031Z" fill="black"/>
</g>
<g opacity="0.05">
<path opacity="0.5" d="M6.15023 7.77441V7.03748C4.47533 7.20158 2.99722 8.11532 2.0332 9.45719V11.8896C2.0332 9.64914 3.91581 7.80529 6.15023 7.77441Z" fill="black"/>
<path d="M4.08907 11.8896C3.02999 11.8896 2.15863 12.6889 2.04297 13.7177C2.5274 13.3392 3.12627 13.1152 3.77601 13.1152H6.1497V11.8896H4.08907Z" fill="black"/>
</g>
<g opacity="0.05">
<path opacity="0.5" d="M6.15023 7.77445V7.112C4.46019 7.2652 2.973 8.20135 2.0332 9.57289V11.8897C2.0332 9.64919 3.91581 7.80534 6.15023 7.77445Z" fill="black"/>
<path d="M4.08929 11.8896C3.05988 11.8896 2.20789 12.6447 2.05469 13.6312C2.53669 13.2315 3.14526 12.9923 3.80771 12.9923H6.14992V11.8896H4.08929Z" fill="black"/>
</g>
<g opacity="0.05">
<path opacity="0.5" d="M6.15023 7.77444V7.18646C4.44263 7.32755 2.94514 8.28914 2.0332 9.69458V11.8902C2.0332 9.64977 3.91581 7.80592 6.15023 7.77504V7.77444Z" fill="black"/>
<path d="M4.09038 11.8896C3.09064 11.8896 2.25742 12.6024 2.07031 13.547C2.54808 13.1249 3.16512 12.87 3.83969 12.87H6.1504V11.8896H4.08977H4.09038Z" fill="black"/>
</g>
<g opacity="0.05">
<path opacity="0.5" d="M6.15023 7.77442V7.26154C4.42264 7.38991 2.91365 8.38117 2.0332 9.82355V11.8902C2.0332 9.64976 3.91581 7.80591 6.15023 7.77503V7.77442Z" fill="black"/>
<path d="M4.08918 11.8896C3.11911 11.8896 2.30709 12.56 2.08789 13.4622C2.5596 13.0184 3.18391 12.7471 3.86998 12.7471H6.14981V11.889H4.08918V11.8896Z" fill="black"/>
</g>
<g opacity="0.05">
<path opacity="0.5" d="M6.15023 7.77441V7.33661C4.40024 7.45105 2.87672 8.47683 2.0332 9.96039V11.8896C2.0332 9.64914 3.91581 7.80529 6.15023 7.77441Z" fill="black"/>
<path d="M4.08961 11.8896C3.15042 11.8896 2.35899 12.5182 2.11133 13.3774C2.57456 12.9118 3.20553 12.6248 3.90189 12.6248H6.15024V11.8896H4.08961Z" fill="black"/>
</g>
<g opacity="0.05">
<path opacity="0.5" d="M6.15023 7.77446V7.41235C4.37299 7.51227 2.83251 8.57861 2.0332 10.1106V11.8897C2.0332 9.64919 3.91581 7.80534 6.15023 7.77446Z" fill="black"/>
<path d="M4.09031 11.8896C3.18262 11.8896 2.41298 12.477 2.13867 13.2927C2.59162 12.8058 3.22803 12.5024 3.93408 12.5024H6.15094V11.8896H4.09031Z" fill="black"/>
</g>
<g opacity="0.05">
<path opacity="0.5" d="M6.15023 7.77446V7.48865C4.34029 7.57221 2.77862 8.68882 2.0332 10.2771V11.8897C2.0332 9.64919 3.91581 7.80534 6.15023 7.77446Z" fill="black"/>
<path d="M4.08994 11.8896C3.21313 11.8896 2.46529 12.4377 2.16797 13.2097C2.6082 12.7011 3.24946 12.3801 3.96459 12.3801H6.14996V11.8896H4.08933H4.08994Z" fill="black"/>
</g>
<g opacity="0.05">
<path opacity="0.5" d="M6.15023 7.7744V7.5661C4.29912 7.63271 2.7108 8.81229 2.0332 10.4702V11.8896C2.0332 9.64914 3.91581 7.80529 6.15023 7.7744Z" fill="black"/>
<path d="M4.08923 11.8896C3.24451 11.8896 2.51908 12.3988 2.20117 13.1267C2.62565 12.5962 3.27115 12.2578 3.99476 12.2578H6.14925V11.8902H4.08862L4.08923 11.8896Z" fill="black"/>
</g>
</g>
</g>
<defs>
<clipPath id="clip0_218_55">
<rect width="16" height="16" fill="white"/>
</clipPath>
</defs>
</svg>
