<svg width="16" height="16" viewBox="0 0 16 16" fill="none" xmlns="http://www.w3.org/2000/svg">
<path fill-rule="evenodd" clip-rule="evenodd" d="M14.331 12.1747L8.88884 0.61742C8.82122 0.475186 8.7164 0.353881 8.58548 0.266344C8.45456 0.178807 8.3024 0.128296 8.14512 0.120157C7.98756 0.109601 7.83013 0.142447 7.68993 0.215124C7.54974 0.287801 7.43216 0.397527 7.34998 0.532367L1.4473 10.0927C1.35754 10.2371 1.3108 10.404 1.31255 10.574C1.3143 10.744 1.36447 10.91 1.45719 11.0524L4.34306 15.5215C4.45224 15.6892 4.61272 15.8172 4.80058 15.8863C4.98844 15.9554 5.1936 15.9619 5.38545 15.9048L13.7602 13.4276C13.8863 13.3907 14.003 13.3272 14.1024 13.2414C14.2019 13.1555 14.2817 13.0493 14.3366 12.9299C14.3907 12.8112 14.4182 12.6821 14.4173 12.5516C14.4165 12.4211 14.3871 12.2923 14.3314 12.1743L14.331 12.1747ZM13.1126 12.6704L6.00614 14.7718C5.78935 14.8363 5.58127 14.6484 5.62637 14.4296L8.1653 2.27259C8.21277 2.04512 8.52687 2.00912 8.62617 2.21958L13.3262 12.2004C13.347 12.2449 13.3579 12.2934 13.3581 12.3425C13.3584 12.3916 13.348 12.4401 13.3276 12.4848C13.3073 12.5295 13.2775 12.5692 13.2403 12.6012C13.2031 12.6333 13.1598 12.6569 13.1126 12.6704Z" fill="white"/>
</svg>
