<svg width="16" height="16" viewBox="0 0 16 16" fill="currentColor" xmlns="http://www.w3.org/2000/svg">
<path d="M7.89993 0.00010922C7.35535 0.00263965 6.83528 0.0490851 6.37767 0.130058C5.02962 0.368215 4.78487 0.866696 4.78487 1.78598V3.00008H7.97048V3.40478H4.78487H3.58934C2.66351 3.40478 1.85283 3.96125 1.59926 5.01986C1.30677 6.23327 1.2938 6.99045 1.59926 8.25745C1.8257 9.20055 2.36648 9.87253 3.29231 9.87253H4.3876V8.4171C4.3876 7.36564 5.29735 6.43816 6.37767 6.43816H9.55957C10.4453 6.43816 11.1524 5.70888 11.1524 4.81936V1.78598C11.1524 0.922663 10.4241 0.274143 9.55957 0.130058C9.01233 0.0389632 8.44452 -0.00242124 7.89993 0.00010922ZM6.17718 0.976584C6.50623 0.976584 6.77495 1.24969 6.77495 1.58549C6.77495 1.9201 6.50623 2.19068 6.17718 2.19068C5.84695 2.19068 5.57941 1.9201 5.57941 1.58549C5.57941 1.24969 5.84695 0.976584 6.17718 0.976584Z" fill="url(#paint0_linear_203_2364)"/>
<path d="M11.5499 3.40479V4.81937C11.5499 5.91609 10.6201 6.83915 9.55986 6.83915H6.37796C5.50639 6.83915 4.78516 7.5851 4.78516 8.45795V11.4913C4.78516 12.3547 5.53587 12.8624 6.37796 13.1101C7.38635 13.4066 8.35333 13.4602 9.55986 13.1101C10.3618 12.8779 11.1527 12.4106 11.1527 11.4913V10.2772H7.97077V9.87254H11.1527H12.7455C13.6713 9.87254 14.0163 9.22675 14.3383 8.25746C14.6709 7.25958 14.6567 6.29996 14.3383 5.01987C14.1095 4.0982 13.6725 3.40479 12.7455 3.40479H11.5499ZM9.76035 11.0866C10.0906 11.0866 10.3581 11.3572 10.3581 11.6918C10.3581 12.0276 10.0906 12.3007 9.76035 12.3007C9.4313 12.3007 9.16258 12.0276 9.16258 11.6918C9.16258 11.3572 9.4313 11.0866 9.76035 11.0866Z" fill="url(#paint1_linear_203_2364)"/>
<path opacity="0.44382" d="M8.00726 15.9999C10.365 15.9999 12.2762 15.6293 12.2762 15.1722C12.2762 14.715 10.365 14.3444 8.00726 14.3444C5.64957 14.3444 3.73828 14.715 3.73828 15.1722C3.73828 15.6293 5.64957 15.9999 8.00726 15.9999Z" fill="url(#paint2_radial_203_2364)"/>
<defs>
<linearGradient id="paint0_linear_203_2364" x1="1.375" y1="-3.44594e-08" x2="8.72067" y2="6.25953" gradientUnits="userSpaceOnUse">
<stop stop-color="#5A9FD4"/>
<stop offset="1" stop-color="#306998"/>
</linearGradient>
<linearGradient id="paint1_linear_203_2364" x1="9.6838" y1="11.5898" x2="7.04845" y2="7.89685" gradientUnits="userSpaceOnUse">
<stop stop-color="#FFD43B"/>
<stop offset="1" stop-color="#FFE873"/>
</linearGradient>
<radialGradient id="paint2_radial_203_2364" cx="0" cy="0" r="1" gradientUnits="userSpaceOnUse" gradientTransform="translate(8.00726 15.1722) rotate(-90) scale(0.827792 3.63849)">
<stop stop-color="#B8B8B8" stop-opacity="0.498039"/>
<stop offset="1" stop-color="#7F7F7F" stop-opacity="0"/>
</radialGradient>
</defs>
</svg>
