<svg width="16" height="16" viewBox="0 0 16 16" fill="currentColor" xmlns="http://www.w3.org/2000/svg">
<path d="M12.6491 4.67828L11.4612 5.86618C13.4117 7.81668 13.4117 10.9551 11.4612 12.8763C9.51066 14.8268 6.37225 14.8268 4.45108 12.8763C2.50057 10.9258 2.50057 7.78735 4.45108 5.86618L7.54549 2.77177L7.98545 2.33181V0L3.32184 4.66362C0.726054 7.2594 0.726054 11.4537 3.32184 14.0495C5.91762 16.6453 10.1119 16.6453 12.6637 14.0495C15.2448 11.4537 15.2448 7.28873 12.6491 4.67828Z" fill="#EE4C2C"/>
<path d="M10.3164 4.39964C10.7943 4.39964 11.1817 4.01226 11.1817 3.53439C11.1817 3.05652 10.7943 2.66913 10.3164 2.66913C9.83856 2.66913 9.45117 3.05652 9.45117 3.53439C9.45117 4.01226 9.83856 4.39964 10.3164 4.39964Z" fill="#EE4C2C"/>
</svg>
