<svg width="16" height="16" viewBox="0 0 16 16" fill="currentColor" xmlns="http://www.w3.org/2000/svg">
<g clip-path="url(#clip0_203_1330)">
<rect width="16" height="16" fill="#172A38"/>
<path d="M16 8.00097C16 6.94104 14.6726 5.93656 12.6376 5.31365C13.1072 3.23945 12.8985 1.58923 11.9788 1.06089C11.7668 0.936965 11.519 0.878261 11.2483 0.878261V1.60553C11.3983 1.60553 11.519 1.63489 11.6201 1.69033C12.0636 1.94471 12.256 2.91332 12.106 4.15914C12.0701 4.46571 12.0114 4.78858 11.9397 5.11797C11.3004 4.96143 10.6025 4.84076 9.86873 4.76248C9.42845 4.15914 8.97187 3.61124 8.51203 3.13183C9.57521 2.14365 10.5732 1.60227 11.2515 1.60227V0.875C10.3547 0.875 9.1806 1.51422 7.99348 2.62306C6.80636 1.52074 5.63229 0.888045 4.73543 0.888045V1.61532C5.41052 1.61532 6.41174 2.15343 7.47493 3.13509C7.01835 3.6145 6.56176 4.15914 6.12801 4.76248C5.39095 4.84076 4.69303 4.96142 4.05381 5.12123C3.9788 4.7951 3.92336 4.47875 3.88422 4.17545C3.73094 2.92963 3.9201 1.96102 4.36038 1.70337C4.45821 1.64467 4.58541 1.61858 4.73543 1.61858V0.891307C4.46148 0.891307 4.21362 0.95001 3.99837 1.07394C3.08194 1.60227 2.87648 3.24924 3.34937 5.31691C1.32083 5.94308 0 6.9443 0 8.00097C0 9.0609 1.32735 10.0654 3.36241 10.6883C2.89278 12.7625 3.10151 14.4127 4.0212 14.941C4.23318 15.065 4.48104 15.1237 4.75499 15.1237C5.65186 15.1237 6.82593 14.4845 8.01305 13.3756C9.20016 14.4779 10.3742 15.1106 11.2711 15.1106C11.545 15.1106 11.7929 15.0519 12.0082 14.928C12.9246 14.3997 13.13 12.7527 12.6572 10.685C14.6792 10.0621 16 9.05763 16 8.00097ZM11.7538 5.82567C11.6331 6.24638 11.4831 6.68014 11.3135 7.11389C11.1798 6.85299 11.0395 6.59208 10.8863 6.33118C10.7362 6.07027 10.5764 5.81589 10.4166 5.56803C10.8797 5.63652 11.3265 5.72131 11.7538 5.82567ZM10.2601 9.29897C10.0057 9.73925 9.7448 10.1567 9.47411 10.5448C8.98818 10.5872 8.49572 10.61 8 10.61C7.50754 10.61 7.01508 10.5872 6.53241 10.5481C6.26172 10.16 5.99755 9.74577 5.74317 9.30876C5.49531 8.88152 5.27028 8.44777 5.06482 8.01075C5.26702 7.57374 5.49531 7.13672 5.73991 6.70949C5.99429 6.26921 6.2552 5.85176 6.52589 5.46367C7.01182 5.42127 7.50428 5.39844 8 5.39844C8.49246 5.39844 8.98492 5.42127 9.46759 5.46041C9.73828 5.8485 10.0024 6.26269 10.2568 6.6997C10.5047 7.12694 10.7297 7.56069 10.9352 7.99771C10.7297 8.43472 10.5047 8.87174 10.2601 9.29897ZM11.3135 8.875C11.4896 9.31202 11.6396 9.74903 11.7636 10.173C11.3363 10.2774 10.8863 10.3654 10.4199 10.4339C10.5797 10.1828 10.7395 9.92514 10.8895 9.66098C11.0395 9.40007 11.1798 9.13591 11.3135 8.875ZM8.00652 12.3548C7.70322 12.0417 7.39992 11.6928 7.09988 11.3112C7.3934 11.3242 7.69344 11.334 7.99674 11.334C8.3033 11.334 8.6066 11.3275 8.90338 11.3112C8.60987 11.6928 8.30656 12.0417 8.00652 12.3548ZM5.58011 10.4339C5.117 10.3654 4.6702 10.2806 4.24297 10.1763C4.36364 9.75556 4.51366 9.3218 4.68324 8.88805C4.81696 9.14895 4.9572 9.40986 5.11048 9.67076C5.26376 9.93167 5.4203 10.186 5.58011 10.4339ZM7.99022 3.64712C8.29352 3.9602 8.59682 4.30916 8.89686 4.69074C8.60334 4.67769 8.3033 4.66791 8 4.66791C7.69344 4.66791 7.39014 4.67443 7.09336 4.69074C7.38687 4.30916 7.69018 3.9602 7.99022 3.64712ZM5.57685 5.56803C5.41704 5.81915 5.25724 6.07679 5.10722 6.34096C4.9572 6.60187 4.81696 6.86277 4.68324 7.12368C4.50713 6.68666 4.35711 6.24964 4.23318 5.82567C4.66042 5.72457 5.11048 5.63652 5.57685 5.56803ZM2.62536 9.65119C1.47085 9.15873 0.724011 8.51299 0.724011 8.00097C0.724011 7.48894 1.47085 6.83994 2.62536 6.35074C2.90583 6.23008 3.21239 6.12245 3.52874 6.02135C3.71464 6.66057 3.95923 7.32588 4.26254 8.00749C3.9625 8.68584 3.72116 9.34789 3.53852 9.98385C3.21565 9.88275 2.90909 9.77186 2.62536 9.65119ZM4.37994 14.3116C3.9364 14.0572 3.74399 13.0886 3.89401 11.8428C3.92988 11.5362 3.98859 11.2134 4.06033 10.884C4.69955 11.0405 5.39747 11.1612 6.13127 11.2395C6.57155 11.8428 7.02813 12.3907 7.48797 12.8701C6.42479 13.8583 5.42682 14.3997 4.74847 14.3997C4.60171 14.3964 4.47778 14.3671 4.37994 14.3116ZM12.1158 11.8265C12.2691 13.0723 12.0799 14.0409 11.6396 14.2986C11.5418 14.3573 11.4146 14.3834 11.2646 14.3834C10.5895 14.3834 9.58826 13.8452 8.52507 12.8636C8.98166 12.3842 9.43824 11.8395 9.87199 11.2362C10.6091 11.1579 11.307 11.0373 11.9462 10.8774C12.0212 11.2068 12.0799 11.5232 12.1158 11.8265ZM13.3714 9.65119C13.0909 9.77186 12.7843 9.87949 12.468 9.98059C12.2821 9.34137 12.0375 8.67606 11.7342 7.99445C12.0342 7.31609 12.2756 6.65405 12.4582 6.01809C12.7811 6.11919 13.0876 6.23008 13.3746 6.35074C14.5291 6.8432 15.276 7.48894 15.276 8.00097C15.2727 8.51299 14.5259 9.162 13.3714 9.65119Z" fill="#61DAFB"/>
<path d="M7.99628 9.4914C8.81941 9.4914 9.4867 8.82411 9.4867 8.00098C9.4867 7.17784 8.81941 6.51056 7.99628 6.51056C7.17314 6.51056 6.50586 7.17784 6.50586 8.00098C6.50586 8.82411 7.17314 9.4914 7.99628 9.4914Z" fill="#61DAFB"/>
</g>
<defs>
<clipPath id="clip0_203_1330">
<rect width="16" height="16" fill="white"/>
</clipPath>
</defs>
</svg>
