<svg width="16" height="16" viewBox="0 0 16 16" fill="none" xmlns="http://www.w3.org/2000/svg">
<path d="M6.96778 9.93278L6.9807 9.93825C7.30008 10.0718 7.65066 10.1455 8.01846 10.1455C8.35987 10.1455 8.68644 10.082 8.98699 9.96606L8.96083 9.97895C9.11283 9.91191 9.18939 9.94542 9.19051 10.0795C9.19118 10.1599 9.19455 10.1649 9.20062 10.0944L9.2006 12.0954C9.2006 12.139 9.21288 12.1817 9.23603 12.2186C9.30064 12.3216 9.4329 12.3563 9.53888 12.3011L9.55538 12.2917L11.7758 10.8979C11.8425 10.856 11.9256 10.8511 11.9963 10.8839L12.0137 10.8929L14.0142 12.0347C14.0484 12.0542 14.0771 12.0822 14.0976 12.116C14.1605 12.22 14.132 12.3538 14.0352 12.4237L14.0193 12.4342L8.18479 15.9665C8.11695 16.0076 8.03329 16.0109 7.96289 15.9764L7.94559 15.9669L2.06437 12.4343C2.03019 12.4138 2.00188 12.3848 1.98219 12.3501C1.92202 12.2441 1.9545 12.1107 2.05383 12.0437L2.06923 12.0341L4.07738 10.8933C4.14646 10.8541 4.23037 10.8532 4.29985 10.8898L4.3169 10.8998L6.47508 12.2853C6.51241 12.3093 6.55584 12.3221 6.6002 12.3221C6.72232 12.3221 6.82237 12.2275 6.83121 12.1076L6.83185 12.0903L6.8318 10.0923L6.83628 10.1273C6.82387 9.97945 6.8677 9.91461 6.96778 9.93278ZM8.77005 0C8.81065 0 8.85055 0.0106781 8.88573 0.0309642L14.921 3.51089C14.9927 3.55226 15.0369 3.62881 15.0369 3.71165V10.842C15.0369 10.97 14.9332 11.0738 14.8053 11.0738C14.7618 11.0738 14.7192 11.0615 14.6823 11.0384L12.6852 9.78738C12.6176 9.74501 12.5765 9.67081 12.5765 9.59099V6.96834C12.5765 6.84036 12.4728 6.73662 12.3448 6.73662C12.3046 6.73662 12.265 6.74712 12.23 6.76709L10.8971 7.52806C10.7848 7.56888 10.7251 7.5313 10.718 7.4153C10.7146 7.35842 10.7117 7.33944 10.7095 7.35834C10.6835 6.60281 10.3462 5.92633 9.82189 5.45314L9.89035 5.5024C9.7598 5.39966 9.75344 5.31633 9.87129 5.25241C9.8925 5.2409 9.9076 5.23237 9.91659 5.22681L10.9845 4.62475C11.096 4.56191 11.1354 4.4206 11.0726 4.3091C11.052 4.27263 11.022 4.24241 10.9857 4.22165L8.65517 2.89034C8.58296 2.8491 8.5384 2.7723 8.5384 2.68912V0.231724C8.5384 0.103746 8.64211 0 8.77005 0ZM7.26687 0C7.38899 0 7.48904 0.0945291 7.49788 0.21443L7.49852 0.231724V2.68912C7.49852 2.7659 7.46054 2.83724 7.39791 2.88021L7.38174 2.89034L5.05125 4.22165C5.01491 4.24241 4.98487 4.27263 4.96432 4.3091C4.9045 4.41529 4.93742 4.54852 5.03697 4.61525L5.0524 4.62475L6.20132 5.27246C6.28333 5.33253 6.26803 5.4078 6.15542 5.49828L6.15024 5.5024L6.20118 5.46572C5.68495 5.9381 5.3534 6.609 5.32738 7.35755C5.32597 7.36674 5.32435 7.38599 5.32257 7.4153C5.3153 7.53501 5.25195 7.57121 5.13252 7.5239L3.8069 6.76709C3.77192 6.74712 3.73235 6.73662 3.69208 6.73662C3.56996 6.73662 3.46991 6.83115 3.46106 6.95105L3.46043 6.96834V9.59099C3.46043 9.66416 3.42592 9.73261 3.36807 9.77614L3.35173 9.78738L1.3546 11.0384C1.31774 11.0615 1.27513 11.0738 1.23165 11.0738C1.10953 11.0738 1.00948 10.9792 1.00064 10.8593L1 10.842V3.71165C1 3.63518 1.03767 3.56408 1.0999 3.52105L1.11596 3.51089L7.15118 0.0309642C7.18637 0.0106781 7.22626 0 7.26687 0ZM8.01846 5.52443C9.08345 5.52443 9.9468 6.38778 9.9468 7.45277C9.9468 8.51776 9.08345 9.38111 8.01846 9.38111C6.95347 9.38111 6.09012 8.51776 6.09012 7.45277C6.09012 6.38778 6.95347 5.52443 8.01846 5.52443Z" fill="white"/>
</svg>
