<svg width="16" height="16" viewBox="0 0 16 16" fill="currentColor" xmlns="http://www.w3.org/2000/svg">
<g clip-path="url(#clip0_203_1692)">
<path d="M1.08877 15.8414C-0.134637 15.2738 -0.37181 13.7298 0.626186 12.83C1.35716 12.171 2.35564 12.2091 3.06989 12.9234C3.78413 13.6376 3.82228 14.6361 3.16324 15.3671C2.61875 15.971 1.78091 16.1626 1.08877 15.8414ZM7.21789 15.8009C6.21721 15.3349 5.88194 14.0481 6.52231 13.131C6.81898 12.7062 7.47986 12.3602 7.99467 12.3602C8.50947 12.3602 9.17036 12.7062 9.46702 13.131C9.91561 13.7734 9.89205 14.6811 9.4104 15.3126C9.12797 15.6829 8.48233 15.9933 7.99467 15.9933C7.78123 15.9933 7.46059 15.9139 7.21789 15.8009ZM13.4467 15.8442C12.8231 15.5602 12.358 14.8531 12.3567 14.1869C12.3549 13.2469 13.243 12.3588 14.183 12.3607C14.8491 12.3619 15.5563 12.827 15.8403 13.4506C16.5062 14.9127 14.9088 16.5101 13.4467 15.8442ZM1.35697 9.73932C0.829987 9.60345 0.419921 9.26403 0.192385 8.77537C-0.0556132 8.24275 -0.0556132 7.75443 0.192385 7.22182C0.794746 5.92816 2.63607 5.84362 3.35856 7.07645C4.17881 8.47611 2.92536 10.1437 1.35697 9.73932ZM7.67158 9.7764C6.231 9.50763 5.68898 7.6846 6.75552 6.69529C7.12781 6.34995 7.4933 6.20548 7.99467 6.20548C9.00961 6.20548 9.78778 6.98364 9.78778 7.99859C9.78778 9.12788 8.77154 9.98162 7.67158 9.7764ZM13.8102 9.76671C13.0168 9.61366 12.3563 8.81039 12.3563 7.99859C12.3563 7.48378 12.7023 6.8229 13.1271 6.52624C14.0441 5.88586 15.331 6.22113 15.7969 7.22182C16.0459 7.75651 16.0451 8.2425 15.7942 8.78129C15.5788 9.24393 15.1026 9.64964 14.6738 9.7358C14.532 9.7643 14.3614 9.79868 14.2948 9.81222C14.2281 9.82575 14.0101 9.80527 13.8102 9.76671ZM1.17961 3.51831C0.239074 3.18306 -0.265532 1.99218 0.151813 1.09269C0.71945 -0.130712 2.26346 -0.367885 3.16324 0.630111C3.82228 1.36109 3.78413 2.35956 3.06989 3.07381C2.53433 3.60937 1.87201 3.76511 1.17961 3.51831ZM7.17737 3.41135C5.84748 2.71661 5.87134 0.823298 7.21789 0.19631C7.75051 -0.0516883 8.23883 -0.0516883 8.77144 0.19631C10.118 0.823298 10.1419 2.71661 8.81196 3.41135C8.23388 3.71334 7.75545 3.71334 7.17737 3.41135ZM13.5678 3.53087C12.9518 3.33561 12.3554 2.48834 12.3567 1.81026C12.358 1.14413 12.8231 0.436982 13.4467 0.152977C14.6051 -0.374586 15.9874 0.532206 15.9874 1.81963C15.9874 3.05467 14.7737 3.91308 13.5678 3.53087Z" fill="#314160"/>
</g>
<defs>
<clipPath id="clip0_203_1692">
<rect width="16" height="16" fill="white"/>
</clipPath>
</defs>
</svg>
