<svg width="16" height="16" viewBox="0 0 16 16" fill="currentColor" xmlns="http://www.w3.org/2000/svg">
<g clip-path="url(#clip0_203_1700)">
<path fill-rule="evenodd" clip-rule="evenodd" d="M12.2658 15.9902C10.3274 16.1674 8.70647 13.8959 7.4641 12.7437C6.83585 17.2706 -0.00468506 16.8415 2.40793e-06 12.2494C0.00225239 10.3206 2.40793e-06 5.60732 2.40793e-06 3.73915C2.40793e-06 3.06747 0.184345 2.39107 0.530154 1.81748C1.1864 0.705016 2.45451 -0.0132598 3.74594 0.00061506C5.69136 0.00308379 10.3764 -0.00160367 12.2658 0.00061506C16.8622 0.00061506 17.2987 6.83872 12.7563 7.4544L14.9119 9.60701C17.2801 11.8342 15.5027 16.0881 12.2658 15.9902ZM11.2219 13.2965C12.5577 14.6726 14.6901 12.5408 13.3145 11.2068L9.57771 7.47546H7.48738V9.56488L10.7175 12.7905L11.2219 13.2965ZM2.26302 12.2516C2.23258 14.1642 5.25237 14.1711 5.22215 12.2516V3.73915C5.24768 2.78525 4.23891 2.02735 3.32801 2.32119C3.28838 2.33285 3.25098 2.3445 3.21582 2.3586C2.64376 2.57069 2.24667 3.15615 2.26302 3.76715V12.2516ZM12.2658 5.21536C14.1855 5.24582 14.1833 2.23025 12.2658 2.2605H7.19085C7.57632 3.07218 7.47822 4.33627 7.48516 5.21536H12.2658Z" fill="white"/>
</g>
<defs>
<clipPath id="clip0_203_1700">
<rect width="15.9999" height="16" fill="white"/>
</clipPath>
</defs>
</svg>
