<svg width="16" height="16" viewBox="0 0 16 16" fill="currentColor" xmlns="http://www.w3.org/2000/svg">
<g clip-path="url(#clip0_203_1702)">
<path d="M6.71636 5.8112H8.67862C9.88617 5.8112 9.88617 7.01874 8.67862 7.01874H6.71636V5.8112ZM2.03711 11.3961H8.07485V9.73572H6.71636V8.52818H8.22579C9.88617 8.52818 8.98051 11.3961 10.339 11.3961H14.1126V8.52818H13.2069V8.83006C13.2069 10.0376 11.8484 9.88667 11.6975 9.13195C11.5465 8.37723 10.9428 7.77346 10.7918 7.77346C13.056 6.56591 11.6975 4.15082 9.88617 4.15082H2.79183V5.8112H4.30126V9.73572H2.03711V11.3961Z" fill="black" stroke="black" stroke-width="0.0625" stroke-linejoin="round"/>
<path d="M7.99838 14.4903C11.583 14.4903 14.4889 11.5844 14.4889 7.99972C14.4889 4.41508 11.583 1.50916 7.99838 1.50916C4.41374 1.50916 1.50781 4.41508 1.50781 7.99972C1.50781 11.5844 4.41374 14.4903 7.99838 14.4903Z" stroke="black" stroke-width="0.5625"/>
<path d="M14.9395 8.45247L15.6942 7.99964L14.9395 7.54681V8.45247Z" fill="black" stroke="black" stroke-width="0.1875" stroke-linejoin="round"/>
<path d="M14.7178 9.79835L15.5464 9.50146L14.8945 8.9101L14.7178 9.79835Z" fill="black" stroke="black" stroke-width="0.1875" stroke-linejoin="round"/>
<path d="M14.2394 11.0751L15.1099 10.9456L14.5859 10.2384L14.2394 11.0751Z" fill="black" stroke="black" stroke-width="0.1875" stroke-linejoin="round"/>
<path d="M13.5183 12.2337L14.3974 12.2765L14.0215 11.4807L13.5183 12.2337Z" fill="black" stroke="black" stroke-width="0.1875" stroke-linejoin="round"/>
<path d="M12.5862 13.2296L13.44 13.443L13.2266 12.5892L12.5862 13.2296Z" fill="black" stroke="black" stroke-width="0.1875" stroke-linejoin="round"/>
<path d="M11.4774 14.0245L12.2733 14.4004L12.2305 13.5213L11.4774 14.0245Z" fill="black" stroke="black" stroke-width="0.1875" stroke-linejoin="round"/>
<path d="M10.2355 14.5878L10.9427 15.1118L11.0723 14.2412L10.2355 14.5878Z" fill="black" stroke="black" stroke-width="0.1875" stroke-linejoin="round"/>
<path d="M8.90666 14.8979L9.49803 15.5498L9.79492 14.7213L8.90666 14.8979Z" fill="black" stroke="black" stroke-width="0.1875" stroke-linejoin="round"/>
<path d="M7.54356 14.9431L7.99639 15.6978L8.44922 14.9431H7.54356Z" fill="black" stroke="black" stroke-width="0.1875" stroke-linejoin="round"/>
<path d="M6.19768 14.7213L6.49457 15.5498L7.08594 14.8979L6.19768 14.7213Z" fill="black" stroke="black" stroke-width="0.1875" stroke-linejoin="round"/>
<path d="M4.92109 14.2412L5.05063 15.1117L5.75781 14.5878L4.92109 14.2412Z" fill="black" stroke="black" stroke-width="0.1875" stroke-linejoin="round"/>
<path d="M3.7626 13.5213L3.71981 14.4004L4.51562 14.0244L3.7626 13.5213Z" fill="black" stroke="black" stroke-width="0.1875" stroke-linejoin="round"/>
<path d="M2.7678 12.5892L2.55434 13.443L3.4082 13.2296L2.7678 12.5892Z" fill="black" stroke="black" stroke-width="0.1875" stroke-linejoin="round"/>
<path d="M1.97145 11.4807L1.59551 12.2765L2.47461 12.2337L1.97145 11.4807Z" fill="black" stroke="black" stroke-width="0.1875" stroke-linejoin="round"/>
<path d="M1.40928 10.2384L0.885301 10.9456L1.75586 11.0751L1.40928 10.2384Z" fill="black" stroke="black" stroke-width="0.1875" stroke-linejoin="round"/>
<path d="M1.09871 8.91008L0.446832 9.50145L1.27539 9.79834L1.09871 8.91008Z" fill="black" stroke="black" stroke-width="0.1875" stroke-linejoin="round"/>
<path d="M1.05273 7.54679L0.298017 7.99962L1.05273 8.45245V7.54679Z" fill="black" stroke="black" stroke-width="0.1875" stroke-linejoin="round"/>
<path d="M1.27434 6.20091L0.445784 6.49781L1.09766 7.08917L1.27434 6.20091Z" fill="black" stroke="black" stroke-width="0.1875" stroke-linejoin="round"/>
<path d="M1.75478 4.92414L0.884226 5.05369L1.4082 5.76086L1.75478 4.92414Z" fill="black" stroke="black" stroke-width="0.1875" stroke-linejoin="round"/>
<path d="M2.47581 3.76559L1.59671 3.7228L1.97266 4.51862L2.47581 3.76559Z" fill="black" stroke="black" stroke-width="0.1875" stroke-linejoin="round"/>
<path d="M3.40798 2.7697L2.55411 2.55623L2.76758 3.4101L3.40798 2.7697Z" fill="black" stroke="black" stroke-width="0.1875" stroke-linejoin="round"/>
<path d="M4.5167 1.97481L3.72089 1.59886L3.76367 2.47797L4.5167 1.97481Z" fill="black" stroke="black" stroke-width="0.1875" stroke-linejoin="round"/>
<path d="M5.7586 1.41148L5.05142 0.887498L4.92188 1.75806L5.7586 1.41148Z" fill="black" stroke="black" stroke-width="0.1875" stroke-linejoin="round"/>
<path d="M7.08552 1.10133L6.49416 0.449457L6.19727 1.27802L7.08552 1.10133Z" fill="black" stroke="black" stroke-width="0.1875" stroke-linejoin="round"/>
<path d="M8.45058 1.05621L7.99775 0.301496L7.54492 1.05621L8.45058 1.05621Z" fill="black" stroke="black" stroke-width="0.1875" stroke-linejoin="round"/>
<path d="M9.79646 1.278L9.49957 0.449446L8.9082 1.10132L9.79646 1.278Z" fill="black" stroke="black" stroke-width="0.1875" stroke-linejoin="round"/>
<path d="M11.073 1.75808L10.9435 0.887522L10.2363 1.4115L11.073 1.75808Z" fill="black" stroke="black" stroke-width="0.1875" stroke-linejoin="round"/>
<path d="M12.2315 2.47801L12.2743 1.59891L11.4785 1.97485L12.2315 2.47801Z" fill="black" stroke="black" stroke-width="0.1875" stroke-linejoin="round"/>
<path d="M13.2263 3.41011L13.4398 2.55625L12.5859 2.76971L13.2263 3.41011Z" fill="black" stroke="black" stroke-width="0.1875" stroke-linejoin="round"/>
<path d="M14.0207 4.51859L14.3967 3.72278L13.5176 3.76556L14.0207 4.51859Z" fill="black" stroke="black" stroke-width="0.1875" stroke-linejoin="round"/>
<path d="M14.5849 5.76085L15.1088 5.05368L14.2383 4.92413L14.5849 5.76085Z" fill="black" stroke="black" stroke-width="0.1875" stroke-linejoin="round"/>
<path d="M14.8954 7.08919L15.5473 6.49782L14.7188 6.20093L14.8954 7.08919Z" fill="black" stroke="black" stroke-width="0.1875" stroke-linejoin="round"/>
<path d="M6.93945 1.6601L7.99606 2.7167L9.05266 1.6601H6.93945Z" fill="black" stroke="black" stroke-width="0.375" stroke-linejoin="round"/>
<path d="M13.6992 5.03577L13.0208 6.36717L14.3522 7.04555L13.6992 5.03577Z" fill="black" stroke="black" stroke-width="0.375" stroke-linejoin="round"/>
<path d="M12.5781 12.5075L11.1023 12.2738L10.8685 13.7496L12.5781 12.5075Z" fill="black" stroke="black" stroke-width="0.375" stroke-linejoin="round"/>
<path d="M5.125 13.7496L4.89125 12.2738L3.41538 12.5075L5.125 13.7496Z" fill="black" stroke="black" stroke-width="0.375" stroke-linejoin="round"/>
<path d="M1.64062 7.04553L2.97202 6.36715L2.29364 5.03575L1.64062 7.04553Z" fill="black" stroke="black" stroke-width="0.375" stroke-linejoin="round"/>
</g>
<defs>
<clipPath id="clip0_203_1702">
<rect width="16" height="16" fill="white"/>
</clipPath>
</defs>
</svg>
