<svg width="16" height="16" viewBox="0 0 16 16" fill="currentColor" xmlns="http://www.w3.org/2000/svg">
<g clip-path="url(#clip0_203_1406)">
<path d="M8.05384 0.144714C6.05355 0.144746 4.1352 0.93937 2.72079 2.35378C1.30637 3.7682 0.511751 5.68655 0.511719 7.68683C0.511783 9.68709 1.30642 11.6054 2.72083 13.0198C4.13524 14.4342 6.05357 15.2288 8.05384 15.2288C10.0375 15.2288 11.9413 14.4472 13.3528 13.0535C14.7643 11.6598 15.57 9.76607 15.5952 7.78257L15.5958 7.68677L15.5952 7.59097C15.57 5.60747 14.7643 3.71377 13.3528 2.32004C11.9413 0.926312 10.0375 0.144776 8.05384 0.144714Z" fill="white"/>
<path d="M6.33245 4.47439C6.3706 4.47439 6.40838 4.46687 6.44362 4.45228C6.47886 4.43768 6.51089 4.41628 6.53786 4.3893C6.56484 4.36233 6.58624 4.3303 6.60084 4.29506C6.61543 4.25982 6.62295 4.22204 6.62295 4.18389C6.62295 4.14574 6.61543 4.10797 6.60084 4.07272C6.58624 4.03748 6.56484 4.00546 6.53786 3.97848C6.51089 3.95151 6.47886 3.93011 6.44362 3.91551C6.40838 3.90091 6.3706 3.8934 6.33245 3.8934C6.2554 3.8934 6.1815 3.92401 6.12702 3.97849C6.07254 4.03297 6.04193 4.10687 6.04193 4.18392C6.04193 4.26097 6.07254 4.33487 6.12702 4.38936C6.1815 4.44384 6.2554 4.47439 6.33245 4.47439ZM5.70689 4.9124C5.78151 4.9124 5.85307 4.88276 5.90584 4.82999C5.95861 4.77722 5.98825 4.70566 5.98825 4.63104C5.98825 4.55641 5.95861 4.48485 5.90584 4.43208C5.85307 4.37932 5.78151 4.34967 5.70689 4.34967C5.63226 4.34967 5.5607 4.37932 5.50793 4.43208C5.45517 4.48485 5.42552 4.55641 5.42552 4.63104C5.42552 4.70566 5.45517 4.77722 5.50793 4.82999C5.5607 4.88276 5.63226 4.9124 5.70689 4.9124ZM5.10515 5.1911C5.14027 5.19163 5.17515 5.18517 5.20775 5.1721C5.24035 5.15903 5.27003 5.1396 5.29505 5.11495C5.32008 5.0903 5.33995 5.06092 5.35351 5.02852C5.36708 4.99612 5.37406 4.96134 5.37406 4.92622C5.37406 4.89109 5.36708 4.85632 5.35351 4.82392C5.33995 4.79152 5.32008 4.76214 5.29505 4.73749C5.27003 4.71284 5.24035 4.69341 5.20775 4.68034C5.17515 4.66727 5.14027 4.66081 5.10515 4.66134C5.03489 4.66134 4.96751 4.68925 4.91783 4.73893C4.86815 4.78861 4.84024 4.85599 4.84024 4.92625C4.84024 4.99651 4.86815 5.06389 4.91783 5.11357C4.96751 5.16325 5.03489 5.1911 5.10515 5.1911ZM6.86016 4.12837C6.8998 4.12893 6.93915 4.12161 6.97594 4.10683C7.01272 4.09206 7.0462 4.07011 7.07443 4.04228C7.10266 4.01445 7.12508 3.98129 7.14038 3.94471C7.15568 3.90814 7.16356 3.8689 7.16356 3.82926C7.16356 3.78961 7.15568 3.75037 7.14038 3.7138C7.12508 3.67723 7.10266 3.64406 7.07443 3.61623C7.0462 3.5884 7.01272 3.56646 6.97594 3.55168C6.93915 3.5369 6.8998 3.52958 6.86016 3.53014C6.78188 3.53172 6.70734 3.56392 6.65253 3.61984C6.59773 3.67575 6.56703 3.75093 6.56703 3.82923C6.56703 3.90752 6.59773 3.9827 6.65253 4.03862C6.70734 4.09453 6.78188 4.1268 6.86016 4.12837ZM4.65365 4.56299C4.70696 4.56299 4.75809 4.54182 4.79579 4.50412C4.83349 4.46642 4.85466 4.41529 4.85466 4.36198C4.85466 4.30867 4.83349 4.25754 4.79579 4.21984C4.75809 4.18215 4.70696 4.16097 4.65365 4.16097C4.60034 4.16097 4.54921 4.18215 4.51151 4.21984C4.47382 4.25754 4.45264 4.30867 4.45264 4.36198C4.45264 4.41529 4.47382 4.46642 4.51151 4.50412C4.54921 4.54182 4.60034 4.56299 4.65365 4.56299ZM4.1574 5.66401C4.22072 5.66401 4.28146 5.63885 4.32624 5.59407C4.37102 5.54929 4.39618 5.48856 4.39618 5.42523C4.39618 5.3619 4.37102 5.30116 4.32624 5.25638C4.28146 5.2116 4.22072 5.18644 4.1574 5.18644C4.09407 5.18644 4.03333 5.2116 3.98855 5.25638C3.94377 5.30116 3.91861 5.3619 3.91861 5.42523C3.91861 5.48856 3.94377 5.54929 3.98855 5.59407C4.03333 5.63885 4.09407 5.66401 4.1574 5.66401ZM4.46114 3.77328C4.53744 3.77328 4.61062 3.74297 4.66458 3.68901C4.71854 3.63505 4.74885 3.56187 4.74885 3.48557C4.74885 3.40926 4.71854 3.33608 4.66458 3.28212C4.61062 3.22817 4.53744 3.19785 4.46114 3.19785C4.38483 3.19785 4.31165 3.22817 4.25769 3.28212C4.20374 3.33608 4.17342 3.40926 4.17342 3.48557C4.17342 3.56187 4.20374 3.63505 4.25769 3.68901C4.31165 3.74297 4.38483 3.77328 4.46114 3.77328ZM5.23754 4.31175C5.2672 4.31244 5.2967 4.3072 5.3243 4.29633C5.3519 4.28546 5.37705 4.26918 5.39827 4.24845C5.41949 4.22771 5.43635 4.20295 5.44787 4.17561C5.45938 4.14827 5.46531 4.1189 5.46531 4.08924C5.46531 4.05957 5.45938 4.03021 5.44787 4.00287C5.43635 3.97553 5.41949 3.95076 5.39827 3.93003C5.37705 3.9093 5.3519 3.89302 5.3243 3.88215C5.2967 3.87128 5.2672 3.86603 5.23754 3.86672C5.17943 3.86808 5.12415 3.89212 5.08353 3.9337C5.0429 3.97528 5.02016 4.03111 5.02016 4.08924C5.02016 4.14737 5.0429 4.20319 5.08353 4.24478C5.12415 4.28636 5.17943 4.3104 5.23754 4.31175ZM9.07477 3.6476C9.14379 3.6476 9.20998 3.62018 9.25878 3.57138C9.30758 3.52258 9.33499 3.45639 9.33499 3.38737C9.33499 3.31836 9.30758 3.25217 9.25878 3.20337C9.20998 3.15457 9.14379 3.12715 9.07477 3.12715C9.00576 3.12715 8.93957 3.15457 8.89076 3.20337C8.84196 3.25217 8.81455 3.31836 8.81455 3.38737C8.81455 3.45639 8.84196 3.52258 8.89076 3.57138C8.93957 3.62018 9.00576 3.6476 9.07477 3.6476ZM3.61729 5.02695C3.638 5.02695 3.65852 5.02287 3.67765 5.01495C3.69679 5.00702 3.71418 4.9954 3.72883 4.98075C3.74347 4.9661 3.75509 4.94872 3.76302 4.92958C3.77095 4.91044 3.77503 4.88993 3.77503 4.86922C3.77503 4.8485 3.77095 4.82799 3.76302 4.80885C3.75509 4.78971 3.74347 4.77233 3.72883 4.75768C3.71418 4.74303 3.69679 4.73141 3.67765 4.72348C3.65852 4.71556 3.638 4.71148 3.61729 4.71148C3.57546 4.71148 3.53533 4.7281 3.50575 4.75768C3.47617 4.78726 3.45955 4.82738 3.45955 4.86922C3.45955 4.91105 3.47617 4.95117 3.50575 4.98075C3.53533 5.01033 3.57546 5.02695 3.61729 5.02695ZM4.14137 4.87841C4.16634 4.87904 4.19119 4.87467 4.21445 4.86555C4.23771 4.85644 4.25891 4.84275 4.2768 4.82531C4.29469 4.80787 4.3089 4.78703 4.31861 4.76401C4.32832 4.74099 4.33332 4.71626 4.33332 4.69128C4.33332 4.66629 4.32832 4.64156 4.31861 4.61854C4.3089 4.59552 4.29469 4.57468 4.2768 4.55724C4.25891 4.5398 4.23771 4.52612 4.21445 4.517C4.19119 4.50788 4.16634 4.50351 4.14137 4.50415C4.09231 4.50503 4.04556 4.52513 4.01118 4.56014C3.9768 4.59514 3.95754 4.64224 3.95754 4.69131C3.95754 4.74037 3.9768 4.78747 4.01118 4.82248C4.04556 4.85748 4.09231 4.87753 4.14137 4.87841ZM3.18569 4.28538C3.2186 4.2859 3.25128 4.27986 3.28184 4.26762C3.31239 4.25538 3.34021 4.23718 3.36366 4.21409C3.38712 4.191 3.40575 4.16347 3.41846 4.13311C3.43117 4.10275 3.43772 4.07017 3.43772 4.03725C3.43772 4.00434 3.43117 3.97175 3.41846 3.94139C3.40575 3.91103 3.38712 3.88351 3.36366 3.86041C3.34021 3.83732 3.31239 3.81913 3.28184 3.80689C3.25128 3.79465 3.2186 3.78861 3.18569 3.78913C3.12055 3.79014 3.05843 3.81673 3.01273 3.86315C2.96702 3.90958 2.94141 3.97211 2.94141 4.03725C2.94141 4.1024 2.96702 4.16493 3.01273 4.21135C3.05843 4.25778 3.12055 4.28436 3.18569 4.28538ZM4.16193 4.17597C4.17915 4.17634 4.19627 4.17327 4.21229 4.16694C4.22831 4.16061 4.2429 4.15114 4.25521 4.13909C4.26752 4.12704 4.27731 4.11266 4.28398 4.09678C4.29066 4.0809 4.2941 4.06385 4.2941 4.04663C4.2941 4.0294 4.29066 4.01235 4.28398 3.99647C4.27731 3.9806 4.26752 3.96621 4.25521 3.95417C4.2429 3.94212 4.22831 3.93265 4.21229 3.92632C4.19627 3.91998 4.17915 3.91691 4.16193 3.91729C4.12811 3.91802 4.09593 3.93197 4.07227 3.95614C4.04861 3.98032 4.03536 4.0128 4.03536 4.04663C4.03536 4.08046 4.04861 4.11294 4.07227 4.13711C4.09593 4.16129 4.12811 4.17524 4.16193 4.17597ZM5.89384 3.97432C5.92555 3.97432 5.95695 3.96808 5.98624 3.95594C6.01554 3.94381 6.04216 3.92602 6.06458 3.9036C6.08701 3.88117 6.10479 3.85455 6.11693 3.82526C6.12906 3.79596 6.13531 3.76456 6.13531 3.73285C6.13531 3.70114 6.12906 3.66974 6.11693 3.64044C6.10479 3.61114 6.08701 3.58452 6.06458 3.5621C6.04216 3.53968 6.01554 3.52189 5.98624 3.50975C5.95695 3.49762 5.92555 3.49137 5.89384 3.49137C5.82979 3.49137 5.76837 3.51681 5.72309 3.5621C5.6778 3.60738 5.65236 3.6688 5.65236 3.73285C5.65236 3.79689 5.6778 3.85831 5.72309 3.9036C5.76837 3.94888 5.82979 3.97432 5.89384 3.97432ZM7.72826 4.1141C7.75592 4.11457 7.78341 4.10953 7.8091 4.09926C7.8348 4.089 7.85819 4.07373 7.87792 4.05433C7.89765 4.03493 7.91333 4.0118 7.92402 3.98628C7.93472 3.96077 7.94023 3.93337 7.94023 3.90571C7.94023 3.87804 7.93472 3.85064 7.92402 3.82513C7.91333 3.79961 7.89765 3.77648 7.87792 3.75708C7.85819 3.73768 7.8348 3.72241 7.8091 3.71215C7.78341 3.70188 7.75592 3.69684 7.72826 3.69731C7.67387 3.69862 7.62214 3.72115 7.58414 3.76008C7.54613 3.79902 7.52486 3.85127 7.52486 3.90568C7.52486 3.96008 7.54613 4.01233 7.58414 4.05126C7.62214 4.0902 7.67387 4.11279 7.72826 4.1141ZM8.10972 2.81397C8.12763 2.81397 8.14536 2.81045 8.16191 2.80359C8.17846 2.79674 8.19349 2.78669 8.20616 2.77403C8.21882 2.76136 8.22887 2.74633 8.23572 2.72978C8.24258 2.71323 8.24611 2.6955 8.24611 2.67759C8.24611 2.65968 8.24258 2.64194 8.23572 2.62539C8.22887 2.60885 8.21882 2.59381 8.20616 2.58115C8.19349 2.56848 8.17846 2.55843 8.16191 2.55158C8.14536 2.54473 8.12763 2.5412 8.10972 2.5412C8.07355 2.5412 8.03886 2.55557 8.01328 2.58115C7.9877 2.60672 7.97333 2.64141 7.97333 2.67759C7.97333 2.71376 7.9877 2.74845 8.01328 2.77403C8.03886 2.7996 8.07355 2.81397 8.10972 2.81397ZM8.55311 3.59909C8.61356 3.59909 8.67152 3.57508 8.71426 3.53234C8.757 3.4896 8.78101 3.43164 8.78101 3.37119C8.78101 3.31075 8.757 3.25279 8.71426 3.21005C8.67152 3.16731 8.61356 3.1433 8.55311 3.1433C8.49267 3.1433 8.4347 3.16731 8.39197 3.21005C8.34923 3.25279 8.32522 3.31075 8.32522 3.37119C8.32522 3.43164 8.34923 3.4896 8.39197 3.53234C8.4347 3.57508 8.49267 3.59909 8.55311 3.59909ZM6.27639 3.46615C6.3385 3.46615 6.39806 3.44148 6.44198 3.39756C6.4859 3.35364 6.51057 3.29407 6.51057 3.23196C6.51057 3.16985 6.4859 3.11029 6.44198 3.06637C6.39806 3.02245 6.3385 2.99778 6.27639 2.99778C6.21428 2.99778 6.15471 3.02245 6.11079 3.06637C6.06687 3.11029 6.0422 3.16985 6.0422 3.23196C6.0422 3.29407 6.06687 3.35364 6.11079 3.39756C6.15471 3.44148 6.21428 3.46615 6.27639 3.46615ZM3.34288 5.71675C3.39328 5.71675 3.44162 5.69673 3.47726 5.66109C3.5129 5.62545 3.53292 5.57712 3.53292 5.52672C3.53292 5.47632 3.5129 5.42798 3.47726 5.39234C3.44162 5.3567 3.39328 5.33668 3.34288 5.33668C3.29248 5.33668 3.24415 5.3567 3.20851 5.39234C3.17287 5.42798 3.15285 5.47632 3.15285 5.52672C3.15285 5.57712 3.17287 5.62545 3.20851 5.66109C3.24415 5.69673 3.29248 5.71675 3.34288 5.71675Z" fill="#AFDAD2" stroke="white" stroke-width="0.147661"/>
<path d="M9.60203 3.69731C9.67879 3.69731 9.7524 3.66682 9.80668 3.61255C9.86095 3.55827 9.89144 3.48466 9.89144 3.4079C9.89144 3.33115 9.86095 3.25754 9.80668 3.20326C9.7524 3.14899 9.67879 3.1185 9.60203 3.1185C9.52528 3.1185 9.45167 3.14899 9.39739 3.20326C9.34312 3.25754 9.31263 3.33115 9.31263 3.4079C9.31263 3.48466 9.34312 3.55827 9.39739 3.61255C9.45167 3.66682 9.52528 3.69731 9.60203 3.69731ZM6.80952 3.50129C6.8444 3.50129 6.87894 3.49442 6.91117 3.48107C6.9434 3.46772 6.97268 3.44815 6.99735 3.42349C7.02202 3.39882 7.04158 3.36953 7.05493 3.33731C7.06828 3.30508 7.07515 3.27054 7.07515 3.23565C7.07515 3.20077 7.06828 3.16622 7.05493 3.134C7.04158 3.10177 7.02202 3.07248 6.99735 3.04782C6.97268 3.02315 6.9434 3.00358 6.91117 2.99023C6.87894 2.97688 6.8444 2.97001 6.80952 2.97001C6.73906 2.97001 6.6715 2.998 6.62168 3.04782C6.57186 3.09763 6.54388 3.1652 6.54388 3.23565C6.54388 3.3061 6.57186 3.37367 6.62168 3.42349C6.6715 3.4733 6.73906 3.50129 6.80952 3.50129ZM3.72317 3.7154C3.78849 3.7154 3.85114 3.68945 3.89732 3.64326C3.94351 3.59707 3.96946 3.53443 3.96946 3.46911C3.96946 3.40379 3.94351 3.34115 3.89732 3.29496C3.85114 3.24878 3.78849 3.22283 3.72317 3.22283C3.65786 3.22283 3.59521 3.24878 3.54903 3.29496C3.50284 3.34115 3.47689 3.40379 3.47689 3.46911C3.47689 3.53443 3.50284 3.59707 3.54903 3.64326C3.59521 3.68945 3.65786 3.7154 3.72317 3.7154ZM5.09382 3.07955C5.16934 3.07955 5.24177 3.04955 5.29517 2.99615C5.34857 2.94274 5.37857 2.87032 5.37857 2.7948C5.37857 2.71928 5.34857 2.64685 5.29517 2.59345C5.24177 2.54005 5.16934 2.51005 5.09382 2.51005C5.0183 2.51005 4.94587 2.54005 4.89247 2.59345C4.83907 2.64685 4.80907 2.71928 4.80907 2.7948C4.80907 2.87032 4.83907 2.94274 4.89247 2.99615C4.94587 3.04955 5.0183 3.07955 5.09382 3.07955ZM10.4359 3.463C10.4825 3.463 10.5273 3.44447 10.5603 3.41149C10.5933 3.3785 10.6118 3.33377 10.6118 3.28712C10.6118 3.24047 10.5933 3.19574 10.5603 3.16275C10.5273 3.12977 10.4825 3.11124 10.4359 3.11124C10.3893 3.11124 10.3445 3.12977 10.3115 3.16275C10.2785 3.19574 10.26 3.24047 10.26 3.28712C10.26 3.33377 10.2785 3.3785 10.3115 3.41149C10.3445 3.44447 10.3893 3.463 10.4359 3.463ZM4.30967 2.74478C4.33936 2.74527 4.36886 2.73984 4.39643 2.72881C4.42401 2.71779 4.44911 2.70139 4.47028 2.68056C4.49145 2.65973 4.50827 2.6349 4.51974 2.60751C4.53122 2.58012 4.53713 2.55072 4.53713 2.52102C4.53713 2.49133 4.53122 2.46193 4.51974 2.43454C4.50827 2.40715 4.49145 2.38232 4.47028 2.36149C4.44911 2.34066 4.42401 2.32426 4.39643 2.31324C4.36886 2.30221 4.33936 2.29678 4.30967 2.29727C4.25096 2.29824 4.19499 2.32224 4.15381 2.36409C4.11264 2.40595 4.08956 2.46231 4.08956 2.52102C4.08956 2.57974 4.11264 2.6361 4.15381 2.67796C4.19499 2.71981 4.25096 2.74381 4.30967 2.74478ZM5.31857 3.74679C5.36907 3.74679 5.4175 3.72673 5.4532 3.69102C5.48891 3.65531 5.50897 3.60688 5.50897 3.55639C5.50897 3.50589 5.48891 3.45746 5.4532 3.42176C5.4175 3.38605 5.36907 3.36599 5.31857 3.36599C5.26807 3.36599 5.21963 3.38605 5.18392 3.42177C5.14821 3.45748 5.12814 3.50591 5.12814 3.55642C5.12814 3.60692 5.14821 3.65536 5.18392 3.69107C5.21963 3.72678 5.26807 3.74679 5.31857 3.74679ZM5.77467 3.33357C5.80036 3.33403 5.82588 3.32936 5.84975 3.31984C5.87362 3.31032 5.89536 3.29614 5.91369 3.27814C5.93202 3.26013 5.94657 3.23865 5.95651 3.21495C5.96645 3.19125 5.97157 3.16582 5.97157 3.14012C5.97157 3.11442 5.96645 3.08898 5.95651 3.06529C5.94657 3.04159 5.93202 3.02011 5.91369 3.0021C5.89536 2.98409 5.87362 2.96992 5.84975 2.9604C5.82588 2.95088 5.80036 2.94621 5.77467 2.94667C5.72395 2.94756 5.67562 2.96834 5.64007 3.00452C5.60452 3.0407 5.58461 3.0894 5.58461 3.14012C5.58461 3.19084 5.60452 3.23954 5.64007 3.27572C5.67562 3.3119 5.72395 3.33267 5.77467 3.33357ZM2.78703 3.82499C2.83868 3.82499 2.88822 3.80447 2.92474 3.76795C2.96127 3.73142 2.98179 3.68189 2.98179 3.63024C2.98179 3.57858 2.96127 3.52905 2.92474 3.49253C2.88822 3.456 2.83868 3.43548 2.78703 3.43548C2.73538 3.43548 2.68585 3.456 2.64932 3.49253C2.6128 3.52905 2.59228 3.57858 2.59228 3.63024C2.59228 3.68189 2.6128 3.73142 2.64932 3.76795C2.68585 3.80447 2.73538 3.82499 2.78703 3.82499ZM3.32339 3.06769C3.37077 3.06769 3.41622 3.04887 3.44972 3.01536C3.48323 2.98186 3.50205 2.93641 3.50205 2.88903C3.50205 2.84164 3.48323 2.7962 3.44972 2.76269C3.41622 2.72919 3.37077 2.71036 3.32339 2.71036C3.276 2.71036 3.23056 2.72919 3.19705 2.76269C3.16355 2.7962 3.14472 2.84164 3.14472 2.88903C3.14472 2.93641 3.16355 2.98186 3.19705 3.01536C3.23056 3.04887 3.276 3.06769 3.32339 3.06769ZM7.44548 3.62237C7.4852 3.62237 7.52329 3.6066 7.55138 3.57851C7.57946 3.55043 7.59524 3.51234 7.59524 3.47262C7.59524 3.4329 7.57946 3.39481 7.55138 3.36673C7.52329 3.33864 7.4852 3.32287 7.44548 3.32287C7.40577 3.32287 7.36768 3.33864 7.33959 3.36673C7.31151 3.39481 7.29573 3.4329 7.29573 3.47262C7.29573 3.51234 7.31151 3.55043 7.33959 3.57851C7.36768 3.6066 7.40577 3.62237 7.44548 3.62237ZM2.64962 4.81091C2.71526 4.81091 2.77822 4.78483 2.82464 4.73841C2.87106 4.69199 2.89714 4.62903 2.89714 4.56338C2.89714 4.49774 2.87106 4.43478 2.82464 4.38836C2.77822 4.34194 2.71526 4.31586 2.64962 4.31586C2.58397 4.31586 2.52101 4.34194 2.47459 4.38836C2.42817 4.43478 2.40209 4.49774 2.40209 4.56338C2.40209 4.62903 2.42817 4.69199 2.47459 4.73841C2.52101 4.78483 2.58397 4.81091 2.64962 4.81091ZM2.09681 4.39358C2.12153 4.39403 2.14609 4.38954 2.16905 4.38039C2.19202 4.37124 2.21293 4.35761 2.23057 4.34028C2.24821 4.32296 2.26222 4.3023 2.27178 4.2795C2.28134 4.2567 2.28627 4.23223 2.28627 4.20751C2.28627 4.18279 2.28134 4.15831 2.27178 4.13551C2.26222 4.11272 2.24821 4.09205 2.23057 4.07473C2.21293 4.05741 2.19202 4.04377 2.16905 4.03462C2.14609 4.02547 2.12153 4.02099 2.09681 4.02143C2.04804 4.02231 2.00157 4.0423 1.96739 4.0771C1.93321 4.1119 1.91406 4.15873 1.91406 4.20751C1.91406 4.25628 1.93321 4.30311 1.96739 4.33791C2.00157 4.37271 2.04804 4.3927 2.09681 4.39358ZM7.95626 3.57889C8.0059 3.57889 8.05352 3.55916 8.08862 3.52406C8.12373 3.48895 8.14345 3.44134 8.14345 3.39169C8.14345 3.34205 8.12373 3.29444 8.08862 3.25933C8.05352 3.22422 8.0059 3.2045 7.95626 3.2045C7.90661 3.2045 7.859 3.22422 7.82389 3.25933C7.78879 3.29444 7.76906 3.34205 7.76906 3.39169C7.76906 3.44134 7.78879 3.48895 7.82389 3.52406C7.859 3.55916 7.90661 3.57889 7.95626 3.57889ZM3.70104 4.55077C3.77757 4.55077 3.85097 4.52037 3.90508 4.46626C3.9592 4.41214 3.9896 4.33874 3.9896 4.26221C3.9896 4.18568 3.9592 4.11229 3.90508 4.05817C3.85097 4.00406 3.77757 3.97365 3.70104 3.97365C3.62451 3.97365 3.55111 4.00406 3.497 4.05817C3.44288 4.11229 3.41248 4.18568 3.41248 4.26221C3.41248 4.33874 3.44288 4.41214 3.497 4.46626C3.55111 4.52037 3.62451 4.55077 3.70104 4.55077Z" fill="#AFDAD2" stroke="white" stroke-width="0.147661"/>
<path d="M10.0571 3.23886C10.0954 3.23941 10.1335 3.23234 10.1691 3.21805C10.2046 3.20376 10.237 3.18255 10.2643 3.15563C10.2916 3.12872 10.3133 3.09664 10.3281 3.06127C10.3429 3.0259 10.3505 2.98794 10.3505 2.9496C10.3505 2.91126 10.3429 2.8733 10.3281 2.83793C10.3133 2.80256 10.2916 2.77049 10.2643 2.74357C10.237 2.71666 10.2046 2.69544 10.1691 2.68115C10.1335 2.66686 10.0954 2.65979 10.0571 2.66035C9.98108 2.66144 9.90857 2.6924 9.85522 2.74653C9.80187 2.80066 9.77196 2.8736 9.77196 2.9496C9.77196 3.0256 9.80187 3.09855 9.85522 3.15267C9.90857 3.2068 9.98108 3.23776 10.0571 3.23886ZM2.80266 5.96448C2.84719 5.96448 2.8899 5.94679 2.92139 5.91531C2.95287 5.88382 2.97056 5.84111 2.97056 5.79658C2.97056 5.75205 2.95287 5.70935 2.92139 5.67786C2.8899 5.64638 2.84719 5.62869 2.80266 5.62869C2.75813 5.62869 2.71543 5.64638 2.68394 5.67786C2.65245 5.70935 2.63477 5.75205 2.63477 5.79658C2.63477 5.84111 2.65245 5.88382 2.68394 5.91531C2.71543 5.94679 2.75813 5.96448 2.80266 5.96448ZM6.99649 2.68956C7.02712 2.69005 7.05754 2.68445 7.08598 2.67307C7.11442 2.66169 7.14031 2.64477 7.16214 2.62329C7.18398 2.6018 7.20132 2.57619 7.21316 2.54794C7.22499 2.51969 7.23109 2.48936 7.23109 2.45873C7.23109 2.4281 7.22499 2.39777 7.21316 2.36952C7.20132 2.34127 7.18398 2.31565 7.16214 2.29417C7.14031 2.27269 7.11442 2.25576 7.08598 2.24439C7.05754 2.23301 7.02712 2.2274 6.99649 2.2279C6.93592 2.22888 6.87816 2.25363 6.83567 2.29681C6.79318 2.33999 6.76937 2.39815 6.76937 2.45873C6.76937 2.51931 6.79318 2.57746 6.83567 2.62064C6.87816 2.66383 6.93592 2.68858 6.99649 2.68956ZM11.7924 3.00745C11.8549 3.00745 11.9149 2.98261 11.9591 2.93838C12.0033 2.89416 12.0282 2.83418 12.0282 2.77163C12.0282 2.70909 12.0033 2.64911 11.9591 2.60488C11.9149 2.56066 11.8549 2.53581 11.7924 2.53581C11.7298 2.53581 11.6698 2.56066 11.6256 2.60488C11.5814 2.64911 11.5565 2.70909 11.5565 2.77163C11.5565 2.83418 11.5814 2.89416 11.6256 2.93838C11.6698 2.98261 11.7298 3.00745 11.7924 3.00745ZM8.65552 2.88734C8.70532 2.88734 8.75309 2.86755 8.78831 2.83233C8.82353 2.79711 8.84331 2.74934 8.84331 2.69954C8.84331 2.64973 8.82353 2.60196 8.78831 2.56675C8.75309 2.53153 8.70532 2.51174 8.65552 2.51174C8.60571 2.51174 8.55794 2.53153 8.52272 2.56675C8.4875 2.60196 8.46772 2.64973 8.46772 2.69954C8.46772 2.74934 8.4875 2.79711 8.52272 2.83233C8.55794 2.86755 8.60571 2.88734 8.65552 2.88734ZM4.56215 5.36426C4.62707 5.36426 4.68932 5.33847 4.73523 5.29257C4.78113 5.24666 4.80692 5.1844 4.80692 5.11949C4.80692 5.05457 4.78113 4.99231 4.73523 4.94641C4.68932 4.9005 4.62707 4.87472 4.56215 4.87472C4.49723 4.87472 4.43497 4.9005 4.38907 4.94641C4.34317 4.99231 4.31738 5.05457 4.31738 5.11949C4.31738 5.1844 4.34317 5.24666 4.38907 5.29257C4.43497 5.33847 4.49723 5.36426 4.56215 5.36426ZM9.29233 2.96814C9.35449 2.96814 9.4141 2.94345 9.45805 2.89949C9.50201 2.85554 9.5267 2.79593 9.5267 2.73377C9.5267 2.67161 9.50201 2.612 9.45805 2.56805C9.4141 2.5241 9.35449 2.4994 9.29233 2.4994C9.23017 2.4994 9.17056 2.5241 9.12661 2.56805C9.08266 2.612 9.05796 2.67161 9.05796 2.73377C9.05796 2.79593 9.08266 2.85554 9.12661 2.89949C9.17056 2.94345 9.23017 2.96814 9.29233 2.96814ZM10.9518 3.19658C11.0034 3.19658 11.0528 3.17612 11.0892 3.13969C11.1256 3.10326 11.1461 3.05386 11.1461 3.00234C11.1461 2.95083 11.1256 2.90142 11.0892 2.86499C11.0528 2.82857 11.0034 2.8081 10.9518 2.8081C10.9003 2.8081 10.8509 2.82857 10.8145 2.86499C10.7781 2.90142 10.7576 2.95083 10.7576 3.00234C10.7576 3.05386 10.7781 3.10326 10.8145 3.13969C10.8509 3.17612 10.9003 3.19658 10.9518 3.19658ZM12.7853 3.61754C12.8317 3.61754 12.8763 3.59909 12.9091 3.56625C12.9419 3.53341 12.9604 3.48888 12.9604 3.44244C12.9604 3.396 12.9419 3.35147 12.9091 3.31863C12.8763 3.28579 12.8317 3.26734 12.7853 3.26734C12.7389 3.26734 12.6943 3.28579 12.6615 3.31863C12.6286 3.35147 12.6102 3.396 12.6102 3.44244C12.6102 3.48888 12.6286 3.53341 12.6615 3.56625C12.6943 3.59909 12.7389 3.61754 12.7853 3.61754ZM6.23412 2.33114C6.27414 2.33114 6.31252 2.31524 6.34082 2.28694C6.36912 2.25864 6.38502 2.22026 6.38502 2.18024C6.38502 2.14022 6.36912 2.10183 6.34082 2.07353C6.31252 2.04523 6.27414 2.02934 6.23412 2.02934C6.19409 2.02934 6.15571 2.04523 6.12741 2.07353C6.09911 2.10183 6.08321 2.14022 6.08321 2.18024C6.08321 2.22026 6.09911 2.25864 6.12741 2.28694C6.15571 2.31524 6.19409 2.33114 6.23412 2.33114ZM7.60603 1.91696C7.66462 1.91696 7.72081 1.89369 7.76224 1.85226C7.80367 1.81083 7.82694 1.75464 7.82694 1.69605C7.82694 1.63746 7.80367 1.58127 7.76224 1.53984C7.72081 1.49841 7.66462 1.47514 7.60603 1.47514C7.54744 1.47514 7.49125 1.49841 7.44982 1.53984C7.40839 1.58127 7.38512 1.63746 7.38512 1.69605C7.38512 1.75464 7.40839 1.81083 7.44982 1.85226C7.49125 1.89369 7.54744 1.91696 7.60603 1.91696ZM12.7462 3.10108C12.8234 3.10108 12.8974 3.07042 12.952 3.01584C13.0066 2.96125 13.0373 2.88723 13.0373 2.81004C13.0373 2.73285 13.0066 2.65882 12.952 2.60424C12.8974 2.54966 12.8234 2.519 12.7462 2.519C12.669 2.519 12.595 2.54966 12.5404 2.60424C12.4858 2.65882 12.4552 2.73285 12.4552 2.81004C12.4552 2.88723 12.4858 2.96125 12.5404 3.01584C12.595 3.07042 12.669 3.10108 12.7462 3.10108ZM7.27271 3.21999C7.34566 3.21999 7.41562 3.19101 7.4672 3.13943C7.51878 3.08785 7.54776 3.01789 7.54776 2.94494C7.54776 2.872 7.51878 2.80204 7.4672 2.75046C7.41562 2.69888 7.34566 2.6699 7.27271 2.6699C7.19977 2.6699 7.12981 2.69888 7.07823 2.75046C7.02665 2.80204 6.99767 2.872 6.99767 2.94494C6.99767 3.01789 7.02665 3.08785 7.07823 3.13943C7.12981 3.19101 7.19977 3.21999 7.27271 3.21999ZM8.2902 2.18937C8.36297 2.18937 8.43276 2.16046 8.48422 2.10901C8.53567 2.05755 8.56458 1.98776 8.56458 1.91499C8.56458 1.84223 8.53567 1.77244 8.48422 1.72098C8.43276 1.66953 8.36297 1.64062 8.2902 1.64062C8.21744 1.64062 8.14766 1.66952 8.09621 1.72097C8.04476 1.77242 8.01586 1.8422 8.01586 1.91496C8.01586 1.98773 8.04476 2.05751 8.09621 2.10896C8.14766 2.16041 8.21744 2.18937 8.2902 2.18937ZM10.6685 2.52354C10.7062 2.52408 10.7436 2.51714 10.7786 2.5031C10.8136 2.48906 10.8454 2.46821 10.8722 2.44177C10.8991 2.41532 10.9204 2.3838 10.9349 2.34904C10.9495 2.31428 10.957 2.27698 10.957 2.2393C10.957 2.20162 10.9495 2.16432 10.9349 2.12956C10.9204 2.0948 10.8991 2.06328 10.8722 2.03683C10.8454 2.01038 10.8136 1.98954 10.7786 1.9755C10.7436 1.96146 10.7062 1.95451 10.6685 1.95506C10.5939 1.95615 10.5226 1.98658 10.4702 2.03976C10.4178 2.09295 10.3884 2.16463 10.3884 2.2393C10.3884 2.31397 10.4178 2.38565 10.4702 2.43883C10.5226 2.49202 10.5939 2.52245 10.6685 2.52354ZM13.6109 4.31024C13.6468 4.311 13.6824 4.3046 13.7157 4.29142C13.749 4.27823 13.7793 4.25854 13.8049 4.23347C13.8305 4.20841 13.8509 4.17849 13.8647 4.14547C13.8786 4.11244 13.8858 4.07698 13.8858 4.04115C13.8858 4.00533 13.8786 3.96986 13.8647 3.93684C13.8509 3.90381 13.8305 3.87389 13.8049 3.84883C13.7793 3.82377 13.749 3.80407 13.7157 3.79089C13.6824 3.77771 13.6468 3.77131 13.6109 3.77207C13.5406 3.77356 13.4736 3.80256 13.4243 3.85287C13.3751 3.90317 13.3475 3.97076 13.3475 4.04115C13.3475 4.11155 13.3751 4.17914 13.4243 4.22944C13.4736 4.27974 13.5406 4.30874 13.6109 4.31024ZM7.54392 1.05267C7.56409 1.05267 7.58407 1.0487 7.6027 1.04098C7.62134 1.03326 7.63828 1.02194 7.65254 1.00768C7.66681 0.99341 7.67813 0.976475 7.68585 0.957836C7.69357 0.939198 7.69754 0.919221 7.69754 0.899047C7.69754 0.878873 7.69357 0.858896 7.68585 0.840257C7.67813 0.821619 7.66681 0.804683 7.65254 0.790418C7.63828 0.776153 7.62134 0.764837 7.6027 0.757116C7.58407 0.749396 7.56409 0.745422 7.54392 0.745422C7.50317 0.745422 7.4641 0.761608 7.43529 0.790418C7.40648 0.819228 7.39029 0.858303 7.39029 0.899047C7.39029 0.939791 7.40648 0.978866 7.43529 1.00768C7.4641 1.03649 7.50317 1.05267 7.54392 1.05267Z" fill="#AFDAD2" stroke="white" stroke-width="0.147661"/>
<path d="M9.99851 2.68352C10.0669 2.68352 10.1326 2.65633 10.181 2.60795C10.2293 2.55956 10.2565 2.49393 10.2565 2.4255C10.2565 2.35707 10.2293 2.29144 10.181 2.24306C10.1326 2.19467 10.0669 2.16748 9.99851 2.16748C9.93077 2.16852 9.86616 2.19616 9.81862 2.24443C9.77109 2.2927 9.74444 2.35773 9.74444 2.42547C9.74444 2.49322 9.77109 2.55825 9.81862 2.60651C9.86616 2.65478 9.93077 2.68248 9.99851 2.68352ZM9.65334 2.18793C9.68069 2.18793 9.70776 2.18254 9.73303 2.17208C9.75829 2.16161 9.78125 2.14627 9.80059 2.12694C9.81992 2.1076 9.83526 2.08464 9.84573 2.05938C9.85619 2.03411 9.86158 2.00703 9.86158 1.97969C9.86158 1.95234 9.85619 1.92526 9.84573 1.9C9.83526 1.87473 9.81992 1.85178 9.80059 1.83244C9.78125 1.8131 9.75829 1.79776 9.73303 1.7873C9.70776 1.77683 9.68069 1.77145 9.65334 1.77145C9.59811 1.77145 9.54514 1.79339 9.50609 1.83244C9.46704 1.87149 9.4451 1.92446 9.4451 1.97969C9.4451 2.03492 9.46704 2.08788 9.50609 2.12694C9.54514 2.16599 9.59811 2.18793 9.65334 2.18793ZM8.60688 1.73455C8.64197 1.73455 8.67671 1.72764 8.70913 1.71421C8.74155 1.70079 8.77101 1.6811 8.79582 1.65629C8.82064 1.63148 8.84032 1.60202 8.85375 1.5696C8.86718 1.53718 8.87409 1.50243 8.87409 1.46734C8.87409 1.43225 8.86718 1.39751 8.85375 1.36509C8.84032 1.33267 8.82064 1.30321 8.79582 1.2784C8.77101 1.25359 8.74155 1.2339 8.70913 1.22047C8.67671 1.20705 8.64197 1.20013 8.60688 1.20013C8.53601 1.20013 8.46804 1.22829 8.41793 1.2784C8.36782 1.32851 8.33967 1.39648 8.33967 1.46734C8.33967 1.53821 8.36782 1.60618 8.41793 1.65629C8.46804 1.7064 8.53601 1.73455 8.60688 1.73455ZM5.65952 2.82414C5.69886 2.82414 5.7378 2.81639 5.77414 2.80134C5.81048 2.78629 5.8435 2.76423 5.87131 2.73642C5.89912 2.7086 5.92118 2.67559 5.93623 2.63925C5.95129 2.60291 5.95903 2.56396 5.95903 2.52463C5.95903 2.4853 5.95129 2.44635 5.93623 2.41002C5.92118 2.37368 5.89912 2.34066 5.87131 2.31285C5.8435 2.28504 5.81048 2.26297 5.77414 2.24792C5.7378 2.23287 5.69886 2.22512 5.65952 2.22512C5.58009 2.22512 5.50391 2.25668 5.44774 2.31285C5.39157 2.36902 5.36002 2.4452 5.36002 2.52463C5.36002 2.60407 5.39157 2.68025 5.44774 2.73642C5.50391 2.79258 5.58009 2.82414 5.65952 2.82414ZM3.81162 2.3831C3.8333 2.38352 3.85484 2.37961 3.875 2.3716C3.89515 2.36359 3.9135 2.35165 3.92898 2.33646C3.94446 2.32128 3.95676 2.30316 3.96516 2.28316C3.97355 2.26317 3.97788 2.2417 3.97788 2.22001C3.97788 2.19833 3.97355 2.17686 3.96516 2.15687C3.95676 2.13687 3.94446 2.11875 3.92898 2.10357C3.9135 2.08838 3.89515 2.07643 3.875 2.06842C3.85484 2.06042 3.8333 2.05651 3.81162 2.05692C3.76891 2.05775 3.72822 2.07529 3.69831 2.10579C3.66839 2.13628 3.65164 2.1773 3.65164 2.22001C3.65164 2.26273 3.66839 2.30375 3.69831 2.33424C3.72822 2.36474 3.76891 2.38228 3.81162 2.3831ZM4.58706 2.27375C4.64314 2.27375 4.69693 2.25147 4.73659 2.21181C4.77625 2.17215 4.79853 2.11836 4.79853 2.06228C4.79853 2.00619 4.77625 1.9524 4.73659 1.91274C4.69693 1.87308 4.64314 1.8508 4.58706 1.8508C4.53097 1.8508 4.47718 1.87308 4.43752 1.91274C4.39786 1.9524 4.37558 2.00619 4.37558 2.06228C4.37558 2.11836 4.39786 2.17215 4.43752 2.21181C4.47718 2.25147 4.53097 2.27375 4.58706 2.27375ZM11.6916 3.55476C11.7262 3.55529 11.7605 3.54894 11.7926 3.53607C11.8247 3.52321 11.8539 3.5041 11.8785 3.47984C11.9032 3.45559 11.9227 3.42667 11.9361 3.39479C11.9494 3.3629 11.9563 3.32868 11.9563 3.29411C11.9563 3.25955 11.9494 3.22533 11.9361 3.19344C11.9227 3.16156 11.9032 3.13265 11.8785 3.10839C11.8539 3.08413 11.8247 3.06502 11.7926 3.05216C11.7605 3.03929 11.7262 3.03294 11.6916 3.03347C11.6225 3.03347 11.5562 3.06093 11.5073 3.10982C11.4584 3.1587 11.431 3.22501 11.431 3.29415C11.431 3.36328 11.4584 3.42959 11.5073 3.47847C11.5562 3.52736 11.6225 3.55476 11.6916 3.55476ZM8.83217 2.18091C8.87056 2.18091 8.90737 2.16566 8.93452 2.13852C8.96166 2.11138 8.97691 2.07456 8.97691 2.03618C8.97691 1.99779 8.96166 1.96098 8.93452 1.93384C8.90737 1.90669 8.87056 1.89144 8.83217 1.89144C8.79379 1.89144 8.75697 1.90669 8.72983 1.93384C8.70269 1.96098 8.68744 1.99779 8.68744 2.03618C8.68744 2.07456 8.70269 2.11138 8.72983 2.13852C8.75697 2.16566 8.79379 2.18091 8.83217 2.18091ZM5.75884 2.21006C5.83165 2.21006 5.90147 2.18114 5.95296 2.12966C6.00444 2.07817 6.03336 2.00835 6.03336 1.93554C6.03336 1.86273 6.00444 1.7929 5.95296 1.74142C5.90147 1.68993 5.83165 1.66101 5.75884 1.66101C5.68603 1.66101 5.6162 1.68993 5.56472 1.74142C5.51323 1.7929 5.48431 1.86273 5.48431 1.93554C5.48431 2.00835 5.51323 2.07817 5.56472 2.12966C5.6162 2.18114 5.68603 2.21006 5.75884 2.21006ZM1.73085 5.57505C1.76219 5.57505 1.79323 5.56887 1.82218 5.55688C1.85114 5.54489 1.87745 5.5273 1.89961 5.50514C1.92177 5.48298 1.93935 5.45667 1.95135 5.42772C1.96334 5.39876 1.96951 5.36773 1.96951 5.33638C1.96951 5.30504 1.96334 5.27401 1.95135 5.24505C1.93935 5.2161 1.92177 5.18979 1.89961 5.16762C1.87745 5.14546 1.85114 5.12788 1.82218 5.11589C1.79323 5.10389 1.76219 5.09772 1.73085 5.09772C1.66755 5.09772 1.60685 5.12287 1.56209 5.16762C1.51733 5.21238 1.49219 5.27309 1.49219 5.33638C1.49219 5.39968 1.51733 5.46039 1.56209 5.50514C1.60685 5.5499 1.66755 5.57505 1.73085 5.57505ZM2.36664 5.65742C2.44018 5.65742 2.51072 5.62821 2.56273 5.5762C2.61473 5.52419 2.64395 5.45366 2.64395 5.38011C2.64395 5.30656 2.61473 5.23603 2.56273 5.18402C2.51072 5.13202 2.44018 5.1028 2.36664 5.1028C2.29309 5.1028 2.22256 5.13202 2.17055 5.18402C2.11854 5.23603 2.08933 5.30656 2.08933 5.38011C2.08933 5.45366 2.11854 5.52419 2.17055 5.5762C2.22256 5.62821 2.29309 5.65742 2.36664 5.65742ZM4.60744 3.21274C4.64248 3.21274 4.67718 3.20583 4.70956 3.19242C4.74193 3.17901 4.77135 3.15936 4.79613 3.13458C4.82091 3.1098 4.84056 3.08038 4.85397 3.04801C4.86738 3.01563 4.87429 2.98093 4.87429 2.94589C4.87429 2.91085 4.86738 2.87615 4.85397 2.84377C4.84056 2.8114 4.82091 2.78198 4.79613 2.7572C4.77135 2.73242 4.74193 2.71277 4.70956 2.69935C4.67718 2.68594 4.64248 2.67904 4.60744 2.67904C4.53666 2.67904 4.46878 2.70716 4.41873 2.75721C4.36868 2.80726 4.34056 2.87514 4.34056 2.94592C4.34056 3.0167 4.36868 3.08458 4.41873 3.13463C4.46878 3.18468 4.53666 3.21274 4.60744 3.21274ZM1.8093 4.98099C1.86415 4.98099 1.91677 4.9592 1.95556 4.92041C1.99435 4.88161 2.01614 4.829 2.01614 4.77414C2.01614 4.71928 1.99435 4.66667 1.95556 4.62788C1.91677 4.58909 1.86415 4.56729 1.8093 4.56729C1.75444 4.56729 1.70182 4.58909 1.66303 4.62788C1.62424 4.66667 1.60245 4.71928 1.60245 4.77414C1.60245 4.829 1.62424 4.88161 1.66303 4.92041C1.70182 4.9592 1.75444 4.98099 1.8093 4.98099ZM10.1492 1.97848C10.2093 1.97848 10.2668 1.95463 10.3093 1.91218C10.3517 1.86973 10.3756 1.81216 10.3756 1.75212C10.3756 1.69209 10.3517 1.63452 10.3093 1.59207C10.2668 1.54962 10.2093 1.52577 10.1492 1.52577C10.0892 1.52577 10.0316 1.54962 9.98917 1.59207C9.94672 1.63452 9.92288 1.69209 9.92288 1.75212C9.92288 1.81216 9.94672 1.86973 9.98917 1.91218C10.0316 1.95463 10.0892 1.97848 10.1492 1.97848ZM3.84821 2.92889C3.90283 2.92889 3.95522 2.90719 3.99385 2.86857C4.03248 2.82994 4.05418 2.77755 4.05418 2.72292C4.05418 2.6683 4.03248 2.61591 3.99385 2.57728C3.95522 2.53865 3.90283 2.51695 3.84821 2.51695C3.79359 2.51695 3.74121 2.53865 3.70258 2.57727C3.66396 2.61589 3.64227 2.66827 3.64227 2.72289C3.64227 2.77751 3.66396 2.82989 3.70258 2.86851C3.74121 2.90714 3.79359 2.92889 3.84821 2.92889Z" fill="#AFDAD2" stroke="white" stroke-width="0.147661"/>
<path d="M2.84848 5.40979C2.92509 5.40979 2.99857 5.37935 3.05274 5.32518C3.10691 5.27101 3.13734 5.19754 3.13734 5.12092C3.13734 5.04431 3.10691 4.97084 3.05274 4.91667C2.99857 4.8625 2.92509 4.83206 2.84848 4.83206C2.77187 4.83206 2.6984 4.8625 2.64422 4.91667C2.59005 4.97084 2.55962 5.04431 2.55962 5.12092C2.55962 5.19754 2.59005 5.27101 2.64422 5.32518C2.6984 5.37935 2.77187 5.40979 2.84848 5.40979ZM12.2389 3.444C12.2764 3.44455 12.3136 3.43763 12.3485 3.42365C12.3833 3.40968 12.415 3.38892 12.4417 3.36258C12.4684 3.33624 12.4896 3.30486 12.5041 3.27025C12.5186 3.23564 12.5261 3.19849 12.5261 3.16097C12.5261 3.12345 12.5186 3.08631 12.5041 3.0517C12.4896 3.01708 12.4684 2.9857 12.4417 2.95936C12.415 2.93303 12.3833 2.91227 12.3485 2.89829C12.3136 2.88431 12.2764 2.8774 12.2389 2.87795C12.1638 2.87795 12.0918 2.90777 12.0387 2.96085C11.9856 3.01393 11.9558 3.08593 11.9558 3.161C11.9558 3.23607 11.9856 3.30807 12.0387 3.36115C12.0918 3.41424 12.1638 3.444 12.2389 3.444ZM13.2593 3.41031C13.2851 3.41076 13.3108 3.40607 13.3348 3.39649C13.3588 3.38691 13.3807 3.37264 13.3991 3.35452C13.4176 3.3364 13.4322 3.31479 13.4422 3.29094C13.4522 3.2671 13.4574 3.2415 13.4574 3.21565C13.4574 3.18979 13.4522 3.16419 13.4422 3.14035C13.4322 3.11651 13.4176 3.09489 13.3991 3.07677C13.3807 3.05865 13.3588 3.04438 13.3348 3.03481C13.3108 3.02523 13.2851 3.02053 13.2593 3.02099C13.2082 3.02189 13.1596 3.04279 13.1238 3.0792C13.088 3.11561 13.068 3.16461 13.068 3.21565C13.068 3.26669 13.088 3.31569 13.1238 3.3521C13.1596 3.38851 13.2082 3.40941 13.2593 3.41031ZM6.52966 2.92851C6.58717 2.92851 6.64232 2.90566 6.68298 2.865C6.72365 2.82434 6.74649 2.76919 6.74649 2.71168C6.74649 2.65417 6.72365 2.59902 6.68298 2.55836C6.64232 2.5177 6.58717 2.49485 6.52966 2.49485C6.47216 2.49485 6.41701 2.5177 6.37634 2.55836C6.33568 2.59902 6.31283 2.65417 6.31283 2.71168C6.31283 2.76919 6.33568 2.82434 6.37634 2.865C6.41701 2.90566 6.47216 2.92851 6.52966 2.92851ZM11.2892 2.68477C11.3133 2.68521 11.3373 2.68083 11.3597 2.67191C11.3821 2.66298 11.4025 2.64967 11.4197 2.63277C11.437 2.61586 11.4506 2.59569 11.46 2.57344C11.4693 2.55119 11.4741 2.5273 11.4741 2.50317C11.4741 2.47904 11.4693 2.45515 11.46 2.4329C11.4506 2.41065 11.437 2.39048 11.4197 2.37357C11.4025 2.35667 11.3821 2.34336 11.3597 2.33443C11.3373 2.3255 11.3133 2.32113 11.2892 2.32157C11.2416 2.32244 11.1962 2.34195 11.1629 2.37592C11.1296 2.40988 11.1109 2.45557 11.1109 2.50317C11.1109 2.55077 11.1296 2.59646 11.1629 2.63042C11.1962 2.66438 11.2416 2.6839 11.2892 2.68477ZM11.2112 2.22976C11.2897 2.22976 11.365 2.19855 11.4206 2.14301C11.4761 2.08747 11.5073 2.01213 11.5073 1.93358C11.5073 1.85503 11.4761 1.77969 11.4206 1.72415C11.365 1.6686 11.2897 1.6374 11.2112 1.6374C11.1326 1.6374 11.0573 1.6686 11.0017 1.72415C10.9462 1.77969 10.915 1.85503 10.915 1.93358C10.915 2.01213 10.9462 2.08747 11.0017 2.14301C11.0573 2.19855 11.1326 2.22976 11.2112 2.22976ZM7.55961 2.73454C7.62985 2.73454 7.69721 2.70664 7.74687 2.65698C7.79653 2.60732 7.82443 2.53996 7.82443 2.46972C7.82443 2.39949 7.79653 2.33213 7.74687 2.28247C7.69721 2.2328 7.62985 2.2049 7.55961 2.2049C7.48938 2.2049 7.42202 2.2328 7.37236 2.28247C7.32269 2.33213 7.29479 2.39949 7.29479 2.46972C7.29479 2.53996 7.32269 2.60732 7.37236 2.65698C7.42202 2.70664 7.48938 2.73454 7.55961 2.73454ZM13.1552 4.01453C13.1851 4.01453 13.2146 4.00865 13.2422 3.99723C13.2697 3.98582 13.2948 3.96908 13.3159 3.94799C13.337 3.92689 13.3537 3.90185 13.3651 3.87429C13.3765 3.84673 13.3824 3.81719 13.3824 3.78735C13.3824 3.75752 13.3765 3.72798 13.3651 3.70042C13.3537 3.67286 13.337 3.64782 13.3159 3.62672C13.2948 3.60563 13.2697 3.58889 13.2422 3.57748C13.2146 3.56606 13.1851 3.56018 13.1552 3.56018C13.095 3.56018 13.0372 3.58412 12.9946 3.62672C12.952 3.66932 12.9281 3.72711 12.9281 3.78735C12.9281 3.8476 12.952 3.90539 12.9946 3.94799C13.0372 3.99059 13.095 4.01453 13.1552 4.01453ZM2.31098 6.06559C2.34631 6.06559 2.38021 6.05156 2.40519 6.02657C2.43018 6.00158 2.44422 5.96769 2.44422 5.93235C2.44422 5.89701 2.43018 5.86312 2.40519 5.83814C2.38021 5.81315 2.34631 5.79911 2.31098 5.79911C2.27564 5.79911 2.24175 5.81315 2.21676 5.83814C2.19177 5.86312 2.17773 5.89701 2.17773 5.93235C2.17773 5.96769 2.19177 6.00158 2.21676 6.02657C2.24175 6.05156 2.27564 6.06559 2.31098 6.06559ZM5.11093 2.37123C5.17691 2.37123 5.24018 2.34502 5.28684 2.29837C5.33349 2.25171 5.3597 2.18844 5.3597 2.12246C5.3597 2.05649 5.33349 1.99321 5.28684 1.94656C5.24018 1.89991 5.17691 1.8737 5.11093 1.8737C5.04496 1.8737 4.98168 1.89991 4.93503 1.94656C4.88838 1.99321 4.86217 2.05649 4.86217 2.12246C4.86217 2.18844 4.88838 2.25171 4.93503 2.29837C4.98168 2.34502 5.04496 2.37123 5.11093 2.37123ZM6.92667 1.96563C6.95027 1.96607 6.97373 1.9618 6.99567 1.95306C7.01761 1.94433 7.03758 1.93131 7.05443 1.91477C7.07128 1.89823 7.08466 1.8785 7.0938 1.85673C7.10294 1.83495 7.10764 1.81158 7.10764 1.78797C7.10764 1.76436 7.10294 1.74098 7.0938 1.71921C7.08466 1.69744 7.07128 1.6777 7.05443 1.66116C7.03758 1.64462 7.01761 1.63161 6.99567 1.62287C6.97373 1.61414 6.95027 1.60987 6.92667 1.6103C6.88011 1.61116 6.83576 1.63026 6.80314 1.66348C6.77052 1.69671 6.75225 1.74141 6.75225 1.78797C6.75225 1.83453 6.77052 1.87923 6.80314 1.91245C6.83576 1.94568 6.88011 1.96477 6.92667 1.96563ZM12.083 2.51276C12.1423 2.51276 12.1992 2.4892 12.2411 2.44727C12.283 2.40534 12.3066 2.34848 12.3066 2.28918C12.3066 2.22989 12.283 2.17302 12.2411 2.13109C12.1992 2.08917 12.1423 2.06561 12.083 2.06561C12.0237 2.06561 11.9668 2.08917 11.9249 2.13109C11.883 2.17302 11.8594 2.22989 11.8594 2.28918C11.8594 2.34848 11.883 2.40534 11.9249 2.44727C11.9668 2.4892 12.0237 2.51276 12.083 2.51276ZM6.43011 1.60685C6.46662 1.60685 6.50277 1.59966 6.5365 1.58569C6.57023 1.57172 6.60087 1.55124 6.62669 1.52543C6.6525 1.49961 6.67298 1.46897 6.68695 1.43524C6.70092 1.40151 6.70812 1.36536 6.70812 1.32885C6.70812 1.29234 6.70092 1.25619 6.68695 1.22246C6.67298 1.18873 6.6525 1.15808 6.62669 1.13227C6.60087 1.10645 6.57023 1.08598 6.5365 1.072C6.50277 1.05803 6.46662 1.05084 6.43011 1.05084C6.35638 1.05084 6.28567 1.08013 6.23353 1.13227C6.18139 1.1844 6.1521 1.25512 6.1521 1.32885C6.1521 1.40258 6.18139 1.47329 6.23353 1.52543C6.28567 1.57756 6.35638 1.60685 6.43011 1.60685Z" fill="#AFDAD2" stroke="white" stroke-width="0.147661"/>
<path d="M10.7928 1.87235C10.861 1.87235 10.9264 1.84526 10.9746 1.79705C11.0228 1.74884 11.0499 1.68345 11.0499 1.61527C11.0499 1.54709 11.0228 1.4817 10.9746 1.43349C10.9264 1.38528 10.861 1.35819 10.7928 1.35819C10.7246 1.35819 10.6592 1.38527 10.611 1.43348C10.5628 1.48168 10.5357 1.54707 10.5357 1.61524C10.5357 1.68341 10.5628 1.74879 10.611 1.797C10.6592 1.84521 10.7246 1.87235 10.7928 1.87235ZM5.1786 1.59824C5.23322 1.59824 5.2856 1.57655 5.32422 1.53792C5.36284 1.4993 5.38454 1.44692 5.38454 1.3923C5.38454 1.33768 5.36284 1.2853 5.32422 1.24668C5.2856 1.20806 5.23322 1.18636 5.1786 1.18636C5.12398 1.18636 5.0716 1.20806 5.03298 1.24668C4.99435 1.2853 4.97266 1.33768 4.97266 1.3923C4.97266 1.44692 4.99435 1.4993 5.03298 1.53792C5.0716 1.57655 5.12398 1.59824 5.1786 1.59824ZM5.6731 1.43905C5.70294 1.43905 5.73248 1.43318 5.76005 1.42176C5.78761 1.41034 5.81266 1.39361 5.83375 1.37251C5.85485 1.35141 5.87159 1.32636 5.88301 1.2988C5.89442 1.27123 5.9003 1.24169 5.9003 1.21185C5.9003 1.18202 5.89442 1.15247 5.88301 1.12491C5.87159 1.09734 5.85485 1.0723 5.83375 1.0512C5.81266 1.0301 5.78761 1.01337 5.76005 1.00195C5.73248 0.990529 5.70294 0.984653 5.6731 0.984653C5.61284 0.984653 5.55505 1.00859 5.51244 1.0512C5.46984 1.09381 5.4459 1.1516 5.4459 1.21185C5.4459 1.27211 5.46984 1.3299 5.51244 1.37251C5.55505 1.41512 5.61284 1.43905 5.6731 1.43905ZM9.17477 1.1543C9.24546 1.1543 9.31326 1.12622 9.36325 1.07624C9.41323 1.02625 9.44132 0.958452 9.44132 0.88776C9.44132 0.817068 9.41323 0.749272 9.36325 0.699285C9.31326 0.649298 9.24546 0.621216 9.17477 0.621216C9.10408 0.621216 9.03628 0.649298 8.98629 0.699285C8.93631 0.749272 8.90823 0.817068 8.90823 0.88776C8.90823 0.958452 8.93631 1.02625 8.98629 1.07624C9.03628 1.12622 9.10408 1.1543 9.17477 1.1543ZM8.10381 1.2108C8.13106 1.2108 8.15803 1.20543 8.1832 1.195C8.20837 1.18458 8.23124 1.1693 8.25051 1.15003C8.26977 1.13077 8.28505 1.1079 8.29548 1.08273C8.3059 1.05756 8.31127 1.03058 8.31127 1.00334C8.31127 0.976098 8.3059 0.949122 8.29548 0.923953C8.28505 0.898783 8.26977 0.875914 8.25051 0.85665C8.23124 0.837386 8.20837 0.822105 8.1832 0.81168C8.15803 0.801254 8.13106 0.795888 8.10381 0.795888C8.04879 0.795888 7.99603 0.817745 7.95712 0.85665C7.91822 0.895555 7.89636 0.948322 7.89636 1.00334C7.89636 1.05836 7.91822 1.11113 7.95712 1.15003C7.99603 1.18894 8.04879 1.2108 8.10381 1.2108ZM9.70707 1.46397C9.72816 1.46439 9.74912 1.46059 9.76873 1.4528C9.78833 1.44501 9.80619 1.4334 9.82125 1.41863C9.83631 1.40386 9.84827 1.38623 9.85644 1.36678C9.86461 1.34734 9.86882 1.32645 9.86882 1.30536C9.86882 1.28426 9.86461 1.26338 9.85644 1.24393C9.84827 1.22448 9.83631 1.20686 9.82125 1.19209C9.80619 1.17732 9.78833 1.1657 9.76873 1.15792C9.74912 1.15013 9.72816 1.14633 9.70707 1.14674C9.66554 1.14756 9.62599 1.16462 9.5969 1.19428C9.56782 1.22394 9.55153 1.26382 9.55153 1.30536C9.55153 1.3469 9.56782 1.38678 9.5969 1.41644C9.62599 1.44609 9.66554 1.46316 9.70707 1.46397Z" fill="#AFDAD2" stroke="white" stroke-width="0.147661"/>
<path d="M9.17652 1.70756C9.21515 1.70756 9.2534 1.69995 9.2891 1.68517C9.32479 1.67038 9.35722 1.64871 9.38454 1.6214C9.41185 1.59408 9.43352 1.56165 9.44831 1.52595C9.46309 1.49026 9.4707 1.45201 9.4707 1.41338C9.4707 1.37474 9.46309 1.33649 9.44831 1.3008C9.43352 1.2651 9.41185 1.23267 9.38454 1.20535C9.35722 1.17804 9.32479 1.15637 9.2891 1.14158C9.2534 1.1268 9.21515 1.11919 9.17652 1.11919C9.09849 1.11919 9.02367 1.15018 8.9685 1.20535C8.91333 1.26053 8.88233 1.33535 8.88233 1.41338C8.88233 1.4914 8.91333 1.56622 8.9685 1.6214C9.02367 1.67657 9.09849 1.70756 9.17652 1.70756ZM10.344 1.42208C10.3979 1.42208 10.4496 1.40067 10.4877 1.36255C10.5259 1.32442 10.5473 1.27272 10.5473 1.2188C10.5473 1.16489 10.5259 1.11319 10.4877 1.07506C10.4496 1.03694 10.3979 1.01552 10.344 1.01552C10.2901 1.01552 10.2384 1.03694 10.2003 1.07506C10.1621 1.11319 10.1407 1.16489 10.1407 1.2188C10.1407 1.27272 10.1621 1.32442 10.2003 1.36255C10.2384 1.40067 10.2901 1.42208 10.344 1.42208ZM1.22215 6.38089C1.28988 6.38089 1.35483 6.35399 1.40272 6.3061C1.4506 6.25821 1.47751 6.19326 1.47751 6.12553C1.47751 6.05781 1.4506 5.99286 1.40272 5.94497C1.35483 5.89708 1.28988 5.87018 1.22215 5.87018C1.15443 5.87018 1.08948 5.89708 1.04159 5.94497C0.9937 5.99286 0.966797 6.05781 0.966797 6.12553C0.966797 6.19326 0.9937 6.25821 1.04159 6.3061C1.08948 6.35399 1.15443 6.38089 1.22215 6.38089ZM7.01609 1.40461C7.05256 1.40461 7.08754 1.39012 7.11333 1.36433C7.13911 1.33854 7.1536 1.30357 7.1536 1.2671C7.1536 1.23063 7.13911 1.19566 7.11333 1.16987C7.08754 1.14408 7.05256 1.12959 7.01609 1.12959C6.97963 1.12959 6.94465 1.14408 6.91886 1.16987C6.89308 1.19566 6.87859 1.23063 6.87859 1.2671C6.87859 1.30357 6.89308 1.33854 6.91886 1.36433C6.94465 1.39012 6.97963 1.40461 7.01609 1.40461ZM11.739 2.03398C11.783 2.03398 11.8252 2.0165 11.8564 1.98538C11.8875 1.95426 11.905 1.91206 11.905 1.86805C11.905 1.82404 11.8875 1.78184 11.8564 1.75072C11.8252 1.7196 11.783 1.70212 11.739 1.70212C11.695 1.70212 11.6528 1.7196 11.6217 1.75071C11.5906 1.78182 11.5731 1.82402 11.5731 1.86802C11.5731 1.91202 11.5906 1.95422 11.6217 1.98533C11.6528 2.01644 11.695 2.03398 11.739 2.03398ZM8.63822 1.20399C8.70186 1.20399 8.76289 1.17871 8.80788 1.13371C8.85288 1.08872 8.87816 1.02769 8.87816 0.964054C8.87816 0.90042 8.85288 0.839392 8.80788 0.794396C8.76289 0.7494 8.70186 0.724121 8.63822 0.724121C8.57459 0.724121 8.51356 0.7494 8.46857 0.794396C8.42357 0.839392 8.39829 0.90042 8.39829 0.964054C8.39829 1.02769 8.42357 1.08872 8.46857 1.13371C8.51356 1.17871 8.57459 1.20399 8.63822 1.20399ZM3.15903 4.84743C3.19534 4.84743 3.23129 4.84028 3.26483 4.82638C3.29837 4.81249 3.32885 4.79212 3.35452 4.76645C3.38019 4.74078 3.40056 4.7103 3.41445 4.67676C3.42834 4.64322 3.43549 4.60727 3.43549 4.57096C3.43549 4.53466 3.42834 4.49871 3.41445 4.46517C3.40056 4.43162 3.38019 4.40115 3.35452 4.37547C3.32885 4.3498 3.29837 4.32944 3.26483 4.31554C3.23129 4.30165 3.19534 4.2945 3.15903 4.2945C3.08571 4.2945 3.01539 4.32363 2.96354 4.37547C2.91169 4.42732 2.88257 4.49764 2.88257 4.57096C2.88257 4.64429 2.91169 4.71461 2.96354 4.76645C3.01539 4.8183 3.08571 4.84743 3.15903 4.84743Z" fill="#AFDAD2" stroke="white" stroke-width="0.147661"/>
<path d="M10.8024 3.54181L10.5171 3.53503L10.2318 3.54157L9.94649 3.5614L9.66132 3.59425L9.37645 3.63979L9.09182 3.69731L8.80767 3.76626L8.52395 3.84573L8.24065 3.93488L7.95784 4.03262L7.67557 4.13792L7.39372 4.24969L7.1123 4.36678L6.83136 4.48805L6.55078 4.6124L6.27063 4.73863L5.71141 4.99265L5.43235 5.11852L5.15352 5.24238L4.875 5.36347L4.59679 5.48111L4.31881 5.59469L4.04102 5.70362L3.7634 5.80765L3.48597 5.90623L3.20866 5.99926L2.93147 6.08659L2.6544 6.16812L2.37728 6.24385L2.10027 6.31388L1.8232 6.37824L1.54607 6.43715L1.26894 6.49073L0.991691 6.53936L0.687587 6.58744L0.67416 6.67998C0.583439 7.30605 0.573357 7.94117 0.644161 8.56981L0.663515 8.74176L1.06512 8.56352L1.34515 8.43723L1.90437 8.1832L2.18343 8.0574L2.46213 7.9339L2.74047 7.81378L3.01832 7.69814L3.29582 7.58806L3.57282 7.48476L3.84935 7.38919L4.12539 7.30228L4.40101 7.22505L4.67614 7.15833L4.95079 7.10269L5.22507 7.05896L5.49906 7.02739L5.77274 7.00834L6.0463 7.00205L6.3198 7.00864L6.5933 7.02787L6.86704 7.05969L7.14103 7.10366L7.41525 7.15936L7.68996 7.2262L7.9651 7.30343L8.24065 7.39028L8.51669 7.48578L8.79328 7.58903L9.07028 7.69892L9.34772 7.81444L9.62563 7.93438L9.90391 8.05776L10.1826 8.18333L10.7412 8.43705L11.0209 8.56321L11.3009 8.68762L11.5813 8.80956L11.862 8.92822L12.1428 9.04296L12.4238 9.15322L12.7051 9.25858L12.9866 9.35867L13.2681 9.45321L13.5498 9.542L13.8315 9.62492L14.1133 9.70197L14.3951 9.77322L14.6769 9.83872L15.0732 9.92309L15.1061 9.80999C15.2929 9.16815 15.3919 8.50397 15.4004 7.83555L15.401 7.74229L15.4004 7.6483L15.3985 7.54766C15.3747 6.64118 15.1846 5.74678 14.8376 4.90901L14.812 4.84792L14.7662 4.7422L14.4782 4.61264L14.1981 4.48853L13.9176 4.36745L13.6366 4.25048L13.3552 4.13889L13.0734 4.03365L12.7911 3.93597L12.5083 3.84688L12.225 3.76741L11.9413 3.6984L11.657 3.6407L11.3725 3.59503L11.0877 3.56195L10.8024 3.54181ZM10.5142 3.66186L10.7936 3.6684L11.073 3.68793L11.3525 3.72029L11.6319 3.76505L11.9113 3.82166L12.1907 3.88952L12.4702 3.96784L12.7496 4.05585L13.029 4.1525L13.3084 4.25677L13.5879 4.36763L13.8673 4.48388L14.1467 4.60454L14.4262 4.72835L14.6695 4.83782C15.0426 5.69485 15.247 6.61575 15.2716 7.55014L15.2736 7.64909L15.2742 7.7415L15.2736 7.83392C15.2652 8.49087 15.1679 9.14366 14.9843 9.77449L14.7056 9.71522L14.4262 9.65026L14.1467 9.57961L13.8673 9.50323L13.5879 9.42097L13.3084 9.33297L13.029 9.23916L12.7496 9.13979L12.4702 9.03515L12.1907 8.9255L11.9113 8.81137L11.6319 8.69325L11.3525 8.57168L11.073 8.44757L10.7936 8.32159L10.2347 8.06768L9.95532 7.94176L9.67589 7.81795L9.39646 7.69735L9.11704 7.58104L8.83761 7.47018L8.55818 7.36591L8.27876 7.26926L7.99933 7.18132L7.7199 7.10293L7.44047 7.03507L7.16105 6.97846L6.88162 6.9337L6.60219 6.90135L6.32276 6.88181L6.04334 6.87528L5.76391 6.88181L5.48448 6.90135L5.20506 6.9337L4.92563 6.97846L4.6462 7.03507L4.36677 7.10293L4.08735 7.18132L3.80792 7.26926L3.52849 7.36591L3.24906 7.47018L2.96964 7.58104L2.69021 7.69735L2.41078 7.81795L2.13136 7.94176L1.85193 8.06768L1.29307 8.32159L1.01365 8.44757L0.770206 8.55565C0.700616 7.93776 0.710535 7.3135 0.799721 6.69813L1.01359 6.66432L1.29301 6.61533L1.57244 6.5612L1.85187 6.50174L2.13129 6.43684L2.41072 6.3662L2.69015 6.28981L2.96958 6.20756L3.249 6.11949L3.52843 6.02575L3.80786 5.92638L4.08729 5.82174L4.36671 5.71209L4.64614 5.59796L4.92557 5.47978L5.20499 5.35833L5.48442 5.23416L5.76385 5.10817L6.3227 4.85427L6.60213 4.72835L6.88156 4.60454L7.16099 4.48388L7.44041 4.36763L7.71984 4.25677L7.99927 4.1525L8.27869 4.05585L8.55812 3.96784L8.83755 3.88952L9.11698 3.82166L9.3964 3.76499L9.67589 3.72023L9.95532 3.68793L10.2347 3.6684L10.5142 3.66186Z" fill="white"/>
<path d="M10.5153 3.63165L10.7961 3.63819L11.0769 3.65784L11.3576 3.69032L11.6383 3.73526L11.919 3.79211L12.1995 3.86028L12.4799 3.9389L12.7602 4.02721L13.0403 4.12404L13.3207 4.22867L13.6006 4.33972L13.8804 4.45615L14.1601 4.57693L14.4397 4.7008L14.6938 4.81529C15.0764 5.69042 15.2837 6.6321 15.3039 7.587L15.3049 7.64893L15.3055 7.74171L15.3049 7.83431C15.2964 8.50338 15.196 9.1681 15.0065 9.80984L14.6999 9.7447L14.4199 9.67962L14.1398 9.60886L13.8599 9.53229L13.5798 9.44985L13.2999 9.36167L13.02 9.26768L12.7401 9.16812L12.4602 9.06331L12.1804 8.95353L11.9006 8.83922L11.6209 8.72098L11.3413 8.59941L11.0617 8.47518L10.7822 8.34914L10.2234 8.09529L9.94412 7.96949L9.66499 7.84574L9.38593 7.72526L9.10699 7.60914L8.82816 7.49858L8.54904 7.39443L8.27034 7.29802L7.99176 7.21032L7.7133 7.13224L7.43496 7.06462L7.15674 7.00825L6.87852 6.96367L6.60049 6.9315L6.32239 6.91208L6.04441 6.90555L5.76638 6.91208L5.48834 6.9315L5.21025 6.96367L4.93203 7.00825L4.65381 7.06462L4.37547 7.13224L4.09701 7.21026L3.81843 7.29802L3.53979 7.39443L3.26127 7.49833L2.98233 7.60902L2.70326 7.72514L2.42408 7.84562L2.14483 7.96937L1.86546 8.09523L1.30655 8.3492L1.027 8.47524L0.745942 8.60014C0.670056 7.95895 0.679513 7.31054 0.774066 6.67185L1.00946 6.63453L1.28834 6.5856L1.56729 6.53165L1.84611 6.47238L2.12499 6.40754L2.40382 6.33708L2.6827 6.26087L2.96158 6.17874L3.24053 6.09086L3.51941 5.99729L3.79835 5.8981L4.07736 5.79359L4.35642 5.68411L4.63548 5.5701L4.91461 5.4521L5.19385 5.33072L5.4731 5.20661L5.75247 5.08062L6.31138 4.82672L6.59099 4.70073L6.87072 4.57675L7.15051 4.45602L7.43036 4.33954L7.71039 4.22849L7.99018 4.12404L8.27034 4.02715L8.55061 3.9389L8.83101 3.86028L9.11152 3.79217L9.39216 3.73532L9.6728 3.69032L9.95361 3.65784L10.2344 3.63819L10.5153 3.63165Z" fill="#7DB0BC" stroke="white" stroke-width="0.590645"/>
<path d="M6.04409 7.01501L6.32352 7.02155L6.60295 7.04108L6.88237 7.07344L7.1618 7.1182L7.44123 7.17481L7.72066 7.24267L8.00008 7.32105L8.27951 7.40899L8.55894 7.50565L8.83836 7.60992L9.11779 7.72078L9.39722 7.83709L9.67665 7.95769L9.95607 8.0815L10.2355 8.20742L10.5149 8.33437L10.7944 8.46132L11.0738 8.58731L11.3532 8.71148L11.6326 8.83299L11.9121 8.95111L12.1915 9.06524L12.4709 9.17489L12.7503 9.27952L13.0298 9.3789L13.3092 9.47264L13.5886 9.56077L13.8681 9.64302L14.1475 9.71935L14.4269 9.78999L14.7063 9.85495L14.9455 9.90576C14.6283 10.9239 14.0911 11.8599 13.3719 12.6473C12.6528 13.4348 11.7693 14.0545 10.784 14.4626C9.00147 15.2009 6.99865 15.2009 5.21613 14.4625C3.43362 13.7241 2.0174 12.308 1.27901 10.5255C1.03535 9.93722 0.869974 9.31954 0.787109 8.68825L1.01434 8.58731L1.29377 8.46132L1.5732 8.33431L1.85262 8.20742L2.13205 8.0815L2.41148 7.95769L2.6909 7.83709L2.97033 7.72078L3.24976 7.60992L3.52919 7.50565L3.80861 7.40899L4.08804 7.32105L4.36747 7.24267L4.6469 7.17481L4.92632 7.1182L5.20575 7.07344L5.48518 7.04108L5.7646 7.02155L6.04409 7.01501Z" fill="#5C7DA2"/>
<path d="M6.60202 8.89874V9.83579H8.27858V11.1299H9.95514V12.015H11.6317V12.3886H13.3083V12.7151C12.297 13.7947 10.9805 14.5403 9.53458 14.8525C8.08862 15.1648 6.58183 15.0287 5.21516 14.4626C3.65275 13.8154 2.36463 12.6441 1.57227 11.15V10.277H3.24883V9.10922H4.92539V8.89874H6.60202Z" fill="#444876"/>
<path d="M6.65993 8.84149V9.77854H8.33649V11.0726H10.0131V11.9577H11.6896V12.3313H13.3662L13.3663 12.6532C13.3286 12.6943 13.2903 12.7351 13.2517 12.7755L13.2516 12.4457H11.6896V14.0111C11.6516 14.0335 11.6134 14.0555 11.5751 14.0772V12.0721L10.0131 12.0721V14.7322C9.97495 14.7432 9.93679 14.7539 9.8985 14.7642V11.187H8.33649V15.0085C8.29833 15.0103 8.2601 15.0118 8.22194 15.013V9.89297H6.65993V14.8918C6.62164 14.8847 6.58348 14.8772 6.54532 14.8694L6.54538 8.95586H4.98331V9.05203L4.98337 14.3615C4.94496 14.344 4.9068 14.3262 4.86875 14.308L4.86881 9.16646H3.30674V10.2197V13.3001C3.26824 13.2676 3.23007 13.2347 3.19225 13.2014V10.3342H1.63018L1.63012 11.2557C1.5908 11.1844 1.55258 11.1124 1.51562 11.0397L1.51575 10.2197H3.19231V9.05203H4.86887V8.84149H6.65993Z" fill="white"/>
<path d="M7.99934 0C10.0355 5.76008e-05 11.9896 0.802251 13.4384 2.23283C14.8873 3.6634 15.7143 5.60717 15.7402 7.64312L15.7408 7.74153L15.7402 7.83987C15.7143 9.87582 14.8873 11.8196 13.4384 13.2502C11.9896 14.6807 10.0355 15.4829 7.99934 15.483C5.94619 15.4829 3.97715 14.6673 2.52535 13.2155C1.07355 11.7638 0.257893 9.79473 0.257812 7.74159C0.257845 5.68841 1.07348 3.71934 2.52528 2.26751C3.97709 0.815695 5.94616 4.81211e-05 7.99934 0ZM7.99934 0.254206C6.01359 0.254254 4.10919 1.04311 2.70506 2.44724C1.30092 3.85138 0.512067 5.75578 0.512019 7.74153C0.512083 9.72726 1.30095 11.6316 2.70508 13.0358C4.10921 14.4399 6.0136 15.2287 7.99934 15.2288C9.96858 15.2287 11.8585 14.4529 13.2598 13.0693C14.6611 11.6857 15.4609 9.80575 15.486 7.83666L15.4866 7.74153L15.486 7.64639C15.4609 5.67729 14.6611 3.79734 13.2598 2.41373C11.8586 1.03013 9.9686 0.254269 7.99934 0.254206Z" fill="#444876"/>
</g>
<defs>
<clipPath id="clip0_203_1406">
<rect width="16" height="16" fill="white"/>
</clipPath>
</defs>
</svg>
