<svg width="16" height="16" viewBox="0 0 16 16" fill="currentColor" xmlns="http://www.w3.org/2000/svg">
<g clip-path="url(#clip0_203_1304)">
<path d="M3.42755 10.0788C3.42755 10.9984 2.68424 11.7418 1.76455 11.7418C0.84487 11.7418 0.101562 10.9984 0.101562 10.0788C0.101562 9.15908 0.84487 8.41577 1.76455 8.41577H3.42755V10.0788ZM4.25904 10.0788C4.25904 9.15908 5.00235 8.41577 5.92204 8.41577C6.84172 8.41577 7.58503 9.15908 7.58503 10.0788V14.2362C7.58503 15.1559 6.84172 15.8992 5.92204 15.8992C5.00235 15.8992 4.25904 15.1559 4.25904 14.2362V10.0788Z" fill="#E01E5A"/>
<path d="M5.92096 3.40155C5.00128 3.40155 4.25797 2.65824 4.25797 1.73855C4.25797 0.818869 5.00128 0.0755615 5.92096 0.0755615C6.84065 0.0755615 7.58395 0.818869 7.58395 1.73855V3.40155H5.92096ZM5.92096 4.24564C6.84065 4.24564 7.58395 4.98895 7.58395 5.90863C7.58395 6.82832 6.84065 7.57162 5.92096 7.57162H1.75088C0.831198 7.57162 0.0878906 6.82832 0.0878906 5.90863C0.0878906 4.98895 0.831198 4.24564 1.75088 4.24564H5.92096Z" fill="#36C5F0"/>
<path d="M12.5852 5.90863C12.5852 4.98895 13.3285 4.24564 14.2482 4.24564C15.1679 4.24564 15.9112 4.98895 15.9112 5.90863C15.9112 6.82832 15.1679 7.57162 14.2482 7.57162H12.5852V5.90863ZM11.7537 5.90863C11.7537 6.82832 11.0104 7.57162 10.0907 7.57162C9.17104 7.57162 8.42773 6.82832 8.42773 5.90863V1.73855C8.42773 0.818869 9.17104 0.0755615 10.0907 0.0755615C11.0104 0.0755615 11.7537 0.818869 11.7537 1.73855V5.90863Z" fill="#2EB67D"/>
<path d="M10.0907 12.5733C11.0104 12.5733 11.7537 13.3166 11.7537 14.2362C11.7537 15.1559 11.0104 15.8992 10.0907 15.8992C9.17104 15.8992 8.42773 15.1559 8.42773 14.2362V12.5733H10.0907ZM10.0907 11.7418C9.17104 11.7418 8.42773 10.9984 8.42773 10.0788C8.42773 9.15908 9.17104 8.41577 10.0907 8.41577H14.2608C15.1805 8.41577 15.9238 9.15908 15.9238 10.0788C15.9238 10.9984 15.1805 11.7418 14.2608 11.7418H10.0907Z" fill="#ECB22E"/>
</g>
<defs>
<clipPath id="clip0_203_1304">
<rect width="16" height="16" fill="white"/>
</clipPath>
</defs>
</svg>
