<svg width="16" height="16" viewBox="0 0 16 16" fill="currentColor" xmlns="http://www.w3.org/2000/svg">
<g clip-path="url(#clip0_203_1300)">
<path d="M2.59975 11.321C2.69631 11.2245 2.82907 11.1682 2.96988 11.1682H15.7393C15.9727 11.1682 16.0893 11.4498 15.9244 11.6147L13.4019 14.1372C13.3053 14.2338 13.1725 14.2901 13.0317 14.2901H0.262315C0.0289729 14.2901 -0.0876979 14.0085 0.0772505 13.8435L2.59975 11.321Z" fill="url(#paint0_linear_203_1300)"/>
<path d="M2.59975 1.90288C2.70033 1.80632 2.8331 1.75 2.96988 1.75H15.7393C15.9727 1.75 16.0893 2.03162 15.9244 2.19657L13.4019 4.71907C13.3053 4.81563 13.1725 4.87195 13.0317 4.87195H0.262315C0.0289729 4.87195 -0.0876979 4.59033 0.0772505 4.42538L2.59975 1.90288Z" fill="url(#paint1_linear_203_1300)"/>
<path d="M13.4019 6.58177C13.3053 6.48522 13.1725 6.42889 13.0317 6.42889H0.262315C0.0289729 6.42889 -0.0876979 6.71051 0.0772505 6.87546L2.59975 9.39797C2.69631 9.49452 2.82907 9.55085 2.96988 9.55085H15.7393C15.9727 9.55085 16.0893 9.26923 15.9244 9.10428L13.4019 6.58177Z" fill="url(#paint2_linear_203_1300)"/>
</g>
<defs>
<linearGradient id="paint0_linear_203_1300" x1="14.5195" y1="0.24312" x2="5.682" y2="17.1704" gradientUnits="userSpaceOnUse">
<stop stop-color="#00FFA3"/>
<stop offset="1" stop-color="#DC1FFF"/>
</linearGradient>
<linearGradient id="paint1_linear_203_1300" x1="10.6552" y1="-1.77432" x2="1.81778" y2="15.153" gradientUnits="userSpaceOnUse">
<stop stop-color="#00FFA3"/>
<stop offset="1" stop-color="#DC1FFF"/>
</linearGradient>
<linearGradient id="paint2_linear_203_1300" x1="12.575" y1="-0.77203" x2="3.73759" y2="16.1553" gradientUnits="userSpaceOnUse">
<stop stop-color="#00FFA3"/>
<stop offset="1" stop-color="#DC1FFF"/>
</linearGradient>
<clipPath id="clip0_203_1300">
<rect width="16" height="16" fill="white"/>
</clipPath>
</defs>
</svg>
