<svg width="16" height="16" viewBox="0 0 16 16" fill="none" xmlns="http://www.w3.org/2000/svg">
<path d="M7.04342 15.9898C5.54573 15.8819 4.06547 15.5049 3.15763 15.0002C2.64053 14.7127 2.24657 14.3595 2.09198 14.0446L2 13.8573V7.98117V2.10501L2.07278 1.95723C2.39803 1.29689 3.43605 0.70159 4.88507 0.344399C5.37695 0.223142 6.08703 0.102389 6.66633 0.0414972C7.25787 -0.020697 8.82579 -0.0112346 9.41585 0.0581825C10.9842 0.242434 12.3187 0.654927 13.141 1.20965C13.4582 1.42356 13.7837 1.76586 13.8939 2.00147L13.9884 2.20348L13.9804 8.06186L13.9722 13.9202L13.8964 14.0744C13.8547 14.1592 13.7286 14.326 13.6162 14.445C12.9324 15.1699 11.4656 15.7062 9.5416 15.9347C9.14942 15.9812 7.44575 16.0189 7.04342 15.9898ZM9.80341 10.9547C9.79766 10.9397 9.57379 10.7403 9.30591 10.5115C9.03798 10.2827 8.80729 10.0848 8.79317 10.0717C8.7791 10.0585 8.82854 10.012 8.90316 9.9683C8.97779 9.92455 9.12066 9.80292 9.22079 9.69792C9.51341 9.39105 9.65154 9.01192 9.65154 8.51536C9.65154 8.02648 9.5026 7.63205 9.20429 7.33092C8.90366 7.02742 8.55848 6.89705 8.05575 6.89705C7.28088 6.89705 6.68577 7.34917 6.49583 8.08223C6.43049 8.33436 6.43084 8.8438 6.49652 9.06742C6.66781 9.65055 7.13433 10.0741 7.71494 10.1735C7.91142 10.2072 7.93803 10.2217 8.07198 10.3682C8.1516 10.4552 8.31498 10.6289 8.43504 10.7542L8.65329 10.982H9.2336C9.55279 10.982 9.80916 10.9698 9.80341 10.9547ZM7.81335 9.32998C7.67365 9.25711 7.62083 9.20061 7.54117 9.03867C7.47964 8.91355 7.46912 8.84242 7.46843 8.5468C7.46775 8.24636 7.4773 8.18142 7.54155 8.05098C7.64665 7.83755 7.7915 7.73648 8.01557 7.7203C8.32748 7.69767 8.50748 7.85073 8.60185 8.21861C8.71754 8.66961 8.59035 9.14911 8.31279 9.30823C8.16715 9.39173 7.94994 9.40117 7.81335 9.32998ZM5.24121 10.1672C5.84962 10.0518 6.19499 9.69798 6.19499 9.19005C6.19499 8.73942 5.97202 8.47686 5.35576 8.2018C5.00299 8.0443 4.87521 7.94542 4.87521 7.82992C4.87521 7.73423 4.99647 7.6293 5.13764 7.60292C5.27547 7.57723 5.64104 7.64073 5.85692 7.72792L6.03788 7.80098V7.40048V6.99992L5.84148 6.95636C5.7201 6.92942 5.46504 6.91323 5.17373 6.91405C4.7611 6.91405 4.6803 6.92411 4.52502 6.9858C4.07143 7.16586 3.85618 7.47261 3.85963 7.93405C3.86285 8.36598 4.09073 8.63542 4.65785 8.8778C4.99248 9.02086 5.1266 9.12973 5.1266 9.25842C5.1266 9.53192 4.67092 9.56561 4.18847 9.32773C4.05633 9.26261 3.93763 9.20398 3.92467 9.19748C3.9117 9.19098 3.9011 9.37811 3.9011 9.6133C3.9011 10.039 3.90155 10.041 3.97863 10.0704C4.26887 10.1807 4.91035 10.2299 5.24121 10.1672ZM12.1968 9.77223V9.41092H11.6469H11.097V8.16967V6.92848H10.61H10.1229V8.53105V10.1336H11.1599H12.1968V9.77223ZM8.8031 3.43968C9.77098 3.37255 10.4965 3.24581 11.135 3.03235C11.771 2.81968 12.1467 2.56236 12.2307 2.28186C12.2631 2.17376 12.2608 2.13276 12.2155 2.01425C12.0127 1.48294 10.8791 1.07472 9.14698 0.909214C8.4061 0.838402 7.0586 0.861358 6.35215 0.95679C5.2742 1.10243 4.39938 1.37296 4.01041 1.68096C3.22355 2.30405 4.05566 2.98936 5.99075 3.31192C6.8298 3.45178 7.91685 3.50117 8.8031 3.43968Z" fill="#DF6C20"/>
</svg>
