<svg width="16" height="16" viewBox="0 0 16 16" fill="none" xmlns="http://www.w3.org/2000/svg">
<g clip-path="url(#clip0_203_1259)">
<path d="M12.4087 0H3.59127C1.60787 0 0 1.60787 0 3.59127V12.4087C0 14.3921 1.60787 16 3.59127 16H12.4087C14.3921 16 16 14.3921 16 12.4087V3.59127C16 1.60787 14.3921 0 12.4087 0Z" fill="#6772E5"/>
<path fill-rule="evenodd" clip-rule="evenodd" d="M7.37084 6.20713C7.37084 5.82473 7.68674 5.65292 8.19661 5.65292C9.04153 5.6712 9.87064 5.88559 10.6185 6.27918V4.01247C9.84904 3.71072 9.02862 3.56019 8.20216 3.5691C6.22917 3.5691 4.91016 4.59993 4.91016 6.34014C4.91016 9.0336 8.61227 8.59577 8.61227 9.75961C8.61227 10.2085 8.21878 10.3526 7.6812 10.3526C6.73416 10.3004 5.81215 10.0291 4.98775 9.56009V11.8822C5.82779 12.2452 6.73283 12.4338 7.64795 12.4364C9.67081 12.4364 11.0674 11.4389 11.0674 9.66539C11.084 6.77797 7.37084 7.29892 7.37084 6.20713Z" fill="white"/>
</g>
<defs>
<clipPath id="clip0_203_1259">
<rect width="16" height="16" fill="white"/>
</clipPath>
</defs>
</svg>
