<svg width="16" height="16" viewBox="0 0 16 16" fill="currentColor" xmlns="http://www.w3.org/2000/svg">
<g clip-path="url(#clip0_203_1844)">
<path d="M5.33547 3.23652C5.33547 3.23652 4.74252 3.57885 4.74252 4.26245C4.74252 4.94711 4.74252 7.67936 4.74252 7.67936C4.74252 7.67936 4.74252 8.36403 4.14957 8.0217C3.55662 7.67936 3.55662 6.99577 3.55662 6.99577C3.55662 6.99577 3.55662 4.26245 3.55662 3.57885C3.55662 3.53619 3.55875 3.4946 3.56302 3.45408C3.62807 2.8526 4.1485 2.55186 4.1485 2.55186L2.96367 1.86826C2.96367 1.86826 2.96261 1.86826 2.96154 1.86933C2.92635 1.88959 2.37073 2.23192 2.37073 2.89419C2.37073 3.57885 2.37073 6.3111 2.37073 6.3111C2.37073 6.3111 2.37073 6.99577 1.77778 6.65344C1.18483 6.3111 1.18483 5.62751 1.18483 5.62751C1.18483 5.62751 1.18483 2.89419 1.18483 2.21059C1.18483 1.52699 1.77778 1.18466 1.77778 1.18466L0.592948 0.5C0.592948 0.5 0 0.842332 0 1.52593C0 2.21059 0 4.94284 0 4.94284C0 4.94284 0 6.99577 1.77778 8.0217C2.32274 8.3363 2.70026 8.36083 2.96261 8.24458C3.22495 8.6637 3.60248 9.07535 4.14744 9.38996C5.92521 10.4159 5.92521 8.36403 5.92521 8.36403C5.92521 8.36403 5.92521 5.63071 5.92521 4.94711C5.92521 4.26245 6.51816 3.92118 6.51816 3.92118C6.3359 3.69191 6.17383 3.53621 6.03196 3.45408C5.91101 3.38406 5.67885 3.31154 5.33547 3.23652Z" fill="#808285"/>
<path d="M11.8528 9.05081C11.8528 7.02455 13.6306 8.02488 13.6306 8.02488L16.0002 9.39314V10.7614L13.6306 9.39314C13.6306 9.39314 13.6231 9.38883 13.6098 9.38214L13.602 9.37827C13.4837 9.32041 13.0376 9.14177 13.0376 9.73654C13.0376 10.4201 13.6306 10.7625 13.6306 10.7625L14.8154 11.4461C14.8154 11.4461 16.0002 12.1307 16.0002 14.1826C16.0002 16.2344 14.2224 15.2085 14.2224 15.2085L11.8528 13.8402V12.472L14.2235 13.8402C14.2235 13.8402 14.8165 14.1826 14.8165 13.4979C14.8165 12.8143 14.2235 12.472 14.2235 12.472L13.6306 12.1297C13.5952 12.1085 11.8528 11.0568 11.8528 9.05081ZM10.075 5.97302C10.4293 6.01374 10.6695 6.07053 10.7956 6.14339C10.9328 6.22268 11.0876 6.39411 11.2598 6.65769C11.2598 6.65769 10.6669 7.00002 10.6669 7.68361L10.6668 11.1059C10.6653 11.2209 10.6136 13.1216 8.88911 12.1265C7.16466 11.1313 7.11293 9.16986 7.11138 9.05307L7.11133 9.04761L8.29616 9.73227L8.29618 9.73456C8.29683 9.77797 8.31615 10.4274 8.88911 10.7582C9.4639 11.0901 9.4815 10.4568 9.48204 10.4177L9.48205 6.99895C9.48205 6.31535 10.075 5.97302 10.075 5.97302ZM7.11346 6.32282L8.29829 7.00642V8.37468L7.11346 7.69108V6.32282Z" fill="#BCBEC0"/>
<path d="M13.6308 3.23653C13.0848 2.92086 12.5953 2.76729 12.1783 2.70544C12.0695 2.46762 11.8029 2.18821 11.2612 1.87894C9.48337 0.863673 7.70666 1.86827 7.70666 1.86827L5.33594 3.23653L6.52077 3.92013L8.89043 2.55187C8.89043 2.55187 9.48337 2.20954 10.0753 2.55187C10.6682 2.8942 10.0753 3.23653 10.0753 3.23653L7.7056 4.60479L8.89043 5.28839L11.2622 3.91906C11.2974 3.8988 11.8712 3.58846 12.4449 3.92013C13.0379 4.26246 12.4449 4.60372 12.4449 4.60372L10.0753 5.97198L11.2601 6.65665L14.2227 4.94606C14.2227 4.94606 15.4075 4.26246 13.6308 3.23653Z" fill="#F16822"/>
</g>
<defs>
<clipPath id="clip0_203_1844">
<rect width="16" height="16" fill="white"/>
</clipPath>
</defs>
</svg>
