<svg width="16" height="16" viewBox="0 0 16 16" fill="none" xmlns="http://www.w3.org/2000/svg">
<g clip-path="url(#clip0_203_1852)">
<path d="M8.00501 0C8.45694 0.000830213 8.90141 0.0390201 9.33348 0.111249V4.76875L12.6354 1.47529C13.0001 1.73431 13.3413 2.0224 13.6567 2.33705C13.9723 2.65171 14.262 2.99293 14.5217 3.35656L11.2196 6.65002H15.8892C15.9617 7.0809 16 7.52258 16 7.97421V7.985C16 8.43664 15.9617 8.87915 15.8892 9.31003H11.2188L14.5217 12.6027C14.262 12.9663 13.9723 13.3075 13.6577 13.6222H13.6567C13.3413 13.9368 13.0001 14.2257 12.6364 14.4839L9.33348 11.1905V15.848C8.9022 15.9202 8.45774 15.9583 8.0058 15.9593H7.9942C7.54211 15.9583 7.09939 15.9202 6.66732 15.848V11.1905L3.36536 14.4839C2.63613 13.9667 1.99859 13.3299 1.47912 12.6027L4.78123 9.31003H0.111554C0.0382969 8.87831 0 8.43414 0 7.98251V7.95933C0.000759093 7.84213 0.00843374 7.69894 0.019457 7.55081L0.0228608 7.50625C0.0554998 7.0893 0.111554 6.65002 0.111554 6.65002H4.78123L1.47912 3.35656C1.73798 2.99293 2.02688 2.65253 2.34231 2.33872L2.3439 2.33705C2.65869 2.0224 3.00067 1.73431 3.36536 1.47529L6.66732 4.76875V0.111249C7.09939 0.0390201 7.54306 0.000830213 7.99579 0H8.00501ZM8.00421 5.98502H7.99658C7.40227 5.98502 6.83306 6.09377 6.30691 6.29136C6.10971 6.81523 6.00054 7.38309 5.99974 7.97587V7.98334C6.00054 8.57611 6.10971 9.14399 6.30771 9.66784C6.83306 9.86545 7.40227 9.9742 7.99658 9.9742H8.00421C8.59853 9.9742 9.16774 9.86545 9.69309 9.66784C9.89109 9.14316 10.0003 8.57611 10.0003 7.98334V7.97587C10.0003 7.38309 9.89109 6.81523 9.69309 6.29136C9.16774 6.09377 8.59853 5.98502 8.00421 5.98502Z" fill="#FF4A00"/>
</g>
<defs>
<clipPath id="clip0_203_1852">
<rect width="16" height="16" fill="white"/>
</clipPath>
</defs>
</svg>
