<svg width="17" height="17" viewBox="0 0 17 17" fill="none" xmlns="http://www.w3.org/2000/svg">
<g clip-path="url(#clip0_177_695)">
<path d="M8.65423 7.82872C8.08058 8.07666 7.42429 8.35372 6.5784 8.35372C6.22352 8.35372 5.8735 8.30516 5.5332 8.20791L6.11657 14.2166C6.13602 14.4694 6.25269 14.7027 6.43742 14.8729C6.62216 15.043 6.86523 15.1403 7.11802 15.1403C7.11802 15.1403 7.94932 15.184 8.22642 15.184C8.52297 15.184 9.41745 15.1403 9.41745 15.1403C9.67027 15.1403 9.91333 15.0479 10.0981 14.8729C10.2828 14.7027 10.3995 14.4694 10.4189 14.2166L11.046 7.58079C10.7641 7.48354 10.4821 7.42035 10.1661 7.42035C9.61195 7.42035 9.16952 7.60997 8.65423 7.82872Z" fill="#FFDD06"/>
<path d="M13.7484 4.71259L13.6608 4.2702C13.5831 3.87157 13.4032 3.49237 12.9948 3.35139C12.8636 3.30764 12.7129 3.28334 12.6156 3.19097C12.5136 3.09374 12.4844 2.9479 12.4601 2.81177C12.4163 2.55899 12.3774 2.30619 12.3337 2.0534C12.2948 1.83464 12.2656 1.59156 12.1684 1.39711C12.0371 1.12973 11.7697 0.974165 11.5024 0.872076C11.3662 0.823461 11.2252 0.779709 11.0843 0.740817C10.4182 0.565807 9.71825 0.502609 9.03275 0.463717C8.2112 0.419965 7.38476 0.429687 6.56318 0.502608C5.95064 0.556084 5.30894 0.624144 4.73043 0.838046C4.51653 0.915828 4.29776 1.00819 4.13734 1.17348C3.93802 1.3728 3.87483 1.68879 4.02066 1.93673C4.12276 2.11659 4.29776 2.24299 4.4825 2.32564C4.72071 2.43259 4.9735 2.51523 5.23116 2.56871C5.95064 2.72913 6.68958 2.78747 7.42365 2.81664C8.23551 2.85067 9.04738 2.8215 9.85919 2.73886C10.0586 2.71455 10.2579 2.69024 10.4572 2.66108C10.6905 2.62704 10.8413 2.31591 10.7732 2.10687C10.6905 1.84922 10.4669 1.75199 10.2189 1.79088C10.1801 1.79574 10.1461 1.80061 10.1071 1.80547L10.0828 1.81033C9.99531 1.82005 9.91269 1.82978 9.82519 1.83949C9.65019 1.85894 9.47519 1.87353 9.29531 1.88811C8.90152 1.91728 8.50289 1.927 8.10425 1.927C7.71534 1.927 7.32642 1.91728 6.93751 1.88811C6.75764 1.87839 6.58263 1.8638 6.40762 1.84436C6.32498 1.83464 6.24719 1.82491 6.16941 1.81519L6.09162 1.80547H6.07704L5.99926 1.79574C5.83883 1.77144 5.67841 1.74227 5.51798 1.70824C5.50339 1.70338 5.48881 1.69366 5.47909 1.68393C5.46936 1.67421 5.46451 1.65476 5.46451 1.64018C5.46451 1.62559 5.46936 1.60615 5.47909 1.59643C5.48881 1.5867 5.50339 1.57698 5.51798 1.57212H5.52284C5.65896 1.54295 5.79994 1.51864 5.94092 1.49434C5.98954 1.48461 6.03329 1.47975 6.0819 1.47489C6.16941 1.47003 6.25691 1.45544 6.34442 1.44086C7.1028 1.36308 7.86604 1.33391 8.62928 1.35822C8.99875 1.36794 9.36819 1.39224 9.73769 1.42628C9.81544 1.436 9.89812 1.44086 9.97587 1.45058C10.0051 1.45544 10.0343 1.46031 10.0683 1.46031L10.1314 1.47003C10.3113 1.49434 10.4863 1.52837 10.6662 1.56726C10.9287 1.62559 11.2642 1.64504 11.3808 1.927C11.4198 2.01937 11.4343 2.11659 11.4537 2.21382L11.4781 2.33536V2.34022C11.5413 2.62704 11.5996 2.91387 11.6628 3.20069C11.6677 3.22014 11.6677 3.24444 11.6628 3.26389C11.6579 3.28334 11.6482 3.30764 11.6385 3.32223C11.6239 3.34167 11.6093 3.35626 11.5899 3.36598C11.5704 3.3757 11.551 3.38543 11.5316 3.38543L11.4926 3.39029L11.4537 3.39515C11.3371 3.40973 11.2156 3.42432 11.0989 3.4389C10.8655 3.46321 10.6322 3.48751 10.3988 3.50696C9.93212 3.54585 9.47031 3.57016 9.00362 3.58474C8.7654 3.58961 8.52719 3.59446 8.28898 3.59446C7.34101 3.59446 6.39789 3.54099 5.45964 3.42917C5.35755 3.41946 5.25546 3.40487 5.15337 3.39029C5.23116 3.40001 5.09504 3.38056 5.07073 3.38056C5.00753 3.37084 4.93947 3.36112 4.87628 3.35139C4.65751 3.31736 4.44361 3.27847 4.22484 3.24444C3.96232 3.20069 3.71439 3.225 3.47619 3.35139C3.28173 3.45834 3.12617 3.61878 3.02408 3.81809C2.92199 4.02713 2.89282 4.26048 2.8442 4.4841C2.80045 4.71259 2.72753 4.95566 2.7567 5.18901C2.81503 5.68973 3.16506 6.09809 3.67064 6.19046C4.14706 6.27796 4.62348 6.34603 5.10476 6.40436C6.98613 6.63284 8.8918 6.66201 10.778 6.48701C10.9336 6.47242 11.0843 6.45784 11.2399 6.43839C11.2885 6.43353 11.3371 6.43839 11.3808 6.45297C11.4246 6.46756 11.4684 6.49673 11.5024 6.53076C11.5364 6.56479 11.5607 6.60367 11.5802 6.65229C11.5948 6.69606 11.6044 6.74469 11.5996 6.79325L11.551 7.25994C11.4537 8.19825 11.3566 9.1365 11.2642 10.0796C11.1621 11.0664 11.0649 12.0533 10.9628 13.0402C10.9336 13.3173 10.9044 13.5944 10.8752 13.8715C10.8461 14.1438 10.8461 14.4257 10.7926 14.6979C10.7099 15.1209 10.4231 15.3834 10.0051 15.4806C9.621 15.5681 9.22725 15.6119 8.83346 15.6167C8.39593 15.6167 7.95841 15.6021 7.52088 15.6021C7.05419 15.607 6.48054 15.5633 6.12079 15.2133C5.8048 14.9069 5.76105 14.4306 5.7173 14.0173C5.65896 13.4729 5.60062 12.9235 5.54715 12.3791L5.23116 9.34062L5.02697 7.37175C5.02211 7.33775 5.02211 7.30856 5.01726 7.27456C4.99294 7.04119 4.82766 6.81269 4.56514 6.82244C4.34152 6.83219 4.08873 7.02175 4.11303 7.27456L4.26374 8.733L4.57973 11.7471C4.66723 12.6027 4.7596 13.4583 4.84711 14.3188C4.86655 14.484 4.88114 14.6493 4.90058 14.8097C4.99781 15.7091 5.68327 16.1904 6.53401 16.3265C7.02988 16.4042 7.53546 16.4237 8.04105 16.4286C8.68762 16.4383 9.33906 16.4626 9.971 16.3459C10.9093 16.1758 11.6142 15.5487 11.7163 14.5715C11.7454 14.2896 11.7746 14.0076 11.8038 13.7305C11.901 12.802 11.9934 11.8734 12.0906 10.9401L12.4017 7.90169L12.5427 6.51131C12.5476 6.44325 12.5767 6.37519 12.6254 6.32657C12.674 6.27796 12.7323 6.23907 12.8004 6.22935C13.0677 6.17588 13.3254 6.08837 13.515 5.88419C13.7969 5.56334 13.8553 5.14039 13.7484 4.71259ZM3.64634 5.01399C3.6512 5.01399 3.64148 5.04803 3.64148 5.06261C3.63661 5.03831 3.63661 5.01399 3.64634 5.01399ZM3.67064 5.21331C3.67064 5.21331 3.68037 5.21817 3.68523 5.23276C3.67551 5.22304 3.67064 5.21331 3.67064 5.21331ZM3.69495 5.24734C3.70954 5.27651 3.70467 5.26679 3.69495 5.24734ZM12.7615 5.2279C12.6643 5.32027 12.5184 5.36402 12.3774 5.38346C10.7683 5.62167 9.13 5.74321 7.50143 5.68973C6.33469 5.65084 5.18254 5.51958 4.02552 5.35916C3.91371 5.34457 3.79218 5.32026 3.71439 5.23762C3.56856 5.08206 3.64147 4.76606 3.68037 4.57161C3.71439 4.3966 3.78246 4.16325 3.99149 4.13894C4.31235 4.10005 4.69154 4.23617 5.00753 4.28479C5.39158 4.34312 5.78049 4.39174 6.16454 4.42577C7.81743 4.57647 9.50431 4.55216 11.1475 4.3334C11.4489 4.29451 11.7454 4.24589 12.0469 4.19242C12.3142 4.14381 12.6059 4.0563 12.7663 4.32854C12.8781 4.51813 12.8928 4.76606 12.8733 4.97997C12.8733 5.07719 12.8296 5.1647 12.7615 5.2279Z" fill="#010202"/>
</g>
<defs>
<clipPath id="clip0_177_695">
<rect width="16" height="16" fill="white" transform="translate(0.25 0.4375)"/>
</clipPath>
</defs>
</svg>
