<svg width="16" height="17" viewBox="0 0 16 17" fill="none" xmlns="http://www.w3.org/2000/svg">
<path d="M0.00337761 4.43088C0.0619501 3.91609 0.301989 3.439 0.68045 3.08516C1.05891 2.73132 1.55105 2.52386 2.06861 2.5H11.1667C11.4929 2.5269 11.8091 2.62592 12.0922 2.78991C12.3755 2.95389 12.6187 3.17875 12.8045 3.44823C12.9718 3.69371 13.0899 3.96937 13.152 4.25989L15.8258 2.93414C15.8427 2.92565 15.8614 2.92135 15.8804 2.92159C15.8994 2.92183 15.918 2.92661 15.9347 2.93552C15.9514 2.94444 15.9658 2.95723 15.9766 2.97283C15.9874 2.98843 15.9943 3.00638 15.9967 3.02519C15.9967 3.52595 15.9967 4.0245 15.9967 4.52859C15.9977 4.57882 15.9836 4.6282 15.9561 4.67022C15.9285 4.71224 15.8889 4.74492 15.8424 4.76398C13.3826 5.98387 10.9224 7.20525 8.46194 8.4281L15.8258 12.0711C15.8728 12.0874 15.914 12.1171 15.9444 12.1566C15.9748 12.1961 15.9929 12.2436 15.9967 12.2932C15.9967 12.7951 15.9967 13.2925 15.9967 13.7988C15.9969 13.8217 15.9906 13.8442 15.9788 13.8638C15.9669 13.8833 15.9498 13.8991 15.9293 13.9095C15.9089 13.9199 15.8861 13.9244 15.8632 13.9225C15.8404 13.9206 15.8186 13.9124 15.8002 13.8988C14.923 13.4546 14.0336 13.036 13.1631 12.583C13.1046 12.7934 13.0266 12.9978 12.9299 13.1937C12.7825 13.4651 12.58 13.7027 12.3355 13.8914C12.0909 14.0801 11.8097 14.2157 11.5098 14.2896C11.3092 14.3318 11.104 14.3485 10.8991 14.3396H2.41948C2.2285 14.3396 2.03641 14.3396 1.84654 14.3251C1.36784 14.2534 0.926706 14.0242 0.592888 13.6737C0.25907 13.3232 0.0516314 12.8714 0.00337761 12.3898C0.00337761 11.9046 0.00337761 11.4183 0.00337761 10.933C0.0114251 10.8723 0.0365764 10.8151 0.0758951 10.7681C0.115214 10.7211 0.167079 10.6863 0.225446 10.6676C1.73773 9.92039 3.24668 9.16645 4.76119 8.42255C3.23558 7.66308 1.70886 6.90582 0.181033 6.15079C0.129091 6.12787 0.0848895 6.09041 0.0537614 6.04293C0.0226326 5.99545 0.00590574 5.93998 0.00559762 5.8832C0.00337637 5.40021 -0.00439451 4.91499 0.00337761 4.43088ZM1.68888 4.44087C1.59783 4.62408 1.64002 4.83615 1.63225 5.03379C3.29776 5.85655 4.95105 6.68376 6.61325 7.50097C8.25581 6.68672 9.89913 5.87247 11.5431 5.05822C11.5431 4.91055 11.5498 4.76287 11.5431 4.61409C11.5238 4.48109 11.4569 4.35964 11.3547 4.27225C11.2527 4.18485 11.1224 4.13746 10.988 4.13886H2.1963C2.09154 4.13535 1.98796 4.16193 1.89784 4.21545C1.80771 4.26898 1.73481 4.3472 1.68776 4.44087H1.68888ZM1.63225 11.8091C1.64002 12.0089 1.59672 12.2244 1.69331 12.4098C1.74182 12.5009 1.8148 12.5768 1.90405 12.6288C1.9933 12.6808 2.09527 12.7068 2.19852 12.704H10.9958C11.0933 12.7048 11.1891 12.6796 11.2736 12.631C11.3581 12.5824 11.4282 12.5122 11.4765 12.4276C11.5876 12.2333 11.5365 12.0001 11.5476 11.7869C9.90094 10.9741 8.25656 10.148 6.60656 9.34414C4.94328 10.1658 3.2848 10.9874 1.63114 11.8091H1.63225Z" fill="black"/>
</svg>
