<svg width="17" height="17" viewBox="0 0 17 17" fill="none" xmlns="http://www.w3.org/2000/svg">
<g clip-path="url(#clip0_177_730)">
<path d="M0.828784 12.4581C0.663712 12.7273 0.478324 13.0397 0.320871 13.2886C0.179939 13.5267 0.255597 13.8339 0.491022 13.9793L3.79246 16.011C3.90834 16.0825 4.04811 16.1045 4.18038 16.0721C4.31265 16.0396 4.42633 15.9554 4.49591 15.8383C4.62797 15.6174 4.79812 15.3304 4.98351 15.0231C6.29139 12.8645 7.60688 13.1286 9.97884 14.2612L13.2523 15.818C13.3763 15.877 13.5189 15.8833 13.6476 15.8354C13.7763 15.7876 13.8802 15.6897 13.9355 15.564L15.5075 12.0086C15.6185 11.7547 15.5055 11.4586 15.2535 11.3433C14.5627 11.0182 13.1888 10.3706 11.9521 9.77381C7.50276 7.61264 3.72135 7.75232 0.828784 12.4581Z" fill="url(#paint0_linear_177_730)"/>
<path d="M15.6319 4.3895C15.797 4.1203 15.9824 3.80794 16.1398 3.55906C16.2808 3.3209 16.2051 3.01375 15.9697 2.8683L12.6682 0.836646C12.5514 0.757955 12.4071 0.731318 12.2699 0.763097C12.1327 0.794877 12.0148 0.882219 11.9445 1.00426C11.8124 1.2252 11.6423 1.51217 11.4569 1.81946C10.149 3.97809 8.8335 3.71397 6.46155 2.58133L3.19821 1.03219C3.07423 0.973182 2.93164 0.966881 2.80294 1.01472C2.67424 1.06257 2.57039 1.16048 2.51506 1.28615L0.943074 4.84154C0.83201 5.09547 0.945019 5.39155 1.19703 5.5069C1.88779 5.83197 3.2617 6.47956 4.49846 7.07636C8.95794 9.23499 12.7394 9.09023 15.6319 4.3895Z" fill="url(#paint1_linear_177_730)"/>
</g>
<defs>
<linearGradient id="paint0_linear_177_730" x1="1517.11" y1="871.473" x2="1147.4" y2="23.3106" gradientUnits="userSpaceOnUse">
<stop offset="0.18" stop-color="#0052CC"/>
<stop offset="1" stop-color="#2684FF"/>
</linearGradient>
<linearGradient id="paint1_linear_177_730" x1="15.073" y1="-95.7234" x2="385.37" y2="752.851" gradientUnits="userSpaceOnUse">
<stop offset="0.18" stop-color="#0052CC"/>
<stop offset="1" stop-color="#2684FF"/>
</linearGradient>
<clipPath id="clip0_177_730">
<rect width="16" height="16" fill="white" transform="translate(0.25 0.4375)"/>
</clipPath>
</defs>
</svg>
