<svg width="17" height="17" viewBox="0 0 17 17" fill="none" xmlns="http://www.w3.org/2000/svg">
<g clip-path="url(#clip0_177_907)">
<path d="M15.8219 5.12883C15.8217 4.86052 15.7644 4.62344 15.6483 4.41996C15.5343 4.21986 15.3636 4.05216 15.1346 3.91956C13.2446 2.82973 11.3526 1.74322 9.46316 0.652277C8.95377 0.358195 8.45987 0.368917 7.95426 0.66722C7.20194 1.1109 3.43537 3.26885 2.31299 3.91895C1.85076 4.18653 1.62583 4.59605 1.62572 5.12833C1.625 7.32005 1.62572 9.51172 1.625 11.7035C1.62511 11.9659 1.68005 12.1984 1.79098 12.3988C1.90503 12.605 2.07812 12.7773 2.31238 12.9129C3.43482 13.563 7.20189 15.7208 7.95403 16.1646C8.45987 16.463 8.95377 16.4737 9.46333 16.1795C11.3529 15.0885 13.2449 14.0021 15.1353 12.9122C15.3695 12.7767 15.5426 12.6042 15.6567 12.3983C15.7674 12.1978 15.8225 11.9654 15.8226 11.7029C15.8226 11.7029 15.8226 7.32061 15.8219 5.12883Z" fill="#5C8DBC"/>
<path d="M8.74554 8.39453L1.79102 12.3988C1.90506 12.6049 2.07815 12.7773 2.31241 12.9129C3.43485 13.563 7.20192 15.7207 7.95407 16.1645C8.4599 16.463 8.9538 16.4737 9.46336 16.1795C11.3529 15.0885 13.2449 14.002 15.1353 12.9122C15.3695 12.7766 15.5426 12.6042 15.6567 12.3982L8.74554 8.39453Z" fill="#1A4674"/>
<path d="M6.68555 9.58063C7.09023 10.2871 7.85099 10.7636 8.72368 10.7636C9.60176 10.7636 10.3668 10.2811 10.7695 9.56702L8.7454 8.39453L6.68555 9.58063Z" fill="#1A4674"/>
<path d="M15.8224 5.1288C15.8223 4.86049 15.7649 4.6234 15.6489 4.41992L8.74609 8.39452L15.6572 12.3982C15.768 12.1978 15.8231 11.9653 15.8232 11.7029C15.8232 11.7029 15.8232 7.32058 15.8224 5.1288Z" fill="#1B598E"/>
<path d="M15.4423 8.68071H14.9023V9.22087H14.3621V8.68071H13.8221V8.1407H14.3621V7.60065H14.9023V8.1407H15.4423V8.68071ZM13.4717 8.68071H12.9317V9.22087H12.3916V8.68071H11.8516V8.1407H12.3916V7.60065H12.9317V8.1407H13.4717V8.68071Z" fill="white"/>
<path d="M10.7704 9.56702C10.3677 10.2811 9.60265 10.7636 8.72457 10.7636C7.85188 10.7636 7.09112 10.2871 6.68644 9.58063C6.48315 9.22613 6.37639 8.82452 6.37681 8.41586C6.37681 7.11927 7.42798 6.06815 8.72457 6.06815C9.59165 6.06815 10.3484 6.53872 10.7551 7.23798L12.8072 6.05632C11.9915 4.64835 10.4687 3.70111 8.72457 3.70111C6.12061 3.70111 4.00977 5.81201 4.00977 8.41586C4.00977 9.27011 4.23702 10.0712 4.6342 10.7622C5.44779 12.1776 6.97491 13.1307 8.72457 13.1307C10.4775 13.1307 12.007 12.1738 12.8194 10.7542L10.7704 9.56702Z" fill="white"/>
</g>
<defs>
<clipPath id="clip0_177_907">
<rect width="16" height="16" fill="white" transform="translate(0.75 0.4375)"/>
</clipPath>
</defs>
</svg>
