<svg width="17" height="17" viewBox="0 0 17 17" fill="none" xmlns="http://www.w3.org/2000/svg">
<g clip-path="url(#clip0_177_709)">
<mask id="mask0_177_709" style="mask-type:luminance" maskUnits="userSpaceOnUse" x="0" y="0" width="17" height="17">
<path d="M16.25 0.4375H0.25V16.4375H16.25V0.4375Z" fill="white"/>
</mask>
<g mask="url(#mask0_177_709)">
<path d="M15.2915 5.17686C15.2915 4.91164 15.235 4.67252 15.1176 4.47249C15.0046 4.27249 14.835 4.10727 14.6089 3.97683C12.7305 2.89414 10.8478 1.81149 8.96945 0.728813C8.46073 0.437489 7.97377 0.446189 7.46939 0.741853C6.72152 1.18102 2.97348 3.32895 1.86038 3.97683C1.39948 4.24205 1.17773 4.65077 1.17773 5.18124V11.7207C1.17773 11.9816 1.23425 12.2121 1.34296 12.4121C1.45602 12.6164 1.62994 12.7903 1.86038 12.9251C2.97784 13.573 6.72152 15.7166 7.46939 16.1601C7.97377 16.4557 8.46508 16.4687 8.96945 16.1731C10.8478 15.0861 12.7305 14.0078 14.6089 12.9251C14.8437 12.7903 15.0133 12.6208 15.1263 12.4121C15.235 12.2121 15.2915 11.9816 15.2915 11.7207V5.17686Z" fill="#9A4993"/>
<path d="M8.25175 8.42493L1.33398 12.4077C1.44705 12.6121 1.62097 12.786 1.85141 12.9208C2.96887 13.5687 6.71253 15.7123 7.4604 16.1558C7.96478 16.4515 8.45612 16.4645 8.9605 16.1688C10.8389 15.0818 12.7216 14.0035 14.5999 12.9208C14.8347 12.786 15.0043 12.6165 15.1173 12.4077L8.25175 8.42493Z" fill="#6A1577"/>
<path d="M6.20312 9.60324C6.6075 10.3076 7.36406 10.7816 8.22934 10.7816C9.10328 10.7816 9.86419 10.3033 10.2642 9.59018L8.25106 8.42493L6.20312 9.60324Z" fill="#6A1577"/>
<path d="M15.2915 5.17685C15.2915 4.91163 15.2349 4.6725 15.1175 4.47247L8.25195 8.42488L15.1262 12.4077C15.2349 12.2077 15.2915 11.9772 15.2915 11.7163V5.17685Z" fill="#813084"/>
<path d="M10.2655 9.59012C9.8655 10.2989 9.10459 10.7815 8.23062 10.7815C7.361 10.7815 6.60447 10.3076 6.20444 9.60318C6.00878 9.25968 5.89572 8.86837 5.89572 8.44659C5.89572 7.15521 6.93925 6.11168 8.23062 6.11168C9.09153 6.11168 9.84375 6.58127 10.2481 7.27696L12.2873 6.10299C11.4743 4.70293 9.96116 3.7594 8.22628 3.7594C5.63481 3.7594 3.53906 5.85949 3.53906 8.44659C3.53906 9.29446 3.76516 10.0945 4.16084 10.7815C4.96956 12.1859 6.49141 13.1338 8.23062 13.1338C9.97422 13.1338 11.496 12.1816 12.3048 10.7685L10.2655 9.59012ZM12.8439 7.33784H12.3787V9.58581H12.8439V7.33784ZM13.8744 7.33784H13.4092V9.58581H13.8744V7.33784Z" fill="white"/>
<path d="M14.2519 7.71613H12.0039V8.18138H14.2519V7.71613ZM14.2519 8.74225H12.0039V9.2075H14.2519V8.74225Z" fill="white"/>
</g>
</g>
<defs>
<clipPath id="clip0_177_709">
<rect width="16" height="16" fill="white" transform="translate(0.25 0.4375)"/>
</clipPath>
</defs>
</svg>
