<svg width="17" height="17" viewBox="0 0 17 17" fill="none" xmlns="http://www.w3.org/2000/svg">
<g clip-path="url(#clip0_177_720)">
<path d="M13.375 0.4375H3.625C1.89911 0.4375 0.5 1.83661 0.5 3.5625V13.3125C0.5 15.0384 1.89911 16.4375 3.625 16.4375H13.375C15.1009 16.4375 16.5 15.0384 16.5 13.3125V3.5625C16.5 1.83661 15.1009 0.4375 13.375 0.4375Z" fill="url(#paint0_linear_177_720)"/>
<mask id="mask0_177_720" style="mask-type:luminance" maskUnits="userSpaceOnUse" x="2" y="2" width="13" height="13">
<path d="M14.625 2.3125H2.375V14.5625H14.625V2.3125Z" fill="white"/>
</mask>
<g mask="url(#mask0_177_720)">
<path d="M13.7473 7.32613C14.0253 6.49198 13.9296 5.57821 13.4851 4.81948C12.8167 3.65573 11.4731 3.05701 10.1608 3.33876C9.57694 2.68108 8.73825 2.30708 7.85888 2.31243C6.51754 2.30937 5.32737 3.173 4.9147 4.4493C4.05299 4.62577 3.30918 5.16515 2.87392 5.92963C2.20055 7.09032 2.35406 8.55344 3.25367 9.54875C2.97575 10.3829 3.07145 11.2967 3.5159 12.0554C4.18429 13.2191 5.52796 13.8179 6.84025 13.5361C7.42363 14.1938 8.26275 14.5678 9.14207 14.5621C10.4843 14.5655 11.6748 13.7011 12.0874 12.4237C12.9492 12.2472 13.6929 11.7078 14.1283 10.9433C14.8008 9.78263 14.6469 8.32069 13.7477 7.32538L13.7473 7.32613ZM9.14288 13.7616C8.60575 13.7624 8.0855 13.5744 7.67325 13.2303C7.692 13.2203 7.72457 13.2023 7.74557 13.1893L10.1849 11.7806C10.3097 11.7097 10.3863 11.5769 10.3854 11.4333V7.9945L11.4164 8.58982C11.4275 8.59513 11.4348 8.60588 11.4363 8.61813V11.4659C11.4348 12.7322 10.4092 13.7589 9.14288 13.7616ZM4.2107 11.655C3.94159 11.1903 3.84474 10.6455 3.93699 10.1168C3.95499 10.1276 3.98676 10.1471 4.00934 10.1601L6.44862 11.5688C6.57227 11.6412 6.7254 11.6412 6.84944 11.5688L9.82732 9.84925V11.0398C9.82807 11.0521 9.82238 11.0639 9.81275 11.0716L7.34707 12.4953C6.2488 13.1276 4.84617 12.7518 4.21109 11.655H4.2107ZM3.56873 6.33043C3.8367 5.86493 4.2597 5.50892 4.76349 5.32402C4.76349 5.34508 4.76234 5.38221 4.76234 5.40824V8.22613C4.76157 8.36932 4.83814 8.50213 4.96255 8.57294L7.94044 10.2922L6.9095 10.8874C6.89919 10.8943 6.88619 10.8955 6.87469 10.8905L4.40862 9.46569C3.31262 8.83094 2.9367 7.42875 3.56834 6.33082L3.56873 6.33043ZM12.0388 8.30157L9.06094 6.58195L10.0919 5.98705C10.1022 5.98017 10.1152 5.97902 10.1267 5.98399L12.5928 7.40769C13.6907 8.042 14.067 9.4465 13.4326 10.5444C13.1643 11.0092 12.7417 11.3652 12.2383 11.5504V8.64838C12.2394 8.50519 12.1633 8.37275 12.0392 8.30157H12.0388ZM13.0648 6.75725C13.0468 6.74619 13.015 6.727 12.9924 6.714L10.5531 5.30527C10.4295 5.23292 10.2764 5.23292 10.1523 5.30527L7.17444 7.02488V5.83431C7.17369 5.82206 7.17944 5.8102 7.189 5.80254L9.65469 4.38001C10.7529 3.74645 12.1571 4.12352 12.7903 5.2222C13.0579 5.68617 13.1548 6.22937 13.064 6.75725H13.0648ZM6.614 8.87919L5.5827 8.28394C5.5716 8.27857 5.56433 8.26788 5.5628 8.25563V5.40786C5.56356 4.13998 6.59218 3.11252 7.86007 3.11328C8.39638 3.11328 8.91544 3.30162 9.32775 3.64462C9.309 3.65458 9.27682 3.67257 9.25538 3.68558L6.81613 5.09433C6.69133 5.16515 6.61477 5.29761 6.61553 5.44117L6.614 8.87844V8.87919ZM7.17407 7.67182L8.5005 6.90582L9.82694 7.67144V9.20307L8.5005 9.96869L7.17407 9.20307V7.67182Z" fill="white"/>
</g>
</g>
<defs>
<linearGradient id="paint0_linear_177_720" x1="13.6563" y1="0.437501" x2="3.90625" y2="16.4375" gradientUnits="userSpaceOnUse">
<stop stop-color="#E35770"/>
<stop offset="1" stop-color="#5D74BE"/>
</linearGradient>
<clipPath id="clip0_177_720">
<rect width="16" height="16" fill="white" transform="translate(0.5 0.4375)"/>
</clipPath>
</defs>
</svg>
