<svg width="16" height="17" viewBox="0 0 16 17" fill="none" xmlns="http://www.w3.org/2000/svg">
<g clip-path="url(#clip0_177_897)">
<path d="M3.26319 13.1743L0.526896 10.4381C0.201086 10.1043 0 9.63275 0 9.17395C0 8.96109 0.119951 8.62796 0.210631 8.43738L2.73629 3.17383L3.26319 13.1743Z" fill="#01579B"/>
<path d="M12.6313 3.70069L9.89496 0.964396C9.65601 0.723856 9.15839 0.4375 8.73713 0.4375C8.37505 0.4375 8.01965 0.510362 7.79024 0.648131L2.73828 3.17379L12.6313 3.70069Z" fill="#40C4FF"/>
<path d="M6.52552 16.4375H13.1575V13.5956L8.20993 12.0159L3.68359 13.5956L6.52552 16.4375Z" fill="#40C4FF"/>
<path d="M2.73633 11.7009C2.73633 12.5453 2.84228 12.7524 3.26227 13.1747L3.68321 13.5959H13.1581L8.52709 8.3327L2.73633 3.17383V11.7009Z" fill="#29B6F6"/>
<path d="M11.1584 3.17383H2.73633L13.1581 13.5943H16V7.06827L12.6315 3.69945C12.1581 3.22537 11.7381 3.17383 11.1584 3.17383Z" fill="#01579B"/>
<path opacity="0.2" d="M3.36858 13.279C2.94764 12.8568 2.84296 12.4403 2.84296 11.7009V3.27946L2.73828 3.17383V11.7009C2.73828 12.4406 2.73828 12.6455 3.36858 13.2793L3.68389 13.5947L3.36858 13.279Z" fill="white"/>
<path opacity="0.2" d="M15.8947 6.96356V13.4896H13.0527L13.1574 13.5956H15.9993V7.06824L15.8947 6.96356Z" fill="#263238"/>
<path opacity="0.2" d="M12.6313 3.70072C12.1098 3.17828 11.6828 3.17383 11.0534 3.17383H2.73828L2.84296 3.27851H11.0534C11.3675 3.27851 12.1604 3.22569 12.6319 3.69977L12.6313 3.70072Z" fill="white"/>
<path opacity="0.2" d="M15.8953 6.96356L12.6315 3.70069L9.8952 0.964396C9.65625 0.723856 9.15863 0.4375 8.73737 0.4375C8.37529 0.4375 8.01989 0.510362 7.79048 0.648131L2.73852 3.17379L0.211586 8.43734C0.121224 8.6292 0 8.96201 0 9.17391C0 9.63367 0.202358 10.103 0.525623 10.4371L3.04906 12.9417C3.1162 13.0231 3.18768 13.1009 3.26319 13.1746L3.36787 13.2793L3.68286 13.5946L6.41915 16.3309L6.52383 16.4356H13.1546V13.5943H15.9965V7.06824L15.8953 6.96356Z" fill="url(#paint0_radial_177_897)"/>
</g>
<defs>
<radialGradient id="paint0_radial_177_897" cx="0" cy="0" r="1" gradientUnits="userSpaceOnUse" gradientTransform="translate(7.99952 8.4367) scale(7.99889)">
<stop stop-color="white" stop-opacity="0.1"/>
<stop offset="1" stop-color="white" stop-opacity="0"/>
</radialGradient>
<clipPath id="clip0_177_897">
<rect width="16" height="16" fill="white" transform="translate(0 0.4375)"/>
</clipPath>
</defs>
</svg>
