<svg width="17" height="17" viewBox="0 0 17 17" fill="none" xmlns="http://www.w3.org/2000/svg">
<g clip-path="url(#clip0_177_331)">
<path d="M14.0535 3.75604C13.0178 3.27146 11.9104 2.91928 10.7526 2.71875C10.6104 2.97582 10.4443 3.32159 10.3298 3.59665C9.099 3.41156 7.87956 3.41156 6.67144 3.59665C6.55693 3.32159 6.38704 2.97582 6.24357 2.71875C5.08454 2.91928 3.97584 3.27275 2.94013 3.7586C0.851095 6.91541 0.284793 9.9938 0.567944 13.0285C1.9535 14.0632 3.29627 14.6917 4.61638 15.103C4.94233 14.6544 5.23302 14.1776 5.48345 13.675C5.0065 13.4938 4.54969 13.2701 4.11805 13.0105C4.23256 12.9257 4.34457 12.837 4.45279 12.7457C7.08546 13.9771 9.94593 13.9771 12.5472 12.7457C12.6566 12.837 12.7686 12.9257 12.8819 13.0105C12.449 13.2714 11.9909 13.4951 11.514 13.6763C11.7644 14.1776 12.0538 14.6557 12.381 15.1043C13.7024 14.693 15.0464 14.0645 16.432 13.0285C16.7642 9.51051 15.8644 6.46039 14.0535 3.75604ZM5.84212 11.1622C5.05181 11.1622 4.4037 10.4244 4.4037 9.52593C4.4037 8.62748 5.03797 7.88841 5.84212 7.88841C6.64628 7.88841 7.29437 8.62618 7.28053 9.52593C7.28178 10.4244 6.64628 11.1622 5.84212 11.1622ZM11.1578 11.1622C10.3675 11.1622 9.71941 10.4244 9.71941 9.52593C9.71941 8.62748 10.3537 7.88841 11.1578 7.88841C11.962 7.88841 12.6101 8.62618 12.5962 9.52593C12.5962 10.4244 11.962 11.1622 11.1578 11.1622Z" fill="#5865F2"/>
</g>
<defs>
<clipPath id="clip0_177_331">
<rect width="16" height="16" fill="white" transform="translate(0.5 0.9375)"/>
</clipPath>
</defs>
</svg>
