<svg width="17" height="17" viewBox="0 0 17 17" fill="none" xmlns="http://www.w3.org/2000/svg">
<g clip-path="url(#clip0_177_569)">
<path d="M8.25 16.9375C12.6683 16.9375 16.25 13.3558 16.25 8.9375C16.25 4.51922 12.6683 0.9375 8.25 0.9375C3.83172 0.9375 0.25 4.51922 0.25 8.9375C0.25 13.3558 3.83172 16.9375 8.25 16.9375Z" fill="#2B2E3A"/>
<path d="M6.53024 5.41809C4.90492 5.12209 3.6198 5.43191 3.10761 6.31903C2.72542 6.98103 2.83467 7.85872 3.37261 8.7969C3.38323 8.81639 3.39764 8.83356 3.41499 8.8474C3.43233 8.86125 3.45227 8.87149 3.47362 8.87752C3.49498 8.88356 3.51732 8.88527 3.53935 8.88256C3.56138 8.87984 3.58264 8.87276 3.60189 8.86172C3.62114 8.85068 3.638 8.8359 3.65146 8.81826C3.66493 8.80062 3.67473 8.78047 3.68031 8.75899C3.68588 8.73751 3.68711 8.71513 3.68392 8.69317C3.68073 8.67121 3.67319 8.6501 3.66174 8.63109C3.17724 7.78597 3.08292 7.02853 3.3963 6.48572C3.8218 5.74878 4.96805 5.4724 6.47049 5.74603C6.51366 5.75322 6.55793 5.74314 6.59373 5.71796C6.62954 5.69279 6.654 5.65454 6.66185 5.61148C6.6697 5.56842 6.66029 5.52401 6.63566 5.48782C6.61104 5.45164 6.57317 5.42659 6.53024 5.41809ZM4.2178 9.93728C4.87499 10.6595 5.7288 11.3369 6.70255 11.899C9.06024 13.2603 11.5702 13.6241 12.8072 12.7807C12.8257 12.7685 12.8416 12.7528 12.854 12.7344C12.8664 12.7161 12.8749 12.6954 12.8792 12.6737C12.8835 12.652 12.8835 12.6297 12.8791 12.608C12.8746 12.5863 12.8659 12.5657 12.8534 12.5474C12.841 12.5291 12.825 12.5135 12.8064 12.5015C12.7878 12.4894 12.7671 12.4812 12.7453 12.4773C12.7235 12.4734 12.7011 12.4738 12.6795 12.4786C12.6579 12.4834 12.6375 12.4925 12.6194 12.5053C11.5123 13.2602 9.12805 12.9145 6.86924 11.6104C5.92461 11.065 5.0978 10.409 4.46436 9.7129C4.44966 9.69662 4.43188 9.68339 4.41205 9.67399C4.39222 9.66459 4.37073 9.6592 4.34881 9.65813C4.32689 9.65705 4.30498 9.66031 4.28433 9.66773C4.26367 9.67514 4.24469 9.68656 4.22846 9.70133C4.21223 9.7161 4.19907 9.73393 4.18975 9.75379C4.18042 9.77366 4.17512 9.79517 4.17413 9.81709C4.17314 9.83901 4.17648 9.86092 4.18398 9.88154C4.19147 9.90217 4.20297 9.92111 4.2178 9.93728Z" fill="#9FEAF9"/>
<path d="M12.4134 9.73455C13.4776 8.4773 13.8492 7.2128 13.338 6.32755C12.962 5.67611 12.1669 5.33217 11.1102 5.31842C11.0664 5.31848 11.0244 5.33578 10.9933 5.36657C10.9621 5.39736 10.9444 5.43916 10.9438 5.48295C10.9432 5.52674 10.9599 5.56899 10.9903 5.60058C11.0206 5.63216 11.0621 5.65054 11.1059 5.65173C12.0562 5.66411 12.7412 5.96042 13.0494 6.49423C13.4739 7.22955 13.1425 8.35717 12.1589 9.51917C12.1445 9.53584 12.1335 9.5552 12.1266 9.57614C12.1197 9.59708 12.117 9.61918 12.1187 9.64117C12.1204 9.66315 12.1265 9.68457 12.1365 9.7042C12.1466 9.72383 12.1604 9.74127 12.1772 9.75552C12.1941 9.76976 12.2135 9.78052 12.2346 9.78719C12.2556 9.79385 12.2777 9.79627 12.2997 9.79432C12.3216 9.79237 12.343 9.78608 12.3625 9.77582C12.382 9.76556 12.3993 9.75153 12.4134 9.73455ZM9.6783 5.47361C8.71605 5.6798 7.6918 6.08292 6.70817 6.6508C4.2743 8.05598 2.68661 10.128 2.90711 11.6305C2.91005 11.6523 2.9173 11.6734 2.92844 11.6924C2.93958 11.7115 2.95439 11.7281 2.97201 11.7414C2.98963 11.7547 3.00971 11.7643 3.03108 11.7698C3.05246 11.7752 3.0747 11.7764 3.09653 11.7732C3.11836 11.77 3.13933 11.7625 3.15823 11.7511C3.17714 11.7397 3.19359 11.7247 3.20665 11.7069C3.21971 11.6892 3.22911 11.669 3.23431 11.6475C3.2395 11.6261 3.24039 11.6038 3.23692 11.582C3.04111 10.248 4.54611 8.28398 6.87486 6.93948C7.82905 6.38855 8.8208 5.99823 9.74811 5.79955C9.76981 5.79527 9.79044 5.78671 9.80881 5.77438C9.82717 5.76205 9.84289 5.74618 9.85506 5.72771C9.86723 5.70924 9.87561 5.68854 9.87969 5.6668C9.88378 5.64506 9.8835 5.62272 9.87886 5.60109C9.87423 5.57946 9.86534 5.55897 9.85271 5.54082C9.84008 5.52266 9.82396 5.5072 9.80529 5.49533C9.78662 5.48346 9.76578 5.47543 9.74398 5.4717C9.72217 5.46797 9.69985 5.46862 9.6783 5.47361Z" fill="#9FEAF9"/>
<path d="M5.73467 12.6721C6.29117 14.2258 7.20148 15.1825 8.22511 15.1825C8.97167 15.1825 9.66236 14.6736 10.201 13.7776C10.2126 13.7588 10.2205 13.7379 10.224 13.7161C10.2275 13.6943 10.2266 13.672 10.2214 13.6506C10.2162 13.6291 10.2068 13.6088 10.1938 13.591C10.1807 13.5732 10.1642 13.5582 10.1453 13.5468C10.1263 13.5354 10.1053 13.5279 10.0835 13.5247C10.0616 13.5215 10.0393 13.5227 10.0179 13.5282C9.99653 13.5337 9.97643 13.5434 9.95882 13.5567C9.9412 13.5701 9.9264 13.5868 9.9153 13.6059C9.43123 14.4111 8.83667 14.8491 8.22511 14.8491C7.3748 14.8491 6.56286 13.9959 6.04855 12.5597C6.0415 12.5387 6.03033 12.5193 6.01569 12.5026C6.00105 12.486 5.98324 12.4724 5.96328 12.4627C5.94333 12.453 5.92165 12.4474 5.89951 12.4462C5.87736 12.445 5.8552 12.4483 5.83432 12.4557C5.81344 12.4632 5.79426 12.4748 5.77791 12.4898C5.76156 12.5047 5.74836 12.5228 5.73908 12.543C5.72981 12.5631 5.72464 12.5849 5.7239 12.6071C5.72315 12.6292 5.72684 12.6513 5.73473 12.6721H5.73467ZM10.8173 12.3681C11.1054 11.4476 11.2601 10.3857 11.2601 9.27918C11.2601 6.51799 10.2937 4.13774 8.91717 3.52655C8.87696 3.50971 8.83175 3.50929 8.79123 3.52539C8.75072 3.54148 8.71812 3.57281 8.70043 3.61266C8.68274 3.6525 8.68136 3.69769 8.6966 3.73854C8.71183 3.77939 8.74246 3.81265 8.78192 3.83118C10.0096 4.37636 10.9267 6.6353 10.9267 9.27918C10.9267 10.3527 10.7769 11.3811 10.4992 12.2686C10.4923 12.2895 10.4897 12.3117 10.4914 12.3337C10.4931 12.3557 10.4992 12.3772 10.5093 12.3968C10.5194 12.4165 10.5334 12.4339 10.5503 12.4481C10.5672 12.4624 10.5867 12.4731 10.6078 12.4797C10.6289 12.4863 10.6511 12.4886 10.6731 12.4866C10.6951 12.4845 10.7164 12.4781 10.7359 12.4677C10.7554 12.4574 10.7727 12.4432 10.7866 12.4261C10.8006 12.409 10.8111 12.3893 10.8174 12.3681H10.8173ZM13.9563 12.2049C13.9563 11.7643 13.5992 11.4072 13.1586 11.4072C12.718 11.4072 12.3609 11.7643 12.3609 12.2049C12.3609 12.6454 12.718 13.0026 13.1586 13.0026C13.5992 13.0026 13.9563 12.6454 13.9563 12.2049ZM13.623 12.2049C13.623 12.2658 13.611 12.3262 13.5876 12.3826C13.5643 12.4389 13.5301 12.4901 13.487 12.5332C13.4439 12.5763 13.3927 12.6106 13.3363 12.6339C13.28 12.6572 13.2196 12.6692 13.1586 12.6692C13.0976 12.6692 13.0372 12.6572 12.9809 12.6339C12.9246 12.6106 12.8734 12.5763 12.8302 12.5332C12.7871 12.4901 12.7529 12.4389 12.7296 12.3826C12.7062 12.3262 12.6942 12.2658 12.6942 12.2049C12.6942 12.0817 12.7432 11.9636 12.8302 11.8765C12.9173 11.7894 13.0354 11.7405 13.1586 11.7405C13.2818 11.7405 13.3999 11.7894 13.487 11.8765C13.5741 11.9636 13.623 12.0817 13.623 12.2049ZM3.28011 13.0026C3.72073 13.0026 4.07786 12.6454 4.07786 12.2049C4.07786 11.7643 3.72067 11.4072 3.28011 11.4072C2.83961 11.4072 2.48242 11.7643 2.48242 12.2049C2.48242 12.6454 2.83961 13.0026 3.28011 13.0026ZM3.28011 12.6692C3.15695 12.6692 3.03883 12.6203 2.95175 12.5332C2.86466 12.4461 2.81573 12.328 2.81573 12.2049C2.81573 12.0817 2.86466 11.9636 2.95175 11.8765C3.03883 11.7894 3.15695 11.7405 3.28011 11.7405C3.40327 11.7405 3.52138 11.7894 3.60847 11.8765C3.69556 11.9636 3.74448 12.0817 3.74448 12.2049C3.74448 12.328 3.69556 12.4461 3.60847 12.5332C3.52138 12.6203 3.40327 12.6692 3.28011 12.6692Z" fill="#9FEAF9"/>
<path d="M8.22542 4.34025C8.66598 4.34025 9.02311 3.98312 9.02311 3.54256C9.02311 3.102 8.66598 2.74487 8.22542 2.74487C7.78486 2.74487 7.42773 3.102 7.42773 3.54256C7.42773 3.98312 7.78486 4.34025 8.22542 4.34025ZM8.22542 4.00694C8.10226 4.00694 7.98415 3.95801 7.89706 3.87092C7.80997 3.78384 7.76105 3.66572 7.76105 3.54256C7.76105 3.4194 7.80997 3.30129 7.89706 3.2142C7.98415 3.12711 8.10226 3.07819 8.22542 3.07819C8.34858 3.07819 8.4667 3.12711 8.55378 3.2142C8.64087 3.30129 8.6898 3.4194 8.6898 3.54256C8.6898 3.66572 8.64087 3.78384 8.55378 3.87092C8.4667 3.95801 8.34858 4.00694 8.22542 4.00694ZM8.34723 9.84331C8.03567 9.91062 7.72873 9.71262 7.6613 9.40106C7.629 9.25145 7.65745 9.09514 7.74039 8.96649C7.82332 8.83785 7.95395 8.74741 8.10355 8.71506C8.41511 8.64775 8.72205 8.84575 8.78955 9.15731C8.85686 9.46887 8.65886 9.77587 8.34723 9.84331Z" fill="#9FEAF9"/>
</g>
<defs>
<clipPath id="clip0_177_569">
<rect width="16" height="16" fill="white" transform="translate(0.25 0.9375)"/>
</clipPath>
</defs>
</svg>
