<svg width="16" height="17" viewBox="0 0 16 17" fill="none" xmlns="http://www.w3.org/2000/svg">
<g clip-path="url(#clip0_177_917)">
<path d="M16 0.9375H0V16.9375H16V0.9375Z" fill="#1E1E1E"/>
<mask id="mask0_177_917" style="mask-type:luminance" maskUnits="userSpaceOnUse" x="4" y="3" width="8" height="12">
<path d="M11.3766 3.95972H4.62109V14.0931H11.3766V3.95972Z" fill="white"/>
</mask>
<g mask="url(#mask0_177_917)">
<path d="M7.99805 9.02641C7.99805 8.57848 8.17598 8.14892 8.49271 7.83219C8.80944 7.51546 9.23901 7.33752 9.68694 7.33752C10.1349 7.33752 10.5644 7.51546 10.8812 7.83219C11.1979 8.14892 11.3758 8.57848 11.3758 9.02641C11.3758 9.47434 11.1979 9.90391 10.8812 10.2206C10.5644 10.5374 10.1349 10.7153 9.68694 10.7153C9.23901 10.7153 8.80944 10.5374 8.49271 10.2206C8.17598 9.90391 7.99805 9.47434 7.99805 9.02641Z" fill="#1ABCFE"/>
<path d="M4.62109 12.4042C4.62109 11.9562 4.79903 11.5267 5.11576 11.2099C5.43249 10.8932 5.86205 10.7153 6.30998 10.7153H7.99887V12.4042C7.99887 12.8521 7.82093 13.2817 7.5042 13.5984C7.18748 13.9151 6.75791 14.093 6.30998 14.093C5.86205 14.093 5.43249 13.9151 5.11576 13.5984C4.79903 13.2817 4.62109 12.8521 4.62109 12.4042Z" fill="#0ACF83"/>
<path d="M7.99805 3.95972V7.33749H9.68694C10.1349 7.33749 10.5644 7.15956 10.8812 6.84283C11.1979 6.5261 11.3758 6.09653 11.3758 5.64861C11.3758 5.20068 11.1979 4.77111 10.8812 4.45438C10.5644 4.13765 10.1349 3.95972 9.68694 3.95972H7.99805Z" fill="#FF7262"/>
<path d="M4.62109 5.64861C4.62109 6.09653 4.79903 6.5261 5.11576 6.84283C5.43249 7.15956 5.86205 7.33749 6.30998 7.33749H7.99887V3.95972H6.30998C5.86205 3.95972 5.43249 4.13765 5.11576 4.45438C4.79903 4.77111 4.62109 5.20068 4.62109 5.64861Z" fill="#F24E1E"/>
<path d="M4.62109 9.02641C4.62109 9.47434 4.79903 9.90391 5.11576 10.2206C5.43249 10.5374 5.86205 10.7153 6.30998 10.7153H7.99887V7.33752H6.30998C5.86205 7.33752 5.43249 7.51546 5.11576 7.83219C4.79903 8.14892 4.62109 8.57848 4.62109 9.02641Z" fill="#A259FF"/>
</g>
</g>
<defs>
<clipPath id="clip0_177_917">
<rect width="16" height="16" fill="white" transform="translate(0 0.9375)"/>
</clipPath>
</defs>
</svg>
