<svg width="17" height="17" viewBox="0 0 17 17" fill="none" xmlns="http://www.w3.org/2000/svg">
<g clip-path="url(#clip0_177_928)">
<path d="M6.45508 15.8841C7.07502 16.1336 7.74758 16.2817 8.4538 16.3064C9.40953 16.3397 10.3184 16.1421 11.1309 15.7668C10.1566 15.384 9.27417 14.8242 8.52105 14.1282C8.03289 14.9098 7.31086 15.5272 6.45508 15.8841Z" fill="#FF9100"/>
<path d="M8.52033 14.1284C6.80124 12.5385 5.75836 10.2373 5.84649 7.71327C5.84937 7.63133 5.85369 7.54941 5.85876 7.46751C5.55087 7.38789 5.22943 7.3393 4.89865 7.32775C4.42519 7.31122 3.96665 7.36994 3.53377 7.49183C3.07486 8.2957 2.79793 9.21805 2.76343 10.206C2.67439 12.7556 4.21735 14.9834 6.45433 15.8844C7.31014 15.5274 8.03215 14.9108 8.52033 14.1284Z" fill="#FFC400"/>
<path d="M8.52082 14.1284C8.9205 13.4887 9.16281 12.7389 9.19103 11.931C9.26524 9.80576 7.83657 7.9776 5.85924 7.46747C5.85417 7.54936 5.84985 7.63128 5.84697 7.71323C5.75884 10.2373 6.80172 12.5385 8.52082 14.1284Z" fill="#FF9100"/>
<path d="M8.96902 1.49371C7.84286 2.39591 6.95358 3.58554 6.41553 4.95597C6.1075 5.74093 5.91393 6.5841 5.85742 7.46797C7.83476 7.9781 9.26345 9.80626 9.18924 11.9314C9.16102 12.7394 8.91798 13.4885 8.519 14.1289C9.27206 14.8256 10.1545 15.3847 11.1288 15.7675C13.0845 14.8635 14.472 12.9182 14.5524 10.6174C14.6044 9.12672 14.0317 7.7981 13.2224 6.67666C12.3677 5.49061 8.96902 1.49371 8.96902 1.49371Z" fill="#DD2C00"/>
</g>
<defs>
<clipPath id="clip0_177_928">
<rect width="16" height="16" fill="white" transform="translate(0.75 0.9375)"/>
</clipPath>
</defs>
</svg>
