<svg width="17" height="17" viewBox="0 0 17 17" fill="none" xmlns="http://www.w3.org/2000/svg">
<g clip-path="url(#clip0_177_1041)">
<path fill-rule="evenodd" clip-rule="evenodd" d="M3.27419 16.4263H6.6659V9.79032H14.3341V6.87788H6.6659V3.44931H14.5553V0.5H3.27419V4.3341L3.82719 4.96083L2.5 6.36175L3.82719 7.87327L2.5 9.20046L3.82719 10.6382L2.5 12.076L3.27419 12.924V16.4263ZM3.82719 15.7995H6.07604V9.20046H13.7811V7.43088H6.07604V2.85945H13.9286V1.08986H3.86406V4.1129L4.67512 4.92396L3.27419 6.36175L4.67512 7.79954L3.27419 9.20046L4.67512 10.6382L3.27419 12.076L3.82719 12.7028V15.7995Z" fill="#27F7C1"/>
</g>
<defs>
<clipPath id="clip0_177_1041">
<rect width="16" height="16" fill="white" transform="translate(0.5 0.4375)"/>
</clipPath>
</defs>
</svg>
