<svg width="17" height="17" viewBox="0 0 17 17" fill="none" xmlns="http://www.w3.org/2000/svg">
<g clip-path="url(#clip0_177_939)">
<path d="M15.7928 8.26251L9.17528 1.64527C8.79425 1.26408 8.17618 1.26408 7.79482 1.64527L6.4208 3.01962L8.16381 4.76263C8.56893 4.62573 9.03342 4.7176 9.35623 5.04057C9.68101 5.36552 9.77206 5.83397 9.63169 6.24057L11.3119 7.92057C11.7185 7.78036 12.1872 7.87109 12.5119 8.1962C12.9655 8.64981 12.9655 9.38482 12.5119 9.83876C12.0579 10.2925 11.3229 10.2925 10.8688 9.83876C10.5277 9.49731 10.4432 8.99587 10.6163 8.57558L9.04926 7.00874V11.132C9.15977 11.1867 9.26418 11.2596 9.35623 11.3517C9.80983 11.8053 9.80983 12.5403 9.35623 12.9944C8.90262 13.4478 8.16711 13.4478 7.71383 12.9944C7.26023 12.5401 7.26023 11.8051 7.71383 11.3517C7.826 11.2397 7.95581 11.1549 8.09437 11.0981V6.93649C7.95581 6.87975 7.82633 6.79579 7.71383 6.68296C7.37025 6.33954 7.28761 5.83513 7.46377 5.41319L5.7455 3.69459L1.20777 8.23183C0.826576 8.61335 0.826576 9.23142 1.20777 9.61261L7.82567 16.23C8.2067 16.6112 8.8246 16.6112 9.20612 16.23L15.7928 9.64329C16.174 9.2621 16.174 8.64371 15.7928 8.26251Z" fill="#F05133"/>
</g>
<defs>
<clipPath id="clip0_177_939">
<rect width="16" height="16" fill="white" transform="translate(0.5 0.9375)"/>
</clipPath>
</defs>
</svg>
