<svg width="17" height="17" viewBox="0 0 17 17" fill="none" xmlns="http://www.w3.org/2000/svg">
<g clip-path="url(#clip0_177_935)">
<path d="M7.70108 12.7842C7.76262 12.7843 7.82355 12.7965 7.88038 12.8201C7.9372 12.8438 7.98882 12.8783 8.03228 12.9219C8.07574 12.9655 8.11018 13.0172 8.13366 13.0741C8.15713 13.131 8.16916 13.192 8.16908 13.2535C8.16899 13.3151 8.15678 13.376 8.13315 13.4328C8.10951 13.4897 8.07492 13.5413 8.03134 13.5847C7.98775 13.6282 7.93604 13.6626 7.87914 13.6861C7.82225 13.7096 7.76129 13.7216 7.69974 13.7215C7.57545 13.7213 7.45631 13.6718 7.36854 13.5838C7.28077 13.4958 7.23157 13.3765 7.23174 13.2522C7.23192 13.1279 7.28147 13.0088 7.36948 12.921C7.4575 12.8332 7.57678 12.784 7.70108 12.7842ZM15.0504 9.88619C14.9889 9.88615 14.9279 9.87398 14.8711 9.85039C14.8142 9.82679 14.7626 9.79223 14.7191 9.74868C14.6756 9.70513 14.6411 9.65344 14.6176 9.59657C14.5941 9.53969 14.582 9.47874 14.5821 9.41719C14.5821 9.35564 14.5943 9.29471 14.6179 9.23786C14.6415 9.18102 14.676 9.12938 14.7196 9.08589C14.7631 9.0424 14.8148 9.00792 14.8717 8.9844C14.9286 8.96089 14.9895 8.94881 15.0511 8.94886C15.1754 8.94894 15.2945 8.99841 15.3824 9.08636C15.4702 9.17432 15.5195 9.29356 15.5194 9.41786C15.5193 9.54215 15.4699 9.66133 15.3819 9.74916C15.2939 9.83698 15.1747 9.88628 15.0504 9.88619ZM15.0504 7.96886C14.6661 7.96921 14.2977 8.12202 14.026 8.39375C13.7542 8.66547 13.6014 9.03391 13.6011 9.41819C13.6011 9.57352 13.6271 9.72819 13.6777 9.87886L8.89041 12.4275C8.75767 12.2348 8.58004 12.0772 8.37285 11.9684C8.16566 11.8596 7.93511 11.8028 7.70108 11.8029C7.14841 11.8029 6.64508 12.1195 6.40108 12.6135L2.10041 10.3455C1.64574 10.1069 1.30574 9.35886 1.34174 8.67752C1.36041 8.32219 1.48308 8.04619 1.67041 7.93952C1.78908 7.87286 1.93174 7.87819 2.08374 7.95752L2.11174 7.97286C3.25174 8.57286 6.98108 10.5375 7.13841 10.6102C7.38041 10.7229 7.51508 10.7682 7.92841 10.5722L15.6377 6.56286C15.7511 6.52019 15.8831 6.41152 15.8831 6.24686C15.8831 6.01886 15.6471 5.92886 15.6464 5.92886C15.2077 5.71886 14.5337 5.40352 13.8764 5.09552C12.4711 4.43752 10.8784 3.69219 10.1791 3.32552C9.57508 3.00952 9.08908 3.27619 9.00241 3.32952L8.83441 3.41286C5.68641 4.96952 1.47308 7.05619 1.23308 7.20219C0.80441 7.46352 0.53841 7.98419 0.503744 8.63019C0.45041 9.65486 0.97241 10.7235 1.71974 11.1149L6.26774 13.4602C6.31784 13.8047 6.49022 14.1197 6.75339 14.3476C7.01656 14.5755 7.35294 14.7011 7.70108 14.7015C8.0813 14.7009 8.44608 14.5511 8.71699 14.2843C8.98789 14.0175 9.14328 13.655 9.14974 13.2749L14.1591 10.5595C14.4124 10.7582 14.7277 10.8669 15.0504 10.8669C15.4347 10.8665 15.8031 10.7137 16.0749 10.442C16.3466 10.1702 16.4994 9.8018 16.4997 9.41752C16.4994 9.03324 16.3466 8.6648 16.0749 8.39308C15.8031 8.12135 15.4347 7.96854 15.0504 7.96819" fill="black"/>
</g>
<defs>
<clipPath id="clip0_177_935">
<rect width="16" height="16" fill="white" transform="translate(0.5 0.9375)"/>
</clipPath>
</defs>
</svg>
