<svg width="17" height="17" viewBox="0 0 17 17" fill="none" xmlns="http://www.w3.org/2000/svg">
<g clip-path="url(#clip0_177_937)">
<path fill-rule="evenodd" clip-rule="evenodd" d="M8.75 0.9375C4.33 0.9375 0.75 4.5175 0.75 8.9375C0.75 12.4775 3.04 15.4675 6.22 16.5275C6.62 16.5975 6.77 16.3575 6.77 16.1475C6.77 15.9575 6.76 15.3275 6.76 14.6575C4.75 15.0275 4.23 14.1675 4.07 13.7175C3.98 13.4875 3.59 12.7775 3.25 12.5875C2.97 12.4375 2.57 12.0675 3.24 12.0575C3.87 12.0475 4.32 12.6375 4.47 12.8775C5.19 14.0875 6.34 13.7475 6.8 13.5375C6.87 13.0175 7.08 12.6675 7.31 12.4675C5.53 12.2675 3.67 11.5775 3.67 8.5175C3.67 7.6475 3.98 6.9275 4.49 6.3675C4.41 6.1675 4.13 5.3475 4.57 4.2475C4.57 4.2475 5.24 4.0375 6.77 5.0675C7.41 4.8875 8.09 4.7975 8.77 4.7975C9.45 4.7975 10.13 4.8875 10.77 5.0675C12.3 4.0275 12.97 4.2475 12.97 4.2475C13.41 5.3475 13.13 6.1675 13.05 6.3675C13.56 6.9275 13.87 7.6375 13.87 8.5175C13.87 11.5875 12 12.2675 10.22 12.4675C10.51 12.7175 10.76 13.1975 10.76 13.9475C10.76 15.0175 10.75 15.8775 10.75 16.1475C10.75 16.3575 10.9 16.6075 11.3 16.5275C14.46 15.4675 16.75 12.4675 16.75 8.9375C16.75 4.5175 13.17 0.9375 8.75 0.9375Z" fill="#1B1F23"/>
</g>
<defs>
<clipPath id="clip0_177_937">
<rect width="16" height="16" fill="white" transform="translate(0.75 0.9375)"/>
</clipPath>
</defs>
</svg>
