<svg width="16" height="17" viewBox="0 0 16 17" fill="none" xmlns="http://www.w3.org/2000/svg">
<g clip-path="url(#clip0_177_947)">
<path d="M8.00051 6.3944L10.5206 2.03243C10.2731 1.88581 9.98908 1.8125 9.69583 1.8125H6.3052C6.01197 1.8125 5.72789 1.89497 5.48047 2.03243L8.00051 6.3944Z" fill="#00832D"/>
<path d="M1.20963 14.0645L1.91524 15.2833C2.06186 15.5399 2.27263 15.7415 2.52004 15.8881L5.04009 11.5261H0C0 11.8102 0.0733106 12.0943 0.219931 12.3509L1.20963 14.0645Z" fill="#0066DA"/>
<path d="M8 6.39444L5.47996 2.03247C5.23253 2.17909 5.02177 2.3807 4.87514 2.63728L0.219931 10.7014C0.0760069 10.9525 0.000191627 11.2368 0 11.5262H5.04009L8 6.39444Z" fill="#00AC47"/>
<path d="M13.4794 15.8881C13.7268 15.7415 13.9375 15.5399 14.0842 15.2833L14.3774 14.7793L15.7795 12.3509C15.9261 12.0943 15.9994 11.8102 15.9994 11.5261H10.959L12.0315 13.6338L13.4794 15.8881Z" fill="#EA4335"/>
<path d="M10.9594 11.5261H5.03958L2.51953 15.8881C2.76696 16.0347 3.05104 16.1081 3.34427 16.1081H12.6547C12.9479 16.1081 13.2321 16.0256 13.4794 15.8881L10.9594 11.5261Z" fill="#2684FC"/>
<path d="M13.4524 6.66936L11.1249 2.63728C10.9783 2.3807 10.7675 2.17909 10.5201 2.03247L8 6.39444L10.9599 11.5262H15.9908C15.9908 11.2421 15.9175 10.958 15.7709 10.7014L13.4524 6.66936Z" fill="#FFBA00"/>
</g>
<defs>
<clipPath id="clip0_177_947">
<rect width="16" height="16" fill="white" transform="translate(0 0.9375)"/>
</clipPath>
</defs>
</svg>
