<svg width="17" height="17" viewBox="0 0 17 17" fill="none" xmlns="http://www.w3.org/2000/svg">
<g clip-path="url(#clip0_177_954)">
<path d="M10.3246 0.9375L14.3246 4.9375L12.3246 5.30114L10.3246 4.9375L9.96094 2.9375L10.3246 0.9375Z" fill="#188038"/>
<path d="M10.3239 4.9375V0.9375H3.77841C3.17568 0.9375 2.6875 1.42568 2.6875 2.02841V15.8466C2.6875 16.4493 3.17568 16.9375 3.77841 16.9375H13.233C13.8357 16.9375 14.3239 16.4493 14.3239 15.8466V4.9375H10.3239Z" fill="#34A853"/>
<path d="M4.86914 7.11926V12.392H12.1419V7.11926H4.86914ZM8.05096 11.4829H5.77823V10.2102H8.05096V11.4829ZM8.05096 9.30108H5.77823V8.02835H8.05096V9.30108ZM11.2328 11.4829H8.96005V10.2102H11.2328V11.4829ZM11.2328 9.30108H8.96005V8.02835H11.2328V9.30108Z" fill="white"/>
</g>
<defs>
<clipPath id="clip0_177_954">
<rect width="16" height="16" fill="white" transform="translate(0.5 0.9375)"/>
</clipPath>
</defs>
</svg>
