<svg width="17" height="17" viewBox="0 0 17 17" fill="none" xmlns="http://www.w3.org/2000/svg">
<g clip-path="url(#clip0_177_958)">
<path d="M16.25 0.9375H0.25V16.9375H16.25V0.9375Z" fill="#F7DF1E"/>
<path d="M10.998 13.4375C11.3203 13.9638 11.7396 14.3506 12.4812 14.3506C13.1042 14.3506 13.5021 14.0392 13.5021 13.609C13.5021 13.0934 13.0932 12.9108 12.4075 12.6109L12.0317 12.4496C10.9467 11.9874 10.2259 11.4083 10.2259 10.1842C10.2259 9.05659 11.0851 8.19818 12.4278 8.19818C13.3838 8.19818 14.071 8.53088 14.5663 9.40199L13.3955 10.1537C13.1377 9.69151 12.8596 9.50942 12.4278 9.50942C11.9875 9.50942 11.7084 9.78878 11.7084 10.1537C11.7084 10.6048 11.9877 10.7874 12.6328 11.0668L13.0087 11.2278C14.2861 11.7756 15.0074 12.3341 15.0074 13.5897C15.0074 14.9433 13.944 15.6849 12.516 15.6849C11.1197 15.6849 10.2176 15.0195 9.77616 14.1474L10.998 13.4375ZM5.68676 13.5678C5.92295 13.9869 6.13781 14.3412 6.65438 14.3412C7.14835 14.3412 7.45997 14.1479 7.45997 13.3964V8.28402H8.96346V13.4167C8.96346 14.9735 8.0507 15.6821 6.71838 15.6821C5.51457 15.6821 4.81743 15.0591 4.46289 14.3088L5.68676 13.5678Z" fill="black"/>
</g>
<defs>
<clipPath id="clip0_177_958">
<rect width="16" height="16" fill="white" transform="translate(0.25 0.9375)"/>
</clipPath>
</defs>
</svg>
