<svg width="17" height="17" viewBox="0 0 17 17" fill="none" xmlns="http://www.w3.org/2000/svg">
<g clip-path="url(#clip0_177_961)">
<path d="M15.2954 2.65149H8.41602C8.41602 3.47511 8.7432 4.26501 9.32559 4.8474C9.90798 5.42979 10.6979 5.75697 11.5215 5.75697H12.7888V6.98054C12.7899 8.69409 14.1787 10.0829 15.8922 10.0841V3.24828C15.8922 2.91877 15.6251 2.65149 15.2954 2.65149Z" fill="#2684FF"/>
<path d="M11.893 6.07922H5.01367C5.01473 7.79277 6.40353 9.18163 8.11714 9.18275H9.38441V10.4102C9.38659 12.1238 10.7763 13.5117 12.4899 13.5117V6.67613C12.4899 6.34651 12.2227 6.07922 11.893 6.07922Z" fill="url(#paint0_linear_177_961)"/>
<path d="M8.48685 9.505H1.60742C1.60742 11.2201 2.99784 12.6105 4.7129 12.6105H5.98415V13.834C5.98526 15.546 7.37166 16.9342 9.08369 16.9375V10.1019C9.08369 9.77223 8.81646 9.505 8.48685 9.505Z" fill="url(#paint1_linear_177_961)"/>
</g>
<defs>
<linearGradient id="paint0_linear_177_961" x1="1876.29" y1="9.50109" x2="1134.14" y2="876.811" gradientUnits="userSpaceOnUse">
<stop offset="0.18" stop-color="#0052CC"/>
<stop offset="1" stop-color="#2684FF"/>
</linearGradient>
<linearGradient id="paint1_linear_177_961" x1="1923.17" y1="19.1754" x2="1064.7" y2="965.139" gradientUnits="userSpaceOnUse">
<stop offset="0.18" stop-color="#0052CC"/>
<stop offset="1" stop-color="#2684FF"/>
</linearGradient>
<clipPath id="clip0_177_961">
<rect width="16" height="16" fill="white" transform="translate(0.75 0.9375)"/>
</clipPath>
</defs>
</svg>
