<svg width="16" height="17" viewBox="0 0 16 17" fill="none" xmlns="http://www.w3.org/2000/svg">
<path d="M4.06587 4.07001C1.82393 4.07001 0 5.88914 0 8.12501C0 10.3609 1.824 12.18 4.06587 12.18H11.9341C14.1761 12.18 16 10.3609 16 8.12501C16 5.88914 14.176 4.07001 11.9341 4.07001H4.06587ZM3.98493 5.35901C4.3136 5.36727 4.66493 5.52541 4.8336 5.77421C5.07847 6.08034 5.15213 6.48541 5.42987 6.76967C5.80347 7.17754 6.2292 7.53667 6.57393 7.97101C6.90007 8.36794 7.133 8.83347 7.33633 9.30267C7.41927 9.45834 7.42013 9.64947 7.543 9.78247C7.60353 9.86274 7.8994 10.0813 7.8352 10.1588C7.8722 10.2391 8.14867 10.3495 8.05273 10.4273C7.92313 10.4539 7.77747 10.459 7.67833 10.3557C7.64173 10.4397 7.55633 10.3954 7.4904 10.3845C7.48469 10.4008 7.47913 10.4171 7.47373 10.4335C7.25453 10.4481 7.09013 10.2251 6.98573 10.0569C6.77833 9.94487 6.54293 9.87674 6.33107 9.75954C6.31893 9.95254 6.3612 10.1919 6.17707 10.3164C6.16773 10.6874 6.73947 10.3601 6.79187 10.6367C6.7512 10.6411 6.70613 10.6303 6.6736 10.6615C6.52433 10.8063 6.35327 10.5519 6.18127 10.6569C5.95033 10.7729 5.9274 10.8676 5.64153 10.8915C5.62573 10.8676 5.632 10.8521 5.64547 10.8375C5.72593 10.7442 5.7318 10.6344 5.8692 10.5946C5.72773 10.5723 5.60927 10.6501 5.49013 10.7117C5.33527 10.7751 5.33653 10.569 5.09827 10.7227C5.07187 10.7012 5.0844 10.6817 5.09947 10.6651C5.16 10.5913 5.2396 10.5804 5.32947 10.5845C4.88747 10.3388 4.6794 10.885 4.47527 10.6133C4.41393 10.6295 4.39093 10.6845 4.35227 10.7235C4.31893 10.6869 4.34407 10.6427 4.34567 10.5997C4.3058 10.581 4.25527 10.5723 4.26707 10.5086C4.189 10.4823 4.13453 10.5283 4.0764 10.5721C4.02393 10.5315 4.11187 10.4726 4.12813 10.4304C4.17493 10.3493 4.28147 10.4137 4.33553 10.3553C4.48927 10.2681 4.70353 10.4096 4.8792 10.3857C5.01453 10.4027 5.18213 10.264 5.11427 10.1257C4.96953 9.94121 4.99493 9.69994 4.99167 9.47934C4.9738 9.35074 4.66433 9.18721 4.57487 9.04854C4.46427 8.92367 4.3782 8.77874 4.292 8.63641C3.98093 8.03587 4.0788 7.26414 3.68687 6.70661C3.50953 6.80434 3.27853 6.75821 3.12567 6.62727C3.04313 6.70227 3.03953 6.80047 3.033 6.90467C2.835 6.70721 2.86013 6.33407 3.01833 6.11434C3.08293 6.02754 3.16013 5.95614 3.24633 5.89327C3.2658 5.87907 3.2724 5.86534 3.272 5.84347C3.35027 5.49234 3.65627 5.35074 3.98493 5.35901ZM12.2563 5.66567C12.628 5.66567 12.9767 5.80961 13.239 6.07114C13.5013 6.33267 13.6457 6.68081 13.6457 7.05141C13.6457 7.42207 13.5012 7.77007 13.239 8.03127L12.6377 8.63134C12.4776 8.79117 12.2808 8.90941 12.0645 8.97574L12.0536 8.97887L12.0497 8.98981C11.9805 9.17297 11.8728 9.33912 11.7337 9.47701L11.1325 10.0767C10.8703 10.3383 10.5212 10.4822 10.1495 10.4822C9.77787 10.4822 9.42913 10.3382 9.16687 10.0767C8.62487 9.53621 8.62487 8.65707 9.16687 8.11654L9.76813 7.51687C9.92767 7.35724 10.1241 7.23946 10.3401 7.17401L10.3515 7.17047L10.3553 7.15994C10.4249 6.9762 10.5329 6.80944 10.6721 6.67081L11.2733 6.07114C11.5356 5.80954 11.8847 5.66567 12.2563 5.66567ZM12.2563 6.26334C12.1525 6.263 12.0496 6.28323 11.9537 6.32284C11.8577 6.36245 11.7705 6.42067 11.6971 6.49414L11.0959 7.09381C11.0156 7.17407 10.9536 7.27074 10.9142 7.37721C10.8748 7.48367 10.8588 7.5974 10.8675 7.71061L10.871 7.74874C10.8925 7.92554 10.9703 8.08501 11.0959 8.20987C11.1826 8.29627 11.2781 8.35081 11.394 8.38894C11.4002 8.42375 11.4033 8.45905 11.4033 8.49441C11.4036 8.57249 11.3884 8.64985 11.3585 8.722C11.3287 8.79414 11.2848 8.85964 11.2294 8.91467L11.1925 8.95161C10.9916 8.88307 10.8241 8.78294 10.6729 8.63214C10.4729 8.43359 10.3388 8.17831 10.2888 7.90094L10.2822 7.86241L10.2515 7.88694C10.2311 7.90353 10.2116 7.9212 10.1931 7.93987L9.59147 8.53954C9.28327 8.84687 9.28327 9.34754 9.59147 9.65487C9.74553 9.80854 9.94813 9.88554 10.1511 9.88561C10.3539 9.88561 10.5562 9.80854 10.7103 9.65481L11.3115 9.05514C11.6197 8.74781 11.6197 8.24761 11.3115 7.93981C11.2293 7.85781 11.1299 7.7952 11.0204 7.75654C11.0144 7.72105 11.0113 7.68513 11.0111 7.64914C11.0111 7.47641 11.0793 7.31247 11.2045 7.18761C11.4057 7.25614 11.5845 7.36721 11.7353 7.51761C11.9357 7.71754 12.0682 7.97027 12.119 8.24881L12.126 8.28734L12.1563 8.26247C12.177 8.24591 12.1967 8.22824 12.2155 8.20954L12.8168 7.60981C13.1249 7.30247 13.1253 6.80154 12.8168 6.49414C12.7434 6.42061 12.6561 6.36236 12.5601 6.32275C12.464 6.28313 12.361 6.26294 12.2571 6.26334H12.2563ZM5.60767 9.70114C5.5548 9.90634 5.5374 10.2561 5.26993 10.2662C5.24793 10.3846 5.3518 10.4292 5.44693 10.3911C5.54093 10.3481 5.58567 10.425 5.6174 10.5016C5.76253 10.5227 5.977 10.4533 5.98513 10.2817C5.76847 10.1573 5.7016 9.92054 5.60767 9.70114Z" fill="black"/>
</svg>
