<svg width="17" height="17" viewBox="0 0 17 17" fill="none" xmlns="http://www.w3.org/2000/svg">
<g clip-path="url(#clip0_177_1043)">
<path d="M0.359375 0.544556V16.3309H16.1458L16.1457 0.544556H0.359375Z" fill="white"/>
<path fill-rule="evenodd" clip-rule="evenodd" d="M0.359375 16.3309V0.544556H16.1456L16.1457 16.3309H0.359375ZM14.7746 8.62038C14.9128 8.21096 15.0693 7.59816 15.0951 7.10633C15.1148 6.73531 15.0648 6.21567 14.7148 5.84642C14.4356 5.5514 14.0091 5.40251 13.4469 5.40251C12.7368 5.40251 12.1646 5.65318 11.746 6.14891L11.6355 6.27922L11.562 6.12509C11.5021 5.99949 11.4593 5.94802 11.394 5.87442C11.1079 5.55069 10.6281 5.3866 9.96791 5.38669C9.36311 5.38669 8.8168 5.56793 8.42942 5.89709L8.33137 5.98038L8.26382 5.87042C8.08089 5.57309 7.62489 5.38064 7.10249 5.38064C6.35084 5.38082 5.59244 5.48287 5.13493 6.22038L4.94533 6.52473L4.93049 6.16624C4.91893 5.88891 4.8936 5.77371 4.76462 5.63718C4.62275 5.48669 4.384 5.41353 4.03484 5.4138C3.52213 5.4138 3.1368 5.63736 2.85653 6.09771C2.42515 6.78678 1.38249 9.05327 1.40551 10.1305C1.42062 10.8296 1.88711 11.2575 2.65377 11.2752C3.2856 11.2905 3.78782 11.1284 4.10684 10.8064L4.18826 10.7241L4.26649 10.8087C4.55324 11.12 4.98915 11.2916 5.49413 11.2916C6.13715 11.2916 6.68702 11.0918 7.00284 10.743L7.08906 10.648L7.17013 10.7477C7.46577 11.1109 7.92266 11.3013 8.49129 11.299C9.23289 11.2957 9.92551 10.9549 10.3914 10.3646L10.5135 10.2098L10.5817 10.395C10.8688 11.1757 11.6469 11.292 12.0858 11.2923C13.576 11.2923 14.2196 10.2698 14.7746 8.62038Z" fill="#FFED00"/>
<path fill-rule="evenodd" clip-rule="evenodd" d="M0.359375 16.3309V0.544556H16.1456L16.1457 16.3309H0.359375ZM14.8734 9.77602C15.0797 9.35078 15.4679 8.28651 15.5396 7.71184L15.5404 7.70553C15.6279 7.00402 15.7107 6.3402 15.2373 5.68056C14.9008 5.21176 14.3274 4.89718 13.4549 4.89709C12.7955 4.89709 12.2065 5.07576 11.7356 5.4674C11.3323 5.06829 10.7539 4.88713 9.97537 4.88731C9.36622 4.88731 8.85493 5.0266 8.40969 5.29389C8.08649 5.03709 7.70711 4.87664 7.10266 4.87664C6.55475 4.87656 5.78551 4.90509 5.20515 5.3978C5.07102 5.12411 4.79831 4.90918 4.04604 4.90918C3.35306 4.90918 2.78773 5.237 2.41697 5.84562C1.92195 6.63629 0.871197 8.91958 0.898042 10.1669C0.918042 11.1058 1.62213 11.7526 2.64204 11.7769C3.25493 11.7912 3.77689 11.66 4.1752 11.3957C4.53537 11.6552 4.99564 11.7954 5.50711 11.7954C6.1192 11.7955 6.67137 11.6348 7.0808 11.3462C7.45173 11.6403 7.9384 11.7992 8.48897 11.7992C9.20329 11.7995 9.86702 11.5528 10.4032 11.0836C10.7689 11.5499 11.3954 11.7923 12.1562 11.7924C13.5804 11.7925 14.3203 10.9165 14.8734 9.77602Z" fill="#E3000B"/>
<path fill-rule="evenodd" clip-rule="evenodd" d="M0.25 16.4375V0.4375H16.25L16.2497 16.4372L0.25 16.4375ZM16.0296 16.2171L16.0297 0.657767H0.470089L0.470444 16.2171L16.0296 16.2171Z" fill="black"/>
<path fill-rule="evenodd" clip-rule="evenodd" d="M15.1482 5.26424C15.1481 5.2139 15.158 5.16403 15.1772 5.1175C15.1964 5.07096 15.2246 5.02868 15.2602 4.99307C15.2957 4.95745 15.338 4.92921 15.3845 4.90995C15.431 4.8907 15.4809 4.88081 15.5312 4.88086C15.5816 4.88077 15.6315 4.89062 15.6781 4.90985C15.7246 4.92908 15.767 4.95731 15.8026 4.99293C15.8382 5.02855 15.8665 5.07084 15.8857 5.1174C15.905 5.16396 15.9149 5.21386 15.9148 5.26424C15.9149 5.31462 15.905 5.36453 15.8858 5.41109C15.8665 5.45765 15.8383 5.49995 15.8026 5.53557C15.767 5.57118 15.7247 5.59941 15.6781 5.61862C15.6315 5.63783 15.5816 5.64766 15.5312 5.64753C15.4809 5.64761 15.431 5.63775 15.3845 5.61851C15.338 5.59928 15.2957 5.57104 15.2601 5.53543C15.2245 5.49982 15.1963 5.45753 15.1771 5.41099C15.1579 5.36445 15.1481 5.31458 15.1482 5.26424ZM15.5314 4.95695C15.7019 4.95704 15.8405 5.09428 15.84 5.26477C15.8405 5.43526 15.7014 5.57295 15.5314 5.57295C15.491 5.57289 15.451 5.56487 15.4137 5.54935C15.3764 5.53382 15.3426 5.5111 15.3141 5.48248C15.2856 5.45386 15.263 5.4199 15.2476 5.38254C15.2322 5.34519 15.2244 5.30517 15.2245 5.26477C15.2243 5.22437 15.2321 5.18434 15.2475 5.14697C15.2628 5.1096 15.2854 5.07564 15.3139 5.04703C15.3424 5.01842 15.3763 4.99574 15.4137 4.98028C15.451 4.96482 15.491 4.95689 15.5314 4.95695ZM15.6806 5.3845L15.7264 5.4645L15.6271 5.46513L15.5954 5.40024C15.5813 5.37183 15.563 5.34565 15.5413 5.32255C15.5256 5.30628 15.5113 5.30219 15.476 5.30219L15.4614 5.30228L15.4613 5.46495H15.3794V5.06788H15.5772C15.6624 5.06788 15.7024 5.11544 15.7024 5.17837C15.7026 5.23837 15.6621 5.28148 15.595 5.28948L15.5952 5.2917C15.6293 5.30353 15.6406 5.31464 15.6806 5.3845ZM15.4612 5.12957V5.23864H15.5441C15.5996 5.23864 15.6179 5.21162 15.6171 5.18353C15.6171 5.1485 15.5893 5.1293 15.5352 5.1293L15.4612 5.12957ZM11.6594 6.07748C12.0459 5.6197 12.6178 5.29179 13.4448 5.29179C14.8764 5.29179 15.2509 6.22779 15.2039 7.11224C15.1761 7.64379 15.0055 8.27704 14.8781 8.65579C14.3118 10.3385 13.6318 11.4026 12.0843 11.4025C11.3781 11.4026 10.7318 11.1271 10.4771 10.4329C10.0119 11.0215 9.301 11.4057 8.49043 11.4097C7.87087 11.4127 7.38909 11.1937 7.08287 10.8177C6.71931 11.2189 6.10412 11.4026 5.49265 11.4028C4.94332 11.4025 4.48465 11.2111 4.18358 10.8841C3.84811 11.2225 3.321 11.402 2.64963 11.3863C1.78963 11.3657 1.30918 10.8497 1.29336 10.1334C1.26971 9.02459 2.32572 6.73553 2.761 6.0405C3.06145 5.54744 3.47878 5.30539 4.033 5.30513C4.33727 5.30539 4.64971 5.35828 4.84287 5.5629C5.00171 5.7309 5.02723 5.88024 5.03896 6.1629C5.52607 5.37802 6.34705 5.27135 7.10029 5.27153C7.67665 5.27153 8.15505 5.48726 8.35576 5.81339C8.74207 5.48504 9.29843 5.27668 9.9658 5.27668C10.6489 5.27677 11.1578 5.44344 11.4746 5.80184C11.5445 5.8805 11.5942 5.94059 11.6594 6.07748ZM4.12376 9.94104C4.14918 9.67295 3.94838 9.38344 3.14723 9.52246C3.22678 9.34424 3.34509 9.09997 3.4794 8.82264C3.9098 7.93393 4.50456 6.70584 4.51576 6.22539C4.5218 5.9885 4.42634 5.79099 4.04216 5.79117C3.63629 5.79099 3.38172 5.96077 3.17318 6.30335C2.72092 7.02557 1.76047 9.20424 1.78065 10.1459C1.79203 10.6842 2.20936 10.8967 2.67309 10.9075C3.3122 10.9224 4.04838 10.7429 4.12385 9.94095L4.12376 9.94104ZM5.75487 8.78282C5.70154 8.92628 5.60127 9.22673 5.52029 9.54468C5.78323 9.47908 5.98012 9.43366 6.31763 9.44148C6.70243 9.4509 6.94865 9.61019 6.94847 9.92859C6.94847 10.6996 6.09576 10.9261 5.50491 10.9263C4.85549 10.9263 4.285 10.5569 4.285 9.84682C4.285 9.01428 4.7362 7.75188 5.15967 6.91144C5.67949 5.8789 6.21096 5.74175 7.12589 5.74175C7.5282 5.74175 7.99131 5.91348 7.99131 6.29322C7.99131 6.81962 7.54616 7.02033 7.10394 7.04575C6.91487 7.05659 6.62447 7.06699 6.45078 7.05455C6.45078 7.05455 6.30314 7.27899 6.14714 7.6781C6.96563 7.5629 7.313 7.74877 7.17487 8.2221C6.98785 8.86202 6.43336 8.90424 5.75478 8.78273L5.75487 8.78282ZM9.30723 7.08379C9.41523 6.93242 9.55967 6.79224 9.78127 6.79224C10.0528 6.79224 10.0265 6.93588 9.96207 7.11944C9.77905 7.6421 10.3318 7.65588 10.4667 7.64522C10.9492 7.60762 11.215 7.29588 11.2805 6.76486C11.3701 6.04184 10.7609 5.76424 9.98874 5.76424C8.70163 5.76424 8.19638 6.55144 7.71443 7.67677C7.48803 8.20539 7.20287 9.10877 7.20296 9.68406C7.20287 10.4921 7.69452 10.9302 8.48687 10.9302C9.64394 10.9302 10.4615 10.0075 10.6951 8.85793C10.767 8.50415 10.8557 7.84024 9.957 7.87722C9.50083 7.89606 9.22563 7.99668 9.08056 8.46282C8.93123 8.94299 9.47283 8.95606 9.47283 8.95606C9.36385 9.4525 9.04483 9.75348 8.76056 9.75375C8.58314 9.75375 8.42172 9.67677 8.47576 9.3013C8.55603 8.75233 9.07016 7.41704 9.30723 7.08379ZM14.6421 7.74219C14.5055 8.41953 14.1998 9.2213 13.8675 9.81873C13.3253 10.7933 12.6676 10.9298 12.0926 10.9225C11.5179 10.9157 10.87 10.7038 10.8651 9.81686C10.8616 9.18042 11.136 8.28157 11.3692 7.69304C11.7758 6.62548 12.1906 5.75482 13.5034 5.77037C15.0339 5.78824 14.7609 7.14957 14.6421 7.74219ZM12.7222 9.47882C12.935 9.11837 13.5341 7.48344 13.5504 7.07464C13.5552 6.95553 13.5356 6.81686 13.3436 6.81464C13.2119 6.81277 13.0974 6.83828 12.9945 6.9973C12.7632 7.29793 12.0862 9.14708 12.0976 9.51597C12.1018 9.64859 12.1758 9.76442 12.3387 9.76442C12.5262 9.76459 12.6302 9.63553 12.7222 9.47882Z" fill="black"/>
</g>
<defs>
<clipPath id="clip0_177_1043">
<rect width="16" height="16" fill="white" transform="translate(0.25 0.4375)"/>
</clipPath>
</defs>
</svg>
