<svg width="17" height="17" viewBox="0 0 17 17" fill="none" xmlns="http://www.w3.org/2000/svg">
<g clip-path="url(#clip0_177_1049)">
<path d="M15.2366 13.3741H12.6947C12.5006 13.3741 12.3438 13.2173 12.3438 13.0231V3.63966C12.3448 3.4466 12.5016 3.29086 12.6947 3.28979H15.2366C15.4296 3.28979 15.5875 3.44553 15.5885 3.63966V13.0231C15.5885 13.2162 15.4328 13.3741 15.2387 13.3741C15.2387 13.3741 15.2387 13.3741 15.2376 13.3741H15.2366Z" fill="url(#paint0_linear_177_1049)"/>
<path d="M3.45452 13.4092L1.18359 12.2657C1.01079 12.1783 0.940388 11.9681 1.02786 11.7943L5.24012 3.41455C5.32759 3.24175 5.53772 3.17135 5.71159 3.25881L7.98252 4.40015C8.15532 4.48761 8.22572 4.69775 8.13825 4.87161L3.92492 13.2535C3.83746 13.4263 3.62732 13.4967 3.45346 13.4092H3.45452Z" fill="url(#paint1_linear_177_1049)"/>
<path d="M10.163 13.2204L11.9635 4.08338C12.0009 3.89351 11.8782 3.71005 11.6894 3.67165L9.19765 3.16818C9.00672 3.12978 8.82218 3.25351 8.78378 3.44445L6.98325 12.5826C6.94592 12.7724 7.06858 12.9559 7.25845 12.9943L9.74912 13.4967C9.93898 13.5351 10.1235 13.4135 10.163 13.2236V13.2204Z" fill="url(#paint2_linear_177_1049)"/>
</g>
<defs>
<linearGradient id="paint0_linear_177_1049" x1="9.26002" y1="10.0674" x2="16.1187" y2="7.53833" gradientUnits="userSpaceOnUse">
<stop offset="0.02" stop-color="#B02DE9"/>
<stop offset="0.8" stop-color="#6D00CC"/>
</linearGradient>
<linearGradient id="paint1_linear_177_1049" x1="3.24119" y1="8.91428" x2="10.614" y2="5.72601" gradientUnits="userSpaceOnUse">
<stop stop-color="#FF00FF"/>
<stop offset="0.18" stop-color="#E80DF9"/>
<stop offset="0.54" stop-color="#C024ED"/>
<stop offset="0.73" stop-color="#B02DE9"/>
</linearGradient>
<linearGradient id="paint2_linear_177_1049" x1="1.52192" y1="11.2599" x2="16.6355" y2="5.69512" gradientUnits="userSpaceOnUse">
<stop offset="0.02" stop-color="#FF00FF"/>
<stop offset="0.09" stop-color="#E80DF9"/>
<stop offset="0.23" stop-color="#C024ED"/>
<stop offset="0.3" stop-color="#B02DE9"/>
<stop offset="0.42" stop-color="#A42BE3"/>
<stop offset="0.63" stop-color="#8527D5"/>
<stop offset="0.85" stop-color="#6021C3"/>
</linearGradient>
<clipPath id="clip0_177_1049">
<rect width="16" height="16" fill="white" transform="translate(0.75 0.4375)"/>
</clipPath>
</defs>
</svg>
