<svg width="17" height="17" viewBox="0 0 17 17" fill="none" xmlns="http://www.w3.org/2000/svg">
<g clip-path="url(#clip0_177_1054)">
<path d="M8.125 0.5625C6.04751 0.59548 4.06723 1.44815 2.61564 2.93473C1.16404 4.42131 0.358758 6.42132 0.375248 8.49901C0.391739 10.5767 1.22866 12.5637 2.70368 14.027C4.17869 15.4904 6.17225 16.3115 8.25 16.3115C10.3278 16.3115 12.3213 15.4904 13.7963 14.027C15.2713 12.5637 16.1083 10.5767 16.1248 8.49901C16.1412 6.42132 15.336 4.42131 13.8844 2.93473C12.4328 1.44815 10.4525 0.59548 8.375 0.5625H8.125ZM8.125 2.3125C6.51171 2.34543 4.97659 3.01366 3.85319 4.172C2.72978 5.33033 2.10885 6.88519 2.12532 8.49873C2.14179 10.1123 2.79431 11.6541 3.94113 12.7893C5.08794 13.9245 6.63638 14.5612 8.25 14.5612C9.86362 14.5612 11.4121 13.9245 12.5589 12.7893C13.7057 11.6541 14.3582 10.1123 14.3747 8.49873C14.3911 6.88519 13.7702 5.33033 12.6468 4.172C11.5234 3.01366 9.98829 2.34543 8.375 2.3125H8.125ZM8.125 4.0625C6.97597 4.09534 5.88603 4.57908 5.09082 5.40913C4.29561 6.23918 3.85902 7.34884 3.87545 8.49822C3.89187 9.6476 4.35998 10.7443 5.17859 11.5513C5.99719 12.3583 7.1005 12.8107 8.25 12.8107C9.3995 12.8107 10.5028 12.3583 11.3214 11.5513C12.14 10.7443 12.6081 9.6476 12.6246 8.49822C12.641 7.34884 12.2044 6.23918 11.4092 5.40913C10.614 4.57908 9.52403 4.09534 8.375 4.0625H8.125ZM8.125 5.8125C7.44041 5.84514 6.79573 6.14422 6.32873 6.64585C5.86172 7.14748 5.60942 7.81187 5.62574 8.49704C5.64207 9.18221 5.92572 9.83383 6.41608 10.3127C6.90645 10.7915 7.56463 11.0595 8.25 11.0595C8.93537 11.0595 9.59355 10.7915 10.0839 10.3127C10.5743 9.83383 10.8579 9.18221 10.8743 8.49704C10.8906 7.81187 10.6383 7.14748 10.1713 6.64585C9.70427 6.14422 9.05959 5.84514 8.375 5.8125H8.125ZM8.125 7.5625C7.90605 7.5941 7.7072 7.70746 7.56846 7.87977C7.42973 8.05208 7.3614 8.27054 7.37725 8.49119C7.39309 8.71184 7.49192 8.9183 7.65385 9.06901C7.81578 9.21973 8.02878 9.30352 8.25 9.30352C8.47122 9.30352 8.68422 9.21973 8.84615 9.06901C9.00808 8.9183 9.10691 8.71184 9.12275 8.49119C9.1386 8.27054 9.07027 8.05208 8.93154 7.87977C8.7928 7.70746 8.59395 7.5941 8.375 7.5625H8.125ZM16.125 8.4375H0.375ZM13.875 2.8125L2.625 14.0625ZM13.875 14.0625L2.625 2.8125ZM8.25 0.5625V16.3125Z" fill="white" fill-opacity="0.8"/>
<path d="M16.125 8.4375H0.375M13.875 2.8125L2.625 14.0625M13.875 14.0625L2.625 2.8125M8.25 0.5625V16.3125M8.125 0.5625C6.04751 0.59548 4.06723 1.44815 2.61564 2.93473C1.16404 4.42131 0.358758 6.42132 0.375248 8.49901C0.391739 10.5767 1.22866 12.5637 2.70368 14.027C4.17869 15.4904 6.17225 16.3115 8.25 16.3115C10.3278 16.3115 12.3213 15.4904 13.7963 14.027C15.2713 12.5637 16.1083 10.5767 16.1248 8.49901C16.1412 6.42132 15.336 4.42131 13.8844 2.93473C12.4328 1.44815 10.4525 0.59548 8.375 0.5625H8.125ZM8.125 2.3125C6.51171 2.34543 4.97659 3.01366 3.85319 4.172C2.72978 5.33033 2.10885 6.88519 2.12532 8.49873C2.14179 10.1123 2.79431 11.6541 3.94113 12.7893C5.08794 13.9245 6.63638 14.5612 8.25 14.5612C9.86362 14.5612 11.4121 13.9245 12.5589 12.7893C13.7057 11.6541 14.3582 10.1123 14.3747 8.49873C14.3911 6.88519 13.7702 5.33033 12.6468 4.172C11.5234 3.01366 9.98829 2.34543 8.375 2.3125H8.125ZM8.125 4.0625C6.97597 4.09534 5.88603 4.57908 5.09082 5.40913C4.29561 6.23918 3.85902 7.34884 3.87545 8.49822C3.89187 9.6476 4.35998 10.7443 5.17859 11.5513C5.99719 12.3583 7.1005 12.8107 8.25 12.8107C9.3995 12.8107 10.5028 12.3583 11.3214 11.5513C12.14 10.7443 12.6081 9.6476 12.6246 8.49822C12.641 7.34884 12.2044 6.23918 11.4092 5.40913C10.614 4.57908 9.52403 4.09534 8.375 4.0625H8.125ZM8.125 5.8125C7.44041 5.84514 6.79573 6.14422 6.32873 6.64585C5.86172 7.14748 5.60942 7.81187 5.62574 8.49704C5.64207 9.18221 5.92572 9.83383 6.41608 10.3127C6.90645 10.7915 7.56463 11.0595 8.25 11.0595C8.93537 11.0595 9.59355 10.7915 10.0839 10.3127C10.5743 9.83383 10.8579 9.18221 10.8743 8.49704C10.8906 7.81187 10.6383 7.14748 10.1713 6.64585C9.70427 6.14422 9.05959 5.84514 8.375 5.8125H8.125ZM8.125 7.5625C7.90605 7.5941 7.7072 7.70746 7.56846 7.87977C7.42973 8.05208 7.3614 8.27054 7.37725 8.49119C7.39309 8.71184 7.49192 8.9183 7.65385 9.06901C7.81578 9.21973 8.02878 9.30352 8.25 9.30352C8.47122 9.30352 8.68422 9.21973 8.84615 9.06901C9.00808 8.9183 9.10691 8.71184 9.12275 8.49119C9.1386 8.27054 9.07027 8.05208 8.93154 7.87977C8.7928 7.70746 8.59395 7.5941 8.375 7.5625H8.125Z" stroke="#777777" stroke-width="0.0625"/>
<path d="M6.5 1.4375L4 2.6875L12.5 14.1875L13.75 12.9375L8.25 8.4375L6.5 1.4375Z" fill="#FF6600" fill-opacity="0.8" stroke="#777777" stroke-width="0.0625"/>
<path d="M2.375 6.6875V10.1875L8.25 8.4375L2.375 6.6875Z" fill="#FFCC00" fill-opacity="0.8" stroke="#777777" stroke-width="0.0625"/>
<path d="M8.25 8.4375L9 12.8125H7.5L8.25 8.4375Z" fill="#77FF77" fill-opacity="0.8" stroke="#777777" stroke-width="0.0625"/>
<path d="M8.25 8.4375L9.875 3.4375L11 4.0625L8.25 8.4375Z" fill="#CCFF33" fill-opacity="0.8" stroke="#777777" stroke-width="0.0625"/>
<path d="M8.25 8.4375L10 7.6875L10.125 8.1875L8.25 8.4375ZM8.25 8.4375L5 10.0625L5.375 10.5625L8.25 8.4375Z" fill="#0044FF" fill-opacity="0.8"/>
<path d="M8.25 8.4375L10 7.6875L10.125 8.1875L8.25 8.4375ZM8.25 8.4375L5 10.0625L5.375 10.5625L8.25 8.4375Z" stroke="#777777" stroke-width="0.0625"/>
</g>
<defs>
<clipPath id="clip0_177_1054">
<rect width="16" height="16" fill="white" transform="translate(0.25 0.4375)"/>
</clipPath>
</defs>
</svg>
