<svg width="16" height="17" viewBox="0 0 16 17" fill="none" xmlns="http://www.w3.org/2000/svg">
<g clip-path="url(#clip0_177_1061)">
<path d="M16 0.4375H0V16.4375H16V0.4375Z" fill="#4093D4"/>
<path d="M11.0225 14.4904C12.4113 13.8455 13.784 13.0578 14.8527 12.0858L1.26367 12.961L1.79111 13.9699L4.78604 16.029L11.0225 14.4904Z" fill="white" stroke="white" stroke-width="1.125" stroke-linecap="round" stroke-linejoin="round"/>
<path d="M6.67383 3.56384C8.98627 4.27093 12.22 7.68662 13.3209 11.358C12.7175 11.1207 12.2661 10.8789 11.4185 11.0954C10.5985 8.11272 9.13137 5.26363 6.67383 3.56384Z" fill="white" stroke="white" stroke-width="1.125" stroke-linecap="round" stroke-linejoin="round"/>
<path d="M2.37364 1.93091C5.33559 3.19768 9.39848 6.72393 10.1447 11.4202C6.72904 10.0429 4.1287 10.7776 2.31836 11.8947C5.07993 8.38455 3.84079 4.39306 2.37364 1.93091Z" fill="white" stroke="white" stroke-width="1.125" stroke-linecap="round" stroke-linejoin="round"/>
<path d="M2.17282 13.9652C2.12243 13.9652 2.07385 13.969 2.02684 13.9761C1.36872 14.0753 1.01917 14.8225 0.361049 14.9217C0.31404 14.9288 0.265456 14.9326 0.215073 14.9326C0.16469 14.9326 0.116106 14.9288 0.0690969 14.9217C0.0453063 14.9181 0.0230134 14.9114 0 14.9062V16.4374H16V14.9234C15.96 14.9285 15.9195 14.9326 15.877 14.9326C15.8266 14.9326 15.7781 14.9288 15.731 14.9217C15.684 14.9146 15.6386 14.9042 15.5945 14.891C15.4182 14.8381 15.2634 14.7399 15.1159 14.6265C14.747 14.3431 14.4231 13.9652 13.9193 13.9652C13.8714 13.9652 13.8253 13.9691 13.7805 13.9756C13.7663 13.9776 13.753 13.9812 13.7391 13.9838C13.709 13.9895 13.679 13.9956 13.65 14.0038C13.6344 14.0083 13.6192 14.0138 13.6038 14.019C13.5775 14.0279 13.5514 14.0371 13.526 14.0479C13.5111 14.0542 13.4963 14.0611 13.4817 14.068C13.4561 14.0801 13.4309 14.0928 13.4062 14.1064C13.3934 14.1135 13.3806 14.1206 13.368 14.1281C13.3404 14.1444 13.3133 14.1615 13.2864 14.1795C13.2778 14.1853 13.2691 14.1909 13.2605 14.1968C13.2415 14.2099 13.2229 14.224 13.2042 14.2378C13.171 14.2623 13.1384 14.2879 13.106 14.3138C13.0347 14.3706 12.9639 14.4284 12.8935 14.4871C12.8715 14.5056 12.849 14.5233 12.8268 14.5415C12.7407 14.6121 12.6534 14.6803 12.5615 14.739C12.5566 14.7421 12.5517 14.7452 12.5467 14.7483C12.5174 14.7666 12.4875 14.784 12.4571 14.8003C12.4501 14.804 12.443 14.8074 12.4359 14.811C12.4061 14.8263 12.3759 14.8408 12.3449 14.8536C12.3379 14.8565 12.3306 14.8587 12.3235 14.8615C12.2914 14.874 12.2588 14.8858 12.2252 14.8952C12.1424 14.9184 12.0554 14.9326 11.9615 14.9326C11.1554 14.9326 10.8099 13.9652 10.0038 13.9652C9.19767 13.9652 8.85217 14.9326 8.04605 14.9326C7.99567 14.9326 7.94708 14.9288 7.90007 14.9217C7.85306 14.9146 7.80763 14.9042 7.76354 14.891C7.5872 14.8381 7.43246 14.7399 7.2849 14.6265C6.91603 14.3431 6.59213 13.9652 6.08831 13.9652C6.04039 13.9652 5.99434 13.9691 5.94948 13.9756C5.93536 13.9776 5.92199 13.9812 5.90814 13.9838C5.87798 13.9895 5.84801 13.9956 5.81907 14.0038C5.80339 14.0083 5.78822 14.0138 5.77287 14.019C5.74657 14.0279 5.72045 14.0371 5.69505 14.0479C5.68008 14.0542 5.66537 14.0611 5.65069 14.068C5.62517 14.0801 5.59996 14.0928 5.57521 14.1064C5.56242 14.1135 5.54966 14.1206 5.53706 14.1281C5.50947 14.1444 5.48228 14.1615 5.45546 14.1795C5.44682 14.1853 5.43811 14.1909 5.42955 14.1968C5.41051 14.2099 5.39192 14.224 5.37318 14.2378C5.34002 14.2623 5.30744 14.2879 5.27498 14.3138C5.2037 14.3706 5.1329 14.4284 5.06256 14.4871C5.04049 14.5056 5.01805 14.5233 4.99585 14.5415C4.90968 14.6121 4.8224 14.6803 4.73057 14.739C4.72566 14.7421 4.7207 14.7452 4.71577 14.7483C4.68638 14.7666 4.65651 14.784 4.62612 14.8003C4.61914 14.804 4.61201 14.8074 4.60497 14.811C4.57513 14.8263 4.54494 14.8408 4.51392 14.8536C4.50691 14.8565 4.49959 14.8587 4.49251 14.8615C4.46038 14.874 4.42787 14.8858 4.39426 14.8952C4.31146 14.9184 4.22439 14.9326 4.13056 14.9326C3.82826 14.9326 3.59074 14.7965 3.36942 14.6265C3.00054 14.3431 2.67664 13.9652 2.17282 13.9652Z" fill="#172C50"/>
</g>
<defs>
<clipPath id="clip0_177_1061">
<rect width="16" height="16" fill="white" transform="translate(0 0.4375)"/>
</clipPath>
</defs>
</svg>
