<svg width="17" height="17" viewBox="0 0 17 17" fill="none" xmlns="http://www.w3.org/2000/svg">
<g clip-path="url(#clip0_177_1069)">
<path d="M7.97583 0.44998C7.94146 0.453105 7.8321 0.464042 7.73367 0.471853C5.46358 0.676521 3.33722 1.9014 1.99048 3.78403C1.24055 4.8308 0.760913 6.01819 0.57968 7.27588C0.515624 7.7149 0.507812 7.84457 0.507812 8.43983C0.507812 9.03508 0.515624 9.16475 0.57968 9.60377C1.01401 12.605 3.14974 15.1267 6.04633 16.061C6.56503 16.2281 7.11185 16.3422 7.73367 16.4109C7.97583 16.4375 9.02261 16.4375 9.26477 16.4109C10.3381 16.2922 11.2474 16.0266 12.1442 15.5688C12.2817 15.4985 12.3082 15.4798 12.2895 15.4641C12.277 15.4548 11.6911 14.6689 10.988 13.719L9.71004 11.9926L8.10863 9.62252C7.22747 8.31952 6.50254 7.254 6.49629 7.254C6.49004 7.25244 6.48379 8.30546 6.48067 9.59128C6.47598 11.8426 6.47442 11.9332 6.44629 11.9864C6.40567 12.0629 6.37443 12.0942 6.30881 12.1285C6.25881 12.1535 6.21507 12.1582 5.97915 12.1582H5.70887L5.637 12.1129C5.59013 12.0832 5.55576 12.0442 5.53232 11.9989L5.49951 11.9285L5.50264 8.79604L5.50732 5.66197L5.55576 5.60104C5.58075 5.56823 5.63387 5.52605 5.67137 5.50574C5.73543 5.47449 5.76042 5.47136 6.03071 5.47136C6.34943 5.47136 6.40255 5.48386 6.48535 5.57448C6.50879 5.59948 7.37589 6.9056 8.41329 8.47888C9.45069 10.0522 10.8693 12.2004 11.5661 13.255L12.8316 15.172L12.8957 15.1298C13.4628 14.7611 14.0627 14.2361 14.5377 13.6893C15.5485 12.5285 16.2 11.113 16.4188 9.60377C16.4828 9.16475 16.4906 9.03508 16.4906 8.43983C16.4906 7.84457 16.4828 7.7149 16.4188 7.27588C15.9844 4.27461 13.8487 1.75298 10.9521 0.818694C10.4412 0.653086 9.89752 0.539034 9.2882 0.470291C9.13822 0.454667 8.10551 0.437482 7.97583 0.44998ZM11.2474 5.28388C11.3224 5.32138 11.3833 5.39325 11.4052 5.46824C11.4177 5.50886 11.4208 6.37753 11.4177 8.33515L11.413 11.1442L10.9177 10.3849L10.4209 9.62565V7.58366C10.4209 6.26348 10.4272 5.52136 10.4365 5.48543C10.4615 5.39793 10.5162 5.32919 10.5912 5.28857C10.6553 5.25576 10.6787 5.25264 10.924 5.25264C11.1552 5.25264 11.1958 5.25576 11.2474 5.28388Z" fill="black"/>
<path d="M12.7539 15.2064C12.6992 15.2408 12.682 15.2642 12.7305 15.2376C12.7648 15.2173 12.8211 15.1751 12.8117 15.1736C12.807 15.1736 12.7805 15.1892 12.7539 15.2064ZM12.6461 15.2767C12.618 15.2986 12.618 15.3001 12.6523 15.2829C12.6711 15.2736 12.6867 15.2626 12.6867 15.2595C12.6867 15.247 12.6789 15.2501 12.6461 15.2767ZM12.568 15.3236C12.5399 15.3454 12.5399 15.347 12.5742 15.3298C12.593 15.3204 12.6086 15.3095 12.6086 15.3064C12.6086 15.2939 12.6008 15.297 12.568 15.3236ZM12.4899 15.3704C12.4617 15.3923 12.4617 15.3939 12.4961 15.3767C12.5149 15.3673 12.5305 15.3564 12.5305 15.3533C12.5305 15.3408 12.5227 15.3439 12.4899 15.3704ZM12.3711 15.4329C12.3118 15.4642 12.3149 15.4767 12.3742 15.447C12.4008 15.4329 12.4211 15.4189 12.4211 15.4157C12.4211 15.4048 12.4196 15.4064 12.3711 15.4329Z" fill="black"/>
</g>
<defs>
<clipPath id="clip0_177_1069">
<rect width="16" height="16" fill="white" transform="translate(0.5 0.4375)"/>
</clipPath>
</defs>
</svg>
