<svg width="17" height="17" viewBox="0 0 17 17" fill="none" xmlns="http://www.w3.org/2000/svg">
<g clip-path="url(#clip0_177_965)">
<path d="M1.21272 1.62759L10.066 0.973668C11.1535 0.880388 11.4329 0.943268 12.1167 1.44039L14.9428 3.43127C15.4089 3.77367 15.5641 3.86695 15.5641 4.23975V15.1586C15.5641 15.8429 15.3156 16.2477 14.4457 16.3095L4.16472 16.9322C3.51192 16.9631 3.20104 16.8698 2.85912 16.4341L0.778 13.7279C0.40472 13.2298 0.25 12.857 0.25 12.4212V2.71559C0.25 2.15607 0.49848 1.68951 1.21272 1.62759Z" fill="white"/>
<path fill-rule="evenodd" clip-rule="evenodd" d="M10.066 0.973828L1.21272 1.62775C0.49848 1.68951 0.25 2.15623 0.25 2.71559V12.4212C0.25 12.8569 0.40472 13.2297 0.778 13.7279L2.85912 16.434C3.20104 16.8697 3.51192 16.9631 4.16472 16.9321L14.4458 16.3097C15.3151 16.2477 15.5642 15.8429 15.5642 15.1588V4.23991C15.5642 3.88631 15.4246 3.78439 15.0134 3.48263L12.1167 1.44039C11.433 0.943268 11.1535 0.880388 10.066 0.973668V0.973828ZM4.3972 4.06119C3.55768 4.11767 3.36728 4.13047 2.89048 3.74279L1.67832 2.77863C1.55512 2.65383 1.61704 2.49815 1.92744 2.46711L10.4383 1.84519C11.153 1.78279 11.5252 2.03191 11.8047 2.24951L13.2644 3.30711C13.3268 3.33863 13.482 3.52471 13.2953 3.52471L4.506 4.05383L4.3972 4.06119ZM3.41848 15.0655V5.79623C3.41848 5.39143 3.5428 5.20471 3.91496 5.17335L14.01 4.58231C14.3524 4.55143 14.5071 4.76903 14.5071 5.17319V14.3807C14.5071 14.7855 14.4447 15.1279 13.8858 15.1588L4.22552 15.7188C3.66664 15.7497 3.41864 15.5636 3.41864 15.0655H3.41848ZM12.9545 6.29319C13.0164 6.57319 12.9545 6.85319 12.6745 6.88519L12.2089 6.97751V13.8212C11.8046 14.0388 11.4324 14.1631 11.1214 14.1631C10.6242 14.1631 10.5001 14.0074 10.1278 13.5412L7.08296 8.75079V13.3855L8.04616 13.6036C8.04616 13.6036 8.04616 14.1636 7.26904 14.1636L5.12664 14.2879C5.06424 14.1631 5.12664 13.8522 5.34376 13.7903L5.90328 13.6351V7.50711L5.1268 7.44423C5.0644 7.16423 5.2196 6.75991 5.6548 6.72855L7.95352 6.57383L11.1215 11.4261V7.13335L10.314 7.04055C10.2516 6.69767 10.5001 6.44855 10.8105 6.41815L12.9545 6.29319Z" fill="black"/>
</g>
<defs>
<clipPath id="clip0_177_965">
<rect width="16" height="16" fill="white" transform="translate(0.25 0.9375)"/>
</clipPath>
</defs>
</svg>
