<svg width="16" height="17" viewBox="0 0 16 17" fill="none" xmlns="http://www.w3.org/2000/svg">
<g clip-path="url(#clip0_177_968)">
<mask id="mask0_177_968" style="mask-type:luminance" maskUnits="userSpaceOnUse" x="0" y="0" width="17" height="17">
<path d="M0.0078125 0.943604H16.0078V16.9436H0.0078125V0.943604Z" fill="white"/>
</mask>
<g mask="url(#mask0_177_968)">
<path d="M11.9472 15.7999C11.8504 16.5311 11.1347 17.0999 10.4254 16.903C9.41285 16.6249 8.24098 16.1905 7.18785 16.1092L5.57223 15.9842C5.31167 15.9661 5.06693 15.8526 4.88473 15.6655L2.10348 12.7999C1.95429 12.6472 1.85452 12.4532 1.81717 12.2431C1.77983 12.0329 1.80663 11.8164 1.8941 11.6217C1.8941 11.6217 3.61285 7.84049 3.67848 7.64361C3.74098 7.44674 3.97848 5.73111 4.11598 4.81236C4.15348 4.56549 4.27223 4.34361 4.45973 4.17799L7.75035 1.21549C7.85885 1.11803 7.98621 1.04388 8.12452 0.997626C8.26284 0.951377 8.40918 0.934012 8.55449 0.946609C8.69979 0.959206 8.84096 1.0015 8.96925 1.07086C9.09755 1.14022 9.21024 1.23518 9.30035 1.34986L12.0629 4.86236C12.2165 5.06342 12.2999 5.30933 12.3004 5.56236C12.3004 6.22799 12.3566 7.59361 12.7254 8.47486C13.0847 9.32799 13.741 10.2561 14.0847 10.7092C14.1501 10.794 14.1889 10.8963 14.1962 11.0031C14.2034 11.1099 14.1788 11.2164 14.1254 11.3092C13.6794 12.0576 13.2125 12.7933 12.7254 13.5155C12.2566 14.2124 12.041 15.0749 11.9441 15.7999H11.9472Z" fill="#6C31E3"/>
<path d="M5.18571 15.8842C6.47946 13.2592 6.44196 11.378 5.89196 10.0405C5.38571 8.80297 4.44509 8.02484 3.70446 7.54047C3.68571 7.61234 3.66384 7.67797 3.63571 7.74359L1.89509 11.6248C1.80723 11.8192 1.77991 12.0356 1.8167 12.2457C1.85348 12.4558 1.95267 12.65 2.10134 12.803L4.88571 15.6686C4.9721 15.7585 5.07365 15.8326 5.18571 15.8873V15.8842Z" fill="url(#paint0_radial_177_968)"/>
<path d="M8.70184 10.5561C9.05184 10.5936 9.39559 10.6686 9.72684 10.7936C10.7893 11.1905 11.7581 12.0811 12.555 13.803C12.6112 13.7061 12.6675 13.6093 12.73 13.5155C13.2166 12.7929 13.6834 12.0572 14.13 11.3093C14.1846 11.2168 14.21 11.1101 14.2027 11.003C14.1955 10.8958 14.1559 10.7934 14.0893 10.7093C13.7456 10.253 13.0893 9.328 12.73 8.47488C12.3612 7.59363 12.3081 6.22488 12.305 5.56238C12.305 5.30925 12.2237 5.06238 12.0675 4.86238L9.30184 1.34988C9.28681 1.33165 9.27118 1.31394 9.25497 1.29675C9.43695 1.84167 9.45864 2.42737 9.31747 2.98425C9.18358 3.43389 8.99906 3.86688 8.76747 4.27488L8.54247 4.71863C8.18172 5.40544 7.97485 6.16256 7.93622 6.93738C7.89872 7.85613 8.08622 9.01238 8.70184 10.5561Z" fill="url(#paint1_radial_177_968)"/>
<path d="M8.70117 10.5561C8.08555 9.01238 7.89492 7.85613 7.93555 6.93426C7.97418 6.15944 8.18105 5.40232 8.5418 4.71551C8.61367 4.56551 8.6918 4.41863 8.7668 4.27488C8.98867 3.84051 9.2043 3.43113 9.3168 2.98113C9.45797 2.42425 9.43628 1.83855 9.2543 1.29363C9.06471 1.0847 8.80001 0.959477 8.51824 0.945417C8.23646 0.931358 7.96061 1.02961 7.75117 1.21863L4.45742 4.18113C4.27371 4.34666 4.15329 4.57093 4.1168 4.81551L3.7168 7.47176L3.70117 7.54363C4.44492 8.02801 5.38867 8.80613 5.8918 10.0436C5.99578 10.2943 6.07734 10.5536 6.13555 10.8186C7.01055 10.6061 7.87617 10.4749 8.70117 10.5593V10.5561Z" fill="url(#paint2_radial_177_968)"/>
<path d="M10.4262 16.9061C11.1355 17.0999 11.8512 16.5311 11.948 15.7999C12.0287 15.1033 12.234 14.4269 12.5543 13.803C11.7543 12.0843 10.7887 11.1905 9.7293 10.7936C8.6043 10.3749 7.3793 10.5124 6.13555 10.8155C6.41367 12.078 6.24805 13.7311 5.18555 15.8843C5.31055 15.9405 5.43867 15.978 5.57617 15.9874C5.57617 15.9874 6.33867 16.0499 7.25117 16.1155C8.15742 16.178 9.51367 16.6499 10.4262 16.903V16.9061Z" fill="url(#paint3_radial_177_968)"/>
<path fill-rule="evenodd" clip-rule="evenodd" d="M7.94243 6.87488C7.90181 7.78738 8.01743 8.83738 8.63306 10.378L8.43931 10.3624C7.88618 8.753 7.76743 7.92488 7.80806 6.99988C7.85554 6.21263 8.07303 5.44503 8.44556 4.74988C8.52056 4.59675 8.69556 4.30925 8.77368 4.16238C8.99556 3.73425 9.14556 3.50613 9.27368 3.11238C9.45181 2.5655 9.41431 2.303 9.39243 2.04675C9.53618 2.98113 8.99556 3.79675 8.58931 4.62175C8.2157 5.31704 7.99514 6.08421 7.94243 6.87175V6.87488Z" fill="url(#paint4_radial_177_968)"/>
<path fill-rule="evenodd" clip-rule="evenodd" d="M6.07383 10.1061C6.14883 10.2749 6.21758 10.4124 6.26133 10.6218L6.0957 10.6561C6.03008 10.4124 5.97695 10.2374 5.8832 10.0311C5.32695 8.71863 4.43633 8.04363 3.70508 7.54675C4.58633 8.02175 5.49258 8.7655 6.0707 10.1061H6.07383Z" fill="url(#paint5_radial_177_968)"/>
<path fill-rule="evenodd" clip-rule="evenodd" d="M6.2707 10.7842C6.57695 12.2217 6.2332 14.0405 5.2207 15.8124C6.06758 14.0561 6.47695 12.3717 6.13633 10.8124L6.2707 10.7842Z" fill="url(#paint6_radial_177_968)"/>
<path fill-rule="evenodd" clip-rule="evenodd" d="M9.76719 10.6561C11.4266 11.278 12.0672 12.6436 12.5453 13.7811C11.9516 12.5905 11.1328 11.2717 9.70781 10.7811C8.62031 10.4124 7.70469 10.4561 6.13594 10.8124L6.10156 10.6561C7.76406 10.278 8.63281 10.2342 9.76719 10.6561Z" fill="url(#paint7_radial_177_968)"/>
</g>
</g>
<defs>
<radialGradient id="paint0_radial_177_968" cx="0" cy="0" r="1" gradientUnits="userSpaceOnUse" gradientTransform="translate(5.04509 15.6248) rotate(-104.693) scale(7.26897 4.84334)">
<stop stop-color="white" stop-opacity="0.4"/>
<stop offset="1" stop-opacity="0.1"/>
</radialGradient>
<radialGradient id="paint1_radial_177_968" cx="0" cy="0" r="1" gradientUnits="userSpaceOnUse" gradientTransform="translate(11.2518 12.6311) rotate(-82.4846) scale(11.9464 8.82606)">
<stop stop-color="white" stop-opacity="0.6"/>
<stop offset="1" stop-color="white" stop-opacity="0.1"/>
</radialGradient>
<radialGradient id="paint2_radial_177_968" cx="0" cy="0" r="1" gradientUnits="userSpaceOnUse" gradientTransform="translate(5.48242 10.5311) rotate(-77.7949) scale(10.1993 6.96903)">
<stop stop-color="white" stop-opacity="0.8"/>
<stop offset="1" stop-color="white" stop-opacity="0.4"/>
</radialGradient>
<radialGradient id="paint3_radial_177_968" cx="0" cy="0" r="1" gradientUnits="userSpaceOnUse" gradientTransform="translate(10.4793 16.9436) rotate(-120.496) scale(5.91154 6.79567)">
<stop stop-color="white" stop-opacity="0.3"/>
<stop offset="1" stop-opacity="0.3"/>
</radialGradient>
<radialGradient id="paint4_radial_177_968" cx="0" cy="0" r="1" gradientUnits="userSpaceOnUse" gradientTransform="translate(9.68931 4.94363) rotate(102.236) scale(5.30809 3.57944)">
<stop stop-color="white" stop-opacity="0"/>
<stop offset="1" stop-color="white" stop-opacity="0.2"/>
</radialGradient>
<radialGradient id="paint5_radial_177_968" cx="0" cy="0" r="1" gradientUnits="userSpaceOnUse" gradientTransform="translate(3.4707 7.81863) rotate(45.3237) scale(3.91125 8.33084)">
<stop stop-color="white" stop-opacity="0.2"/>
<stop offset="1" stop-color="white" stop-opacity="0.4"/>
</radialGradient>
<radialGradient id="paint6_radial_177_968" cx="0" cy="0" r="1" gradientUnits="userSpaceOnUse" gradientTransform="translate(6.7207 9.81237) rotate(86.0397) scale(4.07222 8.64757)">
<stop stop-color="white" stop-opacity="0.2"/>
<stop offset="1" stop-color="white" stop-opacity="0.3"/>
</radialGradient>
<radialGradient id="paint7_radial_177_968" cx="0" cy="0" r="1" gradientUnits="userSpaceOnUse" gradientTransform="translate(12.5016 13.4124) rotate(-152.289) scale(6.98911 21.9876)">
<stop stop-color="white" stop-opacity="0.2"/>
<stop offset="0.5" stop-color="white" stop-opacity="0.2"/>
<stop offset="1" stop-color="white" stop-opacity="0.3"/>
</radialGradient>
<clipPath id="clip0_177_968">
<rect width="16" height="16" fill="white" transform="translate(0 0.9375)"/>
</clipPath>
</defs>
</svg>
