<svg width="17" height="17" viewBox="0 0 17 17" fill="none" xmlns="http://www.w3.org/2000/svg">
<g clip-path="url(#clip0_177_1001)">
<path d="M16.1394 7.64225C16.109 7.64225 16.0786 7.64225 16.0482 7.64225L13.3413 2.71519C13.4022 2.62396 13.4022 2.53271 13.4022 2.41106C13.4022 2.04609 13.098 1.77236 12.7635 1.77236C12.581 1.77236 12.3985 1.86361 12.3073 1.98526L6.95442 0.890363C6.92401 0.555811 6.65029 0.3125 6.31574 0.3125C5.95077 0.3125 5.67704 0.616639 5.67704 0.951194C5.67704 1.07284 5.70746 1.16409 5.73787 1.25533L1.57117 7.24687C1.51034 7.24687 1.44952 7.21644 1.38869 7.21644C1.02373 7.21644 0.75 7.52056 0.75 7.85512C0.75 8.22012 1.05414 8.49381 1.38869 8.49381H1.41911L3.66973 14.0596C3.63932 14.1508 3.60891 14.2421 3.60891 14.3333C3.60891 14.6982 3.91304 14.972 4.24759 14.972C4.43007 14.972 4.61256 14.8808 4.7038 14.7591L11.4557 15.4282C11.5165 15.7019 11.7902 15.9148 12.0944 15.9148C12.4593 15.9148 12.7331 15.6107 12.7331 15.2761C12.7331 15.1241 12.6723 14.972 12.581 14.8503L15.9874 8.91963C16.0178 8.91963 16.0482 8.91963 16.109 8.91963C16.4739 8.91963 16.7477 8.6155 16.7477 8.28094C16.7781 7.94638 16.5044 7.64225 16.1394 7.64225ZM12.2464 2.80644C12.3377 2.89768 12.4289 2.98892 12.5506 3.01933L11.5165 10.7444C11.4557 10.7444 11.3949 10.7749 11.334 10.8053L5.70746 5.93906C5.70746 5.87824 5.73787 5.81741 5.73787 5.75658C5.73787 5.72617 5.73787 5.66534 5.73787 5.63492L12.2464 2.80644ZM15.5007 8.49381L12.0336 10.8661C12.0031 10.8357 11.9727 10.8357 11.9423 10.8053L13.0068 3.01933L15.6528 7.88556C15.5616 8.00719 15.5007 8.15925 15.5007 8.31138C15.4703 8.37219 15.5007 8.433 15.5007 8.49381ZM5.00794 5.11789C4.7038 5.17872 4.46049 5.42203 4.46049 5.75658V5.78699L2.14904 7.15562L5.73787 2.01567L5.00794 5.11789ZM5.25125 6.39528C5.34249 6.36486 5.43374 6.33444 5.49456 6.30403L11.0603 11.1398C11.0299 11.2007 11.0299 11.2919 11.0299 11.3831V11.4136L4.79504 13.9683C4.7038 13.8467 4.55173 13.725 4.39966 13.6946L5.25125 6.39528ZM11.1819 11.8089C11.2732 11.9002 11.3949 11.961 11.5165 11.9914L11.8206 14.6982C11.699 14.7591 11.5773 14.8807 11.5165 15.0024L4.97753 14.3637L11.1819 11.8089ZM11.9727 11.961C12.1856 11.8698 12.3377 11.6264 12.3377 11.3831C12.3377 11.3223 12.3377 11.2615 12.3073 11.2311L15.4703 9.07169L12.2769 14.607L11.9727 11.961ZM12.1248 2.38064L5.52497 5.26996C5.49456 5.23954 5.46415 5.23954 5.46415 5.20913L6.31574 1.62029H6.34615C6.58946 1.62029 6.77194 1.49864 6.8936 1.31616L12.1248 2.38064ZM2.05779 7.85512C2.05779 7.82475 2.05779 7.76388 2.05779 7.7335L4.67339 6.18237C4.73422 6.2432 4.79504 6.27362 4.85587 6.30403L4.00428 13.6034L1.87531 8.34175C1.96656 8.22013 2.05779 8.06806 2.05779 7.85512Z" fill="#343433"/>
<path d="M13.0067 3.01929L15.6527 7.88551C15.5615 8.00714 15.5007 8.15926 15.5007 8.31133C15.5007 8.37214 15.5007 8.43295 15.531 8.49376L12.0638 10.8661C12.0335 10.8356 12.003 10.8356 11.9727 10.8053L13.0067 3.01929Z" fill="#DFE0E0"/>
<path d="M11.9727 11.961C12.1855 11.8697 12.3376 11.6264 12.3376 11.3831C12.3376 11.3223 12.3376 11.2615 12.3072 11.231L15.4702 9.07166L12.2768 14.607L11.9727 11.961Z" fill="#B3B3B3"/>
<path d="M11.181 11.809C11.2722 11.9002 11.3939 11.961 11.5155 11.9915L11.8197 14.6983C11.698 14.7591 11.5763 14.8808 11.5155 15.0024L4.97656 14.3637L11.181 11.809Z" fill="#D2D2D2"/>
<path d="M5.25198 6.39532C5.34322 6.36491 5.43446 6.33449 5.49528 6.30408L11.061 11.1399C11.0306 11.2007 11.0306 11.2919 11.0306 11.3832V11.4136L4.79577 13.9684C4.70453 13.8467 4.55246 13.725 4.40039 13.6947L5.25198 6.39532Z" fill="#F5F6F7"/>
<path d="M2.05748 7.85512C2.05748 7.82475 2.05748 7.76387 2.05748 7.7335L4.67307 6.18237C4.7339 6.2432 4.79473 6.27361 4.85556 6.30403L4.00397 13.6034L1.875 8.34175C1.96624 8.22012 2.05748 8.06806 2.05748 7.85512Z" fill="#D9D9D9"/>
<path d="M5.00734 5.11784C4.7032 5.17867 4.45989 5.42198 4.45989 5.75653V5.78694L2.14844 7.15558L5.73728 2.01562L5.00734 5.11784Z" fill="#B3B3B3"/>
<path d="M12.1255 2.38064L5.52567 5.26996C5.49526 5.23955 5.46484 5.23955 5.46484 5.20914L6.31643 1.6203H6.34684C6.59016 1.6203 6.77264 1.49864 6.89429 1.31616L12.1255 2.38064Z" fill="#D2D2D2"/>
<path d="M12.246 2.8064C12.3372 2.89763 12.4285 2.98888 12.5501 3.01929L11.5161 10.7444C11.4552 10.7444 11.3944 10.7748 11.3336 10.8053L5.70703 5.93902C5.70703 5.8782 5.73744 5.81737 5.73744 5.75654C5.73744 5.72613 5.73744 5.6653 5.73744 5.63488L12.246 2.8064Z" fill="white"/>
</g>
<defs>
<clipPath id="clip0_177_1001">
<rect width="16" height="16" fill="white" transform="translate(0.75 0.125)"/>
</clipPath>
</defs>
</svg>
