<svg width="16" height="17" viewBox="0 0 16 17" fill="none" xmlns="http://www.w3.org/2000/svg">
<g clip-path="url(#clip0_177_1072)">
<path d="M12.875 0.4375H3.125C1.39911 0.4375 0 1.83661 0 3.5625V13.3125C0 15.0384 1.39911 16.4375 3.125 16.4375H12.875C14.6009 16.4375 16 15.0384 16 13.3125V3.5625C16 1.83661 14.6009 0.4375 12.875 0.4375Z" fill="black"/>
<mask id="mask0_177_1072" style="mask-type:luminance" maskUnits="userSpaceOnUse" x="1" y="2" width="14" height="13">
<path d="M14.125 2.3125H1.875V14.5625H14.125V2.3125Z" fill="white"/>
</mask>
<g mask="url(#mask0_177_1072)">
<path d="M13.2473 7.32613C13.5253 6.49198 13.4296 5.57821 12.9851 4.81948C12.3167 3.65573 10.9731 3.05701 9.66075 3.33876C9.07694 2.68108 8.23825 2.30708 7.35888 2.31243C6.01754 2.30937 4.82737 3.173 4.4147 4.4493C3.55299 4.62577 2.80918 5.16515 2.37392 5.92963C1.70055 7.09032 1.85406 8.55344 2.75367 9.54875C2.47575 10.3829 2.57145 11.2967 3.0159 12.0554C3.68429 13.2191 5.02796 13.8179 6.34025 13.5361C6.92363 14.1938 7.76275 14.5678 8.64207 14.5621C9.98425 14.5655 11.1748 13.7011 11.5874 12.4237C12.4492 12.2472 13.1929 11.7078 13.6283 10.9433C14.3008 9.78263 14.1469 8.32069 13.2477 7.32538L13.2473 7.32613ZM8.64288 13.7616C8.10575 13.7624 7.5855 13.5744 7.17325 13.2303C7.192 13.2203 7.22457 13.2023 7.24557 13.1893L9.68488 11.7806C9.80969 11.7097 9.88625 11.5769 9.88544 11.4333V7.9945L10.9164 8.58982C10.9275 8.59513 10.9348 8.60588 10.9363 8.61813V11.4659C10.9348 12.7322 9.90919 13.7589 8.64288 13.7616ZM3.7107 11.655C3.44159 11.1903 3.34474 10.6455 3.43699 10.1168C3.45499 10.1276 3.48676 10.1471 3.50934 10.1601L5.94862 11.5688C6.07227 11.6412 6.2254 11.6412 6.34944 11.5688L9.32732 9.84925V11.0398C9.32807 11.0521 9.32238 11.0639 9.31275 11.0716L6.84707 12.4953C5.7488 13.1276 4.34617 12.7518 3.71109 11.655H3.7107ZM3.06873 6.33043C3.3367 5.86493 3.7597 5.50892 4.26349 5.32402C4.26349 5.34508 4.26234 5.38221 4.26234 5.40824V8.22613C4.26157 8.36932 4.33814 8.50213 4.46255 8.57294L7.44044 10.2922L6.4095 10.8874C6.39919 10.8943 6.38619 10.8955 6.37469 10.8905L3.90862 9.46569C2.81262 8.83094 2.4367 7.42875 3.06834 6.33082L3.06873 6.33043ZM11.5388 8.30157L8.56094 6.58195L9.59188 5.98705C9.60219 5.98017 9.61519 5.97902 9.62669 5.98399L12.0928 7.40769C13.1907 8.042 13.567 9.4465 12.9326 10.5444C12.6643 11.0092 12.2417 11.3652 11.7383 11.5504V8.64838C11.7394 8.50519 11.6633 8.37275 11.5392 8.30157H11.5388ZM12.5648 6.75725C12.5468 6.74619 12.515 6.727 12.4924 6.714L10.0531 5.30527C9.9295 5.23292 9.77638 5.23292 9.65232 5.30527L6.67444 7.02488V5.83431C6.67369 5.82206 6.67944 5.8102 6.689 5.80254L9.15469 4.38001C10.2529 3.74645 11.6571 4.12352 12.2903 5.2222C12.5579 5.68617 12.6548 6.22937 12.564 6.75725H12.5648ZM6.114 8.87919L5.0827 8.28394C5.0716 8.27857 5.06433 8.26788 5.0628 8.25563V5.40786C5.06356 4.13998 6.09218 3.11252 7.36007 3.11328C7.89638 3.11328 8.41544 3.30162 8.82775 3.64462C8.809 3.65458 8.77682 3.67257 8.75538 3.68558L6.31613 5.09433C6.19133 5.16515 6.11477 5.29761 6.11553 5.44117L6.114 8.87844V8.87919ZM6.67407 7.67182L8.0005 6.90582L9.32694 7.67144V9.20307L8.0005 9.96869L6.67407 9.20307V7.67182Z" fill="white"/>
</g>
</g>
<defs>
<clipPath id="clip0_177_1072">
<rect width="16" height="16" fill="white" transform="translate(0 0.4375)"/>
</clipPath>
</defs>
</svg>
