<svg width="17" height="17" viewBox="0 0 17 17" fill="none" xmlns="http://www.w3.org/2000/svg">
<g clip-path="url(#clip0_177_992)">
<path d="M13.625 0.9375H3.875C2.14911 0.9375 0.75 2.33661 0.75 4.0625V13.8125C0.75 15.5384 2.14911 16.9375 3.875 16.9375H13.625C15.3509 16.9375 16.75 15.5384 16.75 13.8125V4.0625C16.75 2.33661 15.3509 0.9375 13.625 0.9375Z" fill="black"/>
<path d="M9.09006 3.62515C8.09063 3.6311 7.08131 3.82571 6.25031 4.21834C4.45978 5.06392 3.89709 6.91655 3.87614 8.76406C3.85888 10.283 4.0103 14.2838 6.26503 14.3124C7.94038 14.3336 8.18969 12.1731 8.965 11.1326C9.51663 10.3924 10.2265 10.1833 11.1008 9.96656C12.6032 9.59438 13.6273 8.40769 13.625 6.83581C13.623 5.47127 12.5613 4.3529 11.3154 3.94922C10.6386 3.72968 9.86731 3.62034 9.09006 3.62515Z" fill="white"/>
</g>
<defs>
<clipPath id="clip0_177_992">
<rect width="16" height="16" fill="white" transform="translate(0.75 0.9375)"/>
</clipPath>
</defs>
</svg>
