<svg width="17" height="17" viewBox="0 0 17 17" fill="none" xmlns="http://www.w3.org/2000/svg">
<g clip-path="url(#clip0_177_177)">
<path d="M12.8991 5.11578L11.7112 6.30368C13.6617 8.25418 13.6617 11.3926 11.7112 13.3138C9.76066 15.2643 6.62225 15.2643 4.70108 13.3138C2.75057 11.3633 2.75057 8.22485 4.70108 6.30368L7.79549 3.20927L8.23545 2.76931V0.4375L3.57184 5.10112C0.976054 7.6969 0.976054 11.8912 3.57184 14.487C6.16762 17.0828 10.3619 17.0828 12.9137 14.487C15.4948 11.8912 15.4948 7.72623 12.8991 5.11578Z" fill="#EE4C2C"/>
<path d="M10.5664 4.83714C11.0443 4.83714 11.4317 4.44976 11.4317 3.97189C11.4317 3.49402 11.0443 3.10663 10.5664 3.10663C10.0886 3.10663 9.70117 3.49402 9.70117 3.97189C9.70117 4.44976 10.0886 4.83714 10.5664 4.83714Z" fill="#EE4C2C"/>
</g>
<defs>
<clipPath id="clip0_177_177">
<rect width="16" height="16" fill="white" transform="translate(0.25 0.4375)"/>
</clipPath>
</defs>
</svg>
