<svg width="16" height="17" viewBox="0 0 16 17" fill="none" xmlns="http://www.w3.org/2000/svg">
<g clip-path="url(#clip0_177_180)">
<path d="M5.36608 0.437726C5.28521 0.440221 5.19812 0.470114 5.09929 0.548052C4.85736 0.454752 4.62262 0.422315 4.41278 0.61229C4.08875 0.570264 3.98346 0.657008 3.90366 0.758283C3.83253 0.756815 3.37141 0.68514 3.1599 1.00061C2.62848 0.93774 2.46052 1.31319 2.65084 1.66335C2.54228 1.83135 2.4298 1.99736 2.68362 2.31772C2.59384 2.4961 2.64952 2.68965 2.86102 2.92385C2.80525 3.17469 2.91494 3.3516 3.11176 3.48952C3.07492 3.83273 3.4265 4.03229 3.53144 4.10338C3.57176 4.30334 3.65576 4.49209 4.05729 4.5964C4.12353 4.89445 4.36483 4.94592 4.59854 5.00845C3.82617 5.45743 3.16382 6.0481 3.16832 7.49751L3.05516 7.69932C2.16952 8.23789 1.37272 9.96895 2.61875 11.3759C2.70011 11.8164 2.83661 12.1327 2.95814 12.4828C3.13989 13.8936 4.32618 14.5543 4.6391 14.6324C5.09758 14.9816 5.5859 15.313 6.24678 15.5451C6.86964 16.1876 7.54451 16.4324 8.22305 16.432C8.23304 16.432 9.60651 16.1876 10.2295 15.5451C10.8903 15.313 11.3786 14.9816 11.8371 14.6324C12.15 14.5543 13.3363 13.8936 13.518 12.4828C13.6395 12.1327 13.776 11.8164 13.8575 11.3759C15.1034 9.9688 14.3066 8.23769 13.421 7.69912L13.3077 7.49731C13.3122 6.04805 12.6498 5.45733 11.8775 5.00825C12.1111 4.94572 12.3525 4.89426 12.4187 4.5962C12.8202 4.49185 12.9042 4.30314 12.9445 4.10319C13.0495 4.0321 13.401 3.83253 13.3643 3.48933C13.561 3.35141 13.6708 3.17444 13.6149 2.92365C13.8265 2.68945 13.8821 2.4959 13.7923 2.31747C14.0463 1.99731 13.9336 1.83131 13.8252 1.6633C14.0154 1.31314 13.8475 0.937642 13.3159 1.00056C13.1045 0.685091 12.6435 0.756717 12.5721 0.758185C12.4924 0.656959 12.3871 0.570215 12.0631 0.612242C11.8532 0.422266 11.6186 0.454654 11.3766 0.548003C11.0892 0.321236 10.8991 0.502992 10.6818 0.571732C10.3339 0.45803 10.2543 0.613758 10.0833 0.677214C9.70387 0.597026 9.58855 0.77159 9.4067 0.955842L9.19505 0.951634C8.62272 1.28892 8.33837 1.97573 8.23759 2.32882C8.1368 1.97568 7.85308 1.28887 7.28086 0.951634L7.06926 0.955842C6.88711 0.77159 6.77184 0.597026 6.39238 0.677214C6.22139 0.613758 6.14213 0.45803 5.79388 0.571732C5.65131 0.526623 5.52019 0.432883 5.36584 0.437677L1.4375 7.33591" fill="black"/>
<path d="M4.22581 1.92159C5.74425 2.70444 6.627 3.33773 7.11062 3.87708C6.86297 4.86972 5.57095 4.91502 5.09853 4.88718C5.19526 4.84217 5.27599 4.78821 5.30461 4.70538C5.18606 4.62113 4.76575 4.69647 4.4723 4.53164C4.58502 4.50826 4.63776 4.48551 4.69045 4.40234C4.41324 4.31393 4.1146 4.2377 3.93896 4.09122C4.03373 4.0924 4.12224 4.11246 4.24602 4.02659C3.99772 3.89278 3.73274 3.78671 3.52687 3.58216C3.65525 3.57903 3.79366 3.58089 3.83392 3.53367C3.60667 3.39287 3.41488 3.23631 3.25617 3.06502C3.43582 3.08669 3.5117 3.06805 3.55515 3.03674C3.38332 2.86076 3.1659 2.71217 3.06223 2.49534C3.1956 2.54133 3.31767 2.55894 3.40563 2.49133C3.34726 2.35962 3.09716 2.28193 2.95312 1.97414C3.09359 1.98779 3.24252 2.00477 3.27231 1.97414C3.20714 1.70857 3.0953 1.55926 2.98561 1.40455C3.28616 1.4001 3.74155 1.40573 3.72095 1.38034L3.53509 1.19046C3.82869 1.1114 4.12909 1.20313 4.34719 1.27123C4.44509 1.19398 4.34543 1.09628 4.22596 0.99652C4.47548 1.02984 4.70092 1.08718 4.90474 1.16619C5.0136 1.0679 4.83405 0.969562 4.74716 0.871272C5.13264 0.944366 5.29595 1.04716 5.45823 1.15005C5.57599 1.03718 5.46498 0.941235 5.38553 0.842993C5.67619 0.950628 5.8259 1.08962 5.98349 1.22681C6.03692 1.15469 6.11926 1.10181 6.01984 0.927829C6.22621 1.04677 6.38164 1.18694 6.49662 1.34399C6.62431 1.26267 6.57269 1.15151 6.57338 1.04902C6.78787 1.22348 6.92398 1.40915 7.09056 1.59042C7.12413 1.56596 7.15348 1.48313 7.17946 1.35206C7.69107 1.8484 8.41404 3.09868 7.36528 3.59439C6.47274 2.85826 5.40676 2.32317 4.22547 1.92179L4.22581 1.92159ZM12.2827 1.92159C10.7644 2.70454 9.88169 3.33763 9.39811 3.87708C9.64577 4.86972 10.9377 4.91502 11.4102 4.88718C11.3134 4.84217 11.2327 4.78821 11.2041 4.70538C11.3227 4.62113 11.743 4.69647 12.0364 4.53164C11.9237 4.50826 11.871 4.48551 11.8182 4.40234C12.0955 4.31393 12.3941 4.2377 12.5697 4.09122C12.475 4.0924 12.3865 4.11246 12.2627 4.02659C12.511 3.89278 12.776 3.78671 12.9819 3.58216C12.8534 3.57903 12.715 3.58089 12.6748 3.53367C12.9021 3.39287 13.0939 3.23631 13.2526 3.06502C13.0729 3.08669 12.997 3.06805 12.9536 3.03674C13.1254 2.86076 13.3428 2.71217 13.4465 2.49534C13.3131 2.54133 13.191 2.55894 13.1031 2.49133C13.1614 2.35962 13.4116 2.28193 13.5556 1.97414C13.4151 1.98779 13.2662 2.00477 13.2364 1.97414C13.3017 1.70848 13.4135 1.55916 13.5232 1.40446C13.2227 1.4 12.7673 1.40563 12.7879 1.38024L12.9737 1.19031C12.6801 1.1113 12.3797 1.20303 12.1616 1.27114C12.0637 1.19388 12.1634 1.09618 12.2828 0.996422C12.0334 1.02969 11.8079 1.08708 11.6041 1.16609C11.4952 1.0678 11.6748 0.969464 11.7617 0.871174C11.3762 0.944268 11.2129 1.04706 11.0506 1.14995C10.9328 1.03708 11.0439 0.941137 11.1233 0.842896C10.8326 0.950531 10.6829 1.08953 10.5253 1.22671C10.4719 1.1546 10.3896 1.10171 10.4889 0.927731C10.2826 1.04667 10.1272 1.18684 10.0122 1.34389C9.88453 1.26257 9.93614 1.15137 9.93546 1.04892C9.72097 1.22339 9.58486 1.40901 9.41827 1.59032C9.38471 1.56586 9.35535 1.48303 9.32937 1.35191C8.81776 1.8483 8.0948 3.09858 9.14356 3.59429C10.0356 2.85797 11.1015 2.32297 12.2829 1.92159H12.2827Z" fill="#75A928"/>
<path d="M10.0944 12.0294C10.0997 12.9557 9.28968 13.7106 8.2852 13.7154C7.28067 13.7203 6.46206 12.9734 6.45677 12.0471C6.45672 12.0412 6.45672 12.0353 6.45677 12.0294C6.45149 11.1032 7.26149 10.3483 8.26602 10.3434C9.27055 10.3385 10.0891 11.0855 10.0944 12.0118V12.0294ZM7.22318 7.23825C7.97682 7.73205 8.11269 8.85126 7.52662 9.73807C6.94054 10.6249 5.85451 10.9436 5.10087 10.4499C4.34722 9.95608 4.21141 8.83687 4.79743 7.95006C5.38351 7.0632 6.46954 6.7445 7.22318 7.23825ZM9.25729 7.14886C8.5037 7.64261 8.36783 8.76187 8.95386 9.64869C9.53993 10.5356 10.626 10.8542 11.3796 10.3604C12.1332 9.8667 12.2691 8.74749 11.683 7.86062C11.097 6.97381 10.011 6.65511 9.25729 7.14886ZM3.45655 8.04551C4.27022 7.8274 3.73126 11.4117 3.06921 11.1176C2.34096 10.5319 2.10641 8.81652 3.45655 8.04551ZM12.8597 8.00084C12.0459 7.78279 12.585 11.3672 13.247 11.0731C13.9753 10.4874 14.2098 8.7718 12.8597 8.00084ZM10.0951 5.33164C11.4993 5.09455 12.6677 5.92882 12.6205 7.45146C12.5744 8.03524 9.57775 5.41858 10.0951 5.33164ZM6.21533 5.28697C4.81103 5.04983 3.6427 5.8843 3.68987 7.40685C3.73605 7.99057 6.73271 5.37391 6.21533 5.28697ZM8.23241 4.93188C7.39432 4.91006 6.59 5.55386 6.58804 5.9273C6.58574 6.38103 7.25068 6.84563 8.23813 6.85742C9.24648 6.86461 9.88994 6.48554 9.89317 6.01728C9.89689 5.48673 8.97607 4.92371 8.23241 4.93188ZM8.28358 14.2364C9.01428 14.2045 9.99474 14.4718 9.99669 14.8263C10.0088 15.1706 9.10748 15.9484 8.23515 15.9333C7.3317 15.9723 6.44581 15.1933 6.45741 14.9233C6.44386 14.5274 7.55744 14.2183 8.28358 14.2364ZM5.58468 12.1353C6.1049 12.7621 6.34209 13.8632 5.90793 14.1878C5.49721 14.4356 4.49977 14.3335 3.79085 13.3151C3.31271 12.4605 3.3743 11.5908 3.71003 11.3353C4.21204 11.0295 4.9877 11.4426 5.58473 12.1353H5.58468ZM10.8784 11.9367C10.3155 12.5959 10.0021 13.7984 10.4127 14.1857C10.8053 14.4866 11.8592 14.4445 12.6377 13.3643C13.203 12.6388 13.0136 11.4272 12.6907 11.1054C12.211 10.7344 11.5224 11.2092 10.8784 11.9365V11.9367Z" fill="#BC1142"/>
</g>
<defs>
<clipPath id="clip0_177_180">
<rect width="16" height="16" fill="white" transform="translate(0 0.4375)"/>
</clipPath>
</defs>
</svg>
