<svg width="17" height="17" viewBox="0 0 17 17" fill="none" xmlns="http://www.w3.org/2000/svg">
<g clip-path="url(#clip0_177_188)">
<path d="M7.21778 10.3703L7.2307 10.3758C7.55008 10.5093 7.90066 10.583 8.26846 10.583C8.60987 10.583 8.93644 10.5195 9.23699 10.4036L9.21083 10.4164C9.36283 10.3494 9.43939 10.3829 9.44051 10.517C9.44118 10.5974 9.44455 10.6024 9.45062 10.5319L9.4506 12.5329C9.4506 12.5765 9.46288 12.6192 9.48604 12.6561C9.55064 12.7591 9.6829 12.7938 9.78888 12.7386L9.80538 12.7292L12.0258 11.3354C12.0925 11.2935 12.1756 11.2886 12.2463 11.3214L12.2637 11.3304L14.2642 12.4722C14.2984 12.4917 14.3271 12.5197 14.3476 12.5535C14.4105 12.6575 14.382 12.7913 14.2852 12.8612L14.2693 12.8717L8.43479 16.404C8.36695 16.4451 8.28329 16.4484 8.2129 16.4139L8.19559 16.4044L2.31437 12.8718C2.28019 12.8513 2.25188 12.8223 2.23219 12.7876C2.17202 12.6816 2.2045 12.5482 2.30383 12.4812L2.31923 12.4716L4.32738 11.3308C4.39646 11.2916 4.48037 11.2907 4.54985 11.3273L4.5669 11.3373L6.72508 12.7228C6.76241 12.7468 6.80584 12.7596 6.8502 12.7596C6.97232 12.7596 7.07237 12.665 7.08121 12.5451L7.08185 12.5278L7.0818 10.5298L7.08628 10.5648C7.07387 10.4169 7.1177 10.3521 7.21778 10.3703ZM9.02005 0.4375C9.06066 0.4375 9.10055 0.448178 9.13573 0.468464L15.171 3.94839C15.2427 3.98976 15.2869 4.06631 15.2869 4.14915V11.2795C15.2869 11.4075 15.1832 11.5113 15.0553 11.5113C15.0118 11.5113 14.9692 11.499 14.9323 11.4759L12.9352 10.2249C12.8676 10.1825 12.8265 10.1083 12.8265 10.0285V7.40584C12.8265 7.27786 12.7228 7.17412 12.5948 7.17412C12.5546 7.17412 12.515 7.18462 12.48 7.20459L11.1471 7.96556C11.0348 8.00638 10.9751 7.9688 10.968 7.8528C10.9646 7.79592 10.9617 7.77694 10.9595 7.79584C10.9335 7.04031 10.5962 6.36383 10.0719 5.89064L10.1403 5.9399C10.0098 5.83716 10.0034 5.75383 10.1213 5.68991C10.1425 5.6784 10.1576 5.66987 10.1666 5.66431L11.2345 5.06225C11.346 4.99941 11.3854 4.8581 11.3226 4.7466C11.3021 4.71013 11.272 4.67991 11.2357 4.65915L8.90517 3.32784C8.83296 3.2866 8.7884 3.2098 8.7884 3.12662V0.669224C8.7884 0.541246 8.89211 0.4375 9.02005 0.4375ZM7.51687 0.4375C7.63899 0.4375 7.73904 0.532029 7.74788 0.65193L7.74852 0.669224V3.12662C7.74852 3.2034 7.71055 3.27474 7.64791 3.31771L7.63175 3.32784L5.30125 4.65915C5.26491 4.67991 5.23487 4.71013 5.21432 4.7466C5.1545 4.85279 5.18742 4.98602 5.28697 5.05275L5.3024 5.06225L6.45132 5.70996C6.53333 5.77003 6.51803 5.8453 6.40542 5.93578L6.40024 5.9399L6.45118 5.90322C5.93495 6.3756 5.6034 7.0465 5.57739 7.79505C5.57597 7.80424 5.57435 7.82349 5.57257 7.8528C5.5653 7.97251 5.50195 8.00871 5.38252 7.9614L4.0569 7.20459C4.02192 7.18462 3.98235 7.17412 3.94208 7.17412C3.81996 7.17412 3.71991 7.26865 3.71106 7.38855L3.71043 7.40584V10.0285C3.71043 10.1017 3.67592 10.1701 3.61807 10.2136L3.60173 10.2249L1.6046 11.4759C1.56774 11.499 1.52513 11.5113 1.48165 11.5113C1.35953 11.5113 1.25948 11.4167 1.25064 11.2968L1.25 11.2795V4.14915C1.25 4.07268 1.28767 4.00158 1.3499 3.95855L1.36596 3.94839L7.40119 0.468464C7.43637 0.448178 7.47626 0.4375 7.51687 0.4375ZM8.26846 5.96193C9.33345 5.96193 10.1968 6.82528 10.1968 7.89027C10.1968 8.95526 9.33345 9.81861 8.26846 9.81861C7.20347 9.81861 6.34012 8.95526 6.34012 7.89027C6.34012 6.82528 7.20347 5.96193 8.26846 5.96193Z" fill="#222428"/>
</g>
<defs>
<clipPath id="clip0_177_188">
<rect width="16" height="16" fill="white" transform="translate(0.25 0.4375)"/>
</clipPath>
</defs>
</svg>
