<svg width="17" height="17" viewBox="0 0 17 17" fill="none" xmlns="http://www.w3.org/2000/svg">
<path d="M13.9625 7.32734C13.9625 6.62791 13.0866 5.96507 11.7437 5.55402C12.0536 4.18528 11.9159 3.09631 11.309 2.74767C11.1691 2.66589 11.0056 2.62715 10.8269 2.62715V3.10707C10.9259 3.10707 11.0056 3.12644 11.0723 3.16303C11.3649 3.33089 11.4919 3.97007 11.3929 4.79217C11.3693 4.99447 11.3305 5.20753 11.2832 5.42489C10.8613 5.32159 10.4008 5.24196 9.91657 5.19031C9.62605 4.79217 9.32475 4.43062 9.02129 4.11426C9.72288 3.46217 10.3814 3.10492 10.8291 3.10492V2.625C10.2372 2.625 9.46248 3.04681 8.67913 3.77853C7.89573 3.05112 7.121 2.63361 6.52918 2.63361V3.11353C6.97466 3.11353 7.63534 3.46863 8.33693 4.11641C8.03563 4.43277 7.73433 4.79217 7.44809 5.19031C6.96171 5.24196 6.50117 5.32159 6.07937 5.42704C6.02985 5.21184 5.99328 5.00308 5.96744 4.80293C5.86633 3.98083 5.99111 3.34165 6.28168 3.17164C6.34621 3.1329 6.43014 3.11568 6.52918 3.11568V2.63576C6.34838 2.63576 6.18481 2.6745 6.0428 2.75628C5.43803 3.10492 5.30247 4.19173 5.6145 5.55617C4.2759 5.96938 3.4043 6.63008 3.4043 7.32734C3.4043 8.02681 4.2802 8.68966 5.62311 9.10068C5.3132 10.4694 5.45093 11.5584 6.05786 11.907C6.19775 11.9888 6.36128 12.0275 6.54208 12.0275C7.1339 12.0275 7.90868 11.6057 8.69203 10.874C9.47538 11.6014 10.2502 12.019 10.842 12.019C11.0227 12.019 11.1863 11.9802 11.3284 11.8984C11.9331 11.5498 12.0687 10.463 11.7566 9.09856C13.0909 8.68749 13.9625 8.02464 13.9625 7.32734ZM11.1605 5.8919C11.0809 6.16954 10.9819 6.45573 10.8699 6.74197C10.7817 6.56983 10.6892 6.39764 10.588 6.22546C10.489 6.05331 10.3836 5.88544 10.2781 5.72188C10.5837 5.76708 10.8786 5.82303 11.1605 5.8919ZM10.1748 8.18388C10.0069 8.47445 9.83481 8.74991 9.65618 9.00602C9.33549 9.03398 9.01056 9.04904 8.68342 9.04904C8.35844 9.04904 8.03346 9.03398 7.71498 9.00814C7.53635 8.75203 7.362 8.47873 7.19415 8.19033C7.03057 7.90843 6.88211 7.62219 6.7465 7.33383C6.87995 7.04543 7.03057 6.75703 7.19203 6.47512C7.35988 6.1846 7.53202 5.90912 7.71065 5.65301C8.03135 5.62504 8.35627 5.60997 8.68342 5.60997C9.00839 5.60997 9.33337 5.62504 9.65185 5.65086C9.83048 5.90697 10.0048 6.18027 10.1727 6.46867C10.3363 6.75058 10.4847 7.03682 10.6203 7.32522C10.4847 7.61357 10.3363 7.90198 10.1748 8.18388ZM10.8699 7.90414C10.9829 8.1846 11.082 8.47045 11.167 8.76064C10.885 8.8295 10.588 8.88764 10.2803 8.93282C10.3857 8.76714 10.4912 8.59712 10.5902 8.42277C10.6892 8.25063 10.7817 8.07628 10.8699 7.90414ZM8.6877 10.2004C8.48755 9.9938 8.28741 9.76353 8.08943 9.51175C8.28313 9.52036 8.48111 9.52681 8.68125 9.52681C8.88356 9.52681 9.0837 9.52253 9.27957 9.51175C9.09483 9.75181 8.89725 9.98171 8.6877 10.2004ZM7.08654 8.93282C6.78096 8.88764 6.48611 8.83167 6.2042 8.7628C6.2838 8.48518 6.38284 8.19894 6.49472 7.91271C6.58298 8.08489 6.67552 8.25708 6.77663 8.42921C6.87778 8.6014 6.9811 8.76925 7.08654 8.93282ZM8.67697 4.45429C8.87711 4.66089 9.07726 4.89117 9.27523 5.14297C9.08154 5.13436 8.88356 5.1279 8.68342 5.1279C8.48111 5.1279 8.28096 5.13221 8.08515 5.14297C8.26987 4.90291 8.46743 4.67302 8.67697 4.45429ZM7.08438 5.72188C6.97894 5.8876 6.8735 6.05761 6.77451 6.23191C6.67552 6.40409 6.58298 6.57628 6.49472 6.74841C6.38174 6.46795 6.28263 6.1821 6.19775 5.8919C6.47966 5.82518 6.77663 5.76708 7.08438 5.72188ZM5.13673 8.41632C4.3749 8.09134 3.88206 7.66526 3.88206 7.32734C3.88206 6.98946 4.3749 6.56122 5.13673 6.2384C5.32182 6.15876 5.52413 6.08774 5.73288 6.02103C5.85555 6.44283 6.01696 6.88186 6.2171 7.33167C6.01912 7.77931 5.85983 8.21617 5.73933 8.63586C5.52629 8.56911 5.32398 8.49596 5.13673 8.41632ZM6.29458 11.4917C6.00189 11.3238 5.8749 10.6847 5.97393 9.86252C5.99761 9.66026 6.0363 9.44717 6.08365 9.22979C6.5055 9.33311 6.96604 9.41276 7.45026 9.46439C7.74078 9.86252 8.04208 10.2241 8.34554 10.5404C7.64395 11.1925 6.98539 11.5498 6.53774 11.5498C6.44092 11.5476 6.35916 11.5283 6.29458 11.4917ZM11.3994 9.85179C11.5005 10.6739 11.3757 11.313 11.0851 11.4831C11.0206 11.5218 10.9367 11.539 10.8377 11.539C10.3922 11.539 9.73149 11.1839 9.0299 10.5361C9.3312 10.2198 9.6325 9.8604 9.91874 9.46223C10.4051 9.41059 10.8657 9.33095 11.2875 9.22551C11.337 9.44288 11.3757 9.65164 11.3994 9.85179ZM12.2279 8.41632C12.0429 8.49596 11.8405 8.56699 11.6318 8.63369C11.5091 8.21189 11.3477 7.77286 11.1476 7.32305C11.3456 6.87541 11.5048 6.43855 11.6253 6.01887C11.8384 6.08559 12.0407 6.15876 12.2301 6.2384C12.9919 6.56333 13.4848 6.98946 13.4848 7.32734C13.4826 7.66526 12.9898 8.09351 12.2279 8.41632Z" fill="#61DAFB"/>
<path d="M8.6804 8.31091C9.22362 8.31091 9.66395 7.87058 9.66395 7.32737C9.66395 6.7842 9.22362 6.34387 8.6804 6.34387C8.13724 6.34387 7.69691 6.7842 7.69691 7.32737C7.69691 7.87058 8.13724 8.31091 8.6804 8.31091ZM3.88288 13.721H3.55821V14.2801H3.375V12.8979H3.83257C3.98825 12.8979 4.10786 12.9334 4.1914 13.0043C4.27557 13.0751 4.31766 13.1783 4.31766 13.3137C4.31766 13.3998 4.29425 13.4748 4.24741 13.5387C4.20121 13.6026 4.13666 13.6504 4.05375 13.682L4.37842 14.2687V14.2801H4.18286L3.88288 13.721ZM3.55821 13.5719H3.83826C3.92876 13.5719 4.00059 13.5485 4.05375 13.5017C4.10755 13.4548 4.13444 13.3922 4.13444 13.3137C4.13444 13.2283 4.10881 13.1628 4.05755 13.1172C4.00692 13.0716 3.93351 13.0485 3.83731 13.0479H3.55821V13.5719ZM4.9727 14.2991C4.83345 14.2991 4.72016 14.2536 4.63283 14.1624C4.54549 14.0706 4.50182 13.9482 4.50182 13.795V13.7627C4.50182 13.6609 4.52113 13.5701 4.55973 13.4903C4.59897 13.4099 4.6534 13.3472 4.72301 13.3023C4.79326 13.2568 4.86921 13.234 4.95085 13.234C5.08439 13.234 5.1882 13.2779 5.26221 13.3659C5.33627 13.4539 5.37328 13.5798 5.37328 13.7437V13.8168H4.67745C4.67998 13.9181 4.70941 14.0001 4.76573 14.0627C4.82269 14.1247 4.89484 14.1558 4.98218 14.1558C5.04421 14.1558 5.09671 14.1431 5.13974 14.1178C5.18281 14.0925 5.22044 14.0589 5.25273 14.0172L5.36 14.1007C5.2739 14.233 5.14484 14.2991 4.9727 14.2991ZM4.95085 13.3783C4.87997 13.3783 4.82048 13.4042 4.77238 13.4561C4.72428 13.5074 4.69453 13.5795 4.68314 13.6726H5.19768V13.6593C5.19262 13.5701 5.16856 13.501 5.12554 13.4523C5.08247 13.403 5.02424 13.3783 4.95085 13.3783ZM6.21154 14.2801C6.20138 14.2599 6.19315 14.2238 6.18685 14.1719C6.10518 14.2567 6.00774 14.2991 5.89445 14.2991C5.7932 14.2991 5.71 14.2706 5.64479 14.2137C5.58026 14.1561 5.54797 14.0833 5.54797 13.9953C5.54797 13.8884 5.58849 13.8055 5.66948 13.7466C5.75109 13.6871 5.86568 13.6574 6.01313 13.6574H6.18401V13.5767C6.18401 13.5153 6.16563 13.4665 6.12896 13.4305C6.09224 13.3938 6.0381 13.3754 5.96659 13.3754C5.90393 13.3754 5.85143 13.3912 5.80903 13.4229C5.76664 13.4545 5.74542 13.4928 5.74542 13.5378H5.56885C5.56885 13.4865 5.5869 13.4371 5.62294 13.3896C5.65966 13.3416 5.70903 13.3036 5.77107 13.2757C5.83372 13.2479 5.90235 13.234 5.97703 13.234C6.09542 13.234 6.1881 13.2637 6.25518 13.3232C6.32227 13.3821 6.35706 13.4634 6.35961 13.5672V14.0399C6.35961 14.1343 6.37164 14.2092 6.3957 14.2649V14.2801H6.21154ZM5.9201 14.1463C5.97516 14.1463 6.02737 14.132 6.07674 14.1036C6.12607 14.0751 6.16183 14.0381 6.18401 13.9925V13.7818H6.04633C5.83117 13.7818 5.72357 13.8447 5.72357 13.9706C5.72357 14.0257 5.74195 14.0688 5.77862 14.0997C5.81534 14.1307 5.8625 14.1463 5.9201 14.1463ZM7.04691 14.1558C7.10956 14.1558 7.16433 14.1368 7.21115 14.0988C7.25798 14.0608 7.28392 14.0134 7.28897 13.9564H7.45514C7.45196 14.0152 7.4317 14.0713 7.39436 14.1244C7.35701 14.1776 7.30701 14.22 7.24436 14.2516C7.18233 14.2833 7.11654 14.2991 7.04691 14.2991C6.90706 14.2991 6.79566 14.2526 6.71274 14.1596C6.6305 14.0659 6.58935 13.9381 6.58935 13.776V13.7466C6.58935 13.6466 6.60769 13.5577 6.64441 13.4799C6.68112 13.402 6.73363 13.3416 6.80201 13.2985C6.87097 13.2555 6.9523 13.234 7.04595 13.234C7.16115 13.234 7.25673 13.2685 7.33266 13.3375C7.40923 13.4064 7.45004 13.496 7.45514 13.6061H7.28897C7.28392 13.5396 7.2586 13.4852 7.21303 13.4428C7.16813 13.3998 7.1124 13.3783 7.04595 13.3783C6.95673 13.3783 6.88743 13.4105 6.83805 13.4751C6.78935 13.539 6.76495 13.6318 6.76495 13.7533V13.7865C6.76495 13.9048 6.78935 13.9959 6.83805 14.0599C6.8868 14.1238 6.95644 14.1558 7.04691 14.1558ZM7.89085 13.0043V13.253H8.08262V13.3887H7.89085V14.0257C7.89085 14.0668 7.89941 14.0978 7.9165 14.1187C7.93358 14.139 7.96269 14.1491 8.00384 14.1491C8.02405 14.1491 8.05191 14.1453 8.08733 14.1377V14.2801C8.04113 14.2928 7.99624 14.2991 7.95254 14.2991C7.8741 14.2991 7.81491 14.2754 7.77501 14.2279C7.73517 14.1805 7.71524 14.113 7.71524 14.0257V13.3887H7.52819V13.253H7.71524V13.0043H7.89085ZM9.86067 14.2801H9.67742L8.98161 13.215V14.2801H8.7984V12.8979H8.98161L9.67935 13.9678V12.8979H9.86067V14.2801ZM10.791 14.2801C10.7808 14.2599 10.7726 14.2238 10.7663 14.1719C10.6846 14.2567 10.5872 14.2991 10.4739 14.2991C10.3727 14.2991 10.2894 14.2706 10.2242 14.2137C10.1597 14.1561 10.1274 14.0833 10.1274 13.9953C10.1274 13.8884 10.1679 13.8055 10.2489 13.7466C10.3305 13.6871 10.4451 13.6574 10.5926 13.6574H10.7635V13.5767C10.7635 13.5153 10.7451 13.4665 10.7084 13.4305C10.6717 13.3938 10.6176 13.3754 10.546 13.3754C10.4834 13.3754 10.4309 13.3912 10.3885 13.4229C10.3461 13.4545 10.3249 13.4928 10.3249 13.5378H10.1483C10.1483 13.4865 10.1664 13.4371 10.2024 13.3896C10.2391 13.3416 10.2885 13.3036 10.3505 13.2757C10.4132 13.2479 10.4818 13.234 10.5565 13.234C10.6748 13.234 10.7676 13.2637 10.8346 13.3232C10.9017 13.3821 10.9365 13.4634 10.9391 13.5672V14.0399C10.9391 14.1343 10.9511 14.2092 10.9752 14.2649V14.2801H10.791ZM10.4996 14.1463C10.5546 14.1463 10.6068 14.132 10.6562 14.1036C10.7055 14.0751 10.7413 14.0381 10.7635 13.9925V13.7818H10.6258C10.4106 13.7818 10.303 13.8447 10.303 13.9706C10.303 14.0257 10.3214 14.0688 10.3581 14.0997C10.3948 14.1307 10.442 14.1463 10.4996 14.1463ZM11.4526 13.0043V13.253H11.6444V13.3887H11.4526V14.0257C11.4526 14.0668 11.4612 14.0978 11.4783 14.1187C11.4954 14.139 11.5245 14.1491 11.5656 14.1491C11.5858 14.1491 11.6137 14.1453 11.6492 14.1377V14.2801C11.6029 14.2928 11.558 14.2991 11.5143 14.2991C11.4359 14.2991 11.3767 14.2754 11.3368 14.2279C11.297 14.1805 11.277 14.113 11.277 14.0257V13.3887H11.09V13.253H11.277V13.0043H11.4526ZM12.0412 14.2801H11.8656V13.253H12.0412V14.2801ZM11.8513 12.9805C11.8513 12.9521 11.8599 12.928 11.877 12.9084C11.8947 12.8887 11.9206 12.879 11.9548 12.879C11.989 12.879 12.015 12.8887 12.0327 12.9084C12.0504 12.928 12.0592 12.9521 12.0592 12.9805C12.0592 13.009 12.0504 13.0327 12.0327 13.0517C12.015 13.0707 11.989 13.0802 11.9548 13.0802C11.9206 13.0802 11.8947 13.0707 11.877 13.0517C11.8599 13.0327 11.8513 13.009 11.8513 12.9805ZM12.6621 14.0419L12.9165 13.253H13.0959L12.7276 14.2801H12.5937L12.2216 13.253H12.401L12.6621 14.0419ZM13.6778 14.2991C13.5386 14.2991 13.4253 14.2536 13.338 14.1624C13.2506 14.0706 13.207 13.9482 13.207 13.795V13.7627C13.207 13.6609 13.2263 13.5701 13.2649 13.4903C13.3041 13.4099 13.3585 13.3472 13.4281 13.3023C13.4984 13.2568 13.5743 13.234 13.656 13.234C13.7895 13.234 13.8933 13.2779 13.9674 13.3659C14.0414 13.4539 14.0784 13.5798 14.0784 13.7437V13.8168H13.3826C13.3851 13.9181 13.4145 14.0001 13.4709 14.0627C13.5278 14.1247 13.6 14.1558 13.6873 14.1558C13.7493 14.1558 13.8019 14.1431 13.8449 14.1178C13.8879 14.0925 13.9256 14.0589 13.9579 14.0172L14.0652 14.1007C13.9791 14.233 13.8499 14.2991 13.6778 14.2991ZM13.656 13.3783C13.5851 13.3783 13.5256 13.4042 13.4775 13.4561C13.4294 13.5074 13.3997 13.5795 13.3883 13.6726H13.9028V13.6593C13.8977 13.5701 13.8737 13.501 13.8306 13.4523C13.7876 13.403 13.7294 13.3783 13.656 13.3783Z" fill="#61DAFB"/>
</svg>
