<svg width="17" height="17" viewBox="0 0 17 17" fill="none" xmlns="http://www.w3.org/2000/svg">
<g clip-path="url(#clip0_177_230)">
<path d="M16.5 8.43847C16.5 7.37854 15.1726 6.37406 13.1376 5.75115C13.6072 3.67695 13.3985 2.02673 12.4788 1.49839C12.2668 1.37446 12.019 1.31576 11.7483 1.31576V2.04303C11.8983 2.04303 12.019 2.07239 12.1201 2.12783C12.5636 2.38221 12.756 3.35082 12.606 4.59664C12.5701 4.90321 12.5114 5.22608 12.4397 5.55547C11.8004 5.39893 11.1025 5.27826 10.3687 5.19998C9.92845 4.59664 9.47187 4.04874 9.01203 3.56933C10.0752 2.58115 11.0732 2.03977 11.7515 2.03977V1.3125C10.8547 1.3125 9.6806 1.95172 8.49348 3.06056C7.30636 1.95824 6.13229 1.32555 5.23543 1.32555V2.05282C5.91052 2.05282 6.91174 2.59093 7.97493 3.57259C7.51835 4.052 7.06176 4.59664 6.62801 5.19998C5.89095 5.27826 5.19303 5.39892 4.55381 5.55873C4.4788 5.2326 4.42336 4.91625 4.38422 4.61295C4.23094 3.36713 4.4201 2.39852 4.86038 2.14087C4.95821 2.08217 5.08541 2.05608 5.23543 2.05608V1.32881C4.96148 1.32881 4.71362 1.38751 4.49837 1.51144C3.58194 2.03977 3.37648 3.68674 3.84937 5.75441C1.82083 6.38058 0.5 7.3818 0.5 8.43847C0.5 9.4984 1.82735 10.5029 3.86241 11.1258C3.39278 13.2 3.60151 14.8502 4.5212 15.3785C4.73318 15.5025 4.98104 15.5612 5.25499 15.5612C6.15186 15.5612 7.32593 14.922 8.51305 13.8131C9.70016 14.9154 10.8742 15.5481 11.7711 15.5481C12.045 15.5481 12.2929 15.4894 12.5082 15.3655C13.4246 14.8372 13.63 13.1902 13.1572 11.1225C15.1792 10.4996 16.5 9.49513 16.5 8.43847ZM12.2538 6.26317C12.1331 6.68388 11.9831 7.11764 11.8135 7.55139C11.6798 7.29049 11.5395 7.02958 11.3863 6.76868C11.2362 6.50777 11.0764 6.25339 10.9166 6.00553C11.3797 6.07402 11.8265 6.15881 12.2538 6.26317ZM10.7601 9.73647C10.5057 10.1767 10.2448 10.5942 9.97411 10.9823C9.48818 11.0247 8.99572 11.0475 8.5 11.0475C8.00754 11.0475 7.51508 11.0247 7.03241 10.9856C6.76172 10.5975 6.49755 10.1833 6.24317 9.74626C5.99531 9.31902 5.77028 8.88527 5.56482 8.44825C5.76702 8.01124 5.99531 7.57422 6.23991 7.14699C6.49429 6.70671 6.7552 6.28926 7.02589 5.90117C7.51182 5.85877 8.00428 5.83594 8.5 5.83594C8.99246 5.83594 9.48492 5.85877 9.96759 5.89791C10.2383 6.286 10.5024 6.70019 10.7568 7.1372C11.0047 7.56444 11.2297 7.99819 11.4352 8.43521C11.2297 8.87222 11.0047 9.30924 10.7601 9.73647ZM11.8135 9.3125C11.9896 9.74952 12.1396 10.1865 12.2636 10.6105C11.8363 10.7149 11.3863 10.8029 10.9199 10.8714C11.0797 10.6203 11.2395 10.3626 11.3895 10.0985C11.5395 9.83757 11.6798 9.57341 11.8135 9.3125ZM8.50652 12.7923C8.20322 12.4792 7.89992 12.1303 7.59988 11.7487C7.8934 11.7617 8.19344 11.7715 8.49674 11.7715C8.8033 11.7715 9.1066 11.765 9.40338 11.7487C9.10987 12.1303 8.80656 12.4792 8.50652 12.7923ZM6.08011 10.8714C5.617 10.8029 5.1702 10.7181 4.74297 10.6138C4.86364 10.1931 5.01366 9.7593 5.18324 9.32555C5.31696 9.58645 5.4572 9.84736 5.61048 10.1083C5.76376 10.3692 5.9203 10.6235 6.08011 10.8714ZM8.49022 4.08462C8.79352 4.3977 9.09682 4.74666 9.39686 5.12824C9.10334 5.11519 8.8033 5.10541 8.5 5.10541C8.19344 5.10541 7.89014 5.11193 7.59336 5.12824C7.88687 4.74666 8.19018 4.3977 8.49022 4.08462ZM6.07685 6.00553C5.91704 6.25665 5.75724 6.51429 5.60722 6.77846C5.4572 7.03937 5.31696 7.30027 5.18324 7.56118C5.00713 7.12416 4.85711 6.68714 4.73318 6.26317C5.16042 6.16207 5.61048 6.07402 6.07685 6.00553ZM3.12536 10.0887C1.97085 9.59623 1.22401 8.95049 1.22401 8.43847C1.22401 7.92644 1.97085 7.27744 3.12536 6.78824C3.40583 6.66758 3.71239 6.55995 4.02874 6.45885C4.21464 7.09807 4.45923 7.76338 4.76254 8.44499C4.4625 9.12334 4.22116 9.78539 4.03852 10.4213C3.71565 10.3202 3.40909 10.2094 3.12536 10.0887ZM4.87994 14.7491C4.4364 14.4947 4.24399 13.5261 4.39401 12.2803C4.42988 11.9737 4.48859 11.6509 4.56033 11.3215C5.19955 11.478 5.89747 11.5987 6.63127 11.677C7.07155 12.2803 7.52813 12.8282 7.98797 13.3076C6.92479 14.2958 5.92682 14.8372 5.24847 14.8372C5.10171 14.8339 4.97778 14.8046 4.87994 14.7491ZM12.6158 12.264C12.7691 13.5098 12.5799 14.4784 12.1396 14.7361C12.0418 14.7948 11.9146 14.8209 11.7646 14.8209C11.0895 14.8209 10.0883 14.2827 9.02507 13.3011C9.48166 12.8217 9.93824 12.277 10.372 11.6737C11.1091 11.5954 11.807 11.4748 12.4462 11.3149C12.5212 11.6443 12.5799 11.9607 12.6158 12.264ZM13.8714 10.0887C13.5909 10.2094 13.2843 10.317 12.968 10.4181C12.7821 9.77887 12.5375 9.11356 12.2342 8.43195C12.5342 7.75359 12.7756 7.09155 12.9582 6.45559C13.2811 6.55669 13.5876 6.66758 13.8746 6.78824C15.0291 7.2807 15.776 7.92644 15.776 8.43847C15.7727 8.95049 15.0259 9.5995 13.8714 10.0887Z" fill="#61DAFB"/>
<path d="M8.49628 9.9289C9.31941 9.9289 9.9867 9.26162 9.9867 8.43848C9.9867 7.61534 9.31941 6.94806 8.49628 6.94806C7.67314 6.94806 7.00586 7.61534 7.00586 8.43848C7.00586 9.26162 7.67314 9.9289 8.49628 9.9289Z" fill="#61DAFB"/>
</g>
<defs>
<clipPath id="clip0_177_230">
<rect width="16" height="16" fill="white" transform="translate(0.5 0.4375)"/>
</clipPath>
</defs>
</svg>
