<svg width="17" height="17" viewBox="0 0 17 17" fill="none" xmlns="http://www.w3.org/2000/svg">
<g clip-path="url(#clip0_177_190)">
<path d="M15.6231 12.1214C14.7693 12.5665 10.346 14.3852 9.40431 14.8761C8.46262 15.3671 7.9395 15.3624 7.19556 15.0067C6.45169 14.6511 1.74456 12.7497 0.896625 12.3444C0.472875 12.1419 0.25 11.9709 0.25 11.8094V10.1922C0.25 10.1922 6.37812 8.8581 7.36744 8.50317C8.35669 8.14823 8.69994 8.13542 9.54181 8.44379C10.3838 8.75229 15.4179 9.66054 16.25 9.96529L16.2496 11.5597C16.2498 11.7195 16.0578 11.8949 15.6231 12.1214Z" fill="#912626"/>
<path d="M15.6228 10.5137C14.769 10.9586 10.3459 12.7774 9.40417 13.2682C8.46255 13.7593 7.93942 13.7545 7.19555 13.3989C6.45161 13.0435 1.74467 11.1418 0.896798 10.7367C0.0489235 10.3314 0.0311735 10.0525 0.864048 9.72636C1.69692 9.40011 6.37805 7.56355 7.36749 7.20861C8.35674 6.8538 8.69992 6.84086 9.5418 7.14936C10.3837 7.45773 14.7805 9.2078 15.6124 9.51248C16.4447 9.81755 16.4766 10.0687 15.6228 10.5137Z" fill="#C6302B"/>
<path d="M15.6231 9.50462C14.7693 9.94974 10.346 11.7684 9.40431 12.2595C8.46262 12.7503 7.9395 12.7456 7.19556 12.3899C6.45162 12.0345 1.74456 10.1329 0.896625 9.72762C0.472875 9.52512 0.25 9.35437 0.25 9.19281V7.57537C0.25 7.57537 6.37812 6.24137 7.36744 5.88643C8.35669 5.53149 8.69994 5.51862 9.54181 5.82706C10.3839 6.13549 15.418 7.04355 16.25 7.34837L16.2496 8.94293C16.2498 9.10274 16.0578 9.27812 15.6231 9.50462Z" fill="#912626"/>
<path d="M15.6228 7.89694C14.769 8.34194 10.3459 10.1606 9.40417 10.6516C8.46255 11.1425 7.93942 11.1377 7.19555 10.7821C6.45161 10.4267 1.74467 8.52507 0.896798 8.11994C0.0489235 7.71475 0.0311735 7.43575 0.864048 7.1095C1.69692 6.78344 6.37811 4.94675 7.36749 4.59188C8.35674 4.237 8.69992 4.22413 9.5418 4.53257C10.3837 4.84094 14.7805 6.59088 15.6124 6.89569C16.4447 7.20069 16.4766 7.45194 15.6228 7.89694Z" fill="#C6302B"/>
<path d="M15.6231 6.79081C14.7693 7.23581 10.346 9.05456 9.40431 9.54568C8.46262 10.0366 7.9395 10.0317 7.19556 9.67612C6.45162 9.32068 1.74456 7.41906 0.896625 7.01393C0.472875 6.81124 0.25 6.64043 0.25 6.47906V4.86156C0.25 4.86156 6.37812 3.52762 7.36744 3.17274C8.35669 2.81774 8.69994 2.80499 9.54181 3.11337C10.3839 3.42181 15.418 4.32987 16.25 4.63468L16.2496 6.22918C16.2498 6.38887 16.0578 6.56424 15.6231 6.79081Z" fill="#912626"/>
<path d="M15.6228 5.18312C14.769 5.62812 10.3458 7.44687 9.40414 7.93775C8.46252 8.42862 7.93939 8.42381 7.19552 8.06837C6.45164 7.71275 1.74464 5.81125 0.89683 5.40606C0.0488923 5.00094 0.0312048 4.72187 0.864017 4.39569C1.69689 4.06956 6.37808 2.23312 7.36745 1.87812C8.3567 1.52319 8.69989 1.51044 9.54177 1.81887C10.3837 2.12731 14.7805 3.87725 15.6124 4.18206C16.4446 4.48681 16.4766 4.73812 15.6228 5.18312Z" fill="#C6302B"/>
<path d="M10.2054 3.6098L8.82975 3.75262L8.52181 4.49362L8.02444 3.66674L6.436 3.52399L7.62125 3.09655L7.26562 2.44043L8.37531 2.87443L9.42144 2.53193L9.13869 3.21037L10.2054 3.6098ZM8.43969 7.20468L5.87238 6.13987L9.55113 5.57518L8.43969 7.20468ZM4.88031 4.02168C5.96625 4.02168 6.84656 4.36293 6.84656 4.7838C6.84656 5.2048 5.96625 5.54599 4.88031 5.54599C3.79437 5.54599 2.91406 5.20474 2.91406 4.7838C2.91406 4.36293 3.79437 4.02168 4.88031 4.02168Z" fill="white"/>
<path d="M11.8301 3.81238L14.0073 4.67275L11.832 5.53232L11.8301 3.81238Z" fill="#621B1C"/>
<path d="M9.42188 4.76519L11.8306 3.81238L11.8325 5.53232L11.5963 5.62469L9.42188 4.76519Z" fill="#9A2928"/>
</g>
<defs>
<clipPath id="clip0_177_190">
<rect width="16" height="16" fill="white" transform="translate(0.25 0.4375)"/>
</clipPath>
</defs>
</svg>
