<svg width="17" height="17" viewBox="0 0 17 17" fill="none" xmlns="http://www.w3.org/2000/svg">
<g clip-path="url(#clip0_177_272)">
<path d="M1.83877 16.7789C0.615363 16.2113 0.37819 14.6673 1.37619 13.7675C2.10716 13.1085 3.10564 13.1466 3.81989 13.8609C4.53413 14.5751 4.57228 15.5736 3.91324 16.3046C3.36875 16.9085 2.53091 17.1001 1.83877 16.7789ZM7.96789 16.7384C6.96721 16.2724 6.63194 14.9856 7.27231 14.0685C7.56898 13.6437 8.22986 13.2977 8.74467 13.2977C9.25947 13.2977 9.92036 13.6437 10.217 14.0685C10.6656 14.7109 10.6421 15.6186 10.1604 16.2501C9.87797 16.6204 9.23233 16.9308 8.74467 16.9308C8.53123 16.9308 8.21059 16.8514 7.96789 16.7384ZM14.1967 16.7817C13.5731 16.4977 13.108 15.7906 13.1067 15.1244C13.1049 14.1844 13.993 13.2963 14.933 13.2982C15.5991 13.2994 16.3063 13.7645 16.5903 14.3881C17.2562 15.8502 15.6588 17.4476 14.1967 16.7817ZM2.10697 10.6768C1.57999 10.541 1.16992 10.2015 0.942385 9.71287C0.694387 9.18025 0.694387 8.69193 0.942385 8.15932C1.54475 6.86566 3.38607 6.78112 4.10856 8.01395C4.92881 9.41361 3.67536 11.0812 2.10697 10.6768ZM8.42158 10.7139C6.981 10.4451 6.43898 8.6221 7.50552 7.63279C7.87781 7.28745 8.2433 7.14298 8.74467 7.14298C9.75961 7.14298 10.5378 7.92114 10.5378 8.93609C10.5378 10.0654 9.52154 10.9191 8.42158 10.7139ZM14.5602 10.7042C13.7668 10.5512 13.1063 9.74789 13.1063 8.93609C13.1063 8.42128 13.4523 7.7604 13.8771 7.46374C14.7941 6.82336 16.081 7.15863 16.5469 8.15932C16.7959 8.69401 16.7951 9.18 16.5442 9.71879C16.3288 10.1814 15.8526 10.5871 15.4238 10.6733C15.282 10.7018 15.1114 10.7362 15.0448 10.7497C14.9781 10.7633 14.7601 10.7428 14.5602 10.7042ZM1.92961 4.45581C0.989074 4.12056 0.484468 2.92968 0.901813 2.03019C1.46945 0.806788 3.01346 0.569615 3.91324 1.56761C4.57228 2.29859 4.53413 3.29706 3.81989 4.01131C3.28433 4.54687 2.62201 4.70261 1.92961 4.45581ZM7.92737 4.34885C6.59748 3.65411 6.62134 1.7608 7.96789 1.13381C8.50051 0.885812 8.98883 0.885812 9.52144 1.13381C10.868 1.7608 10.8919 3.65411 9.56196 4.34885C8.98388 4.65084 8.50545 4.65084 7.92737 4.34885ZM14.3178 4.46837C13.7018 4.27311 13.1054 3.42584 13.1067 2.74776C13.108 2.08163 13.5731 1.37448 14.1967 1.09048C15.3551 0.562914 16.7374 1.46971 16.7374 2.75713C16.7374 3.99217 15.5237 4.85058 14.3178 4.46837Z" fill="#314160"/>
</g>
<defs>
<clipPath id="clip0_177_272">
<rect width="16" height="16" fill="white" transform="translate(0.75 0.9375)"/>
</clipPath>
</defs>
</svg>
