<svg width="17" height="17" viewBox="0 0 17 17" fill="none" xmlns="http://www.w3.org/2000/svg">
<g clip-path="url(#clip0_177_275)">
<path fill-rule="evenodd" clip-rule="evenodd" d="M12.7658 16.9277C10.8274 17.1049 9.20647 14.8334 7.9641 13.6812C7.33585 18.2081 0.495315 17.779 0.500002 13.1869C0.502252 11.2581 0.500002 6.54482 0.500002 4.67665C0.500002 4.00497 0.684345 3.32857 1.03015 2.75498C1.6864 1.64252 2.95451 0.92424 4.24594 0.938115C6.19136 0.940584 10.8764 0.935896 12.7658 0.938115C17.3622 0.938115 17.7987 7.77622 13.2563 8.3919L15.4119 10.5445C17.7801 12.7717 16.0027 17.0256 12.7658 16.9277ZM11.7219 14.234C13.0577 15.6101 15.1901 13.4783 13.8145 12.1443L10.0777 8.41296H7.98738V10.5024L11.2175 13.728L11.7219 14.234ZM2.76302 13.1891C2.73258 15.1017 5.75237 15.1086 5.72215 13.1891V4.67665C5.74768 3.72275 4.73891 2.96485 3.82801 3.25869C3.78838 3.27035 3.75098 3.282 3.71582 3.2961C3.14376 3.50819 2.74667 4.09365 2.76302 4.70465V13.1891ZM12.7658 6.15286C14.6855 6.18332 14.6833 3.16775 12.7658 3.198H7.69085C8.07632 4.00968 7.97822 5.27377 7.98516 6.15286H12.7658Z" fill="black"/>
</g>
<defs>
<clipPath id="clip0_177_275">
<rect width="15.9999" height="16" fill="white" transform="translate(0.5 0.9375)"/>
</clipPath>
</defs>
</svg>
