<svg width="17" height="17" viewBox="0 0 17 17" fill="none" xmlns="http://www.w3.org/2000/svg">
<g clip-path="url(#clip0_177_581)">
<path d="M6.96635 6.7487H8.92862C10.1362 6.7487 10.1362 7.95624 8.92862 7.95624H6.96635V6.7487ZM2.28711 12.3336H8.32485V10.6732H6.96635V9.46568H8.47579C10.1362 9.46568 9.23051 12.3336 10.589 12.3336H14.3626V9.46568H13.4569V9.76756C13.4569 10.9751 12.0984 10.8242 11.9475 10.0695C11.7965 9.31473 11.1928 8.71096 11.0418 8.71096C13.306 7.50341 11.9475 5.08832 10.1362 5.08832H3.04183V6.7487H4.55126V10.6732H2.28711V12.3336Z" fill="black" stroke="black" stroke-width="0.0625" stroke-linejoin="round"/>
<path d="M8.24838 15.4278C11.833 15.4278 14.7389 12.5219 14.7389 8.93722C14.7389 5.35258 11.833 2.44666 8.24838 2.44666C4.66374 2.44666 1.75781 5.35258 1.75781 8.93722C1.75781 12.5219 4.66374 15.4278 8.24838 15.4278Z" stroke="black" stroke-width="0.5625"/>
<path d="M15.1895 9.38997L15.9442 8.93714L15.1895 8.48431V9.38997Z" fill="black" stroke="black" stroke-width="0.1875" stroke-linejoin="round"/>
<path d="M14.9678 10.7359L15.7964 10.439L15.1445 9.8476L14.9678 10.7359Z" fill="black" stroke="black" stroke-width="0.1875" stroke-linejoin="round"/>
<path d="M14.4894 12.0126L15.3599 11.8831L14.8359 11.1759L14.4894 12.0126Z" fill="black" stroke="black" stroke-width="0.1875" stroke-linejoin="round"/>
<path d="M13.7683 13.1712L14.6474 13.214L14.2715 12.4182L13.7683 13.1712Z" fill="black" stroke="black" stroke-width="0.1875" stroke-linejoin="round"/>
<path d="M12.8362 14.1671L13.69 14.3805L13.4766 13.5267L12.8362 14.1671Z" fill="black" stroke="black" stroke-width="0.1875" stroke-linejoin="round"/>
<path d="M11.7274 14.962L12.5233 15.3379L12.4805 14.4588L11.7274 14.962Z" fill="black" stroke="black" stroke-width="0.1875" stroke-linejoin="round"/>
<path d="M10.4855 15.5253L11.1927 16.0493L11.3223 15.1787L10.4855 15.5253Z" fill="black" stroke="black" stroke-width="0.1875" stroke-linejoin="round"/>
<path d="M9.15666 15.8354L9.74803 16.4873L10.0449 15.6588L9.15666 15.8354Z" fill="black" stroke="black" stroke-width="0.1875" stroke-linejoin="round"/>
<path d="M7.79356 15.8806L8.24639 16.6353L8.69922 15.8806H7.79356Z" fill="black" stroke="black" stroke-width="0.1875" stroke-linejoin="round"/>
<path d="M6.44768 15.6588L6.74457 16.4873L7.33594 15.8354L6.44768 15.6588Z" fill="black" stroke="black" stroke-width="0.1875" stroke-linejoin="round"/>
<path d="M5.17109 15.1787L5.30063 16.0492L6.00781 15.5253L5.17109 15.1787Z" fill="black" stroke="black" stroke-width="0.1875" stroke-linejoin="round"/>
<path d="M4.0126 14.4588L3.96981 15.3379L4.76562 14.9619L4.0126 14.4588Z" fill="black" stroke="black" stroke-width="0.1875" stroke-linejoin="round"/>
<path d="M3.0178 13.5267L2.80434 14.3805L3.6582 14.1671L3.0178 13.5267Z" fill="black" stroke="black" stroke-width="0.1875" stroke-linejoin="round"/>
<path d="M2.22145 12.4182L1.84551 13.214L2.72461 13.1712L2.22145 12.4182Z" fill="black" stroke="black" stroke-width="0.1875" stroke-linejoin="round"/>
<path d="M1.65928 11.1759L1.1353 11.8831L2.00586 12.0126L1.65928 11.1759Z" fill="black" stroke="black" stroke-width="0.1875" stroke-linejoin="round"/>
<path d="M1.34871 9.84758L0.696833 10.4389L1.52539 10.7358L1.34871 9.84758Z" fill="black" stroke="black" stroke-width="0.1875" stroke-linejoin="round"/>
<path d="M1.30273 8.48429L0.548017 8.93712L1.30273 9.38995V8.48429Z" fill="black" stroke="black" stroke-width="0.1875" stroke-linejoin="round"/>
<path d="M1.52434 7.13841L0.695784 7.43531L1.34766 8.02667L1.52434 7.13841Z" fill="black" stroke="black" stroke-width="0.1875" stroke-linejoin="round"/>
<path d="M2.00478 5.86164L1.13423 5.99119L1.6582 6.69836L2.00478 5.86164Z" fill="black" stroke="black" stroke-width="0.1875" stroke-linejoin="round"/>
<path d="M2.72581 4.70309L1.84671 4.6603L2.22266 5.45612L2.72581 4.70309Z" fill="black" stroke="black" stroke-width="0.1875" stroke-linejoin="round"/>
<path d="M3.65798 3.7072L2.80411 3.49373L3.01758 4.3476L3.65798 3.7072Z" fill="black" stroke="black" stroke-width="0.1875" stroke-linejoin="round"/>
<path d="M4.7667 2.91231L3.97089 2.53636L4.01367 3.41547L4.7667 2.91231Z" fill="black" stroke="black" stroke-width="0.1875" stroke-linejoin="round"/>
<path d="M6.0086 2.34898L5.30142 1.825L5.17188 2.69556L6.0086 2.34898Z" fill="black" stroke="black" stroke-width="0.1875" stroke-linejoin="round"/>
<path d="M7.33552 2.03883L6.74416 1.38696L6.44727 2.21552L7.33552 2.03883Z" fill="black" stroke="black" stroke-width="0.1875" stroke-linejoin="round"/>
<path d="M8.70058 1.99371L8.24775 1.239L7.79492 1.99371L8.70058 1.99371Z" fill="black" stroke="black" stroke-width="0.1875" stroke-linejoin="round"/>
<path d="M10.0465 2.2155L9.74957 1.38695L9.1582 2.03882L10.0465 2.2155Z" fill="black" stroke="black" stroke-width="0.1875" stroke-linejoin="round"/>
<path d="M11.323 2.69558L11.1935 1.82502L10.4863 2.349L11.323 2.69558Z" fill="black" stroke="black" stroke-width="0.1875" stroke-linejoin="round"/>
<path d="M12.4815 3.41551L12.5243 2.53641L11.7285 2.91235L12.4815 3.41551Z" fill="black" stroke="black" stroke-width="0.1875" stroke-linejoin="round"/>
<path d="M13.4763 4.34761L13.6898 3.49375L12.8359 3.70721L13.4763 4.34761Z" fill="black" stroke="black" stroke-width="0.1875" stroke-linejoin="round"/>
<path d="M14.2707 5.45609L14.6467 4.66028L13.7676 4.70306L14.2707 5.45609Z" fill="black" stroke="black" stroke-width="0.1875" stroke-linejoin="round"/>
<path d="M14.8349 6.69835L15.3588 5.99118L14.4883 5.86163L14.8349 6.69835Z" fill="black" stroke="black" stroke-width="0.1875" stroke-linejoin="round"/>
<path d="M15.1454 8.02669L15.7973 7.43532L14.9688 7.13843L15.1454 8.02669Z" fill="black" stroke="black" stroke-width="0.1875" stroke-linejoin="round"/>
<path d="M7.18945 2.5976L8.24606 3.6542L9.30266 2.5976H7.18945Z" fill="black" stroke="black" stroke-width="0.375" stroke-linejoin="round"/>
<path d="M13.9492 5.97327L13.2708 7.30467L14.6022 7.98305L13.9492 5.97327Z" fill="black" stroke="black" stroke-width="0.375" stroke-linejoin="round"/>
<path d="M12.8281 13.445L11.3523 13.2113L11.1185 14.6871L12.8281 13.445Z" fill="black" stroke="black" stroke-width="0.375" stroke-linejoin="round"/>
<path d="M5.375 14.6871L5.14125 13.2113L3.66538 13.445L5.375 14.6871Z" fill="black" stroke="black" stroke-width="0.375" stroke-linejoin="round"/>
<path d="M1.89062 7.98303L3.22202 7.30465L2.54364 5.97325L1.89062 7.98303Z" fill="black" stroke="black" stroke-width="0.375" stroke-linejoin="round"/>
</g>
<defs>
<clipPath id="clip0_177_581">
<rect width="16" height="16" fill="white" transform="translate(0.25 0.9375)"/>
</clipPath>
</defs>
</svg>
