<svg width="16" height="17" viewBox="0 0 16 17" fill="none" xmlns="http://www.w3.org/2000/svg">
<path d="M12.2728 11.9574C14.2268 10.0034 14.5516 7.16023 12.9981 5.60685C11.4448 4.05363 8.60179 4.37834 6.64782 6.33219C4.69386 8.2861 5.2591 12.0191 5.92259 12.6827C6.45875 13.2189 10.3189 13.9112 12.2728 11.9574Z" fill="#F89939"/>
<path d="M4.25453 9.13395C3.12093 8.00035 1.47119 7.81163 0.569705 8.71306C-0.331552 9.61438 -0.14312 11.2643 0.990707 12.3978C2.12453 13.5317 4.29058 13.2037 4.6753 12.8187C4.98662 12.5078 5.38847 10.2677 4.25453 9.13395Z" fill="#3499CD"/>
<path d="M8.16453 11.4782C7.96427 11.6625 7.78859 11.7985 7.6376 11.886C7.48661 11.9737 7.34261 12.0174 7.20558 12.0174C7.04796 12.0174 6.9208 11.9563 6.82439 11.8341C6.72781 11.7117 6.67969 11.5476 6.67969 11.3412C6.67969 11.0319 6.74673 10.6606 6.88081 10.2276C7.01467 9.79433 7.17766 9.39508 7.36909 9.02981L7.9304 8.82199C7.948 8.81611 7.96139 8.81311 7.97027 8.81311C8.01285 8.81311 8.04805 8.8445 8.07505 8.90698C8.10234 8.96975 8.11607 9.0541 8.11607 9.16015C8.11607 9.46068 8.04689 9.75164 7.90825 10.033C7.76966 10.3145 7.55319 10.6149 7.2586 10.9346C7.24677 11.0879 7.24089 11.1931 7.24089 11.2506C7.24089 11.3789 7.26443 11.4804 7.31157 11.5555C7.35876 11.6308 7.4213 11.6682 7.49942 11.6682C7.5791 11.6682 7.66374 11.6397 7.75363 11.5822C7.84334 11.5247 7.98037 11.4055 8.16447 11.2241V11.4782H8.16453ZM7.31826 10.6143C7.50531 10.4063 7.65722 10.173 7.77353 9.91497C7.88984 9.65679 7.94794 9.43472 7.94794 9.24865C7.94794 9.19442 7.93992 9.15034 7.92383 9.11722C7.90762 9.08405 7.88684 9.06737 7.86186 9.06737C7.80757 9.06737 7.72824 9.20307 7.62433 9.47453C7.52042 9.74593 7.41842 10.1259 7.31826 10.6143Z" fill="#010101"/>
<path d="M9.81847 11.4781C9.63142 11.6625 9.46352 11.7985 9.31467 11.8859C9.16582 11.9736 9.00173 12.0174 8.8219 12.0174C8.62152 12.0174 8.45986 11.9533 8.33668 11.8253C8.21373 11.6969 8.15234 11.5284 8.15234 11.3191C8.15234 11.0069 8.26052 10.7244 8.47734 10.4717C8.6937 10.2189 8.93394 10.0927 9.19761 10.0927C9.33463 10.0927 9.44426 10.1281 9.52687 10.1988C9.60938 10.2696 9.65063 10.3623 9.65063 10.4772C9.65063 10.7823 9.32656 11.0296 8.67835 11.2197C8.7372 11.5069 8.89113 11.6507 9.14014 11.6507C9.23742 11.6507 9.33013 11.6245 9.41847 11.5724C9.50703 11.52 9.64025 11.4038 9.81852 11.2242L9.81847 11.4781ZM8.66052 11.0694C9.03756 10.9633 9.22623 10.7675 9.22623 10.4816C9.22623 10.3402 9.17459 10.2695 9.0716 10.2695C8.97433 10.2695 8.88161 10.3435 8.79328 10.4917C8.70466 10.6397 8.66052 10.8321 8.66052 11.0694Z" fill="#010101"/>
<path d="M12.1776 11.4782C11.9418 11.7021 11.7731 11.8481 11.6716 11.916C11.5699 11.9837 11.4727 12.0175 11.3798 12.0175C11.147 12.0175 11.0373 11.8121 11.0506 11.401C10.9033 11.6116 10.7673 11.767 10.6428 11.8674C10.5184 11.9676 10.3899 12.0175 10.2571 12.0175C10.1277 12.0175 10.0176 11.9569 9.92683 11.8353C9.83608 11.7138 9.79102 11.5647 9.79102 11.3877C9.79102 11.1669 9.85165 10.9562 9.9731 10.7557C10.0948 10.5553 10.2506 10.3934 10.4405 10.2696C10.6305 10.1459 10.7987 10.0839 10.9443 10.0839C11.1286 10.0839 11.2575 10.1687 11.3312 10.338L11.7828 10.0884H11.9068L11.7117 10.7358C11.6115 11.0615 11.5613 11.2847 11.5613 11.4055C11.5613 11.5321 11.6061 11.5955 11.6961 11.5955C11.7533 11.5955 11.8166 11.565 11.8859 11.5037C11.9552 11.4425 12.0523 11.3494 12.1775 11.2242V11.4782H12.1776ZM10.56 11.5999C10.7073 11.5999 10.8461 11.4743 10.9767 11.2232C11.1071 10.9719 11.1722 10.7401 11.1722 10.528C11.1722 10.4456 11.1537 10.3811 11.117 10.3347C11.08 10.2882 11.0307 10.2651 10.969 10.2651C10.8216 10.2651 10.6818 10.3903 10.5502 10.6408C10.4184 10.8913 10.3523 11.1219 10.3523 11.3323C10.3523 11.412 10.3719 11.4765 10.411 11.5258C10.45 11.5752 10.4995 11.5999 10.56 11.5999Z" fill="#010101"/>
<path d="M13.8284 11.4782C13.4586 11.8406 13.1735 12.0219 12.9732 12.0219C12.8832 12.0219 12.8073 11.984 12.7456 11.9083C12.6838 11.8324 12.6527 11.7384 12.6527 11.6264C12.6527 11.4187 12.7641 11.1403 12.9865 10.7911C12.8774 10.8471 12.7582 10.886 12.6285 10.9082C12.5327 11.0849 12.3824 11.2751 12.1777 11.4781H12.127V11.2795C12.2418 11.1602 12.3457 11.0319 12.4385 10.8949C12.3116 10.8389 12.2484 10.7556 12.2484 10.6453C12.2484 10.5317 12.2869 10.4106 12.3645 10.2815C12.4418 10.1528 12.5482 10.0884 12.6838 10.0884C12.7988 10.0884 12.8561 10.1471 12.8561 10.265C12.8561 10.3579 12.823 10.4904 12.7566 10.6629C13.0011 10.6363 13.2147 10.4493 13.3975 10.1015L13.5985 10.0926L13.393 10.6583C13.3076 10.897 13.2524 11.0596 13.2274 11.1457C13.2024 11.2318 13.1898 11.3082 13.1898 11.3743C13.1898 11.4363 13.2042 11.4858 13.2328 11.5224C13.2615 11.5595 13.3003 11.5777 13.3489 11.5777C13.4018 11.5777 13.4528 11.5596 13.5014 11.5237C13.5499 11.4873 13.659 11.3876 13.8285 11.2241V11.4782H13.8284Z" fill="#010101"/>
<path d="M15.999 11.4782C15.6587 11.8379 15.3668 12.0175 15.1239 12.0175C15.0252 12.0175 14.9456 11.9829 14.8852 11.9136C14.8247 11.8444 14.7945 11.7517 14.7945 11.6353C14.7945 11.4777 14.8594 11.2367 14.9891 10.9128C15.0583 10.7389 15.093 10.6282 15.093 10.5813C15.093 10.5341 15.0744 10.5105 15.0378 10.5105C15.0172 10.5105 14.9898 10.5209 14.956 10.5413C14.9249 10.5619 14.8888 10.5909 14.8476 10.6276C14.8108 10.6615 14.7695 10.7027 14.7238 10.7512C14.684 10.7928 14.6412 10.8398 14.5958 10.8927L14.4719 11.0365C14.4175 11.1027 14.3835 11.1726 14.3703 11.2463C14.3481 11.3715 14.3335 11.4866 14.326 11.5913C14.3215 11.6692 14.3194 11.7744 14.3194 11.9073L13.831 12.022C13.8149 11.8231 13.8066 11.675 13.8066 11.5779C13.8066 11.3407 13.8343 11.116 13.8896 10.9039C13.9448 10.6916 14.0335 10.4531 14.1559 10.1878L14.695 10.084C14.5816 10.389 14.5072 10.629 14.4719 10.8043C14.7135 10.5347 14.905 10.3481 15.047 10.2441C15.1888 10.1402 15.315 10.0885 15.4253 10.0885C15.5003 10.0885 15.5629 10.1168 15.6128 10.1734C15.663 10.23 15.6879 10.3011 15.6879 10.3862C15.6879 10.5275 15.6246 10.7603 15.498 11.0845C15.411 11.3069 15.3675 11.4512 15.3675 11.5178C15.3675 11.6065 15.4037 11.6508 15.4761 11.6508C15.5838 11.6508 15.7582 11.5086 15.999 11.2243V11.4782Z" fill="#010101"/>
<g clip-path="url(#clip0_177_625)">
<path d="M9.54332 8.76441L9.43473 8.79515C9.4279 8.77705 9.41782 8.75946 9.4045 8.74239C9.39153 8.72497 9.37377 8.71063 9.35123 8.69936C9.32869 8.68809 9.29984 8.68245 9.26466 8.68245C9.21651 8.68245 9.17639 8.69355 9.14429 8.71575C9.11253 8.73761 9.09665 8.76544 9.09665 8.79925C9.09665 8.8293 9.10758 8.85303 9.12943 8.87045C9.15129 8.88787 9.18544 8.90238 9.23188 8.91398L9.34867 8.94267C9.41902 8.95975 9.47144 8.98587 9.50593 9.02105C9.54042 9.05588 9.55766 9.10078 9.55766 9.15577C9.55766 9.20084 9.54469 9.24114 9.51873 9.27665C9.49312 9.31217 9.45727 9.34017 9.41116 9.36066C9.36506 9.38115 9.31145 9.3914 9.25032 9.3914C9.17007 9.3914 9.10365 9.37398 9.05106 9.33915C8.99847 9.30432 8.96517 9.25343 8.95117 9.1865L9.06591 9.15782C9.07684 9.20016 9.0975 9.23192 9.12789 9.25309C9.15863 9.27427 9.19875 9.28485 9.24827 9.28485C9.30462 9.28485 9.34935 9.2729 9.38248 9.24899C9.41594 9.22475 9.43268 9.19572 9.43268 9.16191C9.43268 9.13459 9.42312 9.11171 9.40399 9.09327C9.38487 9.07449 9.3555 9.06049 9.31589 9.05127L9.18475 9.02053C9.1127 9.00346 9.05977 8.97699 9.02596 8.94113C8.99249 8.90493 8.97576 8.85969 8.97576 8.80539C8.97576 8.761 8.98822 8.72173 9.01315 8.68758C9.03842 8.65343 9.07274 8.62662 9.11611 8.60716C9.15982 8.58769 9.20934 8.57796 9.26466 8.57796C9.34252 8.57796 9.40365 8.59503 9.44805 8.62918C9.49278 8.66333 9.52454 8.70841 9.54332 8.76441ZM10.0593 9.3914C9.98551 9.3914 9.922 9.37398 9.86872 9.33915C9.81545 9.30432 9.77447 9.25633 9.74579 9.19521C9.7171 9.13408 9.70275 9.06425 9.70275 8.9857C9.70275 8.90579 9.71744 8.83527 9.74681 8.77415C9.77652 8.71268 9.81784 8.6647 9.87077 8.63021C9.92404 8.59537 9.9862 8.57796 10.0572 8.57796C10.1125 8.57796 10.1624 8.5882 10.2068 8.60869C10.2512 8.62918 10.2876 8.65787 10.3159 8.69475C10.3443 8.73163 10.3618 8.77466 10.3687 8.82383H10.2478C10.2386 8.78798 10.2181 8.75622 10.1863 8.72856C10.1549 8.70055 10.1125 8.68655 10.0593 8.68655C10.0121 8.68655 9.97083 8.69885 9.93532 8.72343C9.90014 8.74768 9.87265 8.782 9.85284 8.82639C9.83338 8.87045 9.82365 8.92218 9.82365 8.9816C9.82365 9.04239 9.8332 9.09532 9.85233 9.1404C9.8718 9.18547 9.89912 9.22048 9.93429 9.24541C9.9698 9.27033 10.0115 9.2828 10.0593 9.2828C10.0907 9.2828 10.1192 9.27733 10.1448 9.26641C10.1704 9.25548 10.1921 9.23977 10.2099 9.21928C10.2276 9.19879 10.2403 9.1742 10.2478 9.14552H10.3687C10.3618 9.19197 10.3449 9.2338 10.318 9.27102C10.2913 9.3079 10.256 9.33727 10.2119 9.35912C10.1682 9.38064 10.1173 9.3914 10.0593 9.3914ZM10.5454 9.375V8.5882H10.6663V9.375H10.5454ZM10.6069 8.45707C10.5833 8.45707 10.563 8.44904 10.5459 8.43299C10.5292 8.41694 10.5208 8.39765 10.5208 8.37511C10.5208 8.35257 10.5292 8.33328 10.5459 8.31723C10.563 8.30118 10.5833 8.29315 10.6069 8.29315C10.6304 8.29315 10.6506 8.30118 10.6673 8.31723C10.6844 8.33328 10.6929 8.35257 10.6929 8.37511C10.6929 8.39765 10.6844 8.41694 10.6673 8.43299C10.6506 8.44904 10.6304 8.45707 10.6069 8.45707ZM11.0004 9.08815L10.9983 8.93857H11.0229L11.3672 8.5882H11.5167L11.15 8.95907H11.1397L11.0004 9.08815ZM10.8877 9.375V8.32594H11.0086V9.375H10.8877ZM11.3876 9.375L11.0803 8.9857L11.1664 8.90169L11.5413 9.375H11.3876ZM11.6723 9.375V8.5882H11.7932V9.375H11.6723ZM11.7338 8.45707C11.7102 8.45707 11.6899 8.44904 11.6728 8.43299C11.6561 8.41694 11.6477 8.39765 11.6477 8.37511C11.6477 8.35257 11.6561 8.33328 11.6728 8.31723C11.6899 8.30118 11.7102 8.29315 11.7338 8.29315C11.7574 8.29315 11.7775 8.30118 11.7942 8.31723C11.8113 8.33328 11.8198 8.35257 11.8198 8.37511C11.8198 8.39765 11.8113 8.41694 11.7942 8.43299C11.7775 8.44904 11.7574 8.45707 11.7338 8.45707ZM12.3568 8.5882V8.69065H11.9491V8.5882H12.3568ZM12.0679 8.3997H12.1888V9.14962C12.1888 9.18377 12.1937 9.20938 12.2036 9.22645C12.2139 9.24318 12.2269 9.25445 12.2426 9.26026C12.2586 9.26573 12.2755 9.26846 12.2933 9.26846C12.3066 9.26846 12.3175 9.26777 12.3261 9.26641C12.3346 9.2647 12.3414 9.26333 12.3466 9.26231L12.3711 9.3709C12.3629 9.37398 12.3515 9.37705 12.3368 9.38013C12.3221 9.38354 12.3035 9.38525 12.281 9.38525C12.2468 9.38525 12.2134 9.3779 12.1806 9.36322C12.1481 9.34853 12.1212 9.32617 12.0997 9.29612C12.0785 9.26607 12.0679 9.22816 12.0679 9.1824V8.3997Z" fill="white"/>
</g>
<defs>
<clipPath id="clip0_177_625">
<rect width="3.4375" height="1.1875" fill="white" transform="translate(8.9375 8.25)"/>
</clipPath>
</defs>
</svg>
