<svg width="17" height="17" viewBox="0 0 17 17" fill="none" xmlns="http://www.w3.org/2000/svg">
<g clip-path="url(#clip0_177_206)">
<path d="M8.80384 0.582214C6.80355 0.582246 4.8852 1.37687 3.47079 2.79128C2.05637 4.2057 1.26175 6.12405 1.26172 8.12433C1.26178 10.1246 2.05642 12.0429 3.47083 13.4573C4.88524 14.8717 6.80357 15.6663 8.80384 15.6663C10.7875 15.6663 12.6913 14.8847 14.1028 13.491C15.5143 12.0973 16.32 10.2036 16.3452 8.22007L16.3458 8.12427L16.3452 8.02847C16.32 6.04497 15.5143 4.15127 14.1028 2.75754C12.6913 1.36381 10.7875 0.582276 8.80384 0.582214Z" fill="white"/>
<path d="M7.08245 4.91189C7.1206 4.91189 7.15838 4.90437 7.19362 4.88978C7.22886 4.87518 7.26089 4.85378 7.28786 4.8268C7.31484 4.79983 7.33624 4.7678 7.35084 4.73256C7.36543 4.69732 7.37295 4.65954 7.37295 4.62139C7.37295 4.58324 7.36543 4.54547 7.35084 4.51022C7.33624 4.47498 7.31484 4.44296 7.28786 4.41598C7.26089 4.38901 7.22886 4.36761 7.19362 4.35301C7.15838 4.33841 7.1206 4.3309 7.08245 4.3309C7.0054 4.3309 6.9315 4.36151 6.87702 4.41599C6.82254 4.47047 6.79193 4.54437 6.79193 4.62142C6.79193 4.69847 6.82254 4.77237 6.87702 4.82686C6.9315 4.88134 7.0054 4.91189 7.08245 4.91189ZM6.45689 5.3499C6.53151 5.3499 6.60307 5.32026 6.65584 5.26749C6.70861 5.21472 6.73825 5.14316 6.73825 5.06854C6.73825 4.99391 6.70861 4.92235 6.65584 4.86958C6.60307 4.81682 6.53151 4.78717 6.45689 4.78717C6.38226 4.78717 6.3107 4.81682 6.25793 4.86958C6.20517 4.92235 6.17552 4.99391 6.17552 5.06854C6.17552 5.14316 6.20517 5.21472 6.25793 5.26749C6.3107 5.32026 6.38226 5.3499 6.45689 5.3499ZM5.85515 5.6286C5.89027 5.62913 5.92515 5.62267 5.95775 5.6096C5.99035 5.59653 6.02003 5.5771 6.04505 5.55245C6.07008 5.5278 6.08995 5.49842 6.10351 5.46602C6.11708 5.43362 6.12406 5.39884 6.12406 5.36372C6.12406 5.32859 6.11708 5.29382 6.10351 5.26142C6.08995 5.22902 6.07008 5.19964 6.04505 5.17499C6.02003 5.15034 5.99035 5.13091 5.95775 5.11784C5.92515 5.10477 5.89027 5.09831 5.85515 5.09884C5.78489 5.09884 5.71751 5.12675 5.66783 5.17643C5.61815 5.22611 5.59024 5.29349 5.59024 5.36375C5.59024 5.43401 5.61815 5.50139 5.66783 5.55107C5.71751 5.60075 5.78489 5.6286 5.85515 5.6286ZM7.61016 4.56587C7.6498 4.56643 7.68915 4.55911 7.72594 4.54433C7.76272 4.52956 7.7962 4.50761 7.82443 4.47978C7.85266 4.45195 7.87508 4.41879 7.89038 4.38221C7.90568 4.34564 7.91356 4.3064 7.91356 4.26676C7.91356 4.22711 7.90568 4.18787 7.89038 4.1513C7.87508 4.11473 7.85266 4.08156 7.82443 4.05373C7.7962 4.0259 7.76272 4.00396 7.72594 3.98918C7.68915 3.9744 7.6498 3.96708 7.61016 3.96764C7.53188 3.96922 7.45734 4.00142 7.40253 4.05734C7.34773 4.11325 7.31703 4.18843 7.31703 4.26673C7.31703 4.34502 7.34773 4.4202 7.40253 4.47612C7.45734 4.53203 7.53188 4.5643 7.61016 4.56587ZM5.40365 5.00049C5.45696 5.00049 5.50809 4.97932 5.54579 4.94162C5.58349 4.90392 5.60466 4.85279 5.60466 4.79948C5.60466 4.74617 5.58349 4.69504 5.54579 4.65734C5.50809 4.61965 5.45696 4.59847 5.40365 4.59847C5.35034 4.59847 5.29921 4.61965 5.26151 4.65734C5.22382 4.69504 5.20264 4.74617 5.20264 4.79948C5.20264 4.85279 5.22382 4.90392 5.26151 4.94162C5.29921 4.97932 5.35034 5.00049 5.40365 5.00049ZM4.9074 6.10151C4.97072 6.10151 5.03146 6.07635 5.07624 6.03157C5.12102 5.98679 5.14618 5.92606 5.14618 5.86273C5.14618 5.7994 5.12102 5.73866 5.07624 5.69388C5.03146 5.6491 4.97072 5.62394 4.9074 5.62394C4.84407 5.62394 4.78333 5.6491 4.73855 5.69388C4.69377 5.73866 4.66861 5.7994 4.66861 5.86273C4.66861 5.92606 4.69377 5.98679 4.73855 6.03157C4.78333 6.07635 4.84407 6.10151 4.9074 6.10151ZM5.21114 4.21078C5.28744 4.21078 5.36062 4.18047 5.41458 4.12651C5.46854 4.07255 5.49885 3.99937 5.49885 3.92307C5.49885 3.84676 5.46854 3.77358 5.41458 3.71962C5.36062 3.66567 5.28744 3.63535 5.21114 3.63535C5.13483 3.63535 5.06165 3.66567 5.00769 3.71962C4.95374 3.77358 4.92342 3.84676 4.92342 3.92307C4.92342 3.99937 4.95374 4.07255 5.00769 4.12651C5.06165 4.18047 5.13483 4.21078 5.21114 4.21078ZM5.98754 4.74925C6.0172 4.74994 6.0467 4.7447 6.0743 4.73383C6.1019 4.72296 6.12705 4.70668 6.14827 4.68595C6.16949 4.66521 6.18635 4.64045 6.19787 4.61311C6.20938 4.58577 6.21531 4.5564 6.21531 4.52674C6.21531 4.49707 6.20938 4.46771 6.19787 4.44037C6.18635 4.41303 6.16949 4.38826 6.14827 4.36753C6.12705 4.3468 6.1019 4.33052 6.0743 4.31965C6.0467 4.30878 6.0172 4.30353 5.98754 4.30422C5.92943 4.30558 5.87415 4.32962 5.83353 4.3712C5.7929 4.41278 5.77016 4.46861 5.77016 4.52674C5.77016 4.58487 5.7929 4.64069 5.83353 4.68228C5.87415 4.72386 5.92943 4.7479 5.98754 4.74925ZM9.82477 4.0851C9.89379 4.0851 9.95998 4.05768 10.0088 4.00888C10.0576 3.96008 10.085 3.89389 10.085 3.82487C10.085 3.75586 10.0576 3.68967 10.0088 3.64087C9.95998 3.59207 9.89379 3.56465 9.82477 3.56465C9.75576 3.56465 9.68957 3.59207 9.64076 3.64087C9.59196 3.68967 9.56455 3.75586 9.56455 3.82487C9.56455 3.89389 9.59196 3.96008 9.64076 4.00888C9.68957 4.05768 9.75576 4.0851 9.82477 4.0851ZM4.36729 5.46445C4.388 5.46445 4.40852 5.46037 4.42765 5.45245C4.44679 5.44452 4.46418 5.4329 4.47883 5.41825C4.49347 5.4036 4.50509 5.38622 4.51302 5.36708C4.52095 5.34794 4.52503 5.32743 4.52503 5.30672C4.52503 5.286 4.52095 5.26549 4.51302 5.24635C4.50509 5.22721 4.49347 5.20983 4.47883 5.19518C4.46418 5.18053 4.44679 5.16891 4.42765 5.16098C4.40852 5.15306 4.388 5.14898 4.36729 5.14898C4.32546 5.14898 4.28533 5.1656 4.25575 5.19518C4.22617 5.22476 4.20955 5.26488 4.20955 5.30672C4.20955 5.34855 4.22617 5.38867 4.25575 5.41825C4.28533 5.44783 4.32546 5.46445 4.36729 5.46445ZM4.89137 5.31591C4.91634 5.31654 4.94119 5.31217 4.96445 5.30305C4.98771 5.29394 5.00891 5.28025 5.0268 5.26281C5.04469 5.24537 5.0589 5.22453 5.06861 5.20151C5.07832 5.17849 5.08332 5.15376 5.08332 5.12878C5.08332 5.10379 5.07832 5.07906 5.06861 5.05604C5.0589 5.03302 5.04469 5.01218 5.0268 4.99474C5.00891 4.9773 4.98771 4.96362 4.96445 4.9545C4.94119 4.94538 4.91634 4.94101 4.89137 4.94165C4.84231 4.94253 4.79556 4.96263 4.76118 4.99764C4.7268 5.03264 4.70754 5.07974 4.70754 5.12881C4.70754 5.17787 4.7268 5.22497 4.76118 5.25998C4.79556 5.29498 4.84231 5.31503 4.89137 5.31591ZM3.93569 4.72288C3.9686 4.7234 4.00128 4.71736 4.03184 4.70512C4.06239 4.69288 4.09021 4.67468 4.11366 4.65159C4.13712 4.6285 4.15575 4.60097 4.16846 4.57061C4.18117 4.54025 4.18772 4.50767 4.18772 4.47475C4.18772 4.44184 4.18117 4.40925 4.16846 4.37889C4.15575 4.34853 4.13712 4.32101 4.11366 4.29791C4.09021 4.27482 4.06239 4.25663 4.03184 4.24439C4.00128 4.23215 3.9686 4.22611 3.93569 4.22663C3.87055 4.22764 3.80843 4.25423 3.76273 4.30065C3.71702 4.34708 3.69141 4.40961 3.69141 4.47475C3.69141 4.5399 3.71702 4.60243 3.76273 4.64885C3.80843 4.69528 3.87055 4.72186 3.93569 4.72288ZM4.91193 4.61347C4.92915 4.61384 4.94627 4.61077 4.96229 4.60444C4.97831 4.59811 4.9929 4.58864 5.00521 4.57659C5.01752 4.56454 5.02731 4.55016 5.03398 4.53428C5.04066 4.5184 5.0441 4.50135 5.0441 4.48413C5.0441 4.4669 5.04066 4.44985 5.03398 4.43397C5.02731 4.4181 5.01752 4.40371 5.00521 4.39167C4.9929 4.37962 4.97831 4.37015 4.96229 4.36382C4.94627 4.35748 4.92915 4.35441 4.91193 4.35479C4.87811 4.35552 4.84593 4.36947 4.82227 4.39364C4.79861 4.41782 4.78536 4.4503 4.78536 4.48413C4.78536 4.51796 4.79861 4.55044 4.82227 4.57461C4.84593 4.59879 4.87811 4.61274 4.91193 4.61347ZM6.64384 4.41182C6.67555 4.41182 6.70695 4.40558 6.73624 4.39344C6.76554 4.38131 6.79216 4.36352 6.81458 4.3411C6.83701 4.31867 6.85479 4.29205 6.86693 4.26276C6.87906 4.23346 6.88531 4.20206 6.88531 4.17035C6.88531 4.13864 6.87906 4.10724 6.86693 4.07794C6.85479 4.04864 6.83701 4.02202 6.81458 3.9996C6.79216 3.97718 6.76554 3.95939 6.73624 3.94725C6.70695 3.93512 6.67555 3.92887 6.64384 3.92887C6.57979 3.92887 6.51837 3.95431 6.47309 3.9996C6.4278 4.04488 6.40236 4.1063 6.40236 4.17035C6.40236 4.23439 6.4278 4.29581 6.47309 4.3411C6.51837 4.38638 6.57979 4.41182 6.64384 4.41182ZM8.47826 4.5516C8.50592 4.55207 8.53341 4.54703 8.5591 4.53676C8.5848 4.5265 8.60819 4.51123 8.62792 4.49183C8.64765 4.47243 8.66333 4.4493 8.67402 4.42378C8.68472 4.39827 8.69023 4.37087 8.69023 4.34321C8.69023 4.31554 8.68472 4.28814 8.67402 4.26263C8.66333 4.23711 8.64765 4.21398 8.62792 4.19458C8.60819 4.17518 8.5848 4.15991 8.5591 4.14965C8.53341 4.13938 8.50592 4.13434 8.47826 4.13481C8.42387 4.13612 8.37214 4.15865 8.33414 4.19758C8.29613 4.23652 8.27486 4.28877 8.27486 4.34318C8.27486 4.39758 8.29613 4.44983 8.33414 4.48876C8.37214 4.5277 8.42387 4.55029 8.47826 4.5516ZM8.85972 3.25147C8.87763 3.25147 8.89536 3.24795 8.91191 3.24109C8.92846 3.23424 8.94349 3.22419 8.95616 3.21153C8.96882 3.19886 8.97887 3.18383 8.98572 3.16728C8.99258 3.15073 8.99611 3.133 8.99611 3.11509C8.99611 3.09718 8.99258 3.07944 8.98572 3.06289C8.97887 3.04635 8.96882 3.03131 8.95616 3.01865C8.94349 3.00598 8.92846 2.99593 8.91191 2.98908C8.89536 2.98223 8.87763 2.9787 8.85972 2.9787C8.82355 2.9787 8.78886 2.99307 8.76328 3.01865C8.7377 3.04422 8.72333 3.07891 8.72333 3.11509C8.72333 3.15126 8.7377 3.18595 8.76328 3.21153C8.78886 3.2371 8.82355 3.25147 8.85972 3.25147ZM9.30311 4.03659C9.36356 4.03659 9.42152 4.01258 9.46426 3.96984C9.507 3.9271 9.53101 3.86914 9.53101 3.80869C9.53101 3.74825 9.507 3.69029 9.46426 3.64755C9.42152 3.60481 9.36356 3.5808 9.30311 3.5808C9.24267 3.5808 9.1847 3.60481 9.14197 3.64755C9.09923 3.69029 9.07522 3.74825 9.07522 3.80869C9.07522 3.86914 9.09923 3.9271 9.14197 3.96984C9.1847 4.01258 9.24267 4.03659 9.30311 4.03659ZM7.02639 3.90365C7.0885 3.90365 7.14806 3.87898 7.19198 3.83506C7.2359 3.79114 7.26057 3.73157 7.26057 3.66946C7.26057 3.60735 7.2359 3.54779 7.19198 3.50387C7.14806 3.45995 7.0885 3.43528 7.02639 3.43528C6.96428 3.43528 6.90471 3.45995 6.86079 3.50387C6.81687 3.54779 6.7922 3.60735 6.7922 3.66946C6.7922 3.73157 6.81687 3.79114 6.86079 3.83506C6.90471 3.87898 6.96428 3.90365 7.02639 3.90365ZM4.09288 6.15425C4.14328 6.15425 4.19162 6.13423 4.22726 6.09859C4.2629 6.06295 4.28292 6.01462 4.28292 5.96422C4.28292 5.91382 4.2629 5.86548 4.22726 5.82984C4.19162 5.7942 4.14328 5.77418 4.09288 5.77418C4.04248 5.77418 3.99415 5.7942 3.95851 5.82984C3.92287 5.86548 3.90285 5.91382 3.90285 5.96422C3.90285 6.01462 3.92287 6.06295 3.95851 6.09859C3.99415 6.13423 4.04248 6.15425 4.09288 6.15425Z" fill="#AFDAD2" stroke="white" stroke-width="0.147661"/>
<path d="M10.352 4.13481C10.4288 4.13481 10.5024 4.10432 10.5567 4.05005C10.611 3.99577 10.6414 3.92216 10.6414 3.8454C10.6414 3.76865 10.611 3.69504 10.5567 3.64076C10.5024 3.58649 10.4288 3.556 10.352 3.556C10.2753 3.556 10.2017 3.58649 10.1474 3.64076C10.0931 3.69504 10.0626 3.76865 10.0626 3.8454C10.0626 3.92216 10.0931 3.99577 10.1474 4.05005C10.2017 4.10432 10.2753 4.13481 10.352 4.13481ZM7.55952 3.93879C7.5944 3.93879 7.62894 3.93192 7.66117 3.91857C7.6934 3.90522 7.72268 3.88565 7.74735 3.86099C7.77202 3.83632 7.79158 3.80703 7.80493 3.77481C7.81828 3.74258 7.82515 3.70804 7.82515 3.67315C7.82515 3.63827 7.81828 3.60372 7.80493 3.5715C7.79158 3.53927 7.77202 3.50998 7.74735 3.48532C7.72268 3.46065 7.6934 3.44108 7.66117 3.42773C7.62894 3.41438 7.5944 3.40751 7.55952 3.40751C7.48906 3.40751 7.4215 3.4355 7.37168 3.48532C7.32186 3.53513 7.29388 3.6027 7.29388 3.67315C7.29388 3.7436 7.32186 3.81117 7.37168 3.86099C7.4215 3.9108 7.48906 3.93879 7.55952 3.93879ZM4.47317 4.1529C4.53849 4.1529 4.60114 4.12695 4.64732 4.08076C4.69351 4.03457 4.71946 3.97193 4.71946 3.90661C4.71946 3.84129 4.69351 3.77865 4.64732 3.73246C4.60114 3.68628 4.53849 3.66033 4.47317 3.66033C4.40786 3.66033 4.34521 3.68628 4.29903 3.73246C4.25284 3.77865 4.22689 3.84129 4.22689 3.90661C4.22689 3.97193 4.25284 4.03457 4.29903 4.08076C4.34521 4.12695 4.40786 4.1529 4.47317 4.1529ZM5.84382 3.51705C5.91934 3.51705 5.99177 3.48705 6.04517 3.43365C6.09857 3.38024 6.12857 3.30782 6.12857 3.2323C6.12857 3.15678 6.09857 3.08435 6.04517 3.03095C5.99177 2.97755 5.91934 2.94755 5.84382 2.94755C5.7683 2.94755 5.69587 2.97755 5.64247 3.03095C5.58907 3.08435 5.55907 3.15678 5.55907 3.2323C5.55907 3.30782 5.58907 3.38024 5.64247 3.43365C5.69587 3.48705 5.7683 3.51705 5.84382 3.51705ZM11.1859 3.9005C11.2325 3.9005 11.2773 3.88197 11.3103 3.84899C11.3433 3.816 11.3618 3.77127 11.3618 3.72462C11.3618 3.67797 11.3433 3.63324 11.3103 3.60025C11.2773 3.56727 11.2325 3.54874 11.1859 3.54874C11.1393 3.54874 11.0945 3.56727 11.0615 3.60025C11.0285 3.63324 11.01 3.67797 11.01 3.72462C11.01 3.77127 11.0285 3.816 11.0615 3.84899C11.0945 3.88197 11.1393 3.9005 11.1859 3.9005ZM5.05967 3.18228C5.08936 3.18277 5.11886 3.17734 5.14643 3.16631C5.17401 3.15529 5.19911 3.13889 5.22028 3.11806C5.24145 3.09723 5.25827 3.0724 5.26974 3.04501C5.28122 3.01762 5.28713 2.98822 5.28713 2.95852C5.28713 2.92883 5.28122 2.89943 5.26974 2.87204C5.25827 2.84465 5.24145 2.81982 5.22028 2.79899C5.19911 2.77816 5.17401 2.76176 5.14643 2.75074C5.11886 2.73971 5.08936 2.73428 5.05967 2.73477C5.00096 2.73574 4.94499 2.75974 4.90381 2.80159C4.86264 2.84345 4.83956 2.89981 4.83956 2.95852C4.83956 3.01724 4.86264 3.0736 4.90381 3.11546C4.94499 3.15731 5.00096 3.18131 5.05967 3.18228ZM6.06857 4.18429C6.11907 4.18429 6.1675 4.16423 6.2032 4.12852C6.23891 4.09281 6.25897 4.04438 6.25897 3.99389C6.25897 3.94339 6.23891 3.89496 6.2032 3.85926C6.1675 3.82355 6.11907 3.80349 6.06857 3.80349C6.01807 3.80349 5.96963 3.82355 5.93392 3.85927C5.89821 3.89498 5.87814 3.94341 5.87814 3.99392C5.87814 4.04442 5.89821 4.09286 5.93392 4.12857C5.96963 4.16428 6.01807 4.18429 6.06857 4.18429ZM6.52467 3.77107C6.55036 3.77153 6.57588 3.76686 6.59975 3.75734C6.62362 3.74782 6.64536 3.73364 6.66369 3.71564C6.68202 3.69763 6.69657 3.67615 6.70651 3.65245C6.71645 3.62875 6.72157 3.60332 6.72157 3.57762C6.72157 3.55192 6.71645 3.52648 6.70651 3.50279C6.69657 3.47909 6.68202 3.45761 6.66369 3.4396C6.64536 3.42159 6.62362 3.40742 6.59975 3.3979C6.57588 3.38838 6.55036 3.38371 6.52467 3.38417C6.47395 3.38506 6.42562 3.40584 6.39007 3.44202C6.35452 3.4782 6.33461 3.5269 6.33461 3.57762C6.33461 3.62834 6.35452 3.67704 6.39007 3.71322C6.42562 3.7494 6.47395 3.77017 6.52467 3.77107ZM3.53703 4.26249C3.58868 4.26249 3.63822 4.24197 3.67474 4.20545C3.71127 4.16892 3.73179 4.11939 3.73179 4.06774C3.73179 4.01608 3.71127 3.96655 3.67474 3.93003C3.63822 3.8935 3.58868 3.87298 3.53703 3.87298C3.48538 3.87298 3.43585 3.8935 3.39932 3.93003C3.3628 3.96655 3.34228 4.01608 3.34228 4.06774C3.34228 4.11939 3.3628 4.16892 3.39932 4.20545C3.43585 4.24197 3.48538 4.26249 3.53703 4.26249ZM4.07339 3.50519C4.12077 3.50519 4.16622 3.48637 4.19972 3.45286C4.23323 3.41936 4.25205 3.37391 4.25205 3.32653C4.25205 3.27914 4.23323 3.2337 4.19972 3.20019C4.16622 3.16669 4.12077 3.14786 4.07339 3.14786C4.026 3.14786 3.98056 3.16669 3.94705 3.20019C3.91355 3.2337 3.89472 3.27914 3.89472 3.32653C3.89472 3.37391 3.91355 3.41936 3.94705 3.45286C3.98056 3.48637 4.026 3.50519 4.07339 3.50519ZM8.19548 4.05987C8.2352 4.05987 8.27329 4.0441 8.30138 4.01601C8.32946 3.98793 8.34524 3.94984 8.34524 3.91012C8.34524 3.8704 8.32946 3.83231 8.30138 3.80423C8.27329 3.77614 8.2352 3.76037 8.19548 3.76037C8.15577 3.76037 8.11768 3.77614 8.08959 3.80423C8.06151 3.83231 8.04573 3.8704 8.04573 3.91012C8.04573 3.94984 8.06151 3.98793 8.08959 4.01601C8.11768 4.0441 8.15577 4.05987 8.19548 4.05987ZM3.39962 5.24841C3.46526 5.24841 3.52822 5.22233 3.57464 5.17591C3.62106 5.12949 3.64714 5.06653 3.64714 5.00088C3.64714 4.93524 3.62106 4.87228 3.57464 4.82586C3.52822 4.77944 3.46526 4.75336 3.39962 4.75336C3.33397 4.75336 3.27101 4.77944 3.22459 4.82586C3.17817 4.87228 3.15209 4.93524 3.15209 5.00088C3.15209 5.06653 3.17817 5.12949 3.22459 5.17591C3.27101 5.22233 3.33397 5.24841 3.39962 5.24841ZM2.84681 4.83108C2.87153 4.83153 2.89609 4.82704 2.91905 4.81789C2.94202 4.80874 2.96293 4.79511 2.98057 4.77778C2.99821 4.76046 3.01222 4.7398 3.02178 4.717C3.03134 4.6942 3.03627 4.66973 3.03627 4.64501C3.03627 4.62029 3.03134 4.59581 3.02178 4.57301C3.01222 4.55022 2.99821 4.52955 2.98057 4.51223C2.96293 4.49491 2.94202 4.48127 2.91905 4.47212C2.89609 4.46297 2.87153 4.45849 2.84681 4.45893C2.79804 4.45981 2.75157 4.4798 2.71739 4.5146C2.68321 4.5494 2.66406 4.59623 2.66406 4.64501C2.66406 4.69378 2.68321 4.74061 2.71739 4.77541C2.75157 4.81021 2.79804 4.8302 2.84681 4.83108ZM8.70626 4.01639C8.7559 4.01639 8.80352 3.99666 8.83862 3.96156C8.87373 3.92645 8.89345 3.87884 8.89345 3.82919C8.89345 3.77955 8.87373 3.73194 8.83862 3.69683C8.80352 3.66172 8.7559 3.642 8.70626 3.642C8.65661 3.642 8.609 3.66172 8.57389 3.69683C8.53879 3.73194 8.51906 3.77955 8.51906 3.82919C8.51906 3.87884 8.53879 3.92645 8.57389 3.96156C8.609 3.99666 8.65661 4.01639 8.70626 4.01639ZM4.45104 4.98827C4.52757 4.98827 4.60097 4.95787 4.65508 4.90376C4.7092 4.84964 4.7396 4.77624 4.7396 4.69971C4.7396 4.62318 4.7092 4.54979 4.65508 4.49567C4.60097 4.44156 4.52757 4.41115 4.45104 4.41115C4.37451 4.41115 4.30111 4.44156 4.247 4.49567C4.19288 4.54979 4.16248 4.62318 4.16248 4.69971C4.16248 4.77624 4.19288 4.84964 4.247 4.90376C4.30111 4.95787 4.37451 4.98827 4.45104 4.98827Z" fill="#AFDAD2" stroke="white" stroke-width="0.147661"/>
<path d="M10.8071 3.67636C10.8454 3.67691 10.8835 3.66984 10.9191 3.65555C10.9546 3.64126 10.987 3.62005 11.0143 3.59313C11.0416 3.56622 11.0633 3.53414 11.0781 3.49877C11.0929 3.4634 11.1005 3.42544 11.1005 3.3871C11.1005 3.34876 11.0929 3.3108 11.0781 3.27543C11.0633 3.24006 11.0416 3.20799 11.0143 3.18107C10.987 3.15416 10.9546 3.13294 10.9191 3.11865C10.8835 3.10436 10.8454 3.09729 10.8071 3.09785C10.7311 3.09894 10.6586 3.1299 10.6052 3.18403C10.5519 3.23816 10.522 3.3111 10.522 3.3871C10.522 3.4631 10.5519 3.53605 10.6052 3.59017C10.6586 3.6443 10.7311 3.67526 10.8071 3.67636ZM3.55266 6.40198C3.59719 6.40198 3.6399 6.38429 3.67139 6.35281C3.70287 6.32132 3.72056 6.27861 3.72056 6.23408C3.72056 6.18955 3.70287 6.14685 3.67139 6.11536C3.6399 6.08388 3.59719 6.06619 3.55266 6.06619C3.50813 6.06619 3.46543 6.08388 3.43394 6.11536C3.40245 6.14685 3.38477 6.18955 3.38477 6.23408C3.38477 6.27861 3.40245 6.32132 3.43394 6.35281C3.46543 6.38429 3.50813 6.40198 3.55266 6.40198ZM7.74649 3.12706C7.77712 3.12755 7.80754 3.12195 7.83598 3.11057C7.86442 3.09919 7.89031 3.08227 7.91214 3.06079C7.93398 3.0393 7.95132 3.01369 7.96316 2.98544C7.97499 2.95719 7.98109 2.92686 7.98109 2.89623C7.98109 2.8656 7.97499 2.83527 7.96316 2.80702C7.95132 2.77877 7.93398 2.75315 7.91214 2.73167C7.89031 2.71019 7.86442 2.69326 7.83598 2.68189C7.80754 2.67051 7.77712 2.6649 7.74649 2.6654C7.68592 2.66638 7.62816 2.69113 7.58567 2.73431C7.54318 2.77749 7.51937 2.83565 7.51937 2.89623C7.51937 2.95681 7.54318 3.01496 7.58567 3.05814C7.62816 3.10133 7.68592 3.12608 7.74649 3.12706ZM12.5424 3.44495C12.6049 3.44495 12.6649 3.42011 12.7091 3.37588C12.7533 3.33166 12.7782 3.27168 12.7782 3.20913C12.7782 3.14659 12.7533 3.08661 12.7091 3.04238C12.6649 2.99816 12.6049 2.97331 12.5424 2.97331C12.4798 2.97331 12.4198 2.99816 12.3756 3.04238C12.3314 3.08661 12.3065 3.14659 12.3065 3.20913C12.3065 3.27168 12.3314 3.33166 12.3756 3.37588C12.4198 3.42011 12.4798 3.44495 12.5424 3.44495ZM9.40552 3.32484C9.45532 3.32484 9.50309 3.30505 9.53831 3.26983C9.57353 3.23461 9.59331 3.18684 9.59331 3.13704C9.59331 3.08723 9.57353 3.03946 9.53831 3.00425C9.50309 2.96903 9.45532 2.94924 9.40552 2.94924C9.35571 2.94924 9.30794 2.96903 9.27272 3.00425C9.2375 3.03946 9.21772 3.08723 9.21772 3.13704C9.21772 3.18684 9.2375 3.23461 9.27272 3.26983C9.30794 3.30505 9.35571 3.32484 9.40552 3.32484ZM5.31215 5.80176C5.37707 5.80176 5.43932 5.77597 5.48523 5.73007C5.53113 5.68416 5.55692 5.6219 5.55692 5.55699C5.55692 5.49207 5.53113 5.42981 5.48523 5.38391C5.43932 5.338 5.37707 5.31222 5.31215 5.31222C5.24723 5.31222 5.18497 5.338 5.13907 5.38391C5.09317 5.42981 5.06738 5.49207 5.06738 5.55699C5.06738 5.6219 5.09317 5.68416 5.13907 5.73007C5.18497 5.77597 5.24723 5.80176 5.31215 5.80176ZM10.0423 3.40564C10.1045 3.40564 10.1641 3.38095 10.2081 3.33699C10.252 3.29304 10.2767 3.23343 10.2767 3.17127C10.2767 3.10911 10.252 3.0495 10.2081 3.00555C10.1641 2.9616 10.1045 2.9369 10.0423 2.9369C9.98017 2.9369 9.92056 2.9616 9.87661 3.00555C9.83266 3.0495 9.80796 3.10911 9.80796 3.17127C9.80796 3.23343 9.83266 3.29304 9.87661 3.33699C9.92056 3.38095 9.98017 3.40564 10.0423 3.40564ZM11.7018 3.63408C11.7534 3.63408 11.8028 3.61362 11.8392 3.57719C11.8756 3.54076 11.8961 3.49136 11.8961 3.43984C11.8961 3.38833 11.8756 3.33892 11.8392 3.30249C11.8028 3.26607 11.7534 3.2456 11.7018 3.2456C11.6503 3.2456 11.6009 3.26607 11.5645 3.30249C11.5281 3.33892 11.5076 3.38833 11.5076 3.43984C11.5076 3.49136 11.5281 3.54076 11.5645 3.57719C11.6009 3.61362 11.6503 3.63408 11.7018 3.63408ZM13.5353 4.05504C13.5817 4.05504 13.6263 4.03659 13.6591 4.00375C13.6919 3.97091 13.7104 3.92638 13.7104 3.87994C13.7104 3.8335 13.6919 3.78897 13.6591 3.75613C13.6263 3.72329 13.5817 3.70484 13.5353 3.70484C13.4889 3.70484 13.4443 3.72329 13.4115 3.75613C13.3786 3.78897 13.3602 3.8335 13.3602 3.87994C13.3602 3.92638 13.3786 3.97091 13.4115 4.00375C13.4443 4.03659 13.4889 4.05504 13.5353 4.05504ZM6.98412 2.76864C7.02414 2.76864 7.06252 2.75274 7.09082 2.72444C7.11912 2.69614 7.13502 2.65776 7.13502 2.61774C7.13502 2.57772 7.11912 2.53933 7.09082 2.51103C7.06252 2.48273 7.02414 2.46684 6.98412 2.46684C6.94409 2.46684 6.90571 2.48273 6.87741 2.51103C6.84911 2.53933 6.83321 2.57772 6.83321 2.61774C6.83321 2.65776 6.84911 2.69614 6.87741 2.72444C6.90571 2.75274 6.94409 2.76864 6.98412 2.76864ZM8.35603 2.35446C8.41462 2.35446 8.47081 2.33119 8.51224 2.28976C8.55367 2.24833 8.57694 2.19214 8.57694 2.13355C8.57694 2.07496 8.55367 2.01877 8.51224 1.97734C8.47081 1.93591 8.41462 1.91264 8.35603 1.91264C8.29744 1.91264 8.24125 1.93591 8.19982 1.97734C8.15839 2.01877 8.13512 2.07496 8.13512 2.13355C8.13512 2.19214 8.15839 2.24833 8.19982 2.28976C8.24125 2.33119 8.29744 2.35446 8.35603 2.35446ZM13.4962 3.53858C13.5734 3.53858 13.6474 3.50792 13.702 3.45334C13.7566 3.39875 13.7873 3.32473 13.7873 3.24754C13.7873 3.17035 13.7566 3.09632 13.702 3.04174C13.6474 2.98716 13.5734 2.9565 13.4962 2.9565C13.419 2.9565 13.345 2.98716 13.2904 3.04174C13.2358 3.09632 13.2052 3.17035 13.2052 3.24754C13.2052 3.32473 13.2358 3.39875 13.2904 3.45334C13.345 3.50792 13.419 3.53858 13.4962 3.53858ZM8.02271 3.65749C8.09566 3.65749 8.16562 3.62851 8.2172 3.57693C8.26878 3.52535 8.29776 3.45539 8.29776 3.38244C8.29776 3.3095 8.26878 3.23954 8.2172 3.18796C8.16562 3.13638 8.09566 3.1074 8.02271 3.1074C7.94977 3.1074 7.87981 3.13638 7.82823 3.18796C7.77665 3.23954 7.74767 3.3095 7.74767 3.38244C7.74767 3.45539 7.77665 3.52535 7.82823 3.57693C7.87981 3.62851 7.94977 3.65749 8.02271 3.65749ZM9.0402 2.62687C9.11297 2.62687 9.18276 2.59796 9.23422 2.54651C9.28567 2.49505 9.31458 2.42526 9.31458 2.35249C9.31458 2.27973 9.28567 2.20994 9.23422 2.15848C9.18276 2.10703 9.11297 2.07812 9.0402 2.07812C8.96744 2.07812 8.89766 2.10702 8.84621 2.15847C8.79476 2.20992 8.76586 2.2797 8.76586 2.35246C8.76586 2.42523 8.79476 2.49501 8.84621 2.54646C8.89766 2.59791 8.96744 2.62687 9.0402 2.62687ZM11.4185 2.96104C11.4562 2.96158 11.4936 2.95464 11.5286 2.9406C11.5636 2.92656 11.5954 2.90571 11.6222 2.87927C11.6491 2.85282 11.6704 2.8213 11.6849 2.78654C11.6995 2.75178 11.707 2.71448 11.707 2.6768C11.707 2.63912 11.6995 2.60182 11.6849 2.56706C11.6704 2.5323 11.6491 2.50078 11.6222 2.47433C11.5954 2.44788 11.5636 2.42704 11.5286 2.413C11.4936 2.39896 11.4562 2.39201 11.4185 2.39256C11.3439 2.39365 11.2726 2.42408 11.2202 2.47726C11.1678 2.53045 11.1384 2.60213 11.1384 2.6768C11.1384 2.75147 11.1678 2.82315 11.2202 2.87633C11.2726 2.92952 11.3439 2.95995 11.4185 2.96104ZM14.3609 4.74774C14.3968 4.7485 14.4324 4.7421 14.4657 4.72892C14.499 4.71573 14.5293 4.69604 14.5549 4.67097C14.5805 4.64591 14.6009 4.61599 14.6147 4.58297C14.6286 4.54994 14.6358 4.51448 14.6358 4.47865C14.6358 4.44283 14.6286 4.40736 14.6147 4.37434C14.6009 4.34131 14.5805 4.31139 14.5549 4.28633C14.5293 4.26127 14.499 4.24157 14.4657 4.22839C14.4324 4.21521 14.3968 4.20881 14.3609 4.20957C14.2906 4.21106 14.2236 4.24006 14.1743 4.29037C14.1251 4.34067 14.0975 4.40826 14.0975 4.47865C14.0975 4.54905 14.1251 4.61664 14.1743 4.66694C14.2236 4.71724 14.2906 4.74624 14.3609 4.74774ZM8.29392 1.49017C8.31409 1.49017 8.33407 1.4862 8.35271 1.47848C8.37134 1.47076 8.38828 1.45944 8.40254 1.44518C8.41681 1.43091 8.42813 1.41397 8.43585 1.39534C8.44357 1.3767 8.44754 1.35672 8.44754 1.33655C8.44754 1.31637 8.44357 1.2964 8.43585 1.27776C8.42813 1.25912 8.41681 1.24218 8.40254 1.22792C8.38828 1.21365 8.37134 1.20234 8.35271 1.19462C8.33407 1.1869 8.31409 1.18292 8.29392 1.18292C8.25317 1.18292 8.2141 1.19911 8.18529 1.22792C8.15648 1.25673 8.14029 1.2958 8.14029 1.33655C8.14029 1.37729 8.15648 1.41637 8.18529 1.44518C8.2141 1.47399 8.25317 1.49017 8.29392 1.49017Z" fill="#AFDAD2" stroke="white" stroke-width="0.147661"/>
<path d="M10.7485 3.12102C10.8169 3.12102 10.8826 3.09383 10.931 3.04545C10.9793 2.99706 11.0065 2.93143 11.0065 2.863C11.0065 2.79457 10.9793 2.72894 10.931 2.68056C10.8826 2.63217 10.8169 2.60498 10.7485 2.60498C10.6808 2.60602 10.6162 2.63366 10.5686 2.68193C10.5211 2.7302 10.4944 2.79523 10.4944 2.86297C10.4944 2.93072 10.5211 2.99575 10.5686 3.04401C10.6162 3.09228 10.6808 3.11998 10.7485 3.12102ZM10.4033 2.62543C10.4307 2.62543 10.4578 2.62004 10.483 2.60958C10.5083 2.59911 10.5313 2.58377 10.5506 2.56444C10.5699 2.5451 10.5853 2.52214 10.5957 2.49688C10.6062 2.47161 10.6116 2.44453 10.6116 2.41719C10.6116 2.38984 10.6062 2.36276 10.5957 2.3375C10.5853 2.31223 10.5699 2.28928 10.5506 2.26994C10.5313 2.2506 10.5083 2.23526 10.483 2.2248C10.4578 2.21433 10.4307 2.20895 10.4033 2.20895C10.3481 2.20895 10.2951 2.23089 10.2561 2.26994C10.217 2.30899 10.1951 2.36196 10.1951 2.41719C10.1951 2.47242 10.217 2.52538 10.2561 2.56444C10.2951 2.60349 10.3481 2.62543 10.4033 2.62543ZM9.35688 2.17205C9.39197 2.17205 9.42671 2.16514 9.45913 2.15171C9.49155 2.13829 9.52101 2.1186 9.54582 2.09379C9.57064 2.06898 9.59032 2.03952 9.60375 2.0071C9.61718 1.97468 9.62409 1.93993 9.62409 1.90484C9.62409 1.86975 9.61718 1.83501 9.60375 1.80259C9.59032 1.77017 9.57064 1.74071 9.54582 1.7159C9.52101 1.69109 9.49155 1.6714 9.45913 1.65797C9.42671 1.64455 9.39197 1.63763 9.35688 1.63763C9.28601 1.63763 9.21804 1.66579 9.16793 1.7159C9.11782 1.76601 9.08967 1.83398 9.08967 1.90484C9.08967 1.97571 9.11782 2.04368 9.16793 2.09379C9.21804 2.1439 9.28601 2.17205 9.35688 2.17205ZM6.40952 3.26164C6.44886 3.26164 6.4878 3.25389 6.52414 3.23884C6.56048 3.22379 6.5935 3.20173 6.62131 3.17392C6.64912 3.1461 6.67118 3.11309 6.68623 3.07675C6.70129 3.04041 6.70903 3.00146 6.70903 2.96213C6.70903 2.9228 6.70129 2.88385 6.68623 2.84752C6.67118 2.81118 6.64912 2.77816 6.62131 2.75035C6.5935 2.72254 6.56048 2.70047 6.52414 2.68542C6.4878 2.67037 6.44886 2.66262 6.40952 2.66262C6.33009 2.66262 6.25391 2.69418 6.19774 2.75035C6.14157 2.80652 6.11002 2.8827 6.11002 2.96213C6.11002 3.04157 6.14157 3.11775 6.19774 3.17392C6.25391 3.23008 6.33009 3.26164 6.40952 3.26164ZM4.56162 2.8206C4.5833 2.82102 4.60484 2.81711 4.625 2.8091C4.64515 2.80109 4.6635 2.78915 4.67898 2.77396C4.69446 2.75878 4.70676 2.74066 4.71516 2.72066C4.72355 2.70067 4.72788 2.6792 4.72788 2.65751C4.72788 2.63583 4.72355 2.61436 4.71516 2.59437C4.70676 2.57437 4.69446 2.55625 4.67898 2.54107C4.6635 2.52588 4.64515 2.51393 4.625 2.50592C4.60484 2.49792 4.5833 2.49401 4.56162 2.49442C4.51891 2.49525 4.47822 2.51279 4.44831 2.54329C4.41839 2.57378 4.40164 2.6148 4.40164 2.65751C4.40164 2.70023 4.41839 2.74125 4.44831 2.77174C4.47822 2.80224 4.51891 2.81978 4.56162 2.8206ZM5.33706 2.71125C5.39314 2.71125 5.44693 2.68897 5.48659 2.64931C5.52625 2.60965 5.54853 2.55586 5.54853 2.49978C5.54853 2.44369 5.52625 2.3899 5.48659 2.35024C5.44693 2.31058 5.39314 2.2883 5.33706 2.2883C5.28097 2.2883 5.22718 2.31058 5.18752 2.35024C5.14786 2.3899 5.12558 2.44369 5.12558 2.49978C5.12558 2.55586 5.14786 2.60965 5.18752 2.64931C5.22718 2.68897 5.28097 2.71125 5.33706 2.71125ZM12.4416 3.99226C12.4762 3.99279 12.5105 3.98644 12.5426 3.97357C12.5747 3.96071 12.6039 3.9416 12.6285 3.91734C12.6532 3.89309 12.6727 3.86417 12.6861 3.83229C12.6994 3.8004 12.7063 3.76618 12.7063 3.73161C12.7063 3.69705 12.6994 3.66283 12.6861 3.63094C12.6727 3.59906 12.6532 3.57015 12.6285 3.54589C12.6039 3.52163 12.5747 3.50252 12.5426 3.48966C12.5105 3.47679 12.4762 3.47044 12.4416 3.47097C12.3725 3.47097 12.3062 3.49843 12.2573 3.54732C12.2084 3.5962 12.181 3.66251 12.181 3.73165C12.181 3.80078 12.2084 3.86709 12.2573 3.91597C12.3062 3.96486 12.3725 3.99226 12.4416 3.99226ZM9.58217 2.61841C9.62056 2.61841 9.65737 2.60316 9.68452 2.57602C9.71166 2.54888 9.72691 2.51206 9.72691 2.47368C9.72691 2.43529 9.71166 2.39848 9.68452 2.37134C9.65737 2.34419 9.62056 2.32894 9.58217 2.32894C9.54379 2.32894 9.50697 2.34419 9.47983 2.37134C9.45269 2.39848 9.43744 2.43529 9.43744 2.47368C9.43744 2.51206 9.45269 2.54888 9.47983 2.57602C9.50697 2.60316 9.54379 2.61841 9.58217 2.61841ZM6.50884 2.64756C6.58165 2.64756 6.65147 2.61864 6.70296 2.56716C6.75444 2.51567 6.78336 2.44585 6.78336 2.37304C6.78336 2.30023 6.75444 2.2304 6.70296 2.17892C6.65147 2.12743 6.58165 2.09851 6.50884 2.09851C6.43603 2.09851 6.3662 2.12743 6.31472 2.17892C6.26323 2.2304 6.23431 2.30023 6.23431 2.37304C6.23431 2.44585 6.26323 2.51567 6.31472 2.56716C6.3662 2.61864 6.43603 2.64756 6.50884 2.64756ZM2.48085 6.01255C2.51219 6.01255 2.54323 6.00637 2.57218 5.99438C2.60114 5.98239 2.62745 5.9648 2.64961 5.94264C2.67177 5.92048 2.68935 5.89417 2.70135 5.86522C2.71334 5.83626 2.71951 5.80523 2.71951 5.77388C2.71951 5.74254 2.71334 5.71151 2.70135 5.68255C2.68935 5.6536 2.67177 5.62729 2.64961 5.60512C2.62745 5.58296 2.60114 5.56538 2.57218 5.55339C2.54323 5.54139 2.51219 5.53522 2.48085 5.53522C2.41755 5.53522 2.35685 5.56037 2.31209 5.60512C2.26733 5.64988 2.24219 5.71059 2.24219 5.77388C2.24219 5.83718 2.26733 5.89789 2.31209 5.94264C2.35685 5.9874 2.41755 6.01255 2.48085 6.01255ZM3.11664 6.09492C3.19018 6.09492 3.26072 6.06571 3.31273 6.0137C3.36473 5.96169 3.39395 5.89116 3.39395 5.81761C3.39395 5.74406 3.36473 5.67353 3.31273 5.62152C3.26072 5.56952 3.19018 5.5403 3.11664 5.5403C3.04309 5.5403 2.97256 5.56952 2.92055 5.62152C2.86854 5.67353 2.83933 5.74406 2.83933 5.81761C2.83933 5.89116 2.86854 5.96169 2.92055 6.0137C2.97256 6.06571 3.04309 6.09492 3.11664 6.09492ZM5.35744 3.65024C5.39248 3.65024 5.42718 3.64333 5.45956 3.62992C5.49193 3.61651 5.52135 3.59686 5.54613 3.57208C5.57091 3.5473 5.59056 3.51788 5.60397 3.48551C5.61738 3.45313 5.62429 3.41843 5.62429 3.38339C5.62429 3.34835 5.61738 3.31365 5.60397 3.28127C5.59056 3.2489 5.57091 3.21948 5.54613 3.1947C5.52135 3.16992 5.49193 3.15027 5.45956 3.13685C5.42718 3.12344 5.39248 3.11654 5.35744 3.11654C5.28666 3.11654 5.21878 3.14466 5.16873 3.19471C5.11868 3.24476 5.09056 3.31264 5.09056 3.38342C5.09056 3.4542 5.11868 3.52208 5.16873 3.57213C5.21878 3.62218 5.28666 3.65024 5.35744 3.65024ZM2.5593 5.41849C2.61415 5.41849 2.66677 5.3967 2.70556 5.35791C2.74435 5.31911 2.76614 5.2665 2.76614 5.21164C2.76614 5.15678 2.74435 5.10417 2.70556 5.06538C2.66677 5.02659 2.61415 5.00479 2.5593 5.00479C2.50444 5.00479 2.45182 5.02659 2.41303 5.06538C2.37424 5.10417 2.35245 5.15678 2.35245 5.21164C2.35245 5.2665 2.37424 5.31911 2.41303 5.35791C2.45182 5.3967 2.50444 5.41849 2.5593 5.41849ZM10.8992 2.41598C10.9593 2.41598 11.0168 2.39213 11.0593 2.34968C11.1017 2.30723 11.1256 2.24966 11.1256 2.18962C11.1256 2.12959 11.1017 2.07202 11.0593 2.02957C11.0168 1.98712 10.9593 1.96327 10.8992 1.96327C10.8392 1.96327 10.7816 1.98712 10.7392 2.02957C10.6967 2.07202 10.6729 2.12959 10.6729 2.18962C10.6729 2.24966 10.6967 2.30723 10.7392 2.34968C10.7816 2.39213 10.8392 2.41598 10.8992 2.41598ZM4.59821 3.36639C4.65283 3.36639 4.70522 3.34469 4.74385 3.30607C4.78248 3.26744 4.80418 3.21505 4.80418 3.16042C4.80418 3.1058 4.78248 3.05341 4.74385 3.01478C4.70522 2.97615 4.65283 2.95445 4.59821 2.95445C4.54359 2.95445 4.49121 2.97615 4.45258 3.01477C4.41396 3.05339 4.39227 3.10577 4.39227 3.16039C4.39227 3.21501 4.41396 3.26739 4.45258 3.30601C4.49121 3.34464 4.54359 3.36639 4.59821 3.36639Z" fill="#AFDAD2" stroke="white" stroke-width="0.147661"/>
<path d="M3.59848 5.84729C3.67509 5.84729 3.74857 5.81685 3.80274 5.76268C3.85691 5.70851 3.88734 5.63504 3.88734 5.55842C3.88734 5.48181 3.85691 5.40834 3.80274 5.35417C3.74857 5.3 3.67509 5.26956 3.59848 5.26956C3.52187 5.26956 3.4484 5.3 3.39422 5.35417C3.34005 5.40834 3.30962 5.48181 3.30962 5.55842C3.30962 5.63504 3.34005 5.70851 3.39422 5.76268C3.4484 5.81685 3.52187 5.84729 3.59848 5.84729ZM12.9889 3.8815C13.0264 3.88205 13.0636 3.87513 13.0985 3.86115C13.1333 3.84718 13.165 3.82642 13.1917 3.80008C13.2184 3.77374 13.2396 3.74236 13.2541 3.70775C13.2686 3.67314 13.2761 3.63599 13.2761 3.59847C13.2761 3.56095 13.2686 3.52381 13.2541 3.4892C13.2396 3.45458 13.2184 3.4232 13.1917 3.39686C13.165 3.37053 13.1333 3.34977 13.0985 3.33579C13.0636 3.32181 13.0264 3.3149 12.9889 3.31545C12.9138 3.31545 12.8418 3.34527 12.7887 3.39835C12.7356 3.45143 12.7058 3.52343 12.7058 3.5985C12.7058 3.67357 12.7356 3.74557 12.7887 3.79865C12.8418 3.85174 12.9138 3.8815 12.9889 3.8815ZM14.0093 3.84781C14.0351 3.84826 14.0608 3.84357 14.0848 3.83399C14.1088 3.82441 14.1307 3.81014 14.1491 3.79202C14.1676 3.7739 14.1822 3.75229 14.1922 3.72844C14.2022 3.7046 14.2074 3.679 14.2074 3.65315C14.2074 3.62729 14.2022 3.60169 14.1922 3.57785C14.1822 3.55401 14.1676 3.53239 14.1491 3.51427C14.1307 3.49615 14.1088 3.48188 14.0848 3.47231C14.0608 3.46273 14.0351 3.45803 14.0093 3.45849C13.9582 3.45939 13.9096 3.48029 13.8738 3.5167C13.838 3.55311 13.818 3.60211 13.818 3.65315C13.818 3.70419 13.838 3.75319 13.8738 3.7896C13.9096 3.82601 13.9582 3.84691 14.0093 3.84781ZM7.27966 3.36601C7.33717 3.36601 7.39232 3.34316 7.43298 3.3025C7.47365 3.26184 7.49649 3.20669 7.49649 3.14918C7.49649 3.09167 7.47365 3.03652 7.43298 2.99586C7.39232 2.9552 7.33717 2.93235 7.27966 2.93235C7.22216 2.93235 7.16701 2.9552 7.12634 2.99586C7.08568 3.03652 7.06283 3.09167 7.06283 3.14918C7.06283 3.20669 7.08568 3.26184 7.12634 3.3025C7.16701 3.34316 7.22216 3.36601 7.27966 3.36601ZM12.0392 3.12227C12.0633 3.12271 12.0873 3.11833 12.1097 3.10941C12.1321 3.10048 12.1525 3.08717 12.1697 3.07027C12.187 3.05336 12.2006 3.03319 12.21 3.01094C12.2193 2.98869 12.2241 2.9648 12.2241 2.94067C12.2241 2.91654 12.2193 2.89265 12.21 2.8704C12.2006 2.84815 12.187 2.82798 12.1697 2.81107C12.1525 2.79417 12.1321 2.78086 12.1097 2.77193C12.0873 2.763 12.0633 2.75863 12.0392 2.75907C11.9916 2.75994 11.9462 2.77945 11.9129 2.81342C11.8796 2.84738 11.8609 2.89307 11.8609 2.94067C11.8609 2.98827 11.8796 3.03396 11.9129 3.06792C11.9462 3.10188 11.9916 3.1214 12.0392 3.12227ZM11.9612 2.66726C12.0397 2.66726 12.115 2.63605 12.1706 2.58051C12.2261 2.52497 12.2573 2.44963 12.2573 2.37108C12.2573 2.29253 12.2261 2.21719 12.1706 2.16165C12.115 2.1061 12.0397 2.0749 11.9612 2.0749C11.8826 2.0749 11.8073 2.1061 11.7517 2.16165C11.6962 2.21719 11.665 2.29253 11.665 2.37108C11.665 2.44963 11.6962 2.52497 11.7517 2.58051C11.8073 2.63605 11.8826 2.66726 11.9612 2.66726ZM8.30961 3.17204C8.37985 3.17204 8.44721 3.14414 8.49687 3.09448C8.54653 3.04482 8.57443 2.97746 8.57443 2.90722C8.57443 2.83699 8.54653 2.76963 8.49687 2.71997C8.44721 2.6703 8.37985 2.6424 8.30961 2.6424C8.23938 2.6424 8.17202 2.6703 8.12236 2.71997C8.07269 2.76963 8.04479 2.83699 8.04479 2.90722C8.04479 2.97746 8.07269 3.04482 8.12236 3.09448C8.17202 3.14414 8.23938 3.17204 8.30961 3.17204ZM13.9052 4.45203C13.9351 4.45203 13.9646 4.44615 13.9922 4.43473C14.0197 4.42332 14.0448 4.40658 14.0659 4.38549C14.087 4.36439 14.1037 4.33935 14.1151 4.31179C14.1265 4.28423 14.1324 4.25469 14.1324 4.22485C14.1324 4.19502 14.1265 4.16548 14.1151 4.13792C14.1037 4.11036 14.087 4.08532 14.0659 4.06422C14.0448 4.04313 14.0197 4.02639 13.9922 4.01498C13.9646 4.00356 13.9351 3.99768 13.9052 3.99768C13.845 3.99768 13.7872 4.02162 13.7446 4.06422C13.702 4.10682 13.6781 4.16461 13.6781 4.22485C13.6781 4.2851 13.702 4.34289 13.7446 4.38549C13.7872 4.42809 13.845 4.45203 13.9052 4.45203ZM3.06098 6.50309C3.09631 6.50309 3.13021 6.48906 3.15519 6.46407C3.18018 6.43908 3.19422 6.40519 3.19422 6.36985C3.19422 6.33451 3.18018 6.30062 3.15519 6.27564C3.13021 6.25065 3.09631 6.23661 3.06098 6.23661C3.02564 6.23661 2.99175 6.25065 2.96676 6.27564C2.94177 6.30062 2.92773 6.33451 2.92773 6.36985C2.92773 6.40519 2.94177 6.43908 2.96676 6.46407C2.99175 6.48906 3.02564 6.50309 3.06098 6.50309ZM5.86093 2.80873C5.92691 2.80873 5.99018 2.78252 6.03684 2.73587C6.08349 2.68921 6.1097 2.62594 6.1097 2.55996C6.1097 2.49399 6.08349 2.43071 6.03684 2.38406C5.99018 2.33741 5.92691 2.3112 5.86093 2.3112C5.79496 2.3112 5.73168 2.33741 5.68503 2.38406C5.63838 2.43071 5.61217 2.49399 5.61217 2.55996C5.61217 2.62594 5.63838 2.68921 5.68503 2.73587C5.73168 2.78252 5.79496 2.80873 5.86093 2.80873ZM7.67667 2.40313C7.70027 2.40357 7.72373 2.3993 7.74567 2.39056C7.76761 2.38183 7.78758 2.36881 7.80443 2.35227C7.82128 2.33573 7.83466 2.316 7.8438 2.29423C7.85294 2.27245 7.85764 2.24908 7.85764 2.22547C7.85764 2.20186 7.85294 2.17848 7.8438 2.15671C7.83466 2.13494 7.82128 2.1152 7.80443 2.09866C7.78758 2.08212 7.76761 2.06911 7.74567 2.06037C7.72373 2.05164 7.70027 2.04737 7.67667 2.0478C7.63011 2.04866 7.58576 2.06776 7.55314 2.10098C7.52052 2.13421 7.50225 2.17891 7.50225 2.22547C7.50225 2.27203 7.52052 2.31673 7.55314 2.34995C7.58576 2.38318 7.63011 2.40227 7.67667 2.40313ZM12.833 2.95026C12.8923 2.95026 12.9492 2.9267 12.9911 2.88477C13.033 2.84284 13.0566 2.78598 13.0566 2.72668C13.0566 2.66739 13.033 2.61052 12.9911 2.56859C12.9492 2.52667 12.8923 2.50311 12.833 2.50311C12.7737 2.50311 12.7168 2.52667 12.6749 2.56859C12.633 2.61052 12.6094 2.66739 12.6094 2.72668C12.6094 2.78598 12.633 2.84284 12.6749 2.88477C12.7168 2.9267 12.7737 2.95026 12.833 2.95026ZM7.18011 2.04435C7.21662 2.04435 7.25277 2.03716 7.2865 2.02319C7.32023 2.00922 7.35087 1.98874 7.37669 1.96293C7.4025 1.93711 7.42298 1.90647 7.43695 1.87274C7.45092 1.83901 7.45812 1.80286 7.45812 1.76635C7.45812 1.72984 7.45092 1.69369 7.43695 1.65996C7.42298 1.62623 7.4025 1.59558 7.37669 1.56977C7.35087 1.54395 7.32023 1.52348 7.2865 1.5095C7.25277 1.49553 7.21662 1.48834 7.18011 1.48834C7.10638 1.48834 7.03567 1.51763 6.98353 1.56977C6.93139 1.6219 6.9021 1.69262 6.9021 1.76635C6.9021 1.84008 6.93139 1.91079 6.98353 1.96293C7.03567 2.01506 7.10638 2.04435 7.18011 2.04435Z" fill="#AFDAD2" stroke="white" stroke-width="0.147661"/>
<path d="M11.5428 2.30985C11.611 2.30985 11.6764 2.28276 11.7246 2.23455C11.7728 2.18634 11.7999 2.12095 11.7999 2.05277C11.7999 1.98459 11.7728 1.9192 11.7246 1.87099C11.6764 1.82278 11.611 1.79569 11.5428 1.79569C11.4746 1.79569 11.4092 1.82277 11.361 1.87098C11.3128 1.91918 11.2857 1.98457 11.2857 2.05274C11.2857 2.12091 11.3128 2.18629 11.361 2.2345C11.4092 2.28271 11.4746 2.30985 11.5428 2.30985ZM5.9286 2.03574C5.98322 2.03574 6.0356 2.01405 6.07422 1.97542C6.11284 1.9368 6.13454 1.88442 6.13454 1.8298C6.13454 1.77518 6.11284 1.7228 6.07422 1.68418C6.0356 1.64556 5.98322 1.62386 5.9286 1.62386C5.87398 1.62386 5.8216 1.64556 5.78298 1.68418C5.74435 1.7228 5.72266 1.77518 5.72266 1.8298C5.72266 1.88442 5.74435 1.9368 5.78298 1.97542C5.8216 2.01405 5.87398 2.03574 5.9286 2.03574ZM6.4231 1.87655C6.45294 1.87655 6.48248 1.87068 6.51005 1.85926C6.53761 1.84784 6.56266 1.83111 6.58375 1.81001C6.60485 1.78891 6.62159 1.76386 6.63301 1.7363C6.64442 1.70873 6.6503 1.67919 6.6503 1.64935C6.6503 1.61952 6.64442 1.58997 6.63301 1.56241C6.62159 1.53484 6.60485 1.5098 6.58375 1.4887C6.56266 1.4676 6.53761 1.45087 6.51005 1.43945C6.48248 1.42803 6.45294 1.42215 6.4231 1.42215C6.36284 1.42215 6.30505 1.44609 6.26244 1.4887C6.21984 1.53131 6.1959 1.5891 6.1959 1.64935C6.1959 1.70961 6.21984 1.7674 6.26244 1.81001C6.30505 1.85262 6.36284 1.87655 6.4231 1.87655ZM9.92477 1.5918C9.99546 1.5918 10.0633 1.56372 10.1132 1.51374C10.1632 1.46375 10.1913 1.39595 10.1913 1.32526C10.1913 1.25457 10.1632 1.18677 10.1132 1.13678C10.0633 1.0868 9.99546 1.05872 9.92477 1.05872C9.85408 1.05872 9.78628 1.0868 9.73629 1.13678C9.68631 1.18677 9.65823 1.25457 9.65823 1.32526C9.65823 1.39595 9.68631 1.46375 9.73629 1.51374C9.78628 1.56372 9.85408 1.5918 9.92477 1.5918ZM8.85381 1.6483C8.88106 1.6483 8.90803 1.64293 8.9332 1.6325C8.95837 1.62208 8.98124 1.6068 9.00051 1.58753C9.01977 1.56827 9.03505 1.5454 9.04548 1.52023C9.0559 1.49506 9.06127 1.46808 9.06127 1.44084C9.06127 1.4136 9.0559 1.38662 9.04548 1.36145C9.03505 1.33628 9.01977 1.31341 9.00051 1.29415C8.98124 1.27489 8.95837 1.25961 8.9332 1.24918C8.90803 1.23875 8.88106 1.23339 8.85381 1.23339C8.79879 1.23339 8.74603 1.25524 8.70712 1.29415C8.66822 1.33305 8.64636 1.38582 8.64636 1.44084C8.64636 1.49586 8.66822 1.54863 8.70712 1.58753C8.74603 1.62644 8.79879 1.6483 8.85381 1.6483ZM10.4571 1.90147C10.4782 1.90189 10.4991 1.89809 10.5187 1.8903C10.5383 1.88251 10.5562 1.8709 10.5712 1.85613C10.5863 1.84136 10.5983 1.82373 10.6064 1.80428C10.6146 1.78484 10.6188 1.76395 10.6188 1.74286C10.6188 1.72176 10.6146 1.70088 10.6064 1.68143C10.5983 1.66198 10.5863 1.64436 10.5712 1.62959C10.5562 1.61482 10.5383 1.6032 10.5187 1.59542C10.4991 1.58763 10.4782 1.58383 10.4571 1.58424C10.4155 1.58506 10.376 1.60212 10.3469 1.63178C10.3178 1.66144 10.3015 1.70132 10.3015 1.74286C10.3015 1.7844 10.3178 1.82428 10.3469 1.85394C10.376 1.88359 10.4155 1.90066 10.4571 1.90147Z" fill="#AFDAD2" stroke="white" stroke-width="0.147661"/>
<path d="M9.92652 2.14506C9.96515 2.14506 10.0034 2.13745 10.0391 2.12267C10.0748 2.10788 10.1072 2.08621 10.1345 2.0589C10.1619 2.03158 10.1835 1.99915 10.1983 1.96345C10.2131 1.92776 10.2207 1.88951 10.2207 1.85088C10.2207 1.81224 10.2131 1.77399 10.1983 1.7383C10.1835 1.7026 10.1619 1.67017 10.1345 1.64285C10.1072 1.61554 10.0748 1.59387 10.0391 1.57908C10.0034 1.5643 9.96515 1.55669 9.92652 1.55669C9.84849 1.55669 9.77367 1.58768 9.7185 1.64285C9.66333 1.69803 9.63233 1.77285 9.63233 1.85088C9.63233 1.9289 9.66333 2.00372 9.7185 2.0589C9.77367 2.11407 9.84849 2.14506 9.92652 2.14506ZM11.094 1.85958C11.1479 1.85958 11.1996 1.83817 11.2377 1.80005C11.2759 1.76192 11.2973 1.71022 11.2973 1.6563C11.2973 1.60239 11.2759 1.55069 11.2377 1.51256C11.1996 1.47444 11.1479 1.45302 11.094 1.45302C11.0401 1.45302 10.9884 1.47444 10.9503 1.51256C10.9121 1.55069 10.8907 1.60239 10.8907 1.6563C10.8907 1.71022 10.9121 1.76192 10.9503 1.80005C10.9884 1.83817 11.0401 1.85958 11.094 1.85958ZM1.97215 6.81839C2.03988 6.81839 2.10483 6.79149 2.15272 6.7436C2.2006 6.69571 2.22751 6.63076 2.22751 6.56303C2.22751 6.49531 2.2006 6.43036 2.15272 6.38247C2.10483 6.33458 2.03988 6.30768 1.97215 6.30768C1.90443 6.30768 1.83948 6.33458 1.79159 6.38247C1.7437 6.43036 1.7168 6.49531 1.7168 6.56303C1.7168 6.63076 1.7437 6.69571 1.79159 6.7436C1.83948 6.79149 1.90443 6.81839 1.97215 6.81839ZM7.76609 1.84211C7.80256 1.84211 7.83754 1.82762 7.86333 1.80183C7.88911 1.77604 7.9036 1.74107 7.9036 1.7046C7.9036 1.66813 7.88911 1.63316 7.86333 1.60737C7.83754 1.58158 7.80256 1.56709 7.76609 1.56709C7.72963 1.56709 7.69465 1.58158 7.66886 1.60737C7.64308 1.63316 7.62859 1.66813 7.62859 1.7046C7.62859 1.74107 7.64308 1.77604 7.66886 1.80183C7.69465 1.82762 7.72963 1.84211 7.76609 1.84211ZM12.489 2.47148C12.533 2.47148 12.5752 2.454 12.6064 2.42288C12.6375 2.39176 12.655 2.34956 12.655 2.30555C12.655 2.26154 12.6375 2.21934 12.6064 2.18822C12.5752 2.1571 12.533 2.13962 12.489 2.13962C12.445 2.13962 12.4028 2.1571 12.3717 2.18821C12.3406 2.21932 12.3231 2.26152 12.3231 2.30552C12.3231 2.34952 12.3406 2.39172 12.3717 2.42283C12.4028 2.45394 12.445 2.47148 12.489 2.47148ZM9.38822 1.64149C9.45186 1.64149 9.51289 1.61621 9.55788 1.57121C9.60288 1.52622 9.62816 1.46519 9.62816 1.40155C9.62816 1.33792 9.60288 1.27689 9.55788 1.2319C9.51289 1.1869 9.45186 1.16162 9.38822 1.16162C9.32459 1.16162 9.26356 1.1869 9.21857 1.2319C9.17357 1.27689 9.14829 1.33792 9.14829 1.40155C9.14829 1.46519 9.17357 1.52622 9.21857 1.57121C9.26356 1.61621 9.32459 1.64149 9.38822 1.64149ZM3.90903 5.28493C3.94534 5.28493 3.98129 5.27778 4.01483 5.26388C4.04837 5.24999 4.07885 5.22962 4.10452 5.20395C4.13019 5.17828 4.15056 5.1478 4.16445 5.11426C4.17834 5.08072 4.18549 5.04477 4.18549 5.00846C4.18549 4.97216 4.17834 4.93621 4.16445 4.90267C4.15056 4.86912 4.13019 4.83865 4.10452 4.81297C4.07885 4.7873 4.04837 4.76694 4.01483 4.75304C3.98129 4.73915 3.94534 4.732 3.90903 4.732C3.83571 4.732 3.76539 4.76113 3.71354 4.81297C3.66169 4.86482 3.63257 4.93514 3.63257 5.00846C3.63257 5.08179 3.66169 5.15211 3.71354 5.20395C3.76539 5.2558 3.83571 5.28493 3.90903 5.28493Z" fill="#AFDAD2" stroke="white" stroke-width="0.147661"/>
<path d="M11.5524 3.97931L11.2671 3.97253L10.9818 3.97907L10.6965 3.9989L10.4113 4.03175L10.1264 4.07729L9.84182 4.13481L9.55767 4.20376L9.27395 4.28323L8.99065 4.37238L8.70784 4.47012L8.42557 4.57542L8.14372 4.68719L7.8623 4.80428L7.58136 4.92555L7.30078 5.0499L7.02063 5.17613L6.46141 5.43015L6.18235 5.55602L5.90352 5.67988L5.625 5.80097L5.34679 5.91861L5.06881 6.03219L4.79102 6.14112L4.5134 6.24515L4.23597 6.34373L3.95866 6.43676L3.68147 6.52409L3.4044 6.60562L3.12728 6.68135L2.85027 6.75138L2.5732 6.81574L2.29607 6.87465L2.01894 6.92823L1.74169 6.97686L1.43759 7.02494L1.42416 7.11748C1.33344 7.74355 1.32336 8.37867 1.39416 9.00731L1.41352 9.17926L1.81512 9.00102L2.09515 8.87473L2.65437 8.6207L2.93343 8.4949L3.21213 8.3714L3.49047 8.25128L3.76833 8.13564L4.04582 8.02556L4.32283 7.92226L4.59935 7.82669L4.87539 7.73978L5.15101 7.66255L5.42614 7.59583L5.70079 7.54019L5.97508 7.49646L6.24906 7.46489L6.52274 7.44584L6.7963 7.43955L7.0698 7.44614L7.3433 7.46537L7.61704 7.49719L7.89103 7.54116L8.16525 7.59686L8.43996 7.6637L8.7151 7.74093L8.99065 7.82778L9.26669 7.92328L9.54328 8.02653L9.82028 8.13642L10.0977 8.25194L10.3756 8.37188L10.6539 8.49526L10.9326 8.62083L11.4912 8.87455L11.7709 9.00071L12.0509 9.12512L12.3313 9.24706L12.612 9.36572L12.8928 9.48046L13.1738 9.59072L13.4551 9.69608L13.7366 9.79617L14.0181 9.89071L14.2998 9.9795L14.5815 10.0624L14.8633 10.1395L15.1451 10.2107L15.4269 10.2762L15.8232 10.3606L15.8561 10.2475C16.0429 9.60565 16.1419 8.94147 16.1504 8.27305L16.151 8.17979L16.1504 8.0858L16.1485 7.98516C16.1247 7.07868 15.9346 6.18428 15.5876 5.34651L15.562 5.28542L15.5162 5.1797L15.2282 5.05014L14.9481 4.92603L14.6676 4.80495L14.3866 4.68798L14.1052 4.57639L13.8234 4.47115L13.5411 4.37347L13.2583 4.28438L12.975 4.20491L12.6913 4.1359L12.407 4.0782L12.1225 4.03253L11.8377 3.99945L11.5524 3.97931ZM11.2642 4.09936L11.5436 4.1059L11.823 4.12543L12.1025 4.15779L12.3819 4.20255L12.6613 4.25916L12.9407 4.32702L13.2202 4.40534L13.4996 4.49335L13.779 4.59L14.0584 4.69427L14.3379 4.80513L14.6173 4.92138L14.8967 5.04204L15.1762 5.16585L15.4195 5.27532C15.7926 6.13235 15.997 7.05325 16.0216 7.98764L16.0236 8.08659L16.0242 8.179L16.0236 8.27142C16.0152 8.92837 15.9179 9.58116 15.7343 10.212L15.4556 10.1527L15.1762 10.0878L14.8967 10.0171L14.6173 9.94073L14.3379 9.85847L14.0584 9.77047L13.779 9.67666L13.4996 9.57729L13.2202 9.47265L12.9407 9.363L12.6613 9.24887L12.3819 9.13075L12.1025 9.00918L11.823 8.88507L11.5436 8.75909L10.9847 8.50518L10.7053 8.37926L10.4259 8.25545L10.1465 8.13485L9.86704 8.01854L9.58761 7.90768L9.30818 7.80341L9.02876 7.70676L8.74933 7.61882L8.4699 7.54043L8.19047 7.47257L7.91105 7.41596L7.63162 7.3712L7.35219 7.33885L7.07276 7.31931L6.79334 7.31278L6.51391 7.31931L6.23448 7.33885L5.95506 7.3712L5.67563 7.41596L5.3962 7.47257L5.11677 7.54043L4.83735 7.61882L4.55792 7.70676L4.27849 7.80341L3.99906 7.90768L3.71964 8.01854L3.44021 8.13485L3.16078 8.25545L2.88136 8.37926L2.60193 8.50518L2.04307 8.75909L1.76365 8.88507L1.52021 8.99315C1.45062 8.37526 1.46054 7.751 1.54972 7.13563L1.76359 7.10182L2.04301 7.05283L2.32244 6.9987L2.60187 6.93924L2.88129 6.87434L3.16072 6.8037L3.44015 6.72731L3.71958 6.64506L3.999 6.55699L4.27843 6.46325L4.55786 6.36388L4.83729 6.25924L5.11671 6.14959L5.39614 6.03546L5.67557 5.91728L5.95499 5.79583L6.23442 5.67166L6.51385 5.54567L7.0727 5.29177L7.35213 5.16585L7.63156 5.04204L7.91099 4.92138L8.19041 4.80513L8.46984 4.69427L8.74927 4.59L9.0287 4.49335L9.30812 4.40534L9.58755 4.32702L9.86698 4.25916L10.1464 4.20249L10.4259 4.15773L10.7053 4.12543L10.9847 4.1059L11.2642 4.09936Z" fill="white"/>
<path d="M11.2653 4.06915L11.5461 4.07569L11.8269 4.09534L12.1076 4.12782L12.3883 4.17276L12.669 4.22961L12.9495 4.29778L13.2299 4.3764L13.5102 4.46471L13.7903 4.56154L14.0707 4.66617L14.3506 4.77722L14.6304 4.89364L14.9101 5.01443L15.1897 5.13829L15.4438 5.25279C15.8264 6.12792 16.0337 7.0696 16.0539 8.0245L16.0549 8.08643L16.0555 8.17921L16.0549 8.27181C16.0464 8.94088 15.946 9.6056 15.7565 10.2473L15.4499 10.1822L15.1699 10.1171L14.8898 10.0464L14.6099 9.96979L14.3298 9.88735L14.0499 9.79917L13.77 9.70518L13.4901 9.60562L13.2102 9.50081L12.9304 9.39103L12.6506 9.27672L12.3709 9.15848L12.0913 9.03691L11.8117 8.91268L11.5322 8.78664L10.9734 8.53279L10.6941 8.40699L10.415 8.28324L10.1359 8.16276L9.85699 8.04664L9.57816 7.93608L9.29904 7.83193L9.02034 7.73552L8.74176 7.64782L8.4633 7.56974L8.18496 7.50212L7.90674 7.44575L7.62852 7.40117L7.35049 7.369L7.07239 7.34958L6.79441 7.34305L6.51638 7.34958L6.23834 7.369L5.96025 7.40117L5.68203 7.44575L5.40381 7.50212L5.12547 7.56974L4.84701 7.64776L4.56843 7.73552L4.28979 7.83193L4.01127 7.93583L3.73233 8.04652L3.45326 8.16264L3.17408 8.28312L2.89483 8.40687L2.61546 8.53273L2.05655 8.7867L1.777 8.91274L1.49594 9.03764C1.42006 8.39645 1.42951 7.74804 1.52407 7.10935L1.75946 7.07203L2.03834 7.0231L2.31729 6.96915L2.59611 6.90988L2.87499 6.84504L3.15382 6.77458L3.4327 6.69837L3.71158 6.61624L3.99053 6.52835L4.26941 6.43479L4.54835 6.3356L4.82736 6.23109L5.10642 6.12161L5.38548 6.0076L5.66461 5.8896L5.94385 5.76822L6.2231 5.64411L6.50247 5.51812L7.06138 5.26422L7.34099 5.13823L7.62072 5.01425L7.90051 4.89352L8.18036 4.77704L8.46039 4.66599L8.74018 4.56154L9.02034 4.46465L9.30061 4.3764L9.58101 4.29778L9.86152 4.22967L10.1422 4.17282L10.4228 4.12782L10.7036 4.09534L10.9844 4.07569L11.2653 4.06915Z" fill="#7DB0BC" stroke="white" stroke-width="0.590645"/>
<path d="M6.79409 7.45251L7.07352 7.45905L7.35295 7.47858L7.63237 7.51094L7.9118 7.5557L8.19123 7.61231L8.47066 7.68017L8.75008 7.75855L9.02951 7.84649L9.30894 7.94315L9.58836 8.04742L9.86779 8.15828L10.1472 8.27459L10.4266 8.39519L10.7061 8.519L10.9855 8.64492L11.2649 8.77187L11.5444 8.89882L11.8238 9.02481L12.1032 9.14898L12.3826 9.27049L12.6621 9.38861L12.9415 9.50274L13.2209 9.61239L13.5003 9.71702L13.7798 9.8164L14.0592 9.91014L14.3386 9.99827L14.6181 10.0805L14.8975 10.1569L15.1769 10.2275L15.4563 10.2925L15.6955 10.3433C15.3783 11.3614 14.8411 12.2974 14.1219 13.0848C13.4028 13.8723 12.5193 14.492 11.534 14.9001C9.75147 15.6384 7.74865 15.6384 5.96613 14.9C4.18362 14.1616 2.7674 12.7455 2.02901 10.963C1.78535 10.3747 1.61997 9.75704 1.53711 9.12575L1.76434 9.02481L2.04377 8.89882L2.3232 8.77181L2.60262 8.64492L2.88205 8.519L3.16148 8.39519L3.4409 8.27459L3.72033 8.15828L3.99976 8.04742L4.27919 7.94315L4.55861 7.84649L4.83804 7.75855L5.11747 7.68017L5.39689 7.61231L5.67632 7.5557L5.95575 7.51094L6.23518 7.47858L6.5146 7.45905L6.79409 7.45251Z" fill="#5C7DA2"/>
<path d="M7.35202 9.33624V10.2733H9.02858V11.5674H10.7051V12.4525H12.3817V12.8261H14.0583V13.1526C13.047 14.2322 11.7305 14.9778 10.2846 15.29C8.83862 15.6023 7.33183 15.4662 5.96516 14.9001C4.40275 14.2529 3.11463 13.0816 2.32227 11.5875V10.7145H3.99883V9.54672H5.67539V9.33624H7.35202Z" fill="#444876"/>
<path d="M7.40993 9.27899V10.216H9.08649V11.5101H10.7631V12.3952H12.4396V12.7688H14.1162L14.1163 13.0907C14.0786 13.1318 14.0403 13.1726 14.0017 13.213L14.0016 12.8832H12.4396V14.4486C12.4016 14.471 12.3634 14.493 12.3251 14.5147V12.5096L10.7631 12.5096V15.1697C10.725 15.1807 10.6868 15.1914 10.6485 15.2017V11.6245H9.08649V15.446C9.04833 15.4478 9.0101 15.4493 8.97194 15.4505V10.3305H7.40993V15.3293C7.37164 15.3222 7.33348 15.3147 7.29532 15.3069L7.29538 9.39336H5.73331V9.48953L5.73337 14.799C5.69496 14.7815 5.6568 14.7637 5.61875 14.7455L5.61881 9.60396H4.05674V10.6572V13.7376C4.01824 13.7051 3.98007 13.6722 3.94225 13.6389V10.7717H2.38018L2.38012 11.6932C2.3408 11.6219 2.30258 11.5499 2.26562 11.4772L2.26575 10.6572H3.94231V9.48953H5.61887V9.27899H7.40993Z" fill="white"/>
<path d="M8.74934 0.4375C10.7855 0.437558 12.7396 1.23975 14.1884 2.67033C15.6373 4.1009 16.4643 6.04467 16.4902 8.08062L16.4908 8.17903L16.4902 8.27737C16.4643 10.3133 15.6373 12.2571 14.1884 13.6877C12.7396 15.1182 10.7855 15.9204 8.74934 15.9205C6.69619 15.9204 4.72715 15.1048 3.27535 13.653C1.82355 12.2013 1.00789 10.2322 1.00781 8.17909C1.00784 6.12591 1.82348 4.15684 3.27528 2.70502C4.72709 1.25319 6.69616 0.437548 8.74934 0.4375ZM8.74934 0.691706C6.76359 0.691754 4.85919 1.48061 3.45506 2.88474C2.05092 4.28888 1.26207 6.19328 1.26202 8.17903C1.26208 10.1648 2.05095 12.0691 3.45508 13.4733C4.85921 14.8774 6.7636 15.6662 8.74934 15.6663C10.7186 15.6662 12.6085 14.8904 14.0098 13.5068C15.4111 12.1232 16.2109 10.2433 16.236 8.27417L16.2366 8.17903L16.236 8.08389C16.2109 6.11479 15.4111 4.23484 14.0098 2.85123C12.6086 1.46763 10.7186 0.691769 8.74934 0.691706Z" fill="#444876"/>
</g>
<defs>
<clipPath id="clip0_177_206">
<rect width="16" height="16" fill="white" transform="translate(0.75 0.4375)"/>
</clipPath>
</defs>
</svg>
