<svg width="17" height="17" viewBox="0 0 17 17" fill="none" xmlns="http://www.w3.org/2000/svg">
<g clip-path="url(#clip0_177_226)">
<path d="M8.25 0.4375C3.83222 0.4375 0.25 4.01972 0.25 8.4375C0.25 12.8552 3.83222 16.4375 8.25 16.4375C12.6677 16.4375 16.25 12.8552 16.25 8.4375C16.25 4.01972 12.6677 0.4375 8.25 0.4375ZM8.25 15.2819C4.42777 15.2819 1.31667 12.1708 1.31667 8.34863C1.31667 5.6375 2.88111 3.28373 5.15489 2.14594C3.82333 3.52194 3.00556 5.39394 3.00556 7.45975C3.00556 11.4455 6.05444 14.7166 9.946 15.0722C9.40375 15.2091 8.83487 15.2819 8.25 15.2819ZM12.8403 6.51394C12.7816 6.54239 12.7211 6.55483 12.6624 6.55483C12.5111 6.55483 12.3656 6.4695 12.2944 6.32373C11.9157 5.53617 11.3184 4.87839 10.5682 4.42506C10.3762 4.3095 10.314 4.05883 10.4311 3.86506C10.5467 3.67306 10.7976 3.61083 10.9911 3.72817C11.8765 4.26327 12.5805 5.03839 13.0302 5.96994C13.1282 6.17261 13.0429 6.41617 12.8403 6.51394Z" fill="#3178C6"/>
</g>
<defs>
<clipPath id="clip0_177_226">
<rect width="16" height="16" fill="white" transform="translate(0.25 0.4375)"/>
</clipPath>
</defs>
</svg>
