<svg width="17" height="17" viewBox="0 0 17 17" fill="none" xmlns="http://www.w3.org/2000/svg">
<g clip-path="url(#clip0_177_234)">
<path d="M3.92755 10.5163C3.92755 11.4359 3.18424 12.1793 2.26455 12.1793C1.34487 12.1793 0.601562 11.4359 0.601562 10.5163C0.601562 9.59658 1.34487 8.85327 2.26455 8.85327H3.92755V10.5163ZM4.75904 10.5163C4.75904 9.59658 5.50235 8.85327 6.42204 8.85327C7.34172 8.85327 8.08503 9.59658 8.08503 10.5163V14.6737C8.08503 15.5934 7.34172 16.3367 6.42204 16.3367C5.50235 16.3367 4.75904 15.5934 4.75904 14.6737V10.5163Z" fill="#E01E5A"/>
<path d="M6.42096 3.83905C5.50128 3.83905 4.75797 3.09574 4.75797 2.17605C4.75797 1.25637 5.50128 0.513062 6.42096 0.513062C7.34065 0.513062 8.08395 1.25637 8.08395 2.17605V3.83905H6.42096ZM6.42096 4.68314C7.34065 4.68314 8.08395 5.42645 8.08395 6.34613C8.08395 7.26582 7.34065 8.00912 6.42096 8.00912H2.25088C1.3312 8.00912 0.587891 7.26582 0.587891 6.34613C0.587891 5.42645 1.3312 4.68314 2.25088 4.68314H6.42096Z" fill="#36C5F0"/>
<path d="M13.0852 6.34613C13.0852 5.42645 13.8285 4.68314 14.7482 4.68314C15.6679 4.68314 16.4112 5.42645 16.4112 6.34613C16.4112 7.26582 15.6679 8.00912 14.7482 8.00912H13.0852V6.34613ZM12.2537 6.34613C12.2537 7.26582 11.5104 8.00912 10.5907 8.00912C9.67104 8.00912 8.92773 7.26582 8.92773 6.34613V2.17605C8.92773 1.25637 9.67104 0.513062 10.5907 0.513062C11.5104 0.513062 12.2537 1.25637 12.2537 2.17605V6.34613Z" fill="#2EB67D"/>
<path d="M10.5907 13.0108C11.5104 13.0108 12.2537 13.7541 12.2537 14.6737C12.2537 15.5934 11.5104 16.3367 10.5907 16.3367C9.67104 16.3367 8.92773 15.5934 8.92773 14.6737V13.0108H10.5907ZM10.5907 12.1793C9.67104 12.1793 8.92773 11.4359 8.92773 10.5163C8.92773 9.59658 9.67104 8.85327 10.5907 8.85327H14.7608C15.6805 8.85327 16.4238 9.59658 16.4238 10.5163C16.4238 11.4359 15.6805 12.1793 14.7608 12.1793H10.5907Z" fill="#ECB22E"/>
</g>
<defs>
<clipPath id="clip0_177_234">
<rect width="16" height="16" fill="white" transform="translate(0.5 0.4375)"/>
</clipPath>
</defs>
</svg>
