<svg width="17" height="17" viewBox="0 0 17 17" fill="none" xmlns="http://www.w3.org/2000/svg">
<g clip-path="url(#clip0_177_239)">
<path d="M3.34975 11.7585C3.44631 11.662 3.57907 11.6057 3.71988 11.6057H16.4893C16.7227 11.6057 16.8393 11.8873 16.6744 12.0522L14.1519 14.5747C14.0553 14.6713 13.9225 14.7276 13.7817 14.7276H1.01231C0.778973 14.7276 0.662302 14.446 0.827251 14.281L3.34975 11.7585Z" fill="url(#paint0_linear_177_239)"/>
<path d="M3.34975 2.34038C3.45033 2.24382 3.5831 2.1875 3.71988 2.1875H16.4893C16.7227 2.1875 16.8393 2.46912 16.6744 2.63407L14.1519 5.15657C14.0553 5.25313 13.9225 5.30945 13.7817 5.30945H1.01231C0.778973 5.30945 0.662302 5.02783 0.827251 4.86288L3.34975 2.34038Z" fill="url(#paint1_linear_177_239)"/>
<path d="M14.1519 7.01927C14.0553 6.92272 13.9225 6.86639 13.7817 6.86639H1.01231C0.778973 6.86639 0.662302 7.14801 0.827251 7.31296L3.34975 9.83547C3.44631 9.93202 3.57907 9.98835 3.71988 9.98835H16.4893C16.7227 9.98835 16.8393 9.70673 16.6744 9.54178L14.1519 7.01927Z" fill="url(#paint2_linear_177_239)"/>
</g>
<defs>
<linearGradient id="paint0_linear_177_239" x1="15.2695" y1="0.68062" x2="6.432" y2="17.6079" gradientUnits="userSpaceOnUse">
<stop stop-color="#00FFA3"/>
<stop offset="1" stop-color="#DC1FFF"/>
</linearGradient>
<linearGradient id="paint1_linear_177_239" x1="11.4052" y1="-1.33682" x2="2.56778" y2="15.5905" gradientUnits="userSpaceOnUse">
<stop stop-color="#00FFA3"/>
<stop offset="1" stop-color="#DC1FFF"/>
</linearGradient>
<linearGradient id="paint2_linear_177_239" x1="13.325" y1="-0.33453" x2="4.48759" y2="16.5928" gradientUnits="userSpaceOnUse">
<stop stop-color="#00FFA3"/>
<stop offset="1" stop-color="#DC1FFF"/>
</linearGradient>
<clipPath id="clip0_177_239">
<rect width="16" height="16" fill="white" transform="translate(0.75 0.4375)"/>
</clipPath>
</defs>
</svg>
