<svg width="17" height="17" viewBox="0 0 17 17" fill="none" xmlns="http://www.w3.org/2000/svg">
<g clip-path="url(#clip0_177_250)">
<path d="M13.625 0.4375H3.875C2.14911 0.4375 0.75 1.83661 0.75 3.5625V13.3125C0.75 15.0384 2.14911 16.4375 3.875 16.4375H13.625C15.3509 16.4375 16.75 15.0384 16.75 13.3125V3.5625C16.75 1.83661 15.3509 0.4375 13.625 0.4375Z" fill="url(#paint0_linear_177_250)"/>
<mask id="mask0_177_250" style="mask-type:luminance" maskUnits="userSpaceOnUse" x="2" y="2" width="13" height="13">
<path d="M14.875 2.3125H2.625V14.5625H14.875V2.3125Z" fill="white"/>
</mask>
<g mask="url(#mask0_177_250)">
<path d="M13.9973 7.32613C14.2753 6.49198 14.1796 5.57821 13.7351 4.81948C13.0667 3.65573 11.7231 3.05701 10.4108 3.33876C9.82694 2.68108 8.98825 2.30708 8.10888 2.31243C6.76754 2.30937 5.57737 3.173 5.1647 4.4493C4.30299 4.62577 3.55918 5.16515 3.12392 5.92963C2.45055 7.09032 2.60406 8.55344 3.50367 9.54875C3.22575 10.3829 3.32145 11.2967 3.7659 12.0554C4.43429 13.2191 5.77796 13.8179 7.09025 13.5361C7.67363 14.1938 8.51275 14.5678 9.39207 14.5621C10.7343 14.5655 11.9248 13.7011 12.3374 12.4237C13.1992 12.2472 13.9429 11.7078 14.3783 10.9433C15.0508 9.78263 14.8969 8.32069 13.9977 7.32538L13.9973 7.32613ZM9.39288 13.7616C8.85575 13.7624 8.3355 13.5744 7.92325 13.2303C7.942 13.2203 7.97457 13.2023 7.99557 13.1893L10.4349 11.7806C10.5597 11.7097 10.6363 11.5769 10.6354 11.4333V7.9945L11.6664 8.58982C11.6775 8.59513 11.6848 8.60588 11.6863 8.61813V11.4659C11.6848 12.7322 10.6592 13.7589 9.39288 13.7616ZM4.4607 11.655C4.19159 11.1903 4.09474 10.6455 4.18699 10.1168C4.20499 10.1276 4.23676 10.1471 4.25934 10.1601L6.69862 11.5688C6.82227 11.6412 6.9754 11.6412 7.09944 11.5688L10.0773 9.84925V11.0398C10.0781 11.0521 10.0724 11.0639 10.0628 11.0716L7.59707 12.4953C6.4988 13.1276 5.09617 12.7518 4.46109 11.655H4.4607ZM3.81873 6.33043C4.0867 5.86493 4.5097 5.50892 5.01349 5.32402C5.01349 5.34508 5.01234 5.38221 5.01234 5.40824V8.22613C5.01157 8.36932 5.08814 8.50213 5.21255 8.57294L8.19044 10.2922L7.1595 10.8874C7.14919 10.8943 7.13619 10.8955 7.12469 10.8905L4.65862 9.46569C3.56262 8.83094 3.1867 7.42875 3.81834 6.33082L3.81873 6.33043ZM12.2888 8.30157L9.31094 6.58195L10.3419 5.98705C10.3522 5.98017 10.3652 5.97902 10.3767 5.98399L12.8428 7.40769C13.9407 8.042 14.317 9.4465 13.6826 10.5444C13.4143 11.0092 12.9917 11.3652 12.4883 11.5504V8.64838C12.4894 8.50519 12.4133 8.37275 12.2892 8.30157H12.2888ZM13.3148 6.75725C13.2968 6.74619 13.265 6.727 13.2424 6.714L10.8031 5.30527C10.6795 5.23292 10.5264 5.23292 10.4023 5.30527L7.42444 7.02488V5.83431C7.42369 5.82206 7.42944 5.8102 7.439 5.80254L9.90469 4.38001C11.0029 3.74645 12.4071 4.12352 13.0403 5.2222C13.3079 5.68617 13.4048 6.22937 13.314 6.75725H13.3148ZM6.864 8.87919L5.8327 8.28394C5.8216 8.27857 5.81433 8.26788 5.8128 8.25563V5.40786C5.81356 4.13998 6.84218 3.11252 8.11007 3.11328C8.64638 3.11328 9.16544 3.30162 9.57775 3.64462C9.559 3.65458 9.52682 3.67257 9.50538 3.68558L7.06613 5.09433C6.94133 5.16515 6.86477 5.29761 6.86553 5.44117L6.864 8.87844V8.87919ZM7.42407 7.67182L8.7505 6.90582L10.0769 7.67144V9.20307L8.7505 9.96869L7.42407 9.20307V7.67182Z" fill="white"/>
</g>
</g>
<defs>
<linearGradient id="paint0_linear_177_250" x1="13.9063" y1="0.437501" x2="4.15625" y2="16.4375" gradientUnits="userSpaceOnUse">
<stop stop-color="#44547F"/>
<stop offset="0.531667" stop-color="#BCC3DE"/>
<stop offset="1" stop-color="#44547F"/>
</linearGradient>
<clipPath id="clip0_177_250">
<rect width="16" height="16" fill="white" transform="translate(0.75 0.4375)"/>
</clipPath>
</defs>
</svg>
