<svg width="16" height="17" viewBox="0 0 16 17" fill="none" xmlns="http://www.w3.org/2000/svg">
<g clip-path="url(#clip0_177_257)">
<path d="M14.3215 6.7813C14.3215 5.09882 13.6532 3.48525 12.4635 2.29556C11.2738 1.10587 9.66024 0.43751 7.97776 0.43751C6.46614 0.434844 5.00328 0.972229 3.85286 1.95281C2.70244 2.93338 1.94012 4.29265 1.70331 5.78561C1.46651 7.27857 1.77079 8.80701 2.56131 10.0955C3.35183 11.3839 4.57659 12.3476 6.01484 12.8128V15.9914C6.01484 16.1097 6.06184 16.2232 6.14551 16.3068C6.22917 16.3905 6.34264 16.4375 6.46096 16.4375H9.47225C9.59057 16.4375 9.70404 16.3905 9.7877 16.3068C9.87137 16.2232 9.91837 16.1097 9.91837 15.9914V12.8173C11.1976 12.4069 12.3136 11.6012 13.1057 10.5161C13.8978 9.43098 14.325 8.12251 14.326 6.77907L14.3215 6.7813ZM7.97776 8.92266C7.40924 8.92266 6.86401 8.69682 6.46201 8.29482C6.06001 7.89282 5.83416 7.34759 5.83416 6.77907C5.83416 6.21055 6.06001 5.66532 6.46201 5.26332C6.86401 4.86132 7.40924 4.63547 7.97776 4.63547C8.54657 4.63547 9.09209 4.86143 9.4943 5.26365C9.89651 5.66586 10.1225 6.21137 10.1225 6.78018C10.1225 7.349 9.89651 7.89451 9.4943 8.29672C9.09209 8.69893 8.54657 8.92489 7.97776 8.92489V8.92266Z" fill="#2684FF"/>
<path d="M7.97879 0.437513V4.63771C8.54761 4.63771 9.09312 4.86367 9.49533 5.26588C9.89754 5.66809 10.1235 6.21361 10.1235 6.78242C10.1235 7.35123 9.89754 7.89675 9.49533 8.29896C9.09312 8.70117 8.54761 8.92713 7.97879 8.92713C8.49939 8.92713 8.99867 9.13393 9.36678 9.50205C9.7349 9.87017 9.94171 10.3694 9.94171 10.89V12.8173C11.3807 12.3519 12.606 11.3878 13.3969 10.0987C14.1878 8.8096 14.4921 7.28038 14.255 5.78674C14.0179 4.29309 13.255 2.93329 12.1038 1.95248C10.9526 0.971673 9.48891 0.434397 7.97656 0.437513H7.97879Z" fill="url(#paint0_linear_177_257)"/>
</g>
<defs>
<linearGradient id="paint0_linear_177_257" x1="11.1507" y1="11.6685" x2="11.1507" y2="4.92992" gradientUnits="userSpaceOnUse">
<stop offset="0.18" stop-color="#0052CC"/>
<stop offset="1" stop-color="#2684FF"/>
</linearGradient>
<clipPath id="clip0_177_257">
<rect width="16" height="16" fill="white" transform="translate(0 0.4375)"/>
</clipPath>
</defs>
</svg>
