<svg width="17" height="17" viewBox="0 0 17 17" fill="none" xmlns="http://www.w3.org/2000/svg">
<g clip-path="url(#clip0_177_200)">
<path d="M7.54342 16.4273C6.04573 16.3194 4.56547 15.9424 3.65763 15.4377C3.14053 15.1502 2.74657 14.797 2.59198 14.4821L2.5 14.2948V8.41867V2.54251L2.57278 2.39473C2.89803 1.73439 3.93605 1.13909 5.38507 0.781899C5.87695 0.660642 6.58703 0.539889 7.16633 0.478997C7.75787 0.416803 9.32579 0.426265 9.91585 0.495683C11.4842 0.679934 12.8187 1.09243 13.641 1.64715C13.9582 1.86106 14.2837 2.20336 14.3939 2.43897L14.4884 2.64098L14.4804 8.49936L14.4722 14.3577L14.3964 14.5119C14.3547 14.5967 14.2286 14.7635 14.1162 14.8825C13.4324 15.6074 11.9656 16.1437 10.0416 16.3722C9.64942 16.4187 7.94575 16.4564 7.54342 16.4273ZM10.3034 11.3922C10.2977 11.3772 10.0738 11.1778 9.80591 10.949C9.53798 10.7202 9.30729 10.5223 9.29317 10.5092C9.2791 10.496 9.32854 10.4495 9.40316 10.4058C9.47779 10.362 9.62066 10.2404 9.72079 10.1354C10.0134 9.82855 10.1515 9.44942 10.1515 8.95286C10.1515 8.46398 10.0026 8.06955 9.70429 7.76842C9.40366 7.46492 9.05848 7.33455 8.55575 7.33455C7.78088 7.33455 7.18577 7.78667 6.99583 8.51973C6.93049 8.77186 6.93084 9.2813 6.99652 9.50492C7.16781 10.088 7.63433 10.5116 8.21494 10.611C8.41142 10.6447 8.43803 10.6592 8.57198 10.8057C8.6516 10.8927 8.81498 11.0664 8.93504 11.1917L9.15329 11.4195H9.7336C10.0528 11.4195 10.3092 11.4073 10.3034 11.3922ZM8.31335 9.76748C8.17365 9.69461 8.12083 9.63811 8.04117 9.47617C7.97964 9.35105 7.96912 9.27992 7.96843 8.9843C7.96775 8.68386 7.9773 8.61892 8.04155 8.48848C8.14665 8.27505 8.2915 8.17398 8.51557 8.1578C8.82748 8.13517 9.00748 8.28823 9.10185 8.65611C9.21754 9.10711 9.09035 9.58661 8.81279 9.74573C8.66715 9.82923 8.44994 9.83867 8.31335 9.76748ZM5.74121 10.6047C6.34962 10.4893 6.69499 10.1355 6.69499 9.62755C6.69499 9.17692 6.47202 8.91436 5.85576 8.6393C5.50299 8.4818 5.37521 8.38292 5.37521 8.26742C5.37521 8.17173 5.49647 8.0668 5.63764 8.04042C5.77547 8.01473 6.14104 8.07823 6.35692 8.16542L6.53788 8.23848V7.83798V7.43742L6.34148 7.39386C6.2201 7.36692 5.96504 7.35073 5.67373 7.35155C5.2611 7.35155 5.1803 7.36161 5.02502 7.4233C4.57143 7.60336 4.35618 7.91011 4.35963 8.37155C4.36285 8.80348 4.59073 9.07292 5.15785 9.3153C5.49248 9.45836 5.6266 9.56723 5.6266 9.69592C5.6266 9.96942 5.17092 10.0031 4.68847 9.76523C4.55633 9.70011 4.43763 9.64148 4.42467 9.63498C4.4117 9.62848 4.4011 9.81561 4.4011 10.0508C4.4011 10.4765 4.40155 10.4785 4.47863 10.5079C4.76887 10.6182 5.41035 10.6674 5.74121 10.6047ZM12.6968 10.2097V9.84842H12.1469H11.597V8.60717V7.36598H11.11H10.6229V8.96855V10.5711H11.6599H12.6968V10.2097ZM9.3031 3.87718C10.271 3.81005 10.9965 3.68331 11.635 3.46985C12.271 3.25718 12.6467 2.99986 12.7307 2.71936C12.7631 2.61126 12.7608 2.57026 12.7155 2.45175C12.5127 1.92044 11.3791 1.51222 9.64698 1.34671C8.9061 1.2759 7.5586 1.29886 6.85215 1.39429C5.7742 1.53993 4.89938 1.81046 4.51041 2.11846C3.72355 2.74155 4.55566 3.42686 6.49075 3.74942C7.3298 3.88928 8.41685 3.93867 9.3031 3.87718Z" fill="#DF6C20"/>
</g>
<defs>
<clipPath id="clip0_177_200">
<rect width="16" height="16" fill="white" transform="translate(0.5 0.4375)"/>
</clipPath>
</defs>
</svg>
