<svg width="16" height="17" viewBox="0 0 16 17" fill="none" xmlns="http://www.w3.org/2000/svg">
<g clip-path="url(#clip0_177_202)">
<path d="M7.74301 4.19891C7.86301 4.01703 8.13414 4.01703 8.25864 4.19891L10.8057 7.99578L13.5133 12.0282C13.4813 12.0851 13.4444 12.1391 13.403 12.1895C13.3748 12.2232 13.348 12.255 13.3146 12.2877C13.3073 12.2947 13.3002 12.3002 13.2915 12.3068L13.2821 12.314C13.2515 12.3369 13.2199 12.3585 13.1875 12.3789C13.1612 12.3953 13.1395 12.4098 13.1081 12.4249C13.0769 12.44 13.0268 12.4582 12.9966 12.4685C12.9665 12.4789 12.9564 12.4824 12.9341 12.4873C12.923 12.4895 12.9119 12.4917 12.9008 12.4931C12.8932 12.4944 12.8857 12.4957 12.8781 12.4967C12.8768 12.4971 12.875 12.4971 12.8738 12.4975L12.8399 12.5015C12.8044 12.5051 12.7675 12.5069 12.7297 12.5069C9.58776 12.8495 6.41789 12.8495 3.27595 12.5069C3.27233 12.5069 3.26883 12.5069 3.2652 12.5064H3.25458L3.24964 12.506H3.24483C3.2412 12.5055 3.23764 12.5055 3.23414 12.5051H3.23058C3.22564 12.5047 3.2212 12.5047 3.21639 12.5042C3.18701 12.502 3.15289 12.4946 3.12839 12.4892C3.10383 12.4842 3.0892 12.4802 3.06883 12.4757C2.82695 12.4184 2.60483 12.2726 2.50301 12.0367C2.50033 12.0304 2.49808 12.0242 2.49539 12.018L2.49501 12.0167L0.0140767 5.68909C-0.0526108 5.51134 0.129702 5.33347 0.307389 5.41797C0.311889 5.41797 0.320764 5.41797 0.325264 5.42241L5.19414 7.99572L7.74301 4.19891ZM15.6809 5.42247C15.8591 5.32472 16.0503 5.49353 15.988 5.68022V5.68916L13.5133 12.0283L10.8057 7.99578L15.6765 5.42247H15.6809Z" fill="#FF4B4B"/>
<path d="M15.6818 5.42245H15.6774L10.8066 7.99577L13.5142 12.0283L15.9889 5.68914V5.6802C16.0511 5.49352 15.86 5.3247 15.6818 5.42245Z" fill="#7D353B"/>
<path d="M8.25786 4.19891C8.13336 4.01703 7.86223 4.01703 7.74223 4.19891L5.19336 7.99578L7.99823 9.47847L13.3139 12.2877C13.3472 12.255 13.374 12.2232 13.4022 12.1896C13.4436 12.1391 13.4805 12.0851 13.5125 12.0282L10.805 7.99578L8.25786 4.19891Z" fill="#BD4043"/>
</g>
<defs>
<clipPath id="clip0_177_202">
<rect width="16" height="16" fill="white" transform="translate(0 0.4375)"/>
</clipPath>
</defs>
</svg>
