<svg width="17" height="17" viewBox="0 0 17 17" fill="none" xmlns="http://www.w3.org/2000/svg">
<g clip-path="url(#clip0_177_262)">
<path d="M12.6587 0.4375H3.84127C1.85787 0.4375 0.25 2.04537 0.25 4.02877V12.8462C0.25 14.8296 1.85787 16.4375 3.84127 16.4375H12.6587C14.6421 16.4375 16.25 14.8296 16.25 12.8462V4.02877C16.25 2.04537 14.6421 0.4375 12.6587 0.4375Z" fill="#6772E5"/>
<path fill-rule="evenodd" clip-rule="evenodd" d="M7.62084 6.64463C7.62084 6.26223 7.93674 6.09042 8.44661 6.09042C9.29153 6.1087 10.1206 6.32309 10.8685 6.71668V4.44997C10.099 4.14822 9.27862 3.99769 8.45216 4.0066C6.47917 4.0066 5.16016 5.03743 5.16016 6.77764C5.16016 9.4711 8.86227 9.03327 8.86227 10.1971C8.86227 10.646 8.46878 10.7901 7.9312 10.7901C6.98416 10.7379 6.06215 10.4666 5.23775 9.99759V12.3197C6.07779 12.6827 6.98283 12.8713 7.89795 12.8739C9.92081 12.8739 11.3174 11.8764 11.3174 10.1029C11.334 7.21547 7.62084 7.73642 7.62084 6.64463Z" fill="white"/>
</g>
<defs>
<clipPath id="clip0_177_262">
<rect width="16" height="16" fill="white" transform="translate(0.25 0.4375)"/>
</clipPath>
</defs>
</svg>
