<svg width="17" height="17" viewBox="0 0 17 17" fill="none" xmlns="http://www.w3.org/2000/svg">
<g clip-path="url(#clip0_177_295)">
<path fill-rule="evenodd" clip-rule="evenodd" d="M0.482525 2.10235C0.25 2.55875 0.25 3.15599 0.25 4.35088V13.5241C0.25 14.719 0.25 15.3164 0.482525 15.7726C0.687081 16.1741 1.01344 16.5004 1.41485 16.705C1.87125 16.9375 2.46849 16.9375 3.66338 16.9375H12.8366C14.0315 16.9375 14.6289 16.9375 15.0851 16.705C15.4866 16.5004 15.8129 16.1741 16.0175 15.7726C16.25 15.3164 16.25 14.719 16.25 13.5241V4.35088C16.25 3.15612 16.25 2.55861 16.0175 2.10235C15.8129 1.70094 15.4866 1.37458 15.0851 1.17002C14.6289 0.9375 14.0315 0.9375 12.8366 0.9375H3.66338C2.46862 0.9375 1.87098 0.9375 1.41485 1.17002C1.01344 1.37458 0.687081 1.70094 0.482525 2.10235ZM14.1166 8.9375C14.1166 5.6975 12.475 3.07088 10.45 3.07088C8.42495 3.07088 6.78338 5.6975 6.78338 8.9375H2.38338C2.38338 12.1776 4.02495 14.8041 6.05 14.8041C8.07505 14.8041 9.71662 12.1775 9.71662 8.9375H14.1166Z" fill="black"/>
</g>
<defs>
<clipPath id="clip0_177_295">
<rect width="16" height="16" fill="white" transform="translate(0.25 0.9375)"/>
</clipPath>
</defs>
</svg>
