<svg width="17" height="17" viewBox="0 0 17 17" fill="none" xmlns="http://www.w3.org/2000/svg">
<g clip-path="url(#clip0_177_267)">
<g clip-path="url(#clip1_177_267)">
<path d="M10.0833 16.5529C9.67843 17.0628 8.85749 16.7834 8.84773 16.1324L8.70508 6.61005H15.1079C16.2676 6.61005 16.9144 7.94953 16.1932 8.85779L10.0833 16.5529Z" fill="url(#paint0_linear_177_267)"/>
<path d="M10.0833 16.5529C9.67843 17.0628 8.85749 16.7834 8.84773 16.1324L8.70508 6.61005H15.1079C16.2676 6.61005 16.9144 7.94953 16.1932 8.85779L10.0833 16.5529Z" fill="url(#paint1_linear_177_267)" fill-opacity="0.2"/>
<path d="M7.47948 1.23069C7.88437 0.720755 8.70532 1.00016 8.71508 1.65121L8.77759 11.1735H2.45493C1.29518 11.1735 0.648366 9.83402 1.36953 8.92576L7.47948 1.23069Z" fill="#3ECF8E"/>
</g>
</g>
<defs>
<linearGradient id="paint0_linear_177_267" x1="8.70508" y1="8.72138" x2="14.3957" y2="11.108" gradientUnits="userSpaceOnUse">
<stop stop-color="#249361"/>
<stop offset="1" stop-color="#3ECF8E"/>
</linearGradient>
<linearGradient id="paint1_linear_177_267" x1="6.18218" y1="5.26708" x2="8.77738" y2="10.1524" gradientUnits="userSpaceOnUse">
<stop/>
<stop offset="1" stop-opacity="0"/>
</linearGradient>
<clipPath id="clip0_177_267">
<rect width="16" height="16" fill="white" transform="translate(0.75 0.9375)"/>
</clipPath>
<clipPath id="clip1_177_267">
<rect width="15.4336" height="16" fill="white" transform="translate(1.0625 0.9375)"/>
</clipPath>
</defs>
</svg>
