<svg width="17" height="17" viewBox="0 0 17 17" fill="none" xmlns="http://www.w3.org/2000/svg">
<g clip-path="url(#clip0_177_297)">
<path fill-rule="evenodd" clip-rule="evenodd" d="M8.5 4C6.36667 4 5.03333 5.06667 4.5 7.2C5.3 6.13333 6.23333 5.73333 7.3 6C7.90859 6.152 8.34356 6.59378 8.82504 7.08237C9.60933 7.87852 10.5172 8.8 12.5 8.8C14.6333 8.8 15.9667 7.73333 16.5 5.6C15.7 6.66667 14.7667 7.06667 13.7 6.8C13.0914 6.648 12.6564 6.20622 12.175 5.71763C11.3907 4.92148 10.4828 4 8.5 4ZM4.5 8.8C2.36667 8.8 1.03333 9.86667 0.5 12C1.3 10.9333 2.23333 10.5333 3.3 10.8C3.90859 10.9523 4.34356 11.3938 4.82504 11.8824C5.60933 12.6785 6.51719 13.6 8.5 13.6C10.6333 13.6 11.9667 12.5333 12.5 10.4C11.7 11.4667 10.7667 11.8667 9.7 11.6C9.09141 11.448 8.65644 11.0062 8.17496 10.5176C7.39067 9.72148 6.48281 8.8 4.5 8.8Z" fill="#38BDF8"/>
</g>
<defs>
<clipPath id="clip0_177_297">
<rect width="16" height="16" fill="white" transform="translate(0.5 0.9375)"/>
</clipPath>
</defs>
</svg>
