<svg width="17" height="17" viewBox="0 0 17 17" fill="none" xmlns="http://www.w3.org/2000/svg">
<g clip-path="url(#clip0_177_302)">
<mask id="mask0_177_302" style="mask-type:luminance" maskUnits="userSpaceOnUse" x="9" y="1" width="7" height="16">
<path d="M15.5512 5.06512L9.06445 1.375V16.5391L11.6592 15.0398V10.7732L13.6196 11.8977L13.5908 8.98594L11.6592 7.86147V6.16053L15.5512 8.43794V5.06512Z" fill="white"/>
</mask>
<g mask="url(#mask0_177_302)">
<path d="M1.39453 1.3175H17.3082V16.5682H1.39453V1.3175Z" fill="url(#paint0_linear_177_302)"/>
</g>
<mask id="mask1_177_302" style="mask-type:luminance" maskUnits="userSpaceOnUse" x="2" y="1" width="7" height="16">
<path d="M2 5.06512L8.48647 1.375V16.5391L5.89176 15.0398V6.16053L2 8.43794V5.06512Z" fill="white"/>
</mask>
<g mask="url(#mask1_177_302)">
<path d="M1.30859 1.31757H17.2211V16.5682H1.30859V1.31757Z" fill="url(#paint1_linear_177_302)"/>
</g>
</g>
<defs>
<linearGradient id="paint0_linear_177_302" x1="1.39453" y1="8.94253" x2="17.3082" y2="8.94253" gradientUnits="userSpaceOnUse">
<stop stop-color="#FF6F00"/>
<stop offset="1" stop-color="#FFA800"/>
</linearGradient>
<linearGradient id="paint1_linear_177_302" x1="1.30859" y1="8.94259" x2="17.222" y2="8.94259" gradientUnits="userSpaceOnUse">
<stop stop-color="#FF6F00"/>
<stop offset="1" stop-color="#FFA800"/>
</linearGradient>
<clipPath id="clip0_177_302">
<rect width="16" height="16" fill="white" transform="translate(0.75 0.9375)"/>
</clipPath>
</defs>
</svg>
