<svg width="17" height="17" viewBox="0 0 17 17" fill="none" xmlns="http://www.w3.org/2000/svg">
<g clip-path="url(#clip0_177_639)">
<path d="M15.3128 6.54906H10.4444V4.39331H7.0531V6.54906H2.185C1.93068 6.54906 1.72461 6.75513 1.72461 7.00916C1.72461 7.26319 1.93068 7.46926 2.185 7.46926H7.0531V9.62501H8.18809V10.3234C8.18809 10.4871 8.25988 10.6336 8.37236 10.7362C8.29941 10.7484 8.22296 10.758 8.14681 10.7664C7.82012 10.8045 7.44984 10.8475 7.37165 11.1942L7.36816 11.2236C7.36642 11.3175 7.40101 11.4009 7.46815 11.4654C7.67625 11.6654 8.14652 11.6488 8.89727 11.6041C9.48642 11.5695 10.2197 11.5262 10.4366 11.7238C10.4735 11.7578 10.4912 11.7965 10.4927 11.8494C10.502 12.1333 10.0494 12.1906 9.40853 12.2406C8.89001 12.281 8.40084 12.3193 8.17617 12.583C8.08839 12.6859 8.05003 12.8123 8.06224 12.9594L8.23168 12.9451C8.17385 12.9527 8.11513 12.9599 8.06224 12.9689V13.4447L9.27773 13.4506C10.1822 13.4506 10.6871 13.9502 10.6813 14.8245C10.6813 15.8292 10.1232 16.3454 9.18414 16.3396C9.03737 16.3396 8.88478 16.3396 8.78479 16.3219V14.124H8.06253V16.8622C8.29737 16.8921 8.61447 16.9154 9.03737 16.9154C9.80643 16.9154 10.4351 16.7332 10.8284 16.3751C11.2042 16.0344 11.4448 15.5063 11.4448 14.8015C11.4448 14.1263 11.2103 13.6563 10.8284 13.3453C10.4645 13.0399 9.9535 12.8873 9.2135 12.8873C8.90599 12.8873 8.61215 12.903 8.35289 12.9306C8.34824 12.8643 8.36219 12.814 8.39794 12.7716C8.54384 12.6001 9.01528 12.5632 9.43149 12.5306C10.0741 12.4807 10.8031 12.424 10.7836 11.8401C10.7789 11.7104 10.7275 11.5959 10.6325 11.5099C10.3249 11.2288 9.59076 11.2727 8.88042 11.3146C8.4023 11.343 7.80908 11.3782 7.66346 11.2343C7.71084 11.1192 7.89395 11.0899 8.18053 11.057C8.4084 11.0303 8.6572 10.9998 8.84001 10.876C9.10625 10.8327 9.31 10.6033 9.31 10.3249V9.62618H10.4447V7.47042H15.3131C15.5671 7.47042 15.7732 7.26435 15.7732 7.01032C15.7732 6.7563 15.5668 6.54906 15.3128 6.54906Z" fill="black"/>
<path d="M6.72695 5.64659H6.82344V4.66565H6.72695C6.45577 4.66565 6.23633 4.88509 6.23633 5.15627C6.23633 5.42744 6.45577 5.64659 6.72695 5.64659Z" fill="black"/>
<path d="M10.5957 4.6657V5.64664H10.6922C10.9637 5.64664 11.1828 5.4272 11.1828 5.15602C11.1828 4.88485 10.9634 4.66541 10.6922 4.66541L10.5957 4.6657Z" fill="black"/>
<path d="M8.99602 4.28346L9.07595 4.28259C9.06985 3.7975 9.18146 3.44872 9.41659 3.2162C9.86332 2.77499 10.7306 2.79534 11.5691 2.81655C12.4431 2.83777 13.3473 2.85957 13.8333 2.34948C14.1059 2.06319 14.2181 1.64872 14.1769 1.08312L13.8874 1.10433C13.9223 1.58362 13.8359 1.92542 13.6235 2.14893C13.363 2.42185 12.9288 2.50701 12.4228 2.52794C12.5364 2.46864 12.6414 2.39598 12.7309 2.2992C13.0012 2.00651 13.1105 1.56094 13.0648 0.9375L12.7748 0.958717C12.8146 1.49758 12.73 1.87165 12.517 2.10214C12.1961 2.44888 11.6014 2.45237 10.9713 2.45586C10.2862 2.45993 9.57761 2.46399 9.12943 2.92032C8.83616 3.21852 8.69781 3.66758 8.70537 4.29276L8.99602 4.28899C8.99573 4.28695 8.99602 4.2855 8.99602 4.28346Z" fill="black"/>
<path d="M7.17382 14.8297V14.8181C7.64351 14.6539 7.87836 14.3251 7.87836 13.9255C7.87836 13.4262 7.47319 12.9916 6.68611 12.9916C6.22804 12.9916 5.80515 13.1326 5.58803 13.2852L5.75254 13.8081C5.91095 13.7026 6.22223 13.5674 6.53352 13.5674C6.95031 13.5674 7.14417 13.7848 7.14417 14.0429C7.14417 14.4245 6.72128 14.5774 6.38674 14.5774H6.06383V15.1058H6.39837C6.83899 15.1058 7.2616 15.2997 7.2616 15.7517C7.26741 16.0513 7.04419 16.3629 6.49254 16.3629C6.12864 16.3629 5.77027 16.2158 5.62349 16.1275L5.45898 16.6739C5.66447 16.809 6.06383 16.9378 6.5277 16.9378C7.47319 16.9378 8.01351 16.4271 8.01351 15.7813C8.01351 15.2642 7.6377 14.912 7.17382 14.8297Z" fill="black"/>
</g>
<defs>
<clipPath id="clip0_177_639">
<rect width="16" height="16" fill="white" transform="translate(0.75 0.9375)"/>
</clipPath>
</defs>
</svg>
