<svg width="16" height="17" viewBox="0 0 16 17" fill="none" xmlns="http://www.w3.org/2000/svg">
<g clip-path="url(#clip0_177_315)">
<path fill-rule="evenodd" clip-rule="evenodd" d="M14.1006 0.9375H1.90198C0.852563 0.9375 0.00144521 1.78747 1.53326e-05 2.83688V15.0176C-0.00201396 15.5233 0.197466 16.0091 0.554372 16.3674C0.911281 16.7258 1.39621 16.9272 1.90198 16.9272H14.1006C14.6059 16.9265 15.0902 16.7247 15.4465 16.3665C15.8029 16.0082 16.002 15.5229 16 15.0176V2.83688C15.9986 1.78847 15.149 0.938912 14.1006 0.9375ZM6.90037 12.4543C6.89969 12.6233 6.83169 12.7851 6.71144 12.9039C6.59119 13.0227 6.42856 13.0888 6.25956 13.0874H3.59374C3.24507 13.086 2.96318 12.8029 2.96318 12.4543V4.52095C2.96318 4.17229 3.24507 3.88924 3.59374 3.88783H6.25956C6.60862 3.88923 6.89125 4.17187 6.89269 4.52095L6.90037 12.4543ZM13.0522 8.81187C13.0522 8.98112 12.9844 9.14331 12.8641 9.26231C12.7436 9.38125 12.5806 9.44706 12.4114 9.44506H9.74556C9.3965 9.44356 9.11387 9.16094 9.11244 8.81187V4.52095C9.11387 4.17187 9.3965 3.88923 9.74556 3.88783H12.4114C12.7601 3.88924 13.0419 4.17229 13.0419 4.52095L13.0522 8.81187Z" fill="url(#paint0_linear_177_315)"/>
</g>
<defs>
<linearGradient id="paint0_linear_177_315" x1="2498.4" y1="1024.28" x2="2498.4" y2="0.9375" gradientUnits="userSpaceOnUse">
<stop stop-color="#0052CC"/>
<stop offset="1" stop-color="#2684FF"/>
</linearGradient>
<clipPath id="clip0_177_315">
<rect width="16" height="16" fill="white" transform="translate(0 0.9375)"/>
</clipPath>
</defs>
</svg>
