<svg width="16" height="17" viewBox="0 0 16 17" fill="none" xmlns="http://www.w3.org/2000/svg">
<g clip-path="url(#clip0_177_317)">
<mask id="mask0_177_317" style="mask-type:luminance" maskUnits="userSpaceOnUse" x="0" y="0" width="16" height="17">
<path d="M16 0.9375H0V16.9375H16V0.9375Z" fill="white"/>
</mask>
<g mask="url(#mask0_177_317)">
<path d="M14.4375 0.9375H1.5625C0.699555 0.9375 0 1.63705 0 2.5V15.375C0 16.2379 0.699555 16.9375 1.5625 16.9375H14.4375C15.3004 16.9375 16 16.2379 16 15.375V2.5C16 1.63705 15.3004 0.9375 14.4375 0.9375Z" fill="#3178C6"/>
<path d="M14.4375 0.9375H1.5625C0.699555 0.9375 0 1.63705 0 2.5V15.375C0 16.2379 0.699555 16.9375 1.5625 16.9375H14.4375C15.3004 16.9375 16 16.2379 16 15.375V2.5C16 1.63705 15.3004 0.9375 14.4375 0.9375Z" fill="#3178C6"/>
<path fill-rule="evenodd" clip-rule="evenodd" d="M9.90434 13.6695V15.2339C10.1587 15.3643 10.4594 15.462 10.8067 15.5272C11.1539 15.5924 11.5199 15.625 11.9047 15.625C12.2796 15.625 12.6358 15.5892 12.9733 15.5174C13.3107 15.4458 13.6067 15.3276 13.861 15.163C14.1153 14.9984 14.3166 14.7833 14.465 14.5177C14.6133 14.2521 14.6875 13.9237 14.6875 13.5326C14.6875 13.2491 14.6451 13.0006 14.5603 12.7871C14.4756 12.5736 14.3533 12.3838 14.1935 12.2176C14.0338 12.0513 13.8422 11.9022 13.6189 11.7702C13.3955 11.6382 13.1437 11.5136 12.8632 11.3962C12.6578 11.3115 12.4736 11.2292 12.3106 11.1494C12.1476 11.0695 12.009 10.988 11.8949 10.9049C11.7807 10.8218 11.6927 10.7338 11.6308 10.6409C11.5688 10.548 11.5378 10.4429 11.5378 10.3256C11.5378 10.2181 11.5656 10.1211 11.621 10.0347C11.6764 9.94834 11.7547 9.87422 11.8558 9.81228C11.9568 9.75038 12.0807 9.70228 12.2274 9.66806C12.3742 9.63384 12.5372 9.61675 12.7165 9.61675C12.8469 9.61675 12.9847 9.62653 13.1298 9.64606C13.2749 9.66563 13.4208 9.69578 13.5675 9.7365C13.7143 9.77725 13.8569 9.82859 13.9955 9.8905C14.134 9.95244 14.262 10.0241 14.3794 10.1056V8.64388C14.1414 8.55263 13.8813 8.485 13.5993 8.441C13.3173 8.397 12.9937 8.375 12.6285 8.375C12.2568 8.375 11.9047 8.41494 11.5721 8.49478C11.2395 8.57462 10.9469 8.69928 10.6942 8.86875C10.4415 9.03825 10.2418 9.25416 10.0951 9.51653C9.94837 9.77887 9.875 10.0926 9.875 10.4576C9.875 10.9237 10.0095 11.3213 10.2785 11.6505C10.5475 11.9796 10.9558 12.2583 11.5036 12.4864C11.7188 12.5744 11.9193 12.6608 12.1052 12.7455C12.291 12.8303 12.4516 12.9183 12.5869 13.0095C12.7222 13.1008 12.829 13.2002 12.9073 13.3077C12.9855 13.4153 13.0247 13.5375 13.0247 13.6744C13.0247 13.7754 13.0002 13.8691 12.9513 13.9555C12.9024 14.0419 12.8282 14.1168 12.7288 14.1804C12.6293 14.2439 12.5054 14.2936 12.3571 14.3295C12.2087 14.3653 12.0351 14.3833 11.8362 14.3833C11.4971 14.3833 11.1613 14.3238 10.8287 14.2048C10.4961 14.0859 10.188 13.9074 9.90434 13.6695ZM7.27437 9.81506H9.28125V8.53125H3.6875V9.81506H5.68456V15.5313H7.27437V9.81506Z" fill="white"/>
</g>
</g>
<defs>
<clipPath id="clip0_177_317">
<rect width="16" height="16" fill="white" transform="translate(0 0.9375)"/>
</clipPath>
</defs>
</svg>
