<svg width="17" height="17" viewBox="0 0 17 17" fill="none" xmlns="http://www.w3.org/2000/svg">
<g clip-path="url(#clip0_177_277)">
<mask id="mask0_177_277" style="mask-type:luminance" maskUnits="userSpaceOnUse" x="1" y="0" width="15" height="17">
<path d="M15.6005 0.9375H1.4375V16.9375H15.6005V0.9375Z" fill="white"/>
</mask>
<g mask="url(#mask0_177_277)">
<path d="M15.5957 12.1319V4.66899L9.13294 0.9375V3.80274L11.6648 5.26864C11.7647 5.33526 11.7647 5.46861 11.6648 5.50192L8.6665 7.23431C8.56656 7.30094 8.46663 7.26763 8.4 7.23431L5.40181 5.50192C5.30187 5.46861 5.30187 5.30195 5.40181 5.26864L7.93363 3.80274V0.9375L1.4375 4.66899V12.1319L3.9027 10.6993V7.76744C3.9027 7.6675 4.03596 7.60088 4.10258 7.63419L7.10079 9.36656C7.20074 9.43319 7.23405 9.49994 7.23405 9.59988V13.0647C7.23405 13.1647 7.10079 13.2313 7.03417 13.198L4.50234 11.7321L2.03714 13.1647L8.49994 16.9295L14.9628 13.198L12.4976 11.7654L9.96575 13.2313C9.86581 13.2979 9.76587 13.2313 9.76587 13.0981V9.63319C9.76587 9.53325 9.8325 9.43319 9.89913 9.39987L12.8974 7.6675C12.9973 7.60088 13.0972 7.6675 13.0972 7.80075V10.7326L15.5957 12.1319Z" fill="#CCCCCC"/>
<path d="M8.5 16.9295L14.9629 13.198L12.4976 11.7654L9.96581 13.2313C9.86587 13.298 9.76594 13.2313 9.76594 13.0981V9.6332C9.76594 9.53326 9.83256 9.4332 9.89919 9.39989L12.8974 7.66751C12.9974 7.60089 13.0973 7.66751 13.0973 7.80076V10.7326L15.5625 12.1652V4.66901L8.5 8.76695V16.9295Z" fill="#A6A6A6"/>
<path d="M9.13294 0.9375V3.80274L11.6648 5.26864C11.7647 5.33526 11.7647 5.46861 11.6648 5.50192L8.6665 7.23431C8.56656 7.30094 8.46663 7.26763 8.4 7.23431L5.40181 5.50192C5.30187 5.46861 5.30187 5.30195 5.40181 5.26864L7.93363 3.80274V0.9375L1.4375 4.66899L8.49994 8.76694L15.5624 4.66899L9.13294 0.9375Z" fill="white"/>
<path d="M7.06748 13.2313L4.53566 11.7654L2.07046 13.198L8.53325 16.9295V8.76695L1.4375 4.66901V12.1319L3.9027 10.6993V7.76745C3.9027 7.66751 4.03596 7.60089 4.10258 7.6342L7.10079 9.36658C7.20074 9.4332 7.23405 9.49995 7.23405 9.59989V13.0648C7.26736 13.198 7.16742 13.298 7.06748 13.2313Z" fill="#CCCCCC"/>
</g>
</g>
<defs>
<clipPath id="clip0_177_277">
<rect width="16" height="16" fill="white" transform="translate(0.5 0.9375)"/>
</clipPath>
</defs>
</svg>
