<svg width="17" height="17" viewBox="0 0 17 17" fill="none" xmlns="http://www.w3.org/2000/svg">
<g clip-path="url(#clip0_177_663)">
<path d="M5.58547 3.67402C5.58547 3.67402 4.99252 4.01635 4.99252 4.69995C4.99252 5.38461 4.99252 8.11686 4.99252 8.11686C4.99252 8.11686 4.99252 8.80153 4.39957 8.4592C3.80662 8.11686 3.80662 7.43327 3.80662 7.43327C3.80662 7.43327 3.80662 4.69995 3.80662 4.01635C3.80662 3.97369 3.80875 3.9321 3.81302 3.89158C3.87807 3.2901 4.3985 2.98936 4.3985 2.98936L3.21367 2.30576C3.21367 2.30576 3.21261 2.30576 3.21154 2.30683C3.17635 2.32709 2.62073 2.66942 2.62073 3.33169C2.62073 4.01635 2.62073 6.7486 2.62073 6.7486C2.62073 6.7486 2.62073 7.43327 2.02778 7.09094C1.43483 6.7486 1.43483 6.06501 1.43483 6.06501C1.43483 6.06501 1.43483 3.33169 1.43483 2.64809C1.43483 1.96449 2.02778 1.62216 2.02778 1.62216L0.842948 0.9375C0.842948 0.9375 0.25 1.27983 0.25 1.96343C0.25 2.64809 0.25 5.38034 0.25 5.38034C0.25 5.38034 0.25 7.43327 2.02778 8.4592C2.57274 8.7738 2.95026 8.79833 3.21261 8.68208C3.47495 9.1012 3.85248 9.51285 4.39744 9.82746C6.17521 10.8534 6.17521 8.80153 6.17521 8.80153C6.17521 8.80153 6.17521 6.06821 6.17521 5.38461C6.17521 4.69995 6.76816 4.35868 6.76816 4.35868C6.5859 4.12941 6.42383 3.97371 6.28196 3.89158C6.16101 3.82156 5.92885 3.74904 5.58547 3.67402Z" fill="#808285"/>
<path d="M12.1028 9.48831C12.1028 7.46205 13.8806 8.46238 13.8806 8.46238L16.2502 9.83064V11.1989L13.8806 9.83064C13.8806 9.83064 13.8731 9.82633 13.8598 9.81964L13.852 9.81577C13.7337 9.75791 13.2876 9.57927 13.2876 10.174C13.2876 10.8576 13.8806 11.2 13.8806 11.2L15.0654 11.8836C15.0654 11.8836 16.2502 12.5682 16.2502 14.6201C16.2502 16.6719 14.4724 15.646 14.4724 15.646L12.1028 14.2777V12.9095L14.4735 14.2777C14.4735 14.2777 15.0665 14.6201 15.0665 13.9354C15.0665 13.2518 14.4735 12.9095 14.4735 12.9095L13.8806 12.5672C13.8452 12.546 12.1028 11.4943 12.1028 9.48831ZM10.325 6.41052C10.6793 6.45124 10.9195 6.50803 11.0456 6.58089C11.1828 6.66018 11.3376 6.83161 11.5098 7.09519C11.5098 7.09519 10.9169 7.43752 10.9169 8.12111L10.9168 11.5434C10.9153 11.6584 10.8636 13.5591 9.13911 12.564C7.41466 11.5688 7.36293 9.60736 7.36138 9.49057L7.36133 9.48511L8.54616 10.1698L8.54618 10.1721C8.54683 10.2155 8.56615 10.8649 9.13911 11.1957C9.7139 11.5276 9.7315 10.8943 9.73204 10.8552L9.73205 7.43645C9.73205 6.75285 10.325 6.41052 10.325 6.41052ZM7.36346 6.76032L8.54829 7.44392V8.81218L7.36346 8.12858V6.76032Z" fill="#BCBEC0"/>
<path d="M13.8808 3.67403C13.3348 3.35836 12.8453 3.20479 12.4283 3.14294C12.3195 2.90512 12.0529 2.62571 11.5112 2.31644C9.73337 1.30117 7.95666 2.30577 7.95666 2.30577L5.58594 3.67403L6.77077 4.35763L9.14043 2.98937C9.14043 2.98937 9.73337 2.64704 10.3253 2.98937C10.9182 3.3317 10.3253 3.67403 10.3253 3.67403L7.9556 5.04229L9.14043 5.72589L11.5122 4.35656C11.5474 4.3363 12.1212 4.02596 12.6949 4.35763C13.2879 4.69996 12.6949 5.04122 12.6949 5.04122L10.3253 6.40948L11.5101 7.09415L14.4727 5.38356C14.4727 5.38356 15.6575 4.69996 13.8808 3.67403Z" fill="#F16822"/>
</g>
<defs>
<clipPath id="clip0_177_663">
<rect width="16" height="16" fill="white" transform="translate(0.25 0.4375)"/>
</clipPath>
</defs>
</svg>
