<svg width="16" height="17" viewBox="0 0 16 17" fill="none" xmlns="http://www.w3.org/2000/svg">
<g clip-path="url(#clip0_177_671)">
<path d="M8.00501 0.4375C8.45694 0.43833 8.90141 0.47652 9.33348 0.548749V5.20625L12.6354 1.91279C13.0001 2.17181 13.3413 2.4599 13.6567 2.77455C13.9723 3.08921 14.262 3.43043 14.5217 3.79406L11.2196 7.08752H15.8892C15.9617 7.5184 16 7.96008 16 8.41171V8.4225C16 8.87414 15.9617 9.31665 15.8892 9.74753H11.2188L14.5217 13.0402C14.262 13.4038 13.9723 13.745 13.6577 14.0597H13.6567C13.3413 14.3743 13.0001 14.6632 12.6364 14.9214L9.33348 11.628V16.2855C8.9022 16.3577 8.45774 16.3958 8.0058 16.3968H7.9942C7.54211 16.3958 7.09939 16.3577 6.66732 16.2855V11.628L3.36536 14.9214C2.63613 14.4042 1.99859 13.7674 1.47912 13.0402L4.78123 9.74753H0.111554C0.0382969 9.31581 0 8.87164 0 8.42001V8.39683C0.000759093 8.27963 0.00843374 8.13644 0.019457 7.98831L0.0228608 7.94375C0.0554998 7.5268 0.111554 7.08752 0.111554 7.08752H4.78123L1.47912 3.79406C1.73798 3.43043 2.02688 3.09003 2.34231 2.77622L2.3439 2.77455C2.65869 2.4599 3.00067 2.17181 3.36536 1.91279L6.66732 5.20625V0.548749C7.09939 0.47652 7.54306 0.43833 7.99579 0.4375H8.00501ZM8.00421 6.42252H7.99658C7.40227 6.42252 6.83306 6.53127 6.30691 6.72886C6.10971 7.25273 6.00054 7.82059 5.99974 8.41337V8.42084C6.00054 9.01361 6.10971 9.58149 6.30771 10.1053C6.83306 10.3029 7.40227 10.4117 7.99658 10.4117H8.00421C8.59853 10.4117 9.16774 10.3029 9.69309 10.1053C9.89109 9.58066 10.0003 9.01361 10.0003 8.42084V8.41337C10.0003 7.82059 9.89109 7.25273 9.69309 6.72886C9.16774 6.53127 8.59853 6.42252 8.00421 6.42252Z" fill="#FF4A00"/>
</g>
<defs>
<clipPath id="clip0_177_671">
<rect width="16" height="16" fill="white" transform="translate(0 0.4375)"/>
</clipPath>
</defs>
</svg>
