<svg width="16" height="16" viewBox="0 0 16 16" fill="none" xmlns="http://www.w3.org/2000/svg">
<path d="M14.7693 3.85321H7.87695V6.64295H14.7693V3.85321Z" fill="white"/>
<path d="M1.64103 12.9609C1.03401 12.9609 0.50519 12.6305 0.221292 12.1404C0.0813949 12.3819 0 12.6617 0 12.9609C0 13.8672 0.734687 14.6019 1.64103 14.6019H3.28205V12.9609H1.64103Z" fill="#3ECC5F"/>
<path d="M9.02471 4.29434L14.7699 3.93528V3.11477C14.7699 2.20843 14.0352 1.47374 13.1289 1.47374H5.7443L5.53917 1.11846C5.44793 0.960513 5.22007 0.960513 5.12891 1.11846L4.92378 1.47374L4.71866 1.11846C4.62742 0.960513 4.39956 0.960513 4.3084 1.11846L4.10327 1.47374L3.89814 1.11846C3.8069 0.960513 3.57905 0.960513 3.48789 1.11846L3.28276 1.47374C3.28095 1.47374 3.27923 1.47399 3.27743 1.47399L2.93757 1.13422C2.80867 1.00531 2.5886 1.06423 2.54134 1.24039L2.4291 1.65918L2.003 1.54496C1.82684 1.49778 1.66569 1.65893 1.71295 1.8351L1.82709 2.26119L1.40838 2.37335C1.23221 2.42062 1.17322 2.64076 1.30212 2.76966L1.6419 3.10952C1.6419 3.11124 1.64173 3.11296 1.64173 3.11477L1.28637 3.3199C1.1285 3.41106 1.1285 3.639 1.28637 3.73015L1.64173 3.93528L1.28637 4.14041C1.1285 4.23157 1.1285 4.45951 1.28637 4.55067L1.64173 4.7558L1.28637 4.96092C1.1285 5.05208 1.1285 5.28002 1.28637 5.37118L1.64173 5.57631L1.28637 5.78144C1.1285 5.87259 1.1285 6.10053 1.28637 6.19169L1.64173 6.39682L1.28637 6.60195C1.1285 6.69311 1.1285 6.92105 1.28637 7.01221L1.64173 7.21733L1.28637 7.42246C1.1285 7.51362 1.1285 7.74156 1.28637 7.83272L1.64173 8.03785L1.28637 8.24297C1.1285 8.33413 1.1285 8.56207 1.28637 8.65323L1.64173 8.85836L1.28637 9.06349C1.1285 9.15465 1.1285 9.38258 1.28637 9.47374L1.64173 9.67887L1.28637 9.884C1.1285 9.97516 1.1285 10.2031 1.28637 10.2943L1.64173 10.4994L1.28637 10.7045C1.1285 10.7957 1.1285 11.0236 1.28637 11.1148L1.64173 11.3199L1.28637 11.525C1.1285 11.6162 1.1285 11.8441 1.28637 11.9353L1.64173 12.1404L1.28637 12.3455C1.1285 12.4367 1.1285 12.6646 1.28637 12.7558L1.64173 12.9609C1.64173 13.8673 2.37642 14.6019 3.28276 14.6019H13.1289C14.0352 14.6019 14.7699 13.8673 14.7699 12.9609V6.39682L9.02471 6.03776C8.5644 6.00896 8.20584 5.62726 8.20584 5.16605C8.20584 4.70484 8.5644 4.32314 9.02471 4.29434Z" fill="#3ECC5F"/>
<path d="M11.4863 14.6019H13.9479V11.3199H11.4863V14.6019Z" fill="#3ECC5F"/>
<path d="M15.5906 12.5507C15.5727 12.5507 15.5555 12.5537 15.5382 12.5559C15.5351 12.5436 15.5321 12.5312 15.5287 12.5189C15.6769 12.4571 15.781 12.311 15.781 12.1404C15.781 11.9138 15.5974 11.7302 15.3707 11.7302C15.2774 11.7302 15.1923 11.7627 15.1233 11.8152C15.1142 11.8059 15.1051 11.7967 15.0958 11.7876C15.1472 11.719 15.1787 11.6348 15.1787 11.5425C15.1787 11.3159 14.9951 11.1323 14.7685 11.1323C14.5991 11.1323 14.4537 11.2351 14.3911 11.3818C14.379 11.3783 14.3668 11.3755 14.3546 11.3724C14.3568 11.355 14.3599 11.3379 14.3599 11.3199C14.3599 11.0933 14.1762 10.9097 13.9496 10.9097C13.723 10.9097 13.5394 11.0933 13.5394 11.3199C13.5394 11.3379 13.5424 11.355 13.5446 11.3724C13.5325 11.3755 13.5202 11.3783 13.5081 11.3818C13.4456 11.2351 13.3002 11.1323 13.1307 11.1323C12.9041 11.1323 12.7205 11.3159 12.7205 11.5425C12.7205 11.6348 12.752 11.719 12.8034 11.7876C12.4985 12.0856 12.3086 12.5009 12.3086 12.9609C12.3086 13.8673 13.0433 14.602 13.9496 14.602C14.7159 14.602 15.3576 14.076 15.5382 13.366C15.5555 13.3682 15.5727 13.3712 15.5906 13.3712C15.8173 13.3712 16.0009 13.1876 16.0009 12.9609C16.0009 12.7343 15.8173 12.5507 15.5906 12.5507Z" fill="#44D860"/>
<path d="M12.3086 9.67887H14.7701V8.03784H12.3086V9.67887Z" fill="#3ECC5F"/>
<path d="M15.5902 9.06348C15.7036 9.06348 15.7954 8.97166 15.7954 8.85835C15.7954 8.74504 15.7036 8.65322 15.5902 8.65322C15.5813 8.65322 15.5727 8.65478 15.5641 8.65585C15.5624 8.64969 15.561 8.64354 15.5593 8.63739C15.6333 8.60645 15.6854 8.53334 15.6854 8.44809C15.6854 8.33478 15.5936 8.24296 15.4803 8.24296C15.4336 8.24296 15.391 8.25913 15.3566 8.28547C15.352 8.28079 15.3475 8.2762 15.3428 8.27168C15.3685 8.23747 15.3843 8.19529 15.3843 8.1491C15.3843 8.03587 15.2925 7.94397 15.1792 7.94397C15.0944 7.94397 15.0217 7.99542 14.9904 8.06877C14.9201 8.04916 14.8464 8.03784 14.7697 8.03784C14.3166 8.03784 13.9492 8.40526 13.9492 8.85835C13.9492 9.31144 14.3166 9.67886 14.7697 9.67886C14.8464 9.67886 14.9201 9.66754 14.9904 9.64793C15.0217 9.72128 15.0944 9.77273 15.1792 9.77273C15.2925 9.77273 15.3843 9.68083 15.3843 9.5676C15.3843 9.52141 15.3685 9.47923 15.3428 9.44502C15.3475 9.4405 15.352 9.43591 15.3566 9.43123C15.391 9.45757 15.4336 9.47373 15.4803 9.47373C15.5936 9.47373 15.6854 9.38192 15.6854 9.26861C15.6854 9.18335 15.6333 9.11025 15.5593 9.07931C15.561 9.07324 15.5624 9.06701 15.5641 9.06085C15.5727 9.06192 15.5813 9.06348 15.5902 9.06348Z" fill="#44D860"/>
<path d="M4.92233 4.14044C4.80901 4.14044 4.7172 4.04862 4.7172 3.93531C4.7172 3.59594 4.44118 3.31992 4.10181 3.31992C3.76245 3.31992 3.48643 3.59594 3.48643 3.93531C3.48643 4.04862 3.39461 4.14044 3.2813 4.14044C3.16799 4.14044 3.07617 4.04862 3.07617 3.93531C3.07617 3.36973 3.53623 2.90967 4.10181 2.90967C4.66739 2.90967 5.12745 3.36973 5.12745 3.93531C5.12745 4.04862 5.03564 4.14044 4.92233 4.14044Z" fill="black"/>
<path d="M8.20508 14.602H13.1282C14.0345 14.602 14.7692 13.8673 14.7692 12.9609V7.21735H9.8461C8.93977 7.21735 8.20508 7.95203 8.20508 8.85837V14.602Z" fill="#FFFF50"/>
<path d="M13.5394 9.7609H9.43361C9.38824 9.7609 9.35156 9.72423 9.35156 9.67885C9.35156 9.63348 9.38824 9.5968 9.43361 9.5968H13.5394C13.5848 9.5968 13.6214 9.63348 13.6214 9.67885C13.6214 9.72423 13.5848 9.7609 13.5394 9.7609Z" fill="black"/>
<path d="M13.5394 11.402H9.43361C9.38824 11.402 9.35156 11.3653 9.35156 11.3199C9.35156 11.2745 9.38824 11.2379 9.43361 11.2379H13.5394C13.5848 11.2379 13.6214 11.2745 13.6214 11.3199C13.6214 11.3653 13.5848 11.402 13.5394 11.402Z" fill="black"/>
<path d="M13.5394 13.0429H9.43361C9.38824 13.0429 9.35156 13.0063 9.35156 12.9609C9.35156 12.9155 9.38824 12.8788 9.43361 12.8788H13.5394C13.5848 12.8788 13.6214 12.9155 13.6214 12.9609C13.6214 13.0063 13.5848 13.0429 13.5394 13.0429Z" fill="black"/>
<path d="M13.5394 8.95561H9.43361C9.38824 8.95561 9.35156 8.91885 9.35156 8.87356C9.35156 8.82818 9.38824 8.7915 9.43361 8.7915H13.5394C13.5848 8.7915 13.6214 8.82818 13.6214 8.87356C13.6214 8.91885 13.5848 8.95561 13.5394 8.95561Z" fill="black"/>
<path d="M13.5394 10.5815H9.43361C9.38824 10.5815 9.35156 10.5448 9.35156 10.4994C9.35156 10.454 9.38824 10.4174 9.43361 10.4174H13.5394C13.5848 10.4174 13.6214 10.454 13.6214 10.4994C13.6214 10.5448 13.5848 10.5815 13.5394 10.5815Z" fill="black"/>
<path d="M13.5394 12.2225H9.43361C9.38824 12.2225 9.35156 12.1858 9.35156 12.1404C9.35156 12.095 9.38824 12.0583 9.43361 12.0583H13.5394C13.5848 12.0583 13.6214 12.095 13.6214 12.1404C13.6214 12.1858 13.5848 12.2225 13.5394 12.2225Z" fill="black"/>
<path d="M14.769 4.64184C14.768 4.64184 14.7672 4.64135 14.7662 4.64143C14.5127 4.65004 14.3927 4.90366 14.2868 5.12742C14.1764 5.36118 14.091 5.5133 13.951 5.50871C13.796 5.50313 13.7074 5.32803 13.6135 5.14268C13.5057 4.92992 13.3826 4.68853 13.1243 4.69755C12.8743 4.70608 12.754 4.9268 12.6478 5.12151C12.5348 5.32894 12.4579 5.45505 12.3097 5.44922C12.1515 5.44348 12.0675 5.30112 11.9703 5.13636C11.8619 4.95289 11.7366 4.74662 11.4832 4.75367C11.2376 4.76213 11.1169 4.94937 11.0104 5.1147C10.8977 5.28947 10.8188 5.39597 10.6686 5.38965C10.5067 5.38383 10.4231 5.26576 10.3264 5.12898C10.2178 4.97529 10.0953 4.80135 9.8427 4.8098C9.60245 4.818 9.48176 4.97136 9.37534 5.10666C9.27425 5.23499 9.19532 5.33657 9.02834 5.33017C8.98305 5.32836 8.94506 5.36389 8.94342 5.40926C8.9417 5.45447 8.97714 5.49255 9.02243 5.49427C9.26998 5.50256 9.39536 5.34649 9.50424 5.20816C9.60081 5.08541 9.68418 4.97948 9.84828 4.9739C10.0063 4.96717 10.0804 5.06539 10.1925 5.22375C10.2989 5.37423 10.4197 5.54489 10.6627 5.55367C10.9173 5.56221 11.0398 5.37193 11.1483 5.20356C11.2453 5.05308 11.329 4.92319 11.4888 4.91769C11.6359 4.9122 11.716 5.02846 11.8289 5.21973C11.9353 5.39999 12.0559 5.60422 12.3037 5.61324C12.5602 5.6221 12.684 5.39819 12.7919 5.20011C12.8853 5.02879 12.9735 4.8669 13.1298 4.86157C13.277 4.85813 13.3537 4.99244 13.4672 5.21685C13.5732 5.42633 13.6934 5.66362 13.9451 5.67273C13.9498 5.67289 13.9544 5.67298 13.959 5.67298C14.2104 5.67298 14.3297 5.42067 14.4353 5.19757C14.5287 4.99983 14.6172 4.81349 14.769 4.80594V4.64184Z" fill="black"/>
<path d="M6.56445 14.6019H9.84651V11.3199H6.56445V14.6019Z" fill="#3ECC5F"/>
<path d="M11.4871 12.5507C11.4692 12.5507 11.452 12.5537 11.4347 12.5559C11.4316 12.5436 11.4286 12.5312 11.4252 12.5189C11.5734 12.4571 11.6775 12.311 11.6775 12.1404C11.6775 11.9138 11.4939 11.7302 11.2672 11.7302C11.1739 11.7302 11.0888 11.7627 11.0198 11.8152C11.0107 11.8059 11.0016 11.7967 10.9923 11.7876C11.0437 11.719 11.0752 11.6348 11.0752 11.5425C11.0752 11.3159 10.8916 11.1323 10.665 11.1323C10.4955 11.1323 10.3501 11.2351 10.2876 11.3818C10.2755 11.3783 10.2633 11.3755 10.2511 11.3724C10.2533 11.355 10.2564 11.3379 10.2564 11.3199C10.2564 11.0933 10.0727 10.9097 9.8461 10.9097C9.61948 10.9097 9.43585 11.0933 9.43585 11.3199C9.43585 11.3379 9.43888 11.355 9.4411 11.3724C9.42896 11.3755 9.41673 11.3783 9.40459 11.3818C9.34206 11.2351 9.19667 11.1323 9.02723 11.1323C8.80061 11.1323 8.61698 11.3159 8.61698 11.5425C8.61698 11.6348 8.64848 11.719 8.69993 11.7876C8.39495 12.0856 8.20508 12.5009 8.20508 12.9609C8.20508 13.8673 8.93977 14.602 9.8461 14.602C10.6124 14.602 11.2541 14.076 11.4347 13.366C11.452 13.3682 11.4692 13.3712 11.4871 13.3712C11.7138 13.3712 11.8974 13.1876 11.8974 12.9609C11.8974 12.7343 11.7138 12.5507 11.4871 12.5507Z" fill="#44D860"/>
<path d="M6.56445 9.67887H9.84651V8.03784H6.56445V9.67887Z" fill="#3ECC5F"/>
<path d="M10.6664 9.06348C10.7797 9.06348 10.8715 8.97166 10.8715 8.85835C10.8715 8.74504 10.7797 8.65322 10.6664 8.65322C10.6575 8.65322 10.6489 8.65478 10.6402 8.65585C10.6386 8.64969 10.6372 8.64354 10.6355 8.63739C10.7095 8.60645 10.7616 8.53334 10.7616 8.44809C10.7616 8.33478 10.6698 8.24296 10.5565 8.24296C10.5098 8.24296 10.4672 8.25913 10.4327 8.28547C10.4282 8.28079 10.4236 8.2762 10.4189 8.27168C10.4447 8.23747 10.4605 8.19529 10.4605 8.1491C10.4605 8.03587 10.3687 7.94397 10.2553 7.94397C10.1706 7.94397 10.0979 7.99542 10.0666 8.06877C9.9963 8.04916 9.92254 8.03784 9.8459 8.03784C9.39282 8.03784 9.02539 8.40526 9.02539 8.85835C9.02539 9.31144 9.39282 9.67886 9.8459 9.67886C9.92254 9.67886 9.9963 9.66754 10.0666 9.64793C10.0979 9.72128 10.1706 9.77273 10.2553 9.77273C10.3687 9.77273 10.4605 9.68083 10.4605 9.5676C10.4605 9.52141 10.4447 9.47923 10.4189 9.44502C10.4236 9.4405 10.4282 9.43591 10.4327 9.43123C10.4672 9.45757 10.5098 9.47373 10.5565 9.47373C10.6698 9.47373 10.7616 9.38192 10.7616 9.26861C10.7616 9.18335 10.7095 9.11025 10.6355 9.07931C10.6372 9.07324 10.6386 9.06701 10.6402 9.06085C10.6489 9.06192 10.6575 9.06348 10.6664 9.06348Z" fill="#44D860"/>
<path d="M11.4864 3.01221C11.4733 3.01221 11.4593 3.01057 11.4462 3.0081C11.433 3.00564 11.4198 3.00154 11.4076 2.99662C11.3953 2.99169 11.3838 2.98513 11.3722 2.97775C11.3616 2.97036 11.351 2.96134 11.3411 2.95231C11.3321 2.94246 11.3231 2.93262 11.3157 2.92113C11.3083 2.90964 11.3018 2.89816 11.2968 2.88585C11.2919 2.87354 11.2878 2.86041 11.2854 2.84728C11.2829 2.83416 11.2812 2.82021 11.2812 2.80708C11.2812 2.79395 11.2829 2.78 11.2854 2.76687C11.2878 2.75375 11.2919 2.74144 11.2968 2.72831C11.3018 2.716 11.3083 2.70451 11.3157 2.69303C11.3231 2.68236 11.3321 2.67169 11.3411 2.66185C11.351 2.65282 11.3616 2.6438 11.3722 2.63641C11.3838 2.62903 11.3953 2.62246 11.4076 2.61754C11.4198 2.61262 11.433 2.60851 11.4462 2.60605C11.4724 2.60031 11.4995 2.60031 11.5266 2.60605C11.5396 2.60851 11.5528 2.61262 11.5651 2.61754C11.5774 2.62246 11.5889 2.62903 11.6004 2.63641C11.6111 2.6438 11.6217 2.65282 11.6316 2.66185C11.6406 2.67169 11.6497 2.68236 11.657 2.69303C11.6644 2.70451 11.671 2.716 11.6759 2.72831C11.6808 2.74144 11.6849 2.75375 11.6874 2.76687C11.6898 2.78 11.6915 2.79395 11.6915 2.80708C11.6915 2.86123 11.6693 2.91457 11.6316 2.95231C11.6217 2.96134 11.6111 2.97036 11.6004 2.97775C11.5889 2.98513 11.5774 2.99169 11.5651 2.99662C11.5528 3.00154 11.5396 3.00564 11.5266 3.0081C11.5135 3.01057 11.4995 3.01221 11.4864 3.01221Z" fill="black"/>
<path d="M13.129 2.90967C13.0748 2.90967 13.0223 2.88751 12.9836 2.84977C12.9747 2.83992 12.9657 2.82926 12.9583 2.81859C12.9509 2.8071 12.9443 2.79562 12.9393 2.78331C12.9345 2.771 12.9304 2.75787 12.9279 2.74474C12.9255 2.73162 12.9238 2.71767 12.9238 2.70454C12.9238 2.65039 12.946 2.59787 12.9836 2.55931C12.9936 2.55028 13.0042 2.54126 13.0148 2.53387C13.0264 2.52649 13.0379 2.51992 13.0502 2.515C13.0624 2.51008 13.0756 2.50598 13.0888 2.50351C13.115 2.49777 13.1429 2.49777 13.1692 2.50351C13.1822 2.50598 13.1954 2.51008 13.2077 2.515C13.22 2.51992 13.2315 2.52649 13.243 2.53387C13.2537 2.54126 13.2643 2.55028 13.2742 2.55931C13.3118 2.59787 13.3341 2.65039 13.3341 2.70454C13.3341 2.71767 13.3324 2.73162 13.33 2.74474C13.3275 2.75787 13.3234 2.771 13.3185 2.78331C13.3128 2.79562 13.307 2.8071 13.2996 2.81859C13.2922 2.82926 13.2832 2.83992 13.2742 2.84977C13.2643 2.8588 13.2537 2.86782 13.243 2.87521C13.2315 2.88259 13.22 2.88916 13.2077 2.89408C13.1954 2.899 13.1822 2.9031 13.1692 2.90557C13.156 2.90803 13.1421 2.90967 13.129 2.90967Z" fill="black"/>
</svg>
