<svg width="16" height="16" viewBox="0 0 16 16" fill="none" xmlns="http://www.w3.org/2000/svg">
<g clip-path="url(#clip0_177_947)">
<path d="M8.00051 5.4569L10.5206 1.09493C10.2731 0.948311 9.98908 0.875 9.69583 0.875H6.3052C6.01197 0.875 5.72789 0.957474 5.48047 1.09493L8.00051 5.4569Z" fill="#00832D"/>
<path d="M1.20963 13.127L1.91524 14.3458C2.06186 14.6024 2.27263 14.804 2.52004 14.9506L5.04009 10.5886H0C0 10.8727 0.0733106 11.1568 0.219931 11.4134L1.20963 13.127Z" fill="#0066DA"/>
<path d="M8 5.45694L5.47996 1.09497C5.23253 1.24159 5.02177 1.4432 4.87514 1.69978L0.219931 9.76392C0.0760069 10.015 0.000191627 10.2993 0 10.5887H5.04009L8 5.45694Z" fill="#00AC47"/>
<path d="M13.4794 14.9506C13.7268 14.804 13.9375 14.6024 14.0842 14.3458L14.3774 13.8418L15.7795 11.4134C15.9261 11.1568 15.9994 10.8727 15.9994 10.5886H10.959L12.0315 12.6963L13.4794 14.9506Z" fill="#EA4335"/>
<path d="M10.9594 10.5886H5.03958L2.51953 14.9506C2.76696 15.0972 3.05104 15.1706 3.34427 15.1706H12.6547C12.9479 15.1706 13.2321 15.0881 13.4794 14.9506L10.9594 10.5886Z" fill="#2684FC"/>
<path d="M13.4524 5.73186L11.1249 1.69978C10.9783 1.4432 10.7675 1.24159 10.5201 1.09497L8 5.45694L10.9599 10.5887H15.9908C15.9908 10.3046 15.9175 10.0205 15.7709 9.76392L13.4524 5.73186Z" fill="#FFBA00"/>
</g>
<defs>
<clipPath id="clip0_177_947">
<rect width="16" height="16" fill="white"/>
</clipPath>
</defs>
</svg>
