<svg width="16" height="16" viewBox="0 0 16 16" fill="none" xmlns="http://www.w3.org/2000/svg">
<g clip-path="url(#clip0_177_1043)">
<path d="M0.109375 0.107056V15.8934H15.8958L15.8957 0.107056H0.109375Z" fill="white"/>
<path fill-rule="evenodd" clip-rule="evenodd" d="M0.109375 15.8934V0.107056H15.8956L15.8957 15.8934H0.109375ZM14.5246 8.18288C14.6628 7.77346 14.8193 7.16066 14.8451 6.66883C14.8648 6.29781 14.8148 5.77817 14.4648 5.40892C14.1856 5.1139 13.7591 4.96501 13.1969 4.96501C12.4868 4.96501 11.9146 5.21568 11.496 5.71141L11.3855 5.84172L11.312 5.68759C11.2521 5.56199 11.2093 5.51052 11.144 5.43692C10.8579 5.11319 10.3781 4.9491 9.71791 4.94919C9.11311 4.94919 8.5668 5.13043 8.17942 5.45959L8.08137 5.54288L8.01382 5.43292C7.83089 5.13559 7.37489 4.94314 6.85249 4.94314C6.10084 4.94332 5.34244 5.04537 4.88493 5.78288L4.69533 6.08723L4.68049 5.72874C4.66893 5.45141 4.6436 5.33621 4.51462 5.19968C4.37275 5.04919 4.134 4.97603 3.78484 4.9763C3.27213 4.9763 2.8868 5.19986 2.60653 5.66021C2.17515 6.34928 1.13249 8.61577 1.15551 9.69301C1.17062 10.3921 1.63711 10.82 2.40377 10.8377C3.0356 10.853 3.53782 10.6909 3.85684 10.3689L3.93826 10.2866L4.01649 10.3712C4.30324 10.6825 4.73915 10.8541 5.24413 10.8541C5.88715 10.8541 6.43702 10.6543 6.75284 10.3055L6.83906 10.2105L6.92013 10.3102C7.21577 10.6734 7.67266 10.8638 8.24129 10.8615C8.98289 10.8582 9.67551 10.5174 10.1414 9.92706L10.2635 9.7723L10.3317 9.95746C10.6188 10.7382 11.3969 10.8545 11.8358 10.8548C13.326 10.8548 13.9696 9.8323 14.5246 8.18288Z" fill="#FFED00"/>
<path fill-rule="evenodd" clip-rule="evenodd" d="M0.109375 15.8934V0.107056H15.8956L15.8957 15.8934H0.109375ZM14.6234 9.33852C14.8297 8.91328 15.2179 7.84901 15.2896 7.27434L15.2904 7.26803C15.3779 6.56652 15.4607 5.9027 14.9873 5.24306C14.6508 4.77426 14.0774 4.45968 13.2049 4.45959C12.5455 4.45959 11.9565 4.63826 11.4856 5.0299C11.0823 4.63079 10.5039 4.44963 9.72537 4.44981C9.11622 4.44981 8.60493 4.5891 8.15969 4.85639C7.83649 4.59959 7.45711 4.43914 6.85266 4.43914C6.30475 4.43906 5.53551 4.46759 4.95515 4.9603C4.82102 4.68661 4.54831 4.47168 3.79604 4.47168C3.10306 4.47168 2.53773 4.7995 2.16698 5.40812C1.67195 6.19879 0.621197 8.48208 0.648042 9.72937C0.668042 10.6683 1.37213 11.3151 2.39204 11.3394C3.00493 11.3537 3.52689 11.2225 3.9252 10.9582C4.28538 11.2177 4.74564 11.3579 5.25711 11.3579C5.8692 11.358 6.42137 11.1973 6.8308 10.9087C7.20173 11.2028 7.6884 11.3617 8.23897 11.3617C8.95329 11.362 9.61702 11.1153 10.1532 10.6461C10.5189 11.1124 11.1454 11.3548 11.9062 11.3549C13.3304 11.355 14.0703 10.479 14.6234 9.33852Z" fill="#E3000B"/>
<path fill-rule="evenodd" clip-rule="evenodd" d="M0 16V0H16L15.9997 15.9997L0 16ZM15.7796 15.7796L15.7797 0.220267H0.220089L0.220444 15.7796L15.7796 15.7796Z" fill="black"/>
<path fill-rule="evenodd" clip-rule="evenodd" d="M14.8982 4.82674C14.8981 4.7764 14.908 4.72653 14.9272 4.68C14.9464 4.63346 14.9746 4.59118 15.0102 4.55557C15.0457 4.51995 15.088 4.49171 15.1345 4.47245C15.181 4.4532 15.2309 4.44331 15.2812 4.44336C15.3316 4.44327 15.3815 4.45312 15.4281 4.47235C15.4746 4.49158 15.517 4.51981 15.5526 4.55543C15.5882 4.59105 15.6165 4.63334 15.6357 4.6799C15.655 4.72646 15.6649 4.77636 15.6648 4.82674C15.6649 4.87712 15.655 4.92703 15.6358 4.97359C15.6165 5.02015 15.5883 5.06245 15.5526 5.09807C15.517 5.13368 15.4747 5.16191 15.4281 5.18112C15.3815 5.20033 15.3316 5.21016 15.2812 5.21003C15.2309 5.21011 15.181 5.20025 15.1345 5.18101C15.088 5.16178 15.0457 5.13354 15.0101 5.09793C14.9745 5.06232 14.9463 5.02003 14.9271 4.97349C14.9079 4.92695 14.8981 4.87708 14.8982 4.82674ZM15.2814 4.51945C15.4519 4.51954 15.5905 4.65678 15.59 4.82727C15.5905 4.99776 15.4514 5.13545 15.2814 5.13545C15.241 5.13539 15.201 5.12737 15.1637 5.11185C15.1264 5.09632 15.0926 5.0736 15.0641 5.04498C15.0356 5.01636 15.013 4.9824 14.9976 4.94504C14.9822 4.90769 14.9744 4.86767 14.9745 4.82727C14.9743 4.78687 14.9821 4.74684 14.9975 4.70947C15.0128 4.6721 15.0354 4.63814 15.0639 4.60953C15.0924 4.58092 15.1263 4.55824 15.1637 4.54278C15.201 4.52732 15.241 4.51939 15.2814 4.51945ZM15.4306 4.947L15.4764 5.027L15.3771 5.02763L15.3454 4.96274C15.3313 4.93433 15.313 4.90815 15.2913 4.88505C15.2756 4.86878 15.2613 4.86469 15.226 4.86469L15.2114 4.86478L15.2113 5.02745H15.1294V4.63038H15.3272C15.4124 4.63038 15.4524 4.67794 15.4524 4.74087C15.4526 4.80087 15.4121 4.84398 15.345 4.85198L15.3452 4.8542C15.3793 4.86603 15.3906 4.87714 15.4306 4.947ZM15.2112 4.69207V4.80114H15.2941C15.3496 4.80114 15.3679 4.77412 15.3671 4.74603C15.3671 4.711 15.3393 4.6918 15.2852 4.6918L15.2112 4.69207ZM11.4094 5.63998C11.7959 5.1822 12.3678 4.85429 13.1948 4.85429C14.6264 4.85429 15.0009 5.79029 14.9539 6.67474C14.9261 7.20629 14.7555 7.83954 14.6281 8.21829C14.0618 9.90105 13.3818 10.9651 11.8343 10.965C11.1281 10.9651 10.4818 10.6896 10.2271 9.99536C9.76194 10.584 9.051 10.9682 8.24043 10.9722C7.62087 10.9752 7.13909 10.7562 6.83287 10.3802C6.46931 10.7814 5.85412 10.9651 5.24265 10.9653C4.69332 10.965 4.23465 10.7736 3.93358 10.4466C3.59811 10.785 3.071 10.9645 2.39963 10.9488C1.53963 10.9282 1.05918 10.4122 1.04336 9.69589C1.01971 8.58709 2.07572 6.29803 2.511 5.603C2.81145 5.10994 3.22878 4.86789 3.783 4.86763C4.08727 4.86789 4.39971 4.92078 4.59287 5.1254C4.75171 5.2934 4.77723 5.44274 4.78896 5.7254C5.27607 4.94052 6.09705 4.83385 6.85029 4.83403C7.42665 4.83403 7.90505 5.04976 8.10576 5.37589C8.49207 5.04754 9.04843 4.83918 9.7158 4.83918C10.3989 4.83927 10.9078 5.00594 11.2246 5.36434C11.2945 5.443 11.3442 5.50309 11.4094 5.63998ZM3.87376 9.50354C3.89918 9.23545 3.69838 8.94594 2.89723 9.08496C2.97678 8.90674 3.09509 8.66247 3.2294 8.38514C3.6598 7.49643 4.25456 6.26834 4.26576 5.78789C4.2718 5.551 4.17634 5.35349 3.79216 5.35367C3.38629 5.35349 3.13172 5.52327 2.92318 5.86585C2.47092 6.58807 1.51047 8.76674 1.53065 9.70843C1.54203 10.2467 1.95936 10.4592 2.42309 10.47C3.0622 10.4849 3.79838 10.3054 3.87385 9.50345L3.87376 9.50354ZM5.50487 8.34532C5.45154 8.48878 5.35127 8.78923 5.27029 9.10718C5.53323 9.04158 5.73012 8.99616 6.06763 9.00398C6.45243 9.0134 6.69865 9.17269 6.69847 9.49109C6.69847 10.2621 5.84576 10.4886 5.25491 10.4888C4.60549 10.4888 4.035 10.1194 4.035 9.40932C4.035 8.57678 4.4862 7.31438 4.90967 6.47394C5.42949 5.4414 5.96096 5.30425 6.87589 5.30425C7.2782 5.30425 7.74131 5.47598 7.74131 5.85572C7.74131 6.38212 7.29616 6.58283 6.85394 6.60825C6.66487 6.61909 6.37447 6.62949 6.20078 6.61705C6.20078 6.61705 6.05314 6.84149 5.89714 7.2406C6.71563 7.1254 7.063 7.31127 6.92487 7.7846C6.73785 8.42452 6.18336 8.46674 5.50478 8.34523L5.50487 8.34532ZM9.05723 6.64629C9.16523 6.49492 9.30967 6.35474 9.53127 6.35474C9.80283 6.35474 9.77652 6.49838 9.71207 6.68194C9.52905 7.2046 10.0818 7.21838 10.2167 7.20772C10.6992 7.17012 10.965 6.85838 11.0305 6.32736C11.1201 5.60434 10.5109 5.32674 9.73874 5.32674C8.45163 5.32674 7.94638 6.11394 7.46443 7.23927C7.23803 7.76789 6.95287 8.67127 6.95296 9.24656C6.95287 10.0546 7.44452 10.4927 8.23687 10.4927C9.39394 10.4927 10.2115 9.57003 10.4451 8.42043C10.517 8.06665 10.6057 7.40274 9.707 7.43972C9.25083 7.45856 8.97563 7.55918 8.83056 8.02532C8.68123 8.50549 9.22283 8.51856 9.22283 8.51856C9.11385 9.015 8.79483 9.31598 8.51056 9.31625C8.33314 9.31625 8.17172 9.23927 8.22576 8.8638C8.30603 8.31483 8.82016 6.97954 9.05723 6.64629ZM14.3921 7.30469C14.2555 7.98203 13.9498 8.7838 13.6175 9.38123C13.0753 10.3558 12.4176 10.4923 11.8426 10.485C11.2679 10.4782 10.62 10.2663 10.6151 9.37936C10.6116 8.74292 10.886 7.84407 11.1192 7.25554C11.5258 6.18798 11.9406 5.31732 13.2534 5.33287C14.7839 5.35074 14.5109 6.71207 14.3921 7.30469ZM12.4722 9.04132C12.685 8.68087 13.2841 7.04594 13.3004 6.63714C13.3052 6.51803 13.2856 6.37936 13.0936 6.37714C12.9619 6.37527 12.8474 6.40078 12.7445 6.5598C12.5132 6.86043 11.8362 8.70958 11.8476 9.07847C11.8518 9.21109 11.9258 9.32692 12.0887 9.32692C12.2762 9.32709 12.3802 9.19803 12.4722 9.04132Z" fill="black"/>
</g>
<defs>
<clipPath id="clip0_177_1043">
<rect width="16" height="16" fill="white"/>
</clipPath>
</defs>
</svg>
