<svg width="16" height="16" viewBox="0 0 16 16" fill="none" xmlns="http://www.w3.org/2000/svg">
<g clip-path="url(#clip0_177_1049)">
<path d="M14.4866 12.9366H11.9447C11.7506 12.9366 11.5938 12.7798 11.5938 12.5856V3.20216C11.5948 3.00909 11.7516 2.85336 11.9447 2.85229H14.4866C14.6796 2.85229 14.8375 3.00803 14.8385 3.20216V12.5856C14.8385 12.7787 14.6828 12.9366 14.4887 12.9366C14.4887 12.9366 14.4887 12.9366 14.4876 12.9366H14.4866Z" fill="url(#paint0_linear_177_1049)"/>
<path d="M2.70452 12.9717L0.433588 11.8282C0.260788 11.7408 0.190388 11.5306 0.277855 11.3568L4.49012 2.97705C4.57759 2.80425 4.78772 2.73385 4.96159 2.82131L7.23252 3.96265C7.40532 4.05011 7.47572 4.26025 7.38825 4.43411L3.17492 12.816C3.08746 12.9888 2.87732 13.0592 2.70346 12.9717H2.70452Z" fill="url(#paint1_linear_177_1049)"/>
<path d="M9.41298 12.7829L11.2135 3.64588C11.2509 3.45601 11.1282 3.27255 10.9394 3.23415L8.44765 2.73068C8.25672 2.69228 8.07218 2.81601 8.03378 3.00695L6.23325 12.1451C6.19592 12.3349 6.31858 12.5184 6.50845 12.5568L8.99912 13.0592C9.18898 13.0976 9.37352 12.976 9.41298 12.7861V12.7829Z" fill="url(#paint2_linear_177_1049)"/>
</g>
<defs>
<linearGradient id="paint0_linear_177_1049" x1="8.51002" y1="9.6299" x2="15.3687" y2="7.10083" gradientUnits="userSpaceOnUse">
<stop offset="0.02" stop-color="#B02DE9"/>
<stop offset="0.8" stop-color="#6D00CC"/>
</linearGradient>
<linearGradient id="paint1_linear_177_1049" x1="2.49119" y1="8.47678" x2="9.86399" y2="5.28851" gradientUnits="userSpaceOnUse">
<stop stop-color="#FF00FF"/>
<stop offset="0.18" stop-color="#E80DF9"/>
<stop offset="0.54" stop-color="#C024ED"/>
<stop offset="0.73" stop-color="#B02DE9"/>
</linearGradient>
<linearGradient id="paint2_linear_177_1049" x1="0.771918" y1="10.8224" x2="15.8855" y2="5.25762" gradientUnits="userSpaceOnUse">
<stop offset="0.02" stop-color="#FF00FF"/>
<stop offset="0.09" stop-color="#E80DF9"/>
<stop offset="0.23" stop-color="#C024ED"/>
<stop offset="0.3" stop-color="#B02DE9"/>
<stop offset="0.42" stop-color="#A42BE3"/>
<stop offset="0.63" stop-color="#8527D5"/>
<stop offset="0.85" stop-color="#6021C3"/>
</linearGradient>
<clipPath id="clip0_177_1049">
<rect width="16" height="16" fill="white"/>
</clipPath>
</defs>
</svg>
