<svg width="16" height="16" viewBox="0 0 16 16" fill="none" xmlns="http://www.w3.org/2000/svg">
<g clip-path="url(#clip0_184_1017)">
<path d="M1.8125 9.33681V6.11338L7.54304 2.88995L10.4083 4.50167L1.8125 9.33681Z" fill="#F89439"/>
<path d="M6.25861 2.12756L1.8125 4.59431V0.566968C1.8125 0.365604 1.87814 0.0725513 2.11913 0.0132058C2.36012 -0.0461398 2.61743 0.107607 2.83459 0.214569C3.03901 0.315255 6.25861 2.12756 6.25861 2.12756Z" fill="#F6D209"/>
<path d="M11.763 5.18713L1.81251 10.8247L1.8125 12.9891C1.81249 13.1401 1.81251 13.4924 2.01455 13.6435C2.21659 13.7945 2.57015 13.6435 2.67117 13.5931C2.77219 13.5428 13.0258 7.75423 13.7329 7.35155C13.9497 7.22809 14.1875 7.04954 14.1875 6.8482C14.1875 6.64686 14.0865 6.51742 13.7834 6.34484C13.5641 6.21997 11.763 5.18713 11.763 5.18713Z" fill="#C357EA"/>
<path d="M4.99805 13.7509L13.3715 9.04041C13.3715 9.04041 6.77424 15.4547 6.67275 15.555C6.57125 15.6552 6.26676 16.006 5.96227 16.006C5.65778 16.006 5.55628 15.7554 5.50553 15.555C5.45478 15.3545 4.99805 13.7509 4.99805 13.7509Z" fill="#5092FF"/>
</g>
<defs>
<clipPath id="clip0_184_1017">
<rect width="16" height="16" fill="white"/>
</clipPath>
</defs>
</svg>
