<svg width="16" height="16" viewBox="0 0 16 16" fill="none" xmlns="http://www.w3.org/2000/svg">
<g clip-path="url(#clip0_177_968)">
<mask id="mask0_177_968" style="mask-type:luminance" maskUnits="userSpaceOnUse" x="0" y="0" width="17" height="17">
<path d="M0.0078125 0.00610352H16.0078V16.0061H0.0078125V0.00610352Z" fill="white"/>
</mask>
<g mask="url(#mask0_177_968)">
<path d="M11.9472 14.8624C11.8504 15.5936 11.1347 16.1624 10.4254 15.9655C9.41285 15.6874 8.24098 15.253 7.18785 15.1717L5.57223 15.0467C5.31167 15.0286 5.06693 14.9151 4.88473 14.728L2.10348 11.8624C1.95429 11.7097 1.85452 11.5157 1.81717 11.3056C1.77983 11.0954 1.80663 10.8789 1.8941 10.6842C1.8941 10.6842 3.61285 6.90299 3.67848 6.70611C3.74098 6.50924 3.97848 4.79361 4.11598 3.87486C4.15348 3.62799 4.27223 3.40611 4.45973 3.24049L7.75035 0.277988C7.85885 0.180527 7.98621 0.106376 8.12452 0.0601264C8.26284 0.0138765 8.40918 -0.0034876 8.55449 0.00910911C8.69979 0.0217058 8.84096 0.0639952 8.96925 0.133359C9.09755 0.202723 9.21024 0.297684 9.30035 0.412363L12.0629 3.92486C12.2165 4.12592 12.2999 4.37183 12.3004 4.62486C12.3004 5.29049 12.3566 6.65611 12.7254 7.53736C13.0847 8.39049 13.741 9.31861 14.0847 9.77174C14.1501 9.85649 14.1889 9.95875 14.1962 10.0656C14.2034 10.1724 14.1788 10.2789 14.1254 10.3717C13.6794 11.1201 13.2125 11.8558 12.7254 12.578C12.2566 13.2749 12.041 14.1374 11.9441 14.8624H11.9472Z" fill="#6C31E3"/>
<path d="M5.18571 14.9467C6.47946 12.3217 6.44196 10.4405 5.89196 9.10297C5.38571 7.86547 4.44509 7.08734 3.70446 6.60297C3.68571 6.67484 3.66384 6.74047 3.63571 6.80609L1.89509 10.6873C1.80723 10.8817 1.77991 11.0981 1.8167 11.3082C1.85348 11.5183 1.95267 11.7125 2.10134 11.8655L4.88571 14.7311C4.9721 14.821 5.07365 14.8951 5.18571 14.9498V14.9467Z" fill="url(#paint0_radial_177_968)"/>
<path d="M8.70184 9.61863C9.05184 9.65613 9.39559 9.73113 9.72684 9.85613C10.7893 10.253 11.7581 11.1436 12.555 12.8655C12.6112 12.7686 12.6675 12.6718 12.73 12.578C13.2166 11.8554 13.6834 11.1197 14.13 10.3718C14.1846 10.2793 14.21 10.1726 14.2027 10.0655C14.1955 9.95834 14.1559 9.85595 14.0893 9.77175C13.7456 9.3155 13.0893 8.3905 12.73 7.53738C12.3612 6.65613 12.3081 5.28738 12.305 4.62488C12.305 4.37175 12.2237 4.12488 12.0675 3.92488L9.30184 0.412378C9.28681 0.394153 9.27118 0.376435 9.25497 0.359253C9.43695 0.904165 9.45864 1.48987 9.31747 2.04675C9.18358 2.49639 8.99906 2.92938 8.76747 3.33738L8.54247 3.78113C8.18172 4.46794 7.97485 5.22506 7.93622 5.99988C7.89872 6.91863 8.08622 8.07488 8.70184 9.61863Z" fill="url(#paint1_radial_177_968)"/>
<path d="M8.70117 9.61863C8.08555 8.07488 7.89492 6.91863 7.93555 5.99676C7.97418 5.22194 8.18105 4.46482 8.5418 3.77801C8.61367 3.62801 8.6918 3.48113 8.7668 3.33738C8.98867 2.90301 9.2043 2.49363 9.3168 2.04363C9.45797 1.48675 9.43628 0.901046 9.2543 0.356133C9.06471 0.147201 8.80001 0.0219766 8.51824 0.00791711C8.23646 -0.00614233 7.96061 0.0921111 7.75117 0.281133L4.45742 3.24363C4.27371 3.40916 4.15329 3.63343 4.1168 3.87801L3.7168 6.53426L3.70117 6.60613C4.44492 7.09051 5.38867 7.86863 5.8918 9.10613C5.99578 9.35676 6.07734 9.61611 6.13555 9.88113C7.01055 9.66863 7.87617 9.53738 8.70117 9.62176V9.61863Z" fill="url(#paint2_radial_177_968)"/>
<path d="M10.4262 15.9686C11.1355 16.1624 11.8512 15.5936 11.948 14.8624C12.0287 14.1658 12.234 13.4894 12.5543 12.8655C11.7543 11.1468 10.7887 10.253 9.7293 9.85614C8.6043 9.43739 7.3793 9.57489 6.13555 9.87802C6.41367 11.1405 6.24805 12.7936 5.18555 14.9468C5.31055 15.003 5.43867 15.0405 5.57617 15.0499C5.57617 15.0499 6.33867 15.1124 7.25117 15.178C8.15742 15.2405 9.51367 15.7124 10.4262 15.9655V15.9686Z" fill="url(#paint3_radial_177_968)"/>
<path fill-rule="evenodd" clip-rule="evenodd" d="M7.94243 5.93738C7.90181 6.84988 8.01743 7.89988 8.63306 9.4405L8.43931 9.42488C7.88618 7.8155 7.76743 6.98738 7.80806 6.06238C7.85554 5.27514 8.07303 4.50753 8.44556 3.81238C8.52056 3.65925 8.69556 3.37175 8.77368 3.22488C8.99556 2.79675 9.14556 2.56863 9.27368 2.17488C9.45181 1.628 9.41431 1.3655 9.39243 1.10925C9.53618 2.04363 8.99556 2.85925 8.58931 3.68425C8.2157 4.37954 7.99514 5.14671 7.94243 5.93425V5.93738Z" fill="url(#paint4_radial_177_968)"/>
<path fill-rule="evenodd" clip-rule="evenodd" d="M6.07383 9.16863C6.14883 9.33738 6.21758 9.47488 6.26133 9.68425L6.0957 9.71863C6.03008 9.47488 5.97695 9.29988 5.8832 9.09363C5.32695 7.78113 4.43633 7.10613 3.70508 6.60925C4.58633 7.08425 5.49258 7.828 6.0707 9.16863H6.07383Z" fill="url(#paint5_radial_177_968)"/>
<path fill-rule="evenodd" clip-rule="evenodd" d="M6.2707 9.84674C6.57695 11.2842 6.2332 13.103 5.2207 14.8749C6.06758 13.1186 6.47695 11.4342 6.13633 9.87487L6.2707 9.84674Z" fill="url(#paint6_radial_177_968)"/>
<path fill-rule="evenodd" clip-rule="evenodd" d="M9.76719 9.71862C11.4266 10.3405 12.0672 11.7061 12.5453 12.8436C11.9516 11.653 11.1328 10.3342 9.70781 9.84362C8.62031 9.47487 7.70469 9.51862 6.13594 9.87487L6.10156 9.71862C7.76406 9.34049 8.63281 9.29674 9.76719 9.71862Z" fill="url(#paint7_radial_177_968)"/>
</g>
</g>
<defs>
<radialGradient id="paint0_radial_177_968" cx="0" cy="0" r="1" gradientUnits="userSpaceOnUse" gradientTransform="translate(5.04509 14.6873) rotate(-104.693) scale(7.26897 4.84334)">
<stop stop-color="white" stop-opacity="0.4"/>
<stop offset="1" stop-opacity="0.1"/>
</radialGradient>
<radialGradient id="paint1_radial_177_968" cx="0" cy="0" r="1" gradientUnits="userSpaceOnUse" gradientTransform="translate(11.2518 11.6936) rotate(-82.4846) scale(11.9464 8.82606)">
<stop stop-color="white" stop-opacity="0.6"/>
<stop offset="1" stop-color="white" stop-opacity="0.1"/>
</radialGradient>
<radialGradient id="paint2_radial_177_968" cx="0" cy="0" r="1" gradientUnits="userSpaceOnUse" gradientTransform="translate(5.48242 9.59363) rotate(-77.7949) scale(10.1993 6.96903)">
<stop stop-color="white" stop-opacity="0.8"/>
<stop offset="1" stop-color="white" stop-opacity="0.4"/>
</radialGradient>
<radialGradient id="paint3_radial_177_968" cx="0" cy="0" r="1" gradientUnits="userSpaceOnUse" gradientTransform="translate(10.4793 16.0061) rotate(-120.496) scale(5.91154 6.79567)">
<stop stop-color="white" stop-opacity="0.3"/>
<stop offset="1" stop-opacity="0.3"/>
</radialGradient>
<radialGradient id="paint4_radial_177_968" cx="0" cy="0" r="1" gradientUnits="userSpaceOnUse" gradientTransform="translate(9.68931 4.00613) rotate(102.236) scale(5.30809 3.57944)">
<stop stop-color="white" stop-opacity="0"/>
<stop offset="1" stop-color="white" stop-opacity="0.2"/>
</radialGradient>
<radialGradient id="paint5_radial_177_968" cx="0" cy="0" r="1" gradientUnits="userSpaceOnUse" gradientTransform="translate(3.4707 6.88113) rotate(45.3237) scale(3.91125 8.33084)">
<stop stop-color="white" stop-opacity="0.2"/>
<stop offset="1" stop-color="white" stop-opacity="0.4"/>
</radialGradient>
<radialGradient id="paint6_radial_177_968" cx="0" cy="0" r="1" gradientUnits="userSpaceOnUse" gradientTransform="translate(6.7207 8.87487) rotate(86.0397) scale(4.07222 8.64757)">
<stop stop-color="white" stop-opacity="0.2"/>
<stop offset="1" stop-color="white" stop-opacity="0.3"/>
</radialGradient>
<radialGradient id="paint7_radial_177_968" cx="0" cy="0" r="1" gradientUnits="userSpaceOnUse" gradientTransform="translate(12.5016 12.4749) rotate(-152.289) scale(6.98911 21.9876)">
<stop stop-color="white" stop-opacity="0.2"/>
<stop offset="0.5" stop-color="white" stop-opacity="0.2"/>
<stop offset="1" stop-color="white" stop-opacity="0.3"/>
</radialGradient>
<clipPath id="clip0_177_968">
<rect width="16" height="16" fill="white"/>
</clipPath>
</defs>
</svg>
