<svg width="16" height="16" viewBox="0 0 16 16" fill="none" xmlns="http://www.w3.org/2000/svg">
<path fill-rule="evenodd" clip-rule="evenodd" d="M3.82305 1.33331L7.61972 4.83131V4.83065V1.34131H8.35872V4.84698L12.1727 1.33331V5.32165H13.7384V11.0743H12.1774V14.6256L8.35905 11.271V14.6643H7.62005V11.3263L3.82739 14.6666V11.0746H2.26172V5.32165H3.82339V1.33331H3.82305ZM7.06272 6.05165H3.00072V10.3443H3.82639V8.99031L7.06272 6.05165ZM4.56639 9.31431V13.0376L7.61972 10.3483V6.54098L4.56639 9.31431ZM8.38039 10.3126V6.53731L11.4347 9.31098V11.0746H11.4387V12.9996L8.38039 10.3126ZM12.1774 10.3443H12.9994V6.05165H8.96772L12.1774 8.95998V10.3443ZM11.4337 5.32165V3.01265L8.92738 5.32165H11.4337ZM7.06839 5.32165H4.56205V3.01265L7.06839 5.32165Z" fill="url(#paint0_linear_178_2)"/>
<defs>
<linearGradient id="paint0_linear_178_2" x1="3.52872" y1="0.536646" x2="12.0181" y2="14.707" gradientUnits="userSpaceOnUse">
<stop offset="0.002" stop-color="#9C55D4"/>
<stop offset="0.003" stop-color="#20808D"/>
<stop offset="0.373" stop-color="#218F9B"/>
<stop offset="1" stop-color="#22B1BC"/>
</linearGradient>
</defs>
</svg>
