<svg width="16" height="16" viewBox="0 0 16 16" fill="none" xmlns="http://www.w3.org/2000/svg">
<g clip-path="url(#clip0_177_226)">
<path d="M8 0C3.58222 0 0 3.58222 0 8C0 12.4177 3.58222 16 8 16C12.4177 16 16 12.4177 16 8C16 3.58222 12.4177 0 8 0ZM8 14.8444C4.17777 14.8444 1.06667 11.7333 1.06667 7.91113C1.06667 5.2 2.63111 2.84623 4.90489 1.70844C3.57333 3.08444 2.75556 4.95644 2.75556 7.02225C2.75556 11.008 5.80444 14.2791 9.696 14.6347C9.15375 14.7716 8.58488 14.8444 8 14.8444ZM12.5903 6.07644C12.5316 6.10489 12.4711 6.11733 12.4124 6.11733C12.2611 6.11733 12.1156 6.032 12.0444 5.88623C11.6657 5.09867 11.0684 4.44089 10.3182 3.98756C10.1262 3.872 10.064 3.62133 10.1811 3.42756C10.2967 3.23556 10.5476 3.17333 10.7411 3.29067C11.6265 3.82577 12.3305 4.60089 12.7802 5.53244C12.8782 5.73511 12.7929 5.97867 12.5903 6.07644Z" fill="#3178C6"/>
</g>
<defs>
<clipPath id="clip0_177_226">
<rect width="16" height="16" fill="white"/>
</clipPath>
</defs>
</svg>
