<svg width="16" height="16" viewBox="0 0 16 16" fill="none" xmlns="http://www.w3.org/2000/svg">
<g clip-path="url(#clip0_177_257)">
<path d="M14.3215 6.3438C14.3215 4.66132 13.6532 3.04775 12.4635 1.85806C11.2738 0.668371 9.66024 9.87265e-06 7.97776 9.87265e-06C6.46614 -0.0026562 5.00328 0.534729 3.85286 1.51531C2.70244 2.49588 1.94012 3.85515 1.70331 5.34811C1.46651 6.84107 1.77079 8.36951 2.56131 9.65795C3.35183 10.9464 4.57659 11.9101 6.01484 12.3753V15.5539C6.01484 15.6722 6.06184 15.7857 6.14551 15.8693C6.22917 15.953 6.34264 16 6.46096 16H9.47225C9.59057 16 9.70404 15.953 9.7877 15.8693C9.87137 15.7857 9.91837 15.6722 9.91837 15.5539V12.3798C11.1976 11.9694 12.3136 11.1637 13.1057 10.0786C13.8978 8.99348 14.325 7.68501 14.326 6.34157L14.3215 6.3438ZM7.97776 8.48516C7.40924 8.48516 6.86401 8.25932 6.46201 7.85732C6.06001 7.45532 5.83416 6.91009 5.83416 6.34157C5.83416 5.77305 6.06001 5.22782 6.46201 4.82582C6.86401 4.42382 7.40924 4.19797 7.97776 4.19797C8.54657 4.19797 9.09209 4.42393 9.4943 4.82615C9.89651 5.22836 10.1225 5.77387 10.1225 6.34268C10.1225 6.9115 9.89651 7.45701 9.4943 7.85922C9.09209 8.26143 8.54657 8.48739 7.97776 8.48739V8.48516Z" fill="#2684FF"/>
<path d="M7.97879 1.34864e-05V4.20021C8.54761 4.20021 9.09312 4.42617 9.49533 4.82838C9.89754 5.23059 10.1235 5.77611 10.1235 6.34492C10.1235 6.91373 9.89754 7.45925 9.49533 7.86146C9.09312 8.26367 8.54761 8.48963 7.97879 8.48963C8.49939 8.48963 8.99867 8.69643 9.36678 9.06455C9.7349 9.43267 9.94171 9.93195 9.94171 10.4525V12.3798C11.3807 11.9144 12.606 10.9503 13.3969 9.66118C14.1878 8.3721 14.4921 6.84288 14.255 5.34924C14.0179 3.85559 13.255 2.49579 12.1038 1.51498C10.9526 0.534173 9.48891 -0.0031035 7.97656 1.34864e-05H7.97879Z" fill="url(#paint0_linear_177_257)"/>
</g>
<defs>
<linearGradient id="paint0_linear_177_257" x1="11.1507" y1="11.231" x2="11.1507" y2="4.49242" gradientUnits="userSpaceOnUse">
<stop offset="0.18" stop-color="#0052CC"/>
<stop offset="1" stop-color="#2684FF"/>
</linearGradient>
<clipPath id="clip0_177_257">
<rect width="16" height="16" fill="white"/>
</clipPath>
</defs>
</svg>
