<svg width="16" height="16" viewBox="0 0 16 16" fill="none" xmlns="http://www.w3.org/2000/svg">
<g clip-path="url(#clip0_177_202)">
<path d="M7.74301 3.76141C7.86301 3.57953 8.13414 3.57953 8.25864 3.76141L10.8057 7.55828L13.5133 11.5907C13.4813 11.6476 13.4444 11.7016 13.403 11.752C13.3748 11.7857 13.348 11.8175 13.3146 11.8502C13.3073 11.8572 13.3002 11.8627 13.2915 11.8693L13.2821 11.8765C13.2515 11.8994 13.2199 11.921 13.1875 11.9414C13.1612 11.9578 13.1395 11.9723 13.1081 11.9874C13.0769 12.0025 13.0268 12.0207 12.9966 12.031C12.9665 12.0414 12.9564 12.0449 12.9341 12.0498C12.923 12.052 12.9119 12.0542 12.9008 12.0556C12.8932 12.0569 12.8857 12.0582 12.8781 12.0592C12.8768 12.0596 12.875 12.0596 12.8738 12.06L12.8399 12.064C12.8044 12.0676 12.7675 12.0694 12.7297 12.0694C9.58776 12.412 6.41789 12.412 3.27595 12.0694C3.27233 12.0694 3.26883 12.0694 3.2652 12.0689H3.25458L3.24964 12.0685H3.24483C3.2412 12.068 3.23764 12.068 3.23414 12.0676H3.23058C3.22564 12.0672 3.2212 12.0672 3.21639 12.0667C3.18701 12.0645 3.15289 12.0571 3.12839 12.0517C3.10383 12.0467 3.0892 12.0427 3.06883 12.0382C2.82695 11.9809 2.60483 11.8351 2.50301 11.5992C2.50033 11.5929 2.49808 11.5867 2.49539 11.5805L2.49501 11.5792L0.0140767 5.25159C-0.0526108 5.07384 0.129702 4.89597 0.307389 4.98047C0.311889 4.98047 0.320764 4.98047 0.325264 4.98491L5.19414 7.55822L7.74301 3.76141ZM15.6809 4.98497C15.8591 4.88722 16.0503 5.05603 15.988 5.24272V5.25166L13.5133 11.5908L10.8057 7.55828L15.6765 4.98497H15.6809Z" fill="#FF4B4B"/>
<path d="M15.6818 4.98495H15.6774L10.8066 7.55827L13.5142 11.5908L15.9889 5.25164V5.2427C16.0511 5.05602 15.86 4.8872 15.6818 4.98495Z" fill="#7D353B"/>
<path d="M8.25786 3.76141C8.13336 3.57953 7.86223 3.57953 7.74223 3.76141L5.19336 7.55828L7.99823 9.04097L13.3139 11.8502C13.3472 11.8175 13.374 11.7857 13.4022 11.7521C13.4436 11.7016 13.4805 11.6476 13.5125 11.5907L10.805 7.55828L8.25786 3.76141Z" fill="#BD4043"/>
</g>
<defs>
<clipPath id="clip0_177_202">
<rect width="16" height="16" fill="white"/>
</clipPath>
</defs>
</svg>
