<svg width="16" height="16" viewBox="0 0 16 16" fill="none" xmlns="http://www.w3.org/2000/svg">
<g clip-path="url(#clip0_177_295)">
<path fill-rule="evenodd" clip-rule="evenodd" d="M0.232525 1.16485C0 1.62125 0 2.21849 0 3.41338V12.5866C0 13.7815 0 14.3789 0.232525 14.8351C0.437081 15.2366 0.763444 15.5629 1.16485 15.7675C1.62125 16 2.21849 16 3.41338 16H12.5866C13.7815 16 14.3789 16 14.8351 15.7675C15.2366 15.5629 15.5629 15.2366 15.7675 14.8351C16 14.3789 16 13.7815 16 12.5866V3.41338C16 2.21862 16 1.62111 15.7675 1.16485C15.5629 0.763444 15.2366 0.437081 14.8351 0.232525C14.3789 0 13.7815 0 12.5866 0H3.41338C2.21862 0 1.62098 0 1.16485 0.232525C0.763444 0.437081 0.437081 0.763444 0.232525 1.16485ZM13.8666 8C13.8666 4.76 12.225 2.13338 10.2 2.13338C8.17495 2.13338 6.53338 4.76 6.53338 8H2.13338C2.13338 11.2401 3.77495 13.8666 5.8 13.8666C7.82505 13.8666 9.46662 11.24 9.46662 8H13.8666Z" fill="black"/>
</g>
<defs>
<clipPath id="clip0_177_295">
<rect width="16" height="16" fill="white"/>
</clipPath>
</defs>
</svg>
