<svg width="16" height="16" viewBox="0 0 16 16" fill="none" xmlns="http://www.w3.org/2000/svg">
<path fill-rule="evenodd" clip-rule="evenodd" d="M8 3.0625C5.86667 3.0625 4.53333 4.12917 4 6.2625C4.8 5.19583 5.73333 4.79583 6.8 5.0625C7.40859 5.2145 7.84356 5.65628 8.32504 6.14487C9.10933 6.94102 10.0172 7.8625 12 7.8625C14.1333 7.8625 15.4667 6.79583 16 4.6625C15.2 5.72917 14.2667 6.12917 13.2 5.8625C12.5914 5.7105 12.1564 5.26872 11.675 4.78013C10.8907 3.98398 9.98281 3.0625 8 3.0625ZM4 7.8625C1.86667 7.8625 0.533333 8.92917 0 11.0625C0.8 9.99583 1.73333 9.59583 2.8 9.8625C3.40859 10.0148 3.84356 10.4563 4.32504 10.9449C5.10933 11.741 6.01719 12.6625 8 12.6625C10.1333 12.6625 11.4667 11.5958 12 9.4625C11.2 10.5292 10.2667 10.9292 9.2 10.6625C8.59141 10.5105 8.15644 10.0687 7.67496 9.58013C6.89067 8.78398 5.98281 7.8625 4 7.8625Z" fill="#38BDF8"/>
</svg>
