<svg width="16" height="16" viewBox="0 0 16 16" fill="none" xmlns="http://www.w3.org/2000/svg">
<g clip-path="url(#clip0_177_639)">
<path d="M14.5628 5.61156H9.6944V3.45581H6.3031V5.61156H1.435C1.18068 5.61156 0.974609 5.81763 0.974609 6.07166C0.974609 6.32569 1.18068 6.53176 1.435 6.53176H6.3031V8.68751H7.43809V9.38595C7.43809 9.54958 7.50988 9.69607 7.62236 9.79867C7.54941 9.81088 7.47296 9.82047 7.39681 9.8289C7.07012 9.86697 6.69984 9.90999 6.62165 10.2567L6.61816 10.2861C6.61642 10.38 6.65101 10.4634 6.71815 10.5279C6.92625 10.7279 7.39652 10.7113 8.14727 10.6666C8.73642 10.632 9.46973 10.5887 9.68656 10.7863C9.72347 10.8203 9.7412 10.859 9.74265 10.9119C9.75195 11.1958 9.29941 11.2531 8.65853 11.3031C8.14001 11.3435 7.65084 11.3818 7.42617 11.6455C7.33839 11.7484 7.30003 11.8748 7.31224 12.0219L7.48168 12.0076C7.42385 12.0152 7.36513 12.0224 7.31224 12.0314V12.5072L8.52773 12.5131C9.43224 12.5131 9.9371 13.0127 9.93128 13.887C9.93128 14.8917 9.37323 15.4079 8.43414 15.4021C8.28737 15.4021 8.13478 15.4021 8.03479 15.3844V13.1865H7.31253V15.9247C7.54737 15.9546 7.86447 15.9779 8.28737 15.9779C9.05643 15.9779 9.6851 15.7957 10.0784 15.4376C10.4542 15.0969 10.6948 14.5688 10.6948 13.864C10.6948 13.1888 10.4603 12.7188 10.0784 12.4078C9.71446 12.1024 9.2035 11.9498 8.4635 11.9498C8.15599 11.9498 7.86215 11.9655 7.60289 11.9931C7.59824 11.9268 7.61219 11.8765 7.64794 11.8341C7.79384 11.6626 8.26528 11.6257 8.68149 11.5931C9.32412 11.5432 10.0531 11.4865 10.0336 10.9026C10.0289 10.7729 9.9775 10.6584 9.88245 10.5724C9.57495 10.2913 8.84076 10.3352 8.13042 10.3771C7.6523 10.4055 7.05908 10.4407 6.91346 10.2968C6.96084 10.1817 7.14395 10.1524 7.43053 10.1195C7.6584 10.0928 7.9072 10.0623 8.09001 9.93847C8.35625 9.89516 8.56 9.66584 8.56 9.3874V8.68868H9.69469V6.53292H14.5631C14.8171 6.53292 15.0232 6.32685 15.0232 6.07282C15.0232 5.8188 14.8168 5.61156 14.5628 5.61156Z" fill="black"/>
<path d="M5.97695 4.70909H6.07344V3.72815H5.97695C5.70577 3.72815 5.48633 3.94759 5.48633 4.21877C5.48633 4.48994 5.70577 4.70909 5.97695 4.70909Z" fill="black"/>
<path d="M9.8457 3.7282V4.70914H9.9422C10.2137 4.70914 10.4328 4.4897 10.4328 4.21852C10.4328 3.94735 10.2134 3.72791 9.9422 3.72791L9.8457 3.7282Z" fill="black"/>
<path d="M8.24602 3.34596L8.32595 3.34509C8.31985 2.86 8.43146 2.51122 8.66659 2.2787C9.11332 1.83749 9.98062 1.85784 10.8191 1.87905C11.6931 1.90027 12.5973 1.92207 13.0833 1.41198C13.3559 1.12569 13.4681 0.711221 13.4269 0.145616L13.1374 0.166833C13.1723 0.646115 13.0859 0.98792 12.8735 1.21143C12.613 1.48435 12.1788 1.56951 11.6728 1.59044C11.7864 1.53114 11.8914 1.45848 11.9809 1.3617C12.2512 1.06901 12.3605 0.623444 12.3148 0L12.0248 0.0212175C12.0646 0.560083 11.98 0.93415 11.767 1.16464C11.4461 1.51138 10.8514 1.51487 10.2213 1.51836C9.53622 1.52243 8.82761 1.52649 8.37943 1.98282C8.08616 2.28102 7.94781 2.73008 7.95537 3.35526L8.24602 3.35149C8.24573 3.34945 8.24602 3.348 8.24602 3.34596Z" fill="black"/>
<path d="M6.42382 13.8922V13.8806C6.89351 13.7164 7.12836 13.3876 7.12836 12.988C7.12836 12.4887 6.72319 12.0541 5.93611 12.0541C5.47804 12.0541 5.05515 12.1951 4.83803 12.3477L5.00254 12.8706C5.16095 12.7651 5.47223 12.6299 5.78352 12.6299C6.20031 12.6299 6.39417 12.8473 6.39417 13.1054C6.39417 13.487 5.97128 13.6399 5.63674 13.6399H5.31383V14.1683H5.64837C6.08899 14.1683 6.5116 14.3622 6.5116 14.8142C6.51741 15.1138 6.29419 15.4254 5.74254 15.4254C5.37864 15.4254 5.02027 15.2783 4.87349 15.19L4.70898 15.7364C4.91447 15.8715 5.31383 16.0003 5.7777 16.0003C6.72319 16.0003 7.26351 15.4896 7.26351 14.8438C7.26351 14.3267 6.8877 13.9745 6.42382 13.8922Z" fill="black"/>
</g>
<defs>
<clipPath id="clip0_177_639">
<rect width="16" height="16" fill="white"/>
</clipPath>
</defs>
</svg>
