<svg width="16" height="16" viewBox="0 0 16 16" fill="none" xmlns="http://www.w3.org/2000/svg">
<g clip-path="url(#clip0_177_315)">
<path fill-rule="evenodd" clip-rule="evenodd" d="M14.1006 0H1.90198C0.852563 0 0.00144521 0.849969 1.53326e-05 1.89938V14.0801C-0.00201396 14.5858 0.197466 15.0716 0.554372 15.4299C0.911281 15.7882 1.39621 15.9897 1.90198 15.9897H14.1006C14.6059 15.989 15.0902 15.7872 15.4465 15.429C15.8029 15.0707 16.002 14.5854 16 14.0801V1.89938C15.9986 0.850969 15.149 0.00141201 14.1006 0ZM6.90037 11.5168C6.89969 11.6858 6.83169 11.8476 6.71144 11.9664C6.59119 12.0852 6.42856 12.1512 6.25956 12.1499H3.59374C3.24507 12.1485 2.96318 11.8654 2.96318 11.5168V3.58345C2.96318 3.23479 3.24507 2.95174 3.59374 2.95033H6.25956C6.60862 2.95173 6.89125 3.23437 6.89269 3.58345L6.90037 11.5168ZM13.0522 7.87437C13.0522 8.04362 12.9844 8.20581 12.8641 8.32481C12.7436 8.44375 12.5806 8.50956 12.4114 8.50756H9.74556C9.3965 8.50606 9.11387 8.22344 9.11244 7.87437V3.58345C9.11387 3.23437 9.3965 2.95173 9.74556 2.95033H12.4114C12.7601 2.95174 13.0419 3.23479 13.0419 3.58345L13.0522 7.87437Z" fill="url(#paint0_linear_177_315)"/>
</g>
<defs>
<linearGradient id="paint0_linear_177_315" x1="2498.4" y1="1023.34" x2="2498.4" y2="0" gradientUnits="userSpaceOnUse">
<stop stop-color="#0052CC"/>
<stop offset="1" stop-color="#2684FF"/>
</linearGradient>
<clipPath id="clip0_177_315">
<rect width="16" height="16" fill="white"/>
</clipPath>
</defs>
</svg>
