<svg width="16" height="16" viewBox="0 0 16 16" fill="none" xmlns="http://www.w3.org/2000/svg">
<g clip-path="url(#clip0_177_286)">
<mask id="mask0_177_286" style="mask-type:luminance" maskUnits="userSpaceOnUse" x="0" y="0" width="16" height="16">
<path d="M15.1005 0H0.9375V16H15.1005V0Z" fill="white"/>
</mask>
<g mask="url(#mask0_177_286)">
<path d="M15.0957 11.1944V3.73149L8.63294 0V2.86524L11.1648 4.33114C11.2647 4.39776 11.2647 4.53111 11.1648 4.56442L8.1665 6.29681C8.06656 6.36344 7.96663 6.33013 7.9 6.29681L4.90181 4.56442C4.80187 4.53111 4.80187 4.36445 4.90181 4.33114L7.43363 2.86524V0L0.9375 3.73149V11.1944L3.4027 9.76181V6.82994C3.4027 6.73 3.53596 6.66338 3.60258 6.69669L6.60079 8.42906C6.70074 8.49569 6.73405 8.56244 6.73405 8.66238V12.1272C6.73405 12.2272 6.60079 12.2938 6.53417 12.2605L4.00234 10.7946L1.53714 12.2272L7.99994 15.992L14.4628 12.2605L11.9976 10.8279L9.46575 12.2938C9.36581 12.3604 9.26587 12.2938 9.26587 12.1606V8.69569C9.26587 8.59575 9.3325 8.49569 9.39913 8.46237L12.3974 6.73C12.4973 6.66338 12.5972 6.73 12.5972 6.86325V9.79513L15.0957 11.1944Z" fill="#4C4C4C"/>
<path d="M8 15.992L14.4629 12.2605L11.9976 10.8279L9.46581 12.2938C9.36587 12.3605 9.26594 12.2938 9.26594 12.1606V8.6957C9.26594 8.59576 9.33256 8.4957 9.39919 8.46239L12.3974 6.73001C12.4974 6.66339 12.5973 6.73001 12.5973 6.86326V9.79514L15.0625 11.2277V3.73151L8 7.82945V15.992Z" fill="black"/>
<path d="M8.63294 0V2.86524L11.1648 4.33114C11.2647 4.39776 11.2647 4.53111 11.1648 4.56442L8.1665 6.29681C8.06656 6.36344 7.96663 6.33013 7.9 6.29681L4.90181 4.56442C4.80187 4.53111 4.80187 4.36445 4.90181 4.33114L7.43363 2.86524V0L0.9375 3.73149L7.99994 7.82944L15.0624 3.73149L8.63294 0Z" fill="#808080"/>
<path d="M6.56748 12.2938L4.03566 10.8279L1.57046 12.2605L8.03325 15.992V7.82945L0.9375 3.73151V11.1944L3.4027 9.76182V6.82995C3.4027 6.73001 3.53596 6.66339 3.60258 6.6967L6.60079 8.42908C6.70074 8.4957 6.73405 8.56245 6.73405 8.66239V12.1273C6.76736 12.2605 6.66742 12.3605 6.56748 12.2938Z" fill="#4C4C4C"/>
</g>
</g>
<defs>
<clipPath id="clip0_177_286">
<rect width="16" height="16" fill="white"/>
</clipPath>
</defs>
</svg>
