<svg width="16" height="16" viewBox="0 0 16 16" fill="none" xmlns="http://www.w3.org/2000/svg">
<g clip-path="url(#clip0_184_1029)">
<path fill-rule="evenodd" clip-rule="evenodd" d="M8.03125 15.6875C12.2942 15.6875 15.75 12.2317 15.75 7.96875C15.75 3.7058 12.2942 0.25 8.03125 0.25C3.7683 0.25 0.3125 3.7058 0.3125 7.96875C0.3125 12.2317 3.7683 15.6875 8.03125 15.6875ZM3.09407 8.03125C3.06287 5.25 5.34403 3.375 7.25028 3.1875C5.87537 3.96875 6.03162 5.6875 6.87531 5.34375V10.1562C7.21912 10.8438 7.93781 10.6875 8.75031 10.0625L8.75037 6.09375C8.75037 5.5 8.15662 5.0625 8.15662 5.0625C8.15662 5.0625 8.81287 5 9.12537 5.28125C10.6879 3.625 12.0941 3.625 12.0941 3.625C12.0696 3.6495 12.0423 3.67627 12.0127 3.70532C11.5888 4.12095 10.6879 5.00425 10.6879 6.40625C10.6879 7.90625 10.7191 10.0938 10.7191 10.0938C11.07 10.5532 11.6879 10.2812 12.7503 9.1875C12.4066 10.8438 11.0629 12.0312 10.0629 12.4688L9.25031 11.5937L7.93781 12.9062C7.93781 12.9062 6.71906 12.9062 5.71906 12.375C4.71906 11.8437 4.06281 10.9375 4.06281 10.9375C4.57897 11.0375 4.82822 11.0507 4.93781 10.7188L4.93787 6.875C4.93787 6.5625 4.03162 5.375 3.09407 8.03125Z" fill="black"/>
</g>
<defs>
<clipPath id="clip0_184_1029">
<rect width="16" height="16" fill="white"/>
</clipPath>
</defs>
</svg>
